<svg xmlns="http://www.w3.org/2000/svg" viewBox="0 0 1652 2160"><rect width="1652" height="2160" style="fill:#e9492f"/><path d="M702.2023,744.8553c-.505-10.522-7.581-18.846-11.995-25.996-16.2732-35.0933-38.0038-68.0831-59.9757-99.9871-22.0519-41.3531-57.9028-71.7642-89.9653-104.9849-21.4546-19.7325-44.0614-36.7634-34.9832-70.9918C516.93,380.4274,669.6884,323.8166,690.2113,398.9c11.544,21.8485,6.3069,51.0787,11.9914,74.9918,8.3385,70.15,29.52,148.6284,80.9676,196.9735,68.4239-208.4763-100.76-332.898-6.999-393.9459,17.9742-17.5691,33.4573-15.176,57.98-13.9972,48.3465,1.9488,63.9008-5.6937,94.9605,36.9937C945.5268,336.8824,920.341,381.27,909.12,416.9c-1.4552,16.74-5.3132,32.4453-9.9969,48.9934-6.196,36.14-5.2742,70.3434-8.9971,106.9851-3.1991,13.5461-.0951,40.0921,3,51.9941.7459,16.2862,4.8618,34.6545,9.9954,48.9931,31.9278-67.243,65.44-138.1759,78.9725-212.9709,6.0715-97.8748,20.2028-201.0356,140.9442-133.977,52.3323,11.2738,81.5018,87.6539,31.9819,126.9781-21.1353,25.4512-52.1375,42.2688-74.9678,65.9909-38.2591,49.7761-96.9538,146.7483-89.9649,212.9705,14.2349.8116,26.9523-8.6631,35.985-18.9975a142.2139,142.2139,0,0,0,26.99-24.9966c8.6031-3.5878,14.4694-14.7213,21.9926-20.9949,84.7887-56.5645,77.6584-181.8879,163.927-194.9818,89.8369-13.9895,173.0358,135.0776,64.9781,173.9753-75.1974,43.6645-167.1784,69.6546-221.9093,141.9888,34.1044,2.025,69.5047-6.0634,102.9594-10.9957,20.63-2.13,44.0452-4.6542,62.975-11,71.8984-39.5282,129.907-63.9558,160.9376,34.9962,8.6094,189.6555-121.1461,110.2806-235.9065,81.9771-71.0674-14.7695-202.4717-43.3842-238.9094,41-4.1162,9.3937-10.5282,18.9547-10.9932,31.9987,75.2187,30.0362,146.68,67.988,202.9187,126.9833,239.39-165.3795,416.1414,127.9695,156.9369,304.95-13.1322,15.2309-26.5592,13.2543-27.9869,37.0034-46.7419,193.1338-224.0508,322.44-422.8317,337.9549-21.1815,32.98-36.3385,71.3889-64.9731,97.9886-34.6123,22.1652-72.228,43.1234-117.9542,33.9966-1.7457-3.0471-3.39-4.5282-3.9987-9.0012,7.3383-12.957,8.4561-10.3717,20.9932-15.9966,9.8474-10.1451,22.0877-17.2836,32.9845-25.9988,16.9624-14.5547,36.8473-53.7771,39.9853-77.9886-225.9886-27.0906-572.8546-218.5507-483.814-490.9307,32.4727-92.8176,101.6212-167.9905,196.9285-194.9766,49.71-168.3615,181.2141-165.7489,331.8676-153.98-1.164-5.1308-19.5672-14.7546-25.9888-17.9992-16.0393-6.6338-34.8193-5.2848-52.98-9.9978-15.413-4-43.126-6.338-60.976-2A795.605,795.605,0,0,0,524.273,907.8318c-61.66,17.8387-158.6514,68.85-203.92,2-41.815-96.0965,9.5279-166.1716,114.956-139.98,2.8863,7.0713,283.3455,77.484,189.9281,26.9934q-30.4906-10.4931-60.98-20.9944c-29.503-13.014-55.892-32.271-87.965-42.994-23.6155-6.397-54.446-.6266-79.9677-5-49.4533-10.79-79.5533-17.2629-70.9693-72.9908,2.712-54.8434,41.4393-101.6124,90.9591-123.9833,61.6342-31.68,96.0428,60.9346,129.9527,97.9854,27.17,37.7654,69.47,60.4465,104.9562,89.9908,9.0807,2.34,15.44,11.0935,24.9908,12.9961C683.5033,736.3333,692.4723,743.4263,702.2023,744.8553Zm70.972,298.96c-5.319,3.951-45.833,2.924-53.979,1-31.8924-2.2329-66.0048,2.9248-94.9623,12.9962-43.6941,16.4975-17.8339,17.9726,10.9966,21.9982,31.2428,9.7328,67.04,7.9817,98.9609,6.0031,19.939-2.4242,27.4028,2.7644,37.9829-17.0022C776.0719,1064.0385,787.2874,1044.0528,773.1743,1043.8153Zm129.948,47.994c-41.8127,149.6856-193.817,132.2965-316.874,112.985,21.62,103.2518,125.1574,148.9,221.9156,130.979,84.821-37.1889,148.322-108.538,215.91-168.974-9.673-5.951-19.217-18.131-28.988-24.997-19.334-13.583-39.307-24.639-60.976-35.995C924.9413,1101.0023,914.7613,1093.5463,903.1223,1091.8093Zm352.86,63.992c-15.5107,4.5253-43.0689,16.504-44.9827,35.9949,6.8367,6.9431,9.7267,17.4551,14.9947,25.9961,10.487,17.004,23.045,36.19,31.987,53.993q1.4985-.5,2.999-1C1287.2868,1235.2349,1329.84,1161.3855,1255.9823,1155.8013Zm-804.68,65.991C215.9314,1417.7176,571.5932,1626.2577,763.1778,1633.74c34.5417-139.9894,256.502-207.7411,370.8525-286.9642,1.8457-22.7094-10.8887-43.4-19.9929-62.9922-5.2988-15.81-7.0506-17.3427-17.9929-3.9986-9.85,6.8014-18.1258,14.9907-25.9876,23.9969-29.6776,26.0225-59.4651,51.8439-88.9679,77.9857-168.2524,169.0384-486.6642,81.0936-525.7877-159.9752Zm622.752,278.962c-60.592,34.5065-166.9427,60.09-200.92,121.984,65.5924-12.3135,141.63-45.81,181.9294-96.984C1059.152,1522.6235,1082.5363,1500.1033,1074.0543,1500.7543Z" style="fill:#1d1d1b"/></svg>