<?xml version="1.0" encoding="UTF-8"?>
<svg xmlns="http://www.w3.org/2000/svg" width="1000" height="500">
<rect width="1000" height="500" style="fill:#000"/>
<path style="fill:#fff" d="M 300,500 C 421.54172,483.95034 500,385.19006 500,285 500,143.86273 389.11058,100 340,100 c -90.22185,0 -131,61.11002 -131,120 0,62.34351 52.70158,98 86,98 34.63293,0 52.60357,-17.1047 51.56594,-40.31876 C 317.08228,293.24121 261,276.31807 261,220 c 0,-37.50924 32.66575,-61.30123 68.4464,-61.30123 53.34339,0 99.70734,53.14284 99.70734,108.01671 C 429.15374,342.72234 371.56659,400 290,400 209.69763,400 115,319.41155 115,220 115,105.41951 198.64059,18.347192 300,0 L 0,0 0,500 z"/>
</svg>
