<?xml version="1.0" encoding="UTF-8" standalone="no"?>
<svg
   xmlns:dc="http://purl.org/dc/elements/1.1/"
   xmlns:cc="http://creativecommons.org/ns#"
   xmlns:rdf="http://www.w3.org/1999/02/22-rdf-syntax-ns#"
   xmlns:svg="http://www.w3.org/2000/svg"
   xmlns="http://www.w3.org/2000/svg"
   xmlns:sodipodi="http://sodipodi.sourceforge.net/DTD/sodipodi-0.dtd"
   xmlns:inkscape="http://www.inkscape.org/namespaces/inkscape"
   inkscape:version="1.0 (4035a4fb49, 2020-05-01)"
   sodipodi:docname="Flag_of_Benelux.svg"
   id="svg2"
   height="400"
   width="600"
   version="1.0">
  <metadata
     id="metadata99">
    <rdf:RDF>
      <cc:Work
         rdf:about="">
        <dc:format>image/svg+xml</dc:format>
        <dc:type
           rdf:resource="http://purl.org/dc/dcmitype/StillImage" />
      </cc:Work>
    </rdf:RDF>
  </metadata>
  <sodipodi:namedview
     inkscape:current-layer="svg2"
     inkscape:window-maximized="1"
     inkscape:window-y="-8"
     inkscape:window-x="-8"
     inkscape:cy="200"
     inkscape:cx="300"
     inkscape:zoom="1.8333333"
     showgrid="false"
     id="namedview97"
     inkscape:window-height="1018"
     inkscape:window-width="1920"
     inkscape:pageshadow="2"
     inkscape:pageopacity="0"
     guidetolerance="10"
     gridtolerance="10"
     objecttolerance="10"
     borderopacity="1"
     bordercolor="#666666"
     pagecolor="#ffffff" />
  <defs
     id="defs11" />
  <g
     id="g4633"
     transform="translate(-6.470657,100.65285)">
    <g
       id="g4627"
       transform="translate(6.470657,-0.6528249)">
      <rect
         id="rect6"
         style="fill:#ffffff"
         y="14.2857"
         x="0"
         height="171.42857"
         width="600" />
      <rect
         id="rect2165"
         style="fill:#000000;fill-opacity:1;stroke-width:1.25831"
         y="-35.71452"
         x="150"
         height="271.42899"
         width="300" />
      <rect
         id="rect4"
         style="fill:#21468b;fill-opacity:1"
         y="185.71428"
         x="0"
         height="114.28571"
         width="600" />
      <rect
         id="rect8"
         style="fill:#ef2b2d"
         y="-100.00002"
         x="0"
         height="114.28571"
         width="600" />
    </g>
    <g
       id="g4539"
       transform="matrix(0.9994199,0,0,0.9994199,7.0180353,4.4606345)">
      <path
         id="path2499"
         style="fill:#f8d80e;fill-opacity:1;fill-rule:evenodd;stroke:#000000;stroke-width:1;stroke-linecap:round;stroke-linejoin:round;stroke-miterlimit:4;stroke-dasharray:none;stroke-dashoffset:0.99999998;stroke-opacity:1"
         transform="matrix(1.442511,0,0,1.442511,47.910861,-96.076039)"
         d="M 217.93185 229.72453 A 4.1216426 4.1216426 0 1 1  209.68857,229.72453 A 4.1216426 4.1216426 0 1 1  217.93185 229.72453 z" />
      <path
         id="path2412"
         style="fill:#f8d80e;fill-opacity:1;fill-rule:evenodd;stroke:#000000;stroke-width:1.44251096px;stroke-linecap:butt;stroke-linejoin:miter;stroke-opacity:1"
         d="M 224.47421,55.099114 C 221.85446,60.3709 216.00654,63.958858 210.9146,66.639202 C 200.48105,72.131317 192.64444,78.028403 186.39192,83.949334 C 178.33637,70.457269 169.81035,80.653485 168.50478,83.372329 C 170.99555,70.270968 154.28792,76.651772 155.81068,80.631559 C 148.25921,83.340435 151.21382,90.936222 155.23368,96.066426 C 156.06934,97.418766 150.52563,109.42124 165.04275,108.47202 C 169.26398,108.19601 175.69842,102.13565 180.70797,98.092779 L 177.08876,108.9504 C 183.04676,107.68849 187.06449,104.91213 189.61679,101.15519 C 191.15184,98.895609 191.58021,96.00173 195.52398,96.32628 C 195.87118,98.641554 195.92931,101.24588 193.5144,106.44479 C 197.5976,103.90008 201.68082,101.05649 205.76402,95.587166 C 206.32275,98.494273 206.03749,101.6827 204.37202,105.3312 C 210.34418,101.63726 216.37872,98.504847 221.63286,88.348747 L 221.63286,98.927979 C 226.19957,95.012845 232.18834,93.698083 233.53302,84.096946 C 233.91098,81.398268 234.76841,79.002848 237.79574,78.86542 L 237.79574,91.266067 C 243.00159,86.444734 246.97698,78.25557 248.06502,74.796457 C 248.06502,74.796457 249.22757,77.702872 250.00261,80.996788 C 250.77765,84.290718 251.16518,87.972151 251.16518,87.972151 C 256.46293,82.320681 257.08352,76.251619 256.20294,70.14622 C 256.20294,70.14622 259.10934,74.166729 260.46566,77.509099 C 261.82199,80.851469 262.01574,85.259509 262.01574,85.259509 L 265.30966,79.446694 L 277.12903,34.81022 L 256.11535,18.144199 L 222.78331,48.577796 L 224.47421,55.099114 z " />
      <path
         id="path2397"
         style="fill:#f8d80e;fill-opacity:1;fill-rule:evenodd;stroke:#000000;stroke-width:1.44251096px;stroke-linecap:butt;stroke-linejoin:miter;stroke-opacity:1"
         d="M 237.14544,2.0355692 C 237.14544,2.0355692 225.81724,-9.2506888 214.29237,-17.751846 C 203.60341,-25.636415 202.17075,-42.437788 210.94803,-50.637974 C 212.68266,-52.258563 214.12976,-54.063809 214.57107,-57.047982 C 215.45297,-63.01145 205.64135,-66.640718 202.86584,-56.49059 C 203.17917,-65.510268 191.00532,-63.975987 191.718,-55.09711 C 182.31643,-69.663766 174.22457,-49.72797 181.40624,-45.064054 C 172.41134,-39.492457 177.28191,-27.779646 185.58668,-31.965343 C 182.87764,-24.973369 189.08441,-25.7839 183.63581,-19.145326 C 184.65611,-18.493453 185.42479,-17.589956 190.04582,-20.538806 C 189.61536,-18.923579 188.53934,-18.191526 187.67106,-16.434209 C 186.75325,-14.576649 186.03486,-11.671626 185.30799,-9.1122698 C 187.94054,-8.5234888 189.80601,-8.7017903 191.718,-8.8335738 C 188.96158,-8.1530591 190.14524,-1.6305827 190.20968,3.9864412 C 192.62701,3.2344256 193.48182,3.5832277 194.50495,8.7242734 C 196.02565,16.365476 209.83324,30.183866 209.83324,30.183866 C 242.98041,23.59681 233.41801,12.043524 237.14544,2.0355692 z " />
      <path
         id="path2389"
         style="fill:#ffffff;fill-opacity:1;fill-rule:evenodd;stroke:#000000;stroke-width:1.44251096px;stroke-linecap:butt;stroke-linejoin:miter;stroke-opacity:1"
         d="M 171.24555,-58.282251 C 176.12399,-61.269886 179.78211,-60.822599 183.5069,-58.426502 C 182.80298,-52.371716 180.74589,-53.02275 178.60236,-51.6467 C 176.61295,-57.380801 174.28137,-57.237498 171.24555,-58.282251 z " />
      <path
         id="path2395"
         style="fill:#ffffff;fill-opacity:1;fill-rule:evenodd;stroke:#000000;stroke-width:1.44251096px;stroke-linecap:butt;stroke-linejoin:miter;stroke-opacity:1"
         d="M 208.60659,-69.389585 C 208.90927,-65.631967 208.91187,-62.02439 205.43306,-60.157515 C 207.00361,-56.694949 209.73056,-56.701566 213.22262,-59.003506 C 214.08096,-64.596218 211.06398,-66.744196 208.60659,-69.389585 z " />
      <path
         id="path2387"
         style="fill:#ffffff;fill-opacity:1;fill-rule:evenodd;stroke:#000000;stroke-width:1.44251096px;stroke-linecap:butt;stroke-linejoin:miter;stroke-opacity:1"
         d="M 169.94729,-43.568639 C 169.48564,-30.90336 178.65345,-31.977158 179.61212,-34.769321 C 180.7579,-38.106475 178.41544,-39.548083 174.56333,-40.683617 C 171.49178,-41.589055 169.94729,-43.568639 169.94729,-43.568639 z " />
      <path
         id="path2391"
         style="fill:#ffffff;fill-opacity:1;fill-rule:evenodd;stroke:#000000;stroke-width:1.44251096px;stroke-linecap:butt;stroke-linejoin:miter;stroke-opacity:1"
         d="M 189.85394,-69.678088 C 194.03274,-66.167978 192.28928,-62.657867 191.72921,-59.147757 C 195.73893,-58.531094 198.43599,-60.014689 200.52852,-62.465533 C 199.57354,-68.182886 194.98487,-69.275554 189.85394,-69.678088 z " />
      <path
         id="path2400"
         style="fill:#ffffff;fill-opacity:1;fill-rule:evenodd;stroke:#000000;stroke-width:1.44251096px;stroke-linecap:butt;stroke-linejoin:miter;stroke-opacity:1"
         d="M 173.16481,70.31609 C 174.14306,73.857238 174.8375,77.276754 172.64723,79.459965 C 175.40765,81.485857 178.16806,80.927562 180.92848,79.287441 C 180.58858,75.397797 178.10492,72.365653 173.16481,70.31609 z " />
      <path
         id="path2404"
         style="fill:#ffffff;fill-opacity:1;fill-rule:evenodd;stroke:#000000;stroke-width:1.44251096px;stroke-linecap:butt;stroke-linejoin:miter;stroke-opacity:1"
         d="M 154.56314,71.868823 C 161.33433,69.140444 164.20031,71.043274 165.91871,75.664402 C 163.04328,78.539845 160.16784,79.344954 157.29241,78.079771 C 158.09678,75.558406 159.59873,73.042508 154.56314,71.868823 z " />
      <path
         id="path2406"
         style="fill:#ffffff;fill-opacity:1;fill-rule:evenodd;stroke:#000000;stroke-width:1.44251096px;stroke-linecap:butt;stroke-linejoin:miter;stroke-opacity:1"
         d="M 141.76506,87.396171 C 144.17258,85.950616 146.28825,84.213198 150.90894,84.980801 C 152.97499,86.71317 154.67359,89.057958 154.01441,95.332376 C 147.50351,94.421098 145.31447,90.422789 141.76506,87.396171 z " />
      <path
         id="path2408"
         style="fill:#ffffff;fill-opacity:1;fill-rule:evenodd;stroke:#000000;stroke-width:1.44251096px;stroke-linecap:butt;stroke-linejoin:miter;stroke-opacity:1"
         d="M 149.87378,109.82456 C 149.97591,106.70293 148.44785,105.05493 154.18694,99.331622 C 159.24399,101.09325 159.04035,103.90702 159.70777,106.54657 C 154.0263,105.76987 151.4395,107.40012 149.87378,109.82456 z " />
      <path
         id="path2414"
         style="fill:none;fill-opacity:0.75;fill-rule:evenodd;stroke:#000000;stroke-width:1.44251096px;stroke-linecap:round;stroke-linejoin:round;stroke-opacity:1"
         d="M 155.81068,80.77581 C 159.11048,82.330952 158.1705,83.801808 158.37549,84.953293" />
      <path
         id="path2416"
         style="fill:none;fill-opacity:0.75;fill-rule:evenodd;stroke:#000000;stroke-width:1.44251096px;stroke-linecap:round;stroke-linejoin:round;stroke-opacity:1"
         d="M 168.73837,82.78605 C 178.62017,88.149118 183.83135,85.283628 185.97657,84.333749" />
      <path
         id="path2418"
         style="fill:none;fill-opacity:0.75;fill-rule:evenodd;stroke:#000000;stroke-width:1.44251096px;stroke-linecap:round;stroke-linejoin:round;stroke-opacity:1"
         d="M 179.8281,98.323538 C 181.46452,96.409484 183.61782,95.529206 185.86657,94.839801" />
      <path
         id="path2420"
         style="fill:none;fill-opacity:0.75;fill-rule:evenodd;stroke:#000000;stroke-width:1.44251096px;stroke-linecap:round;stroke-linejoin:round;stroke-opacity:1"
         d="M 195.63987,96.430271 C 196.08426,94.166524 194.60151,90.662189 200.01522,90.657226" />
      <path
         id="path2422"
         style="fill:none;fill-opacity:0.75;fill-rule:evenodd;stroke:#000000;stroke-width:1.44251096px;stroke-linecap:round;stroke-linejoin:round;stroke-opacity:1"
         d="M 205.72749,95.944116 C 205.54966,92.007619 207.80022,91.258378 210.16362,90.657226" />
      <path
         id="path2426"
         style="fill:none;fill-opacity:0.75;fill-rule:evenodd;stroke:#000000;stroke-width:1.44251096px;stroke-linecap:round;stroke-linejoin:round;stroke-opacity:1"
         d="M 221.58816,89.138017 C 221.35838,84.297527 223.05548,84.145688 224.68737,83.364973" />
      <path
         id="path2525"
         style="fill:#f8d80e;fill-opacity:1;fill-rule:evenodd;stroke:#000000;stroke-width:1.44251096px;stroke-linecap:butt;stroke-linejoin:round;stroke-opacity:1"
         d="M 332.58547,110.04483 C 332.58547,110.04483 324.02209,109.44269 312.17888,110.29921 C 296.39377,111.44081 285.10664,111.05289 276.21227,116.45391 C 264.10537,123.80573 261.43572,125.49365 255.82477,125.49365 C 252.68245,125.49365 251.55822,123.95497 248.32372,123.95497 C 240.30931,123.95497 225.02605,134.88884 225.02605,134.88884 C 214.91808,129.66959 214.63998,143.47882 214.63998,147.2064 C 214.63998,153.96272 215.94976,157.44308 215.94976,161.87065 C 215.94976,169.40467 211.57902,171.98605 211.57902,174.42528 C 214.01949,175.28278 215.44547,178.83116 222.02014,165.59566 C 220.6214,179.02934 216.61083,186.52204 213.56225,193.1116 C 212.09329,196.28674 211.08113,199.03104 209.6192,201.48105 C 203.90143,211.06327 195.70151,216.59405 190.6259,216.59405 C 185.18205,216.59405 182.43434,213.1354 182.43434,213.1354 C 188.97972,208.77206 175.71319,197.00524 172.24041,213.31743 C 163.42536,214.41162 164.54156,228.60353 170.9221,228.42055 C 174.98768,241.58083 182.19817,241.53254 191.08194,234.45643 C 191.08194,234.45643 192.48128,237.57723 192.48128,239.93122 C 194.83489,243.70995 199.82237,239.68543 201.19476,236.41122 C 208.98308,247.93241 220.61226,238.50885 220.60293,234.24636 C 220.59359,229.98254 218.80101,230.83733 218.75231,227.03868 C 218.70362,223.24003 220.54417,220.41226 220.54417,220.41226 C 222.71884,224.81509 225.65642,226.41207 227.51841,231.61653 C 231.88918,227.53039 230.02642,222.13733 230.4857,216.74736 C 234.82604,219.09412 236.30081,221.8844 235.92757,226.40667 C 235.92757,226.40667 239.39677,222.25725 239.1927,217.83572 C 238.98862,213.41419 235.36613,209.14597 235.36613,209.14597 C 246.59969,208.15679 244.50282,210.87423 246.13109,212.12176 C 250.81053,205.93835 247.10811,199.26606 241.28074,194.68382 C 250.07366,193.10307 252.46665,196.54811 255.19969,200.64847 C 259.61044,197.57026 258.61221,189.08921 252.84336,183.43313 L 257.27254,182.57372 L 259.71852,185.01969 C 262.57855,180.97704 259.70272,176.11498 257.86751,171.40159 L 263.81717,174.83917 C 262.18065,170.33506 261.76437,167.66132 261.83396,165.71637 C 264.80643,167.43021 266.22956,170.30606 267.51735,173.28342 C 269.36342,169.75368 269.56523,165.23738 269.28448,160.43154 C 273.22441,163.27159 275.03601,167.65953 274.26458,173.92602 C 276.2213,171.10185 278.78165,169.68617 279.56598,164.12645 C 281.32703,165.82496 282.52068,167.09939 289.64257,167.56078 C 285.21586,163.48039 284.14161,159.52062 285.08369,156.24962 C 286.97961,149.66682 298.84485,148.55222 311.15177,148.3361 C 323.45868,148.11998 327.57891,143.54086 336.28882,140.65534 L 332.58547,110.04483 z " />
      <path
         id="path2523"
         style="fill:#f8d80e;fill-opacity:1;fill-rule:evenodd;stroke:#000000;stroke-width:1.44251096px;stroke-linecap:butt;stroke-linejoin:miter;stroke-opacity:1"
         d="M 332.21424,118.00418 L 322.44953,118.00418 C 324.58786,121.91677 327.14758,125.19732 328.36469,130.49175 C 326.96255,132.5977 325.64006,134.67457 326.39296,136.31302 C 327.27421,138.23076 327.47835,140.53481 332.40201,140.06867 L 335.68821,139.69311 L 332.21424,118.00418 z " />
      <path
         sodipodi:nodetypes="cccccccccccccsssssccccsscscscccccscccssccscccscccsccscsccccccccsccscccc"
         id="path2430"
         style="fill:#f8d80e;fill-opacity:1;fill-rule:evenodd;stroke:#000000;stroke-width:1.44251px;stroke-linecap:butt;stroke-linejoin:miter;stroke-opacity:1"
         d="m 408.57369,217.88609 c 1.71562,6.35079 1.64693,11.89948 -0.61208,14.64188 -1.543,-0.79737 -5.19948,-10.27706 -8.94357,-10.09758 -0.7047,6.58705 -7.04838,11.56298 -12.96441,16.66109 l 8.02713,7.69266 c -7.4213,3.28952 -11.41583,1.09618 -15.05088,-1.67231 -2.48341,9.69645 -4.65329,11.01314 -9.03052,11.70623 1.0926,-4.0434 2.72436,-8.35636 0.87504,-10.92881 -8.30091,5.93664 -11.72516,14.60163 -23.79267,9.03242 l -5.28727,-3.52485 -1.32181,-3.74514 -1.76242,-6.38878 c 1.87261,-3.4423 -7.84763,0.77306 6.26402,-10.45772 5.14122,4.00357 9.00111,11.05491 20.47752,3.76902 4.27602,-2.71468 2.96044,-7.63112 3.42675,-11.06863 0.53997,-3.98058 -0.60819,-8.11922 3.4063,-12.07694 2.16296,-2.13237 3.56114,-3.13475 3.56114,-7.12228 0,-4.68861 -3.08599,-8.36561 -8.69922,-8.36561 -4.01686,0 -5.76464,-1.35022 -8.21562,-2.54293 -1.58822,5.5887 -4.905,6.69838 -8.02002,8.21562 -0.43827,-4.8432 -0.83657,-9.13957 -3.32539,-11.93222 1.32459,21.075 -11.61576,16.39462 -14.05767,15.15055 2.82897,-2.91202 7.15549,-3.0807 5.43505,-11.607 -1.1378,-5.63884 -7.12689,-15.11116 -9.92184,-22.63622 -3.44999,-9.28869 -3.07092,-20.79149 3.79221,-28.13787 -0.30543,-9.43003 -1.23021,-20.01057 -9.13253,-28.91183 C 315.9049,104.75731 312.53321,100.6381 305.84986,98.076926 294.8343,97.875609 271.56045,93.032595 265.73002,80.180774 262.43114,72.909148 263.0353,57.16779 266.90206,39.38476 l 9.24109,-14.74066 32.14095,2.434238 11.58516,26.100433 c 7.41139,8.040326 15.96794,16.235303 19.11327,23.666196 2.71034,6.556097 10.15672,11.233439 17.35521,15.687307 9.40901,5.821556 12.66179,10.510916 15.95778,15.461916 0.0512,0.0589 0.12533,0.12682 0.18032,0.18031 0.0334,0.0315 0.10002,0.10617 0.13523,0.13524 4.71868,3.03265 8.67738,4.36907 14.60543,6.53638 11.38776,4.16339 20.44401,4.32698 24.56371,1.2969 7.01827,-5.162 15.10958,-11.10191 15.12336,-27.460474 -4.95479,-42.623758 -53.04491,-64.767872 -54.20834,-105.048873 0,-17.991333 12.40472,-40.203888 34.42295,-40.203888 9.99178,0 18.33396,2.324041 22.76547,8.878458 7.11036,-0.284853 10.64211,2.996789 15.52735,0.190584 0.28009,3.5632 -0.48034,6.517823 -6.13138,7.502321 7.08477,3.872427 9.96943,9.27738 9.96943,19.446777 0,12.590768 4.90448,14.7122573 8.23878,16.336894 -15.8154,0.8657807 -26.22716,-5.3996677 -27.90676,-24.031558 -2.1412,3.753184 -4.91419,3.083997 -7.50887,3.662861 -0.0168,-11.87433 -4.71436,-20.991394 -16.48287,-20.889629 -20.93887,0.181064 -23.07604,21.722891 -23.07604,27.299638 2.24597,42.949909 53.71606,72.762925 54.56072,107.441296 0,10.968003 -8.40675,40.724113 -31.85894,40.724113 -12.45754,0 -21.7794,-9.01648 -27.04943,-9.01648 2.71936,6.18028 8.18514,11.65171 8.18514,18.45648 0,4.26208 1.21616,6.57838 2.66788,7.81308 -3.51625,0.787 -5.87803,-0.16883 -8.7659,-2.09618 0.80886,1.359 -1.74652,9.21627 17.34124,4.76408 0.31648,3.03555 -1.14165,4.65139 -2.78672,6.1177 7.21677,2.89732 8.45512,4.70765 11.65789,6.87516 H 394.6578 c 10.14942,2.59601 16.32548,8.52193 16.14167,10.31272 -0.21065,2.64046 2.62125,4.53363 5.53003,7.17409 2.55062,2.89621 6.35847,4.18577 6.4076,10.14027 0.0147,1.78416 0.19388,3.51918 1.26083,5.76378 -3.12278,-1.50207 -5.38753,-1.71712 -7.56496,-1.80117 8.47748,7.66556 10.665,12.27813 10.08663,14.7697 -0.35926,1.54762 0.28224,3.44985 -1.44096,5.58367 -3.72244,-6.10996 -7.4449,-6.93473 -11.16734,-7.38485 3.86048,3.4355 5.08435,8.45294 4.14273,14.7697 -1.74204,-1.9128 -5.46938,-2.88819 -9.48034,-4.3472 z" />
      <path
         id="path2377"
         style="fill:#ffffff;fill-opacity:1;fill-rule:evenodd;stroke:#000000;stroke-width:1.44251096px;stroke-linecap:butt;stroke-linejoin:miter;stroke-opacity:1"
         d="M 271.40477,-32.200781 L 275.22121,-26.243425 L 275.3143,-33.410869 L 271.40477,-32.200781 z " />
      <path
         id="path2379"
         style="fill:#ffffff;fill-opacity:1;fill-rule:evenodd;stroke:#000000;stroke-width:1.44251096px;stroke-linecap:butt;stroke-linejoin:miter;stroke-opacity:1"
         d="M 275.22121,-15.166467 L 275.03504,-22.892413 L 280.06156,-14.607964 L 275.22121,-15.166467 z " />
      <path
         id="path2375"
         style="fill:#ef2b2d;fill-opacity:1;fill-rule:evenodd;stroke:#000000;stroke-width:1.44251096px;stroke-linecap:butt;stroke-linejoin:miter;stroke-opacity:1"
         d="M 286.0765,-21.573962 C 280.15998,-24.314227 277.27975,-27.717243 260.75499,-27.426578 C 257.40705,-27.502625 255.83105,-29.35061 255.0218,-31.965343 C 258.4022,-31.030258 260.03834,-32.512336 260.03834,-35.309695 C 260.03834,-37.991266 257.61969,-39.353026 254.66348,-39.251252 C 251.70729,-39.149479 249.28863,-37.657462 249.28863,-34.354164 C 249.28863,-32.645322 248.70343,-23.25918 264.45766,-23.485021 C 273.90874,-23.620506 280.36878,-21.618536 286.31538,-18.468493 L 286.0765,-21.573962 z " />
      <path
         id="path2329"
         style="fill:#f8d80e;fill-opacity:1;fill-rule:evenodd;stroke:#000000;stroke-width:1.44251096px;stroke-linecap:butt;stroke-linejoin:miter;stroke-opacity:1"
         d="M 290.57593,-60.461066 C 320.01148,-67.851811 323.76145,-62.685233 339.58659,-56.262735 C 343.72058,-49.7905 343.83999,-40.299798 353.14619,-41.549123 C 352.35512,-37.745898 350.85183,-34.645841 347.95315,-34.62507 C 349.31061,-32.028551 351.38182,-29.480978 351.41518,-26.835511 C 351.49637,-20.393453 353.83463,-21.726941 356.03121,-20.488463 C 356.79003,-16.0473 353.92147,-13.87324 348.53015,-13.275908 C 349.67934,-11.543289 349.15206,-9.2518429 354.5887,-8.9483746 C 353.66679,-5.8171506 354.14276,-0.93827979 347.37614,-2.1685729 C 347.08764,1.5819557 345.9106,2.4655413 345.06813,8.3617574 C 344.53999,12.058012 344.37761,16.326303 344.49112,20.767352 C 338.83323,22.522458 335.55428,20.709193 332.95103,17.88233 L 332.95103,30.864929 C 332.4196,33.942285 334.46359,37.019643 341.6061,40.096999 C 335.43205,45.72625 332.39375,42.993547 328.335,42.982021 C 328.69358,45.636402 326.46155,47.1394 333.23954,52.646845 C 325.86649,54.233925 318.19156,55.552567 316.79491,48.175061 C 315.46131,51.553653 312.55077,53.35532 308.13985,53.656603 L 307.85134,44.713035 C 306.35725,48.966697 304.82462,52.119203 298.76352,54.089356 C 301.25561,45.234302 299.36746,43.954078 298.18652,40.241251 C 292.03668,60.260779 279.79857,55.642147 276.4046,54.522109 C 282.8856,51.147946 280.85165,40.855664 279.28963,37.50048 C 276.72249,31.986301 277.84711,29.71092 277.84711,29.71092 C 272.53013,33.15229 269.17457,37.040772 268.47079,41.251008 C 265.88088,38.407467 262.87888,35.975996 263.99901,29.422418 C 259.86381,32.211271 254.63579,34.310398 248.99689,34.038453 C 243.2071,33.759231 238.41147,37.348292 233.41778,42.405017 C 224.81313,58.517504 222.09425,56.253123 217.26165,56.253123 C 213.31354,56.253123 210.76354,52.310264 210.0491,50.483079 C 216.58866,50.611419 221.52365,49.189218 221.15643,44.713035 C 217.02603,46.340644 212.80464,47.64974 207.16408,43.991779 C 212.18827,40.794399 214.24813,38.585128 214.66513,36.923475 C 208.03362,37.449034 206.47613,33.746234 204.27905,30.576427 C 212.35712,31.958119 220.43518,19.22469 228.51324,11.535282 C 223.13081,11.264835 222.14748,9.2347492 220.43518,7.4962508 C 236.03049,4.7448515 244.70502,-4.6208416 255.63245,-4.6208416 L 268.61504,-2.0243218 L 270.34606,-6.0633526 C 271.08076,-12.044902 270.91993,-13.548724 270.92306,-15.872427 C 285.19783,-12.293239 284.39734,-16.251675 285.34817,-19.334454 L 285.34817,-32.317053 C 281.61237,-39.309861 279.67307,-31.595797 273.23108,-31.595797 C 269.89439,-31.595797 266.37314,-36.437495 266.06425,-40.486593 C 263.58612,-40.591189 262.83658,-45.657709 262.268,-47.896172 C 264.79877,-48.078368 267.50353,-48.442981 272.22132,-47.896172 C 273.04436,-51.197925 274.96072,-53.786145 278.91108,-54.095011 C 282.83069,-54.401472 284.71083,-58.887019 290.57593,-60.461066 z " />
      <path
         id="path2331"
         style="fill:none;fill-opacity:0.75;fill-rule:evenodd;stroke:#000000;stroke-width:1.44251096px;stroke-linecap:round;stroke-linejoin:round;stroke-opacity:1"
         d="M 347.37614,-2.312824 C 343.95524,-6.8877318 344.13212,-7.8648642 342.76011,-10.390886" />
      <path
         id="path2333"
         style="fill:none;fill-opacity:0.75;fill-rule:evenodd;stroke:#000000;stroke-width:1.44251096px;stroke-linecap:round;stroke-linejoin:round;stroke-opacity:1"
         d="M 332.37403,17.593828 C 328.62786,13.076573 329.97326,11.614261 329.77751,9.227264" />
      <path
         id="path2335"
         style="fill:none;fill-opacity:0.75;fill-rule:evenodd;stroke:#000000;stroke-width:1.44251096px;stroke-linecap:round;stroke-linejoin:round;stroke-opacity:1"
         d="M 328.32878,42.871189 C 328.32878,40.527198 325.45619,38.406982 325.30658,35.531536" />
      <path
         id="path2337"
         style="fill:none;fill-opacity:0.75;fill-rule:evenodd;stroke:#000000;stroke-width:1.44251096px;stroke-linecap:round;stroke-linejoin:round;stroke-opacity:1"
         d="M 316.88756,47.188632 C 316.39229,39.102685 309.03828,36.567601 312.57011,28.623628" />
      <path
         id="path2339"
         style="fill:none;fill-opacity:0.75;fill-rule:evenodd;stroke:#000000;stroke-width:1.44251096px;stroke-linecap:round;stroke-linejoin:round;stroke-opacity:1"
         d="M 307.70709,45.578541 C 308.3092,43.470518 307.46338,41.845138 306.98584,40.096999" />
      <path
         id="path2341"
         style="fill:none;fill-opacity:0.75;fill-rule:evenodd;stroke:#000000;stroke-width:1.44251096px;stroke-linecap:round;stroke-linejoin:round;stroke-opacity:1"
         d="M 298.18652,40.385502 C 298.83206,34.377097 297.3593,33.134885 296.59976,30.287925" />
      <path
         id="path2343"
         style="fill:none;fill-opacity:0.75;fill-rule:evenodd;stroke:#000000;stroke-width:1.44251096px;stroke-linecap:round;stroke-linejoin:round;stroke-opacity:1"
         d="M 263.56626,29.855171 C 266.95894,26.991402 266.19598,25.254007 269.48055,22.498365" />
      <path
         id="path2345"
         style="fill:none;fill-opacity:0.75;fill-rule:evenodd;stroke:#000000;stroke-width:1.44251096px;stroke-linecap:round;stroke-linejoin:round;stroke-opacity:1"
         d="M 233.12927,42.405017 C 230.95402,28.33457 238.82967,25.228733 244.66936,19.901845" />
      <path
         id="path2347"
         style="fill:none;fill-opacity:0.75;fill-rule:evenodd;stroke:#000000;stroke-width:1.44251096px;stroke-linecap:round;stroke-linejoin:round;stroke-opacity:1"
         d="M 221.01218,44.713035 C 221.033,40.512118 222.71923,36.17819 228.08048,32.740193" />
      <path
         id="path2349"
         style="fill:none;fill-opacity:0.75;fill-rule:evenodd;stroke:#000000;stroke-width:1.44251096px;stroke-linecap:round;stroke-linejoin:round;stroke-opacity:1"
         d="M 214.80938,36.779224 C 215.60327,33.975662 218.00659,32.177989 221.87769,31.297682" />
      <path
         id="path2351"
         style="fill:none;fill-opacity:0.75;fill-rule:evenodd;stroke:#000000;stroke-width:1.44251096px;stroke-linecap:round;stroke-linejoin:round;stroke-opacity:1"
         d="M 228.51324,11.535282 L 237.88956,8.2175063" />
      <path
         id="path2353"
         style="fill:none;fill-opacity:0.75;fill-rule:evenodd;stroke:#000000;stroke-width:1.44251096px;stroke-linecap:round;stroke-linejoin:round;stroke-opacity:1"
         d="M 268.61504,-2.0243218 C 276.70952,0.81078643 280.33034,-2.7218667 289.90303,-3.031558 C 296.27402,-3.2376712 296.98688,-8.9846364 304.38932,-10.246634" />
      <path
         id="path2355"
         style="fill:none;fill-opacity:0.75;fill-rule:evenodd;stroke:#000000;stroke-width:1.44251096px;stroke-linecap:round;stroke-linejoin:round;stroke-opacity:1"
         d="M 270.34606,-6.0633526 C 278.17244,-6.9298358 288.06003,-4.7777753 294.9414,-11.453292 C 298.11588,-14.532803 301.5221,-16.691373 305.25482,-18.757449" />
      <path
         id="path2357"
         style="fill:none;fill-opacity:0.75;fill-rule:evenodd;stroke:#000000;stroke-width:1.44251096px;stroke-linecap:round;stroke-linejoin:round;stroke-opacity:1"
         d="M 327.11404,-56.471014 L 325.32485,-49.355973" />
      <path
         id="path2359"
         style="fill:none;fill-opacity:0.75;fill-rule:evenodd;stroke:#000000;stroke-width:1.44251096px;stroke-linecap:butt;stroke-linejoin:miter;stroke-opacity:1"
         d="M 314.63114,-57.849497 C 314.63114,-57.849497 313.79025,-52.826065 312.61163,-54.098969 C 311.71006,-55.072664 308.13985,-55.397229 308.13985,-55.397229" />
      <path
         id="path2361"
         style="fill:none;fill-opacity:0.75;fill-rule:evenodd;stroke:#000000;stroke-width:1.44251096;stroke-linecap:round;stroke-linejoin:round;stroke-miterlimit:4;stroke-dasharray:none;stroke-opacity:1"
         d="M 312.61163,-50.781194 C 312.54265,-49.609588 312.75715,-48.963376 313.76564,-48.761678 C 314.23243,-48.668319 315.08039,-47.928113 315.78515,-47.75192 C 316.81111,-47.495431 316.89732,-47.523984 316.50641,-46.742163 C 316.21364,-46.156626 315.86081,-45.595219 315.6409,-45.155401 C 315.30178,-44.477171 315.12962,-44.067118 314.63114,-43.568639 C 314.16031,-43.0978 314.05414,-42.092862 314.05414,-41.404872 C 314.05414,-40.598964 313.88985,-39.898241 314.05414,-39.241106 C 314.18519,-38.716903 315.20522,-38.092963 315.49665,-37.510092 C 315.79848,-36.906438 315.6409,-35.888031 315.6409,-35.202075 C 315.6409,-34.381592 315.23306,-34.291987 315.0639,-33.615313 C 314.90377,-32.974809 314.35772,-32.377356 314.19839,-31.740048 C 314.03458,-31.084783 313.76564,-30.919369 313.76564,-30.153286" />
      <path
         id="path2363"
         style="fill:none;fill-opacity:0.75;fill-rule:evenodd;stroke:#000000;stroke-width:1.44251096px;stroke-linecap:round;stroke-linejoin:round;stroke-opacity:1"
         d="M 316.65066,-54.820224 L 322.70921,-57.849497 L 322.85346,-51.935202 C 322.76962,-55.245309 320.17962,-55.338027 316.65066,-54.820224 z " />
      <path
         id="path2365"
         style="fill:none;fill-opacity:0.75;fill-rule:evenodd;stroke:#000000;stroke-width:1.44251096px;stroke-linecap:round;stroke-linejoin:round;stroke-opacity:1"
         d="M 283.47291,-45.155401 C 283.25893,-43.540251 283.59522,-42.932046 284.33841,-41.693374 C 284.82252,-40.886519 285.07192,-40.230456 285.49242,-39.529608 C 286.05594,-38.590412 286.78757,-38.558245 287.80044,-37.798595 C 288.74331,-37.091448 290.62515,-37.365841 291.83947,-37.365841 C 292.47423,-37.365841 291.98372,-36.288551 291.98372,-35.490577 C 291.98372,-34.418775 292.45991,-34.148883 292.99348,-33.615313 C 293.61939,-32.989409 293.71958,-32.675256 294.43599,-32.317053 C 295.06542,-32.002342 295.67708,-32.028551 296.45551,-32.028551 C 297.74601,-32.028551 298.02121,-31.894831 298.90778,-31.451546 C 299.49765,-31.156609 299.93653,-30.711294 300.35029,-30.297537 C 300.90228,-29.745543 301.53133,-29.418512 302.0813,-29.143529 C 302.69735,-28.835503 302.51405,-27.947592 302.51405,-27.268264 C 302.51405,-26.883594 302.51405,-26.498926 302.51405,-26.114255" />
      <path
         id="path2367"
         style="fill:none;fill-opacity:0.75;fill-rule:evenodd;stroke:#000000;stroke-width:1.44251096px;stroke-linecap:round;stroke-linejoin:round;stroke-opacity:1"
         d="M 266.01852,-40.683617 L 271.06731,-43.71289" />
      <path
         id="path2369"
         style="fill:none;fill-opacity:0.75;fill-rule:evenodd;stroke:#000000;stroke-width:1.44251096px;stroke-linecap:round;stroke-linejoin:round;stroke-opacity:1"
         d="M 347.95315,-34.769321 C 342.75291,-34.224012 344.05253,-36.633184 342.61586,-37.798595" />
      <path
         id="path2371"
         style="fill:#ffffff;fill-opacity:1;fill-rule:evenodd;stroke:#000000;stroke-width:1.44251096px;stroke-linecap:butt;stroke-linejoin:miter;stroke-opacity:1"
         d="M 289.37503,-53.608776 C 288.9179,-53.580129 287.73745,-53.694398 286.97811,-53.504562 C 286.47046,-53.377648 286.16915,-53.008249 285.83174,-52.670848 C 285.35098,-52.190085 285.34462,-51.972913 285.20646,-51.420279 C 285.05839,-50.827984 284.99803,-50.388034 284.99803,-49.752852 C 284.99803,-49.240664 285.0122,-48.65406 285.10225,-48.293855 C 285.24855,-47.708674 285.3603,-47.501084 285.83174,-47.147498 C 286.32895,-46.774595 286.06589,-46.593948 286.76968,-46.418 C 287.33488,-46.276696 287.79105,-46.313786 288.54131,-46.313786 C 289.18027,-46.313786 289.50006,-46.397153 290.00031,-46.522214 C 290.38036,-46.617224 290.70771,-46.980121 291.04245,-47.147498 C 291.52961,-47.391071 291.74561,-47.329576 292.0846,-47.668569 C 292.31789,-47.901872 292.89341,-48.040704 293.23096,-48.293855 C 293.61758,-48.583821 293.75032,-48.91914 294.27309,-48.91914 C 294.40522,-48.91914 294.87538,-49.729847 295.00259,-49.857066 C 295.49991,-50.354383 295.09056,-50.251932 294.58574,-50.378137 C 294.23475,-50.465884 293.45849,-51.254405 293.12674,-51.420279 C 291.86422,-52.051532 291.41795,-52.19114 290.52139,-53.087705 C 290.24505,-53.36404 289.73483,-53.464857 289.37503,-53.608776 z " />
      <path
         id="path2373"
         style="fill:#000000;fill-opacity:1;fill-rule:evenodd;stroke:none;stroke-width:1;stroke-linecap:round;stroke-linejoin:round;stroke-miterlimit:4;stroke-dasharray:none;stroke-dashoffset:0.99999998;stroke-opacity:1"
         transform="matrix(3.3658585,0,0,2.3698393,-269.87273,-125.58725)"
         d="M 165.65768 31.823902 A 0.43346974 1.0114294 0 1 1  164.79074,31.823902 A 0.43346974 1.0114294 0 1 1  165.65768 31.823902 z" />
      <path
         id="path2428"
         style="fill:none;fill-opacity:0.75;fill-rule:evenodd;stroke:#000000;stroke-width:1.44251096px;stroke-linecap:round;stroke-linejoin:round;stroke-opacity:1"
         d="M 256.20294,70.533736 L 255.04038,68.789899" />
      <path
         id="path2483"
         style="fill:#ffffff;fill-opacity:1;fill-rule:evenodd;stroke:#000000;stroke-width:1.44251096px;stroke-linecap:butt;stroke-linejoin:miter;stroke-opacity:1"
         d="M 348.67427,224.67386 C 353.17295,224.63996 357.44972,225.08154 359.36559,230.58222 C 357.43769,232.32394 354.67532,232.6749 351.62845,232.55167 C 352.92804,230.43335 350.63421,227.51651 348.67427,224.67386 z " />
      <path
         id="path2485"
         style="fill:#ffffff;fill-opacity:1;fill-rule:evenodd;stroke:#000000;stroke-width:1.44251096px;stroke-linecap:butt;stroke-linejoin:miter;stroke-opacity:1"
         d="M 341.49985,233.5364 C 339.27394,233.37083 336.96499,232.93134 334.46609,233.55428 C 331.72656,234.2372 330.64494,237.75665 330.54507,237.75665 C 333.86318,237.96664 336.3876,238.0401 338.54567,240.42948 C 341.87487,238.51211 341.4006,236.17153 341.49985,233.5364 z " />
      <path
         id="path2487"
         style="fill:#ffffff;fill-opacity:1;fill-rule:evenodd;stroke:#000000;stroke-width:1.44251096px;stroke-linecap:butt;stroke-linejoin:miter;stroke-opacity:1"
         d="M 335.45082,253.51226 C 330.02078,248.85357 332.69342,244.99671 338.54567,242.25825 C 340.62043,242.88372 342.09521,244.21541 343.04727,246.33783 C 343.04727,246.33783 340.59114,247.36732 338.405,248.72931 C 335.30368,250.66146 336.04799,252.01173 335.45082,253.51226 z " />
      <path
         id="path2489"
         style="fill:#ffffff;fill-opacity:1;fill-rule:evenodd;stroke:#000000;stroke-width:1.44251096px;stroke-linecap:butt;stroke-linejoin:miter;stroke-opacity:1"
         d="M 341.2185,259.56129 C 343.60512,258.36956 345.67345,256.60808 347.68954,253.9343 C 346.83206,251.40218 345.15642,250.3404 341.64052,250.98011 C 340.7414,253.98118 340.64299,256.56021 341.2185,259.56129 z " />
      <path
         id="path2491"
         style="fill:none;fill-opacity:0.75;fill-rule:evenodd;stroke:#000000;stroke-width:1.44251096px;stroke-linecap:round;stroke-linejoin:round;stroke-opacity:1"
         d="M 347.50906,189.99612 C 340.98653,179.37913 335.39916,170.15562 337.1575,158.14515" />
      <path
         id="path2493"
         style="fill:none;fill-opacity:0.75;fill-rule:evenodd;stroke:#000000;stroke-width:1.44251096px;stroke-linecap:round;stroke-linejoin:round;stroke-opacity:1"
         d="M 342.67568,246.10957 C 343.76293,245.74239 345.2132,245.37523 348.62384,245.00805" />
      <path
         id="path2495"
         style="fill:none;fill-opacity:0.75;fill-rule:evenodd;stroke:#000000;stroke-width:1.44251096px;stroke-linecap:round;stroke-linejoin:round;stroke-opacity:1"
         d="M 358.86127,193.38824 C 345.96323,181.72306 347.46346,174.85731 345.78115,166.9307" />
      <path
         id="path2501"
         style="fill:none;fill-opacity:0.75;fill-rule:evenodd;stroke:#000000;stroke-width:1.44251096px;stroke-linecap:round;stroke-linejoin:round;stroke-opacity:1"
         d="M 371.03165,245.65059 C 371.34064,243.86124 371.33504,241.5053 373.68935,240.05542" />
      <path
         id="path2503"
         style="fill:none;fill-opacity:0.75;fill-rule:evenodd;stroke:#000000;stroke-width:1.44251096px;stroke-linecap:round;stroke-linejoin:round;stroke-opacity:1"
         d="M 384.87969,234.74001 C 384.42274,235.04751 383.91594,235.82822 383.62078,236.41856 C 383.44124,236.77763 385.02137,237.67929 385.29933,237.95723 C 385.83818,238.4961 386.09377,238.78337 386.41835,239.21615" />
      <path
         id="path2505"
         style="fill:none;fill-opacity:0.75;fill-rule:evenodd;stroke:#000000;stroke-width:1.44251096px;stroke-linecap:round;stroke-linejoin:round;stroke-opacity:1"
         d="M 398.85418,222.36742 C 397.96971,221.86083 398.09538,220.68585 398.09538,219.33224 C 398.09538,218.11163 397.52629,217.46434 397.52629,216.29705 C 397.52629,216.10734 397.52629,215.91765 397.52629,215.72795" />
      <path
         id="path2507"
         style="fill:none;fill-opacity:0.75;fill-rule:evenodd;stroke:#000000;stroke-width:1.44251096px;stroke-linecap:round;stroke-linejoin:round;stroke-opacity:1"
         d="M 408.52883,217.81464 C 407.16606,213.37305 405.25707,211.66249 403.40696,209.65758" />
      <path
         id="path2509"
         style="fill:none;fill-opacity:0.75;fill-rule:evenodd;stroke:#000000;stroke-width:1.44251096px;stroke-linecap:butt;stroke-linejoin:miter;stroke-opacity:1"
         d="M 395.83625,162.69269 C 382.06491,160.63283 385.20817,158.57295 381.75252,156.51309" />
      <path
         id="path2515"
         style="fill:none;fill-opacity:0.75;fill-rule:evenodd;stroke:#000000;stroke-width:1.44251096px;stroke-linecap:round;stroke-linejoin:round;stroke-opacity:1"
         d="M 385.63273,168.44114 C 386.31673,168.71428 387.2439,169.62119 388.07583,170.4531 C 388.72579,171.10306 389.32165,171.56711 389.94407,172.03393 C 390.94396,172.78385 391.49879,173.03991 392.8183,173.03991 C 394.41592,173.03991 394.29987,172.51469 395.26139,172.03393 C 396.14337,171.59294 397.18459,172.85182 397.84821,173.18361 C 398.79895,173.65899 399.82038,173.61475 400.86614,173.61475 C 402.00908,173.61475 402.52134,173.86751 403.16553,174.18961 C 403.68677,174.45022 404.56791,174.47703 405.32119,174.47703 C 405.9233,174.47703 406.87997,173.63681 407.18944,173.32733 C 407.63864,172.87813 408.44952,172.61711 409.0577,172.46507 C 409.20657,172.42784 410.04259,172.46507 410.20738,172.46507" />
      <path
         id="path2517"
         style="fill:none;fill-opacity:0.75;fill-rule:evenodd;stroke:#000000;stroke-width:1.44251096px;stroke-linecap:round;stroke-linejoin:round;stroke-opacity:1"
         d="M 387.35727,174.18961 C 391.3706,177.99861 395.81716,181.66657 415.95584,180.22548" />
      <path
         id="path2519"
         style="fill:none;fill-opacity:0.75;fill-rule:evenodd;stroke:#000000;stroke-width:1.44251096px;stroke-linecap:round;stroke-linejoin:round;stroke-opacity:1"
         d="M 406.03975,189.99785 C 406.61524,190.14265 407.24005,191.2447 407.908,191.57869 C 408.25344,191.7514 408.57866,191.96192 408.91398,192.15353 C 409.69061,192.59731 410.86964,192.84394 411.78821,193.30322 C 412.41588,193.61705 413.95221,193.30322 414.66245,193.30322 C 415.41249,193.30322 415.87734,193.92698 416.38698,194.3092" />
      <path
         id="path2521"
         style="fill:none;fill-opacity:0.75;fill-rule:evenodd;stroke:#000000;stroke-width:1.44251096px;stroke-linecap:round;stroke-linejoin:round;stroke-opacity:1"
         d="M 406.18347,200.05766 L 413.80017,207.38695" />
      <path
         id="path2527"
         style="fill:none;fill-opacity:0.75;fill-rule:evenodd;stroke:#000000;stroke-width:1.44251096px;stroke-linecap:round;stroke-linejoin:round;stroke-opacity:1"
         d="M 224.91736,135.38176 C 224.74101,136.40456 224.50348,137.74266 224.50348,138.69287" />
      <path
         id="path2529"
         style="fill:#ffffff;fill-opacity:1;fill-rule:evenodd;stroke:#000000;stroke-width:1.44251096px;stroke-linecap:butt;stroke-linejoin:miter;stroke-opacity:1"
         d="M 172.69071,211.66763 C 175.9671,212.3583 176.006,209.09202 175.952,205.71222 C 173.25177,203.98178 169.67091,204.89321 165.45915,207.69736 C 171.34545,209.02078 171.47274,210.34421 172.69071,211.66763 z " />
      <path
         id="path2531"
         style="fill:#ffffff;fill-opacity:1;fill-rule:evenodd;stroke:#000000;stroke-width:1.44251096px;stroke-linecap:butt;stroke-linejoin:miter;stroke-opacity:1"
         d="M 158.79477,221.02612 C 159.41547,218.66881 159.9711,217.10777 167.30249,215.4961 C 169.23422,218.52106 171.75486,220.83705 167.0189,223.86202 C 165.00352,222.04553 162.68045,220.59826 158.79477,221.02612 z " />
      <path
         id="path2533"
         style="fill:#ffffff;fill-opacity:1;fill-rule:evenodd;stroke:#000000;stroke-width:1.44251096px;stroke-linecap:butt;stroke-linejoin:miter;stroke-opacity:1"
         d="M 171.27276,230.3846 C 174.44936,232.09027 176.48939,234.31254 175.52661,237.89975 C 170.89235,236.55752 169.45234,239.47431 166.8771,240.87745 C 164.08459,236.56883 166.13372,233.18243 171.27276,230.3846 z " />
      <path
         id="path2535"
         style="fill:#ffffff;fill-opacity:1;fill-rule:evenodd;stroke:#000000;stroke-width:1.44251096px;stroke-linecap:butt;stroke-linejoin:miter;stroke-opacity:1"
         d="M 209.98287,241.01925 C 207.06086,238.79836 211.37172,231.94415 217.78161,238.32514 C 217.14798,243.01622 214.77329,246.44107 209.98287,248.10902 C 212.07359,245.28116 211.89196,242.47027 209.98287,241.01925 z " />
      <path
         id="path2537"
         style="fill:none;fill-opacity:0.75;fill-rule:evenodd;stroke:#000000;stroke-width:1.44251096px;stroke-linecap:round;stroke-linejoin:round;stroke-opacity:1"
         d="M 171.04282,228.29982 L 172.61215,227.57552" />
      <path
         id="path2539"
         style="fill:none;fill-opacity:0.75;fill-rule:evenodd;stroke:#000000;stroke-width:1.44251096px;stroke-linecap:round;stroke-linejoin:round;stroke-opacity:1"
         d="M 191.32337,234.09427 C 192.39307,230.87625 193.99617,228.90288 196.03137,227.93768" />
      <path
         id="path2541"
         style="fill:none;fill-opacity:0.75;fill-rule:evenodd;stroke:#000000;stroke-width:1.44251096px;stroke-linecap:round;stroke-linejoin:round;stroke-opacity:1"
         d="M 172.37071,213.45157 L 174.30219,216.34879" />
      <path
         id="path2543"
         style="fill:none;fill-opacity:0.75;fill-rule:evenodd;stroke:#000000;stroke-width:1.44251096px;stroke-linecap:round;stroke-linejoin:round;stroke-opacity:1"
         d="M 226.14178,142.42938 C 223.54201,145.2739 222.54147,148.61566 223.02803,155.25802 C 223.46819,161.26684 222.6482,163.64968 221.90709,166.46751" />
      <path
         id="path2545"
         style="fill:none;fill-opacity:0.75;fill-rule:evenodd;stroke:#000000;stroke-width:1.44251096px;stroke-linecap:round;stroke-linejoin:round;stroke-opacity:1"
         d="M 202.68114,231.71393 C 202.37028,231.59837 201.67011,231.75094 201.12272,232.29833 C 200.75723,232.66381 200.50855,232.84487 200.24611,233.36974 C 199.98678,233.8884 200.24402,234.63178 200.44091,235.02556 C 200.66845,235.48063 200.81737,235.87589 201.02533,236.29178" />
      <path
         id="path2547"
         style="fill:none;fill-opacity:0.75;fill-rule:evenodd;stroke:#000000;stroke-width:1.44251096px;stroke-linecap:round;stroke-linejoin:round;stroke-opacity:1"
         d="M 230.63516,217.10183 C 227.80384,213.95112 226.342,210.69507 228.79565,207.13784" />
      <path
         id="path2549"
         style="fill:none;fill-opacity:0.75;fill-rule:evenodd;stroke:#000000;stroke-width:1.44251096px;stroke-linecap:round;stroke-linejoin:round;stroke-opacity:1"
         d="M 233.24113,201.77261 C 232.02249,203.33493 231.60002,205.29535 235.23393,209.28394" />
      <path
         id="path2551"
         style="fill:none;fill-opacity:0.75;fill-rule:evenodd;stroke:#000000;stroke-width:1.44251096px;stroke-linecap:round;stroke-linejoin:round;stroke-opacity:1"
         d="M 240.05333,185.79061 C 238.97656,190.77372 244.79466,192.42297 241.50011,194.43885" />
      <path
         id="path2553"
         style="fill:none;fill-opacity:0.75;fill-rule:evenodd;stroke:#000000;stroke-width:1.44251096px;stroke-linecap:round;stroke-linejoin:round;stroke-opacity:1"
         d="M 245.70379,172.98817 C 245.74785,173.69331 245.79192,174.39847 245.83599,175.10361 C 245.90359,176.18509 246.37468,176.57761 246.76149,177.35126 C 247.07303,177.97432 247.13705,178.12345 247.68699,178.67339 C 248.31894,179.30534 249.04606,180.00067 249.53801,180.65661 C 249.83355,181.05068 250.8057,181.65989 251.25679,182.11097 C 251.68588,182.54007 252.31636,183.63237 252.71114,183.82978" />
      <path
         id="path2555"
         style="fill:none;fill-opacity:0.75;fill-rule:evenodd;stroke:#000000;stroke-width:1.44251096px;stroke-linecap:round;stroke-linejoin:round;stroke-opacity:1"
         d="M 250.72794,178.54118 C 250.80769,178.70068 252.26408,179.62718 252.57894,179.86333 C 253.25138,180.36766 254.12287,180.51018 254.95879,180.78883 C 255.59635,181.00134 256.0461,181.47209 256.54537,181.84654" />
      <path
         id="path2557"
         style="fill:none;fill-opacity:0.75;fill-rule:evenodd;stroke:#000000;stroke-width:1.44251096px;stroke-linecap:round;stroke-linejoin:round;stroke-opacity:1"
         d="M 257.87843,171.35563 C 253.98321,168.67177 251.81442,164.45329 251.7738,158.3431" />
      <path
         id="path2559"
         style="fill:none;fill-opacity:0.75;fill-rule:evenodd;stroke:#000000;stroke-width:1.44251096px;stroke-linecap:round;stroke-linejoin:round;stroke-opacity:1"
         d="M 259.32428,156.73662 C 258.73523,157.16502 258.34587,160.4025 258.52103,160.75283 C 258.91062,161.53202 259.2958,162.14174 259.64557,162.84126 C 260.00383,163.55777 260.29571,164.14154 260.60947,164.76904 C 260.80591,165.16195 261.40911,165.5687 261.57335,165.73294" />
      <path
         id="path2561"
         style="fill:none;fill-opacity:0.75;fill-rule:evenodd;stroke:#000000;stroke-width:1.44251096px;stroke-linecap:round;stroke-linejoin:round;stroke-opacity:1"
         d="M 267.83864,153.84495 C 267.63807,154.39657 267.678,156.00207 267.678,157.05791 C 267.678,158.52486 267.76823,159.23658 268.48124,159.94958 C 268.86518,160.33352 268.85749,160.10008 269.28448,160.27089" />
      <path
         id="path2563"
         style="fill:none;fill-opacity:0.75;fill-rule:evenodd;stroke:#000000;stroke-width:1.44251096px;stroke-linecap:round;stroke-linejoin:round;stroke-opacity:1"
         d="M 274.90718,157.05791 C 277.09727,158.83048 279.21577,160.67465 279.72663,164.12645" />
      <path
         id="path2565"
         style="fill:none;fill-opacity:0.75;fill-rule:evenodd;stroke:#000000;stroke-width:1.44251096px;stroke-linecap:round;stroke-linejoin:round;stroke-opacity:1"
         d="M 285.5492,148.3361 C 285.39403,149.53864 285.23887,150.74118 285.0837,151.94373 C 284.97406,152.79342 284.72058,153.62893 284.50182,154.50399 C 284.28236,155.38187 284.28526,156.66349 284.50182,157.52974 C 284.52287,157.6139 284.65699,157.60732 284.73457,157.64612" />
      <path
         id="path4359"
         style="fill:#ffffff;fill-opacity:1;fill-rule:evenodd;stroke:#000000;stroke-width:1.44251096px;stroke-linecap:butt;stroke-linejoin:miter;stroke-opacity:1"
         d="M 191.80923,235.40766 C 195.40217,235.10609 198.32382,235.85717 199.47202,239.3894 C 194.85514,240.79023 195.23781,244.02053 193.84364,246.60064 C 189.15387,244.5106 189.02588,240.55456 191.80923,235.40766 z " />
      <path
         id="path4361"
         style="fill:#ffffff;fill-opacity:1;fill-rule:evenodd;stroke:#000000;stroke-width:1.44251096px;stroke-linecap:butt;stroke-linejoin:miter;stroke-opacity:1"
         d="M 368.17029,258.03653 C 372.66897,258.07043 376.94574,257.62885 378.86161,252.12817 C 376.93371,250.38645 374.17134,250.03549 371.12447,250.15872 C 372.42406,252.27704 370.13023,255.19388 368.17029,258.03653 z " />
    </g>
  </g>
</svg>
