<?xml version="1.0" encoding="UTF-8" standalone="no"?>
<svg
   version="1.0"
   width="450"
   height="300"
   id="svg65"
   sodipodi:docname="Flag_of_Arkansas_(USA)_(no-text).svg"
   inkscape:version="1.1.2 (0a00cf5339, 2022-02-04)"
   xmlns:inkscape="http://www.inkscape.org/namespaces/inkscape"
   xmlns:sodipodi="http://sodipodi.sourceforge.net/DTD/sodipodi-0.dtd"
   xmlns:xlink="http://www.w3.org/1999/xlink"
   xmlns="http://www.w3.org/2000/svg"
   xmlns:svg="http://www.w3.org/2000/svg">
  <defs
     id="defs69" />
  <sodipodi:namedview
     id="namedview67"
     pagecolor="#ffffff"
     bordercolor="#666666"
     borderopacity="1.0"
     inkscape:pageshadow="2"
     inkscape:pageopacity="0.0"
     inkscape:pagecheckerboard="0"
     showgrid="false"
     inkscape:zoom="2.8133333"
     inkscape:cx="224.82227"
     inkscape:cy="150.17773"
     inkscape:window-width="1920"
     inkscape:window-height="1016"
     inkscape:window-x="0"
     inkscape:window-y="27"
     inkscape:window-maximized="1"
     inkscape:current-layer="svg65" />
  <path
     style="fill:#bf0a30"
     d="M0 0h450v300H0z"
     id="path2" />
  <path
     d="M37.5 148.84 224.225 275 412.5 148.595 224.225 25 37.5 148.84z"
     style="fill:#002868"
     id="path4" />
  <path
     d="M84 149.128 224.417 244 366 148.944 224.417 56 84 149.128z"
     style="fill:#fff"
     id="path6" />
  <path
     d="m229.484 49.981-5.521-4L218.452 50l2.095-6.491-5.522-4.004 6.815-.012L223.94 33l2.118 6.484 6.818-.01-5.507 4.02 2.116 6.487z"
     style="fill:#fff"
     id="path10" />
  <path
     d="M234.964 190 225 197.081l-9.976-7.075 3.81 11.453-9.966 7.088 12.319-.003L225.004 220l3.804-11.454 12.324-.009-9.968-7.076 3.8-11.461z"
     style="fill:#002868"
     id="path12" />
  <path
     d="m202.7 190-9.965-7.081-9.976 7.075 3.81-11.453-9.965-7.088 12.319.003L192.74 160l3.803 11.454 12.325.009-9.968 7.076L202.7 190z"
     id="a"
     style="fill:#002868" />
  <path
     d="m215.981 243.541-4 5.521 4.019 5.511-6.491-2.095-4.004 5.522-.012-6.815-6.493-2.099 6.484-2.118-.01-6.818 4.02 5.507 6.487-2.116z"
     id="b"
     style="fill:#fff" />
  <path
     d="m233.019 243.541 4 5.521-4.019 5.511 6.491-2.095 4.004 5.522.012-6.815 6.493-2.099-6.484-2.118.01-6.818-4.02 5.507-6.487-2.116z"
     id="c"
     style="fill:#fff" />
  <use
     transform="translate(64.528)"
     width="450"
     height="300"
     xlink:href="#a"
     id="use17" />
  <use
     transform="translate(32.264 -85)"
     width="450"
     height="300"
     xlink:href="#a"
     id="use19" />
  <use
     transform="translate(151.478 -119)"
     width="450"
     height="300"
     xlink:href="#b"
     id="use21" />
  <use
     transform="translate(124.478 -137)"
     width="450"
     height="300"
     xlink:href="#b"
     id="use23" />
  <use
     transform="translate(97.478 -155)"
     width="450"
     height="300"
     xlink:href="#b"
     id="use25" />
  <use
     transform="translate(70.478 -172)"
     width="450"
     height="300"
     xlink:href="#b"
     id="use27" />
  <use
     transform="translate(43.478 -190)"
     width="450"
     height="300"
     xlink:href="#b"
     id="use29" />
  <use
     transform="translate(-120 -82)"
     width="450"
     height="300"
     xlink:href="#b"
     id="use31" />
  <use
     transform="translate(-96 -66)"
     width="450"
     height="300"
     xlink:href="#b"
     id="use33" />
  <use
     transform="translate(-72 -50)"
     width="450"
     height="300"
     xlink:href="#b"
     id="use35" />
  <use
     transform="translate(-48 -33)"
     width="450"
     height="300"
     xlink:href="#b"
     id="use37" />
  <use
     transform="translate(-24 -17)"
     width="450"
     height="300"
     xlink:href="#b"
     id="use39" />
  <use
     transform="translate(-144 -99.075)"
     width="450"
     height="300"
     xlink:href="#b"
     id="use41" />
  <use
     transform="translate(-151 -119)"
     width="450"
     height="300"
     xlink:href="#c"
     id="use43" />
  <use
     transform="translate(-124 -137)"
     width="450"
     height="300"
     xlink:href="#c"
     id="use45" />
  <use
     transform="translate(-97 -155)"
     width="450"
     height="300"
     xlink:href="#c"
     id="use47" />
  <use
     transform="translate(-70 -172)"
     width="450"
     height="300"
     xlink:href="#c"
     id="use49" />
  <use
     transform="translate(-43 -190)"
     width="450"
     height="300"
     xlink:href="#c"
     id="use51" />
  <use
     transform="translate(144 -99.075)"
     width="450"
     height="300"
     xlink:href="#c"
     id="use53" />
  <use
     transform="translate(120 -82)"
     width="450"
     height="300"
     xlink:href="#c"
     id="use55" />
  <use
     transform="translate(96 -66)"
     width="450"
     height="300"
     xlink:href="#c"
     id="use57" />
  <use
     transform="translate(72 -50)"
     width="450"
     height="300"
     xlink:href="#c"
     id="use59" />
  <use
     transform="translate(48 -33)"
     width="450"
     height="300"
     xlink:href="#c"
     id="use61" />
  <use
     transform="translate(24 -17)"
     width="450"
     height="300"
     xlink:href="#c"
     id="use63" />
</svg>
