<?xml version="1.0" encoding="UTF-8" standalone="no"?>
<!-- Created with Inkscape (http://www.inkscape.org/) -->
<svg xmlns:dc="http://purl.org/dc/elements/1.1/" xmlns:cc="http://creativecommons.org/ns#" xmlns:rdf="http://www.w3.org/1999/02/22-rdf-syntax-ns#" xmlns:svg="http://www.w3.org/2000/svg" xmlns="http://www.w3.org/2000/svg" xmlns:sodipodi="http://sodipodi.sourceforge.net/DTD/sodipodi-0.dtd" xmlns:inkscape="http://www.inkscape.org/namespaces/inkscape" width="1500" height="1000" id="svg2385" sodipodi:version="0.32" inkscape:version="0.46" version="1.0" sodipodi:docname="Flag_of_Barbados.svg" inkscape:output_extension="org.inkscape.output.svg.inkscape">
  <defs id="defs2387"/>
  <sodipodi:namedview id="base" pagecolor="#ffffff" bordercolor="#666666" borderopacity="1.0" inkscape:pageopacity="0.0" inkscape:pageshadow="2" inkscape:zoom="0.3375" inkscape:cx="369.21522" inkscape:cy="432.43803" inkscape:document-units="px" inkscape:current-layer="layer1" showgrid="false" inkscape:showpageshadow="false" inkscape:window-width="1440" inkscape:window-height="881" inkscape:window-x="-4" inkscape:window-y="-4"/>
  <metadata id="metadata2390">
    <rdf:RDF>
      <cc:Work rdf:about="">
        <dc:format>image/svg+xml</dc:format>
        <dc:type rdf:resource="http://purl.org/dc/dcmitype/StillImage"/>
      </cc:Work>
    </rdf:RDF>
  </metadata>
  <g inkscape:label="Livello 1" inkscape:groupmode="layer" id="layer1" transform="translate(955, 1409.07)">
    <rect height="1000" id="rect807" style="font-size: 12px; fill: rgb(0, 38, 127); fill-opacity: 1; fill-rule: evenodd; stroke-width: 1pt;" width="1500" x="-955.00018" y="-1409.0663"/>
    <rect height="1000" id="rect809" style="font-size: 12px; fill: rgb(255, 199, 38); fill-rule: evenodd; stroke-width: 1pt;" width="500" x="-455.00018" y="-1409.0663"/>
    <path style="fill: rgb(0, 0, 0); fill-opacity: 1; fill-rule: evenodd; stroke: none; stroke-width: 1pt; stroke-linecap: butt; stroke-linejoin: miter; stroke-opacity: 1;" d="M -205.00019,-1151.3125 C -221.25355,-1106.9869 -237.7945,-1060.8958 -273.25019,-1025.5313 C -262.24822,-1029.1679 -242.97926,-1032.4197 -230.65644,-1032.0938 L -230.65644,-845.75 L -283.21894,-837.9375 C -285.12595,-838.13102 -285.77539,-841.07208 -285.78144,-845.09375 C -290.82112,-902.91906 -304.52033,-951.59006 -320.25019,-1001.8438 C -321.36295,-1008.7401 -341.28453,-1034.9752 -325.93769,-1030.375 C -324.08914,-1030.1371 -303.48044,-1021.7364 -306.75019,-1025.75 C -334.77486,-1054.7302 -375.67256,-1075.6016 -415.43769,-1081.8125 C -418.95135,-1082.7136 -421.01087,-1080.9491 -417.84394,-1076.875 C -365.15506,-995.66152 -321.01031,-899.86459 -321.37519,-786.1875 C -300.84554,-786.1875 -251.18609,-798.28126 -230.65644,-798.28125 C -230.65644,-798.28125 -230.65644,-666.8125 -230.65644,-666.8125 L -179.34394,-666.8125 C -179.34394,-666.8125 -179.34394,-798.28125 -179.34394,-798.28125 C -158.81429,-798.28126 -109.15484,-786.1875 -88.625185,-786.1875 C -88.990063,-899.86459 -44.845315,-995.66152 7.8435647,-1076.875 C 11.010505,-1080.9491 8.9509747,-1082.7136 5.4373147,-1081.8125 C -34.327805,-1075.6016 -75.225515,-1054.7302 -103.25019,-1025.75 C -106.51994,-1021.7364 -85.911235,-1030.1371 -84.062685,-1030.375 C -68.715848,-1034.9752 -88.637425,-1008.7401 -89.750185,-1001.8438 C -105.48004,-951.59006 -119.21051,-902.91906 -124.25019,-845.09375 C -124.25625,-841.07208 -124.87443,-838.13102 -126.78144,-837.9375 L -179.34394,-845.75 L -179.34394,-1032.0938 C -167.02112,-1032.4197 -147.75216,-1029.1679 -136.75019,-1025.5313 C -172.20588,-1060.8958 -188.74683,-1106.9869 -205.00019,-1151.3125 z" id="path806" sodipodi:nodetypes="cccccccccccccccccccccccccccc"/>
  </g>
</svg>