<?xml version="1.0" encoding="UTF-8" standalone="no"?>
<!-- Created with Inkscape (http://www.inkscape.org/) -->
<svg xmlns:svg="http://www.w3.org/2000/svg" xmlns="http://www.w3.org/2000/svg" version="1.0" width="1200" height="600" id="Layer_1" xml:space="preserve"><defs id="defs3"/><rect width="1200" height="600" x="0" y="0" id="rect3212" style="fill: rgb(255, 255, 255);"/><rect width="1200" height="200" x="0" y="400" id="rect6123" style="fill: rgb(255, 0, 0); fill-opacity: 1; stroke: none;"/><rect width="1200" height="200" x="0" y="200" id="rect4183" style="fill: rgb(0, 92, 230); fill-opacity: 1;"/><path d="M 227.41468,115.3367 C 225.56665,116.1516 223.73244,116.99758 221.91203,117.87394 L 227.64672,208.61654 C 229.20884,233.35496 239.72934,256.76678 257.36019,274.39693 C 269.41657,286.45262 284.17593,295.18518 300.21496,299.99999 L 300.21634,299.99999 C 316.25538,295.18449 331.01543,286.45262 343.07112,274.39693 C 360.70128,256.76678 371.22247,233.35496 372.7839,208.61654 L 378.51928,117.87394 C 376.69818,116.99758 374.86535,116.1516 373.01594,115.3367 L 373.01732,115.33739 L 367.14728,208.22841 C 365.67838,231.60984 355.73798,253.73852 339.07604,270.40047 C 328.0956,281.38229 314.73952,289.44288 300.21703,294.08438 L 300.21496,294.08438 C 285.69178,289.44288 272.33709,281.38229 261.35665,270.40047 C 244.69402,253.73852 234.75362,231.60984 233.28541,208.22841 L 227.41468,115.3367 L 227.41606,115.3367" id="path13" style="fill: rgb(255, 0, 0); fill-opacity: 1;"/><path d="M 373.01732,115.33739 C 350.29472,105.31895 325.52936,100 300.21565,100 C 274.90126,100 250.13589,105.31895 227.4133,115.33739 L 233.28472,208.22841 C 234.75292,231.60984 244.69333,253.73852 261.35596,270.40047 C 272.33709,281.38229 285.69178,289.44288 300.21427,294.08438 L 300.21634,294.08438 C 314.73883,289.44288 328.09491,281.38229 339.07396,270.40047 C 355.73729,253.73852 365.67769,231.60984 367.1452,208.22841" id="path15" style="fill: rgb(0, 92, 230); fill-opacity: 1;"/><polyline style="fill: rgb(255, 230, 0); fill-opacity: 1;" id="polyline17" points="119.764,62.917 124.434,56.539 116.574,57.394 113.386,50.161 110.197,57.394 102.338,56.539 107.008,62.917 102.338,69.295 110.197,68.44 113.386,75.673 116.574,68.44 124.434,69.295" transform="matrix(0.690593, 0, 0, 0.690593, 221.912, 100)"/><polyline style="fill: rgb(255, 230, 0); fill-opacity: 1;" id="polyline19" points="90,23.232 94.669,16.854 86.811,17.709 83.622,10.476 80.433,17.709 72.575,16.854 77.244,23.232 72.575,29.61 80.433,28.755 83.622,35.988 86.811,28.755 94.669,29.61" transform="matrix(0.690593, 0, 0, 0.690593, 221.912, 100)"/><polyline style="fill: rgb(255, 230, 0); fill-opacity: 1;" id="polyline21" points="149.527,23.232 154.195,16.854 146.338,17.709 143.148,10.476 139.959,17.709 132.102,16.854 136.771,23.232 132.102,29.61 139.959,28.755 143.148,35.988 146.338,28.755 154.195,29.61" transform="matrix(0.690593, 0, 0, 0.690593, 221.912, 100)"/><path d="M 358.94372,221.75438 L 329.57899,182.60188 L 317.83338,198.26315 L 300.21496,163.02632 L 282.59654,198.26315 L 270.85093,182.60188 L 241.4869,221.75438 C 241.4869,226.94626 243.5497,231.92475 247.2209,235.59594 C 250.89209,239.26575 255.87058,241.32995 261.06315,241.32995 C 264.52993,241.32995 267.9021,240.41008 270.85231,238.70637 C 270.87165,238.69394 270.82883,238.72019 270.84748,238.70915 C 272.31775,237.85972 273.90405,237.19811 275.57183,236.752 C 280.58692,235.4088 285.93004,236.11113 290.42649,238.70637 C 293.4285,240.43977 296.80896,241.32995 300.21634,241.32995 C 300.23085,241.32995 300.19839,241.32995 300.21289,241.32995 C 303.62097,241.32995 307.00073,240.43977 310.00343,238.70637 C 314.4992,236.11113 319.84301,235.40741 324.8581,236.752 C 326.52519,237.19811 328.11148,237.85972 329.58176,238.70915 C 329.60178,238.72019 329.55897,238.69464 329.57761,238.70637 C 332.52852,240.41008 335.8993,241.32995 339.36608,241.32995 C 344.55935,241.32995 349.53783,239.26645 353.20903,235.59594 C 356.88022,231.92475 358.94303,226.94626 358.94303,221.75438" id="path23" style="fill: rgb(255, 255, 255);"/><path d="M 248.44325,243.01153 C 249.7906,245.68897 251.27192,248.30149 252.88169,250.83872 C 252.88169,250.83872 252.881,250.8401 252.88169,250.84149 C 257.0142,252.742 261.69988,253.15221 266.13004,251.96508 C 267.79851,251.51896 269.38411,250.85668 270.85438,250.00793 C 270.87372,249.99689 270.83091,250.02175 270.85024,250.01071 C 273.80046,248.30563 277.17262,247.38713 280.6394,247.38713 C 280.64631,247.38713 280.63042,247.38713 280.63733,247.38713 C 284.04472,247.38576 287.42517,248.27592 290.42718,250.01071 C 294.92364,252.60594 300.26676,253.30828 305.28254,251.96508 C 306.94963,251.51896 308.53592,250.85668 310.0062,250.00793 C 310.02622,249.99689 309.98341,250.02175 310.00205,250.01071 C 312.95158,248.30563 316.32375,247.38713 319.79191,247.38713 C 319.79881,247.38713 319.78224,247.38713 319.78914,247.38713 C 323.19653,247.38576 326.57768,248.27592 329.57899,250.01071 C 334.07614,252.60594 339.41857,253.30828 344.43366,251.96508 C 345.51029,251.67779 346.55102,251.29865 347.54962,250.8401 L 347.54962,250.8401 C 349.16008,248.30149 350.6414,245.68897 351.98875,243.01292 C 351.98875,243.01153 351.98875,243.01292 351.98875,243.01292 C 351.01087,243.38515 350.06268,243.83541 349.15386,244.36026 C 349.13522,244.37132 349.17803,244.34646 349.15939,244.3575 C 347.68912,245.20625 346.10282,245.86715 344.43435,246.31465 C 339.41926,247.65785 334.07683,246.95552 329.57968,244.35889 C 326.57837,242.62549 323.19722,241.7367 319.78983,241.7367 C 319.78293,241.7367 319.7995,241.7367 319.7926,241.7367 C 316.32512,241.7367 312.95296,242.65657 310.00274,244.36026 C 309.9841,244.37132 310.02691,244.34646 310.00689,244.3575 C 308.53661,245.20693 306.95032,245.86851 305.28323,246.31465 C 300.26745,247.65924 294.92433,246.9569 290.42787,244.36026 C 287.42586,242.62688 284.04541,241.7367 280.63802,241.7367 C 280.63042,241.7367 280.647,241.7367 280.64009,241.7367 C 277.17331,241.7367 273.80115,242.65657 270.85093,244.36165 C 270.8316,244.37269 270.87441,244.34783 270.85507,244.35889 C 269.3848,245.20762 267.7992,245.86851 266.13073,246.31602 C 261.11564,247.65924 255.77252,246.9569 251.27606,244.36026 C 250.36379,243.83403 249.41629,243.38515 248.44394,243.01567 C 248.44325,243.01567 248.44394,243.01431 248.44394,243.01567" id="path25" style="fill: rgb(255, 255, 255);"/><path d="M 342.47859,258.03471 C 340.19756,260.95729 337.728,263.75488 335.0775,266.404 C 325.17439,276.30711 313.2216,283.68748 300.21496,288.13352 L 300.21427,288.13352 C 287.20764,283.68748 275.25415,276.3085 265.35105,266.404 C 262.70124,263.75488 260.23168,260.95729 257.95065,258.03471 C 257.95065,258.03471 257.94996,258.03471 257.95065,258.03471 C 260.65018,258.46908 263.43741,258.33719 266.12935,257.6169 C 267.79782,257.16939 269.38342,256.50849 270.85369,255.65975 C 270.87303,255.64871 270.83021,255.67357 270.84955,255.66252 C 273.79976,253.95745 277.17193,253.03895 280.63871,253.03895 C 280.64562,253.03895 280.62973,253.03895 280.63664,253.03895 C 284.04403,253.03758 287.42448,253.92774 290.42649,255.66114 C 294.92295,258.25776 300.26607,258.96009 305.28116,257.6169 C 306.94963,257.16939 308.53592,256.50849 310.0062,255.65975 C 310.02484,255.64871 309.98203,255.67357 310.00205,255.66252 C 312.95158,253.95745 316.32375,253.03895 319.79052,253.03895 C 319.79743,253.03895 319.78224,253.03895 319.78914,253.03895 C 323.19653,253.03758 326.57629,253.92774 329.57899,255.66114 C 333.49466,257.92284 338.05465,258.74741 342.47928,258.03401 C 342.48066,258.03401 342.47928,258.03401 342.4779,258.0354" id="path27" style="fill: rgb(255, 255, 255);"/></svg>