<svg width="560" height="280" version="1.1" xmlns="http://www.w3.org/2000/svg" xmlns:xlink="http://www.w3.org/1999/xlink">
	<desc>flag of Abkhazia</desc>
<!--
	from http://commons.wikimedia.org/wiki/Image:Flag_of_Abkhazia.svg
	this file is in the public domain
-->
	<rect fill="#008800" height="280" width="560"/>
	<rect fill="white" height="40" id="white" width="560" y="40"/>
	<use xlink:href="#white" y="80"/>
	<use xlink:href="#white" y="160"/>
	<rect fill="#ed1720" height="120" width="212.8"/>
	<g fill="white" transform="matrix(0.0761808, 0, 0, 0.0761808, -35.7898, 178.428)">
		<path d="M 1923.0141,-2086.1425 L 1959.7014,-1977.8414 L 1867.2188,-2046.003 L 1774.7364,-1977.8414 L 1812.9523,-2086.1425 L 1718.177,-2152.032 L 1833.589,-2150.5173 L 1867.2188,-2259.5757 L 1900.8489,-2149.76 L 2017.0251,-2152.032 L 1923.0141,-2086.1425 z"/>
		<path d="M 2760.5177,-1321.4177 L 2797.9693,-1213.1166 L 2705.4867,-1281.278 L 2613.0043,-1213.1166 L 2651.2202,-1321.4177 L 2556.4449,-1387.3071 L 2671.0925,-1385.7925 L 2705.4867,-1494.8509 L 2739.1168,-1385.0351 L 2855.293,-1387.3071 L 2760.5177,-1321.4177 z"/>
		<path d="M 1083.6336,-1321.4176 L 1121.0852,-1213.1166 L 1028.6028,-1282.0355 L 936.12029,-1213.1166 L 974.33615,-1322.1752 L 878.79648,-1387.3071 L 994.20839,-1385.7924 L 1028.6028,-1494.8509 L 1062.2327,-1385.0351 L 1178.409,-1387.3071 L 1083.6336,-1321.4176 z"/>
		<path d="M 1509.4824,-1968.5491 L 1546.9339,-1860.248 L 1454.4515,-1929.1669 L 1361.9689,-1860.248 L 1400.1849,-1969.3065 L 1305.4094,-2034.4385 L 1420.0572,-2032.9239 L 1454.4515,-2141.9823 L 1488.0814,-2032.1665 L 1604.2578,-2034.4385 L 1509.4824,-1968.5491 z"/>
		<path d="M 2334.422,-1968.5491 L 2371.1092,-1860.248 L 2278.6266,-1929.1669 L 2186.9086,-1860.248 L 2224.36,-1969.3065 L 2129.5847,-2034.4385 L 2244.9967,-2032.9239 L 2278.6266,-2141.9823 L 2313.021,-2032.1665 L 2428.433,-2034.4385 L 2334.422,-1968.5491 z"/>
		<path d="M 2630.7393,-1664.766 L 2667.4265,-1556.4649 L 2574.9441,-1625.3837 L 2482.4617,-1556.4649 L 2520.6774,-1664.766 L 2425.9021,-1730.6555 L 2541.314,-1729.1407 L 2574.9441,-1838.1992 L 2608.574,-1728.3833 L 2724.7504,-1730.6555 L 2630.7393,-1664.766 z"/>
		<path d="M 1218.1097,-1664.7659 L 1255.5613,-1556.4649 L 1163.0788,-1625.3837 L 1070.5964,-1556.4649 L 1108.8123,-1664.7659 L 1014.0369,-1730.6555 L 1129.4489,-1729.1407 L 1163.0788,-1838.1992 L 1196.7088,-1728.3833 L 1312.8851,-1730.6555 L 1218.1097,-1664.7659 z"/>
		<path d="M 1702.7756,-1392.1872 C 1702.7756,-1392.1872 1678.6895,-1382.1058 1695.1957,-1189.9199 C 1708.6507,-1031.7303 1765.0105,-980.20014 1765.0105,-980.20014 L 1789.6329,-882.29014 L 2023.0914,-881.33366 C 2023.0914,-881.33366 2027.3279,-941.9695 2036.3678,-961.1399 C 2058.5837,-1008.2515 2146.6198,-1062.0967 2184.3517,-1143.3913 C 2224.9319,-1192.9545 2204.6022,-1294.0916 2286.0586,-1391.7154 C 2326.4971,-1440.1801 2238.673,-1419.6679 2238.673,-1419.6679 C 2190.5129,-1387.7238 2166.9872,-1350.2295 2154.831,-1324.0368 C 2146.6675,-1273.576 2108.8879,-1231.3817 2105.3246,-1268.0258 C 2105.3246,-1268.0258 2091.5939,-1331.394 2050.4188,-1454.5755 C 2046.3484,-1491.0889 2028.6807,-1617.3419 2024.9147,-1713.7169 C 2022.2215,-1776.4118 1967.3396,-1780.1909 1962.7513,-1716.5391 L 1956.1249,-1464.212 L 1943.0154,-1755.6275 C 1937.4379,-1838.1032 1875.0359,-1825.8804 1872.3306,-1757.5289 L 1869.6492,-1454.0915 L 1858.2796,-1748.2233 C 1841.3681,-1804.3997 1796.9503,-1771.1051 1796.128,-1710.2405 L 1788.5601,-1424.0489 C 1788.5601,-1424.0489 1778.996,-1580.7759 1776.8256,-1646.9561 C 1774.791,-1686.7649 1728.1722,-1683.8281 1723.7791,-1626.9073 C 1717.4297,-1544.6397 1707.4474,-1477.4616 1702.7756,-1392.1872 z" stroke="#ed1720" stroke-width="6.15640688"/>
	</g>
</svg>