<?xml version="1.0" encoding="UTF-8"?>
<!-- Generator: visioncortex VTracer 0.6.4 -->
<!-- Hand-edited by Brett Tolbert <bretttolbert.com> -->
<!-- width="890" height="144" -->
<svg version="1.1" xmlns="http://www.w3.org/2000/svg" width="890" height="592">
    <rect x="0" y="0" width="890" height="592" fill="#453751"></rect>
    <g transform="scale(3) translate(-294, 37)">
        <path
            d="M0 0 C293.7 0 587.4 0 890 0 C890 47.52 890 95.04 890 144 C596.3 144 302.6 144 0 144 C0 96.48 0 48.96 0 0 Z "
            fill="#453751" transform="translate(0,0)" />
        <path
            d="M0 0 C6.84 4.18 10.35 10.57 13 18 C14.32 25.31 12.8 33.65 8.76 39.93 C7.03 42.07 5.48 43.76 3 45 C17.91 44.33 29.27 38.91 41 30 C40.78 30.86 40.57 31.72 40.34 32.61 C37.55 44.45 36.27 54.48 41.22 65.86 C41.48 66.56 41.74 67.27 42 68 C41.67 68.66 41.34 69.32 41 70 C40.44 69.47 39.89 68.94 39.31 68.39 C25.01 55.15 9.82 54.6 -9 54 C-9 60.93 -9 67.86 -9 75 C-4.39 73.77 -4.39 73.77 0 72 C0 77.28 0 82.56 0 88 C-1.49 87.01 -1.49 87.01 -3 86 C-4.98 85.67 -6.96 85.34 -9 85 C-9 92.92 -9 100.84 -9 109 C-6.36 107.35 -3.72 105.7 -1 104 C-2.68 109.81 -5.39 115.01 -8.12 120.38 C-8.59 121.3 -9.06 122.23 -9.54 123.18 C-10.69 125.46 -11.84 127.73 -13 130 C-13.66 130 -14.32 130 -15 130 C-18.96 122.08 -22.92 114.16 -27 106 C-24 106 -24 106 -21 108 C-20.67 100.41 -20.34 92.82 -20 85 C-24.61 86.23 -24.61 86.23 -29 88 C-29 82.72 -29 77.44 -29 72 C-28.01 72.66 -27.02 73.32 -26 74 C-23.03 74.5 -23.03 74.5 -20 75 C-20 68.4 -20 61.8 -20 55 C-34.78 55.37 -50.4 56.64 -62 67 C-64.68 71.03 -64.67 74.27 -64 79 C-62.64 81.78 -62.64 81.78 -60 83 C-55.65 83 -55.65 83 -52 81 C-51.96 79.33 -51.96 77.67 -52 76 C-52.23 76.8 -52.45 77.61 -52.69 78.44 C-54 81 -54 81 -56.44 81.94 C-59 82 -59 82 -62 80 C-62.5 76.56 -62.5 76.56 -62 73 C-59.12 70.2 -57.44 70 -53.44 70 C-49.29 71.21 -48.08 72.25 -46 76 C-45.44 79 -45.44 79 -46 82 C-48.55 85.1 -50.18 86.73 -54 88 C-58.8 88.39 -61.07 88.48 -65.38 86.25 C-68.67 83.43 -69.77 81.55 -70.41 77.27 C-70.61 70.8 -70.19 66.65 -65.82 61.74 C-56.19 52.56 -44.18 47.36 -31 46 C-31.72 45.38 -32.44 44.76 -33.19 44.12 C-39.08 38.07 -41.32 31.79 -41.5 23.38 C-41.19 15.46 -40.23 10.17 -34.88 4.25 C-25.59 -4.18 -11.14 -6.56 0 0 Z "
            fill="#010102" transform="translate(457,9)" />
        <path
            d="M0 0 C5.3 1.8 9.37 5.04 12 10 C13.12 15.39 12.93 20.31 9.88 25 C6.68 28.71 3.55 30.67 -1.39 31.31 C-5.62 31.52 -8.47 31.24 -12.38 29.5 C-16.69 25.39 -18.67 21.32 -19.5 15.44 C-18.69 9.87 -16.52 6.38 -12.38 2.62 C-8.26 -0.19 -4.92 -0.49 0 0 Z "
            fill="#443650" transform="translate(446,17)" />
        <path
            d="M0 0 C0.66 0.33 1.32 0.66 2 1 C2.25 3.31 2.25 3.31 2 6 C0.44 7.88 0.44 7.88 -2 9 C-5.62 8.94 -5.62 8.94 -9 8 C-10.44 5.94 -10.44 5.94 -11 4 C-10.28 4.35 -9.56 4.7 -8.81 5.06 C-5.69 6.1 -4.12 5.89 -1 5 C-0.67 3.35 -0.34 1.7 0 0 Z "
            fill="#3F324A" transform="translate(404,84)" />
        <path
            d="M0 0 C2.48 0.99 2.48 0.99 5 2 C5 2.66 5 3.32 5 4 C6.32 4.33 7.64 4.66 9 5 C5.62 4.75 5.62 4.75 2 4 C0.56 1.94 0.56 1.94 0 0 Z "
            fill="#382D42" transform="translate(393,88)" />
    </g>
</svg>