<?xml version="1.0" encoding="UTF-8" standalone="no"?>
<svg xmlns="http://www.w3.org/2000/svg"
   xmlns:dc="http://purl.org/dc/elements/1.1/"
   xmlns:cc="http://creativecommons.org/ns#"
   xmlns:rdf="http://www.w3.org/1999/02/22-rdf-syntax-ns#"
   width="990" height="633">
  <metadata><rdf:RDF><cc:Work rdf:about="">
    <dc:format>image/svg+xml</dc:format>
    <dc:type rdf:resource="http://purl.org/dc/dcmitype/StillImage"/>
    <dc:title>Yippie flag</dc:title>
  </cc:Work></rdf:RDF></metadata>
  <rect width="990" height="633" fill="#000000"/>
  <path style="fill:#ff0000" d="M491.794,57.7539L659.201,572.977L220.925,254.552H762.663L324.388,572.977Z"/>
  <path style="fill:#009043"
     d="m 489.44172,491.19768 c 1.2304,-9.23745 2.4091,-20.97657 3.1112,-30.98615 0.7454,-10.62782 0.2433,-11.68246 -4.9424,-10.38093 -3.7734,0.94705 -12.8407,8.25933 -14.1741,11.43058 -2.2313,5.30657 -7.3582,7.42899 -20.3355,8.41843 -6.3805,0.48647 -14.3744,1.11997 -17.7643,1.40778 -3.8682,0.3284 -7.0001,0.0756 -8.41,-0.67898 -2.9989,-1.60496 -1.2138,-2.52068 6.3522,-3.25857 3.381,-0.32975 8.36,-1.81145 12,-3.57109 3.4217,-1.65412 7.5712,-3.30212 9.2212,-3.66223 6.2397,-1.36178 6.6017,-1.5731 5.9909,-3.4975 -0.725,-2.2843 1.9125,-3.76985 12.5091,-7.04576 8.2787,-2.55932 10.6967,-3.92527 6.95,-3.92616 -10.0639,-0.002 -41.8812,-2.41831 -52.9697,-4.02207 -21.2905,-3.0793 -37.6993,-8.19677 -39.2514,-12.24149 -0.2864,-0.7463 -2.48,-1.94156 -4.8748,-2.65614 -7.2331,-2.1583 -10.109,-3.99703 -9.5564,-6.11002 0.4136,-1.58173 -0.2431,-1.97811 -4.1532,-2.50691 -6.929,-0.93706 -13.0679,-3.57093 -16.7429,-7.1835 -1.802,-1.77139 -5.5863,-4.64207 -8.4097,-6.37929 -3.6482,-2.24478 -4.8236,-3.46833 -4.0626,-4.22929 1.7677,-1.76765 1.2852,-2.31784 -3.6793,-4.19604 -5.6359,-2.13221 -17.25,-11.93625 -17.25,-14.56161 0,-1.01348 -1.0125,-2.37965 -2.25,-3.03594 -4.041,-2.14307 -12.3318,-10.19962 -19.9405,-19.37712 -8.5764,-10.3447 -17.6995,-19.78882 -23.0821,-23.89433 -4.7866,-3.65095 -4.7758,-5.08852 0.023,-3.00142 15.6961,6.8271 34.0847,11.60783 36.6045,9.51655 1.0249,-0.85062 2.6912,-0.13891 7.1502,3.05417 l 5.8139,4.16324 2.2747,-2.85267 2.2746,-2.85267 6.2889,2.46458 c 4.8581,1.9039 7.0602,3.48126 9.6795,6.93356 3.9335,5.1845 5.0953,5.8427 6.3513,3.59829 0.5015,-0.89612 1.5986,-1.6293 2.4381,-1.6293 2.1046,0 12.4412,8.0969 16.2227,12.7077 3.1143,3.79717 3.969,3.76493 5.506,-0.2077 0.4978,-1.28657 11.0724,4.23456 14.35,7.4923 1.3791,1.37077 3.639,4.74577 5.0219,7.5 3.1228,6.21961 2.9344,6.03418 4.6686,4.59494 1.1521,-0.95616 2.6454,-0.59089 7.4032,1.81081 6.4525,3.25721 10.0363,7.16033 15.2439,16.60195 1.8202,3.3 3.4445,6.17663 3.6096,6.3925 0.165,0.21588 1.0049,-0.1924 1.8662,-0.90728 1.3512,-1.12138 3.2457,0.36067 13.8036,10.79837 6.7305,6.65397 13.5741,12.60721 15.208,13.22941 4.9372,1.88017 17.191,4.13948 20.6261,3.80295 3.1328,-0.3069 2.9977,-0.45583 -4.7152,-5.20098 -12.1228,-7.45822 -21.6699,-14.98471 -34.413,-27.12969 -6.3843,-6.0846 -13.2772,-12.09465 -15.3175,-13.35566 -3.7877,-2.34093 -4.4851,-3.53239 -2.7098,-4.62962 1.9688,-1.21676 0.9211,-2.16021 -4.25,-3.82702 -8.7907,-2.83358 -15.2864,-6.90619 -15.0196,-9.41683 0.1856,-1.74592 -1.0834,-2.85809 -6.5213,-5.71565 -6.472,-3.4009 -16.2091,-11.55589 -16.2091,-13.57535 0,-0.53083 0.7875,-0.97204 1.75,-0.98046 0.9625,-0.008 2.3717,-0.40905 3.1315,-0.89028 0.9905,-0.62736 -0.9904,-1.9932 -7,-4.82642 -8.4241,-3.97153 -18.5069,-11.12834 -19.5659,-13.88786 -0.3127,-0.81504 0.3883,-2.5005 1.5579,-3.74546 1.1696,-1.24497 2.1265,-2.74789 2.1265,-3.33984 0,-0.59194 -4.05,-3.85016 -9,-7.24048 -4.95,-3.39032 -9,-6.5344 -9,-6.98684 0,-0.45244 0.675,-1.38282 1.5,-2.06751 2.2372,-1.85673 1.8588,-2.73593 -1.9573,-4.54678 -1.9015,-0.90233 -4.6455,-2.8288 -6.0978,-4.28105 -2.366,-2.36604 -2.5739,-3.14199 -2.0002,-7.46665 0.5929,-4.46994 0.3418,-5.27307 -3.4022,-10.87981 -3.0787,-4.61033 -4.0425,-7.02936 -4.0425,-10.14622 0,-3.12393 -0.9125,-5.40468 -3.8555,-9.63605 -3.4234,-4.9223 -3.8568,-6.21573 -3.8672,-11.54344 -0.012,-6.19555 -3.8103,-19.17609 -12.3332,-42.15069 -4.3092,-11.61602 -4.6405,-13.34931 -2.5518,-13.34931 2.7539,0 12.2586,11.88652 20.0429,25.06554 8.0303,13.59549 17.1679,24.58545 23.0648,27.74046 1.65,0.8828 5.25,1.85009 8,2.14954 4.2248,0.46004 5.0496,0.89332 5.3196,2.79446 0.2272,1.60016 0.9943,2.25 2.656,2.25 1.675,0 4.5492,2.47701 10.1531,8.75 4.2992,4.8125 7.962,8.95797 8.1395,9.21215 0.1775,0.25417 1.2579,-0.12184 2.4008,-0.83559 1.9031,-1.18854 2.6186,-0.7436 8.5036,5.28785 6.52,6.68228 8.3274,7.78607 8.3274,5.08559 0,-0.825 0.4796,-1.5 1.0658,-1.5 2.8165,0 5.1807,2.72593 9.5478,11.00852 2.6134,4.95662 5.5602,9.74375 6.5484,10.63805 1.6717,1.51294 1.9329,1.46006 3.7547,-0.76028 1.5662,-1.90881 2.3088,-2.1719 3.7111,-1.31485 1.7421,1.06465 2.7853,3.66365 5.8923,14.67856 1.4152,5.01728 1.9377,5.75 4.1005,5.75 1.3633,0 3.8623,-0.71549 5.5534,-1.58997 4.1692,-2.15596 4.6858,-1.45928 9.707,13.08997 4.1708,12.08514 7.2606,25.67388 11.0448,48.57465 2.7374,16.56627 4.3243,22.09074 8.1658,28.42918 3.8971,6.4303 19.5058,23.49617 21.4899,23.49617 2.1289,0 1.7902,-2.61147 -2.6072,-20.10245 -5.1412,-20.44909 -9.855,-32.23321 -16.0737,-40.18333 -2.6735,-3.41782 -4.8698,-7.20016 -4.8807,-8.4052 -0.011,-1.20504 -0.4204,-2.43854 -0.91,-2.7411 -1.3141,-0.81218 -4.0845,-13.44316 -3.9629,-18.06792 0.1481,-5.62804 -1.4934,-11.94163 -5.0698,-19.5 -1.6916,-3.575 -3.076,-7.29644 -3.0764,-8.26987 -4e-4,-0.97343 -1.1373,-4.56689 -2.5264,-7.98548 -1.8765,-4.61814 -2.4741,-7.76139 -2.3251,-12.23013 0.1468,-4.40043 -0.3503,-7.08798 -1.8521,-10.01452 -1.495,-2.91331 -2.1784,-6.58089 -2.5156,-13.5 -0.4224,-8.66517 -0.2391,-9.96135 2.086,-14.75 l 2.5491,-5.25 -2.7084,-5.52215 c -3.1386,-6.39953 -3.2727,-7.68673 -1.1403,-10.94122 1.1358,-1.73351 1.4803,-4.27303 1.25,-9.21481 -0.3164,-6.78807 -0.3044,-6.82339 2.432,-7.13824 3.379,-0.3888 3.4567,-1.70263 0.6008,-10.15938 l -2.1492,-6.36414 2.3092,-1.86988 c 1.2701,-1.02843 2.9771,-2.24367 3.7935,-2.70055 0.8745,-0.4894 1.9421,-3.62156 2.5986,-7.62382 1.0691,-6.51754 1.2559,-6.84067 4.6057,-7.96453 l 3.4914,-1.17139 0.5327,-8.81468 c 0.4635,-7.66931 0.8208,-9.00598 2.75,-10.28692 1.2195,-0.80973 2.2173,-2.32399 2.2173,-3.36503 0,-1.04103 2.7404,-8.00824 6.0897,-15.48268 5.5458,-12.37607 8.7217,-22.68172 11.9046,-38.63058 0.6311,-3.1625 1.5445,-5.75 2.0296,-5.75 2.2012,0 5.6616,19.34016 6.5551,36.63562 0.3954,7.65445 0.1877,18.07299 -0.5128,25.72549 -0.6475,7.07361 -0.951,13.08742 -0.6744,13.36401 0.2766,0.27659 1.7123,-0.44841 3.1904,-1.61112 1.4781,-1.1627 3.0222,-2.114 3.4313,-2.114 0.4091,0 1.0684,7.35872 1.4651,16.35272 0.3967,8.99399 1.1178,16.98149 1.6023,17.75 0.7413,1.17571 1.3726,1.11977 3.9811,-0.35272 1.7051,-0.9625 3.5685,-1.75 4.1409,-1.75 0.6815,0 0.9125,3.88429 0.669,11.25 l -0.3719,11.25 4,0 c 3.7359,0 3.9877,0.1804 3.8142,2.73185 -0.1021,1.50252 -1.4053,5.44937 -2.8959,8.77078 -2.9314,6.53216 -2.8027,7.80867 0.6034,5.98575 3.5712,-1.91124 4.0551,-0.05 2.4822,9.54802 -1.9907,12.14741 -1.9422,13.4636 0.4961,13.4636 2.7613,0 2.5175,1.91273 -1.2064,9.46442 l -3.2064,6.5023 2.2064,2.05559 c 3.267,3.04372 2.8171,6.60768 -1.2936,10.24702 -3.7477,3.31798 -4.4148,5.44239 -2,6.36904 2.408,0.92403 1.8549,6.78639 -0.9553,10.12617 -2.1793,2.58998 -2.2992,3.141 -1.0659,4.90176 1.6075,2.29496 0.7251,7.8474 -1.8786,11.82109 -2.024,3.08914 -2.0513,4.89971 -0.062,4.13646 2.5596,-0.98222 2.8125,2.11728 0.4934,6.04787 -1.7978,3.047 -1.9736,4.06735 -1.0109,5.86622 0.9512,1.77737 0.7942,2.90537 -0.8544,6.13675 -1.1108,2.17751 -2.7276,4.5466 -3.5928,5.26465 -1.8882,1.56703 -2.0504,3.73331 -0.3231,4.31483 1.8691,0.62927 -2.0596,11.45937 -5.6336,15.52988 -2.6612,3.03102 -2.7557,3.39362 -1.1835,4.54323 1.5953,1.1665 1.6046,1.84336 0.141,10.21102 -1.7962,10.26907 -2.2507,41.53846 -0.5794,39.86721 0.5469,-0.54696 1.912,-6.14946 3.0334,-12.45 2.8579,-16.057 9.31,-41.84222 13.5374,-54.10092 5.3549,-15.52843 13.8851,-32.85459 16.1753,-32.85459 1.4415,0 2.3451,-1.62736 4.0254,-7.25 1.1917,-3.9875 3.105,-8.76135 4.2517,-10.60855 1.9443,-3.132 2.205,-3.2499 3.8648,-1.74782 2.4669,2.23252 3.1092,1.15643 3.1698,-5.3103 0.035,-3.74413 0.9934,-7.88919 2.9092,-12.58333 2.8156,-6.89911 2.9066,-6.99601 6.3146,-6.72332 3.3799,0.27045 3.4693,0.18032 3.9693,-4 0.548,-4.58166 7.507,-17.75206 9.388,-17.76742 0.6233,-0.005 1.3961,0.99548 1.7172,2.22349 0.814,3.11278 1.9968,1.49272 4.5505,-6.23275 1.6673,-5.04409 3.7155,-8.29189 9.1442,-14.5 4.7171,-5.39428 7.6694,-7.97102 9.0643,-7.91103 1.3861,0.0596 2.9183,-1.2602 4.6437,-4 4.4197,-7.01812 13.2391,-16.30181 25.2159,-26.54326 11.276,-9.64228 24.7963,-23.08258 34.2619,-34.05935 5.2442,-6.08149 5.2278,-5.8969 -0.8042,9.01364 -5.1391,12.70344 -6.8834,18.58948 -9.3147,31.43109 -1.8167,9.59552 -1.8164,9.8335 0.014,10.31218 1.0305,0.2695 1.8737,0.72444 1.8737,1.01098 0,0.28655 -2.5875,4.34222 -5.75,9.01261 -5.3483,7.89838 -5.6195,8.56991 -3.8814,9.61238 6.3063,3.78253 6.3028,3.61594 0.2167,10.43682 -3.0719,3.44275 -5.5853,6.63743 -5.5853,7.0993 0,0.46186 0.675,1.39995 1.5,2.08464 2.6049,2.16184 1.6705,3.80967 -4.5585,8.03975 -4.8722,3.30864 -5.8336,4.38533 -4.9097,5.49853 0.6318,0.76135 2.0082,1.65702 3.0585,1.99038 2.9027,0.92129 2.3138,2.91976 -2.0903,7.09306 -2.3084,2.18743 -4,4.72174 -4,5.99268 0,2.11149 -11.2187,14.3856 -13.1486,14.3856 -0.4683,0 -0.8514,0.675 -0.8514,1.5 0,0.91273 0.9309,1.5 2.3776,1.5 1.3076,0 2.9108,0.64254 3.5625,1.42786 0.9538,1.1492 0.4543,2.23671 -2.5593,5.57242 -2.0594,2.2795 -5.432,5.00554 -7.4947,6.05785 -4.9454,2.52294 -5.5501,3.73891 -2.4463,4.91899 1.4081,0.53536 2.5602,1.41162 2.5602,1.94724 0,1.62394 -6.2374,5.85398 -13.569,9.20218 -6.7235,3.07044 -6.8486,3.19327 -4.181,4.10267 1.5125,0.5156 2.75,1.43699 2.75,2.04753 0,0.61053 -2.5393,3.56956 -5.6429,6.57561 -4.9773,4.82091 -5.449,5.60724 -4,6.66684 0.9036,0.66071 1.6429,1.84672 1.6429,2.63557 0,2.31911 -17.603,14.76508 -24.0731,17.02058 -3.3371,1.16333 -3.7044,2.53305 -1.1769,4.38971 1.6194,1.18958 1.5634,1.3579 -0.75,2.2549 -7.7295,2.99704 -21.3543,9.41656 -25.8276,12.16897 -4.3162,2.65581 -6.7292,5.5119 -14.7811,17.49517 -5.2926,7.87667 -9.4552,14.82412 -9.2503,15.43877 0.8278,2.48348 41.4654,-23.31442 52.5196,-33.34093 3.3882,-3.0733 6.7632,-5.35723 7.5,-5.07539 0.8282,0.31685 2.2142,-1.11323 3.6315,-3.74706 3.2179,-5.97988 5.7411,-8.78442 8.3563,-9.28807 1.238,-0.2384 2.6485,-1.14405 3.1346,-2.01255 1.5282,-2.7307 6.8305,-8.40349 9.8931,-10.58421 2.7346,-1.94722 3.0295,-1.97577 4.1785,-0.40447 1.0959,1.49883 1.8065,0.94792 6.2633,-4.85622 6.5884,-8.58018 10.0655,-11.35413 12.2537,-9.7758 3.8456,2.77377 4.4834,2.55246 9.8107,-3.40385 4.6469,-5.19554 5.533,-5.78097 7.1869,-4.74807 1.6012,0.99994 2.321,0.72158 4.7587,-1.8401 4.1103,-4.31944 5.7075,-4.97378 9.1832,-3.76215 2.4633,0.8587 3.7424,0.6743 7.0588,-1.01763 2.2278,-1.1365 5.8863,-2.06636 8.1301,-2.06636 2.2438,0 5.7673,-0.86096 7.8299,-1.91324 2.774,-1.41518 5.8224,-1.9095 11.7102,-1.89892 5.0063,0.009 13.6243,-1.13637 23.2254,-3.08676 16.7334,-3.39929 18.2345,-3.57277 18.2345,-2.10735 0,2.06936 -8.4162,6.94627 -21.6896,12.56832 -11.3777,4.81914 -14.6611,6.70511 -19.0145,10.92164 -3.4618,3.35304 -5.4907,6.24034 -5.9306,8.43975 -0.4031,2.01539 -1.3895,3.53164 -2.4838,3.81781 -0.9984,0.26108 -2.0944,1.35421 -2.4356,2.42918 -0.3412,1.07497 -3.6965,3.92626 -7.4562,6.3362 -4.6286,2.96682 -6.9415,5.11187 -7.1628,6.64289 -0.1825,1.26235 -2.3147,3.77894 -4.8269,5.69714 -2.9273,2.23514 -4.5,4.20446 -4.5,5.63487 0,2.92689 -1.9785,5.17099 -5.291,6.00119 -1.4899,0.37341 -4.8276,1.58984 -7.4169,2.70315 -4.4576,1.9166 -4.6969,2.21729 -4.5,5.6556 l 0.2079,3.63138 -7.2125,1.01358 c -8.567,1.20393 -9.5908,1.96928 -8.3626,6.25179 1.1887,4.14453 0.4197,4.67885 -9.6751,6.72297 -13.824,2.79922 -29.112,3.40534 -43.7498,1.73452 l -13,-1.48387 -20.25,8.2782 c -11.1375,4.55302 -20.25,8.67899 -20.25,9.16884 0,1.52111 4.8868,2.84112 10.5181,2.84112 6.5131,0 10.4819,1.6153 10.4819,4.26616 0,1.06982 1.125,3.28211 2.5,4.91621 2.3108,2.74619 3.7373,10.58715 1.75,9.61888 -5.4558,-2.65823 -17.1172,-6.65182 -21.75,-7.44855 -1.65,-0.28376 -4.1995,-1.87923 -5.6656,-3.54548 -1.4661,-1.66625 -3.1172,-2.75047 -3.6691,-2.40939 -1.6899,1.04444 -5.1262,20.39399 -6.6778,37.60217 -0.6643,7.36788 -2.4552,12 -4.6394,12 -0.7561,0 -0.8846,-1.66025 -0.4064,-5.25 z"/>
</svg>