<?xml version="1.0" encoding="UTF-8" standalone="no"?>
<svg
   inkscape:version="1.1.1 (3bf5ae0d25, 2021-09-20)"
   sodipodi:docname="Flag Baden-Württemberg 3.svg"
   id="svg2130"
   version="1.1"
   viewBox="0 0 999.99996 600"
   height="600"
   width="1000"
   xmlns:inkscape="http://www.inkscape.org/namespaces/inkscape"
   xmlns:sodipodi="http://sodipodi.sourceforge.net/DTD/sodipodi-0.dtd"
   xmlns="http://www.w3.org/2000/svg"
   xmlns:svg="http://www.w3.org/2000/svg">
  <defs
     id="defs2124" />
  <sodipodi:namedview
     inkscape:pagecheckerboard="false"
     fit-margin-bottom="0"
     fit-margin-right="0"
     fit-margin-left="0"
     fit-margin-top="0"
     lock-margins="true"
     units="px"
     inkscape:snap-smooth-nodes="true"
     inkscape:snap-object-midpoints="true"
     inkscape:window-maximized="1"
     inkscape:window-y="-11"
     inkscape:window-x="-11"
     inkscape:window-height="1506"
     inkscape:window-width="2560"
     showgrid="false"
     inkscape:document-rotation="0"
     inkscape:current-layer="layer1"
     inkscape:document-units="px"
     inkscape:cy="300"
     inkscape:cx="500"
     inkscape:zoom="1.5"
     inkscape:pageshadow="2"
     inkscape:pageopacity="0"
     borderopacity="1.0"
     bordercolor="#666666"
     pagecolor="#333333"
     id="base"
     showguides="true"
     inkscape:guide-bbox="true"
     inkscape:snap-intersection-paths="true"
     inkscape:object-paths="true"
     inkscape:snap-grids="false"
     inkscape:snap-global="false"
     inkscape:lockguides="false"
     guidecolor="#00ffff"
     guideopacity="0.49803922"
     inkscape:snap-midpoints="true" />
  <g
     id="layer1"
     inkscape:groupmode="layer"
     inkscape:label="baden-wuerttemberg"
     transform="translate(-221.6667,159.33333)">
    <g
       id="g72600"
       inkscape:label="flag"
       transform="matrix(2,0,0,2,2221.6675,-159.33333)">
      <g
         id="g6"
         style="display:inline"
         transform="translate(-1000.0004)"
         inkscape:label="flag-0">
        <rect
           y="0"
           fill="#f9dd16"
           width="500"
           height="300"
           id="rect4"
           x="0"
           style="fill:#f9c700;fill-opacity:1"
           inkscape:label="flag-y" />
        <rect
           width="500"
           height="150"
           id="rect2"
           x="0"
           y="0"
           style="fill:#000000;stroke:none"
           inkscape:label="flag-s" />
      </g>
      <g
         id="g72506"
         inkscape:label="coa"
         transform="matrix(0.84034064,0,0,0.84034064,-119.85264,24.187489)">
        <g
           id="g72496"
           inkscape:label="coa-0">
          <path
             fill="none"
             stroke="#000000"
             stroke-width="2"
             d="m -830.07607,47.99707 6.52441,6.524414 6.90332,-1.135254 c -1.40039,2.510743 -2.79004,4.634766 -2.79004,10.166016 0,5.532715 4.39746,9.125977 9.59863,9.125977 5.20215,0 10.21485,-4.066407 10.21485,-10.119141 0,-6.051269 -5.34375,-11.395019 -5.34375,-11.395019 l 7.04297,-1.086915 7.4707,-10.875 7.37695,9.172852 h 6.90235 c 0,0 -3.5918,4.539551 -3.5918,10.117676 0,5.57959 3.87598,9.268066 9.55078,8.794922 5.67481,-0.473145 9.36035,-2.931153 9.36035,-9.361817 0,-6.430664 -4.2539,-10.686035 -4.2539,-10.686035 l 7.56445,-0.37793 7.66113,-9.361816 8.32032,9.928711 6.24023,0.473144 c 0,0 -4.16016,4.539551 -4.16016,10.497071 0,5.957519 5.76856,9.172851 10.59082,9.172851 4.8252,0 9.26954,-2.459472 9.26954,-8.794922 0,-6.335449 -4.63477,-10.401855 -4.63477,-10.401855 l 7.37695,0.566894 7.84864,-8.983886 7.37402,10.970215 6.62109,1.324218 c 0,0 -4.53808,3.593262 -4.53808,10.306641 0,6.714844 5.10644,9.930176 10.87207,9.930176 5.76855,0 8.32324,-4.539551 8.32324,-8.510742 0,-3.972657 -3.4043,-9.930176 -3.4043,-9.930176 l 7.09278,1.135254 6.99609,-6.997559 -2.67773,35.90332 -5.54883,107.676265 c 0,0 -4.53809,70.73438 -72.2461,70.73438 -67.708,0 -70.73437,-70.73438 -70.73437,-70.73438 l -6.8086,-107.172358 z"
             id="path1652"
             style="fill:#f9c700;fill-opacity:1;stroke:#000000"
             sodipodi:nodetypes="cccssscccccssscccccssscccccssscccccsccc"
             inkscape:label="coa-f" />
          <path
             id="path18485"
             style="opacity:1;fill:none;fill-opacity:1;stroke:#000000;stroke-width:1.5;stroke-linecap:butt;stroke-linejoin:miter;stroke-miterlimit:4;stroke-dasharray:none"
             d="m -829.60151,59.736059 9.4413,18.406133 c 5.50209,-1.185031 13.83498,-2.827024 23.86242,-4.314406 l 6.37367,-23.92062 7.67657,22.107186 c 8.03644,-0.878652 16.67904,-1.543423 25.51837,-1.773942 l 6.64962,-22.241702 6.64962,22.241701 c 8.83933,0.230519 17.48193,0.89529 25.51837,1.773942 l 7.67657,-22.107186 6.37367,23.92062 c 10.02744,1.487382 18.36033,3.129375 23.86242,4.314406 l 9.4413,-18.406133 m -156.80277,24.783398 c 0,0 37.70848,-10.089021 77.28082,-10.089021 39.57234,0 77.28082,10.089021 77.28082,10.089021"
             inkscape:label="coa-p15" />
          <path
             style="opacity:1;fill:none;fill-opacity:1;stroke:#000000;stroke-width:3;stroke-linecap:round;stroke-linejoin:round;stroke-miterlimit:4;stroke-dasharray:none"
             d="m -827.36038,90.12517 c 0,0 37.70848,-10.826615 77.28082,-10.826615 39.57234,0 77.28082,10.826615 77.28082,10.826615"
             id="path15314"
             sodipodi:nodetypes="czc"
             inkscape:label="coa-p30" />
        </g>
        <g
           id="g925"
           transform="matrix(1.3496388,0,0,1.3496388,-1063.8587,-3.3782328)"
           inkscape:label="lions">
          <path
             id="path42-2"
             style="fill:#ff0000;fill-opacity:1;stroke:#000000;stroke-width:0.357023;stroke-miterlimit:6;stroke-dasharray:none"
             d="m 202.14017,78.505112 c -0.0405,-0.257303 -0.0833,-0.532392 -0.0833,-0.532392 0,0 -1.83992,0.538673 -3.83933,0.538673 -0.70456,0 -2.46117,-0.04397 -3.3014,-0.742653 -1.54002,-1.277111 -2.07558,-3.578248 -2.07558,-3.578248 0,0 -1.47575,5.469377 5.22464,5.469377 4.58435,0 4.14401,-0.717535 4.14401,-0.717535 0,0 -0.0333,-0.211301 -0.069,-0.437222 z m 1.1405,39.164198 c 0.26047,0 -0.0833,-0.53344 -0.0833,-0.53344 0,0 -1.83994,0.53972 -3.83696,0.53972 -0.70693,0 -2.46355,-0.045 -3.30378,-0.74264 -1.54002,-1.27714 -2.07558,-3.57931 -2.07558,-3.57931 0,0 -1.47574,5.46938 5.22465,5.46938 4.58435,0 4.144,-0.71754 4.144,-0.71754 0,0 -0.29675,-0.43617 -0.069,-0.43617 z m 4.39174,37.18243 c -0.0333,-0.20919 -0.069,-0.43233 -0.069,-0.43233 0,0 -1.49718,0.43791 -3.12051,0.43791 -0.57601,0 -2.00178,-0.0363 -2.6873,-0.60457 -1.252,-1.0383 -1.68759,-2.90987 -1.68759,-2.90987 0,0 -1.19965,4.44884 4.24874,4.44884 3.72985,0 3.37042,-0.58434 3.37042,-0.58434 0,0 -0.0261,-0.17224 -0.0548,-0.35564 z"
             inkscape:label="coa-g"
             sodipodi:nodetypes="scsccscssscsccscssccsccsccc" />
          <path
             id="path140"
             d="m 272.53618,94.974351 c -0.25373,-2.520737 -2.31446,-9.51224 -4.42333,-12.144368 3.66215,-0.364427 7.29268,-8.101288 -0.31698,-11.63692 -8.76757,-4.07471 -21.60916,3.947504 -29.7744,6.103813 -1.98166,0.523263 -5.72357,2.219569 -8.33919,-1.363508 -2.61563,-3.583077 2.58399,-6.642891 1.93421,-7.514766 -0.38024,-0.491633 -6.86498,1.664676 -7.03963,5.676127 -0.17465,3.757727 3.66215,6.674521 7.53058,6.642891 3.42424,0 9.65526,-1.77538 16.50443,-4.613787 8.68781,-3.598892 14.50696,-4.375878 17.75655,-2.536552 2.74283,1.585603 2.74283,3.170518 2.29864,4.375878 -1.95003,5.279383 -9.97224,-0.253724 -20.37286,3.709595 -15.64837,5.961481 -23.16314,1.902586 -26.9525,0.301168 -0.31698,-3.392611 -2.67957,-9.242701 -4.75612,-10.289226 0,0 0.93514,-0.428374 1.1256,-2.282828 -1.57322,0.0557 -3.12857,0.349988 -4.61378,0.871875 -1.26587,-0.333485 -2.562,-0.540452 -3.86843,-0.618151 -5.9773,0 -11.82739,2.583996 -11.95391,3.075629 0.22347,1.663989 0.55696,3.310788 0.99908,4.93077 0.98327,-2.187939 2.52074,-0.840246 2.99656,0 l 0.15815,1.633735 v 0.380242 c -0.36443,1.585602 -1.6805,2.09305 -2.59981,0.618151 -0.14165,1.280996 0.31423,2.555804 1.2363,3.456558 0.74535,0.554893 2.99655,-0.935134 3.6147,-1.426767 -0.24891,1.04515 -0.44006,2.104052 -0.5707,3.170518 -2.82947,-0.58996 -5.70432,-0.939948 -8.59292,-1.046525 -3.17052,-5.041474 -10.95551,-3.075629 -10.52714,2.044918 4.75612,-1.981659 6.61126,-0.444189 6.548,1.965845 1.74375,2.09305 10.40062,7.023133 14.01533,8.62455 -2.73478,1.436318 -5.31645,3.146924 -7.70523,5.105424 -10.46388,-0.68141 -9.51224,2.90166 -9.51224,3.75772 h 17.3763 c 5.80705,-1.03703 11.53001,-2.49959 17.12258,-4.37587 0,0 0.30117,-0.85607 0.42838,-1.3477 14.26905,-0.12652 19.99193,-8.56129 25.65224,-8.815013 -0.35249,3.312094 -0.51662,6.641536 -0.49163,9.972243 -10.40062,0.42837 -8.65618,4.56634 -8.65618,4.56634 h 14.01532 c 0,0 2.48911,-7.514763 6.34173,-11.779938 4.03863,3.257678 8.61533,5.784768 13.52369,7.467318 -7.2136,0.68141 -5.72357,4.31262 -5.72357,4.31262 h 11.82738 l 0.31698,-9.11618 -6.59544,-1.918401 M 203.88701,73.540525 c -0.23791,-0.126519 -0.36443,-0.808617 -0.30117,-1.30025 0.78387,-0.338986 1.63649,-0.490945 2.48911,-0.444188 -0.63397,1.300249 -1.85514,1.855141 -2.18794,1.74375 z m 60.50043,96.250065 c -0.19046,-2.09305 -1.41095,-8.84665 -4.75612,-10.7176 0.11483,-0.0254 0.23379,-0.0254 0.34862,0 4.91495,0 8.76757,-7.03964 2.94911,-10.13108 -6.69034,-3.55145 -19.69077,3.39261 -25.90597,5.27938 -1.5856,0.46001 -4.37588,1.95003 -6.34172,-1.17304 -1.96585,-3.12307 1.98166,-5.80265 1.49002,-6.57963 -0.30117,-0.42838 -5.24775,1.45839 -5.39077,4.9624 -0.14302,3.504 1.17304,6.15125 4.13797,6.13544 2.61562,0 8.98966,-1.88677 14.26905,-4.36006 6.64289,-3.17052 13.12763,-4.10634 15.58442,-2.50493 0.68072,0.38025 1.17511,1.02384 1.36695,1.77951 0.19184,0.75567 0.0646,1.55741 -0.35274,2.21613 -1.47421,4.61379 -9.08456,-0.74536 -17.01188,2.7112 -11.9539,5.20031 -18.53354,3.17052 -21.48265,1.71212 -0.23791,-2.94911 -1.93421,-7.80012 -3.55144,-8.72012 0,0 0.39605,-0.31699 0.55489,-1.9184 -1.06561,-0.0438 -2.13222,0.0575 -3.17052,0.30116 -1.15585,-0.493 -2.37084,-0.83405 -3.61471,-1.01489 -4.56634,0 -9.51224,1.34769 -9.67107,1.77538 0.17052,1.45083 0.42425,2.89066 0.76117,4.31262 0.82573,-0.73969 1.88096,-0.93582 2.39422,0.39674 l 0.0151,1.63236 c -0.34862,1.20467 -1.26862,1.5856 -1.93422,0.30117 -0.15402,1.09466 0.14371,2.20444 0.82443,3.07563 0.57071,0.47582 2.29864,-0.80862 2.77446,-1.2363 0,0.0949 2.42585,-1.18886 0.58652,3.93168 -0.2379,0.6656 -9.68689,-0.38024 -10.14689,-1.45839 -3.42424,-7.92733 -11.87483,2.10886 -7.48314,1.37932 3.17052,-0.52326 4.47077,-0.25372 4.75612,0.93514 1.25281,1.6963 13.90394,8.27593 14.71255,10.14689 -0.0953,0.14177 -0.24382,0.23898 -0.41187,0.26954 -1.81732,0.72266 -3.47168,1.80082 -4.86751,3.17052 -7.92732,-0.58653 -6.70615,2.85353 -6.70615,3.59889 l 14.90301,-0.19047 c 5.11739,-0.79987 10.16029,-2.01943 15.07767,-3.64633 0,0 -0.28535,-1.72794 0.15883,-1.7912 10.73342,-1.5856 11.09785,-7.54639 15.42628,-7.75267 -0.14302,1.5856 -1.87096,5.8659 -1.77538,8.70431 -7.92732,0.39606 -6.61126,3.99495 -6.61126,3.99495 h 11.3832 c 0,0 3.44005,-9.9248 6.34172,-10.98714 0.1774,-0.0674 0.36511,-0.10452 0.55489,-0.11071 0.98327,1.41096 5.53311,6.00893 7.78431,6.61127 -5.5173,0.60233 -5.88172,3.78935 -5.88172,3.78935 h 10.43224 l 1.58561,-7.27686 c -1.10085,-1.02727 -2.57094,-1.56497 -4.07471,-1.49002 m -55.7436,-19.23145 c -0.19046,-0.1107 -0.28535,-0.71373 -0.23791,-1.1256 0.58796,-0.297 1.24564,-0.42844 1.90259,-0.38024 -0.47582,1.1256 -1.41096,1.64886 -1.66468,1.50584 z m 62.97373,-16.72584 c -0.25373,-2.47329 -2.2512,-9.2427 -4.31262,-11.82738 3.58307,-0.34862 7.10289,-7.92733 -0.30117,-11.33575 -8.52966,-3.96332 -21.02264,3.85261 -28.96578,5.94566 -1.93422,0.50745 -5.58055,2.15631 -8.11711,-1.31606 -2.53655,-3.47238 2.52074,-6.46824 1.87096,-7.32499 -0.34861,-0.47582 -6.65871,1.5856 -6.84917,5.51729 -0.19046,3.93169 3.58308,6.50056 7.3408,6.48474 3.32936,0 9.40154,-1.74375 16.04443,-4.50239 8.4664,-3.50401 14.12603,-4.24867 17.28142,-2.45748 2.67957,1.5856 2.67957,3.07563 2.23538,4.26449 -1.88677,5.12123 -9.7027,-0.25373 -19.81797,3.59889 -15.21999,5.80264 -22.52917,1.85514 -26.28621,0.26954 -0.30117,-3.28191 -2.59981,-8.98967 -4.67704,-10.00388 0,0 0.91932,-0.42837 1.09397,-2.21956 -1.52922,0.0516 -3.04263,0.33486 -4.48659,0.84024 -1.22964,-0.32421 -2.48835,-0.52597 -3.75772,-0.60234 -5.81846,0 -11.5104,2.52074 -11.62111,2.99656 0.21591,1.60554 0.53908,3.1939 0.96745,4.75612 0.95095,-2.10887 2.44167,-0.80862 2.90167,0 l 0.17396,1.61654 v 0.36443 c -0.34861,1.5856 -1.5856,2.04492 -2.53655,0.60234 -0.12583,1.24799 0.32386,2.48498 1.22049,3.36098 0.71373,0.53908 2.90167,-0.9035 3.504,-1.37932 -0.23928,1.04583 -0.41943,2.10474 -0.53908,3.17051 -2.75605,-0.57746 -5.55662,-0.91701 -8.37082,-1.01489 -3.02819,-4.91496 -10.65434,-2.99656 -10.24178,1.98166 4.61378,-1.9184 6.43661,-0.42838 6.34172,1.9184 1.6963,2.0291 10.11526,6.83335 13.63439,8.38664 -2.62703,1.36666 -5.10788,2.99759 -7.40406,4.86751 -10.17852,-0.66559 -9.19526,2.80609 -9.19526,3.66215 h 16.86886 c 5.66375,-0.9702 11.24843,-2.35296 16.71071,-4.13797 0,0 0.30117,-0.84024 0.42838,-1.31606 13.84067,-0.12652 19.40541,-8.3392 24.93851,-8.57711 -0.34586,3.22209 -0.50469,6.46206 -0.47582,9.70271 -10.11526,0.42837 -8.43477,4.45495 -8.43477,4.45495 h 13.66671 c 0,0 2.42585,-7.32499 6.23102,-11.46296 3.93196,3.16545 8.38481,5.62246 13.15927,7.26104 -7.02314,0.64979 -5.58055,4.20123 -5.58055,4.20123 h 11.5104 l 0.31698,-8.87827 -6.34172,-1.85514 m -66.85729,-20.88031 c -0.2379,-0.12652 -0.34861,-0.77699 -0.30116,-1.25281 0.76461,-0.32936 1.59454,-0.47582 2.42584,-0.42837 -0.66559,1.26862 -1.85514,1.93421 -2.12468,1.68049 z"
             inkscape:label="coa-s"
             sodipodi:nodetypes="ccccsccccccccccccccccccccccccccccccccccccccccccccccccccscscccsccccccccccccccccccccccccccccccccccccccccccccscsccccccccccccccccccccccccccccccccccccccccccc"
             style="stroke-width:0.687599" />
        </g>
      </g>
    </g>
  </g>
</svg>
