<?xml version="1.0" encoding="UTF-8" standalone="no"?>
<svg
   width="750"
   height="500"
   version="1.1"
   id="svg49"
   sodipodi:docname="Flag_of_Indiana_(USA)_(no-text).svg"
   inkscape:version="1.1.2 (0a00cf5339, 2022-02-04)"
   xmlns:inkscape="http://www.inkscape.org/namespaces/inkscape"
   xmlns:sodipodi="http://sodipodi.sourceforge.net/DTD/sodipodi-0.dtd"
   xmlns="http://www.w3.org/2000/svg"
   xmlns:svg="http://www.w3.org/2000/svg">
  <defs
     id="defs53" />
  <sodipodi:namedview
     id="namedview51"
     pagecolor="#ffffff"
     bordercolor="#666666"
     borderopacity="1.0"
     inkscape:pageshadow="2"
     inkscape:pageopacity="0.0"
     inkscape:pagecheckerboard="0"
     showgrid="false"
     inkscape:zoom="1.688"
     inkscape:cx="374.70379"
     inkscape:cy="250.29621"
     inkscape:window-width="1920"
     inkscape:window-height="1016"
     inkscape:window-x="0"
     inkscape:window-y="27"
     inkscape:window-maximized="1"
     inkscape:current-layer="g29" />
  <clipPath
     id="A">
    <path
       d="M0 0h1000v666.667H0V0z"
       id="path2" />
  </clipPath>
  <path
     d="M.001.005h749.997v499.99H.001V.005z"
     opacity="1"
     fill="#000f5d"
     transform-origin="375px 250px"
     id="path5" />
  <g
     fill="#ffb900"
     id="g29">
    <path
       d="M346.554 222.899c-.038-.045-.076-.1-.113-.154-18.529-22.737.765-33.618.685-49.705 12.084 20.987-5.161 25.641 15.324 49.875l-15.896-.016zm20.031.013c-6.639-8.982-11.104-24.566-8.815-33.848 1.829-7.413 8.75-15.504 7.064-25.437 1.544 2.562 5.203 9.514 6.4 16.071 5.832-15.071 17.337-22.088 32.177-21.763-28.454 21.622 8.544 38.045-16.016 65.003l-20.81-.026zm26.083.038c7.478-11.212 9.199-17.426 9.141-23.205-.045-4.544-.543-10.22-1.013-13.512-.944-6.607 3.731-15.006 13.728-16.825-1.716 1.829-3.236 5.669-4.017 7.581-.926 2.268-1.218 4.561-.632 8.555 1.225 4.641.654 11.426-.896 14.413-1.483.409 6-12.009 10.061-12.329-3.813 6.541-2.322 15.766-7.793 24.794-2.014 3.324-5.474 7.131-9.725 10.527m-12.916 58.954c1.008-25.563 6.477-33.53 16.847-44.221-20.122-.048-42.609.011-60.906-.064 10.326 10.707 15.85 18.743 16.804 44.303l27.255-.018zm-13.667 62.282l7.961 24.97 4.397-74.147c-8.198-.028-16.396.024-24.594.012l4.22 74.119 8.016-24.954zm.009 111.963c3.512-3.257 4.509-13.866 4.509-13.866l2.185-45.299-6.635-4.662-6.649 4.647 2.115 45.31s.942 10.579 4.459 13.873l.016-.003z"
       id="path7" />
    <path
       stroke="null"
       d="M356.245 284.33h37.509v8.35h-37.509v-8.35z"
       opacity="NaN"
       id="path9" />
    <g
       fill-rule="evenodd"
       id="g23">
      <path
         d="M344.811 115.084h23.062L375 93.176l7.127 21.908h23.062l-18.658 13.539 7.127 21.907L375 136.991l-18.658 13.539 7.127-21.907-18.658-13.539zm9.047-71.637h16.151L375 28.099l4.991 15.348h16.151l-13.067 9.486 4.991 15.347L375 58.795l-13.066 9.485 4.991-15.347-13.067-9.486zm95.756 26.107h16.151l4.991-15.348 4.991 15.348h16.151l-13.067 9.485 4.991 15.348-13.066-9.486-13.066 9.486 4.991-15.348-13.067-9.485zm70.587 62.608h16.151l4.99-15.348 4.991 15.348h16.151l-13.066 9.485 4.991 15.348-13.067-9.486-13.066 9.486 4.991-15.348-13.066-9.485zm-181.047 94.561h71.692v6.756h-71.692v-6.756zm219.096-4.504h16.151l4.991-15.348 4.99 15.348h16.151l-13.066 9.485 4.991 15.348-13.066-9.485-13.067 9.485 4.991-15.348-13.066-9.485zm-12.417 99.846h16.151l4.99-15.347 4.991 15.347h16.151l-13.066 9.486 4.991 15.348-13.067-9.486-13.066 9.486 4.991-15.348-13.066-9.486zm-55.115 77.118l16.151.001 4.991-15.348 4.991 15.348 16.151-.001-13.067 9.486 4.991 15.348-13.066-9.486-13.066 9.486 4.991-15.348-13.067-9.486zm-83.862 47.884h16.151l4.991-15.347 4.991 15.347h16.151l-13.067 9.486 4.991 15.348-13.066-9.486-13.066 9.486 4.991-15.348-13.067-9.486zm35.947-112.008l16.151.001 4.991-15.348 4.991 15.348 16.15-.001-13.066 9.486 4.991 15.348-13.066-9.486-13.067 9.486 4.992-15.348-13.067-9.486zm38.083-89.399h16.151l4.99-15.348 4.991 15.348h16.151l-13.066 9.485 4.991 15.348-13.067-9.486-13.066 9.486 4.991-15.348-13.066-9.485zM353.858 372.054h16.151L375 356.706l4.991 15.348h16.151l-13.067 9.485 4.991 15.348L375 387.401l-13.066 9.486 4.991-15.348-13.067-9.485zm-53.472-302.5h-16.151l-4.991-15.348-4.991 15.348h-16.151l13.067 9.485-4.991 15.348 13.066-9.486 13.066 9.486-4.991-15.348 13.067-9.485zm-70.587 62.608h-16.151l-4.99-15.348-4.991 15.348h-16.151l13.066 9.485-4.991 15.348 13.067-9.486 13.066 9.486-4.991-15.348 13.066-9.485zm-38.049 90.057h-16.151l-4.991-15.348-4.99 15.348h-16.151l13.066 9.485-4.991 15.348 13.066-9.485 13.067 9.485-4.991-15.348 13.066-9.485zm12.417 99.846h-16.151l-4.99-15.347-4.991 15.347h-16.151l13.066 9.486-4.991 15.348 13.067-9.486 13.066 9.486-4.991-15.348 13.066-9.486zm55.115 77.118l-16.151.001-4.991-15.348-4.991 15.348-16.151-.001 13.067 9.486-4.991 15.348 13.066-9.486 13.066 9.486-4.991-15.348 13.067-9.486zm83.862 47.884h-16.151l-4.991-15.347-4.991 15.347H300.86l13.067 9.486-4.991 15.348 13.066-9.486 13.066 9.486-4.991-15.348 13.067-9.486zm-35.947-112.008l-16.151.001-4.991-15.348-4.991 15.348-16.15-.001 13.066 9.486-4.991 15.348 13.066-9.486 13.066 9.486-4.991-15.348 13.067-9.486zm-38.083-89.399h-16.151l-4.99-15.348-4.991 15.348h-16.151l13.066 9.485-4.991 15.348 13.067-9.486 13.066 9.486-4.991-15.348 13.066-9.485zm-71.006-23.063l.401 3.637L329.13 211.26l-.402-3.638-130.62 14.975z"
         clip-path="url(#A)"
         id="path11" />
      <path
         d="M373.145 143h3.709v20h-3.709v-20z"
         clip-path="url(#B)"
         id="path13" />
      <path
         d="M292.282 98.296l3.02-2.154 47.037 65.942-3.02 2.154-47.037-65.942z"
         clip-path="url(#C)"
         id="path15" />
      <path
         d="M224.67 144.49l1.389-3.439 106.626 43.079-1.389 3.439L224.67 144.49z"
         clip-path="url(#D)"
         transform="matrix(.999925 -.012217 .012217 .999925 -1.986479 3.416923)"
         id="path17" />
      <path
         d="M420.871 211.259l.401-3.637 130.621 14.974-.402 3.638-130.62-14.975z"
         clip-path="url(#E)"
         transform="matrix(-1 0 0 -1 972.763993 433.856028)"
         id="path19" />
      <path
         d="M407.661 162.084l3.02 2.154 47.037-65.942-3.02-2.154-47.037 65.942z"
         clip-path="url(#F)"
         transform="matrix(-1 0 0 -1 865.378983 260.379987)"
         id="path21" />
    </g>
    <path
       d="M425.34 180.891l1.286 3.184 98.714-39.882-1.286-3.184-98.714 39.882z"
       fill-rule="evenodd"
       clip-path="url(#G)"
       transform="matrix(-.999925 -.012217 .012217 -.999925 948.658547 330.879089)"
       id="path27" />
  </g>
  <clipPath
     id="B">
    <path
       d="M0 29.374h1000v533.334H0V29.374z"
       id="path31" />
  </clipPath>
  <clipPath
     id="C">
    <path
       d="M-4750.3-284.64H8745.78v1815.89H-4750.3V-284.64z"
       id="path34" />
  </clipPath>
  <clipPath
     id="D">
    <path
       d="M-10642-123.22h29122.2v1240.48H-10642V-123.22z"
       id="path37" />
  </clipPath>
  <clipPath
     id="E">
    <path
       d="M222.763 0h999.997v666.667H222.763V0z"
       id="path40" />
  </clipPath>
  <clipPath
     id="F">
    <path
       d="M-4634.9-284.64H8861.16v1815.89H-4634.9V-284.64z"
       id="path43" />
  </clipPath>
  <clipPath
     id="G">
    <path
       d="M-9635-103.65h26961.3v1148.43H-9635V-103.65z"
       id="path46" />
  </clipPath>
</svg>
