<?xml version="1.0" encoding="UTF-8" standalone="no"?>
<!-- Created with Inkscape (http://www.inkscape.org/) -->
<svg xmlns:svg="http://www.w3.org/2000/svg" xmlns="http://www.w3.org/2000/svg" version="1.0" width="100%" height="100%" viewBox="0,0,1350,900" id="svg2" xml:space="preserve"><defs id="defs10"/><rect width="1350" height="900" x="0" y="0" id="rect4117" style="fill: rgb(255, 255, 255);"/><rect width="1350" height="300" x="0" y="0" id="rect2172" style="fill: rgb(255, 153, 50); fill-opacity: 1;"/><rect width="1350" height="300" x="0" y="600" id="rect3146" style="fill: rgb(18, 136, 7); fill-opacity: 1;"/><path d="M 675,315 C 600.44281,315 540,375.44281 540,450 C 540,524.55719 600.44281,585 675,585 C 749.55719,585 810,524.55719 810,450 C 809.99374,375.44281 749.55719,315 675,315 z M 674.875,328.15625 L 671.4375,395.9375 L 675.0625,434.625 L 678.65625,395.9375 L 675.21875,328.15625 C 678.68097,328.16233 682.11122,328.33579 685.5,328.625 C 685.47396,328.84352 685.4375,329.05576 685.4375,329.28125 C 685.4375,332.36179 687.95069,334.875 691.03125,334.875 C 693.84412,334.875 696.14774,332.77004 696.53125,330.0625 C 699.87414,330.65876 703.16372,331.38701 706.40625,332.25 L 685.53125,396.84375 L 679,435.1875 L 692.5,398.75 L 706.6875,332.34375 C 709.9972,333.2333 713.27675,334.25121 716.46875,335.40625 C 716.21749,336.0412 716.0625,336.74477 716.0625,337.46875 C 716.0625,340.54929 718.54446,343.03124 721.625,343.03125 C 723.91134,343.03125 725.88792,341.65702 726.75,339.6875 C 729.83617,341.13803 732.87446,342.71095 735.8125,344.40625 L 698.9375,401.375 L 682.6875,436.71875 L 705.1875,405 L 736.09375,344.5625 C 739.02359,346.2634 741.85653,348.0997 744.625,350.03125 C 743.88645,350.97842 743.43749,352.14426 743.4375,353.4375 C 743.4375,356.52149 745.94727,359.03125 749.03125,359.03125 C 750.84674,359.03125 752.44805,358.1552 753.46875,356.8125 C 756.0868,359.01927 758.60866,361.33354 761.03125,363.75 L 710.6875,409.21875 L 685.84375,439.15625 L 715.78125,414.34375 L 761.25,363.96875 C 763.65603,366.38088 765.95807,368.89406 768.15625,371.5 C 766.88518,372.52318 766.06252,374.08622 766.0625,375.84375 C 766.0625,378.92429 768.57574,381.43751 771.65625,381.4375 C 772.89211,381.4375 774.01243,381.02458 774.9375,380.34375 C 776.89155,383.14235 778.75054,386.00519 780.46875,388.96875 L 720.03125,419.875 L 688.3125,442.34375 L 723.625,426.125 L 780.625,389.21875 C 782.40704,392.30963 784.02043,395.52694 785.53125,398.78125 C 783.52623,399.62977 782.12499,401.59326 782.125,403.90625 C 782.125,406.99024 784.63477,409.5 787.71875,409.5 C 788.4541,409.5 789.13802,409.3523 789.78125,409.09375 C 790.85904,412.11804 791.81607,415.21462 792.65625,418.34375 L 726.25,432.53125 L 689.8125,446.03125 L 728.125,439.5 L 792.75,418.625 C 793.6179,421.88926 794.37118,425.19663 794.96875,428.5625 C 792.26337,428.95101 790.18751,431.28141 790.1875,434.09375 C 790.1875,437.17774 792.69724,439.68752 795.78125,439.6875 C 795.98442,439.6875 796.17742,439.67743 796.375,439.65625 C 796.65822,443.02515 796.8403,446.4337 796.84375,449.875 L 729.0625,446.40625 L 690.34375,450.03125 L 729.03125,453.625 L 796.84375,450.1875 C 796.83856,453.63891 796.66164,457.059 796.375,460.4375 C 796.1775,460.41631 795.98435,460.40625 795.78125,460.40625 C 792.70071,460.40625 790.18748,462.88822 790.1875,465.96875 C 790.1875,468.76695 792.25058,471.09837 794.9375,471.5 C 794.34026,474.85305 793.6156,478.15412 792.75,481.40625 L 769.6875,473.9375 L 728.15625,460.5 L 689.84375,453.96875 L 690,454.03125 L 689.84375,454 L 726.28125,467.5 L 792.65625,481.6875 C 791.76967,484.98594 790.74408,488.22468 789.59375,491.40625 C 789.31476,491.29771 789.01736,491.21914 788.71875,491.15625 C 788.70893,491.15424 788.69733,491.15821 788.6875,491.15625 C 788.32391,491.08179 787.948,491.03125 787.5625,491.03125 C 784.47851,491.03125 781.96874,493.541 781.96875,496.625 C 781.96875,497.396 782.12341,498.11291 782.40625,498.78125 C 782.41117,498.7931 782.4325,498.80069 782.4375,498.8125 C 782.79157,499.63232 783.32044,500.3766 784,500.9375 C 784.00571,500.94225 784.02553,500.93278 784.03125,500.9375 C 784.16321,501.04542 784.29591,501.15432 784.4375,501.25 C 784.4445,501.25478 784.46173,501.24526 784.46875,501.25 C 784.61056,501.34486 784.75569,501.44943 784.90625,501.53125 C 784.91398,501.5355 784.92975,501.52704 784.9375,501.53125 C 785.06068,501.59743 785.18401,501.69301 785.3125,501.75 C 783.86197,504.83599 782.28905,507.84336 780.59375,510.78125 L 723.65625,473.9375 L 723.625,473.9375 L 688.3125,457.6875 L 688.4375,457.78125 L 706.875,470.84375 L 720,480.1875 L 720.03125,480.1875 L 780.4375,511.0625 C 778.69886,514.0572 776.82324,516.98653 774.84375,519.8125 C 773.92496,519.14724 772.81399,518.75 771.59375,518.75 C 768.51321,518.75 765.99998,521.26321 766,524.34375 C 766,526.07655 766.7908,527.60115 768.03125,528.625 C 765.87224,531.1769 763.64,533.66576 761.28125,536.03125 L 715.78125,485.6875 L 685.9375,460.9375 L 710.65625,490.78125 L 761.03125,536.28125 C 758.68181,538.62383 756.22088,540.85438 753.6875,543 C 752.72559,542.21333 751.49489,541.71874 750.15625,541.71875 C 747.07571,541.71875 744.59378,544.23194 744.59375,547.3125 C 744.59375,548.15207 744.7612,548.94176 745.09375,549.65625 C 742.17424,551.71314 739.16306,553.63844 736.0625,555.4375 L 705.15625,495.03125 L 682.6875,463.3125 L 682.65625,463.3125 L 698.90625,498.625 L 735.75,555.625 C 732.85106,557.29549 729.85555,558.84888 726.8125,560.28125 C 725.94081,558.33457 723.98851,556.96875 721.71875,556.96875 C 718.63821,556.96875 716.15625,559.48195 716.15625,562.5625 C 716.15625,563.27197 716.28948,563.93805 716.53125,564.5625 C 713.31859,565.72706 710.01949,566.76072 706.6875,567.65625 L 692.5,501.28125 L 679,464.84375 L 678.96875,464.8125 L 685.53125,503.125 L 706.40625,567.75 C 703.13259,568.62126 699.8134,569.36941 696.4375,569.96875 C 696.04179,567.27507 693.70928,565.18748 690.90625,565.1875 C 687.82571,565.1875 685.34377,567.70069 685.34375,570.78125 C 685.34375,570.98435 685.35382,571.1775 685.375,571.375 C 682.00645,571.65902 678.59723,571.83944 675.15625,571.84375 L 678.625,504.0625 L 675,465.375 L 671.375,504.0625 L 674.84375,571.84375 C 671.35012,571.83937 667.88763,571.66763 664.46875,571.375 C 664.4899,571.17765 664.5,570.98419 664.5,570.78125 C 664.5,567.70071 661.98677,565.18748 658.90625,565.1875 C 656.10805,565.1875 653.77663,567.25058 653.375,569.9375 C 650.07317,569.34598 646.82884,568.60182 643.625,567.75 L 664.5,503.15625 L 671.03125,464.84375 L 657.53125,501.25 L 643.3125,567.65625 C 640.01227,566.76926 636.74572,565.74473 633.5625,564.59375 C 633.81376,563.95881 633.96875,563.28648 633.96875,562.5625 C 633.96875,559.48196 631.4868,556.96875 628.40625,556.96875 C 626.12116,556.96875 624.14407,558.3447 623.28125,560.3125 C 620.19431,558.86252 617.15756,557.28859 614.21875,555.59375 L 651.09375,498.625 L 667.3125,463.3125 L 644.84375,495 L 613.9375,555.4375 C 610.94704,553.70233 608.04104,551.85028 605.21875,549.875 C 605.90034,548.94889 606.31249,547.79974 606.3125,546.5625 C 606.3125,543.47851 603.80276,540.96877 600.71875,540.96875 C 598.95926,540.96875 597.39933,541.79 596.375,543.0625 C 593.81746,540.8996 591.33911,538.64469 588.96875,536.28125 L 639.34375,490.78125 L 664.15625,460.875 L 664.15625,460.84375 L 634.25,485.6875 L 588.75,536.03125 C 586.34397,533.6192 584.04193,531.10583 581.84375,528.5 C 583.11483,527.47682 583.9375,525.91376 583.9375,524.15625 C 583.9375,521.07571 581.45554,518.59373 578.375,518.59375 C 577.13538,518.59375 575.98906,519.0029 575.0625,519.6875 C 573.11627,516.90146 571.27498,514.01213 569.5625,511.0625 L 630,480.15625 L 661.6875,457.6875 L 626.375,473.90625 L 569.40625,510.78125 C 567.74092,507.8953 566.2105,504.93522 564.78125,501.90625 C 566.91075,501.11982 568.4375,499.08912 568.4375,496.6875 C 568.4375,493.60696 565.92429,491.09374 562.84375,491.09375 C 561.99179,491.09375 561.19132,491.28315 560.46875,491.625 C 559.28684,488.37515 558.25015,485.05965 557.34375,481.6875 L 623.71875,467.46875 L 660.1875,453.96875 L 621.875,460.5 L 557.25,481.40625 C 556.37873,478.13282 555.6306,474.81314 555.03125,471.4375 C 557.7336,471.04942 559.8125,468.71542 559.8125,465.90625 C 559.8125,462.82571 557.29929,460.34374 554.21875,460.34375 C 554.01565,460.34375 553.8225,460.35382 553.625,460.375 C 553.34093,457.00648 553.16056,453.59717 553.15625,450.15625 L 620.9375,453.59375 L 659.625,450 L 620.9375,446.375 L 553.15625,449.84375 C 553.16057,446.40251 553.34093,442.9938 553.625,439.625 C 553.93147,439.67715 554.24125,439.71875 554.5625,439.71875 C 557.64649,439.71875 560.15626,437.20898 560.15625,434.125 C 560.15625,431.19329 557.90395,428.79302 555.03125,428.5625 C 555.62882,425.19663 556.3821,421.88926 557.25,418.625 L 621.875,439.5 L 660.1875,446.03125 L 623.75,432.53125 L 557.34375,418.3125 C 558.23075,415.01227 559.25526,411.74572 560.40625,408.5625 C 561.04119,408.81376 561.74478,408.96875 562.46875,408.96875 C 565.54929,408.96875 568.03127,406.48677 568.03125,403.40625 C 568.03125,401.11991 566.65703,399.14333 564.6875,398.28125 C 566.13751,395.19431 567.71137,392.15756 569.40625,389.21875 L 626.375,426.09375 L 661.71875,442.3125 L 630,419.84375 L 569.5625,388.9375 C 571.28613,385.96699 573.13314,383.08587 575.09375,380.28125 C 576.02944,380.98979 577.20543,381.40626 578.46875,381.40625 C 581.54929,381.40625 584.03122,378.92428 584.03125,375.84375 C 584.03125,374.05501 583.18508,372.45902 581.875,371.4375 C 584.05521,368.85578 586.33436,366.36004 588.71875,363.96875 L 634.21875,414.34375 L 664.15625,439.15625 L 639.34375,409.25 L 588.96875,363.75 C 591.38088,361.34397 593.89406,359.04193 596.5,356.84375 C 597.52318,358.11483 599.08623,358.9375 600.84375,358.9375 C 603.92429,358.9375 606.40624,356.45554 606.40625,353.375 C 606.40625,352.13914 606.02458,350.98757 605.34375,350.0625 C 608.13069,348.1166 610.98694,346.27456 613.9375,344.5625 L 644.84375,405 L 667.3125,436.6875 L 651.125,401.375 L 614.21875,344.375 C 617.10502,342.71093 620.09577,341.17802 623.125,339.75 C 623.9402,341.82225 625.95199,343.28125 628.3125,343.28125 C 631.39304,343.28125 633.90626,340.79929 633.90625,337.71875 C 633.90625,336.91331 633.74502,336.12928 633.4375,335.4375 C 636.66831,334.26547 639.99223,333.24364 643.34375,332.34375 L 657.5625,398.71875 L 671.0625,435.1875 L 664.53125,396.875 L 643.65625,332.25 C 646.92093,331.38286 650.22748,330.628 653.59375,330.03125 C 653.98227,332.73663 656.31269,334.8125 659.125,334.8125 C 662.20899,334.8125 664.71873,332.30274 664.71875,329.21875 C 664.71875,329.00516 664.71087,328.80112 664.6875,328.59375 C 668.0455,328.31238 671.4451,328.15969 674.875,328.15625 z" id="polygon2506" style="fill: rgb(0, 0, 128); stroke: none; stroke-width: 0.01;"/><circle cx="21.599001" cy="21.587999" r="3.2320001" transform="matrix(6.25637, 0, 0, 6.25637, 539.969, 314.969)" id="circle229" style="fill: rgb(255, 255, 255); stroke: none;"/><circle cx="21.593" cy="21.598" r="2.5039999" transform="matrix(6.25637, 0, 0, 6.25637, 539.969, 314.969)" id="circle227" style="fill: rgb(0, 0, 128); stroke: none; stroke-width: 0.01;"/></svg>
