<?xml version="1.0" encoding="UTF-8" standalone="no"?>
<!DOCTYPE svg PUBLIC "-//W3C//DTD SVG 1.0//EN" "http://www.w3.org/TR/2001/REC-SVG-20010904/DTD/svg10.dtd">
<!-- Created with Inkscape (http://www.inkscape.org/) -->
<svg xmlns="http://www.w3.org/2000/svg" xmlns:xlink="http://www.w3.org/1999/xlink" version="1.0" x="0.0000000" y="0.0000000" width="500.00000" height="300.00000" id="svg1">
  <defs id="defs3"/>
  <g id="layer1">
    <rect width="500.00000" height="300.00000" x="125.00000" y="377.36218" transform="translate(-125, -377.362)" style="fill: rgb(255, 198, 30); fill-opacity: 1; stroke: none; stroke-width: 1.25; stroke-linecap: butt; stroke-linejoin: miter; stroke-miterlimit: 4; stroke-opacity: 1;" id="rect1061"/>
    <rect width="500.00000" height="225.00000" x="125.00000" y="452.36218" transform="translate(-125, -377.362)" style="fill: rgb(255, 255, 255); fill-opacity: 1; stroke: none; stroke-width: 1.25; stroke-linecap: butt; stroke-linejoin: miter; stroke-miterlimit: 4; stroke-opacity: 1;" id="rect2304"/>
    <rect width="500.00000" height="150.00000" x="125.00000" y="527.36218" transform="translate(-125, -377.362)" style="fill: rgb(206, 17, 38); fill-opacity: 1; stroke: none; stroke-width: 1.25; stroke-linecap: butt; stroke-linejoin: miter; stroke-miterlimit: 4; stroke-opacity: 1;" id="rect2926"/>
    <rect width="500.00000" height="75.000000" x="125.00000" y="602.36218" transform="translate(-125, -377.362)" style="fill: rgb(58, 117, 196); fill-opacity: 1; stroke: none; stroke-width: 1.25; stroke-linecap: butt; stroke-linejoin: miter; stroke-miterlimit: 4; stroke-opacity: 1;" id="rect3548"/>
    <path d="M 125.00000,677.36218 L 375.00000,527.36218 L 125.00000,377.36218 L 125.00000,677.36218 z " transform="translate(-125, -377.362)" style="fill: rgb(61, 142, 51); fill-opacity: 1; fill-rule: evenodd; stroke: none; stroke-width: 0.25pt; stroke-linecap: butt; stroke-linejoin: miter; stroke-opacity: 1;" id="path4170"/>
    <path d="M 302.78550 421.47113 A 89.675148 89.675148 0 1 1  123.43520,421.47113 A 89.675148 89.675148 0 1 1  302.78550 421.47113 z" transform="matrix(0.752717, 0, 0, 0.752717, -75.4118, -167.249)" style="fill: rgb(255, 255, 255); fill-opacity: 1; stroke: none; stroke-width: 1.25; stroke-linecap: butt; stroke-linejoin: miter; stroke-miterlimit: 4; stroke-opacity: 1;" id="path5413"/>
    <path d="M 302.78550 421.47113 A 89.675148 89.675148 0 1 1  123.43520,421.47113 A 89.675148 89.675148 0 1 1  302.78550 421.47113 z" transform="matrix(0.752717, 0, 0, 0.752717, -45.4118, -167.249)" style="fill: rgb(61, 142, 51); fill-opacity: 1; stroke: none; stroke-width: 1.25; stroke-linecap: butt; stroke-linejoin: miter; stroke-miterlimit: 4; stroke-opacity: 1;" id="path5414"/>
    <path d="M 186.31282,571.25130 L 195.39491,571.25130 L 198.20037,562.61380 L 201.00583,571.25130 L 210.08793,571.25130 L 202.74142,576.58880 L 205.54689,585.22630 L 198.20037,579.88879 L 190.85387,585.22630 L 193.65933,576.58880 L 186.31282,571.25130 z " transform="translate(-98.2004, -376.801)" style="fill: rgb(255, 255, 255); fill-opacity: 1; fill-rule: evenodd; stroke: none; stroke-width: 1pt; stroke-linecap: butt; stroke-linejoin: miter; stroke-opacity: 1;" id="path2203"/>
    <path d="M 186.31282,571.25130 L 195.39491,571.25130 L 198.20037,562.61380 L 201.00583,571.25130 L 210.08793,571.25130 L 202.74142,576.58880 L 205.54689,585.22630 L 198.20037,579.88879 L 190.85387,585.22630 L 193.65933,576.58880 L 186.31282,571.25130 z " transform="translate(-98.2004, -473.426)" style="fill: rgb(255, 255, 255); fill-opacity: 1; fill-rule: evenodd; stroke: none; stroke-width: 1pt; stroke-linecap: butt; stroke-linejoin: miter; stroke-opacity: 1;" id="path6092"/>
    <path d="M 186.31282,571.25130 L 195.39491,571.25130 L 198.20037,562.61380 L 201.00583,571.25130 L 210.08793,571.25130 L 202.74142,576.58880 L 205.54689,585.22630 L 198.20037,579.88879 L 190.85387,585.22630 L 193.65933,576.58880 L 186.31282,571.25130 z " transform="translate(-98.2004, -441.218)" style="fill: rgb(255, 255, 255); fill-opacity: 1; fill-rule: evenodd; stroke: none; stroke-width: 1pt; stroke-linecap: butt; stroke-linejoin: miter; stroke-opacity: 1;" id="path6095"/>
    <path d="M 186.31282,571.25130 L 195.39491,571.25130 L 198.20037,562.61380 L 201.00583,571.25130 L 210.08793,571.25130 L 202.74142,576.58880 L 205.54689,585.22630 L 198.20037,579.88879 L 190.85387,585.22630 L 193.65933,576.58880 L 186.31282,571.25130 z " transform="translate(-98.2004, -409.01)" style="fill: rgb(255, 255, 255); fill-opacity: 1; fill-rule: evenodd; stroke: none; stroke-width: 1pt; stroke-linecap: butt; stroke-linejoin: miter; stroke-opacity: 1;" id="path6098"/>
  </g>
</svg>