<svg xmlns="http://www.w3.org/2000/svg" xmlns:xlink="http://www.w3.org/1999/xlink" version="1.0" 
width="100%" height="100%" viewBox="0 0 450 300" id="Flag of Saint Vincent and the Grenadines">
  <rect width="90" height="60" x="125.00000" y="617.36218" transform="matrix(5, 0, 0, 5, -625, -3086.81)" style="fill: rgb(0, 114, 198); fill-opacity: 1; fill-rule: evenodd; stroke: none; stroke-width: 1pt; stroke-linecap: butt; stroke-linejoin: miter; stroke-opacity: 1;" id="rect908"/>
  <rect width="67.500000" height="60" x="147.50000" y="617.36218" transform="matrix(5, 0, 0, 5, -625, -3086.81)" style="fill: rgb(252, 209, 22); fill-opacity: 1; fill-rule: evenodd; stroke: none; stroke-width: 1pt; stroke-linecap: butt; stroke-linejoin: miter; stroke-opacity: 1;" id="rect2152"/>
  <rect width="22.500000" height="60" x="192.50000" y="617.36218" transform="matrix(5, 0, 0, 5, -625, -3086.81)" style="fill: rgb(0, 158, 96); fill-opacity: 1; fill-rule: evenodd; stroke: none; stroke-width: 1pt; stroke-linecap: butt; stroke-linejoin: miter; stroke-opacity: 1;" id="rect2774"/>
  <path d="M 165.00000,659.86218 L 170.00000,669.86218 L 175.00000,659.86218 L 170.00000,649.86218 L 165.00000,659.86218 z " transform="matrix(5, 0, 0, 5, -625, -3086.81)" style="fill: rgb(0, 158, 96); fill-opacity: 1; fill-rule: evenodd; stroke: none; stroke-width: 1pt; stroke-linecap: butt; stroke-linejoin: miter; stroke-opacity: 1;" id="path3396"/>
  <path d="M 171.25000,647.36218 L 176.25000,657.36218 L 181.25000,647.36218 L 176.25000,637.36218 L 171.25000,647.36218 z " transform="matrix(5, 0, 0, 5, -625, -3086.81)" style="fill: rgb(0, 158, 96); fill-opacity: 1; fill-rule: evenodd; stroke: none; stroke-width: 1pt; stroke-linecap: butt; stroke-linejoin: miter; stroke-opacity: 1;" id="path4018"/>
  <path d="M 158.75000,647.36218 L 163.75000,657.36218 L 168.75000,647.36218 L 163.75000,637.36218 L 158.75000,647.36218 z " transform="matrix(5, 0, 0, 5, -625, -3086.81)" style="fill: rgb(0, 158, 96); fill-opacity: 1; fill-rule: evenodd; stroke: none; stroke-width: 1pt; stroke-linecap: butt; stroke-linejoin: miter; stroke-opacity: 1;" id="path4019"/>
</svg>