<svg id="Layer_1" data-name="Layer 1" xmlns="http://www.w3.org/2000/svg"
    xmlns:xlink="http://www.w3.org/1999/xlink" viewBox="0 0 1500 1000">
    <defs>
        <style>
            .cls-1,.cls-8{fill:none;}.cls-2{clip-path:url(#clip-path);}.cls-11,.cls-3,.cls-4{fill:#fff;}.cls-10,.cls-11,.cls-4,.cls-5,.cls-6,.cls-8{stroke:#000;}.cls-4{stroke-width:4.85px;}.cls-4,.cls-9{fill-rule:evenodd;}.cls-5{fill:#171796;}.cls-5,.cls-6{stroke-width:4.54px;}.cls-6{fill:#d42e12;}.cls-7,.cls-9{fill:#dfdfdf;}.cls-8{stroke-width:3.86px;}.cls-10{fill:#e9d315;stroke-width:3.69px;}.cls-11{stroke-linejoin:bevel;stroke-width:4.24px;}</style>
        <clipPath id="clip-path">
            <rect class="cls-1" width="1500" height="1000" />
        </clipPath>
    </defs>
    <g class="cls-2">
        <rect class="cls-3" width="1500" height="1000" />
        <g id="layer1">
            <path id="path3669" class="cls-4" fill="#fff" 
                d="M747.53,696.07c-4.08-9.88-8.19-13-23.82-17.88-18.85-5.93-45.54-7.85-90.87-6.52-29.78.87-38.7.6-48.4-1.44-15.69-3.31-27.58-8.91-36.67-17.3l-7.42-6.84V167.82H960.08l1.09,237.82,1.09,237.81-5.06,7.36q-10.38,15.08-30.37,18.25c-6,1-37.12,2.47-69.25,3.39s-64.26,2.58-71.4,3.7c-17.69,2.78-28.61,9.84-33.62,21.75L750.41,703l-2.88-6.95Z" />
            <path id="path4207" class="cls-5" fill="#171796"
                d="M579,188.21c-13.53,7-20.57,17.43-21.68,31.51-1.11,15.2,2.22,25.95,10.93,34.1,3.9,3.89,7.23,7.6,7.23,8.53,0,.74-3,4.44-6.67,8-8.71,8.15-13.72,18.9-13.72,30,0,11.49,3.53,19.46,13,29.84l7.78,8.52-8.52,9.46c-17,18.9-16.5,40.58,1.29,58.56l7.6,8h349l8.53-9.08c16.49-17.61,16.49-36.7.18-56.9l-8.34-10.19,7.79-9.27c17-20.39,16.68-39.1-.93-58.75-8-8.71-8.15-10.38-1.85-14.45,10.19-6.86,16.49-30,11.86-44.11-6.86-21.13-36.33-35.22-54.3-25.95-3.34,1.67-10,6.3-15,10.19-5,4.08-9.63,7.23-10.56,7.23-.74,0-5.19-3.33-9.82-7.41-18-15.38-39.11-14.27-57.08,3.15l-6.86,6.67-9.08-8.34c-18.35-17.24-41.33-16.49-60.05,1.67l-6.86,6.67-7.41-6.67c-10.94-10-18.16-13-30.77-13.16-12-.19-23.35,4.82-32.24,14.46l-4.45,4.63-9.64-8.16c-17.79-15.19-32.06-17.79-49.3-8.71Z" />
            <path id="path4211" class="cls-6" fill="#d42e12"
                d="M570,425.56c-18.17,20.21-18,40.78.37,61.16l6.85,7.6-7.78,8.53c-4.26,4.63-8.9,11.3-10.38,14.64-5.93,14.27-1.48,33.36,10.19,44.29,7,6.86,7.23,9.64.56,17.8A72.27,72.27,0,0,0,562,590.69C548.11,617,568.86,650,599.63,650c12.23,0,21.5-3.89,29.84-12.79,6.67-7,10.19-7.22,16.12-.92,8.71,9.63,20.2,15.56,29.84,15.56,11.3,0,18.35-3.52,29.84-14.45l8.71-8.53,8,8.71c17.23,18.54,34.65,19.09,57.82,1.49l9.45-7.05,8.16,7.42c10.19,8.89,17.79,12.41,27.8,12.41s17.42-3.89,29.09-15.38l9.64-9.26,7.42,6.67c14.27,12.79,22,16.86,32.43,16.86,10.75,0,18.35-3.52,29.1-13.16,10-9.08,15.38-19.64,14.08-28.35-1.3-9.45-9.82-26.69-16.12-32.62l-5.38-5.19,8.34-9.45c18.16-21.31,18.35-37.81.37-58.94l-7.41-8.89,7.78-9.45c17.42-20.58,17.24-39.67-.37-58.38l-9.45-9.83-173.47.19-173.47.18L570,425.56Z" />
            <path id="path4205" class="cls-3"
                d="M688.86,267.85c-13.15,27.22-13.71,39.43-2.78,61.24,8.53,16.75,18.53,27.4,32.25,34.2,35.76,18,81.53,4.71,99.5-28.79,11.12-20.59,9.82-55-2.41-70l-3.34-4-3.15,11.87c-4.44,16.92-8.89,25.47-17.78,34.54-16.68,16.93-39.66,20.77-63.37,10.3C709.43,309,702,297.69,695.16,266.1l-1.66-7.85-4.64,9.6Z" />
            <path id="path18"
                d="M684.52,269.58c-11,25-10,37.48,3.5,64,35,69,138.93,43,138.43-35-.5-12.5-.11-20.63-7-34.49a127.88,127.88,0,0,0-7-10.93c-.91,3.77-2.29,10.43-5,21.43-10,38.48-43,56.47-77.46,42-19.49-8-28.49-21-33.49-48L693,251.09l-8.49,18.49Zm34,49.48c24,15.49,60.48,10.49,79-10,7.49-8.49,12.1-21.75,14-28.48a100.16,100.16,0,0,0,3.36-14.29c2.9,6.44,4.5,9.82,5.87,19.78,2,14.7-1.23,27-4.73,36-17.49,46-73.47,60-108.45,27-17-15.5-30.49-45.94-23.11-65.59,2.62-7,3.22-10.94,6.64-18.29.62,5,1,11.91,4.47,22.4,4.5,14.5,12.5,25,23,31.49Z" />
            <path id="path2162" class="cls-3"
                d="M273.57,623.66c-1.29,2.24-3.15,3.58-4.16,3s-.77-2.87.52-5.1,3.15-3.57,4.15-3,.78,2.81-.48,5" />
            <path id="path2164" class="cls-3"
                d="M260.3,672.12c0,3.1-.94,5.61-2.1,5.61s-2.1-2.51-2.1-5.61.94-5.6,2.1-5.6,2.08,2.45,2.1,5.51" />
            <path id="path2166" class="cls-3"
                d="M263.54,693.48c.47,2.66-.08,5-1.22,5.19s-2.45-1.8-2.92-4.46.07-5,1.22-5.2,2.42,1.75,2.9,4.39" />
            <path id="path2168" class="cls-3"
                d="M292.08,737.28c2.89,1.67,4.81,3.76,4.29,4.66s-3.29.29-6.19-1.39-4.82-3.76-4.29-4.66,3.23-.3,6.1,1.34" />
            <path id="path2170" class="cls-3"
                d="M276.89,720c1.41,2.44,1.82,4.84.91,5.37s-2.78-1-4.19-3.48-1.82-4.85-.92-5.37,2.75,1,4.15,3.4" />
            <path id="path2172" class="cls-3"
                d="M262.66,649.52c-1,2.85-2.51,4.92-3.3,4.64s-.58-2.83.45-5.68,2.52-4.92,3.3-4.63.59,2.77-.42,5.58" />
            <path id="path2900" class="cls-3"
                d="M222.93,654.37c0,.26-.41.47-.93.47s-.93-.21-.93-.47.41-.46.93-.46.93.2.93.45" />
            <g id="g1434">
                <g id="g2163">
                    <g id="g1386">
                        <path id="path1388" class="cls-7"
                            d="M399.17,152.46c-11.53,1.62-20.21,4.79-31.82,11.77-3.74,2.27-7.23,3.89-7.88,3.65s-1.38-2.19-1.7-4.55a16.26,16.26,0,0,0-1.63-5.44c-1.62-2.27-3.16-.4-6.17,7.23a56.3,56.3,0,0,1-3.33,7.63c-1.46,1.79-3.41,1.14-5.76-1.78s-5.93-3.9-6.74-1.71c-.24.65-.08,3.25.41,5.85,1.46,7.63-.9,8.76-7.55,3.65-5.77-4.47-8-5.36-10.15-4.22s-2.2,2.92.73,9.66c2.51,5.85,2.68,10.07.24,6.66-.65-.9-3.65-2.93-6.74-4.39s-7.87-4.06-10.71-5.68a89.07,89.07,0,0,0-8.69-4.14c-3.57-1.22-22.9-4.06-24.52-3.49-.49.16,2.19,2.35,5.85,5,8,5.52,23.46,19.65,23.46,21.43,0,1.06-.89,1.22-6.5.73-7.38-.64-7.22-.89-5.6,6.82.57,2.68.65,4.47.16,5s-3,.32-6.82-.49c-3.32-.65-6.25-1.22-6.57-1.22-1.22,0-.65,6.42,1.05,11.86,1.63,5.11,1.63,5.6.33,6.49-1.63,1.22-3.49.65-15.83-5-7.31-3.41-9.18-4-13.16-3.82a19.26,19.26,0,0,0-6.73,1.3l-2.28,1.14L239.8,228c6.25,6.82,12.58,15.91,13.56,19.57,1.78,6.09-4.22,7.14-24.44,4.54-11-1.46-18.51-1.22-22.16.73-2.85,1.46-12.59,10.56-12.59,11.78,0,.4,4.71,1,10.47,1.21,12.1.49,20.87,2.6,28.1,6.58,6.82,3.73,6.65,4.55-.73,4.55-6.18,0-9.75,1-13,3.57-1.55,1.22-1.55,1.3,0,3,2.35,2.6,6.9,4.63,12.5,5.52,2.84.49,5.28,1,5.44,1.22s-2.36.73-5.6,1.22c-8.45,1.38-20.3,4.87-26.07,7.79-5.19,2.6-5.44,2.93-6.49,10.48l-.49,3.08,2.6-.57c4.06-.89,25-1.38,28.42-.65,5.19,1.14,3.73,2.28-4.31,3.25-10.06,1.22-15.75,2.36-18.43,3.74l-2.11,1.13,4.39,2.11a61.92,61.92,0,0,0,12.5,3.82c19,3.9,21.35,6.09,5.44,5.28-13.07-.65-18.27-.17-17.86,1.86.4,2.28,8.44,6.17,16.8,8.28,5.12,1.3,3.17,2.28-5.19,2.6-7.55.25-13.24,2.19-15.59,5.36-1.87,2.36-.73,13.07,1.46,14.45a2.37,2.37,0,0,0,2.19-.73c.73-.73,4.06-2.51,7.39-4.14,6.25-3,6.33-3,15.26-1.62,3.82.57,7.15,3.73,10,9.58a64.43,64.43,0,0,0,6.33,9.74c2.11,2.6,4.55,5.6,5.36,6.66,1.54,1.87,1.54,1.95-.16,5.36-.89,1.94-1.87,4.14-2.11,4.87-1.46,5-26.31,3.33-45.87-3.17-7.8-2.6-19.33-8.28-24.52-12.1l-4-2.92v3.17c0,7.79,6.09,21,12.18,26.46l3.9,3.5-4,7.63c-5,9.5-5.28,13.15-1.46,17,1.38,1.46,2.35,3.08,2,3.73s-2.36,2.27-4.71,3.57c-7.31,4.14-7,3.74-4,5.28,1.46.81,5.44,1.62,8.69,1.87,3.57.32,6.41.89,6.9,1.54,2,2.44-2.2,7.79-9.5,12.18-1.22.73-.33,1.05,5,1.87,3.57.48,8.77,1,11.53,1.05l5,.16-1.7,3.09a29.36,29.36,0,0,1-9,9.58l-2.28,1.46,2.52.32a24.15,24.15,0,0,0,6.33-.24c6.09-1,13.48-.81,15.1.33,2.52,1.86.41,6.09-5.92,12.17L207.41,496l3.57.57c6.74,1,15.26-.08,19.81-2.43,2.35-1.14,4.38-2,4.54-1.87,1.14,1.22-3.24,13-6.09,16.24-.64.73-1,1.62-.64,2s4.7.56,9.66.56c7.06,0,9.74-.32,11.85-1.46a31.24,31.24,0,0,1,3.09-1.38,19.17,19.17,0,0,1,.24,3.82,9.5,9.5,0,0,1-2.11,6.49l-2,2.68h2.27c5.28-.08,17.78-4.14,22.25-7.39,2.92-2,3.16-1.94,3.16,1.06-.08,3.41-1.86,8.36-3.73,10.47-1.71,2-1.3,2,6.66-.08,7.14-1.78,13.47-4.3,16.72-6.57,3-2.2,3.33-1.95,2.68,1.46-.73,4.06-2.27,6.41-5.36,8-1.38.65-2.35,1.47-2.11,1.63.65.73,17.78-1.95,21.68-3.33a17.79,17.79,0,0,0,5-2.6c1.38-1.22,1.46-1.22,1.46.73a16.58,16.58,0,0,1-2,5.85,31,31,0,0,0-2,4.22c0,.65,4.47-.73,9.67-3,2.84-1.3,6.17-2.36,7.38-2.36,2.76,0,6,2.52,8.53,6.5,1.38,2.19,3.49,3.81,7.55,5.84l5.68,2.84.33-3.33c.4-3,13.8-38.24,15.1-39.62.57-.56,16.88,10.64,32.63,22.33,9.5,7.06,31.34,28.74,37.76,37.51,17.62,24,23.38,40.59,23.46,67.39,0,14.77-1,22.65-4.38,36.86-7.47,30.36-24.85,59.26-44.58,73.88-13,9.66-28.33,12.91-56.91,12-34.58-1-56.18-8.28-72.17-24-11.86-11.69-19.65-26.95-22.9-44.81a127.21,127.21,0,0,1-.89-15.84c0-19.81,4.46-33.53,14.21-44,8.44-9,17.45-14,29-15.75,11-1.7,23.46,2,31.18,9,5.35,5,5.6,7.31,1.38,15.75-3.74,7.55-4.06,9.5-1.71,11.86,2.19,2.19,6.74,2.11,11.94-.41,7.55-3.49,11.28-12,10.63-23.87-.65-10.63-5.6-17.54-16.8-23.22-10.88-5.44-16.4-6.49-33.37-6.41-14,0-15.51.16-22.33,2.27-13.64,4.14-21.92,9.66-28.33,18.59-14.62,20.62-22.66,56-18,78.92,3.66,17.45,13.4,36.37,27,52,22.89,26.46,53.26,38.56,96.85,38.56,32.32,0,55.21-6.17,77.95-20.94,25.33-16.4,41.73-37.68,55.61-72,3.73-9.42,5.19-15.26,5.84-23.38.25-4,.9-7.23,1.63-8,3.25-3.73,4.38-14.37,2.35-21.27l-1.22-3.9,2.52-2.19c4.47-4,4-12.58-1-18.35l-2.36-2.68,2.68-2.68c3.49-3.57,5-10.31,4.39-19.24-.41-6.17-3.17-14.77-4.71-14.77s-.57-2.2,1.78-3.58c3.66-2.19,5.6-5.84,5.6-10.71,0-9.83-4.06-24.93-7.06-26.06-1.22-.49-1.46-2.68-.32-2.68,1.86,0,4.38-7.63,4.79-14.54.48-8.68-1.22-15.34-4.79-18.91l-2.36-2.44,2.52-5.19c2.19-4.47,2.52-5.77,2.11-9.5-.89-8.61-10.39-24.52-17.54-29.23-2.6-1.71-3.33-2.68-3.33-4.55,0-5.44-4.46-13.47-11.93-21.51-7.79-8.28-10.31-12-11.94-17.86-1.13-3.74-2.35-5.69-5.76-9.1-4-4-12.42-9-17.45-10.31a2.12,2.12,0,0,1-1.63-2.35c-.08-5.2-6.49-13.88-12.18-16.48-2.84-1.3-3.24-1.79-3.24-4.14,0-3.33-2.76-6.66-9.26-11.13-6.17-4.14-15.91-6.65-30.93-7.95C353,340,338.93,334.72,324.07,320c-9-8.93-12.5-14.94-15.75-26.8-2.68-9.82-2.84-19-.4-26.14,1.7-5,7.14-15.26,8.11-15.26.33,0-.16,2.68-1,5.84-2.11,7.72-2.36,20.38-.41,26.55,2.68,8.61,8,15,15.35,18.84,5,2.6,7.47,3.16,16.07,4,8.93.81,14.94,2.59,17.86,5.27,4.39,4.06,14.21,4.55,23.63,1.3a45.71,45.71,0,0,1,10.15-2.11l5.84-.57,7.55,5.28c7.8,5.36,41.49,24.36,47.42,26.71,10.8,4.3,23,1.3,28.09-6.9,4.14-6.58.41-12.75-17.21-28.66-14.29-12.83-17.7-17.21-19.57-24.68a102.43,102.43,0,0,0-5.93-15.26c-5.92-12.75-6-14.94-.4-20.79,2.19-2.35,4.63-5.6,5.28-7.3,1.3-3,1.86-9.83,1-10.8-.49-.41-5.93.73-8.77,1.78-.89.33-1-.89-.81-6.49.16-4.39-.16-7.88-.73-9.42l-1.06-2.44-2.92,2.85c-3,2.92-5.19,3.65-6.17,2.11a29.4,29.4,0,0,1-1.22-5.2c-.81-5.11-4.06-13.07-4.87-12.1a17,17,0,0,0-1.62,3.66c-.49,1.7-1.22,3.08-1.63,3.08s-.89-1.95-1.21-4.3c-.9-7-1.87-9.91-4.06-11.93-1.79-1.71-2.28-1.79-2.84-.82a7.29,7.29,0,0,0-.82,3.25c0,3.57-2.27,10.8-5.27,16.89-5.85,11.69-11.37,10.55-22.74-4.47-6.49-8.6-7.47-11.28-5.68-15.18,4.3-9.09,22.33-21.35,39.3-26.63,3.16-1,5.76-2,5.76-2.35,0-1.55-4.06-5.2-7.63-6.9C410.62,152,405.91,151.56,399.17,152.46Z" />
                    </g>
                    <path id="path24"
                        d="M231.44,313.81c5.16-2.87-19.85-2.42-25.14-2.36-3.58,1.08-6.87,2.64-8,2.13s-.22-4.51.9-11.3a33.08,33.08,0,0,1,12.35-6.23c4.14-1.47,7.79-2.43,12.51-3.94,4.53-.54,6-.33,12.43-1.74-7.55-1.2-12.92-.28-20.43-8.19,3-1.82,4.23-4.13,7.88-5a29.28,29.28,0,0,1,7.94-.66c5.74,0,7.42,1.05,3.58-1.72s-11.19-5.92-19.44-7.42c-7.25-1.25-18.24-1.29-23.54-1.5,2.43-4.81,7-7.62,9.71-10.62,4.49-5.5,14.83-5.37,30.32-2.87,24.49,3,26,0,10.5-19.49l-9.85-10.84,6.25-2.48,6.82-.19c6.5,1.5,14.77,6.51,19.77,8.51,8,3.5,7.56.2,5.06-6.3-2-5.49-.55-5.46-1.32-11.55,4,0,14.54,4,14.54,1.5,0-3-1.38-5-2.16-11.9,3.5,0,11.34.94,13.07.57s-2.4-4.35-6.61-8.12L277.8,182.4l-15.29-10.31,22.68,2.84c7,0,18.06,7.6,23.94,10.66,2.93,1.53,5.72,2,7.48,3.86,4,1.5-.81,5.5,2.12,1.81,1.49-2.68-5.42-10.6-4.48-14.74,4.95-9.45,16.06,7.85,18.47,5,4.62-.5-2.26-11.26,1.4-13.45,5.24-3.11,8.22,7.59,11,5.7s4.64-15.61,9.1-17.33,2.63,14,5.63,11.87c6.5-4.5,20.56-13.32,32.13-14.93,5.78-.8,12.52-2.46,18.22-1.43s11.09,4.95,12.64,9.74c-7.68,2.24-8.89,2.45-16.89,5.95-8,3-18.49,10.49-23.49,15.49-8.5,9.49-8.5,10.49,1,22.49,12,16.49,18,15.49,24.49-3.5,2.75-7.5,1.89-12.26,3.2-14.81.75.55,3.49,1.68,5.13,4.26,1.44,2.25,2.73,12.2,2.71,14.79,1.21-.73,2.33-4,3.45-9.24a78,78,0,0,1,4.87,10.45c1,2.75.13,10,3.13,10,1.75,0,3.87-3.37,7.6-6.66,3.21,6,2.75,13.58,1.47,19.3,2.52-.82,7.68-2.58,10.19-2.81a21.36,21.36,0,0,1,.12,9.37c-1.82,3.92-2.39,7.29-6.39,10.29-6,5-6,8,0,19.49,4,7.5,7,16,7,19.49,0,3,9,13,20.49,22.49,14,12,19,19.49,17,25-5,12-20.49,15.5-34.48,8-6.5-3.5-21-11.5-32.49-18-7.74-4.25-12.84-8.88-17.57-11.85-7.59-.11-13.38.59-19.91,3.85-10,1.5-18,.5-20-2.5s-10-5.5-17.49-5.5c-20,0-33.08-13.22-33.86-32.58-.31-8.41.83-13.72,3.62-23.2-11,17.43-11.68,25.46-7.72,40.84,4.78,21.45,27,48.93,75.94,49.43,9.25.25,17,2.87,25.74,4.62,5.58,3.31,17.51,9.65,15.09,17.6,9.07,2.41,15.29,11.82,15.42,19.53,22.27,6.66,25.21,19.72,25.21,22.22s5.5,10,12.5,16.49,11.63,17,10.77,22.8c7.75,4,10.52,9.84,15.24,16.19,4,8.1,10.64,18.19.83,30.32,10.27,3.81,9.82,32.89,1.62,37.1,6,4.15,7.33,14.26,8.61,28,.06,4.64-1.44,8.79-8.8,12.45,2,1,3.52,3.71,4.59,7.26A44,44,0,0,1,512.45,589a35.07,35.07,0,0,1-1.85,11.92c-1.26,3.33-3.19,5.7-5.88,6.23,9.17,6,8.95,21.83,1,23.47,4.43,8.08,3,24-2.61,27.1,1.24,16.31-5.23,27.88-8.65,36.5-6.84,17.25-15.85,31.87-27.15,44.14a136.76,136.76,0,0,1-40.88,30.08c-35,17-94.46,16.49-128.44-1-30-15.49-54.48-49-59.48-81.46-4.49-29,9.5-71.47,27.49-85,28.49-21,84-14,92,11.49,4,13-1,28.49-10.49,32C335,649,330,643,337,632c5-8.49,4.5-11-3.5-17.49-24-17.49-60-2-68.47,29-10.49,40,6,80.46,39.49,96.95,28,14,84.46,15,104.45,2.5,39-24.49,63.47-91,51.48-140.94C454,574.51,427,540.52,392,517l-22-15.49L362,522c-4.25,10.74-8,16.71-7,23.5-6.49-4-8.83-3.24-13.31-7.46-2-4.5-5.69-9.54-11.19-8-1.25.37-8.82,4.83-16.36,5.86,2.59-6.07,5.23-6.25,4.92-12.3-4,5.15-15.63,5.79-30.65,7.38,11.75-6.72,9.52-8,10.39-13.69-4.49,5.08-15.72,8.25-28.7,10.59,6.69-7,5.55-9.14,6.2-15.51-6.58,6.47-22.62,10.09-28.56,9.71,5.21-6.06,5.29-6,5.19-13.47-5.85,4.59-16.65,3.94-26.31,2.23a29.85,29.85,0,0,0,8.12-18.75c-7.83,7.28-20.66,5.71-29,4.32,6.56-5.83,10.54-9.11,12.58-12.76,2.37-4.59.77-6.09-7.22-6.09-5.5,0-9.31,3.52-17.42.42,11.77-4.65,15-19.69,17.6-20,10.53-1.21-14.64,19.15,7.89,14.87a51.66,51.66,0,0,1,12.36-.48,87.54,87.54,0,0,1-5.94,7.68c-2.83,4.17-3.39,9.6-10.08,13.11,5.68,0,10.32.55,14.08-2.43s3.8-4.2,11.73-9.91c1.08,6,.55,7.17,0,11.14-1,6.85-2.33,8.66-4.4,14.08,8.61,2,13.9-.72,15.41-4.44,2.24-2.34,5.46-8.32,9.87-9.53,1.79,5.38-.12,5.59-.77,10.16-1.88,5.13-2.35,8.78-4,13.6,8.74-2.49,14.11-5.64,19.64-12.29,9.49-8,9.49-8,6.49,2.5-1.23,7-.93,8.56-3.47,14.6,8.41-1.47,16.22-5.36,20.47-12.1,5-7.5,5.49-7,3.5,2.49-.29,6.39.82,7.43-.75,13.61,7.64-1.62,13.24-4.61,17.24-11.11,5-7.49,5.5-7,3.5,2.5-1.25,6,1,7.24-2.5,13.49,8.63-3.68,9-2.74,12-7.49,2-4,5.3,1.34,9.3,8.84,3.24,5.74,5.88,6.18,8.3,6.46.6-4.38,2.39-7.3,6.39-16.8,4.5-11,7.5-20,7-21-1-.5-13.5-7-27.49-14.49-14.49-7-26.49-15-26.49-18,0-2.49-2.5-4.49-6-4.49-8,0-29-20-29-27.49,0-3.5-4.5-12-10-18.49-7.49-10-16-13.5-38.48-16-15.9-2.81-29.24-7-37.48-11.49-4.13-2.16-4.69-4-7.86-5.22-.13,2.63,1.61,10.72,7.36,16.21,3.24,3.5,6.57,4.26,9.53,6.09-2.78,2.83-4.79,8.16-7,11.91-5,8-5,10.49,2,13,6.5,2.5,6.5,4,1,7.5-2.25,1.75-5.63,2.95-8,4.48,3.71.92,6.62,1.15,13.7-.66,9-5.45,9.69-3.84,5.8,1.67-3.19,4.81-5.34,10.18-10,13.92,5.31.28,7.73-.67,12.48-2.42,5-2,9.23-3.34,5.79,4.42-3.26,5.42-1.46-2.92-4.56,4.24-5.33,1-17.45-.25-26.31-2.39,8-4.37,10.89-7.79,11.89-10,1.5-4.5-2.81-4.23-6.8-4.23-1.75,0-7.54.7-11.86-4.09,3.59-2,9.05-3.72,12.34-7.85-10.25-5.9-4.3-14.86-1.91-19.11,2-3.4,2.14-5.2,4.44-8.73-3.16-.23-7.76-6.2-10-10.2-4.75-8.49-6.81-16.56-6.12-23.51,6.77,5.22,9.4,6.91,13.62,9,7.16,4.28,22.52,9.66,36.1,11.72s25.37,1.78,25.37-3.21S256,387,252.05,383c-7.36-7.48-11.32-14.2-13.61-20.82-4.28-5.19-9.69-5.57-16.86-5.65-3.8,2-11.22,3.81-14.65,8.76-3.22-1.54-4.88-11.47-3.25-16.19.7-2,9-5.92,13.65-6.08s7.14,1.16,11.25-.58c-4.84-1.39-7.48-1.31-12.52-3.82-4.49-2.24-8.83-3.56-8.24-6.41.72-3.52,25.51-1.12,29-1,2.88.12-5.42-3.32-11.53-4.09-4-1.44-13-.88-22-7.59,6.67-4.29,10.19-2.48,15.66-4.5m20.59.82c-2,4.24-26.11,3.08-19.41,4.84,0,0,18.62,3.43,24.78,8.71,1.09,4.68-5.41,6.76-5.41,6.76l-23.6-2.52c-.26,3.23,22.94,4.45,22.14,9.31-.25,1.57,1.29,4.53-6.43,3.66-7,.32-15.66-.4-20.88,2.3-3.79,1.89-4.24,6.1-3.05,9.7,3.43-2.8,8.89-5.11,11.89-6.11A27.64,27.64,0,0,1,235,354.86c4.33,1.85,7.34,3.84,11.1,11.24,2.5,6.5,10.5,14,18,17,8,2.5,20.78,9.34,26.49,17,6.34,8.48,11.07,15.35,26.33,24.17,15,13.5,2,8.7,8.47,9.68,17.2,2.65,26.67,6.64,29.67,10.63,3.5,4,11.5,8.5,18,10,7,2,12.49,5.5,12.49,8,0,3,3.5,5,8,5,11,0,60,51.48,69,72,17,38.49,20,52.48,20,90-.5,25-3.5,47.48-8,58-10,23.49-52.62,70.68-64.11,70.68a17.49,17.49,0,0,1-3.63.76c-1.1,1.65-1.73,1.81-5.64,3.63-5.67,2.84-12.95,4.22-21.82,4.48s-19.34-.63-31.4-2.32-23.9-4.19-32.71-7.12-12.06-4.5-14.61-7.2c-.77-.81-2.8-1.86-2.46-5.37-1.81,1.66-6,1.26-11.06-3.29-4.09-3.7-8-5.43-6-9.15-5.41-.56-6.33-2.86-10.6-8.85-2.8-3.94-6-7.42-4.62-13-3.72.74-5.57-4.48-7.7-9.41-1.88-4.33-5.21-10.22-1.06-12.36-4.77.12-3.88-5.71-4.46-9.77s-1.77-10.36,3-11.46c-4.93-1.56-2.82-6.65-2.08-11.22,1-6.4,1.63-9.86,5.72-10.71-3.65-1.64-1.43-7.65,1-15.85,1.93-6.57,6.36-9,11.45-7.88-4.87-3.72,4-9.78,5.94-11.37,5.31-4.44,11.35-6.08,12.54-3.2-.51-5.4,18.33-5.87,25.53-5.06S329.26,606.49,336,612c10.5,8.5,11,11,5.5,20-6.5,11.5-1.5,14,8,4.5,10-10,7-22.49-7.5-34-11-9-18.49-10.49-37.48-9-33.49,3.5-47,14-56.48,45-15,51.48,5.5,102.45,50.48,124.44,20,9.5,32,12,64.47,12,47.48-.5,77-12,104.45-42.48,17-18.49,36-66.8,30-75.8-9.76-4.15,0-4.17,3-4.17,4,0,5.5-20.71-1.95-24.47,14.86.06,7-18.51-1.95-22.16,8-.19,12-8,12.2-16.3s-3.24-17-10.13-19c-5.19-1.51-.41-2.89,4.46-4,5.81-1.32,8.05-2.19,7.33-12.54-.86-6.79-3.25-18.13-8.17-20.22s-12.94-2.78-17.34-3.17a66.86,66.86,0,0,1,14.55-3.06c9-3.75,12-21.94,3.94-27s-28.45,4.92-29.52.79c4-4.35,16.27-5.41,21.73-9.38,6.68-6.58,12.85-12.85,1.85-28.34-5.5-8.5-4.62-10.61-11-12.95-8.44-.35-26.53,11-40.38,10.57,6.35-5.28,27.91-9.51,34.79-14.5s1.66-12.74-5.41-21.61c-8.5-7.49-12-8-23-3-7.5,3-19.36,6.12-32.22,8.28,5-5.15,27.72-10.78,32.72-14.77,9.5-7,9.5-9.93.5-19.93L440,390.12l-15,8c-11,5-28,10.93-28,9.44,0-1,15.52-7.94,23.51-12.43,8.5-4.5,13.68-11,13.68-14.5,0-12.49-11.53-14.15-29.2-1.84-9,5.25-31.46,12.1-32.8,9.57-1.66-3.13,15.06-6.2,23.34-10.23,8.21-4.68,23.64-12.37,23.64-16.37-2-6.78-11.15-11.61-50.63-16.11-29.49-3.5-45-13-58-34.49-16-26-13-48.48,8.5-69l18-17-10.49,16c-19.5,28-10,61.48,17.49,61.48,6.5,0,16,2.49,21,6,7,4,13.09,3.14,19,1.41l9.55-2.81,3.31-.72L383,297.13c-15.49-7.5-22-22-13.49-30.49,3-3,4,0,2.5,8-2,9.49,0,14,7,16.49,5,2.5,15,8,21.49,13C422,319.62,451,337.61,454,337.61c1.5,0-1-5-6.5-11.49-5.5-6-2.5-5,6.5,3.49,13.49,12,17.49,13.5,24,8,11-9,9.49-13-9.5-25a51.73,51.73,0,0,1-23.49-29c-3-10-8-21-10-24-3-3.49-1.5-8,3-12,4.24-3.5,8.49-11.62,8-14.6a16.34,16.34,0,0,0-5.54,2.11c-2.5,1.49-5-.5-5-5,0-2.25,1.73-10.77,1.26-12.86-1.18,2.16-4.76,7.11-6.26,7.86-2.5,1.5-5.5,0-5.5-3.5-.75-7.25-1.68-9.37-2.3-12.78-1,1.87-6.2,9.34-8.55,11.13,2-5.51.42-23.22-.44-24.87-.14,4.75-2.82,13.18-3.62,16.23-5.31,7.48-6.6,9.12-12.57,10.93-5.06.18-7.5-1.89-14.5-10.13-7-8.5-11.28-14.87-11.68-19.2,0-4.5,14.82-22.29,32.38-29,7.44-2.7,8.45-3.47,13-4.68-1.24-.28-3.06-2-8.49-3-2.84-.53-14.35-.49-21.77,3-6.64,2.13-22,8.69-29,15.69-3.79.63.51-12.13-3.92-10.29s-2.68,15.14-6.41,17.13c-5.61,3-6.52-6.82-9-6.82-2.5.25,2,11.64-2.63,14.3-3,1.74-13.56-11.17-14.81-9.18-.92,1.56,8.12,12.24,5.68,13.83-3,2.37-2.72,5.55-9.38,2.91-5.46-2.75-29.58-17.89-35.79-17.46,5.77,3.78,10.25,8.38,16.5,14.09,10,10.49,12.82,11.8,4.82,13-7.43-1.22-9.26-3.47-12.93-1-1.83,1.24,1.68,10.7-.8,12.22s-11-1.82-12-.83c-3.82,3.93,3,9.21.71,15-3,8.49-4.49,8.49-14.49,1.5-8-5.75-18.22-9.86-18.52-7.69-.41,2.86,2,4.19,6.53,10.68,14.49,20.49,10.49,24.49-18,21.49,0,0-23.19-6.76-30.14,3.84,6.86-1.29,23.3,2,27.69,3.89a66,66,0,0,1,12,7.64c2.22,1.76.93,3.15-.41,7.05a42.62,42.62,0,0,1-17,2.68c18.55,7.47,16.89,1.29,23.62,5-4.83,8-8.68,7.38-25.2,9.69-4.09,2-8.05,2.88-12.54,4.13s-7.49,4.84-6.35,5.25,5.68-.74,10.77-1.24c6,.08,2.89,0,16.27,1.4,6.26,1.53,9.06,6.12,7.85,8.63Z" />
                    <path id="path3359" class="cls-3"
                        d="M218.76,651.14c0,.26-.41.47-.93.47s-.93-.21-.93-.47.41-.47.93-.47.93.21.93.46" />
                    <path id="path2921"
                        d="M409.62,265.79c0,2.92-1.7,5.29-3.79,5.29s-3.79-2.37-3.79-5.29,1.7-5.28,3.79-5.28,3.72,2.25,3.79,5.1" />
                    <path id="path1306" class="cls-8"
                        d="M417.23,269.69a12.32,12.32,0,0,1-15.73,6.8,11.63,11.63,0,0,1-7.05-15.17,12.33,12.33,0,0,1,15.74-6.8,11.63,11.63,0,0,1,7.05,15.15" />
                    <path id="path1302" class="cls-8"
                        d="M373.14,250c15.78-8.32,37.58,4.58,37.58,4.58" />
                    <path id="path1303" class="cls-9" fill="#dfdfdf" 
                        d="M254.87,393.3c-.56-2.69.66-4,5-6.8,5.35.66,14.66,4.47,20.56,9.7,10,8.89,11.57,12.21,17.23,19.82-2.31,4.58-3.81,5.56-8.19,9.83A88.72,88.72,0,0,1,279.36,432c-2.41-7.48-5.34-11.18-12-19.77-3.11-4.75-12.32-8.37-17-11.89C251.36,396.59,253.21,396.3,254.87,393.3Z" />
                    <path id="path2821" class="cls-9"
                        d="M292.45,428.58c4.6-3,5.82-7.17,9-9.09,4.21,1.81,3.12,2.33,10,5.68,7.34,4.64,4.68,3.6,10.34,11.22a67.88,67.88,0,0,1-7,11.54c-3.88,3.49-3.93,6.12-7.52,10.43-6.72-1.74-11.09-4.29-16.31-10.3-3.69-4.47-8-4.65-9.83-12.18C285.79,432.73,289.64,431.29,292.45,428.58Z" />
                    <path id="path2823" class="cls-9"
                        d="M318.55,449.8c3.45-4.69,4.1-8,7-11.38a78,78,0,0,1,15.1,3.38c8.21,1.78,9.28,4.47,13.51,8.93-2.31,4.57-2.67,10.44-4.47,18.72a58.22,58.22,0,0,1-4.94,14.16,113.44,113.44,0,0,1-17.46-9.16c-6-3.61-11.75-7.23-14.41-14.76,3-5.44,2.85-7.17,5.66-9.89Z" />
                    <path id="path2825" class="cls-9"
                        d="M354.41,472.18c1.44-6.41,1.23-13.19,4.42-18.27,5.07.66,4.26,2.33,10.23,4.25,6.2,2.63,10.43,3.31,13.79,10.07-5.46,5.15-6.68,4.41-8.48,12.69-1.29,5.78,1.24,13.86-1.21,19-6.71-2.89-7.35-4.58-13.15-8.3-6-3.61-6.59-2.06-10.4-5.87,2.15-6.59,3.42-9.75,4.8-13.61Z" />
                    <path id="path1300" class="cls-9"
                        d="M379.08,481.36c2.87-5.84,4.1-7.17,7.29-9.95,5.93,2.38,8.56.89,14.25,6,5.33,3.78,16.44,13.08,20.67,17.54-4,2-7.79,3.36-12.49,9.53s-3.36,7.84-6.09,14.74c-5-3.18-7.36-4.87-12-7.73-4.84-4.47-6.88-5.79-12.41-9.6,2.16-6.3,0-15.48.79-20.49Z" />
                    <path id="path1304" class="cls-9"
                        d="M412.06,508.32c2.88-5.84,7-6.88,10.17-9.66,5.92,2.38,8.27,7.49,13.95,12.56,7.06,7.8,8.13,9.06,11.5,13.8-5.18,2.57-6.65,2.8-11.35,7-4.86,4.31-6.22,4.4-9.53,8.14a98.46,98.46,0,0,0-7.7-8.3c-4.84-4.47-5.45-4.36-11.84-10.17A83.45,83.45,0,0,1,412.06,508.32Z" />
                    <path id="path1307" class="cls-9"
                        d="M439.6,536.15c3.45-2.69,6.68-4.59,9.59-6.51,2.77,3.24,5.41,5.77,7.07,9.41,2.76,3.49,3,4.18,5.19,8.92-5.18,2.57-4.64,1.94-8.48,3.8s-5.36,3.82-9.82,6.7c-3.56-4-1-2.57-5.7-7.15-2.25-2.74-3.43-4.93-6.95-8.45,5-4.29,5.72-4.87,9.1-6.72Z" />
                    <path id="path1309" class="cls-9"
                        d="M453.23,556.37c4.17-2,6-3,9.44-4.5,2.34,4.39,3,5,4.64,8.69,1,3.06,1.82,4.61,3.61,9.64-3.89,1.42-5.07,1.79-7.62,2.94s-5.36,2.82-8.39,4.55c-2.84-5.33-2.76-4.15-4.4-7.29s-2.58-3.93-5.38-8C449.29,559.23,450.56,558.08,453.23,556.37Z" />
                    <path id="path1311" class="cls-9"
                        d="M463.57,577.06c4.17-2,4.14-1.49,7.62-3,2.34,4.39,4,12.15,5.25,16.91a138.67,138.67,0,0,1,2,18c-3.68.71-2.16.28-5.39.92a24.88,24.88,0,0,0-6.8,2.18c-1-7.15-1.9-11.1-3.76-16-1.23-3.44-3.79-11.23-6.59-15.32C459.43,578.81,460.91,578.77,463.57,577.06Z" />
                    <path id="path1313" class="cls-9"
                        d="M472.6,614.08a34.08,34.08,0,0,1,5.38-.75,188.07,188.07,0,0,1,.28,21c-.69,9.76-.82,17.69-2.37,27.59-1.77-.51-2.17-1-5.39-1.21a34.61,34.61,0,0,0-6.36,0c2.33-9.28,2.41-12.47,3.1-23.52a153.21,153.21,0,0,0-.43-21.09c2.54-.82,3.63-1.37,5.79-2Z" />
                    <path id="path1315" class="cls-9"
                        d="M468.13,665.19c1.29-.3,4.5.08,7.22-.14-2.93,16.46-5.35,22.6-10.88,32.73-6.58,9.55-13,18.5-21.44,27.59a22.59,22.59,0,0,1-2.75-2.64c-1-.92-1.77-1.2-2.91-2.24C447,707.75,448.7,704,454.46,692.3c4.75-11.65,5.54-14.84,8.7-27.58,2.54,1,2.82,1.06,5,.47Z" />
                    <path id="path1317" class="cls-9"
                        d="M437.91,725.43c1.65,1.06.84.69,3.36,2.29-3.94,4.7-6.76,7.39-14.12,14.68-5.56,4.08-7.23,7.64-18.61,12.23a18,18,0,0,1-2.07-2.7,11.07,11.07,0,0,1-1.62-3,44.69,44.69,0,0,0,17-10.17c7.18-6.18,9-9,13.77-15a13.3,13.3,0,0,1,2.33,1.68Z" />
                    <path id="path1319" class="cls-9"
                        d="M402,753.61c.91,1.44.57,1.85,1.42,3.54-5.17,3.07-6.32,3.33-19,5.8-15.56.53-22.12.16-29.42-.83a33,33,0,0,0,.37-4c.08-1.74-.14-1.18,0-3,14.55,1,19,0,24.73-.38a115.29,115.29,0,0,0,20.62-4c1.11,2,1,1.49,1.28,2.9Z" />
                    <path id="path1321" class="cls-9"
                        d="M351.17,758.48c-.31,1.54-.24,1-.71,3.23-12.06-2.1-12.3-1.84-26.89-4.84-11-3.13-14.63-5.5-21.43-9.12-.49-2.4-.35-2.11.19-3.11.72-1.32.18-.9,1.81-1.89,8.09,4.85,16.75,6.28,21.39,7.83a225.36,225.36,0,0,0,25.89,3.89c-.11,2.11-.13,2.6-.25,4Z" />
                    <path id="path1323" class="cls-9"
                        d="M299.05,741.54c-1.83,1.39-2,2-4.27,1.71-3.76-.52-4.24-1.58-7.85-4.53-1.77-1.44-4.51-4.24-4-5.24.72-1.32,1.94-5.28,3.53-2.7,1.4,2.26,7.35,5.75,10.88,8.17C300.17,740.88,299.76,741,299.05,741.54Z" />
                    <path id="path1325" class="cls-9"
                        d="M281,729.17c-2.13.68-1.6,1.1-3.35-.42-1.42-1.23-2.41-3.31-5-6.35-1.48-1.74-4.44-6.75-4.58-7.88-.39-3.25,1.42-5.39,2.83-2.7A49.49,49.49,0,0,0,281,725.66c2.52,2.3.81,3.24-.05,3.51Z" />
                    <path id="path1327" class="cls-9"
                        d="M268,708.28c-2.13.67-1.9,1.1-3.66-.42-1.42-1.23-2.84-4.44-4.5-8.08-1-2.15-3.13-5.36-2.34-7.47.87-2.36,3.95-4,4.75-1.08,1.44,5.21,1.91,5.28,4.38,11.41C267.59,705,268.86,708,268,708.28Z" />
                    <path id="path1329" class="cls-9"
                        d="M261,686.07c-.84,1.61-2.38,1.41-4.88.29-2-.91-1.26-4.09-1.56-8.08-.16-2.15-.6-4.14,0-7,.5-2.46,5.14-3.35,5.45-.36.23,2.17-.09,3.43.33,7.15.68,6,1.32,6.72.67,8Z" />
                    <path id="path1331" class="cls-9"
                        d="M259.19,665.08c-.49,1.35-2.48.9-3.66-.53-1.41-1.7.26-4.69.37-8.08a18.86,18.86,0,0,1,1.81-7c.71-1.65,3.28-1.85,3.33,1.15,0,1.46-.39,3.37-.79,6.55-.44,3.49-.28,5.7-1.06,7.87Z" />
                    <path id="path1333" class="cls-9"
                        d="M262.74,643.88c-.49,1.36-2.65.07-3.05-1.74-.6-2.71,1.29-5.71,2.09-9,.68-2.76,1.92-6,4.14-7.88,1.63-1.34,4.57-2.08,3.94.85-.48,2.27-3.74,6.61-4.84,10.3-1,3.37-1.5,5.29-2.28,7.46Z" />
                    <path id="path1335" class="cls-9"
                        d="M276,619.64c-1.44.06-3.11.46-2.64-1.33.42-1.6,2-2.39,4.93-4.73a45.58,45.58,0,0,1,5.67-4.13c1.72-.85,5.09-1.92,3.93.85-.48,1.16-2,1.64-4.74,3.5-2.91,2-6.17,5.8-7.15,5.84Z" />
                </g>
                <g id="g1497">
                    <g id="g1499">
                        <path id="path1501" class="cls-7"
                            d="M1100.83,156.4c11.53,1.63,20.21,4.79,31.82,11.78,3.74,2.27,7.23,3.89,7.88,3.65s1.38-2.19,1.7-4.55a16.18,16.18,0,0,1,1.63-5.44c1.62-2.27,3.16-.4,6.17,7.23a56.3,56.3,0,0,0,3.33,7.63c1.46,1.79,3.41,1.14,5.76-1.78s5.93-3.9,6.74-1.71c.24.65.08,3.25-.41,5.85-1.46,7.63.9,8.76,7.55,3.65,5.77-4.47,8-5.36,10.15-4.22s2.2,2.92-.73,9.66c-2.51,5.84-2.68,10.07-.24,6.66.65-.9,3.65-2.93,6.74-4.39s7.87-4.06,10.71-5.68a89.07,89.07,0,0,1,8.69-4.14c3.57-1.22,22.9-4.06,24.52-3.49.49.16-2.19,2.35-5.85,4.95-8,5.52-23.46,19.65-23.46,21.43,0,1.06.89,1.22,6.5.73,7.38-.65,7.22-.89,5.6,6.82-.57,2.68-.65,4.47-.16,5s3,.32,6.82-.49c3.32-.65,6.25-1.22,6.57-1.22,1.22,0,.65,6.42-1,11.85-1.63,5.12-1.63,5.61-.33,6.5,1.63,1.22,3.49.65,15.83-5,7.31-3.41,9.18-4,13.16-3.82a19.26,19.26,0,0,1,6.73,1.3l2.28,1.14-5.28,5.68c-6.25,6.82-12.58,15.91-13.56,19.57-1.78,6.08,4.22,7.14,24.44,4.54,11-1.46,18.51-1.22,22.16.73,2.85,1.46,12.59,10.56,12.59,11.78,0,.4-4.71,1-10.47,1.21-12.1.49-20.87,2.6-28.1,6.58-6.82,3.73-6.65,4.55.73,4.55,6.18,0,9.75,1,13,3.57,1.55,1.22,1.55,1.3,0,3-2.35,2.6-6.9,4.63-12.5,5.52-2.84.49-5.28,1-5.44,1.22s2.36.73,5.6,1.22c8.45,1.38,20.3,4.87,26.07,7.79,5.19,2.6,5.44,2.93,6.49,10.48l.49,3.08-2.6-.57c-4.06-.89-25-1.38-28.42-.65-5.19,1.14-3.73,2.28,4.31,3.25,10.06,1.22,15.75,2.35,18.43,3.74l2.11,1.13-4.39,2.11a61.92,61.92,0,0,1-12.5,3.82c-19,3.9-21.35,6.09-5.44,5.28,13.07-.65,18.27-.17,17.86,1.86-.4,2.28-8.44,6.17-16.8,8.28-5.12,1.3-3.17,2.28,5.19,2.6,7.55.25,13.24,2.19,15.59,5.36,1.87,2.36.73,13.07-1.46,14.45a2.37,2.37,0,0,1-2.19-.73c-.73-.73-4.06-2.52-7.39-4.14-6.25-3-6.33-3-15.26-1.62-3.82.57-7.15,3.73-10,9.58a64.43,64.43,0,0,1-6.33,9.74c-2.11,2.6-4.55,5.6-5.36,6.66-1.54,1.86-1.54,2,.16,5.36.89,1.94,1.87,4.14,2.11,4.87,1.46,5,26.31,3.33,45.87-3.17,7.8-2.6,19.33-8.28,24.52-12.1l4-2.92v3.17c0,7.79-6.09,21-12.18,26.46l-3.9,3.5,4,7.63c5,9.5,5.28,13.15,1.46,17-1.38,1.46-2.35,3.08-2,3.73s2.36,2.27,4.71,3.57c7.31,4.14,7,3.74,4,5.28-1.46.81-5.44,1.62-8.69,1.87-3.57.32-6.41.89-6.9,1.54-2,2.44,2.2,7.79,9.5,12.18,1.22.73.33,1.05-4.95,1.86-3.57.49-8.77,1-11.53,1.06l-5,.16,1.7,3.09a29.36,29.36,0,0,0,9,9.58l2.28,1.46-2.52.32a24.15,24.15,0,0,1-6.33-.24c-6.09-1-13.48-.81-15.1.33-2.52,1.86-.41,6.08,5.92,12.17l5.52,5.36-3.57.57c-6.74,1-15.26-.08-19.81-2.44-2.35-1.13-4.38-2-4.54-1.86-1.14,1.22,3.24,13,6.09,16.23.64.74,1,1.63.64,2s-4.7.57-9.66.57c-7.06,0-9.74-.32-11.85-1.46a31.24,31.24,0,0,0-3.09-1.38,19.17,19.17,0,0,0-.24,3.82,9.5,9.5,0,0,0,2.11,6.49l2,2.68h-2.27c-5.28-.08-17.78-4.14-22.25-7.39-2.92-2-3.16-2-3.16,1.06.08,3.41,1.86,8.36,3.73,10.47,1.71,2,1.3,2-6.66-.08-7.14-1.79-13.47-4.3-16.72-6.58-3-2.19-3.33-1.94-2.68,1.47.73,4.06,2.27,6.41,5.36,8,1.38.65,2.35,1.47,2.11,1.63-.65.73-17.78-2-21.68-3.33a17.79,17.79,0,0,1-5-2.6c-1.38-1.22-1.46-1.22-1.46.73a16.58,16.58,0,0,0,2,5.85,31,31,0,0,1,2,4.22c0,.65-4.47-.73-9.67-3-2.84-1.29-6.17-2.35-7.38-2.35-2.76,0-6,2.52-8.53,6.5-1.38,2.19-3.49,3.81-7.55,5.84l-5.68,2.84-.33-3.33c-.4-3-13.8-38.24-15.1-39.62-.57-.56-16.88,10.64-32.63,22.33-9.5,7.06-31.34,28.74-37.76,37.51-17.62,24-23.38,40.59-23.46,67.39,0,14.77,1,22.65,4.38,36.85,7.47,30.37,24.85,59.27,44.58,73.89,13,9.66,28.33,12.9,56.91,12,34.58-1.05,56.18-8.28,72.17-24,11.86-11.69,19.65-27,22.9-44.81a127.21,127.21,0,0,0,.89-15.84c0-19.81-4.46-33.53-14.21-44-8.44-9-17.45-14-29-15.75-11-1.71-23.46,1.95-31.18,9-5.35,4.95-5.6,7.31-1.38,15.75,3.74,7.55,4.06,9.5,1.71,11.86-2.19,2.19-6.74,2.11-11.94-.41-7.55-3.49-11.28-12-10.63-23.87.65-10.64,5.6-17.54,16.8-23.22,10.88-5.44,16.4-6.49,33.37-6.41,14.05,0,15.51.16,22.33,2.27,13.64,4.14,21.92,9.66,28.33,18.59,14.62,20.62,22.66,56,18,78.92-3.66,17.45-13.4,36.37-27,52-22.89,26.46-53.26,38.56-96.85,38.56-32.32,0-55.21-6.17-78-21-25.33-16.4-41.73-37.67-55.61-72-3.73-9.42-5.19-15.26-5.84-23.38-.25-4-.9-7.23-1.63-8-3.25-3.73-4.38-14.37-2.35-21.27l1.22-3.9-2.52-2.19c-4.47-4-4-12.58,1-18.35l2.36-2.68-2.68-2.68c-3.49-3.57-5-10.31-4.39-19.24.41-6.17,3.17-14.77,4.71-14.77s.57-2.2-1.78-3.58c-3.66-2.19-5.6-5.84-5.6-10.71,0-9.83,4.06-24.93,7.06-26.06,1.22-.49,1.46-2.68.32-2.68-1.86,0-4.38-7.64-4.79-14.54-.48-8.68,1.22-15.34,4.79-18.91l2.36-2.44-2.52-5.19c-2.19-4.47-2.52-5.77-2.11-9.5.89-8.61,10.39-24.52,17.54-29.23,2.6-1.71,3.33-2.68,3.33-4.55,0-5.44,4.46-13.47,11.93-21.51,7.79-8.28,10.31-12,11.94-17.86,1.13-3.74,2.35-5.69,5.76-9.1,4-4,12.42-9,17.45-10.31a2.12,2.12,0,0,0,1.63-2.35c.08-5.2,6.49-13.89,12.18-16.48,2.84-1.3,3.24-1.79,3.24-4.14,0-3.33,2.76-6.66,9.26-11.13,6.17-4.14,15.91-6.65,30.93-7.95,31.58-2.6,45.63-7.88,60.49-22.65,9-8.94,12.5-14.94,15.75-26.8,2.68-9.82,2.84-19,.4-26.14-1.7-5-7.14-15.26-8.11-15.26-.33,0,.16,2.68,1,5.84,2.11,7.72,2.36,20.38.41,26.55-2.68,8.61-8,15-15.35,18.84-5,2.6-7.47,3.16-16.07,4-8.93.81-14.94,2.59-17.86,5.27-4.39,4.06-14.21,4.55-23.63,1.3a45.71,45.71,0,0,0-10.15-2.11l-5.84-.57-7.55,5.28c-7.8,5.36-41.49,24.36-47.42,26.71-10.8,4.3-23,1.3-28.09-6.9-4.14-6.58-.41-12.75,17.21-28.66,14.29-12.83,17.7-17.21,19.57-24.68a102.43,102.43,0,0,1,5.93-15.26c5.92-12.75,6-14.94.4-20.79-2.19-2.35-4.63-5.6-5.28-7.31-1.3-3-1.86-9.82-1-10.79.49-.41,5.93.73,8.77,1.78.89.33,1.05-.89.81-6.49-.16-4.39.16-7.88.73-9.42l1.06-2.44,2.92,2.85c3,2.92,5.19,3.65,6.17,2.11a29.4,29.4,0,0,0,1.22-5.2c.81-5.11,4.06-13.07,4.87-12.1a17,17,0,0,1,1.62,3.66c.49,1.7,1.22,3.08,1.63,3.08s.89-1.95,1.21-4.3c.9-7,1.87-9.91,4.06-11.94,1.79-1.7,2.28-1.78,2.84-.81a7.29,7.29,0,0,1,.82,3.25c0,3.57,2.27,10.8,5.27,16.89,5.85,11.69,11.37,10.55,22.74-4.47,6.49-8.6,7.47-11.28,5.68-15.18-4.3-9.09-22.33-21.35-39.3-26.63-3.16-1-5.76-2-5.76-2.35,0-1.55,4.06-5.2,7.63-6.91C1089.38,155.92,1094.09,155.51,1100.83,156.4Z" />
                    </g>
                    <path id="path1503"
                        d="M1268.56,317.76c-5.16-2.87,19.85-2.42,25.14-2.36,3.58,1.08,6.87,2.64,8,2.13s.22-4.51-.9-11.31a33.2,33.2,0,0,0-12.35-6.22c-4.14-1.47-7.79-2.43-12.51-3.94-4.53-.54-6-.33-12.43-1.74,7.55-1.2,12.92-.28,20.43-8.19-3-1.82-4.23-4.13-7.88-5a29.28,29.28,0,0,0-7.94-.66c-5.74,0-7.42,1.05-3.58-1.72s11.19-5.92,19.44-7.42c7.25-1.25,18.24-1.29,23.54-1.5-2.43-4.81-7-7.62-9.71-10.62-4.49-5.5-14.83-5.37-30.32-2.87-24.49,3-26,0-10.5-19.5l9.85-10.83-6.25-2.48-6.82-.19c-6.5,1.5-14.77,6.51-19.77,8.51-8,3.5-7.56.2-5.06-6.3,2-5.49.55-5.46,1.32-11.55-4,0-14.54,4-14.54,1.5,0-3,1.38-5,2.16-11.9-3.5,0-11.34.94-13.07.57s2.4-4.35,6.61-8.12l10.81-9.69L1237.49,176l-22.68,2.84c-7,0-18.06,7.6-23.94,10.66-2.93,1.53-5.72,2-7.48,3.86-4,1.5.81,5.5-2.12,1.81-1.49-2.68,5.42-10.6,4.48-14.74-5-9.45-16.06,7.85-18.47,5.05-4.62-.5,2.26-11.26-1.4-13.45-5.24-3.11-8.22,7.59-11,5.7s-4.64-15.61-9.1-17.33-2.63,14-5.63,11.87c-6.5-4.5-20.56-13.32-32.13-14.93-5.78-.8-12.52-2.46-18.22-1.43s-11.09,5-12.64,9.74c7.68,2.24,8.89,2.45,16.89,5.94,8,3,18.49,10.5,23.49,15.5,8.5,9.49,8.5,10.49-1,22.49-12,16.49-18,15.49-24.49-3.5-2.75-7.5-1.89-12.26-3.2-14.81-.75.55-3.49,1.68-5.13,4.25-1.44,2.26-2.73,12.21-2.71,14.8-1.21-.73-2.33-4-3.45-9.24a78,78,0,0,0-4.87,10.45c-1,2.75-.13,10-3.13,10-1.75,0-3.87-3.37-7.6-6.67-3.21,6-2.75,13.59-1.47,19.31-2.52-.82-7.68-2.58-10.19-2.81a21.36,21.36,0,0,0-.12,9.37c1.82,3.92,2.39,7.29,6.39,10.29,6,5,6,8,0,19.49-4,7.5-7,16-7,19.49,0,3-9,13-20.49,22.49-14,12-19,19.49-17,25,5,12,20.49,15.5,34.48,8,6.5-3.5,21-11.5,32.49-18,7.74-4.25,12.84-8.88,17.57-11.85,7.59-.11,13.38.59,19.91,3.85,10,1.5,18,.5,20-2.5s10-5.5,17.49-5.5c20,0,33.08-13.22,33.86-32.58.31-8.41-.83-13.72-3.62-23.2,11,17.43,11.68,25.46,7.72,40.84-4.78,21.45-27,48.93-75.94,49.43-9.25.25-17,2.87-25.74,4.62-5.58,3.31-17.51,9.65-15.09,17.6-9.07,2.41-15.29,11.82-15.42,19.53-22.27,6.66-25.21,19.72-25.21,22.22s-5.5,10-12.5,16.49-11.63,17-10.77,22.8c-7.75,4-10.52,9.84-15.24,16.19-4,8.1-10.64,18.19-.83,30.32-10.27,3.81-9.82,32.89-1.62,37.1-6,4.14-7.33,14.26-8.61,28-.06,4.64,1.44,8.79,8.8,12.45-2,1-3.52,3.71-4.59,7.26a44,44,0,0,0-1.64,12.26,35.07,35.07,0,0,0,1.85,11.92c1.26,3.32,3.19,5.7,5.88,6.23-9.17,6-8.95,21.83-1,23.46-4.43,8.09-3,24,2.61,27.11-1.24,16.31,5.23,27.88,8.65,36.5,6.84,17.25,15.85,31.86,27.15,44.14a136.76,136.76,0,0,0,40.88,30.08c35,17,94.46,16.49,128.44-1,30-15.49,54.48-49,59.48-81.46,4.49-29-9.5-71.47-27.49-85-28.49-21-84-14-92,11.5-4,13,1,28.49,10.49,32,12.5,4.49,17.5-1.5,10.5-12.5-5-8.5-4.5-11,3.5-17.49,24-17.49,60-2,68.47,29,10.49,40-6,80.46-39.49,97-28,14-84.46,15-104.45,2.5-39-24.49-63.47-91-51.48-140.94,6.5-27.48,33.49-61.47,68.47-85l22-15.49,8,20.49c4.25,10.74,8,16.71,7,23.5,6.49-4,8.83-3.25,13.31-7.46,2-4.5,5.69-9.54,11.19-8,1.25.37,8.82,4.83,16.36,5.86-2.59-6.08-5.23-6.25-4.92-12.3,4,5.15,15.63,5.79,30.65,7.38-11.75-6.72-9.52-8-10.39-13.7,4.49,5.09,15.72,8.26,28.7,10.6-6.69-7-5.55-9.15-6.2-15.51,6.58,6.47,22.62,10.09,28.56,9.71-5.21-6.06-5.29-6-5.19-13.47,5.85,4.58,16.65,3.94,26.31,2.23a29.85,29.85,0,0,1-8.12-18.75c7.83,7.28,20.66,5.71,29,4.32-6.56-5.83-10.54-9.11-12.58-12.76-2.37-4.59-.77-6.09,7.22-6.09,5.5,0,9.31,3.52,17.42.42-11.77-4.65-15-19.69-17.6-20-10.53-1.21,14.64,19.15-7.89,14.86a52.12,52.12,0,0,0-12.36-.47,87.54,87.54,0,0,0,5.94,7.68c2.83,4.17,3.39,9.6,10.08,13.11-5.68,0-10.32.55-14.08-2.43s-3.8-4.2-11.73-9.91c-1.08,6-.55,7.17,0,11.14,1,6.85,2.33,8.66,4.4,14.08-8.61,2-13.9-.72-15.41-4.44-2.24-2.34-5.46-8.32-9.87-9.53-1.79,5.38.12,5.59.77,10.16,1.88,5.13,2.35,8.78,4,13.6-8.74-2.49-14.11-5.64-19.64-12.29-9.49-8-9.49-8-6.49,2.5,1.23,7,.93,8.56,3.47,14.6-8.41-1.47-16.22-5.36-20.47-12.11-5-7.49-5.49-7-3.5,2.5.29,6.39-.82,7.43.75,13.61-7.64-1.62-13.24-4.61-17.24-11.11-5-7.49-5.5-7-3.5,2.5,1.25,6-1,7.24,2.5,13.49-8.63-3.68-9-2.74-12-7.49-2-4-5.3,1.34-9.3,8.84-3.24,5.74-5.88,6.18-8.3,6.46-.6-4.38-2.39-7.3-6.39-16.8-4.5-11-7.5-20-7-21,1-.5,13.5-7,27.49-14.49,14.49-7,26.49-15,26.49-18,0-2.5,2.5-4.49,6-4.49,8,0,29-20,29-27.49,0-3.5,4.5-12,10-18.49,7.49-10,16-13.5,38.48-16,15.9-2.81,29.24-7,37.48-11.49,4.13-2.16,4.69-4,7.86-5.22.13,2.63-1.61,10.72-7.36,16.21-3.24,3.5-6.57,4.26-9.53,6.09,2.78,2.83,4.79,8.16,7,11.9,5,8,5,10.5-2,13-6.5,2.5-6.5,4-1,7.5,2.25,1.74,5.63,3,8,4.48-3.71.92-6.62,1.15-13.7-.66-9-5.45-9.69-3.84-5.8,1.67,3.19,4.81,5.34,10.18,10,13.92-5.31.28-7.73-.67-12.48-2.42-5-2-9.23-3.34-5.79,4.42,3.26,5.42,1.46-2.92,4.56,4.23,5.33,1,17.45-.24,26.31-2.38-8-4.37-10.89-7.79-11.89-10-1.5-4.5,2.81-4.23,6.8-4.23,1.75,0,7.54.7,11.86-4.09-3.59-2-9-3.72-12.34-7.85,10.25-5.9,4.3-14.86,1.91-19.11-2-3.4-2.14-5.2-4.44-8.73,3.16-.23,7.76-6.2,10-10.2,4.75-8.49,6.81-16.57,6.12-23.51-6.77,5.22-9.4,6.91-13.62,9-7.16,4.28-22.52,9.66-36.1,11.72s-25.37,1.78-25.37-3.21S1244,391,1248,387c7.36-7.48,11.32-14.2,13.61-20.82,4.28-5.19,9.69-5.57,16.86-5.65,3.8,2,11.22,3.81,14.65,8.76,3.22-1.54,4.88-11.47,3.25-16.19-.7-2-9-5.92-13.65-6.08s-7.14,1.16-11.25-.58c4.84-1.39,7.48-1.31,12.52-3.82,4.49-2.24,8.83-3.56,8.24-6.41-.72-3.52-25.51-1.12-29-1-2.88.12,5.42-3.32,11.53-4.09,4-1.44,13-.88,22-7.59C1290,319.21,1286.5,321,1281,319m-20.59.82c2,4.24,26.11,3.08,19.41,4.83,0,0-18.62,3.43-24.78,8.72-1.09,4.68,5.41,6.76,5.41,6.76l23.6-2.52c.26,3.23-22.94,4.45-22.14,9.31.25,1.57-1.29,4.53,6.43,3.65,7,.33,15.66-.39,20.88,2.31,3.79,1.89,4.24,6.1,3,9.7-3.43-2.8-8.89-5.11-11.89-6.11a27.55,27.55,0,0,0-15.36,2.34c-4.33,1.85-7.34,3.83-11.1,11.24-2.5,6.49-10.5,14-18,17-8,2.5-20.78,9.34-26.49,17-6.34,8.48-11.07,15.35-26.33,24.17-15,13.49-2,8.7-8.47,9.68-17.2,2.65-26.67,6.63-29.67,10.63-3.5,4-11.5,8.5-18,10-7,2-12.49,5.5-12.49,8,0,3-3.5,5-8,5-11,0-60,51.48-69,72-17,38.48-20,52.48-20,90,.5,25,3.5,47.48,8,58,10,23.49,52.62,70.68,64.11,70.68a17.49,17.49,0,0,0,3.63.76c1.1,1.65,1.73,1.81,5.64,3.63,5.67,2.84,13,4.22,21.82,4.48s19.34-.63,31.4-2.32,23.9-4.19,32.71-7.12,12.06-4.5,14.61-7.2c.77-.81,2.8-1.86,2.46-5.37,1.81,1.65,6,1.26,11.06-3.29,4.09-3.71,8-5.43,6-9.15,5.41-.56,6.33-2.86,10.6-8.85,2.8-3.94,6-7.42,4.62-13,3.72.73,5.57-4.48,7.7-9.41,1.88-4.33,5.21-10.22,1.06-12.36,4.77.12,3.88-5.71,4.46-9.77s1.77-10.36-3-11.46c4.93-1.56,2.82-6.65,2.08-11.22-1-6.4-1.63-9.87-5.72-10.71,3.65-1.64,1.43-7.65-1-15.85-1.93-6.57-6.36-9-11.45-7.88,4.87-3.72-4-9.78-5.94-11.37-5.31-4.44-11.35-6.08-12.54-3.2.51-5.4-18.33-5.87-25.53-5.06s-13.54,4.06-20.29,9.56c-10.5,8.5-11,11-5.5,20,6.5,11.5,1.5,14-8,4.5-10-10-7-22.49,7.5-34,11-9,18.49-10.49,37.48-9,33.49,3.5,47,14,56.48,45,15,51.48-5.5,102.45-50.48,124.44-20,9.5-32,12-64.47,12-47.48-.5-77-12-104.45-42.48-17-18.5-36-66.8-30-75.8,9.76-4.15,0-4.17-3-4.17-4,0-5.5-20.71,2-24.47-14.86.06-7-18.51,2-22.16-8-.19-12-8-12.2-16.3s3.24-17,10.13-19c5.19-1.51.41-2.89-4.46-4-5.81-1.32-8-2.19-7.33-12.54.86-6.79,3.25-18.13,8.17-20.22s12.94-2.78,17.34-3.17a66.86,66.86,0,0,0-14.55-3.06c-9-3.75-12-22-3.94-27s28.45,4.92,29.52.79c-4-4.35-16.27-5.42-21.73-9.39-6.68-6.57-12.85-12.84-1.85-28.34,5.5-8.49,4.62-10.6,11-12.95,8.44-.34,26.53,11,40.38,10.58-6.35-5.28-27.91-9.51-34.79-14.5s-1.66-12.74,5.41-21.61c8.5-7.5,12-8,23-3,7.5,3,19.36,6.12,32.22,8.28-5-5.16-27.72-10.78-32.72-14.77-9.5-7-9.5-9.93-.5-19.93l13.46-5.53,15,8c11,5,28,10.93,28,9.43,0-1-15.52-7.93-23.51-12.43-8.5-4.49-13.68-11-13.68-14.49,0-12.49,11.53-14.15,29.2-1.84,9,5.25,31.46,12.1,32.8,9.57,1.66-3.13-15.06-6.2-23.34-10.23-8.21-4.68-23.64-12.37-23.64-16.37,2-6.78,11.15-11.62,50.63-16.11,29.49-3.5,45-13,58-34.49,16-26,13-48.48-8.5-69l-18-17,10.49,16c19.5,28,10,61.48-17.49,61.48-6.5,0-16,2.49-21,6-7,4-13.09,3.14-19,1.41l-9.55-2.81-3.31-.72,13.83-9.37c15.49-7.5,22-22,13.49-30.49-3-3-4,0-2.5,8,2,9.49,0,14-7,16.49-5,2.5-15,8-21.49,13C1078,323.57,1049,341.56,1046,341.56c-1.5,0,1-5,6.5-11.5,5.5-6,2.5-5-6.5,3.5-13.49,12-17.49,13.5-24,8-11-9-9.49-13,9.5-25a51.73,51.73,0,0,0,23.49-29c3-10,8-21,10-24,3-3.49,1.5-8-3-12-4.24-3.5-8.49-11.62-8-14.6a16.3,16.3,0,0,1,5.54,2.1c2.5,1.5,5-.49,5-5,0-2.25-1.73-10.77-1.26-12.86,1.18,2.16,4.76,7.11,6.26,7.86,2.5,1.5,5.5,0,5.5-3.5.75-7.25,1.68-9.37,2.3-12.78,1,1.87,6.2,9.34,8.55,11.13-2-5.51-.42-23.22.44-24.87.14,4.75,2.82,13.18,3.62,16.23,5.31,7.48,6.6,9.12,12.57,10.93,5.06.18,7.5-1.89,14.5-10.13,7-8.5,11.28-14.87,11.68-19.2,0-4.5-14.82-22.29-32.38-29-7.44-2.7-8.45-3.47-13-4.68,1.24-.28,3.06-2,8.49-3,2.84-.53,14.35-.49,21.77,3,6.64,2.13,22,8.69,29,15.68,3.79.64-.51-12.12,3.92-10.28s2.68,15.14,6.41,17.13c5.61,3,6.52-6.82,9-6.82,2.5.25-2,11.64,2.63,14.3,3,1.74,13.56-11.18,14.81-9.18.92,1.56-8.12,12.24-5.68,13.83,3,2.37,2.72,5.55,9.38,2.91,5.46-2.75,29.58-17.89,35.79-17.46-5.77,3.78-10.25,8.38-16.5,14.09-10,10.49-12.82,11.8-4.82,13,7.43-1.22,9.26-3.47,12.93-1,1.83,1.24-1.68,10.7.8,12.22s11-1.82,12-.83c3.82,3.93-3,9.21-.71,15,3,8.49,4.49,8.49,14.49,1.49,8-5.74,18.22-9.86,18.52-7.68.41,2.86-2,4.19-6.53,10.68-14.49,20.49-10.49,24.49,18,21.49,0,0,23.19-6.76,30.14,3.84-6.86-1.29-23.3,2-27.69,3.89a66,66,0,0,0-12,7.64c-2.22,1.76-.93,3.15.41,7.05a42.62,42.62,0,0,0,17,2.68c-18.55,7.46-16.89,1.29-23.62,5,4.83,8,8.68,7.38,25.2,9.69,4.09,2,8,2.88,12.54,4.13s7.49,4.84,6.35,5.25-5.68-.74-10.77-1.24c-6,.07-2.89,0-16.27,1.4-6.26,1.53-9.06,6.12-7.85,8.63Z" />
                    <path id="path1505" class="cls-3"
                        d="M1281.24,655.09c0,.26.41.47.93.47s.93-.21.93-.47-.41-.47-.93-.47-.93.2-.93.46" />
                    <path id="path1507"
                        d="M1090.38,269.74c0,2.92,1.7,5.29,3.79,5.29s3.79-2.37,3.79-5.29-1.7-5.28-3.79-5.28-3.72,2.25-3.79,5.1" />
                    <path id="path1509" class="cls-8"
                        d="M1082.77,273.64a12.32,12.32,0,0,0,15.73,6.8,11.64,11.64,0,0,0,7-15.18,12.34,12.34,0,0,0-15.74-6.79,11.63,11.63,0,0,0-7,15.15" />
                    <path id="path1511" class="cls-8"
                        d="M1126.86,254c-15.78-8.31-37.58,4.59-37.58,4.59" />
                    <path id="path1513" class="cls-9"
                        d="M1245.13,397.24c.56-2.68-.66-4-5-6.79-5.35.66-14.66,4.47-20.56,9.69-10,8.9-11.57,12.22-17.23,19.83,2.31,4.57,3.81,5.56,8.19,9.83a88.72,88.72,0,0,0,10.11,6.12c2.41-7.48,5.34-11.18,12-19.77,3.11-4.75,12.32-8.37,17-11.89C1248.64,400.54,1246.79,400.25,1245.13,397.24Z" />
                    <path id="path1515" class="cls-9"
                        d="M1207.55,432.53c-4.6-3-5.82-7.17-9-9.09-4.21,1.81-3.12,2.33-10,5.68-7.34,4.64-4.68,3.6-10.34,11.22a67.88,67.88,0,0,0,7,11.54c3.88,3.49,3.93,6.12,7.52,10.43,6.72-1.74,11.09-4.29,16.31-10.3,3.69-4.47,8-4.65,9.83-12.18C1214.21,436.68,1210.36,435.24,1207.55,432.53Z" />
                    <path id="path1517" class="cls-9"
                        d="M1181.45,453.75c-3.45-4.69-4.1-8-7-11.38a78,78,0,0,0-15.1,3.38c-8.21,1.78-9.28,4.47-13.51,8.93,2.31,4.57,2.67,10.44,4.47,18.72a58.22,58.22,0,0,0,4.94,14.16,114.32,114.32,0,0,0,17.46-9.16c6-3.61,11.75-7.23,14.41-14.76-3-5.45-2.85-7.17-5.66-9.89Z" />
                    <path id="path1519" class="cls-9"
                        d="M1145.59,476.13c-1.44-6.41-1.23-13.19-4.42-18.27-5.07.66-4.26,2.33-10.23,4.24-6.2,2.64-10.43,3.32-13.79,10.08,5.46,5.15,6.68,4.41,8.48,12.69,1.29,5.78-1.24,13.86,1.21,19,6.71-2.89,7.35-4.58,13.15-8.3,6-3.61,6.59-2.06,10.4-5.87-2.15-6.59-3.42-9.75-4.8-13.61Z" />
                    <path id="path1521" class="cls-9"
                        d="M1120.92,485.31c-2.87-5.84-4.1-7.17-7.29-10-5.93,2.39-8.56.9-14.25,6-5.33,3.78-16.44,13.08-20.67,17.53,4,2,7.79,3.37,12.49,9.54s3.36,7.84,6.09,14.73c5-3.17,7.36-4.86,12-7.72,4.84-4.47,6.88-5.79,12.41-9.6-2.16-6.3,0-15.48-.79-20.49Z" />
                    <path id="path1523" class="cls-9"
                        d="M1087.94,512.27c-2.88-5.84-7-6.88-10.17-9.66-5.92,2.38-8.27,7.49-14,12.56-7.06,7.8-8.13,9.06-11.5,13.8,5.18,2.57,6.65,2.8,11.35,7,4.86,4.31,6.22,4.4,9.53,8.13a98.49,98.49,0,0,1,7.7-8.29c4.84-4.47,5.45-4.36,11.84-10.17A83.45,83.45,0,0,0,1087.94,512.27Z" />
                    <path id="path1525" class="cls-9"
                        d="M1060.4,540.1c-3.45-2.69-6.68-4.59-9.59-6.51-2.77,3.24-5.41,5.77-7.07,9.41-2.76,3.49-3,4.18-5.19,8.92,5.18,2.57,4.64,1.94,8.48,3.8s5.36,3.82,9.82,6.7c3.56-4,1-2.57,5.7-7.15,2.25-2.74,3.43-4.93,7-8.45-5-4.29-5.72-4.87-9.1-6.72Z" />
                    <path id="path1527" class="cls-9"
                        d="M1046.77,560.32c-4.17-2-6-3-9.44-4.5-2.34,4.39-3,5-4.64,8.69-1,3.06-1.82,4.61-3.61,9.64,3.89,1.42,5.07,1.79,7.62,2.94s5.36,2.82,8.39,4.55c2.84-5.33,2.76-4.15,4.4-7.29s2.58-3.93,5.38-8C1050.71,563.18,1049.44,562,1046.77,560.32Z" />
                    <path id="path1529" class="cls-9"
                        d="M1036.43,581c-4.17-2-4.14-1.49-7.62-3-2.34,4.39-4,12.15-5.25,16.9a139,139,0,0,0-2,18c3.68.71,2.16.28,5.39.92a24.54,24.54,0,0,1,6.8,2.18c1-7.15,1.9-11.1,3.76-16,1.23-3.44,3.79-11.23,6.59-15.32C1040.57,582.75,1039.09,582.72,1036.43,581Z" />
                    <path id="path1531" class="cls-9"
                        d="M1027.4,618a35.33,35.33,0,0,0-5.38-.75,188.28,188.28,0,0,0-.28,21c.69,9.76.82,17.69,2.37,27.59,1.77-.51,2.17-1,5.39-1.21a34.61,34.61,0,0,1,6.36,0c-2.33-9.28-2.41-12.47-3.1-23.52a153.21,153.21,0,0,1,.43-21.09c-2.54-.82-3.63-1.37-5.79-2Z" />
                    <path id="path1533" class="cls-9"
                        d="M1031.87,669.14c-1.29-.3-4.5.08-7.22-.14,2.93,16.46,5.35,22.6,10.88,32.73,6.58,9.55,13,18.5,21.44,27.59a22.59,22.59,0,0,0,2.75-2.64c1-.92,1.77-1.2,2.91-2.24-9.63-12.74-11.33-16.53-17.09-28.19-4.75-11.65-5.54-14.84-8.7-27.58-2.54,1-2.82,1.06-5,.47Z" />
                    <path id="path1535" class="cls-9"
                        d="M1062.09,729.38c-1.65,1.06-.84.69-3.36,2.29,3.94,4.7,6.76,7.39,14.12,14.68,5.56,4.08,7.23,7.64,18.61,12.22a17.56,17.56,0,0,0,2.07-2.69,11.07,11.07,0,0,0,1.62-3,44.69,44.69,0,0,1-17-10.17c-7.18-6.18-9-9-13.77-15a13.3,13.3,0,0,0-2.33,1.68Z" />
                    <path id="path1537" class="cls-9"
                        d="M1098,757.56c-.91,1.44-.57,1.85-1.42,3.54,5.17,3.07,6.32,3.33,19,5.8,15.56.53,22.12.16,29.42-.83a33,33,0,0,1-.37-4c-.08-1.74.14-1.18,0-3-14.55,1-19,0-24.73-.38a115.29,115.29,0,0,1-20.62-4c-1.11,2-1,1.49-1.28,2.9Z" />
                    <path id="path1539" class="cls-9"
                        d="M1148.83,762.43c.31,1.54.24,1,.71,3.23,12.06-2.1,12.3-1.84,26.89-4.84,11-3.13,14.63-5.5,21.43-9.12.49-2.4.35-2.11-.19-3.11-.72-1.32-.18-.9-1.81-1.89-8.09,4.85-16.75,6.28-21.39,7.83a225.36,225.36,0,0,1-25.89,3.89c.11,2.11.13,2.6.25,4Z" />
                    <path id="path1541" class="cls-9"
                        d="M1201,745.49c1.83,1.39,2,2,4.27,1.71,3.76-.52,4.24-1.58,7.85-4.53,1.77-1.44,4.51-4.24,4-5.24-.72-1.32-1.94-5.28-3.53-2.7-1.4,2.26-7.35,5.75-10.88,8.17C1199.83,744.83,1200.24,745,1201,745.49Z" />
                    <path id="path1543" class="cls-9"
                        d="M1219,733.12c2.13.68,1.6,1.1,3.35-.42,1.42-1.23,2.41-3.31,5-6.36,1.48-1.73,4.44-6.74,4.58-7.87.39-3.25-1.42-5.39-2.83-2.7A49.49,49.49,0,0,1,1219,729.61c-2.52,2.3-.81,3.24,0,3.51Z" />
                    <path id="path1545" class="cls-9"
                        d="M1232,712.23c2.13.67,1.9,1.1,3.66-.42,1.42-1.23,2.84-4.44,4.5-8.08,1-2.15,3.13-5.36,2.34-7.48-.87-2.35-4-4-4.75-1.07-1.44,5.21-1.91,5.28-4.38,11.41C1232.41,709,1231.14,712,1232,712.23Z" />
                    <path id="path1547" class="cls-9"
                        d="M1239,690c.84,1.61,2.38,1.41,4.88.29,2-.91,1.26-4.09,1.56-8.08.16-2.15.6-4.14,0-7-.5-2.46-5.14-3.35-5.45-.37-.23,2.18.09,3.44-.33,7.16-.68,6-1.32,6.72-.67,8Z" />
                    <path id="path1549" class="cls-9"
                        d="M1240.81,669c.49,1.35,2.48.9,3.66-.53,1.41-1.7-.26-4.7-.37-8.08a18.81,18.81,0,0,0-1.81-7c-.71-1.65-3.28-1.85-3.33,1.15,0,1.46.39,3.37.79,6.55.44,3.49.28,5.7,1.06,7.87Z" />
                    <path id="path1551" class="cls-9"
                        d="M1237.26,647.83c.49,1.36,2.65.07,3-1.74.6-2.72-1.29-5.71-2.09-9-.68-2.76-1.92-6-4.14-7.88-1.63-1.34-4.57-2.09-3.94.85.48,2.27,3.74,6.61,4.84,10.3,1,3.37,1.5,5.29,2.28,7.46Z" />
                    <path id="path1553" class="cls-9"
                        d="M1224,623.59c1.44.06,3.11.46,2.64-1.33-.42-1.6-2-2.39-4.93-4.74a46.5,46.5,0,0,0-5.67-4.12c-1.72-.85-5.09-1.92-3.93.85.48,1.16,2,1.64,4.74,3.5,2.91,2,6.17,5.8,7.15,5.84Z" />
                </g>
            </g>
            <g id="g3239">
                <path id="path4209" class="cls-10" fill="#e9d315"
                    d="M664.62,499.49c-.33,10.81.19,15.76,1.9,23.77-5.44-5.25-10.92-8.92-18.46-13.29-9.61-5.58-21.73-10.9-25.85-4.1-4,6.55,7.4,15.51,16.31,20.53,9.73,5.5,15.34,6.25,21.67,8.73-5.36,2.83-12.67,4.74-20.78,9.94-7.95,5.1-19.84,15.66-15.33,22.4s17.85-.85,25.33-5.86c6.23-4.17,14.47-10.75,17.68-14.11-.64,4.83-2.55,14.47-2.41,23.68.17,11.19,1.72,23.71,10.05,23.69,8.51,0,10.32-14.77,10.19-24.74a120.87,120.87,0,0,0-2.36-22.92,174.41,174.41,0,0,0,16.58,14.93c6.05,4.77,20.87,11.83,25.31,5.06s-2.52-13.73-15.44-21.94c-9.06-5.74-15.47-7.71-21.38-10.16,6-2.44,12.5-3.07,22-8.87,14.15-8.6,20.15-14.35,15.81-21.75-4.21-7.2-12.73-3.27-25.68,5A121.69,121.69,0,0,0,682,523.9a165.84,165.84,0,0,0,2-23.59c-.12-10.74-2.48-24.63-9.79-24.67s-9.2,12-9.57,23.85Z" />
                <path id="path1755" class="cls-11"
                    d="M685.62,535.21a11.39,11.39,0,1,1-11.38-11.39,11.37,11.37,0,0,1,11.38,11.39" />
            </g>
            <g id="g3243">
                <path id="path3245" class="cls-10"
                    d="M813.72,500.48c-.34,10.81.18,15.76,1.89,23.77-5.44-5.25-10.92-8.92-18.46-13.3-9.6-5.57-21.73-10.89-25.85-4.09-4,6.55,7.41,15.51,16.31,20.53,9.73,5.49,15.34,6.24,21.67,8.73-5.36,2.83-12.67,4.74-20.78,9.94-8,5.1-19.84,15.66-15.33,22.4s17.85-.85,25.33-5.86c6.23-4.17,14.47-10.75,17.68-14.12-.63,4.84-2.55,14.47-2.41,23.69.18,11.19,1.72,23.71,10.06,23.69,8.5,0,10.31-14.77,10.18-24.74a120.87,120.87,0,0,0-2.36-22.92,174.56,174.56,0,0,0,16.58,14.92c6,4.77,20.87,11.84,25.31,5.07S871,554.45,858.1,546.25c-9.06-5.75-15.47-7.71-21.37-10.16,6-2.44,12.49-3.07,22-8.87,14.15-8.6,20.14-14.35,15.81-21.76-4.22-7.2-12.74-3.26-25.68,5a121.82,121.82,0,0,0-17.82,14.46,164.52,164.52,0,0,0,2-23.6c-.13-10.74-2.48-24.62-9.8-24.66s-9.2,12-9.56,23.85Z" />
                <path id="path3247" class="cls-11"
                    d="M834.72,536.2a11.39,11.39,0,1,1-11.39-11.39,11.39,11.39,0,0,1,11.39,11.39" />
            </g>
            <path id="path3078" class="cls-7"
                d="M579.05,753.18c-21.46.68-61.71,14.42-102.44,35.14-35,17.5-36,18.5-26.48,37,4,8.5,8.52,16,9,17l.07.07c1.86.49,17.44-6.42,35.35-15.62,19-9.49,43-19.93,53.53-22.93,7.75-2.75,13.38-3,20.3-4.47-1.26-7.36.31-1-4.61-15,5.67-14.22,16.62-26.5,27.26-29.18-2.74-1.46-6.79-2.15-12-2Z" />
            <path id="path3076" class="cls-7"
                d="M743.26,753.54c-41.43.39-82.17,2.42-100.81,5.32-31.74,5.25-48.85,15.31-60.63,21.44-4.31,3.22-8.09,4-12.78,6.82,3.72,8.42,3.58,13.49,6.75,20.87,3.33,7.76,1.67,12.67,10.79,12.92s29-9.58,29-9.58c25.49-9,40.51-10,133.47-10,93.46,0,112.29,3,133.89,10.5,15.66,5.39,22.11,9.65,28.39,8.52,3.23-.58,4.91-5.24,7.17-10.86a130.68,130.68,0,0,0,8.66-30.81c-4.91-.72-2.74,1.79-9.44-1.21-14.46-6.48-17.21-7-26.76-11-11.33-4.78-21.93-4.79-38.55-7.88-19.49-3-62.81-4.17-105.14-5C745.89,753.55,744.59,753.52,743.26,753.54Z" />
            <path id="path3074" class="cls-7"
                d="M916.9,753.61a26.63,26.63,0,0,0-7.24.92c4.36,2.74,9.45,7.32,12.28,8.8,10.5,5.5,10.45,10.58,9.44,20-.46,4.37-.86,6-2.55,12,3.91,1.77,13.58,5.77,21.58,8.52,10,3,34,13.44,53,22.93,17.62,9.05,33,15.87,35.28,15.62l.14-.07h.07c.5-1,5-8.54,9-17,6.5-12.49,7-16.94,2-20.94-11-9-55.48-29.54-87.46-40.54-20.48-6.82-35.54-10.3-45.51-10.22Z" />
            <path id="path3072" class="cls-7"
                d="M904.34,757.66a8.36,8.36,0,0,0-.93,1.2c-1.51,1.85-1.73,3.83-2.2,6.11,3.31,1.17,14.49,8.13,20.23,7.88a8.19,8.19,0,0,0,2.77-.29l.15-.07.07-.07a1.85,1.85,0,0,0,.14-.14l.07-.07.07-.07v-.29c0-.05-.05-.15-.07-.21l-.07-.14-.14-.21c-.8-1-3.24-2.73-8-5.4a101,101,0,0,1-12.06-8.23Z" />
            <path id="path3070" class="cls-7"
                d="M594,757.8c-3.28,2.5-8.85,5.94-12.42,8.37-6.43,4.37-7.38,7.75-10.15,13.85a2.79,2.79,0,0,0-.15.35v.07h.15a62.41,62.41,0,0,1,17.39-8.73c10-3.72,4.67-1.9,10.86-4.47-4.08-6.31-4.61-6.74-5.11-8.24a6.29,6.29,0,0,0-.57-1.2Z" />
            <path id="path76"
                d="M531.58,760.37c-29.48,10-72,30.48-89,42-5.49,4-5,8.49,3.5,25.49,6,11,12,20.49,13,20.49,1.5,0,18-7.5,36.48-17,18.49-9,42.12-20.86,53-23,8.3-1.62,15.88-3.16,20.58-5.11a94.6,94.6,0,0,0,4.17,9.24c4.95,10.36,1.87,10.13,10.43,13,9,3,31.29-9.09,31.29-9.09,26-9,40.48-10,133.94-10s108,1,133.94,10.5c0,0,20.91,7.12,23.6,8s4.08,1.53,6.91.85c2.57-.62,5.25-4.56,6.44-6.93,0,0,5.74-13.81,7.22-18.66,5,2.4,14,5.52,22.8,8.26,10.5,3.5,34,14,52.48,23,18.49,9.5,35,17,36.48,17,1,0,7-9.5,13-20.49,12-23.49,13-21.5-30.49-44-58-30-116-43.48-121.45-29-1,2.75-1.84,4.35-3.22,7.92-5.81-1.34-21-4.92-36.26-7.42-47-8.5-175.92-8.5-222.9,0-15.25,2.5-25.55,6.66-34.16,9-4.88-9.75-3.86-5.87-4.86-8.62-4-10-30.45-8.43-66.94,4.57Zm63-1.34c.5,1.5,1,1.88,5.09,8.19-6.19,2.57-.88.79-10.85,4.51-14.31,4.85-18.31,10.33-17.39,8.32,2.77-6.1,3.73-9.49,10.15-13.85,6.19-4.2,18.31-11.54,14.31-11.54-12-.5-25.59,13.27-32.13,29.66,4.91,14,3.35,7.68,4.61,15-6.92,1.47-12.56,1.73-20.3,4.48-10.5,3-34.49,13.49-53.48,23-18.49,9.49-34.48,16.49-35.48,15.49-.5-1-5-8.5-9-17-9.5-18.5-8.5-19.49,26.49-37,57-29,113-44.31,118-29.32Zm257.79-.43c16.62,3.09,27.2,3.1,38.53,7.88,9.55,4,12.32,4.49,26.78,11,6.7,3,4.53.48,9.44,1.19a131,131,0,0,1-8.68,30.82c-2.27,5.63-4,10.27-7.18,10.85-6.27,1.13-12.68-3.09-28.34-8.48-21.6-7.53-40.48-10.49-133.94-10.49-93,0-108,1-133.44,10,0,0-19.87,9.81-29,9.56s-7.43-5.13-10.77-12.89c-3.17-7.38-3-12.45-6.72-20.87,4.7-2.82,8.43-3.64,12.74-6.85,11.77-6.13,28.92-16.18,60.66-21.42,19.24-3,62-5,104.77-5.34,42.32.87,85.65,2.07,105.14,5.07Zm110,5.26c32,11,76.46,31.49,87.46,40.49,5,4,4.49,8.49-2,21-4,8.49-8.5,16-9,17-1,1-17-6-35.48-15.49-19-9.5-43-20-53-23-8-2.75-17.65-6.75-21.56-8.51,1.68-6,2.1-7.62,2.57-12,1-9.45,1-14.5-9.5-20-5.24-2.75-18.18-16.23-20-8.66-1.41.56,9.18,8.16,14.56,11.16,10.74,6,9.49,7,5,7-5.74.25-16.91-6.71-20.22-7.88.47-2.28.72-4.27,2.23-6.11,5.5-8.5,24.49-6.5,59,5Z" />
            <path id="text3088"
                d="M637.34,772.63l1.15,9.9,6.78-.78c2.45-.29,4.13-.88,5-1.79a4.78,4.78,0,0,0,1.07-4.15,4.33,4.33,0,0,0-1.85-3.5c-1-.6-2.84-.76-5.4-.46l-6.79.78m-4.28-3,11.32-1.31a25,25,0,0,1,4.08-.23,8,8,0,0,1,2.43.52,6.83,6.83,0,0,1,3.12,2.5,8.86,8.86,0,0,1,1.47,4.13,7.73,7.73,0,0,1-.55,4.16,6.87,6.87,0,0,1-2.71,3,4,4,0,0,1,2.61,1.33,8.53,8.53,0,0,1,1.35,3.72l.9,4.78a8.13,8.13,0,0,0,.66,2.27,2.06,2.06,0,0,0,1.06,1l.09.81-4.58.53a10.4,10.4,0,0,1-1.23-3.82c0-.05,0-.09,0-.12l-.68-3.78c-.36-1.94-.92-3.16-1.69-3.66s-2.55-.59-5.36-.27l-6.42.75,1.45,12.51-3.93.46-3.38-29.22m34.69,13.71,9.14-.67-5.49-12.61-3.65,13.28m-7.58,12.81L668.9,766l4.4-.32,13.09,28.53-4.32.32L678.32,786l-11.55.85-2.48,9-4.12.3m40.41-2.56-.86-29.39,4-.12.35,12.07,15.25-.44L719,763.65l4-.12.86,29.4-4,.12-.41-13.77-15.24.45.4,13.77-4,.11m34.71-13,9.17,0-4.62-13-4.55,13m-8.44,12.27,10.77-29.47,4.41,0,11.11,29.35-4.33,0L745.65,784l-11.58.06-3.09,8.8-4.13,0m50.08-10.67,3.87.06a12,12,0,0,1-3.82,8.5,12.34,12.34,0,0,1-8.84,3,12,12,0,0,1-9.67-4.4q-3.44-4.3-3.31-11.78.12-6.92,3.89-10.9a12.78,12.78,0,0,1,10-3.9,12.55,12.55,0,0,1,8.12,2.72,10,10,0,0,1,3.57,7.09l-3.91-.07a7,7,0,0,0-2.58-4.52,8.88,8.88,0,0,0-5.42-1.67,8.32,8.32,0,0,0-7,3q-2.52,3.09-2.61,8.8a13.61,13.61,0,0,0,2.4,8.69,8.28,8.28,0,0,0,6.75,3.37,8.1,8.1,0,0,0,6-2.14,8.45,8.45,0,0,0,2.58-5.9m8.4,11.13L786.67,764l4,.18-.55,12.07,15.24.7.55-12.07,4,.18-1.35,29.38-4-.18.63-13.76-15.24-.7-.63,13.76-4-.18m29.57,1.53,2-29.34,4,.28-2,29.34-4-.28m16.86-24.77-1,9.91,6.79.66c2.46.24,4.22,0,5.31-.68a4.78,4.78,0,0,0,1.91-3.83,4.32,4.32,0,0,0-1.07-3.81q-1.32-1.22-5.18-1.59l-6.8-.66m-3.56-3.82,11.35,1.1a24,24,0,0,1,4,.64,7.85,7.85,0,0,1,2.27,1,6.82,6.82,0,0,1,2.52,3.09,8.9,8.9,0,0,1,.57,4.35,7.89,7.89,0,0,1-1.41,4,7,7,0,0,1-3.28,2.33,4,4,0,0,1,2.27,1.84,8.39,8.39,0,0,1,.54,3.93l-.13,4.86a8.09,8.09,0,0,0,.17,2.36,2.06,2.06,0,0,0,.83,1.17l-.08.81-4.59-.45a10.3,10.3,0,0,1-.39-4,.41.41,0,0,1,0-.12l.13-3.83c.06-2-.24-3.29-.88-3.94S839.76,784.3,837,784l-6.44-.62-1.22,12.54-3.94-.39,2.85-29.27m24.24,32.14,3.83-29.16,4,.52-3.83,29.16-4-.52" />
        </g>
    </g>
</svg>