<?xml version="1.0" encoding="UTF-8" standalone="no"?>
<!-- Created with Inkscape (http://www.inkscape.org/) -->
<svg xmlns:dc="http://purl.org/dc/elements/1.1/" xmlns:cc="http://web.resource.org/cc/" xmlns:rdf="http://www.w3.org/1999/02/22-rdf-syntax-ns#" xmlns:svg="http://www.w3.org/2000/svg" xmlns="http://www.w3.org/2000/svg" xmlns:xlink="http://www.w3.org/1999/xlink" xmlns:sodipodi="http://sodipodi.sourceforge.net/DTD/sodipodi-0.dtd" xmlns:inkscape="http://www.inkscape.org/namespaces/inkscape" version="1.0" width="1000" height="500" viewBox="0 0 1000 500" id="Kazakhstan_svg" sodipodi:version="0.32" inkscape:version="0.45.1" sodipodi:docname="Flag_of_Kazakhstan.svg" inkscape:output_extension="org.inkscape.output.svg.inkscape" sodipodi:docbase="C:\Documents and Settings\Zachary\Desktop\My Pictures">
  <metadata id="metadata2219">
    <rdf:RDF>
      <cc:Work rdf:about="">
        <dc:format>image/svg+xml</dc:format>
        <dc:type rdf:resource="http://purl.org/dc/dcmitype/StillImage"/>
      </cc:Work>
    </rdf:RDF>
  </metadata>
  <sodipodi:namedview inkscape:window-height="712" inkscape:window-width="1024" inkscape:pageshadow="2" inkscape:pageopacity="0.0" guidetolerance="10.0" gridtolerance="10.0" objecttolerance="10.0" borderopacity="1.0" bordercolor="#666666" pagecolor="#ffffff" id="base" showgrid="true" inkscape:zoom="0.61486874" inkscape:cx="374.76765" inkscape:cy="220.79242" inkscape:window-x="-4" inkscape:window-y="-4" inkscape:current-layer="Kazakhstan_svg"/>
  <desc id="desc4286">Flag of the Republic of Kazakhstan</desc>
  <defs id="defs4288">
    <path d="M 0,-76.45 C 4,-76.5 5.5,-79 5.5,-82 C 5.5,-86 0,-105.05 0,-105.05 C 0,-105.05 -5.5,-86 -5.5,-82 C -5.5,-79 -4,-76.45 0,-76.45 L 0,-76.45 z " id="be"/>
    <path d="M -1,15 C -1,5 8,-0.14 15.072121,-0.14 C 24.6,-0.14 29.67324,5.5429809 29.67324,12.982057 C 29.67324,17.199 28.89871,19.84505 26.949517,23.881429 C 26.949517,23.881429 11.232327,56.486937 5.1137557,69.098798 C 4.3506632,70.671717 4.1044619,72.462248 4.1044619,75.087275 C 4.1044619,79.141224 8.0460365,82.454615 12.178813,82.556049 C 15.946272,82.650047 20.051305,79.052198 20.051305,74.952702 C 20.051305,69.973065 17.461945,67.753072 14.802977,67.753072 C 11.531226,67.753072 10.227511,69.094843 10.227511,71.38653 C 10.227511,72.983378 11.000593,73.674263 12.111527,73.674263 C 14.91779,73.674263 14.130114,69.906232 14.130114,69.906232 C 15.523896,70.210636 16.668963,71.631261 16.01413,73.405118 C 17.033704,73.631586 17.988792,74.165521 18.739224,75.019988 C 17.986945,75.74755 17.124043,76.309176 16.01413,76.500286 C 16.67135,78.664697 15.793133,79.722271 13.894613,80.167388 C 14.277724,79.334786 14.290906,78.568919 14.163757,77.846011 C 11.174887,78.693888 6.5940534,77.344608 6.5940534,72.193965 C 6.5940534,67.08021 10.151694,62.774364 16.821565,63.850469 C 15.234698,63.093596 14.427615,61.544954 14.264687,59.813294 C 15.475839,60.284298 16.821565,60.351584 16.821565,60.351584 C 16.041676,58.979728 14.958426,57.79719 15.004835,55.103255 C 16.241582,55.664112 17.389899,56.702686 18.974725,56.045263 C 16.487428,51.162666 19.543319,44.446508 27.318221,42.857157 C 24.472701,46.184414 23.079188,49.777263 23.079188,53.353813 C 23.079188,64.945481 26.308927,66.893455 26.308927,74.952702 C 26.308927,78.32444 24.571421,81.965678 21.127885,84.440065 L 21.127885,84.305492 C 23.404326,84.912519 24.861687,86.031471 25.7,87.55 C 20.49988,89.02142 12.941391,88.993633 8.8817862,87.40066 C 4.2161824,86.86237 0.95971684,83.290648 0,81.479469 C -0.95971684,79.66829 -2.8236958,73.114579 0,67.214782 C 3.0903362,60.75787 17.661431,29.937676 22.204465,20.248974 C 23.168066,18.19395 23.752049,16.014637 23.752049,13.65492 C 23.752049,7.7199823 18.301863,5.6478554 15.206695,5.6478554 C 11.50595,5.6478554 7.7379198,8.4603205 7.7379198,11.972764 C 7.7379198,14.198379 8.9490725,15.538935 10.698515,15.538935 C 14.881836,15.538935 14.627762,11.98893 13.793683,9.7523172 C 16.397163,10.919875 17.910448,13.004341 17.494428,15.202504 C 18.968382,15.403909 20.371469,16.101382 21.666175,17.557523 C 20.647466,18.840724 19.405016,19.810686 17.494428,19.845256 C 18.328868,23.25524 16.040174,24.697462 13.793683,25.497302 C 14.504358,22.994613 14.970869,20.114401 10.698515,20.114401 C 7.5835529,20.114401 5.1305772,19.576111 3.7007442,17.557523 C 3.6166365,20.248973 3.3643129,30.880202 3.3643129,30.880202 C 3.184883,34.875197 8.7247852,34.760959 12.2461,33.571652 C 10.917154,38.173425 8.1918319,40.661436 1.8840153,40.031134 C 3.4147776,40.670353 5.0464694,42.107348 5.0464694,44.875744 C 5.0464694,48.622585 2,52.772886 0,54 L -1,15 z " id="orn"/>
    <path d="M 0,-35.598637 C 0,-35.598637 4.7530782,-39.583055 6.3671251,-37.584572 C 8.9631893,-34.370174 -1.6148703,-18.359773 -1.6148703,-12.721308 C -1.6148703,-3.4663271 4.5753036,-0.9495749 12.219049,0.37164156 C 17.347761,1.258136 25.7,0 25.7,0 C 24.127458,-2.1078802 23.104712,-2.7289755 20.455023,-2.8975143 C 23.404894,-4.4252648 26.408867,-7.7416056 26.408867,-12.90486 C 26.408867,-20.866568 23.123385,-24.147608 23.123385,-33.123391 C 23.123385,-38.102574 27.216302,-44.441008 27.216302,-44.441008 C 19.982003,-43.718733 16.396176,-37.036315 18.436436,-31.696034 C 17.284843,-31.530555 16.239265,-31.78914 15.341267,-32.638042 C 14.811816,-31.157744 15.647621,-29.439553 16.767224,-27.959255 C 15.865491,-27.478574 15.203266,-27.766834 13.767214,-28.062576 C 13.903389,-26.537421 14.81955,-24.917108 17.060859,-23.391953 C 10.556777,-25.076417 6.5546382,-20.554385 6.5546382,-15.820438 C 6.5546382,-12.244602 9.0665766,-9.6818822 11.521697,-9.6818822 C 12.315163,-9.6818822 13.480714,-10.007886 14.138278,-10.497481 C 14.601801,-9.5133367 14.362949,-8.1961425 13.885459,-7.2119982 C 15.685071,-7.686535 16.827225,-8.7527235 16.01413,-10.971863 C 17.396346,-11.098529 18.495865,-11.564431 19.243871,-12.452148 C 18.486057,-13.420288 17.336466,-13.977953 16.01413,-13.932434 C 17.020519,-16.004247 15.898976,-17.164115 14.264687,-18.104209 C 14.264687,-18.104209 15.304002,-13.932461 12.649817,-13.932461 C 11.456315,-13.932461 10.368847,-14.320046 10.368847,-16.074657 C 10.368847,-17.602563 11.707809,-19.71908 14.802977,-19.584507 C 17.898145,-19.449935 20.407444,-17.455622 20.407444,-12.526793 C 20.407444,-7.9800039 16.731198,-5.7186754 11.886919,-5.5726384 C 7.5180943,-5.4380659 4.2207273,-7.7989729 4.2207273,-12.294502 C 4.2207273,-18.277988 12.879547,-31.9162 12.879547,-37.248961 C 12.879547,-41.249522 9.273139,-43.482674 5.7444019,-43.482674 C 1.1689361,-43.482674 -2.6914504,-38.96295 -2.6914504,-38.96295 L 0,-35.598637 z " id="uorn"/>
  </defs>
  <rect width="1000" height="500" x="0" y="0" style="fill: rgb(0, 176, 199); fill-opacity: 1;" id="rect4293"/>
  <use transform="translate(57.325, 337.57)" style="fill: rgb(255, 201, 28);" id="use4309" x="0" y="0" width="1000" height="500" xlink:href="#orn"/>
  <use transform="matrix(-1, 0, 0, 1, 57.325, 337.57)" style="fill: rgb(255, 201, 28);" id="use4311" x="0" y="0" width="1000" height="500" xlink:href="#orn"/>
  <use transform="matrix(1, 0, 0, -1, 57.325, 425.12)" style="fill: rgb(255, 201, 28);" id="use4325" x="0" y="0" width="1000" height="500" xlink:href="#uorn"/>
  <use transform="matrix(-1, 0, 0, -1, 57.325, 425.12)" style="fill: rgb(255, 201, 28);" id="use4327" x="0" y="0" width="1000" height="500" xlink:href="#uorn"/>
  <use transform="translate(57.325, 162.47)" style="fill: rgb(255, 201, 28);" id="use4299" x="0" y="0" width="1000" height="500" xlink:href="#orn"/>
  <use transform="matrix(-1, 0, 0, 1, 57.325, 162.47)" style="fill: rgb(255, 201, 28);" id="use4301" x="0" y="0" width="1000" height="500" xlink:href="#orn"/>
  <use transform="matrix(-1, 0, 0, -1, 57.325, 162.47)" style="fill: rgb(255, 201, 28);" id="use4303" x="0" y="0" width="1000" height="500" xlink:href="#orn"/>
  <use transform="matrix(1, 0, 0, -1, 57.325, 162.47)" style="fill: rgb(255, 201, 28);" id="use4305" x="0" y="0" width="1000" height="500" xlink:href="#orn"/>
  <use transform="matrix(-1, 0, 0, -1, 57.325, 337.57)" style="fill: rgb(255, 201, 28);" id="use4313" x="0" y="0" width="1000" height="500" xlink:href="#orn"/>
  <use transform="matrix(1, 0, 0, -1, 57.325, 337.57)" style="fill: rgb(255, 201, 28);" id="use4315" x="0" y="0" width="1000" height="500" xlink:href="#orn"/>
  <use transform="translate(57.325, 74.92)" style="fill: rgb(255, 201, 28);" id="use4319" x="0" y="0" width="1000" height="500" xlink:href="#uorn"/>
  <use transform="matrix(-1, 0, 0, 1, 57.325, 74.92)" style="fill: rgb(255, 201, 28);" id="use4321" x="0" y="0" width="1000" height="500" xlink:href="#uorn"/>
  <path style="fill: rgb(0, 176, 199); fill-opacity: 1; fill-rule: evenodd; stroke: rgb(0, 176, 199); stroke-width: 1px; stroke-linecap: butt; stroke-linejoin: miter; stroke-opacity: 1;" d="M 47.98327,321.74599 C 47.91715,320.91945 46.18105,321.41466 44.85858,321.71222 C 43.53611,322.00977 42.75952,322.63866 42.82564,323.4652 C 42.89176,324.29174 44.56031,323.87954 45.88278,323.58198 C 47.20525,323.28443 48.04939,322.57253 47.98327,321.74599 z " id="path2478" sodipodi:nodetypes="cssss"/>
  <path style="fill: rgb(255, 201, 28); fill-opacity: 1; fill-rule: evenodd; stroke: rgb(255, 201, 28); stroke-width: 1px; stroke-linecap: butt; stroke-linejoin: miter; stroke-opacity: 1;" d="M 499.19121,339.74918 C 432.04788,339.97915 384.86735,286.19319 380.60532,232.36248 C 380.60532,232.36248 377.96378,231.35698 377.62067,233.73587 C 376.79958,239.42871 379.1544,256.91711 378.27763,255.72902 C 376.64948,253.52275 364.38298,220.70099 362.16317,224.24578 C 359.17101,229.02392 375.87399,266.37698 374.93524,267.48639 C 371.55309,271.48343 352.39355,231.01806 350.85321,234.00394 C 345.00508,245.34029 374.5493,282.08597 374.33869,283.63107 C 373.67189,288.52284 351.86851,263.86299 350.04711,266.50189 C 345.94251,272.44878 373.55548,294.16654 374.99518,295.83632 C 379.26109,300.78397 359.87031,287.0685 359.26866,291.80817 C 358.77678,295.68307 368.66978,303.48894 374.57036,306.87009 C 380.47094,310.25125 382.3791,309.20767 384.06712,312.1004 C 385.34211,314.28531 372.97959,310.70087 373.32398,313.44359 C 373.9992,318.82081 386.90216,317.67349 388.8419,320.09817 C 390.78164,322.52284 380.05847,320.67093 380.48591,322.66466 C 381.23939,326.17908 392.16125,326.69558 392.33343,328.1856 C 392.51435,329.75131 385.45233,328.66503 385.899,331.53998 C 386.2818,334.00372 396.99612,333.48237 399.61477,335.22813 C 402.23342,336.9739 390.02179,335.4601 399.52651,340.21246 C 409.03124,344.96483 419.89737,350.26143 434.78086,353.17093 C 449.66435,356.08041 457.23734,352.8187 457.78498,351.85042 C 458.33261,350.88214 450.73786,352.63275 440.18293,350.71502 C 429.62801,348.7973 415.51631,342.11461 409.75387,338.7647 C 407.94829,337.71505 415.36407,335.57916 413.81228,333.54244 C 412.26049,331.50571 406.28452,333.8255 403.97186,330.90124 C 402.48232,329.01777 406.79496,328.98004 406.6875,327.79766 C 406.58557,326.67601 398.44361,324.79105 396.9888,322.75433 C 395.534,320.7176 400.67559,321.0424 400.86828,319.65075 C 401.00492,318.66388 395.75768,316.92008 395.36973,315.56226 C 394.98178,314.20444 401.25458,314.59064 398.32444,312.94399 C 395.19116,311.18319 386.70107,309.00252 385.10414,305.96807 C 383.52979,302.9765 391.57791,306.39823 389.47607,303.52874 C 388.066,301.60366 380.24727,298.25347 378.61353,293.73267 C 377.49813,290.6462 384.11961,293.33974 384.2166,291.39784 C 384.3701,288.32447 380.28449,290.2919 379.00148,281.42999 C 378.5825,278.53604 384.18652,280.46801 384.18652,280.46801 L 384.96242,278.91622 C 384.96242,278.91622 391.55754,282.60172 400.09239,292.49439 C 408.62724,302.38707 411.04978,311.75044 419.10183,318.48691 C 422.93733,321.69574 423.00349,317.18848 431.73232,322.61975 C 440.46115,328.05102 444.08153,331.84626 453.16681,339.6451 C 454.43912,340.73725 460.3768,338.56653 477.93754,342.19748 C 487.35906,344.14553 489.3204,349.13479 489.3204,349.13479 C 489.36548,349.31514 494.57693,345.92927 497.07936,342.15173 C 498.07074,340.65518 499.04806,342.08177 499.34373,341.82467 C 500.36332,340.93812 499.19121,339.74918 499.19121,339.74918 z " id="path3926" sodipodi:nodetypes="ccssssssssssssssssssssssssssssssssssccssssscssc"/>
  <path style="fill: rgb(255, 201, 28); fill-opacity: 1; fill-rule: evenodd; stroke: rgb(255, 201, 28); stroke-width: 1px; stroke-linecap: butt; stroke-linejoin: miter; stroke-opacity: 1;" d="M 544.31239,359.75378 C 541.88564,359.29767 542.19605,361.21893 542.19605,361.21893 C 542.38341,363.65333 540.61651,366.21899 538.62835,366.74083 C 537.07074,367.14966 537.83973,368.2974 537.31221,369.35868 L 530.8004,369.03309 C 520.43938,374.68173 507.46286,376.6251 491.8924,374.89371 C 491.8924,374.89371 488.6365,377.37632 485.7062,379.94035 C 482.77588,382.50437 480.78165,383.07416 480.17116,385.1498 C 479.56068,387.22543 481.71771,388.3243 484.40383,388.40569 C 487.08995,388.48709 490.59004,385.96377 490.59004,385.96377 C 490.59004,385.96377 491.03773,388.0394 493.52035,388.2429 C 496.00297,388.44638 500.52054,386.77774 500.52054,386.77774 C 500.52054,386.77774 504.30552,388.4791 507.19513,388.11281 C 510.08475,387.74652 512.53466,385.92016 512.53466,385.92016 C 512.53466,385.92016 513.29994,389.26037 516.14886,389.38247 C 518.99777,389.50456 523.47463,385.80097 523.47463,385.80097 C 523.47463,385.80097 525.55027,388.2429 528.19569,387.91731 C 530.84111,387.59172 534.0563,384.49861 534.0563,384.49861 C 534.0563,384.49861 537.3122,385.88238 540.40531,384.987 C 543.49841,384.09163 546.42873,380.91712 546.42873,380.91712 C 546.42873,380.91712 549.15554,383.19625 551.63816,382.38227 C 554.12079,381.5683 555.75165,378.1169 555.75165,378.1169 C 555.75165,378.1169 562.38844,380.74051 566.77809,378.63799 C 569.88682,377.149 569.05722,372.28899 569.05722,372.28899 C 569.05722,372.28899 587.29196,374.93822 586.47629,363.00967 C 586.39204,361.77759 557.22246,362.18018 544.31239,359.75378 z " id="path3928" sodipodi:nodetypes="ccscccssscscscscscscscscss"/>
  <path sodipodi:nodetypes="ccccssssssssssssssssssssssssssssssssccssssssssssssscscccsccssc" id="path3930" d="M 505.60562,347.15069 C 505.60562,347.15069 510.82655,345.13757 520.24806,343.18953 C 537.80881,339.55857 543.8882,340.73725 545.1605,339.6451 C 559.09425,324.18997 569.29811,322.94374 579.41248,318.95442 C 587.46453,312.21795 590.07408,302.57406 598.60893,292.68139 C 607.14379,282.78872 612.14938,282.00176 612.14938,282.00176 L 613.29929,284.20806 C 613.29929,284.20806 617.87473,280.7591 617.64281,283.67402 C 617.29482,288.04787 613.67673,292.25152 613.83022,295.32489 C 613.92721,297.26679 620.08118,294.47975 619.52679,296.2572 C 618.0955,300.84612 613.15985,303.66069 611.74978,305.58577 C 609.64794,308.45526 617.35716,304.57786 615.78282,307.56942 C 614.1859,310.60388 606.39898,313.629 603.36891,315.56202 C 601.50202,316.753 605.40257,317.00948 605.01462,318.3673 C 604.62667,319.72512 596.57438,322.68443 596.71102,323.67129 C 596.90371,325.06294 598.88903,325.19488 597.92554,326.24899 C 596.23688,328.09645 589.59122,328.35903 589.48929,329.48068 C 589.38183,330.66306 590.88943,331.82281 589.3999,333.70627 C 587.08724,336.63054 585.25499,333.7023 584.29422,336.07574 C 583.73859,337.44837 588.10699,340.2047 585.15713,340.74256 C 581.09592,341.48307 578.08067,343.19177 574.61868,345.3816 C 573.31583,346.2057 567.40931,347.30932 563.98717,348.18854 C 561.72711,348.76921 549.29103,350.32064 549.80854,351.30535 C 550.32038,352.27928 558.19508,352.1685 574.7469,349.3051 C 581.93874,348.06094 586.07401,347.16854 597.27245,343.62878 C 610.0744,339.58215 593.99091,339.29826 596.60956,337.55249 C 599.22821,335.80673 610.38527,336.66013 610.76806,334.19639 C 611.21474,331.32143 604.59545,332.18635 604.77636,330.62063 C 604.94854,329.13062 618.30545,329.16754 619.05893,325.65312 C 619.48637,323.65938 611.41961,325.06857 613.35935,322.64389 C 615.29908,320.21922 625.98838,319.70628 626.33154,315.10384 C 626.53706,312.34724 617.62668,315.67067 618.79823,313.4286 C 619.26872,312.52818 622.86327,311.54605 626.43949,309.05037 C 632.01642,305.15847 640.90486,298.41676 640.41299,294.54187 C 639.81134,289.80219 621.95343,305.57891 623.49399,299.54112 C 624.03907,297.40483 652.63193,274.77362 647.9398,269.27841 C 644.75573,265.54937 624.38289,289.88552 623.7161,284.99374 C 623.50549,283.44865 655.50252,247.24803 649.65438,235.91168 C 648.11405,232.9258 624.04888,279.11441 620.66673,275.11737 C 619.72798,274.00796 641.20706,229.55462 637.79936,225.06338 C 636.14439,222.88218 632.79535,230.26956 629.11145,238.47802 C 625.42757,246.68648 621.40884,255.71602 620.59476,256.81916 C 619.71799,258.00725 621.52774,239.42871 620.70665,233.73587 C 620.36354,231.35698 617.722,232.36248 617.722,232.36248 C 614.00504,290.28121 558.31762,333.2931 513.96773,339.63849 C 502.4323,341.28894 498.75515,346.70414 486.18721,353.8094 C 481.9378,356.2118 475.42202,357.34704 469.78334,360.49042 C 464.14467,363.63379 460.13113,368.4113 458.26818,371.36614 C 457.36418,372.79996 458.65467,376.99762 459.84452,377.4957 C 461.03436,377.99377 460.95135,374.36888 462.27956,373.73245 C 463.60777,373.09602 463.60776,375.03299 465.15733,374.94997 C 466.70691,374.86696 468.47784,373.4004 468.47784,373.4004 C 468.47784,373.4004 499.77959,373.34126 513.17125,372.95767 C 515.57161,372.88843 519.5877,371.92247 521.29379,370.10065 C 520.77597,368.62249 517.15544,369.44484 514.87377,369.55106 C 505.42205,368.88037 493.03026,369.47812 484.19314,368.93498 C 484.19314,368.93498 482.73596,368.84044 482.86671,367.42348 C 482.92457,366.79652 488.51157,360.78247 488.51157,360.78247 L 484.08423,360.78247 C 484.08423,360.78247 481.42782,362.30437 480.09962,362.44273 C 478.77142,362.58108 478.25425,361.7286 478.77142,361.33589 C 485.52952,356.20414 505.60562,347.15069 505.60562,347.15069 z " style="fill: rgb(255, 201, 28); fill-opacity: 1; fill-rule: evenodd; stroke: rgb(255, 201, 28); stroke-width: 1px; stroke-linecap: butt; stroke-linejoin: miter; stroke-opacity: 1;"/>
  <path style="fill: rgb(0, 176, 199); fill-opacity: 1; fill-rule: evenodd; stroke: rgb(0, 176, 199); stroke-width: 1px; stroke-linecap: butt; stroke-linejoin: miter; stroke-opacity: 1;" d="M 474.56544,366.09528 C 474.5101,365.40352 473.05708,365.81798 471.95024,366.06702 C 470.8434,366.31605 470.19344,366.8424 470.24878,367.53417 C 470.30412,368.22594 471.7006,367.88095 472.80744,367.63191 C 473.91428,367.38288 474.62078,366.78705 474.56544,366.09528 z " id="path3932" sodipodi:nodetypes="cssss"/>
  <use xlink:href="#be" height="500" width="1000" y="0" x="0" id="use3938" style="fill: rgb(255, 201, 28);" transform="matrix(0.942764, 0.187527, -0.187527, 0.942764, 500.313, 211.092)"/>
  <use xlink:href="#be" height="500" width="1000" y="0" x="0" id="use3940" style="fill: rgb(255, 201, 28);" transform="matrix(0.888064, 0.367848, -0.367848, 0.888064, 500.313, 211.092)"/>
  <use xlink:href="#be" height="500" width="1000" y="0" x="0" id="use3942" style="fill: rgb(255, 201, 28);" transform="matrix(0.799236, 0.534033, -0.534033, 0.799236, 500.313, 211.092)"/>
  <use xlink:href="#be" height="500" width="1000" y="0" x="0" id="use3944" style="fill: rgb(255, 201, 28);" transform="matrix(0.679695, 0.679695, -0.679695, 0.679695, 500.313, 211.092)"/>
  <use xlink:href="#be" height="500" width="1000" y="0" x="0" id="use3946" style="fill: rgb(255, 201, 28);" transform="matrix(0.534033, 0.799236, -0.799236, 0.534033, 500.313, 211.092)"/>
  <use xlink:href="#be" height="500" width="1000" y="0" x="0" id="use3948" style="fill: rgb(255, 201, 28);" transform="matrix(0.367848, 0.888064, -0.888064, 0.367848, 500.313, 211.092)"/>
  <use xlink:href="#be" height="500" width="1000" y="0" x="0" id="use3950" style="fill: rgb(255, 201, 28);" transform="matrix(0.187527, 0.942764, -0.942764, 0.187527, 500.313, 211.092)"/>
  <use xlink:href="#be" height="500" width="1000" y="0" x="0" id="use3952" style="fill: rgb(255, 201, 28);" transform="matrix(0, 0.961233, -0.961233, 0, 500.313, 211.092)"/>
  <use xlink:href="#be" height="500" width="1000" y="0" x="0" id="use3954" style="fill: rgb(255, 201, 28);" transform="matrix(-0.187527, 0.942764, -0.942764, -0.187527, 500.313, 211.092)"/>
  <use xlink:href="#be" height="500" width="1000" y="0" x="0" id="use3956" style="fill: rgb(255, 201, 28);" transform="matrix(-0.367848, 0.888064, -0.888064, -0.367848, 500.313, 211.092)"/>
  <use xlink:href="#be" height="500" width="1000" y="0" x="0" id="use3958" style="fill: rgb(255, 201, 28);" transform="matrix(-0.534033, 0.799236, -0.799236, -0.534033, 500.313, 211.092)"/>
  <use xlink:href="#be" height="500" width="1000" y="0" x="0" id="use3960" style="fill: rgb(255, 201, 28);" transform="matrix(-0.679695, 0.679695, -0.679695, -0.679695, 500.313, 211.092)"/>
  <use xlink:href="#be" height="500" width="1000" y="0" x="0" id="use3962" style="fill: rgb(255, 201, 28);" transform="matrix(-0.799236, 0.534033, -0.534033, -0.799236, 500.313, 211.092)"/>
  <use xlink:href="#be" height="500" width="1000" y="0" x="0" id="use3964" style="fill: rgb(255, 201, 28);" transform="matrix(-0.888064, 0.367848, -0.367848, -0.888064, 500.313, 211.092)"/>
  <use xlink:href="#be" height="500" width="1000" y="0" x="0" id="use3974" style="fill: rgb(255, 201, 28);" transform="matrix(-0.799236, -0.534033, 0.534033, -0.799236, 500.313, 211.092)"/>
  <use xlink:href="#be" height="500" width="1000" y="0" x="0" id="use3976" style="fill: rgb(255, 201, 28);" transform="matrix(-0.679695, -0.679695, 0.679695, -0.679695, 500.313, 211.092)"/>
  <use xlink:href="#be" height="500" width="1000" y="0" x="0" id="use3978" style="fill: rgb(255, 201, 28);" transform="matrix(-0.534033, -0.799236, 0.799236, -0.534033, 500.313, 211.092)"/>
  <use xlink:href="#be" height="500" width="1000" y="0" x="0" id="use3980" style="fill: rgb(255, 201, 28);" transform="matrix(-0.367848, -0.888064, 0.888064, -0.367848, 500.313, 211.092)"/>
  <use xlink:href="#be" height="500" width="1000" y="0" x="0" id="use3982" style="fill: rgb(255, 201, 28);" transform="matrix(-0.187527, -0.942764, 0.942764, -0.187527, 500.313, 211.092)"/>
  <use xlink:href="#be" height="500" width="1000" y="0" x="0" id="use3984" style="fill: rgb(255, 201, 28);" transform="matrix(0, -0.961233, 0.961233, 0, 500.313, 211.092)"/>
  <use xlink:href="#be" height="500" width="1000" y="0" x="0" id="use3986" style="fill: rgb(255, 201, 28);" transform="matrix(0.187527, -0.942764, 0.942764, 0.187527, 500.313, 211.092)"/>
  <use xlink:href="#be" height="500" width="1000" y="0" x="0" id="use3988" style="fill: rgb(255, 201, 28);" transform="matrix(0.367848, -0.888064, 0.888064, 0.367848, 500.313, 211.092)"/>
  <use xlink:href="#be" height="500" width="1000" y="0" x="0" id="use3990" style="fill: rgb(255, 201, 28);" transform="matrix(0.534033, -0.799236, 0.799236, 0.534033, 500.313, 211.092)"/>
  <use xlink:href="#be" height="500" width="1000" y="0" x="0" id="use3992" style="fill: rgb(255, 201, 28);" transform="matrix(0.679695, -0.679695, 0.679695, 0.679695, 500.313, 211.092)"/>
  <circle id="circle3934" style="fill: rgb(255, 201, 28); fill-opacity: 1;" transform="matrix(0.941741, 0, 0, 0.941741, 500.231, 211.174)" r="68.699997" cy="0" cx="0" sodipodi:cx="0" sodipodi:cy="0" sodipodi:rx="68.699997" sodipodi:ry="68.699997"/>
  <use xlink:href="#be" height="500" width="1000" y="0" x="0" id="use3936" style="fill: rgb(255, 201, 28); fill-opacity: 1;" transform="matrix(0.961233, 0, 0, 0.961233, 500.313, 211.092)"/>
  <use xlink:href="#be" height="500" width="1000" y="0" x="0" id="use3966" style="fill: rgb(255, 201, 28); fill-opacity: 1;" transform="matrix(-0.942764, 0.187527, -0.187527, -0.942764, 500.313, 211.092)"/>
  <use xlink:href="#be" height="500" width="1000" y="0" x="0" id="use3968" style="fill: rgb(255, 201, 28); fill-opacity: 1;" transform="matrix(-0.961233, 0, 0, -0.961233, 500.313, 211.092)"/>
  <use xlink:href="#be" height="500" width="1000" y="0" x="0" id="use3970" style="fill: rgb(255, 201, 28); fill-opacity: 1;" transform="matrix(-0.942764, -0.187527, 0.187527, -0.942764, 500.313, 211.092)"/>
  <use xlink:href="#be" height="500" width="1000" y="0" x="0" id="use3972" style="fill: rgb(255, 201, 28); fill-opacity: 1;" transform="matrix(-0.888064, -0.367848, 0.367848, -0.888064, 500.313, 211.092)"/>
  <use xlink:href="#be" height="500" width="1000" y="0" x="0" id="use3994" style="fill: rgb(255, 201, 28); fill-opacity: 1;" transform="matrix(0.799236, -0.534033, 0.534033, 0.799236, 500.313, 211.092)"/>
  <use xlink:href="#be" height="500" width="1000" y="0" x="0" id="use3996" style="fill: rgb(255, 201, 28); fill-opacity: 1;" transform="matrix(0.888064, -0.367848, 0.367848, 0.888064, 500.313, 211.092)"/>
  <use xlink:href="#be" height="500" width="1000" y="0" x="0" id="use3998" style="fill: rgb(255, 201, 28); fill-opacity: 1;" transform="matrix(0.942764, -0.187527, 0.187527, 0.942764, 500.313, 211.092)"/>
</svg>