<?xml version="1.0" encoding="UTF-8" standalone="no"?>
<!-- Created with Sodipodi ("http://www.sodipodi.com/") -->
<svg xmlns:dc="http://purl.org/dc/elements/1.1/" xmlns:cc="http://web.resource.org/cc/" xmlns:rdf="http://www.w3.org/1999/02/22-rdf-syntax-ns#" xmlns:svg="http://www.w3.org/2000/svg" xmlns="http://www.w3.org/2000/svg" xmlns:sodipodi="http://inkscape.sourceforge.net/DTD/sodipodi-0.dtd" xmlns:inkscape="http://www.inkscape.org/namespaces/inkscape" height="100%" viewBox="0 0 750 500" id="svg761" sodipodi:docbase="C:\Documents and Settings\David Nelson\Archives\Svg" sodipodi:docname="Flag_of_Saudi_Arabia.svg" sodipodi:version="0.32" width="100%" inkscape:version="0.43" version="1.0">
  <metadata id="metadata8707">
    <rdf:RDF>
      <cc:Work rdf:about="">
        <dc:title>Saudi Arabia</dc:title>
        <dc:description/>
        <dc:subject>
          <rdf:Bag>
            <rdf:li/>
            <rdf:li>asia</rdf:li>
            <rdf:li>united_nations_member</rdf:li>
            <rdf:li>flag</rdf:li>
            <rdf:li>arab</rdf:li>
            <rdf:li>sign</rdf:li>
          </rdf:Bag>
        </dc:subject>
        <dc:publisher>
          <cc:Agent rdf:about="http://www.openclipart.org">
            <dc:title>Cezary Biele</dc:title>
          </cc:Agent>
        </dc:publisher>
        <dc:creator>
          <cc:Agent>
            <dc:title>Cezary Biele</dc:title>
          </cc:Agent>
        </dc:creator>
        <dc:rights>
          <cc:Agent>
            <dc:title>Cezary Biele</dc:title>
          </cc:Agent>
        </dc:rights>
        <dc:date/>
        <dc:format>image/svg+xml</dc:format>
        <dc:type rdf:resource="http://purl.org/dc/dcmitype/StillImage"/>
        <cc:license rdf:resource="http://web.resource.org/cc/PublicDomain"/>
        <dc:language>en</dc:language>
      </cc:Work>
      <cc:License rdf:about="http://web.resource.org/cc/PublicDomain">
        <cc:permits rdf:resource="http://web.resource.org/cc/Reproduction"/>
        <cc:permits rdf:resource="http://web.resource.org/cc/Distribution"/>
        <cc:permits rdf:resource="http://web.resource.org/cc/DerivativeWorks"/>
      </cc:License>
    </rdf:RDF>
  </metadata>
  <defs id="defs763"/>
  <sodipodi:namedview id="base" inkscape:zoom="0.746" inkscape:cx="375" inkscape:cy="250" inkscape:window-width="756" inkscape:window-height="540" inkscape:window-x="64" inkscape:window-y="102" inkscape:current-layer="svg761"/>
  <rect height="500" id="rect681" style="font-size: 12px; fill: rgb(0, 149, 48); fill-opacity: 1; fill-rule: evenodd; stroke: none; stroke-width: 1pt; stroke-opacity: 1;" width="750" x="0" y="3.5527137e-014"/>
  <path d="M 189.00422,141.73202 C 188.13841,153.413 187.09922,173.96885 197.02437,176.07746 C 209.0289,177.23154 202.40978,155.75947 206.75499,151.86581 C 207.57646,149.94166 209.09139,149.93158 209.21637,152.35869 C 209.21637,158.4295 209.21637,164.50131 209.21637,170.57211 C 209.10651,176.49474 213.00017,178.23948 216.02499,179.46312 C 219.17277,179.2202 221.27432,179.32503 222.50803,182.38815 C 222.99991,192.88984 223.49279,203.39153 223.98466,213.89322 C 223.98466,213.89322 231.28514,215.98267 231.63288,196.17269 C 231.98163,184.5411 229.30959,174.80443 230.87592,172.54162 C 230.93136,170.31811 233.77072,170.18506 235.74022,171.26859 C 238.87793,173.48202 240.27594,176.21554 245.15234,175.12193 C 252.57276,173.07784 257.03288,169.46842 257.14275,163.77055 C 256.70934,158.35592 256.10256,152.94027 253.75608,147.52564 C 254.08366,146.54088 252.3238,143.9898 252.65037,143.00504 C 253.98387,145.09349 256.01285,144.92012 256.47449,143.00504 C 255.21154,138.84327 253.25211,134.85588 250.0751,133.13029 C 247.44942,130.81707 243.60717,131.2898 242.20009,136.11378 C 241.54795,141.67255 244.20387,148.27655 248.25174,153.66095 C 249.11151,155.76451 250.31902,159.26004 249.78784,162.40782 C 247.63387,163.6365 245.47991,163.12446 243.67571,161.21946 C 243.67571,161.21946 237.7692,156.78958 237.7692,155.80483 C 239.33654,145.76981 238.11694,144.63185 237.2481,141.84692 C 236.64132,138.00265 234.81695,136.76995 233.33932,134.14427 C 231.86168,132.57794 229.86295,132.57794 228.90742,134.14427 C 226.29687,138.66991 227.51445,148.38541 229.4003,152.73667 C 230.76303,156.73919 232.84543,159.25096 231.86168,159.25096 C 231.0513,161.51277 229.37611,160.99066 228.15752,158.38011 C 226.41782,152.98462 226.06907,144.93423 226.06907,141.30869 C 225.54696,136.8143 224.97345,127.22781 222.01515,124.79163 C 220.21095,122.33428 217.53588,123.53272 216.60153,125.77538 C 216.40699,130.2365 216.38684,134.69662 216.88879,138.808 C 218.91776,146.01877 219.55478,152.35869 220.53953,159.74284 C 220.81268,169.63372 214.8205,164.03463 215.09466,159.13102 C 216.47654,152.76187 216.11772,142.73693 214.89005,140.19592 C 213.91638,137.65492 212.76733,137.02798 210.39969,137.44627 C 208.51989,137.33137 203.6828,142.61296 202.32511,151.37394 C 202.32511,151.37394 201.16699,155.88345 200.6731,159.88697 C 200.00887,164.4116 197.03042,167.60474 194.94198,159.25096 C 193.13676,153.17915 192.02703,138.23146 189.00422,141.73202 z " id="path766" sodipodi:nodetypes="cccccccccccccccccccccccccccccccccccccccc" style="fill: rgb(255, 255, 255); fill-opacity: 1; fill-rule: evenodd; stroke: none; stroke-width: 1pt; stroke-linecap: butt; stroke-linejoin: round; stroke-opacity: 1;"/>
  <path d="M 221.62508,189.65436 C 211.03167,194.83314 200.78599,199.66418 190.36494,204.66858 C 190.74594,197.58279 205.22696,184.79208 215.10272,184.61165 C 221.53034,184.79107 219.91562,187.10227 221.62508,189.65436 z " id="path767" sodipodi:nodetypes="cccc" style="fill: rgb(255, 255, 255); fill-opacity: 1; fill-rule: evenodd; stroke: none; stroke-width: 1pt; stroke-linecap: butt; stroke-linejoin: miter; stroke-opacity: 1;"/>
  <path style="fill: rgb(255, 255, 255); fill-opacity: 1; fill-rule: evenodd; stroke: none; stroke-width: 1pt; stroke-linecap: butt; stroke-linejoin: miter; stroke-opacity: 1;" d="M 261.52803,123.50374 C 260.93228,123.57902 260.28913,123.9229 259.51215,124.1022 C 256.96005,124.9146 254.56898,127.11593 255.32292,131.40974 C 258.33967,149.74208 260.30666,163.72519 263.32341,182.05855 C 263.78707,184.20546 261.98991,187.04103 259.66964,186.75176 C 255.72459,184.08275 254.74739,178.67793 248.01538,178.90875 C 243.14201,178.96721 237.55955,184.25888 236.86508,189.36609 C 236.05269,193.42504 235.76341,197.82696 236.86508,201.36684 C 240.29006,205.48526 244.41805,205.06798 248.01538,204.13866 C 250.97367,202.92107 253.39574,199.9784 254.44097,200.67388 C 254.4437,200.67728 254.46979,200.67021 254.47247,200.67388 C 254.47511,200.67782 254.46987,200.70116 254.47247,200.70538 C 255.11756,201.83293 254.39559,211.38575 240.51885,218.75374 C 231.99071,222.58289 225.20981,223.48021 221.55705,216.51738 C 219.29423,212.16612 221.74175,195.6153 216.17088,199.44546 C 199.69615,241.91285 254.74562,247.82313 260.89807,201.17785 C 261.29651,199.86193 262.52978,198.55477 263.38641,198.87849 C 263.76231,199.03857 264.08159,199.53041 264.20536,200.48489 C 262.92829,242.71945 221.61525,245.616 214.59598,232.32939 C 212.85629,229.19773 212.34501,222.23868 212.17064,218.06078 C 211.85247,215.5333 211.20487,214.07066 210.46974,213.49357 C 208.79524,212.23541 206.54157,215.51488 206.06002,221.21059 C 205.36354,225.79366 205.55605,227.07022 205.55605,231.47894 C 207.76042,264.83761 260.94846,250.49996 269.59152,222.94298 C 273.87026,208.69712 269.51506,197.93024 270.94593,196.61064 C 270.95831,196.60025 270.99572,196.58819 271.00893,196.57914 C 271.02256,196.57075 271.05744,196.55468 271.07193,196.54764 C 271.08684,196.54127 271.11912,196.52117 271.13492,196.51614 C 271.18367,196.5031 271.26687,196.48539 271.32391,196.48464 C 276.60349,202.17142 283.99922,197.22875 285.62401,195.25622 C 286.3205,194.26946 288.06019,193.63369 289.27778,194.90974 C 293.39621,197.87004 300.62211,196.47708 302.12897,191.25597 C 302.99982,186.15078 303.71849,180.8959 303.89286,175.44397 C 301.21017,176.27689 299.063,176.88793 298.19172,177.80632 C 297.98422,178.03291 297.82752,178.29021 297.78224,178.56227 C 297.5494,180.07115 297.32212,181.58911 297.08929,183.09799 C 297.06443,183.22272 297.02333,183.34067 296.9633,183.44446 C 296.84895,183.62967 296.65597,183.80419 296.45933,183.91693 C 295.5109,184.43476 293.86728,184.12947 293.782,182.75151 C 292.50596,176.94984 287.24024,176.18304 284.04911,185.17686 C 281.90219,186.91655 277.99922,187.25194 277.59202,184.64139 C 278.11414,178.60788 275.69231,177.79775 270.81994,180.64114 C 269.2536,168.69004 267.69408,157.28297 266.12674,145.33186 C 268.15773,145.2734 270.00276,146.77019 271.85938,144.44992 C 269.85019,138.20123 265.62449,125.48426 263.22892,124.29119 C 263.2101,124.28248 263.18452,124.26695 263.16592,124.25969 C 263.05716,124.12919 262.92575,124.00625 262.81945,123.91321 C 262.77522,123.87567 262.70591,123.8189 262.66196,123.78722 C 262.61804,123.75668 262.54821,123.7178 262.50447,123.69273 C 262.40829,123.63991 262.28555,123.59595 262.18949,123.56674 C 261.97108,123.50483 261.75369,123.47523 261.52803,123.50374 z M 246.69246,189.08261 C 247.77397,188.94964 249.00221,189.36113 249.62178,190.90949 C 250.10962,192.15228 249.64042,193.44571 249.05481,194.09079 C 249.05226,194.09581 249.05751,194.11738 249.05481,194.12229 C 249.0463,194.13669 249.03309,194.17184 249.02332,194.18529 C 248.60882,194.71933 247.16208,194.50027 246.1255,194.50027 C 244.87162,194.44483 244.26409,194.22888 243.51116,193.20885 C 243.15133,192.07492 244.22528,190.9677 244.70809,190.12204 C 244.71271,190.11417 244.73465,190.09843 244.73959,190.09055 C 244.792,190.01176 244.87933,189.9153 244.96007,189.83856 C 245.33507,189.49509 245.99721,189.16808 246.69246,189.08261 z " id="path768"/>
  <path style="fill: rgb(255, 255, 255); fill-opacity: 1; fill-rule: evenodd; stroke: none; stroke-width: 1pt; stroke-linecap: butt; stroke-linejoin: miter; stroke-opacity: 1;" d="M 298.59375 122.53125 C 297.17218 122.6037 295.9172 123.01116 294.84375 123.5625 C 292.11728 126.17305 291.47809 130.35819 293.625 132.96875 C 295.71446 133.95552 297.79922 136.05861 296.40625 137.21875 C 290.49751 143.52981 275.1191 154.07553 274.34375 156 C 274.33823 156.01569 274.31589 156.04806 274.3125 156.0625 C 274.31018 156.07631 274.31265 156.11247 274.3125 156.125 C 274.31297 156.13094 274.31147 156.15063 274.3125 156.15625 C 274.31725 156.17214 274.33394 156.20583 274.34375 156.21875 C 274.34759 156.22272 274.37059 156.24636 274.375 156.25 C 274.37999 156.2533 274.40068 156.24704 274.40625 156.25 C 274.41241 156.25262 274.43075 156.27897 274.4375 156.28125 C 274.44484 156.28318 274.46082 156.27966 274.46875 156.28125 C 274.47107 156.28348 274.49737 156.31029 274.5 156.3125 C 275.28147 156.83666 284.904 156.82426 285.96875 156.34375 C 285.9764 156.3397 285.99356 156.31662 286 156.3125 C 286.00292 156.31043 286.02864 156.31459 286.03125 156.3125 C 286.03355 156.31039 286.02926 156.28337 286.03125 156.28125 C 289.3383 155.06266 305.03125 137.125 305.03125 137.125 C 304.21783 136.42853 303.46865 135.91523 302.65625 135.21875 C 301.78539 134.46482 301.87308 133.72369 302.65625 132.96875 C 306.54285 130.70694 305.31124 125.73055 303.28125 123.46875 C 301.5985 122.7143 300.01532 122.4588 298.59375 122.53125 z M 297.84375 128.09375 C 298.80354 127.99594 299.96325 128.87782 300.53125 130.125 C 301.13713 131.45533 300.83324 132.7264 299.84375 132.96875 C 298.85427 133.21111 297.57462 132.33033 296.96875 131 C 296.36289 129.66967 296.66676 128.36735 297.65625 128.125 C 297.71809 128.10985 297.77976 128.10027 297.84375 128.09375 z " id="path769"/>
  <path d="M 191.44141,219.72212 C 185.56615,229.08181 185.05513,243.06492 188.29665,247.23374 C 190.01922,249.20325 192.8495,250.06604 194.94299,249.44919 C 198.63405,247.84858 200.24977,240.36969 199.37387,237.63416 C 198.14218,235.70597 197.17153,235.40057 195.94185,237.04048 C 193.3444,242.314 192.26591,238.69652 192.03811,235.74931 C 191.63998,230.16031 192.16612,225.01277 192.7729,220.93668 C 193.41899,216.75878 192.76181,218.03584 191.44141,219.72212 z " id="path770" sodipodi:nodetypes="ccccccsc" style="fill: rgb(255, 255, 255); fill-opacity: 1; fill-rule: evenodd; stroke: none; stroke-width: 1pt; stroke-linecap: butt; stroke-linejoin: miter; stroke-opacity: 1;"/>
  <path d="M 442.50127,204.7341 C 436.82054,192.50682 428.95661,180.42368 426.45391,175.78213 C 423.95221,171.13857 405.06247,143.72471 402.28157,140.64143 C 396.14526,133.34901 412.24603,143.67834 400.24453,129.20034 C 395.6685,125.27443 395.40241,125.03555 391.6045,121.83233 C 389.68842,120.47262 385.01058,117.98907 384.18206,122.10548 C 383.76578,125.73506 383.99055,127.70356 384.60035,130.72535 C 385.06803,132.74022 388.00315,136.11479 389.44651,138.07019 C 408.61142,163.83103 425.60523,189.84688 441.99327,222.55643 C 444.58064,221.32675 444.01519,206.78021 442.50127,204.7341 z " id="path771" sodipodi:nodetypes="csccccsccc" style="fill: rgb(255, 255, 255); fill-opacity: 1; fill-rule: evenodd; stroke: none; stroke-width: 1pt; stroke-linecap: butt; stroke-linejoin: miter; stroke-opacity: 1;"/>
  <path d="M 417.56693,245.64423 C 416.45014,246.8981 420.32465,252.26133 425.3603,252.25629 C 433.78161,251.27859 441.19498,246.54835 448.05903,234.0963 C 449.89448,231.19243 453.12088,224.98153 453.21563,220.16359 C 453.85769,191.91617 451.8015,169.9361 447.56917,149.52034 C 447.29804,147.53169 447.46334,145.19428 447.79999,144.59758 C 448.34528,143.94646 450.19484,144.60061 451.17557,142.99194 C 452.6149,141.52237 447.35347,129.34952 444.35385,124.6606 C 443.28846,122.56711 442.91754,121.16911 441.15466,124.90654 C 439.30006,127.94446 438.05425,133.24519 438.2004,138.19819 C 442.21804,166.0122 443.45175,190.3448 446.07742,218.15981 C 446.29111,220.85 445.896,224.75877 444.10792,226.31704 C 437.49384,233.22342 427.94767,241.72436 417.56693,245.64423 z " id="path793" sodipodi:nodetypes="ccccccccccccc" style="fill: rgb(255, 255, 255); fill-opacity: 1; fill-rule: evenodd; stroke: none; stroke-width: 1pt; stroke-linecap: butt; stroke-linejoin: miter; stroke-opacity: 1;"/>
  <path d="M 531.32869,245.49505 C 525.28511,248.98856 525.27805,253.0072 530.16453,253.15235 C 538.58584,252.17465 548.53619,251.47514 555.40023,241.11254 C 557.23669,238.20868 559.41787,230.35585 559.51262,225.53791 C 560.15467,197.29049 559.14371,169.66282 554.91139,149.24707 C 554.64025,147.25841 553.76032,142.68137 554.09697,142.08467 C 554.64227,140.68666 557.38789,142.23687 558.36861,140.6282 C 559.80794,139.15863 551.26165,128.18019 548.26203,123.49127 C 547.19664,121.39778 546.82572,119.99977 545.06284,123.7372 C 543.20823,126.77512 542.56013,132.22504 543.30298,137.02886 C 547.76814,167.23168 551.09231,196.466 551.77771,223.23578 C 551.39369,225.77679 551.29793,227.14658 550.10655,230.34778 C 547.4708,233.72639 544.55081,237.95065 541.81224,239.99273 C 539.07469,242.0338 533.23369,243.98214 531.32869,245.49505 z " id="path794" sodipodi:nodetypes="ccccccccccccsc" style="fill: rgb(255, 255, 255); fill-opacity: 1; fill-rule: evenodd; stroke: none; stroke-width: 1pt; stroke-linecap: butt; stroke-linejoin: miter; stroke-opacity: 1;"/>
  <path d="M 535.85836,218.41986 C 535.78881,211.35624 535.95815,205.25722 535.72531,199.98873 C 535.49349,194.72025 533.08465,174.94321 532.27427,170.67258 C 531.46489,166.40296 530.66446,160.00861 529.44083,154.94172 C 529.10519,152.96314 528.07709,146.62624 528.39459,146.01846 C 528.89352,144.60432 530.79348,146.06281 531.72179,144.4239 C 533.11173,142.90897 526.90083,126.83843 523.75002,122.2493 C 522.6171,120.1921 520.5599,120.89665 518.02292,124.24199 C 515.6704,126.44332 516.54327,131.46385 517.44135,136.24046 C 523.48392,167.77477 527.99142,200.83238 527.00767,230.85074 C 526.7063,233.40284 535.92085,223.2378 535.85836,218.41986 z " id="path795" sodipodi:nodetypes="csscccccccc" style="fill: rgb(255, 255, 255); fill-opacity: 1; fill-rule: evenodd; stroke: none; stroke-width: 1pt; stroke-linecap: butt; stroke-linejoin: miter; stroke-opacity: 1;"/>
  <path d="M 491.20778,179.30386 C 487.40685,179.23431 479.44617,171.90762 477.12288,167.61482 C 476.24496,165.15243 476.8084,162.75052 477.5825,161.34344 C 478.98958,160.42823 481.15462,159.40014 482.77337,160.3859 C 482.77337,160.3859 484.45158,162.73439 484.12703,163.03274 C 486.20237,164.02657 487.08331,163.45507 487.29396,162.61042 C 487.43508,161.13278 486.68013,160.25185 486.67207,158.62403 C 487.552,154.20927 492.59773,153.52286 494.49769,156.33803 C 495.88864,158.05454 496.39865,161.70126 496.60931,164.16365 C 496.58714,165.42155 494.5501,163.94593 493.39299,164.24831 C 492.23487,164.5517 491.95668,165.88722 491.86697,167.09573 C 491.65732,170.29694 491.27834,175.43338 491.20778,179.30386 z " id="path796" sodipodi:nodetypes="cccccccccscc" style="fill: rgb(255, 255, 255); fill-opacity: 1; fill-rule: evenodd; stroke: none; stroke-width: 1pt; stroke-linecap: butt; stroke-linejoin: miter; stroke-opacity: 0.528302;"/>
  <path d="M 421.0685,226.25052 C 422.11575,216.65295 420.68146,197.06036 420.5857,191.39677 C 420.20168,178.01742 418.01647,152.17594 416.97628,147.85895 C 415.80405,139.72087 420.32364,148.75198 419.69771,144.02173 C 418.23217,135.89474 413.72468,130.38637 408.42596,122.94276 C 406.7175,120.52169 406.77496,120.02781 404.13719,123.53643 C 401.2182,130.15858 403.73804,134.71344 404.49198,139.87004 C 408.31307,156.67235 410.54262,172.13308 411.5808,187.41642 C 412.61897,202.70077 412.93748,221.72489 411.99002,237.82163 C 414.85357,237.93452 419.45782,233.18916 421.0685,226.25052 z " id="path797" sodipodi:nodetypes="cscccccscc" style="fill: rgb(255, 255, 255); fill-opacity: 1; fill-rule: evenodd; stroke: none; stroke-width: 1pt; stroke-linecap: butt; stroke-linejoin: miter; stroke-opacity: 1;"/>
  <path d="M 548.79422,210.87747 C 542.09245,199.63192 531.97881,186.45303 529.27654,181.92437 C 526.57527,177.3947 503.72333,143.88277 500.8114,140.92346 C 492.45158,132.14131 504.64559,139.49421 499.2108,132.7108 C 494.61461,127.66406 493.27405,126.07958 489.34008,123.04469 C 487.36754,121.76965 486.17213,119.33548 485.52403,123.48415 C 485.266,127.12884 484.99688,131.34504 485.24181,134.41723 C 485.22769,136.12468 487.00569,139.33294 488.53272,141.22383 C 508.80131,166.12591 530.90839,196.5809 548.70552,228.54559 C 551.23746,227.20403 550.39583,212.85605 548.79422,210.87747 z " id="path798" sodipodi:nodetypes="csccccsccc" style="fill: rgb(255, 255, 255); fill-opacity: 1; fill-rule: evenodd; stroke: none; stroke-width: 1pt; stroke-linecap: butt; stroke-linejoin: miter; stroke-opacity: 1;"/>
  <path style="fill: rgb(255, 255, 255); fill-opacity: 1; fill-rule: evenodd; stroke: none; stroke-width: 1.25; stroke-linecap: butt; stroke-linejoin: round; stroke-dasharray: none; stroke-opacity: 1;" d="M 467.625 343.59375 C 467.61724 343.59735 467.60162 343.61958 467.59375 343.625 C 461.66608 345.14597 461.85049 351.29988 465.65625 354 C 403.06237 354 307.00877 352.93749 286.40625 352.9375 C 274.88151 352.9375 238.41927 351.56249 237.71875 351.5625 C 245.53832 362.99956 256.86578 365.32865 271.6875 365.5625 C 299.48921 365.5625 428.30736 365.21875 464.96875 365.21875 C 462.36255 369.84623 465.2052 377.29278 467.25 378.65625 C 467.29336 378.68415 467.36369 378.72773 467.40625 378.75 C 467.48254 378.78803 467.58318 378.82486 467.65625 378.84375 C 467.68047 378.84932 467.7262 378.84039 467.75 378.84375 C 470.17711 379.41625 471.24506 377.6591 472.0625 376.375 C 475.99975 376.72203 498.1593 377.04257 500.1875 376.34375 C 500.19486 376.34097 500.21202 376.31532 500.21875 376.3125 C 501.59055 378.3314 502.95194 380.23888 505.5625 379.90625 C 510.13148 378.92653 513.72987 378.42927 513.84375 369.15625 C 513.84375 369.15625 513.37671 353.35395 503 354.34375 C 500.54467 354.71467 493.65625 355.40625 493.65625 355.40625 C 485.68448 354.45778 479.83758 354.36084 470.875 354.03125 C 471.70223 352.98102 473.16277 348.72783 471.375 347.1875 C 470.90878 346.79983 470.21329 346.58398 469.25 346.65625 C 469.24307 346.65675 469.2256 346.65617 469.21875 346.65625 C 469.20519 346.65557 469.16951 346.65855 469.15625 346.65625 C 469.14969 346.6547 469.13149 346.62694 469.125 346.625 C 469.09934 346.61572 469.0558 346.60888 469.03125 346.59375 C 468.98268 346.56071 468.91952 346.49081 468.875 346.4375 C 468.86399 346.4236 468.82328 346.39 468.8125 346.375 C 468.35928 345.71513 468.11182 344.09728 467.8125 343.6875 C 467.80896 343.68301 467.7848 343.6604 467.78125 343.65625 C 467.77767 343.65281 467.7536 343.62808 467.75 343.625 C 467.73908 343.61798 467.69861 343.59726 467.6875 343.59375 C 467.68375 343.59339 467.66002 343.59369 467.65625 343.59375 C 467.65243 343.59466 467.62885 343.5924 467.625 343.59375 z M 471.875 366.1875 C 471.88589 366.18249 471.89521 366.19226 471.90625 366.1875 C 481.03817 366.63301 489.61809 366.27324 498.75 366.71875 C 500.19727 367.94907 499.47345 370.76717 498.53125 371.28125 C 498.48902 371.30237 498.41786 371.33222 498.375 371.34375 C 498.34065 371.35138 498.28451 371.34274 498.25 371.34375 C 498.21548 371.34305 498.15946 371.3515 498.125 371.34375 C 495.15563 371.26915 493.43813 371.19958 490.46875 371.125 C 490.46358 370.97728 490.44722 370.81793 490.40625 370.6875 C 489.70254 368.60185 484.60544 368.74142 483.40625 370.375 C 483.38965 370.39854 483.35873 370.44461 483.34375 370.46875 C 483.32452 370.50121 483.29747 370.56023 483.28125 370.59375 C 483.26194 370.63598 483.2331 370.70613 483.21875 370.75 C 483.20009 370.81188 483.19583 370.90372 483.1875 370.96875 C 483.17972 371.04358 483.14957 371.13988 483.15625 371.21875 C 479.14768 371.70055 475.53981 371.08566 471.53125 370.9375 C 470.35518 369.47342 470.49247 366.82408 471.875 366.1875 z " id="path800"/>
  <path d="M 309.2188,132.10723 C 303.11675,149.54756 312.71432,168.62477 319.36872,166.76715 C 324.16952,168.7548 327.22659,159.62188 329.19207,149.6161 C 330.53665,146.80799 331.55265,146.50863 332.24309,147.952 C 332.06569,161.25777 333.19861,164.20497 336.61955,168.24377 C 344.25064,174.13113 350.56334,168.99569 351.05824,168.49979 C 351.55314,168.00489 357.00003,162.558 357.00003,162.558 C 358.32244,161.16705 360.0833,161.08541 361.95101,162.31106 C 363.7663,163.96105 363.5113,166.8115 367.3979,168.78806 C 370.66865,170.09636 377.66172,169.09044 379.28147,166.27225 C 381.46164,162.53583 381.98476,161.25273 382.99471,159.83557 C 384.55096,157.76426 387.20385,158.68551 387.20385,159.33966 C 386.9559,160.49476 385.39864,161.65086 386.461,163.73124 C 388.31157,165.11917 388.73894,164.22614 389.83356,163.91771 C 393.70504,162.06714 396.61193,153.64583 396.61193,153.64583 C 396.78328,150.51316 395.02746,150.7722 393.88849,151.41728 C 392.40279,152.32543 392.30603,152.61572 390.82033,153.52387 C 388.92742,153.80508 385.25551,155.05996 383.44022,152.24883 C 381.58662,148.86922 381.56142,144.15409 380.14426,140.74525 C 380.14426,140.4973 377.6849,135.37597 379.97392,135.04839 C 381.12902,135.26308 383.59342,135.91522 383.98551,133.83988 C 385.19705,131.81695 381.39108,126.08884 378.78657,123.19405 C 376.52577,120.71251 373.39311,120.41315 370.3693,122.94711 C 368.25162,124.89545 368.55602,127.07259 368.14075,129.13584 C 367.6015,131.5055 367.71641,134.42045 370.12134,137.55311 C 372.23499,141.72093 376.09135,147.08819 374.82538,154.63562 C 374.82538,154.63562 372.57265,158.20271 368.64774,157.73604 C 367.01186,157.37923 364.35897,156.68476 362.94181,146.21834 C 361.86937,138.29596 363.1948,127.21169 359.83233,122.01477 C 358.61776,118.87706 357.73078,115.8472 354.77148,121.21346 C 353.97622,123.32105 350.56334,126.51923 353.03884,133.09703 C 355.06378,137.26787 355.88827,144.05531 354.96903,151.60677 C 353.56599,153.75267 353.25453,154.47939 351.41505,156.62529 C 348.8307,159.40417 346.02662,158.69458 343.87871,157.65742 C 341.87191,156.30477 340.30053,155.60526 339.38432,151.30842 C 339.54962,144.4595 339.93163,133.24822 338.67977,130.86949 C 336.83424,127.18548 333.79027,128.51797 332.49003,129.63073 C 326.24284,135.34271 323.15654,144.9806 321.27069,152.65503 C 319.53805,158.24807 317.69453,156.64545 316.39833,154.38868 C 313.24248,151.43139 313.0288,128.3053 309.2188,132.10723 z " id="path801" sodipodi:nodetypes="cccccccccccccccccccccccccccccccccccccccc" style="fill: rgb(255, 255, 255); fill-opacity: 1; fill-rule: evenodd; stroke: none; stroke-width: 1pt; stroke-linecap: butt; stroke-linejoin: miter; stroke-opacity: 1;"/>
  <path style="fill: rgb(255, 255, 255); fill-opacity: 1; fill-rule: evenodd; stroke: none; stroke-width: 1pt; stroke-linecap: butt; stroke-linejoin: miter; stroke-opacity: 1;" d="M 329.78423,168.13643 C 329.7305,168.15616 329.67611,168.2028 329.62674,168.23092 C 329.60252,168.24567 329.55673,168.27635 329.53224,168.29392 C 329.13004,168.59584 328.64008,169.27505 327.57937,170.02631 C 325.79028,172.06133 325.48514,173.47523 325.59499,177.55434 C 325.69679,177.98581 328.97758,187.14752 331.7686,193.58683 C 333.65042,200.27952 335.41003,207.95647 334.13095,215.19446 C 329.72526,224.76281 320.85215,233.33631 312.30283,237.99903 C 307.94712,239.39404 304.20745,238.91872 303.1999,237.96753 C 303.19225,237.95992 303.17571,237.9437 303.16841,237.93603 C 300.66702,236.2542 300.59051,233.25079 300.74306,232.73886 C 300.74302,232.73599 300.74323,232.71087 300.74306,232.70736 C 300.74877,232.70158 300.76882,232.68127 300.77456,232.67586 C 307.98836,227.6513 316.24538,223.5936 322.69718,210.02879 C 324.60218,204.84497 325.18853,201.72894 323.29564,193.71282 C 322.55774,190.72604 321.61699,188.27117 319.57887,186.15329 C 319.58415,186.14767 319.60502,186.12732 319.61037,186.1218 C 320.83837,185.53429 324.0319,187.88371 324.52406,186.40528 C 323.77012,182.57814 321.19108,177.44272 318.25595,174.81401 C 315.68572,172.47963 312.89145,172.20573 310.53894,174.34154 C 307.88908,175.81615 307.31002,181.10831 308.58606,185.74382 C 310.00322,189.2333 313.82959,189.83933 316.55506,196.86262 C 316.555,196.86959 316.55482,196.89172 316.55506,196.89412 C 316.6119,197.33448 317.48695,202.1621 316.11409,204.10716 C 315.00002,207.58138 300.68525,218.86227 299.67213,219.54119 C 299.66094,219.55242 299.62003,219.59355 299.60913,219.60419 C 299.60351,219.61002 299.58298,219.63045 299.57763,219.63568 C 299.57509,219.638 299.55277,219.66039 299.54613,219.66718 C 299.54339,219.67011 299.51749,219.69546 299.51464,219.69868 C 299.51178,219.69868 299.4866,219.69885 299.48314,219.69868 C 299.48154,219.69861 299.45875,219.69857 299.45164,219.69868 C 299.44593,219.69339 299.42565,219.67307 299.42014,219.66718 C 299.42038,219.66375 299.42007,219.63855 299.42014,219.63568 C 299.41434,219.62492 299.3943,219.58404 299.38864,219.57269 C 299.34555,219.29094 299.4212,218.5565 299.38864,217.39933 C 299.29467,215.28491 300.14399,210.50318 300.0816,209.68231 C 300.08163,209.67951 300.08151,209.65398 300.0816,209.65081 C 300.07577,209.64514 300.05596,209.62484 300.0501,209.61932 C 300.05015,209.61644 300.04994,209.5913 300.0501,209.58782 C 300.04274,209.58795 300.01967,209.58791 300.0186,209.58782 C 295.28836,212.64187 293.73235,221.99805 292.86855,224.76986 C 280.89326,233.04401 267.31333,239.22292 259.48066,247.60592 C 255.40154,253.97608 287.58572,240.28301 291.32515,238.62899 C 291.35728,238.65309 291.39005,238.69272 291.41965,238.72348 C 292.13054,239.50585 292.18282,242.2182 294.31746,244.67661 C 297.6628,249.20829 304.75339,252.01188 311.67287,250.28325 C 323.27623,246.08923 329.97121,238.17315 336.77679,229.40007 C 337.74945,227.98493 339.27344,226.89006 340.68254,227.98266 C 345.35937,238.4531 358.84303,245.89393 376.2753,246.66098 C 380.30906,241.75536 378.38365,239.34009 376.74777,238.31401 C 376.24386,237.97914 368.09356,234.80556 366.8259,231.63643 C 366.02761,228.68721 367.94546,226.07489 371.83408,224.1084 C 383.02722,222.75474 394.03867,221.23276 404.68651,217.8088 C 404.79436,214.23163 406.89867,208.8873 408.30878,206.56401 C 409.28787,204.952 409.93197,204.77657 410.16717,204.54814 C 410.17479,204.54016 410.19203,204.52488 410.19866,204.51664 C 410.20173,204.51242 410.22734,204.48946 410.23016,204.48514 C 410.23596,204.47966 410.25598,204.45919 410.26166,204.45364 C 410.26168,204.4429 410.26208,204.40176 410.26166,204.39065 C 410.26801,204.31989 410.26092,204.22694 410.23016,204.10716 L 408.40328,203.03623 L 372.68453,202.87874 C 372.2433,202.70887 371.90753,202.5344 371.70809,202.37477 C 371.69293,202.36206 371.65866,202.32437 371.64509,202.31178 C 371.63871,202.30552 371.61957,202.28651 371.61359,202.28028 C 371.60802,202.27409 371.58728,202.25494 371.5821,202.24878 C 371.57662,202.23789 371.55556,202.19664 371.5506,202.18578 C 371.54773,202.18298 371.52267,202.1576 371.5191,202.15429 C 371.51916,202.15148 371.51881,202.1261 371.5191,202.12279 C 371.5162,202.11999 371.4913,202.09462 371.4876,202.09129 C 371.48763,202.08849 371.48742,202.06312 371.4876,202.05979 C 371.48762,202.05699 371.48747,202.03162 371.4876,202.02829 C 371.48761,202.02549 371.48752,202.00013 371.4876,201.9968 C 371.48728,201.99199 371.48772,201.9701 371.4876,201.9653 C 371.48774,201.96292 371.48769,201.94048 371.4876,201.9338 C 371.48756,201.931 371.4877,201.90565 371.4876,201.9023 C 371.48755,201.8995 371.48774,201.87415 371.4876,201.8708 C 371.48754,201.86799 371.48779,201.84265 371.4876,201.83931 C 371.49337,201.83369 371.51329,201.81342 371.5191,201.80781 C 371.52757,201.79133 371.53973,201.76111 371.5506,201.74481 C 371.72499,201.5098 372.15655,201.28308 372.68453,201.08335 C 381.21369,199.9212 396.37304,197.45025 397.37897,182.8775 C 397.22173,175.28673 394.12561,170.30072 384.81126,168.92388 C 377.96737,169.45305 373.09426,176.09307 373.88145,183.38147 C 373.55387,185.34392 374.53485,189.18164 372.52704,189.61808 C 359.39866,190.81752 345.06907,199.03875 344.5883,204.92611 C 344.58515,204.9256 344.55956,204.92625 344.5568,204.92611 C 344.55132,204.93183 344.5308,204.95196 344.5253,204.95761 C 344.51516,204.96246 344.47881,204.981 344.4623,204.98911 C 344.45144,204.98896 344.41027,204.98951 344.39931,204.98911 C 344.37824,204.99594 344.32631,205.01502 344.30481,205.02061 C 344.29905,205.02115 344.2814,205.0205 344.27332,205.02061 C 344.25554,205.02033 344.22217,205.02061 344.21032,205.02061 C 344.20434,205.02042 344.18689,205.02041 344.17882,205.02061 C 344.16564,205.02094 344.12677,205.02114 344.11583,205.02061 C 344.08197,205.01381 344.01928,204.99653 343.98983,204.98911 C 343.136,204.75197 342.05337,203.34561 342.22595,201.36684 C 341.72601,191.1897 338.40536,179.68361 333.21751,170.81376 C 331.36624,168.96294 330.56585,168.22316 330.03621,168.13643 C 330.01912,168.13427 329.98982,168.13723 329.97322,168.13643 C 329.95137,168.13634 329.90683,168.13668 329.87872,168.13643 C 329.8734,168.13657 329.85207,168.13603 329.84722,168.13643 C 329.84452,168.13634 329.81863,168.13668 329.81573,168.13643 C 329.812,168.13763 329.78807,168.13502 329.78423,168.13643 z M 382.00794,181.17661 C 382.7858,181.0941 383.79676,181.36399 384.77976,181.93256 C 386.20253,182.75549 387.06545,183.9903 386.95313,184.89337 C 386.94957,184.91784 386.95818,184.96392 386.95313,184.98787 C 386.94758,185.01164 386.9287,185.05914 386.92163,185.08236 C 386.91406,185.10539 386.89924,185.15442 386.89013,185.17686 C 386.88371,185.19168 386.86575,185.22531 386.85863,185.23985 C 386.85118,185.25425 386.8353,185.28874 386.82714,185.30285 C 386.78058,185.37918 386.70207,185.46096 386.63815,185.52333 C 385.9542,186.1621 384.37732,186.06869 382.88988,185.20835 C 381.48005,184.3929 380.59155,183.14824 380.68502,182.24754 C 380.68809,182.22291 380.71198,182.17718 380.71652,182.15305 C 380.74008,182.04127 380.78538,181.93683 380.84251,181.83807 C 380.86291,181.80279 380.88139,181.74446 380.90551,181.71207 C 380.91048,181.70571 380.9319,181.68682 380.93701,181.68058 C 380.97905,181.63153 381.04372,181.56475 381.0945,181.52309 C 381.32122,181.3448 381.64971,181.21461 382.00794,181.17661 z M 348.77753,211.35171 C 348.8953,211.34341 349.00187,211.35243 349.12401,211.35171 C 349.14452,211.35159 349.16636,211.35162 349.18701,211.35171 C 353.16635,212.43322 359.02497,212.52746 364.11707,213.0526 C 368.26473,213.31567 370.33251,216.57005 366.44792,217.93479 C 362.61575,219.24714 358.93703,220.27169 358.91989,225.8093 C 359.42365,228.55236 359.3167,229.99883 358.8884,230.65999 C 358.85489,230.70955 358.79963,230.77675 358.7624,230.81748 C 358.75701,230.82312 358.73637,230.84351 358.73091,230.84898 C 358.72537,230.85428 358.70501,230.87535 358.69941,230.88048 C 358.69373,230.88544 358.67365,230.90718 358.66791,230.91197 C 358.66238,230.91762 358.64197,230.93787 358.63641,230.94347 C 358.62538,230.94894 358.58451,230.96966 358.57342,230.97497 C 358.51772,231.00959 358.44512,231.04719 358.38443,231.06946 C 358.33082,231.08767 358.25244,231.09137 358.19544,231.10096 C 357.28448,231.23457 355.96736,230.35593 354.98264,229.84104 C 352.62005,228.14468 345.97371,224.04541 345.02927,215.22596 C 344.89489,213.23572 346.38291,211.52034 348.77753,211.35171 z " id="path802"/>
  <path d="M 234.02673,132.29572 C 238.14012,134.25716 245.87301,133.42259 245.54644,126.79037 C 245.54644,126.20375 245.39726,124.21912 245.3388,123.68189 C 244.49919,121.7265 242.20815,122.2093 241.68907,124.22819 C 241.52578,124.8894 241.98036,125.96588 241.38164,126.2985 C 241.03794,126.64523 239.72359,126.44162 239.77802,124.60919 C 239.77802,124.0256 239.34763,123.39765 239.08859,123.02774 C 238.82854,122.8574 238.66324,122.81003 238.19253,122.81003 C 237.61902,122.83321 237.62809,122.98238 237.31361,123.46418 C 237.18057,123.95504 236.99611,124.43482 236.99611,124.9912 C 236.92455,125.64334 236.67861,125.87617 236.19884,125.97192 C 235.66261,125.97192 235.78357,126.03139 235.34914,125.75421 C 235.09111,125.47199 234.76857,125.36414 234.76857,124.88234 C 234.76857,124.38342 234.65568,123.57606 234.5055,123.24646 C 234.27771,122.9461 233.91183,122.807 233.49958,122.70117 C 231.25289,122.70923 231.09767,125.27141 231.22668,126.24407 C 231.05836,126.42751 230.9626,131.0237 234.02673,132.29572 z " id="path803" sodipodi:nodetypes="ccccccccccccccccc" style="font-size: 12px; fill: rgb(255, 255, 255); fill-opacity: 1; fill-rule: evenodd; stroke: none; stroke-width: 0.955991pt;"/>
  <path d="M 354.60114,183.33158 C 358.71453,185.29302 368.50562,184.16413 366.12084,177.82623 C 366.12084,177.23961 365.97167,175.25498 365.91321,174.71775 C 365.0736,172.76235 362.78256,173.24515 362.26347,175.26405 C 362.10019,175.92526 362.55476,177.00173 361.95605,177.33435 C 361.61234,177.68108 360.29799,177.47748 360.35242,175.64505 C 360.35242,175.06146 359.92203,174.43351 359.66299,174.0636 C 359.40295,173.89326 359.23765,173.84588 358.76694,173.84588 C 358.19342,173.86907 358.20249,174.01824 357.88802,174.50004 C 357.75497,174.9909 357.57052,175.47068 357.57052,176.02706 C 357.49896,176.67919 357.25302,176.91203 356.77324,177.00778 C 356.23702,177.00778 356.35797,177.06725 355.92355,176.79007 C 355.66552,176.50785 355.34298,176.4 355.34298,175.9182 C 355.34298,175.41927 355.23009,174.61192 355.07991,174.28232 C 354.85211,173.98196 354.48623,173.84286 354.07399,173.73703 C 351.8273,173.74509 351.67207,176.30727 351.80109,177.27992 C 351.63276,177.46337 351.53701,182.05956 354.60114,183.33158 z " id="path804" sodipodi:nodetypes="ccccccccccccccccc" style="font-size: 12px; fill: rgb(255, 255, 255); fill-opacity: 1; fill-rule: evenodd; stroke: none; stroke-width: 0.955991pt;"/>
  <path d="M 424.91076,162.20825 C 429.02415,164.16969 436.75704,163.33512 436.43046,156.7029 C 436.43046,156.11628 436.28129,154.13165 436.22283,153.59442 C 435.38322,151.63903 433.09218,152.12183 432.57309,154.14073 C 432.4098,154.80193 432.86438,155.87841 432.26567,156.21103 C 431.92196,156.55776 430.60761,156.35415 430.66204,154.52173 C 430.66204,153.93813 430.23165,153.31019 429.97261,152.94027 C 429.71257,152.76993 429.54727,152.72256 429.07656,152.72256 C 428.50304,152.74574 428.51211,152.89492 428.19764,153.37671 C 428.06459,153.86758 427.88014,154.34735 427.88014,154.90373 C 427.80857,155.55587 427.56264,155.7887 427.08286,155.88446 C 426.54664,155.88446 426.66759,155.94392 426.23317,155.66674 C 425.97514,155.38452 425.6526,155.27667 425.6526,154.79488 C 425.6526,154.29595 425.53971,153.48859 425.38953,153.159 C 425.16173,152.85863 424.79585,152.71954 424.38361,152.6137 C 422.13692,152.62177 421.98169,155.18394 422.11071,156.1566 C 421.94238,156.34004 421.84663,160.93623 424.91076,162.20825 z " id="path805" sodipodi:nodetypes="ccccccccccccccccc" style="font-size: 12px; fill: rgb(255, 255, 255); fill-opacity: 1; fill-rule: evenodd; stroke: none; stroke-width: 0.955991pt;"/>
  <path d="M 461.3265,215.25897 C 454.15805,223.33758 457.31894,236.6998 458.93769,239.57846 C 461.3013,244.30669 463.20428,247.33958 467.8035,249.67799 C 471.99248,252.76127 475.25618,250.83409 477.05534,248.67509 C 481.27054,244.30669 481.32093,233.15388 483.29951,230.94347 C 484.68744,226.8835 488.18196,227.57696 489.87831,229.37613 C 491.52226,231.73974 493.4585,233.26374 495.87352,234.54987 C 499.80548,238.01818 504.50045,238.65217 509.12587,235.49128 C 512.28676,233.71832 514.34194,231.42728 516.19251,226.87947 C 518.2487,221.38017 517.10268,191.44931 516.69144,176.39073 C 516.53319,175.20943 512.60527,155.68268 512.60527,155.46496 C 512.60527,155.24624 512.08618,145.4995 511.65377,143.17721 C 511.57818,142.23479 511.34434,141.96365 512.33212,142.0836 C 513.37936,142.96454 513.52249,143.01997 514.17664,143.31026 C 515.23396,143.50378 516.18042,141.70461 515.54239,140.04858 C 512.27164,134.01608 509.00088,127.98257 505.73013,121.95007 C 504.94293,121.17496 503.92592,120.32326 502.67709,122.16879 C 501.48369,123.21503 500.21269,125.10894 500.252,127.54311 C 500.54228,131.83188 501.29622,136.19624 501.5865,140.48501 C 502.89481,147.82581 504.20412,155.16762 505.51242,162.50842 C 506.74815,178.20804 507.05758,192.55621 508.29331,208.25583 C 508.11995,214.90317 506.05368,223.72262 504.11542,224.5592 C 504.11542,224.5592 501.16619,226.26866 499.18862,224.3808 C 497.7503,223.80325 491.99296,214.78625 491.99296,214.78625 C 489.04979,212.088 487.10951,212.85908 485.01502,214.78625 C 479.23954,220.36316 476.62596,230.79631 472.70106,237.99197 C 471.68909,239.59762 468.82857,240.97244 465.65961,237.87505 C 457.61124,226.87947 462.32838,211.2363 461.3265,215.25897 z " id="path806" sodipodi:nodetypes="cccccccccccccccccccccccccccc" style="fill: rgb(255, 255, 255); fill-opacity: 1; fill-rule: evenodd; stroke: none; stroke-width: 1pt; stroke-linecap: butt; stroke-linejoin: miter; stroke-opacity: 1;"/>
  <path d="M 426.75629,123.69802 C 430.4413,125.24016 433.04077,132.70494 432.1931,136.34964 C 431.45932,140.85814 429.50493,145.72748 428.09987,145.09349 C 426.57284,144.52703 429.14107,140.6122 427.67351,136.50385 C 426.85809,133.8298 421.8295,128.94433 422.35866,127.50399 C 421.32049,124.48623 424.4965,123.16583 426.75629,123.69802 z " id="path807" sodipodi:nodetypes="cccccc" style="fill: rgb(255, 255, 255); fill-opacity: 1; fill-rule: evenodd; stroke: none; stroke-width: 1.25; stroke-linecap: butt; stroke-linejoin: round; stroke-dasharray: none; stroke-opacity: 1;"/>
  <path d="M 473.19092,219.68682 C 473.96602,210.72324 472.65772,205.2572 472.42488,199.98871 C 472.19306,194.72023 466.46596,152.00086 465.30482,148.01447 C 463.90379,140.47712 470.87165,147.00351 470.11066,142.61999 C 467.69968,137.09348 461.70044,129.04611 459.81661,124.24531 C 458.68369,122.18811 459.15943,120.35871 456.62246,123.70405 C 454.26993,131.39561 453.4535,137.68211 454.35157,142.45872 C 460.39415,173.99302 466.59095,202.73232 465.6072,232.75068 C 468.47277,232.76983 471.77577,226.19406 473.19092,219.68682 z " id="path808" sodipodi:nodetypes="csccccccc" style="fill: rgb(255, 255, 255); fill-opacity: 1; fill-rule: evenodd; stroke: none; stroke-width: 1pt; stroke-linecap: butt; stroke-linejoin: miter; stroke-opacity: 1;"/>
  <path d="M 536.15369,134.38618 C 539.51314,136.05633 541.48063,145.41099 541.10971,148.08303 C 540.44145,152.96446 538.65942,158.23597 537.37833,157.54957 C 535.98637,156.93674 537.65753,150.31057 536.98927,148.25034 C 536.24642,145.35555 531.66232,140.0659 532.14412,138.50662 C 531.19766,135.2399 534.09346,133.81065 536.15369,134.38618 z " id="path809" sodipodi:nodetypes="cccccc" style="fill: rgb(255, 255, 255); fill-opacity: 1; fill-rule: evenodd; stroke: none; stroke-width: 1.25; stroke-linecap: butt; stroke-linejoin: round; stroke-dasharray: none; stroke-opacity: 1;"/>
  <path d="M 286.47672,202.73536 C 289.69003,203.96202 291.57386,210.83615 291.21907,212.80062 C 290.57802,216.38685 288.87259,220.26035 287.64895,219.75639 C 286.31646,219.30584 287.91606,214.4365 287.27602,212.92258 C 287.00488,209.25066 282.54476,207.34969 282.6385,205.7632 C 281.80595,202.84724 284.50419,202.31102 286.47672,202.73536 z " id="path810" sodipodi:nodetypes="cccccc" style="fill: rgb(255, 255, 255); fill-opacity: 1; fill-rule: evenodd; stroke: none; stroke-width: 1.25; stroke-linecap: butt; stroke-linejoin: round; stroke-dasharray: none; stroke-opacity: 1;"/>
  <path d="M 200.58541,121.4735 C 205.32675,122.90276 205.60695,129.87163 205.2572,131.90867 C 204.62522,135.62695 202.946,139.64257 201.7395,139.11945 C 200.42717,138.65277 201.6881,133.60503 201.05814,132.03466 C 200.3556,129.8293 196.34906,125.80057 196.80364,124.61323 C 195.91161,122.12362 198.64211,121.03404 200.58541,121.4735 z " id="path812" sodipodi:nodetypes="cccccc" style="fill: rgb(255, 255, 255); fill-opacity: 1; fill-rule: evenodd; stroke: none; stroke-width: 1.25; stroke-linecap: butt; stroke-linejoin: round; stroke-dasharray: none; stroke-opacity: 1;"/>
  <path d="M 294.21969,154.33022 C 290.58205,156.29771 289.17094,162.16289 291.43577,165.57778 C 293.55143,168.58546 296.89274,167.47069 297.33825,167.47069 C 300.90231,167.91619 303.01696,160.78908 303.01696,160.78908 C 303.01696,160.78908 303.12884,158.7853 298.89652,162.57211 C 297.11549,162.90574 296.89274,162.23748 296.44723,161.23458 C 296.07631,159.37897 296.14989,157.52336 297.00361,155.66674 C 297.63458,153.88572 296.26076,153.10558 294.21969,154.33022 z " id="path813" sodipodi:nodetypes="cccccccc" style="fill: rgb(255, 255, 255); fill-opacity: 1; fill-rule: evenodd; stroke: none; stroke-width: 1pt; stroke-linecap: butt; stroke-linejoin: miter; stroke-opacity: 1;"/>
  <path d="M 321.50353,118.7803 C 319.67513,120.00595 316.03648,123.77563 315.92561,128.11883 C 315.81473,130.56912 315.35814,130.56207 316.96277,132.12134 C 318.1219,133.7925 319.29111,133.64232 321.63053,132.41667 C 322.97411,131.42688 323.42869,130.7697 323.88125,129.10963 C 324.43864,126.32571 320.93807,130.43003 320.49257,127.33163 C 319.71343,124.45498 321.96113,123.27771 324.07679,120.49379 C 324.14734,118.58677 324.10602,117.23614 321.50353,118.7803 z " id="path814" sodipodi:nodetypes="cccccccc" style="fill: rgb(255, 255, 255); fill-opacity: 1; fill-rule: evenodd; stroke: none; stroke-width: 1pt; stroke-linecap: butt; stroke-linejoin: miter; stroke-opacity: 1;"/>
  <path d="M 343.48662,122.68504 C 342.69842,124.42575 341.75398,133.51834 341.91122,133.51834 C 341.28226,136.22768 344.74654,137.38681 346.32195,133.90438 C 348.68354,127.52011 348.68354,124.81179 348.84179,122.10346 C 348.10599,117.97798 345.32409,118.107 343.48662,122.68504 z " id="path815" sodipodi:nodetypes="ccccc" style="fill: rgb(255, 255, 255); fill-opacity: 1; fill-rule: evenodd; stroke: none; stroke-width: 1pt; stroke-linecap: butt; stroke-linejoin: miter; stroke-opacity: 1;"/>
  <path d="M 482.07789,193.20835 C 482.55061,192.73562 501.60767,179.19198 501.60767,179.19198 C 503.54996,178.50961 503.12965,186.17396 502.23763,186.12154 C 502.60452,187.64353 483.44365,200.66304 482.07789,200.13791 C 481.13346,200.82028 480.18801,194.88858 482.07789,193.20835 z " id="path816" sodipodi:nodetypes="ccccc" style="fill: rgb(255, 255, 255); fill-opacity: 1; fill-rule: evenodd; stroke: none; stroke-width: 1pt; stroke-linecap: butt; stroke-linejoin: miter; stroke-opacity: 0.408805;"/>
  <path d="M 499.45774,193.09848 C 502.81719,194.76863 504.15473,204.59601 503.78381,207.26805 C 503.90274,212.46497 500.54631,216.6338 499.26523,215.94739 C 497.87327,215.33457 499.38719,209.49559 498.71892,207.43537 C 497.97608,204.54058 495.12361,199.09369 495.60541,197.53441 C 494.65896,194.26769 497.39752,192.52295 499.45774,193.09848 z " id="path817" sodipodi:nodetypes="cccccc" style="fill: rgb(255, 255, 255); fill-opacity: 1; fill-rule: evenodd; stroke: none; stroke-width: 1.25; stroke-linecap: butt; stroke-linejoin: round; stroke-dasharray: none; stroke-opacity: 1;"/>
  <path d="M 386.10117,235.41669 C 387.42661,233.47944 391.52084,230.69149 391.61357,230.69149 C 393.50245,229.74604 395.34798,231.43232 395.2361,231.32145 C 395.55057,233.21133 394.04069,234.97018 394.51341,237.49103 C 394.92666,238.50703 395.22904,239.63491 397.0907,239.20452 C 400.11653,236.82377 402.9196,236.67057 405.94542,236.51837 C 408.26469,236.65847 408.35641,240.58439 406.88986,240.61362 C 401.30287,241.82818 398.79915,243.32396 394.80974,244.84695 C 392.91986,245.94862 391.29809,244.55062 391.29809,244.39338 C 391.29809,244.23614 390.19238,243.32093 390.96446,240.81722 C 391.10154,238.80941 390.29318,237.70874 388.62101,237.93654 C 387.36109,238.6179 386.25135,239.06946 385.62139,237.62105 C 385.37344,236.55163 385.2928,236.03154 386.10117,235.41669 z " id="path818" sodipodi:nodetypes="ccccccccccccc" style="fill: rgb(255, 255, 255); fill-opacity: 1; fill-rule: evenodd; stroke: none; stroke-width: 1pt; stroke-linecap: butt; stroke-linejoin: miter; stroke-opacity: 1;"/>
  <path d="M 519.50661,240.70937 C 520.32304,241.74855 520.85119,242.71012 519.44109,244.41757 C 518.10457,245.64221 517.16315,246.31652 515.82663,247.54116 C 515.19566,248.61764 514.79249,250.2505 516.72269,250.77059 C 520.28675,251.77248 528.52764,246.42739 528.52764,246.31551 C 529.86416,245.31362 529.41865,243.42072 529.30677,243.42072 C 528.52764,242.5297 526.77181,243.05887 525.59051,242.91473 C 525.02808,242.91473 523.18356,242.63554 524.06147,241.00268 C 524.79424,239.98668 525.05631,239.36478 525.55322,238.11293 C 526.1096,236.88828 525.63184,236.07085 523.62705,235.40258 C 521.58497,235.03166 520.76955,235.21712 518.50472,235.40258 C 517.28008,235.66263 516.86178,236.20994 516.63903,237.69463 C 516.72672,239.94636 518.0965,239.81835 519.50661,240.70937 z " id="path819" sodipodi:nodetypes="ccccccccccccc" style="fill: rgb(255, 255, 255); fill-opacity: 1; fill-rule: evenodd; stroke: none; stroke-width: 1pt; stroke-linecap: butt; stroke-linejoin: miter; stroke-opacity: 1;"/>
</svg>
