<svg xmlns="http://www.w3.org/2000/svg"
   width="100%" height="100%"
   viewBox="0 0 1152 800">
   <rect y="0" fill="#d50032" width="1152" height="800"></rect>
   <g transform="translate(187.00493 16)" fill="#fff" stroke="#000">
      <g
         id="g845">
         <circle
            style="fill:#fff;stroke:none;stroke-width:1176.07;stroke-linecap:round;paint-order:stroke fill markers"
            id="path18"
            cx="384"
            cy="384"
            r="374.00986" />
         <path
            style="fill:#000;fill-opacity:1"
            d="M 346.48632,766.46257 C 231.53345,755.21955 126.37941,691.72761 63.480723,595.58397 28.424343,541.99863 8.587823,486.38805 1.949263,423.08397 -12.903017,281.45527 53.572683,141.32193 172.48632,63.58526 189.13234,52.703361 198.98366,47.014103 213.62514,39.827079 267.48522,13.388935 324.48644,0.09724813 384.04889,0.08725313 c 95.2772,-0.01599 184.865,34.35108987 256.9374,98.56464987 55.5184,49.464547 95.9421,116.212167 115.0267,189.932067 38.7994,149.87355 -17.684,310.46245 -141.7157,402.91443 -57.3004,42.71112 -123.8012,68.33458 -194.811,75.06268 -19.4306,1.84103 -53.6414,1.79487 -72.99997,-0.0985 z m 80.49997,-20.83583 c 34.6447,-4.71315 59.5513,-10.94706 88.0561,-22.03968 111.208,-43.27651 193.3601,-136.3911 222.3344,-252.00309 2.9958,-11.95367 5.8086,-27.30604 8.2446,-45 2.5435,-18.47438 2.5435,-66.52562 0,-85 -6.0291,-43.79197 -15.643,-77.17184 -32.5495,-113.01349 -31.9914,-67.82185 -86.4177,-126.0775 -151.6282,-162.296719 -42.1008,-23.383648 -82.9524,-36.650859 -134.9574,-43.829608 -17.779,-2.454213 -67.5439,-2.495664 -84.49997,-0.07038 -49.2977,7.051212 -83.14415,17.3117 -122.22487,37.052249 -36.01787,18.193434 -63.26024,38.032336 -92.83049,67.602588 -17.30333,17.30332 -26.36661,27.86747 -39.083217,45.55536 -30.59153,42.55063 -53.34025,96.28782 -61.91014,146.24459 -4.83771,28.20064 -5.30519,33.86307 -5.34599,64.75541 -0.0412,31.17313 0.69409,40.09149 5.52373,67 15.74978,87.75053 66.71621,169.88294 139.224267,224.35995 39.34518,29.56096 83.39192,50.56238 131.14671,62.53054 16.78225,4.20592 44.94558,8.70366 62.49997,9.98137 12.1937,0.88753 56.8632,-0.31401 68,-1.82909 z m -78.49997,-30.11436 c -21.42133,-2.58629 -59.50634,-10.44213 -59.49646,-12.27241 0.0614,-11.37086 4.03909,-57.156 4.96552,-57.156 0.34352,0 4.70246,0.89001 9.68653,1.9778 17.33287,3.78295 51.92658,8.0122 65.59438,8.01924 l 5.75,0.003 v 30.5 30.5 l -7.75,-0.12176 c -4.2625,-0.067 -12.7,-0.71939 -18.74997,-1.44983 z m 44.49997,-28.92841 v -30.5 l 5.75,-0.003 c 12.7138,-0.007 47.9533,-4.19226 63.7458,-7.57167 3.8523,-0.82435 8.1602,-1.74724 9.573,-2.05085 l 2.5688,-0.55203 1.2031,12.33876 c 0.9273,9.50998 3.1341,40.97365 3.1558,44.99475 0.01,0.8504 -26.8568,7.32591 -38.4965,9.28042 -13.4239,2.2541 -34.1654,4.54422 -41.25,4.55451 l -6.25,0.009 z m -133.71125,6.5366 c -15.04757,-6.02751 -38.46389,-17.95352 -51.78872,-26.37617 -9.48957,-5.99837 -9.987,-6.48315 -9.74528,-9.49749 0.31093,-3.87737 13.06735,-43.16294 14.01545,-43.16294 0.37228,0 7.88878,3.56124 16.70335,7.91388 13.32698,6.58086 29.31394,13.08267 46.02648,18.71873 1.65,0.55644 2.89063,1.53236 2.75695,2.16871 -0.34152,1.62571 -4.24077,50.20857 -4.24965,52.94868 -0.004,1.2375 -0.3448,2.2338 -0.7573,2.21399 -0.4125,-0.0198 -6.24508,-2.23713 -12.96128,-4.92739 z m 235.71125,2.66672 c 0,-2.75528 -3.9038,-51.24892 -4.2546,-52.85249 -0.135,-0.61665 5.1989,-3.03148 11.853,-5.3663 16.3975,-5.75364 29.7357,-11.50054 43.0101,-18.53138 l 11.1085,-5.88365 6.0968,18.71525 c 8.1511,25.0212 8.6735,27.16565 7.0121,28.78185 -2.6626,2.58995 -23.6743,14.80251 -36.8259,21.4041 -11.209,5.6265 -35.5236,16.0293 -37.4656,16.0293 -0.2939,0 -0.5344,-1.03351 -0.5344,-2.29668 z m -323.99997,-55.3912 c -11.7471,-9.69923 -39.58569,-37.43138 -40.51533,-40.36043 -0.35507,-1.11871 0.39299,-3.6494 1.82492,-6.17376 1.33464,-2.35286 5.01305,-9.22793 8.17425,-15.27793 3.16119,-6.05 6.19649,-11.5575 6.74511,-12.23889 0.76034,-0.94434 1.89004,-0.46885 4.75168,2 2.06481,1.78139 8.71968,7.53659 14.78862,12.78933 6.06893,5.25275 15.35359,12.61208 20.63258,16.35408 5.279,3.742 9.59817,6.97221 9.59817,7.17824 0,0.20603 -2.67361,8.37169 -5.94137,18.14592 -3.26775,9.77423 -6.43509,19.68382 -7.03854,22.02132 -0.60345,2.3375 -1.41733,4.24587 -1.80863,4.24083 -0.3913,-0.005 -5.43646,-3.91046 -11.21146,-8.67871 z m 412.98457,4.43788 c -0.6009,-2.3375 -3.6558,-11.9 -6.7886,-21.25 -3.1328,-9.35 -5.8296,-17.50071 -5.9929,-18.11269 -0.1632,-0.61198 4.0434,-4.18928 9.3482,-7.94956 5.3048,-3.76027 14.6105,-11.13456 20.6795,-16.38731 6.0689,-5.25274 12.7238,-11.00794 14.7886,-12.78933 4.3675,-3.76798 3.9267,-4.08813 9.9659,7.23889 2.3459,4.4 6.0397,11.26112 8.2084,15.24694 2.6378,4.84807 3.7308,7.91569 3.3018,9.26721 -1.4721,4.63827 -48.3727,48.98585 -51.8059,48.98585 -0.3369,0 -1.1041,-1.9125 -1.705,-4.25 z m -220.4846,-5.40112 c -16.68194,-0.75889 -39.44075,-3.72438 -57.24997,-7.45973 -10.22935,-2.14553 -10.25,-2.15587 -10.25,-5.13348 0,-6.4515 9.40344,-57.15612 10.92683,-58.91892 0.31524,-0.36478 5.73894,0.41193 12.05266,1.72603 14.48006,3.0138 30.33058,5.14345 44.77048,6.01529 l 11.25,0.67924 v 31.87134 31.87135 l -2.75,-0.18908 c -1.5125,-0.104 -5.45,-0.31192 -8.75,-0.46204 z m 29.5,-31.24839 v -31.81584 l 11.25,-0.67732 c 14.2956,-0.8607 30.146,-3.00069 44.7705,-6.04455 6.3138,-1.3141 11.7375,-2.09081 12.0527,-1.72603 1.5234,1.7628 10.9268,52.46742 10.9268,58.91892 0,2.97749 -0.021,2.98804 -10.25,5.13529 -18.3232,3.8464 -38.6999,6.45525 -58.5,7.48981 l -10.25,0.53556 z m -126.49997,12.48592 c -13.80239,-4.96065 -23.4204,-9.16784 -35.59077,-15.5684 -13.67295,-7.1908 -13.53758,-7.06479 -11.92549,-11.10059 6.63124,-16.60103 23.46997,-51.91742 24.75404,-51.91742 0.39575,0 6.57915,2.89035 13.74088,6.423 7.16174,3.53266 17.66876,8.1244 23.34894,10.20387 9.08103,3.32451 10.26809,4.02785 9.83452,5.827 -1.85798,7.70984 -7.82857,39.1283 -9.27673,48.81602 -0.9644,6.45156 -2.00814,11.70744 -2.31943,11.67974 -0.31128,-0.0277 -5.96596,-1.99115 -12.56596,-4.36322 z m 220.11457,-7.31652 c -1.6171,-10.81783 -7.5447,-42.38139 -9.075,-48.32292 -0.6336,-2.46024 -0.2828,-2.68975 9.6515,-6.31467 5.6699,-2.06891 16.1781,-6.65755 23.3516,-10.19697 7.1734,-3.53943 13.3889,-6.43533 13.8121,-6.43533 1.4555,0 25.6452,51.84356 25.6452,54.96315 0,0.48055 -1.4625,1.76931 -3.25,2.86391 -4.7773,2.92548 -24.3214,12.61184 -31.25,15.488 -4.9443,2.05248 -26.1536,9.68494 -26.9127,9.68494 -0.1206,0 -1.0083,-5.27855 -1.9727,-11.73011 z M 190.07143,579.29987 c -6.27819,-4.76811 -16.28375,-13.33483 -22.23458,-19.03715 -9.83803,-9.42719 -10.71805,-10.56342 -9.69941,-12.5233 3.50407,-6.74188 27.34936,-41.16219 31.89733,-46.0433 0.46317,-0.4971 4.48559,2.50919 9.1394,6.83062 4.57168,4.24516 13.14965,11.36401 19.06215,15.81966 5.9125,4.45565 10.75,8.47579 10.75,8.93365 0,0.45786 -2.86255,6.56355 -6.36122,13.5682 -5.75009,11.51217 -16.48456,35.08477 -17.98097,39.48572 -0.32727,0.9625 -1.17166,1.72417 -1.87643,1.6926 -0.70476,-0.0316 -6.41808,-3.95859 -12.69627,-8.7267 z m 368.46416,-4.4659 c -3.2363,-7.2875 -8.9588,-19.4315 -12.7167,-26.98667 -3.7579,-7.55517 -6.8326,-14.11086 -6.8326,-14.5682 0,-0.45734 4.8375,-4.47705 10.75,-8.9327 5.9125,-4.45565 14.5175,-11.59936 19.1222,-15.87492 6.9877,-6.48818 8.5587,-7.52976 9.5,-6.2984 12.5874,16.46639 24.3698,33.378 29.9813,43.03257 l 2.6862,4.62168 -10.8604,10.40684 c -10.1047,9.68275 -32.8427,27.8498 -34.857,27.8498 -0.4889,0 -3.5368,-5.9625 -6.773,-13.25 z m -445.2408,3.55096 c -6.85254,-9.46056 -13.672847,-20.1528 -19.906477,-31.2075 l -5.30424,-9.40655 8.12396,-11.89126 c 4.468177,-6.54019 8.440277,-12.08675 8.826877,-12.32568 0.3866,-0.23893 4.24502,4.39508 8.57428,10.2978 4.32925,5.90273 11.13517,14.53349 15.12425,19.17947 3.98908,4.64598 7.25288,8.7139 7.25288,9.03981 0,0.32591 -3.99722,7.91009 -8.8827,16.85372 l -8.8827,16.26115 z m 535.6915,6.065 c 0,-0.48342 -3.825,-7.82171 -8.5,-16.30731 -4.675,-8.48561 -8.5,-15.70643 -8.5,-16.04627 0,-0.33984 3.2638,-4.41916 7.2529,-9.06514 3.9891,-4.64598 10.8009,-13.28474 15.1373,-19.19724 4.3364,-5.9125 8.0081,-10.75 8.1593,-10.75 0.4033,0 9.3589,12.60131 13.613,19.15472 l 3.6707,5.65472 -5.5262,9.84528 c -6.0712,10.81606 -21.6385,34.54564 -23.8875,36.41214 -0.7807,0.64791 -1.4195,0.78251 -1.4195,0.2991 z m -289.7428,-25.48125 c -15.86516,-1.07299 -43.698,-5.67045 -47.09244,-7.77879 -1.07299,-0.66645 -0.60824,-3.26264 2.36616,-13.21763 3.91762,-13.1119 12.99603,-39.5407 14.29869,-41.62591 0.61097,-0.97802 2.23067,-0.94211 7.72178,0.17119 7.29211,1.47845 20.30831,3.18324 31.69861,4.1517 l 6.75,0.57392 v 29.4204 c 0,27.40749 -0.1197,29.41058 -1.75,29.27677 -0.9625,-0.079 -7.2593,-0.51624 -13.9928,-0.97165 z m 33.7428,-28.27067 v -29.45485 l 6.75,-0.57991 c 12.9985,-1.11674 25.8055,-2.79046 32.1748,-4.20487 5.1844,-1.15125 6.5794,-1.18032 7.2252,-0.15056 1.3853,2.2088 8.8008,23.67026 13.5272,39.14959 3.6761,12.03942 4.2824,15.03429 3.1821,15.71764 -3.2274,2.00442 -30.1167,6.55904 -43.5309,7.37343 -5.4056,0.32818 -11.9659,0.82342 -14.5784,1.10054 l -4.75,0.50384 z m -107.99997,12.2735 c -10.11589,-3.94596 -33,-15.07252 -33,-16.04504 0,-1.99902 18.11615,-30.8129 27.67169,-44.01204 l 3.38052,-4.66954 9.2239,4.29946 c 5.07314,2.3647 11.81139,5.11068 14.97389,6.10216 3.1625,0.99149 5.75,2.09275 5.75,2.44725 0,0.35451 -2.02433,6.14906 -4.49852,12.87679 -4.85395,13.19872 -12.50148,38.0038 -12.50148,40.54905 0,2.1681 -2.30466,1.84375 -11,-1.54809 z m 187.51977,1.86246 c -0.2295,-0.6875 -2.4612,-8.09516 -4.9592,-16.46147 -2.498,-8.3663 -6.346,-20.01483 -8.5512,-25.88561 -2.2051,-5.87077 -4.0094,-10.98093 -4.0094,-11.35591 0,-0.37497 2.5875,-1.49298 5.75,-2.48447 3.1625,-0.99148 9.9008,-3.73746 14.9739,-6.10216 l 9.2239,-4.29946 3.3805,4.66954 c 9.6012,13.2621 27.6717,42.01494 27.6717,44.02959 0,1.68725 -38.6644,19.13995 -42.4023,19.13995 -0.3633,0 -0.8483,-0.5625 -1.0779,-1.25 z M 141.94967,533.45282 c -4.31866,-4.79553 -15.09529,-18.70804 -21.20454,-27.37482 l -4.58609,-6.50597 10.16364,-11.25251 c 5.59,-6.18888 14.66364,-15.30836 20.16364,-20.26552 9.95828,-8.97542 10.00626,-9.00361 11.5,-6.75842 2.94538,4.42708 11.42566,15.38597 16.36476,21.14784 5.85187,6.82666 6.27302,5.15344 -4.99494,19.84437 -5.85693,7.63614 -18.48621,26.0221 -22.89608,33.3326 -0.90675,1.50317 -1.432,1.25075 -4.51039,-2.16757 z m 472.03662,-9.5436 c -4.675,-7.13333 -12.2125,-17.75621 -16.75,-23.60638 -4.5375,-5.85018 -8.25,-11.02821 -8.25,-11.50674 0,-0.47852 2.1914,-3.42201 4.8697,-6.54109 2.6783,-3.11907 7.7833,-9.56763 11.3445,-14.33013 l 6.4749,-8.65909 10.3088,9.22157 c 5.6699,5.07186 14.7067,14.13274 20.0819,20.13528 l 9.773,10.9137 -4.5969,6.52382 c -6.6327,9.41288 -19.8618,26.31201 -22.4985,28.74 l -2.2574,2.07875 z M 75.549853,510.33397 C 51.437263,449.49553 45.068053,389.44898 55.965883,325.70351 73.384623,223.81485 140.66639,133.51389 234.12446,86.591348 299.11708,53.960471 371.17419,43.458468 442.98629,56.150654 c 102.9389,18.193579 191.9696,84.967226 239.2422,179.433316 23.1977,46.35656 34.7397,95.6945 34.7397,148.5 0,44.65018 -7.5062,83.25836 -24.5454,126.25 -2.1254,5.3625 -4.1055,9.73571 -4.4004,9.71824 -0.2948,-0.0175 -2.777,-3.27997 -5.5159,-7.25 -14.0302,-20.33667 -41.8437,-50.43744 -62.5202,-67.66142 -67.6856,-56.38372 -149.0603,-86.05682 -236,-86.05682 -83.44863,0 -164.13479,28.33887 -229.49997,80.60578 -22.52969,18.01506 -52.93735,50.07998 -67.999997,71.70612 -3.3,4.73796 -6.24124,8.63104 -6.53609,8.65128 -0.29485,0.0203 -2.27502,-4.35068 -4.40038,-9.71318 z m 96.547247,-113.75161 16.84865,-13.50162 0.27029,-20.48241 0.27028,-20.48242 13.24602,12.56321 13.24602,12.56321 5.75398,-2.02426 c 3.16469,-1.11334 11.37898,-4.1155 18.25398,-6.67146 6.875,-2.55596 13.27641,-4.88026 14.22536,-5.16511 2.20568,-0.66209 2.43168,-2.34096 3.74194,-27.79753 0.59448,-11.55 1.51081,-27.525 2.03629,-35.5 0.52548,-7.975 1.42202,-23.05 1.9923,-33.5 0.57029,-10.45 1.22906,-20.125 1.46393,-21.5 0.23488,-1.375 3.78975,-8.6875 7.89973,-16.25 4.10998,-7.5625 7.25243,-13.75 6.98322,-13.75 -0.26921,0 -13.95646,8.81896 -30.41612,19.59768 l -29.92665,19.59768 v 23.74532 c 0,13.05992 -0.2907,29.15172 -0.646,35.75954 l -0.646,12.01423 -14.104,-11.22832 c -7.7572,-6.17557 -19.504,-15.50885 -26.104,-20.74061 l -12,-9.51229 -0.61963,18.63338 c -0.3408,10.24837 -0.6783,26.91563 -0.75,37.03838 -0.12523,17.67913 -0.2016,18.34052 -1.93654,16.77042 -0.99339,-0.89901 -8.7346,-9.71394 -17.20268,-19.58874 -8.46808,-9.8748 -15.73103,-17.74744 -16.13988,-17.49475 -0.69205,0.42771 -37.614917,42.74817 -40.785807,46.74811 -1.3704,1.7287 -0.86924,1.799 11.20892,1.57247 l 12.643467,-0.23714 15.08371,18.41232 c 20.69334,25.25986 28.01257,33.91232 28.68686,33.91232 0.31554,0 8.15561,-6.07573 17.42236,-13.50161 z m 448.57209,5.68585 c 3.4005,-4.22633 12.9815,-15.96979 21.291,-26.09656 l 15.1083,-18.41232 12.6434,0.23714 c 12.0782,0.22653 12.5794,0.15623 11.209,-1.57247 -3.1709,-3.99994 -40.0938,-46.3204 -40.7858,-46.74811 -0.4089,-0.25269 -7.6718,7.61995 -16.1399,17.49475 -8.4681,9.8748 -16.2093,18.68973 -17.2027,19.58874 -1.7353,1.57042 -1.8111,0.87309 -1.931,-17.77042 -0.069,-10.67275 -0.4061,-27.33655 -0.75,-37.03067 l -0.6252,-17.62569 -9.597,7.62569 c -5.2784,4.19412 -17.0253,13.52151 -26.1043,20.72753 l -16.5073,13.10184 -0.6457,-12.00885 c -0.3551,-6.60486 -0.6457,-22.68896 -0.6457,-35.74243 v -23.73359 l -29.8837,-19.60941 c -16.4361,-10.78517 -30.1233,-19.60941 -30.4161,-19.60941 -0.2928,0 2.8303,6.1875 6.9403,13.75 4.11,7.5625 7.6648,14.875 7.8997,16.25 0.2349,1.375 0.8936,11.05 1.4639,21.5 0.5703,10.45 1.4669,25.525 1.9923,33.5 0.5255,7.975 1.4418,23.95 2.0363,35.5 1.4194,27.57728 1.2756,26.79774 5.2218,28.30243 1.7851,0.68063 10.7816,3.96718 19.9924,7.30344 l 16.7469,6.06594 13.2531,-12.56993 13.2531,-12.56994 0.2703,20.47896 0.2703,20.47896 16.7297,13.47164 c 9.2013,7.40941 17.1797,13.4571 17.7297,13.43931 0.55,-0.0178 3.7823,-3.49023 7.1829,-7.71657 z m -246.4441,-81.60885 9.7387,-5.67879 12.7613,7.45921 c 7.0187,4.10256 12.844,7.38053 12.9452,7.28437 0.1012,-0.0962 -1.1363,-6.21809 -2.75,-13.60428 -1.6137,-7.38618 -2.934,-13.96198 -2.934,-14.61286 0,-0.65089 4.725,-5.32016 10.5,-10.37615 5.775,-5.056 10.5,-9.54944 10.5,-9.98544 0,-0.43599 -3.0375,-1.0572 -6.75,-1.38045 -3.7125,-0.32326 -10.2074,-0.8964 -14.433,-1.27364 l -7.6831,-0.68591 -5.7861,-13.36073 c -3.1823,-7.34839 -6.0388,-13.36072 -6.3478,-13.36072 -0.309,0 -3.1519,5.98093 -6.3176,13.29097 l -5.7558,13.29096 -11.7133,1.22041 c -6.4423,0.67122 -12.95077,1.21529 -14.46327,1.20903 -1.5125,-0.006 -2.75,0.38472 -2.75,0.86883 0,0.48411 4.725,5.01692 10.49997,10.07291 5.775,5.056 10.5,9.76674 10.5,10.46833 0,1.06744 -3.5946,18.2378 -5.535,26.43903 l -0.5585,2.36047 3.2967,-1.98338 c 1.8133,-1.09085 7.6793,-4.53883 13.0356,-7.66217 z m 46.3452,-107.49127 -12.8873,-12.91589 0.5421,-48.59533 0.542,-48.59533 6.8596,-6.343073 c 3.7728,-3.48869 9.4028,-8.546142 12.5111,-11.238784 l 5.6514,-4.895713 -24.9014,-0.267171 c -13.6958,-0.146944 -36.1071,-0.146944 -49.8029,0 l -24.90142,0.267171 5.65142,4.895713 c 3.10829,2.692642 8.7442,7.755587 12.5242,11.250989 l 6.8728,6.355278 0.526,48.58605 0.5259,48.58605 -12.88432,12.91296 -12.88429,12.91296 h 49.47111 49.4712 z M 246.13259,173.9173 c 6.74864,-3.94166 12.73903,-7.14802 13.31199,-7.12523 0.57296,0.0228 6.44174,3.20944 13.04174,7.08145 6.6,3.87201 12.11566,6.73138 12.25703,6.35416 0.14136,-0.37723 -1.08492,-6.75138 -2.72506,-14.16479 l -2.98208,-13.47892 5.72505,-5.51568 c 3.14878,-3.03363 8.10906,-7.62171 11.02284,-10.19573 l 5.29779,-4.68004 -3.29779,-0.5116 c -1.81378,-0.28139 -8.51053,-1.0455 -14.88168,-1.69803 l -11.58389,-1.18641 -5.84779,-13.37457 c -3.21628,-7.35602 -6.1819,-13.02883 -6.59026,-12.60626 -0.40836,0.42258 -3.07264,6.16832 -5.92063,12.76832 -2.84799,6.6 -5.46962,12.31014 -5.82585,12.6892 -0.35622,0.37905 -6.49768,1.241 -13.64768,1.91544 -7.15,0.67443 -13.56688,1.50963 -14.25972,1.85599 -0.80172,0.40079 2.68807,4.16378 9.59846,10.34989 l 10.85819,9.72013 -3.18381,14.48468 c -1.7511,7.96657 -3.06081,14.48467 -2.91046,14.48467 0.15035,0 5.79497,-3.225 12.54361,-7.16667 z m 253.8537,-2.67444 c 4.125,-2.43902 7.9688,-4.44755 8.5418,-4.4634 0.5729,-0.0159 6.5633,3.19618 13.312,7.13784 6.7486,3.94167 12.3932,7.16667 12.5436,7.16667 0.1503,0 -1.1594,-6.5181 -2.9105,-14.48467 l -3.1838,-14.48468 10.8451,-9.7084 c 11.6033,-10.38716 11.8822,-11.21217 3.8518,-11.39291 -2.475,-0.0557 -8.5044,-0.62509 -13.3987,-1.26531 l -8.8988,-1.16403 -5.428,-12.5 c -2.9854,-6.875 -5.7617,-12.84574 -6.1695,-13.26832 -0.4079,-0.42257 -3.3731,5.25024 -6.5894,12.60626 l -5.8478,13.37457 -11.5839,1.18641 c -6.3711,0.65253 -13.0679,1.41664 -14.8817,1.69803 l -3.2977,0.5116 5.2977,4.68004 c 2.9138,2.57402 7.8741,7.1621 11.0229,10.19573 l 5.725,5.51568 -2.975,13.44677 c -1.6363,7.39572 -2.9751,13.82719 -2.9751,14.29215 0,0.83591 2.3754,-0.43283 17,-9.08003 z M 227.32841,510.99101 c -5.03684,-3.84927 -12.89798,-10.50537 -17.46918,-14.79134 l -8.31128,-7.79267 6.46919,-7.31203 c 7.46324,-8.43561 31.8163,-31.011 33.4529,-31.011 0.60656,0 3.78337,2.27322 7.05956,5.0516 3.2762,2.77839 8.99422,7.13282 12.70672,9.67652 3.7125,2.5437 6.75,4.96172 6.75,5.37338 0,0.41166 -4.17023,6.96973 -9.26718,14.57349 -5.09695,7.60375 -11.87914,18.21251 -15.07155,23.57501 -3.1924,5.3625 -6.10967,9.72878 -6.48282,9.70285 -0.37315,-0.0259 -4.79951,-3.19654 -9.83636,-7.04581 z M 524.63729,508.797 c -3.0061,-5.10783 -9.7823,-15.71658 -15.0583,-23.57501 -5.276,-7.85843 -9.5732,-14.59179 -9.5494,-14.96303 0.024,-0.37125 3.1134,-2.83999 6.8656,-5.4861 3.7522,-2.6461 9.4507,-7.0336 12.6634,-9.75 3.2126,-2.71639 6.3449,-4.93889 6.9605,-4.93889 1.6269,0 26.9326,23.47693 33.9403,31.48764 l 5.9732,6.828 -8.2166,7.70384 c -7.7496,7.26611 -26.157,21.98052 -27.4971,21.98052 -0.3387,0 -3.0755,-4.17914 -6.0816,-9.28697 z m -161.651,-24.87919 c -10.6204,-0.98368 -25.97533,-3.47587 -26.8588,-4.35934 -0.78148,-0.78148 16.4802,-34.67256 23.6669,-46.46699 l 5.7841,-9.4925 3.9539,0.32452 c 2.1747,0.17849 4.2984,0.65454 4.7193,1.05789 1.1727,1.12364 0.4247,59.40062 -0.7654,59.62651 -0.55,0.1044 -5.275,-0.20614 -10.5,-0.69009 z m 30.6485,0.48128 c -0.9125,-0.91244 -0.8134,-59.09547 0.1015,-59.65907 0.4125,-0.25409 2.55,-0.61815 4.75,-0.80902 l 4,-0.34703 5.7335,9.5 c 7.2681,12.04279 24.3884,45.71148 23.6297,46.47016 -0.9268,0.92684 -15.6786,3.2968 -24.8649,3.99472 -4.6741,0.35511 -9.444,0.83759 -10.5998,1.07218 -1.1559,0.23459 -2.3934,0.13472 -2.75,-0.22194 z M 187.34085,472.81582 c -7.50232,-8.59503 -17.54282,-22.79879 -17.04088,-24.10683 0.75858,-1.97683 17.69309,-13.93066 32.14896,-22.6935 l 11.9626,-7.25148 3.0374,3.82322 c 1.67056,2.10276 5.21239,6.33725 7.87072,9.40997 l 4.83334,5.58677 -6.83334,5.95395 c -3.75833,3.27466 -12.74879,11.93765 -19.9788,19.25106 l -13.14547,13.29713 z m 377.14544,-10.15119 c -7.15,-7.24803 -16.0477,-15.85629 -19.7727,-19.12945 l -6.7728,-5.95121 4.7728,-5.59572 c 2.625,-3.07765 6.1266,-7.29615 7.7814,-9.37445 l 3.0086,-3.77872 8.9914,5.26763 c 9.0162,5.28218 24.2552,15.46077 32.2799,21.56063 l 4.2885,3.25991 -8.9848,11.87677 c -4.9417,6.53223 -9.7965,12.58914 -10.7886,13.45981 -1.6891,1.48251 -2.6292,0.7462 -14.8037,-11.5952 z m -258.66849,8.00915 c -5.86769,-2.40408 -11.16124,-4.67558 -11.76345,-5.04777 -0.68955,-0.42616 0.66865,-2.92224 3.66852,-6.74189 7.69917,-9.80316 32.55262,-37.0691 36.99983,-40.59136 l 4.09533,-3.24356 5.06843,2.26739 5.06843,2.26738 -5.6366,9.5 c -5.38642,9.07834 -20.23949,37.99637 -22.30124,43.41916 -0.55208,1.45208 -1.75743,2.57228 -2.75598,2.56128 -0.97611,-0.0108 -6.57558,-1.98655 -12.44327,-4.39063 z m 141.13179,1.81365 c -2.8922,-7.60721 -17.8993,-36.38778 -25.8178,-49.51342 l -2.1778,-3.60996 5.1639,-2.14603 5.1639,-2.14602 3.3827,2.58009 c 3.8587,2.94315 25.8986,26.97974 35.6979,38.93188 5.8574,7.14427 6.3819,8.13345 4.9036,9.24763 -2.1921,1.65208 -21.6841,9.25237 -23.7291,9.25237 -0.88,0 -2.0443,-1.16844 -2.5873,-2.59654 z M 274.36558,454.33261 c -7.94726,-5.30103 -19.25637,-14.63847 -18.74048,-15.4732 1.83527,-2.96952 37.6169,-24.89993 54.13299,-33.17786 7.55022,-3.78421 9.15542,-3.80009 12.20894,-0.12083 1.14253,1.37667 -0.14377,3.0663 -9.74806,12.8046 -10.02885,10.16877 -26.66219,29.02579 -31.73265,35.97491 l -2,2.74103 z m 213.23451,0.28459 c -3.2442,-4.95117 -21.1453,-25.38799 -31.8058,-36.31102 -9.3558,-9.58616 -10.8167,-11.5068 -9.7396,-12.80459 3.0588,-3.68559 4.6022,-3.60521 13.1585,0.68532 16.0071,8.02667 45.4,25.94023 52.0778,31.7389 2.0847,1.81028 2.8253,1.03025 -10.6954,11.26523 -10.9269,8.27158 -11.0873,8.33853 -12.9955,5.42616 z M 236.12084,419.66771 c -3.37399,-4.07895 -6.12994,-7.79145 -6.12435,-8.25 0.011,-0.90115 1.98798,-1.82367 20.98983,-9.79451 16.19148,-6.79195 43.0701,-15.53923 47.74892,-15.53923 1.83266,0 6.04314,3.58016 5.16162,4.3889 -0.2258,0.20716 -3.69894,2.0231 -7.71811,4.03544 -13.85045,6.93471 -37.62275,21.58373 -48.33633,29.78593 -2.00415,1.53435 -4.08112,2.78973 -4.61548,2.78973 -0.53437,0 -3.73211,-3.33732 -7.1061,-7.41626 z m 286.46535,6.57787 c -1.7813,-2.88224 -36.543,-24.60284 -50.7923,-31.73727 -4.0192,-2.01234 -7.4968,-3.83281 -7.7282,-4.04551 -0.2313,-0.21269 0.5867,-1.45898 1.8179,-2.76952 l 2.2386,-2.3828 8.182,2.29618 c 17.899,5.02307 34.7856,10.99562 48.6821,17.21819 3.575,1.60081 7.9625,3.54884 9.75,4.32895 1.7875,0.78012 3.25,1.79392 3.25,2.25289 0,0.45898 -2.7289,4.17413 -6.0642,8.25589 -5.6556,6.92128 -8.0732,8.62603 -9.3359,6.583 z m -148.5999,-18.27919 c -17.8007,-2.03665 -34.59415,-9.08981 -48.01701,-20.16688 l -7.38815,-6.097 2.9526,-0.80318 c 1.62392,-0.44175 10.15259,-1.77831 18.95259,-2.97013 13.15907,-1.78218 20.88287,-2.16694 43.49997,-2.16694 22.6171,0 30.341,0.38476 43.5,2.16694 8.8,1.19182 17.3048,2.52197 18.8994,2.9559 l 2.8994,0.78895 -5.3994,4.54376 c -11.401,9.5943 -20.4878,14.5965 -33.2157,18.2849 -6.9872,2.0248 -25.5001,4.92717 -28.3943,4.45152 -0.4341,-0.0713 -4.1644,-0.51588 -8.2894,-0.98784 z"
            id="path14" />
      </g>
   </g>
</svg>