<?xml version="1.0" encoding="UTF-8"?>
<!-- Generator: visioncortex VTracer 0.6.4 -->
<svg version="1.1" xmlns="http://www.w3.org/2000/svg" width="2000" height="1500">
<path d="M0 0 C660 0 1320 0 2000 0 C2000 495 2000 990 2000 1500 C1340 1500 680 1500 0 1500 C0 1005 0 510 0 0 Z " fill="#E50004" transform="translate(0,0)"/>
<path d="M0 0 C0.85 -0 1.7 -0.01 2.58 -0.01 C3.4 -0.01 4.22 -0.01 5.07 -0.01 C6.18 -0.01 6.18 -0.01 7.32 -0 C9.47 0.13 11.37 0.54 13.44 1.12 C13.44 1.79 13.44 2.44 13.44 3.12 C14.37 3.27 15.29 3.41 16.25 3.56 C19.44 4.12 19.44 4.12 22.44 5.12 C22.44 5.79 22.44 6.44 22.44 7.12 C23.1 7.31 23.76 7.5 24.44 7.69 C28.03 9.41 30.48 11.68 33.4 14.35 C35.17 15.89 36.9 17.12 38.88 18.38 C44.05 21.94 47.62 27.21 51.44 32.12 C52.14 32.87 52.84 33.62 53.57 34.39 C56.16 38.19 56.83 41.96 57.69 46.44 C57.86 47.27 58.03 48.11 58.21 48.97 C58.63 51.02 59.04 53.07 59.44 55.12 C60.1 55.12 60.76 55.12 61.44 55.12 C62.24 56.39 62.24 56.39 63.06 57.69 C66.59 63.25 72.01 68.32 78.44 70.12 C78.44 70.78 78.44 71.44 78.44 72.12 C84.75 73.55 91.08 74.88 97.44 76.12 C97.44 76.78 97.44 77.44 97.44 78.12 C98.11 78.19 98.79 78.25 99.48 78.31 C100.38 78.39 101.27 78.48 102.19 78.56 C103.51 78.68 103.51 78.68 104.86 78.81 C107.13 79.09 109.24 79.51 111.44 80.12 C111.44 80.78 111.44 81.44 111.44 82.12 C127.22 83.42 142.84 84.24 158.68 84.09 C173.04 83.95 187.2 84.03 201.44 86.12 C201.44 86.78 201.44 87.44 201.44 88.12 C202.52 88.19 203.61 88.25 204.73 88.31 C206.17 88.39 207.62 88.48 209.06 88.56 C209.78 88.6 210.49 88.64 211.22 88.68 C215.36 88.93 219.36 89.36 223.44 90.12 C223.44 90.78 223.44 91.44 223.44 92.12 C224.55 92.18 224.55 92.18 225.68 92.24 C235.09 92.83 244.19 94.36 253.44 96.12 C253.44 96.78 253.44 97.44 253.44 98.12 C254.35 98.2 254.35 98.2 255.27 98.27 C261.44 98.82 267.4 99.8 273.44 101.12 C273.44 101.78 273.44 102.44 273.44 103.12 C274.05 103.16 274.67 103.2 275.31 103.24 C276.16 103.3 277 103.37 277.88 103.44 C278.7 103.5 279.52 103.55 280.37 103.61 C283 104.05 285.19 104.67 287.69 105.54 C292.38 107.17 297.07 108.19 301.94 109.12 C307.6 110.21 312.97 111.56 318.42 113.45 C320.91 114.28 323.41 114.84 326 115.31 C327.27 115.55 327.27 115.55 328.57 115.79 C329.18 115.9 329.8 116.01 330.44 116.12 C330.44 116.78 330.44 117.44 330.44 118.12 C331.74 118.25 333.04 118.37 334.38 118.5 C339.92 119.12 345.55 119.9 350.71 122.09 C354.15 123.4 357.65 124.07 361.25 124.75 C361.94 124.88 362.64 125.02 363.35 125.16 C365.04 125.48 366.74 125.8 368.44 126.12 C368.44 126.78 368.44 127.44 368.44 128.12 C369.1 128.19 369.77 128.25 370.45 128.31 C379.22 129.14 379.22 129.14 383.44 130.12 C383.44 130.78 383.44 131.44 383.44 132.12 C384.12 132.17 384.79 132.22 385.49 132.27 C391.93 132.79 398.13 133.72 404.44 135.12 C404.44 135.78 404.44 136.44 404.44 137.12 C402.13 137.46 399.82 137.78 397.44 138.12 C397.44 138.78 397.44 139.44 397.44 140.12 C394.92 140.63 392.4 141.13 389.88 141.62 C389.17 141.77 388.47 141.91 387.74 142.06 C383.22 142.93 379.04 143.27 374.44 143.12 C374.44 143.78 374.44 144.44 374.44 145.12 C364.5 145.98 354.6 146.23 344.62 146.25 C343.49 146.25 342.36 146.26 341.2 146.26 C322.65 146.23 322.65 146.23 318.44 144.12 C316.63 143.84 314.81 143.59 312.99 143.37 C311.92 143.24 310.84 143.11 309.73 142.97 C308.04 142.77 308.04 142.77 306.31 142.56 C305.18 142.42 304.04 142.29 302.87 142.14 C300.06 141.8 297.25 141.46 294.44 141.12 C294.44 140.47 294.44 139.81 294.44 139.12 C293.77 139.08 293.1 139.03 292.42 138.98 C285.66 138.43 279.09 137.45 272.44 136.12 C272.44 135.47 272.44 134.81 272.44 134.12 C271.87 134.09 271.3 134.05 270.71 134.01 C261.22 133.24 252.07 131.16 243.09 128.02 C239.32 126.75 235.51 125.63 231.69 124.5 C230.95 124.28 230.22 124.06 229.46 123.84 C225.81 122.76 222.19 121.79 218.44 121.12 C218.44 120.47 218.44 119.81 218.44 119.12 C217.2 119 215.96 118.88 214.69 118.75 C210.9 118.34 207.18 117.74 203.44 117.06 C189.28 114.72 175.69 117.14 162.7 123.14 C160.44 124.12 160.44 124.12 158.44 124.12 C158.44 124.78 158.44 125.44 158.44 126.12 C156.93 127.13 156.93 127.13 154.88 128.25 C145.83 133.74 140.41 142.37 137.82 152.57 C136.21 163.44 137.23 173.81 142.63 183.4 C143.44 185.12 143.44 185.12 143.44 188.12 C144.43 188.46 145.42 188.78 146.44 189.12 C147.46 190.78 148.46 192.45 149.44 194.12 C150.43 194.78 151.42 195.44 152.44 196.12 C152.44 196.78 152.44 197.44 152.44 198.12 C155.74 199.12 159.04 200.11 162.44 201.12 C162.44 201.78 162.44 202.44 162.44 203.12 C179.7 204.8 197.17 204.65 214.44 203.12 C214.44 202.47 214.44 201.81 214.44 201.12 C215.91 200.78 215.91 200.78 217.4 200.43 C218.73 200.1 220.05 199.77 221.38 199.44 C222.02 199.29 222.66 199.14 223.31 198.99 C228.88 197.57 233.53 195.07 238.44 192.12 C237.87 192.16 237.3 192.19 236.71 192.22 C182.65 195.01 182.65 195.01 164.44 186.12 C164.44 185.47 164.44 184.81 164.44 184.12 C163.72 183.92 162.99 183.71 162.25 183.5 C157.36 181.11 155.04 177.88 153.32 172.88 C151.27 164.14 151.17 154.5 155.05 146.27 C159.07 140.06 165.5 135.6 172.44 133.12 C173.43 133.12 174.42 133.12 175.44 133.12 C175.44 132.47 175.44 131.81 175.44 131.12 C185.55 128.36 195.21 129.46 205.44 131.12 C205.44 131.78 205.44 132.44 205.44 133.12 C206.58 133.2 206.58 133.2 207.75 133.27 C214.17 133.74 220.19 134.56 226.44 136.12 C226.44 136.78 226.44 137.44 226.44 138.12 C227.72 138.23 228.99 138.33 230.31 138.44 C234.54 138.91 238.3 139.93 242.33 141.23 C249.27 143.23 256.38 144.61 263.44 146.12 C263.44 146.78 263.44 147.44 263.44 148.12 C264.31 148.2 264.31 148.2 265.2 148.27 C272.01 148.89 278.71 149.93 285.44 151.12 C285.44 151.78 285.44 152.44 285.44 153.12 C299.11 154.5 312.83 154.32 326.56 154.31 C327.82 154.31 329.08 154.31 330.38 154.31 C346.06 154.3 361.72 154.14 377.38 153.25 C378.09 153.21 378.81 153.17 379.55 153.13 C386.63 152.73 393.49 152.11 400.42 150.57 C404.06 149.77 407.73 149.48 411.44 149.12 C410.34 152.41 409.66 153.01 407.06 155.12 C403.51 158.13 400.21 161.31 396.94 164.62 C390.74 170.89 384.35 176.6 377.2 181.77 C375.41 183.08 375.41 183.08 373.91 184.68 C371.99 186.57 369.74 187.67 367.4 188.95 C365.25 190.24 363.34 191.7 361.38 193.25 C358.2 195.7 355.37 197.14 351.44 198.12 C351.44 198.78 351.44 199.44 351.44 200.12 C350.19 200.74 350.19 200.74 348.92 201.37 C347.83 201.91 346.74 202.44 345.62 203 C344.55 203.53 343.47 204.07 342.36 204.62 C339.36 206.1 339.36 206.1 336.44 208.12 C335.45 208.12 334.46 208.12 333.44 208.12 C333.44 208.78 333.44 209.44 333.44 210.12 C332.57 210.45 331.7 210.78 330.8 211.11 C329.65 211.55 328.5 211.99 327.31 212.44 C326.18 212.87 325.04 213.3 323.87 213.74 C320.43 215.07 320.43 215.07 317.25 216.75 C313.97 218.35 311.05 218.76 307.44 219.12 C307.44 219.78 307.44 220.44 307.44 221.12 C306.51 221.4 306.51 221.4 305.57 221.68 C301.39 222.92 297.24 224.18 293.12 225.62 C288.35 227.25 283.48 228.31 278.55 229.38 C275.42 230.07 275.42 230.07 272.41 231.18 C269.39 232.14 266.72 232.52 263.56 232.75 C262.11 232.86 262.11 232.86 260.63 232.98 C259.91 233.03 259.18 233.07 258.44 233.12 C258.44 233.78 258.44 234.44 258.44 235.12 C256.96 235.3 256.96 235.3 255.46 235.48 C251.8 235.91 248.15 236.34 244.5 236.78 C242.92 236.97 241.34 237.15 239.76 237.34 C237.49 237.61 235.22 237.88 232.95 238.15 C232.24 238.23 231.54 238.32 230.81 238.4 C227.87 238.76 225.25 239.19 222.44 240.12 C194.47 242.84 165.45 241.67 137.44 240.12 C137.44 239.13 137.44 238.14 137.44 237.12 C136.78 237.12 136.12 237.12 135.44 237.12 C135.18 236.19 135.18 236.19 134.92 235.23 C134.68 234.41 134.44 233.59 134.19 232.75 C133.84 231.53 133.84 231.53 133.48 230.29 C132.19 227.62 131.13 227.22 128.44 226.12 C126.77 224.79 125.1 223.46 123.44 222.12 C122.13 221.42 120.8 220.73 119.44 220.12 C119.44 219.47 119.44 218.81 119.44 218.12 C110.9 216.22 102.53 215.91 93.81 215.88 C92.76 215.87 91.72 215.86 90.64 215.85 C84.51 215.87 78.8 216.42 72.8 217.7 C70.44 218.12 70.44 218.12 66.44 218.12 C66.44 218.78 66.44 219.44 66.44 220.12 C64.86 220.63 63.27 221.13 61.69 221.62 C60.36 222.04 60.36 222.04 59.02 222.47 C56.44 223.12 56.44 223.12 52.44 223.12 C52.44 223.78 52.44 224.44 52.44 225.12 C51.64 225.44 50.84 225.75 50.02 226.08 C44.4 228.35 39.38 230.62 34.44 234.12 C33.78 234.12 33.12 234.12 32.44 234.12 C32.44 234.78 32.44 235.44 32.44 236.12 C30.59 237.29 28.75 238.44 26.88 239.55 C23.19 241.93 19.9 244.74 16.54 247.55 C14.44 249.12 14.44 249.12 12.44 249.12 C12.11 250.12 11.78 251.11 11.44 252.12 C9.8 253.49 8.17 254.85 6.53 256.21 C-1.03 263.15 -8.96 272.92 -13.56 282.12 C-14.22 282.12 -14.88 282.12 -15.56 282.12 C-15.81 282.97 -16.06 283.82 -16.31 284.69 C-17.41 287.7 -18.72 290.25 -20.35 293 C-21.88 295.69 -23.29 298.43 -24.69 301.19 C-25.43 302.66 -25.43 302.66 -26.2 304.16 C-27.55 307.1 -28.6 310.04 -29.56 313.12 C-30.22 313.12 -30.88 313.12 -31.56 313.12 C-31.69 314.14 -31.81 315.15 -31.94 316.19 C-32.54 320 -33.43 323.44 -34.56 327.12 C-35.22 327.12 -35.88 327.12 -36.56 327.12 C-36.69 328.38 -36.81 329.64 -36.94 330.94 C-37.54 336.39 -38.53 341.75 -39.56 347.12 C-40.22 347.12 -40.88 347.12 -41.56 347.12 C-41.62 348.06 -41.68 348.99 -41.75 349.95 C-41.83 351.22 -41.91 352.5 -42 353.81 C-42.13 355.79 -42.26 357.77 -42.39 359.75 C-42.51 361.37 -42.65 362.98 -42.81 364.59 C-43.86 375.86 -43.71 387.13 -43.7 398.43 C-43.7 400.72 -43.7 403 -43.7 405.29 C-43.7 410.09 -43.7 414.88 -43.69 419.68 C-43.69 425.7 -43.69 431.72 -43.7 437.75 C-43.73 473.07 -43.42 508.35 -41.5 543.62 C-40.88 555.14 -40.42 566.59 -40.56 578.12 C-39.9 578.12 -39.24 578.12 -38.56 578.12 C-37.52 579.73 -37.52 579.73 -36.38 581.88 C-33.75 586.3 -31.17 587.96 -26.56 590.12 C-26.56 590.78 -26.56 591.45 -26.56 592.12 C-25.26 592.27 -23.96 592.41 -22.62 592.56 C-19.46 592.91 -16.29 593.27 -13.13 593.62 C-11.65 593.79 -10.17 593.96 -8.69 594.12 C-7.52 594.26 -7.52 594.26 -6.33 594.39 C-1.04 594.98 4.25 595.48 9.57 595.88 C11.44 596.12 11.44 596.12 12.44 597.12 C13.91 597.4 15.39 597.64 16.88 597.88 C31.21 600.76 42.49 611.18 50.94 622.77 C55.17 629.42 59.07 636.13 59.44 644.12 C60.1 644.12 60.76 644.12 61.44 644.12 C66.39 666.61 66.71 690.04 56.44 711.12 C55.78 711.12 55.12 711.12 54.44 711.12 C54.23 711.98 54.02 712.83 53.8 713.71 C52.1 717.96 49.72 720.51 46.56 723.75 C45.77 724.59 45.77 724.59 44.96 725.45 C43.46 727.02 41.95 728.57 40.44 730.12 C39.69 730.92 38.95 731.71 38.18 732.52 C36.44 734.12 36.44 734.12 34.44 734.12 C34.18 732.91 33.93 731.69 33.67 730.43 C33.32 728.81 32.97 727.19 32.62 725.56 C32.46 724.76 32.29 723.96 32.12 723.14 C31.04 718.14 29.55 713.78 27.44 709.12 C26.93 707.54 26.43 705.96 25.94 704.38 C19.64 686.97 7.67 667.57 -8.56 658.12 C-9.42 657.58 -10.29 657.03 -11.18 656.46 C-13.88 654.95 -15.51 654.86 -18.56 655.12 C-21.96 661.32 -21.96 661.32 -23.56 668.12 C-23.64 668.84 -23.71 669.56 -23.79 670.3 C-24.3 678.88 -21.08 685.13 -15.75 691.69 C-5.54 704.81 1.7 725.36 1.5 741.94 C1.49 742.91 1.48 743.89 1.47 744.89 C1.46 746 1.46 746 1.44 747.12 C-3.53 749.61 -10.94 748.37 -16.5 748.38 C-17.27 748.38 -18.04 748.38 -18.84 748.38 C-32.32 748.38 -45.9 748.24 -58.56 743.12 C-60.83 742.61 -63.1 742.13 -65.38 741.69 C-71.57 740.4 -77.11 738.61 -82.9 736.12 C-93.53 732.16 -104.3 732.45 -115.51 732.49 C-118.92 732.5 -122.34 732.45 -125.75 732.4 C-137.13 732.34 -146.57 732.78 -156.89 737.83 C-159.56 739.12 -159.56 739.12 -162.56 739.12 C-162.56 739.78 -162.56 740.45 -162.56 741.12 C-165.53 741.78 -168.5 742.45 -171.56 743.12 C-171.56 743.78 -171.56 744.45 -171.56 745.12 C-173.14 745.63 -174.73 746.13 -176.31 746.62 C-177.64 747.04 -177.64 747.04 -178.98 747.47 C-181.56 748.12 -181.56 748.12 -185.56 748.12 C-185.56 748.78 -185.56 749.45 -185.56 750.12 C-200.53 753.39 -213.55 754.31 -228.56 750.12 C-229.17 729.11 -218.79 708.07 -207.19 691.12 C-202.99 684.91 -201.21 678.62 -202.56 671.12 C-204.19 668.08 -206.19 665.62 -208.56 663.12 C-209.07 662.57 -209.58 662.01 -210.1 661.44 C-211.58 659.9 -211.58 659.9 -214.19 659.56 C-219.26 660.41 -222.57 662.98 -226.56 666.12 C-227.21 666.64 -227.86 667.15 -228.53 667.67 C-235.99 674.34 -240.7 683.51 -245.56 692.12 C-245.92 692.75 -246.27 693.38 -246.64 694.03 C-253.12 705.7 -256.97 718.33 -260.56 731.12 C-275.44 718.67 -286.95 702.87 -289.56 683.12 C-289.7 680.14 -289.7 677.17 -289.69 674.19 C-289.69 673.41 -289.7 672.64 -289.7 671.85 C-289.69 665.55 -289.25 659.54 -287.12 653.56 C-286.86 652.81 -286.6 652.06 -286.33 651.28 C-286.08 650.57 -285.82 649.86 -285.56 649.12 C-285.17 647.95 -284.78 646.77 -284.38 645.56 C-284.11 644.76 -283.84 643.95 -283.56 643.12 C-282.9 643.12 -282.24 643.12 -281.56 643.12 C-281.44 642.38 -281.32 641.64 -281.19 640.88 C-280.61 638.32 -279.83 636.4 -278.56 634.12 C-277.9 634.12 -277.24 634.12 -276.56 634.12 C-276.38 633.3 -276.21 632.47 -276.02 631.61 C-274.02 626.82 -270.88 623.9 -267.19 620.31 C-266.51 619.63 -265.84 618.95 -265.15 618.25 C-260.08 613.25 -260.08 613.25 -257.4 612.61 C-256.79 612.45 -256.19 612.29 -255.56 612.12 C-255.23 611.13 -254.9 610.14 -254.56 609.12 C-251.5 607.94 -251.5 607.94 -248.56 607.12 C-248.56 606.47 -248.56 605.8 -248.56 605.12 C-244.11 603.64 -244.11 603.64 -239.56 602.12 C-239.56 601.47 -239.56 600.8 -239.56 600.12 C-238.13 599.62 -236.69 599.12 -235.25 598.62 C-234.45 598.35 -233.65 598.07 -232.82 597.78 C-230.56 597.12 -230.56 597.12 -227.56 597.12 C-227.56 596.47 -227.56 595.8 -227.56 595.12 C-225.67 594.62 -223.77 594.12 -221.88 593.62 C-220.82 593.35 -219.76 593.07 -218.68 592.78 C-215.85 592.19 -213.43 592 -210.56 592.12 C-210.56 591.47 -210.56 590.8 -210.56 590.12 C-206.93 589.8 -203.3 589.47 -199.56 589.12 C-199.5 587.64 -199.44 586.16 -199.38 584.64 C-199.29 582.7 -199.21 580.75 -199.12 578.81 C-199.07 577.35 -199.07 577.35 -199.01 575.85 C-198.96 574.92 -198.92 573.98 -198.88 573.01 C-198.84 572.15 -198.81 571.28 -198.77 570.39 C-198.56 568.12 -198.56 568.12 -197.56 565.12 C-197.27 562.4 -197.02 559.69 -196.81 556.96 C-196.74 556.16 -196.68 555.37 -196.61 554.55 C-196.4 552.01 -196.2 549.47 -196 546.94 C-195.86 545.22 -195.72 543.5 -195.58 541.78 C-195.24 537.56 -194.9 533.34 -194.56 529.12 C-193.9 529.12 -193.24 529.12 -192.56 529.12 C-192.58 528.56 -192.6 527.99 -192.62 527.4 C-192.71 521.36 -192.4 515.42 -191.91 509.41 C-189.99 485.73 -189.25 462.15 -189.25 438.4 C-189.25 436.15 -189.25 433.9 -189.24 431.65 C-189.21 416.22 -189.42 400.91 -191.14 385.56 C-191.59 381.39 -191.64 377.32 -191.56 373.12 C-192.22 373.12 -192.88 373.12 -193.56 373.12 C-194.07 370.21 -194.57 367.29 -195.06 364.38 C-195.21 363.55 -195.35 362.73 -195.5 361.88 C-195.63 361.08 -195.77 360.28 -195.91 359.45 C-196.03 358.72 -196.16 357.99 -196.29 357.23 C-196.56 355.12 -196.56 355.12 -196.56 351.12 C-197.22 351.12 -197.88 351.12 -198.56 351.12 C-198.8 350.09 -199.05 349.05 -199.3 347.98 C-201.02 340.76 -202.79 333.84 -205.83 327.04 C-206.56 325.12 -206.56 325.12 -206.56 322.12 C-207.22 322.12 -207.88 322.12 -208.56 322.12 C-208.79 321.52 -209.02 320.91 -209.26 320.29 C-212.7 309.31 -212.7 309.31 -219.56 301.12 C-220.52 299.47 -221.47 297.81 -222.39 296.14 C-230.03 283 -240.65 271.35 -252.95 262.5 C-253.48 262.05 -254.01 261.59 -254.56 261.12 C-254.56 260.46 -254.56 259.81 -254.56 259.12 C-255.58 258.78 -255.58 258.78 -256.62 258.44 C-259.75 257.04 -262.2 255.31 -264.91 253.25 C-266.68 251.93 -266.68 251.93 -269.56 251.12 C-269.56 250.47 -269.56 249.81 -269.56 249.12 C-270.42 248.86 -271.29 248.59 -272.18 248.32 C-275.54 247.13 -278.58 245.7 -281.75 244.06 C-284.69 242.55 -287.42 241.17 -290.56 240.12 C-290.56 239.47 -290.56 238.81 -290.56 238.12 C-292.45 237.75 -292.45 237.75 -294.38 237.38 C-299.11 236.33 -303.55 234.76 -308.08 233.03 C-310.23 232.24 -312.33 231.63 -314.56 231.12 C-314.56 230.47 -314.56 229.81 -314.56 229.12 C-316.48 228.94 -316.48 228.94 -318.44 228.75 C-324.51 228.07 -330.59 227.18 -336.37 225.13 C-340.03 223.98 -343.64 223.44 -347.44 223 C-348.44 222.87 -348.44 222.87 -349.46 222.74 C-355.88 221.96 -362.23 221.54 -368.56 223.12 C-369.33 223.31 -370.09 223.5 -370.88 223.69 C-371.71 223.9 -371.71 223.9 -372.56 224.12 C-372.56 224.78 -372.56 225.44 -372.56 226.12 C-373.42 226.38 -374.28 226.63 -375.16 226.89 C-382.4 229 -382.4 229 -389.38 231.81 C-393.2 233.39 -396.45 233.76 -400.56 234.12 C-400.56 234.78 -400.56 235.44 -400.56 236.12 C-408.99 238.41 -408.99 238.41 -413.56 238.12 C-413.56 238.78 -413.56 239.44 -413.56 240.12 C-416.1 240.63 -418.64 241.13 -421.19 241.62 C-421.9 241.77 -422.61 241.91 -423.35 242.06 C-427.48 242.86 -431.33 243.29 -435.56 243.12 C-435.56 243.78 -435.56 244.44 -435.56 245.12 C-452.07 247.87 -468.37 248.43 -485.06 248.44 C-486.04 248.44 -487.02 248.44 -488.02 248.45 C-500.67 248.47 -513.02 247.82 -525.56 246.12 C-525.56 245.47 -525.56 244.81 -525.56 244.12 C-526.19 244.09 -526.83 244.05 -527.48 244.01 C-535.35 243.43 -542.88 241.91 -550.56 240.12 C-550.56 239.47 -550.56 238.81 -550.56 238.12 C-551.66 237.98 -552.75 237.84 -553.88 237.69 C-557.56 237.12 -557.56 237.12 -560.56 236.12 C-560.56 235.47 -560.56 234.81 -560.56 234.12 C-561.54 234.03 -562.52 233.94 -563.54 233.85 C-568.05 233.2 -571.89 231.46 -576 229.56 C-576.73 229.23 -577.46 228.9 -578.22 228.56 C-580 227.76 -581.78 226.94 -583.56 226.12 C-583.56 225.47 -583.56 224.81 -583.56 224.12 C-586.53 223.13 -589.5 222.14 -592.56 221.12 C-592.56 220.47 -592.56 219.81 -592.56 219.12 C-593.51 218.82 -594.46 218.51 -595.44 218.19 C-598.56 217.12 -598.56 217.12 -600.56 216.12 C-600.56 215.47 -600.56 214.81 -600.56 214.12 C-601.37 213.92 -602.17 213.71 -603 213.5 C-608.97 211.2 -614.08 207.67 -618.56 203.12 C-620.24 201.71 -621.93 200.32 -623.62 198.94 C-624.6 198.14 -625.58 197.34 -626.58 196.52 C-628.46 195.01 -630.35 193.51 -632.26 192.04 C-637.68 187.84 -642.27 183.47 -646.56 178.12 C-643.54 176.62 -641.18 177.5 -637.88 178 C-630.12 179.11 -622.4 179.78 -614.56 180.12 C-612.8 180.21 -612.8 180.21 -611.01 180.29 C-602.07 180.5 -593.33 179.71 -584.44 178.75 C-583.26 178.62 -582.09 178.5 -580.88 178.37 C-579.76 178.24 -578.64 178.11 -577.49 177.98 C-576.49 177.86 -575.5 177.75 -574.47 177.63 C-571.35 177.09 -568.54 176.17 -565.56 175.12 C-563.44 174.62 -561.32 174.14 -559.19 173.69 C-554.78 172.7 -550.72 171.52 -546.55 169.82 C-542.67 168.46 -538.6 167.83 -534.56 167.12 C-534.56 166.47 -534.56 165.81 -534.56 165.12 C-533.73 164.81 -532.89 164.5 -532.04 164.17 C-526.16 161.94 -520.36 159.63 -514.63 157.04 C-505.78 153.12 -505.78 153.12 -501.56 153.12 C-501.56 152.47 -501.56 151.81 -501.56 151.12 C-499.63 150.45 -497.69 149.79 -495.75 149.12 C-494.67 148.75 -493.59 148.38 -492.48 148 C-489.56 147.12 -489.56 147.12 -486.56 147.12 C-486.56 146.47 -486.56 145.81 -486.56 145.12 C-482.11 144.13 -482.11 144.13 -477.56 143.12 C-477.56 142.47 -477.56 141.81 -477.56 141.12 C-460.04 136.88 -445.22 136.32 -427.56 140.12 C-427.56 140.78 -427.56 141.44 -427.56 142.12 C-426.74 142.19 -425.91 142.25 -425.06 142.31 C-416.89 144.21 -409.23 150.25 -404.75 157.25 C-401.95 161.91 -401.4 165.56 -401.38 171 C-401.36 172.21 -401.35 173.43 -401.33 174.68 C-401.55 177.97 -402.15 180.18 -403.56 183.12 C-404.22 183.12 -404.88 183.12 -405.56 183.12 C-405.73 183.83 -405.89 184.53 -406.06 185.25 C-408.22 189.39 -411.6 191.72 -415.56 194.12 C-416.22 194.12 -416.88 194.12 -417.56 194.12 C-417.56 194.78 -417.56 195.44 -417.56 196.12 C-418.83 196.63 -420.1 197.13 -421.38 197.62 C-422.44 198.04 -422.44 198.04 -423.52 198.47 C-425.56 199.12 -425.56 199.12 -428.56 199.12 C-428.56 199.78 -428.56 200.44 -428.56 201.12 C-433.4 202.46 -437.5 203.38 -442.56 203.12 C-442.56 203.78 -442.56 204.44 -442.56 205.12 C-456.48 207.32 -470.51 208.17 -484.56 209.12 C-483.43 209.27 -482.29 209.41 -481.12 209.56 C-477.56 210.12 -477.56 210.12 -476.56 211.12 C-460.86 213.54 -444.33 212.26 -428.56 211.12 C-428.56 210.47 -428.56 209.81 -428.56 209.12 C-427.33 208.79 -426.09 208.47 -424.81 208.12 C-424.12 207.94 -423.42 207.75 -422.7 207.56 C-420.56 207.12 -420.56 207.12 -416.56 207.12 C-416.56 206.47 -416.56 205.81 -416.56 205.12 C-415.93 204.85 -415.3 204.57 -414.66 204.28 C-409.04 201.65 -404.63 198.78 -400.16 194.48 C-398.56 193.12 -398.56 193.12 -396.56 193.12 C-395.9 191.48 -395.24 189.83 -394.56 188.12 C-393.9 188.12 -393.24 188.12 -392.56 188.12 C-392.44 187.44 -392.32 186.76 -392.19 186.06 C-391.56 183.12 -391.56 183.12 -390.55 179.93 C-387.95 169.91 -388.35 158.22 -393.56 149.12 C-398.72 141.91 -404.7 137.11 -412.56 133.12 C-413.27 132.74 -413.98 132.35 -414.7 131.95 C-431.58 123.38 -457.14 125.6 -474.88 130.81 C-480.59 132.68 -486.16 134.9 -491.74 137.14 C-494.56 138.12 -494.56 138.12 -497.56 138.12 C-497.56 138.78 -497.56 139.44 -497.56 140.12 C-498.31 140.37 -499.06 140.61 -499.84 140.86 C-504.92 142.53 -509.94 144.24 -514.88 146.31 C-518.82 147.94 -522.32 148.76 -526.56 149.12 C-526.56 149.78 -526.56 150.44 -526.56 151.12 C-527.66 151.39 -528.76 151.66 -529.89 151.93 C-531.34 152.29 -532.8 152.64 -534.25 153 C-534.97 153.17 -535.69 153.35 -536.44 153.53 C-539.48 154.28 -542.34 155.04 -545.25 156.22 C-547.84 157.24 -550.1 157.53 -552.88 157.75 C-554.2 157.86 -554.2 157.86 -555.55 157.98 C-556.21 158.03 -556.88 158.07 -557.56 158.12 C-557.56 158.78 -557.56 159.44 -557.56 160.12 C-558.74 160.3 -558.74 160.3 -559.93 160.48 C-563.46 161 -566.98 161.53 -570.5 162.06 C-572.35 162.34 -572.35 162.34 -574.23 162.62 C-575.99 162.88 -575.99 162.88 -577.78 163.15 C-578.86 163.31 -579.95 163.48 -581.06 163.64 C-583.49 163.87 -583.49 163.87 -584.56 165.12 C-592.62 166.41 -600.85 166.28 -608.98 166.26 C-610.99 166.25 -613.01 166.26 -615.03 166.26 C-622.92 166.25 -630.71 165.94 -638.56 165.12 C-638.56 164.47 -638.56 163.81 -638.56 163.12 C-639.53 163.06 -640.49 163 -641.48 162.94 C-642.75 162.86 -644.01 162.77 -645.31 162.69 C-647.19 162.57 -647.19 162.57 -649.11 162.44 C-651.75 162.2 -654.04 161.88 -656.56 161.12 C-656.56 160.47 -656.56 159.81 -656.56 159.12 C-654.52 158.79 -652.48 158.45 -650.44 158.12 C-649.3 157.94 -648.16 157.75 -646.99 157.56 C-643.8 157.16 -640.77 157.05 -637.56 157.12 C-637.56 156.47 -637.56 155.81 -637.56 155.12 C-635.67 154.79 -633.77 154.45 -631.88 154.12 C-630.82 153.94 -629.76 153.75 -628.68 153.56 C-625.91 153.17 -623.35 153.04 -620.56 153.12 C-620.56 152.47 -620.56 151.81 -620.56 151.12 C-617.98 150.45 -615.4 149.79 -612.81 149.12 C-612.08 148.93 -611.35 148.74 -610.6 148.55 C-607.12 147.66 -604.18 147.12 -600.56 147.12 C-600.56 146.47 -600.56 145.81 -600.56 145.12 C-598.96 144.62 -597.36 144.12 -595.75 143.62 C-594.86 143.35 -593.96 143.07 -593.04 142.78 C-590.56 142.12 -590.56 142.12 -587.56 142.12 C-587.56 141.47 -587.56 140.81 -587.56 140.12 C-586.13 139.62 -584.69 139.12 -583.25 138.62 C-582.05 138.21 -582.05 138.21 -580.82 137.78 C-578.56 137.12 -578.56 137.12 -575.56 137.12 C-575.56 136.47 -575.56 135.81 -575.56 135.12 C-572.96 133.95 -570.36 132.79 -567.75 131.62 C-567.01 131.29 -566.27 130.96 -565.51 130.61 C-564.45 130.14 -564.45 130.14 -563.36 129.66 C-562.7 129.36 -562.05 129.07 -561.37 128.77 C-559.56 128.12 -559.56 128.12 -556.56 128.12 C-556.56 127.47 -556.56 126.81 -556.56 126.12 C-549.94 123.12 -549.94 123.12 -546.56 123.12 C-546.56 122.47 -546.56 121.81 -546.56 121.12 C-545.85 120.86 -545.14 120.59 -544.41 120.32 C-543.49 119.97 -542.57 119.61 -541.62 119.25 C-540.71 118.9 -539.79 118.55 -538.85 118.2 C-536.41 117.34 -536.41 117.34 -535.56 115.12 C-533.21 113.85 -530.85 112.66 -528.44 111.5 C-522.91 108.8 -517.46 106.01 -512.06 103.06 C-504.43 98.93 -496.56 95.47 -488.56 92.12 C-487.64 91.73 -486.71 91.34 -485.75 90.94 C-465.78 82.73 -448 80.63 -426.56 81.12 C-426.56 81.78 -426.56 82.44 -426.56 83.12 C-425.18 83.09 -425.18 83.09 -423.77 83.05 C-417.23 82.96 -411.04 83.07 -404.56 84.12 C-390.07 86.4 -377.07 84.47 -362.88 81.62 C-360.31 81.12 -357.74 80.62 -355.17 80.13 C-353.59 79.82 -352.01 79.51 -350.42 79.19 C-347.04 78.53 -344.03 78.12 -340.56 78.12 C-340.56 77.47 -340.56 76.81 -340.56 76.12 C-339.93 75.91 -339.3 75.69 -338.66 75.46 C-328.36 71.65 -319.01 65.31 -314.12 55.12 C-313.94 54.47 -313.75 53.8 -313.56 53.12 C-312.9 53.12 -312.24 53.12 -311.56 53.12 C-311.44 52.05 -311.32 50.98 -311.19 49.88 C-310.49 44.26 -309.52 38.7 -308.56 33.12 C-307.9 33.12 -307.24 33.12 -306.56 33.12 C-306.51 32.45 -306.46 31.77 -306.41 31.08 C-306.34 30.19 -306.26 29.29 -306.19 28.38 C-306.12 27.49 -306.05 26.61 -305.98 25.7 C-304.87 18.81 -299.94 15.85 -294.62 12 C-274.74 1.46 -243.6 5.96 -223 12.25 C-221.19 12.87 -219.37 13.5 -217.56 14.12 C-216.23 14.48 -214.9 14.82 -213.56 15.12 C-213.56 15.79 -213.56 16.44 -213.56 17.12 C-212.93 17.22 -212.3 17.32 -211.66 17.42 C-206.35 18.35 -202.05 19.68 -197.31 22.23 C-194.26 23.79 -191.69 24.25 -188.31 23.88 C-187.45 23.5 -187.45 23.5 -186.56 23.12 C-186.23 22.13 -185.9 21.14 -185.56 20.12 C-183.26 18.84 -181.03 17.74 -178.62 16.69 C-177.94 16.38 -177.26 16.08 -176.56 15.76 C-174.57 14.87 -172.57 14 -170.56 13.12 C-169.13 12.48 -169.13 12.48 -167.66 11.82 C-162.24 9.48 -157.46 8.51 -151.56 8.12 C-151.56 7.46 -151.56 6.81 -151.56 6.12 C-142.04 4.34 -132.86 3.85 -123.19 3.94 C-121.87 3.94 -120.56 3.94 -119.21 3.94 C-110.57 3.98 -102.87 4.63 -94.56 7.12 C-93.75 7.33 -92.94 7.53 -92.1 7.75 C-85.84 9.34 -80.02 11.47 -74.09 14.04 C-71.51 15.19 -71.51 15.19 -68.56 16.12 C-68.56 16.79 -68.56 17.44 -68.56 18.12 C-66.25 18.79 -63.94 19.44 -61.56 20.12 C-61.56 20.79 -61.56 21.44 -61.56 22.12 C-57.49 24.16 -54.97 24.15 -50.56 23.12 C-50.23 22.13 -49.9 21.14 -49.56 20.12 C-47.25 18.7 -44.96 17.4 -42.56 16.12 C-41.17 15.26 -41.17 15.26 -39.75 14.38 C-37.56 13.12 -37.56 13.12 -35.56 13.12 C-35.56 12.46 -35.56 11.81 -35.56 11.12 C-33.19 9.97 -30.82 8.83 -28.44 7.69 C-27.77 7.36 -27.11 7.04 -26.42 6.7 C-22.46 4.82 -18.97 3.61 -14.56 3.12 C-14.56 2.46 -14.56 1.81 -14.56 1.12 C-9.72 -0.13 -4.96 -0.02 0 0 Z " fill="#000000" transform="translate(1121.5625,483.875)"/>
<path d="M0 0 C-1.77 1.48 -3.54 2.96 -5.31 4.44 C-6.3 5.26 -7.28 6.08 -8.3 6.93 C-11 9 -11 9 -14 10 C-15.18 11.15 -16.36 12.31 -17.51 13.5 C-19.13 15.13 -20.82 16.62 -22.56 18.12 C-39.1 32.47 -39.1 32.47 -53.44 48.93 C-54.81 50.75 -56.22 52.51 -57.69 54.25 C-64.78 62.69 -71.71 71.31 -77 81 C-78.06 82.63 -79.12 84.25 -80.19 85.88 C-86.37 95.54 -92.05 105.79 -96.04 116.56 C-97.22 119.55 -98.61 122.41 -100 125.31 C-102.55 130.77 -104.45 136.22 -106.13 142 C-106.89 144.62 -107.73 147.18 -108.62 149.75 C-110.1 154.1 -111.1 158.5 -112 163 C-112.66 163 -113.32 163 -114 163 C-114.06 163.71 -114.12 164.43 -114.18 165.16 C-114.65 170.47 -115.18 175.73 -116 181 C-116.66 181 -117.32 181 -118 181 C-119.43 204.33 -119.52 227.67 -118 251 C-117.34 251 -116.68 251 -116 251 C-115.82 251.98 -115.64 252.96 -115.45 253.96 C-114.22 260.42 -112.94 266.73 -110.7 272.93 C-109.48 276.54 -108.75 280.27 -108 284 C-107.34 284 -106.68 284 -106 284 C-105.49 285.27 -105 286.54 -104.5 287.81 C-104.22 288.52 -103.94 289.23 -103.66 289.96 C-103 292 -103 292 -103 295 C-102.34 295 -101.68 295 -101 295 C-100.01 298.3 -99.02 301.6 -98 305 C-97.34 305 -96.68 305 -96 305 C-95.44 306.01 -94.89 307.03 -94.32 308.07 C-92.13 311.89 -89.63 315.35 -86.94 318.81 C-86.5 319.38 -86.07 319.96 -85.62 320.54 C-83.55 323.23 -81.85 325.1 -79 327 C-79 327.66 -79 328.32 -79 329 C-77.92 329.37 -77.92 329.37 -76.81 329.75 C-73.74 331.12 -71.62 332.77 -69.06 334.94 C-65.49 337.88 -62.26 340.21 -58 342 C-58 342.66 -58 343.32 -58 344 C-56.94 344.39 -56.94 344.39 -55.87 344.79 C-52.78 346.09 -50.01 347.66 -47.12 349.38 C-46.08 349.99 -45.04 350.61 -43.96 351.25 C-42.98 351.82 -42.01 352.4 -41 353 C-38.67 354.34 -36.34 355.67 -34 357 C-34 357.66 -34 358.32 -34 359 C-32.98 359.32 -32.98 359.32 -31.93 359.65 C-23.23 363.65 -12.54 373.02 -9 382 C-7.87 387.86 -8.13 392.52 -9.38 398.31 C-9.51 399.01 -9.65 399.72 -9.8 400.44 C-10.39 403.36 -11.06 406.17 -12 409 C-12.66 409 -13.32 409 -14 409 C-14.09 409.72 -14.19 410.45 -14.29 411.2 C-16.32 419.2 -23.84 425.27 -30.5 429.61 C-33.46 431.26 -36.3 432.44 -39.57 433.33 C-41.12 433.75 -42.65 434.23 -44.16 434.76 C-52.66 437.53 -61.1 437.59 -69.94 437.61 C-72.56 437.62 -75.18 437.69 -77.79 437.76 C-87.98 437.89 -94.19 437.11 -102 430 C-103.99 428.99 -105.99 427.98 -108 427 C-108.33 426.34 -108.66 425.68 -109 425 C-109.95 424.48 -110.9 423.97 -111.88 423.44 C-119.49 419.25 -125.92 413.12 -132 407 C-132.97 406.22 -133.94 405.43 -134.94 404.62 C-138.37 401.82 -141.43 398.62 -144 395 C-144 394.34 -144 393.68 -144 393 C-144.99 392.67 -145.98 392.34 -147 392 C-150.79 387.8 -154.11 383.25 -157.44 378.69 C-157.92 378.03 -158.39 377.37 -158.89 376.7 C-169 362.77 -169 362.77 -169 359 C-169.66 359 -170.32 359 -171 359 C-174 353.38 -174 353.38 -174 350 C-174.66 350 -175.32 350 -176 350 C-184 332.8 -184 332.8 -184 328 C-184.66 328 -185.32 328 -186 328 C-186.51 326.25 -187 324.5 -187.5 322.75 C-187.78 321.78 -188.06 320.8 -188.34 319.8 C-189 317 -189 317 -189 313 C-189.66 313 -190.32 313 -191 313 C-191.12 312.4 -191.23 311.8 -191.35 311.18 C-191.88 308.47 -192.41 305.77 -192.94 303.06 C-193.12 302.12 -193.3 301.17 -193.49 300.2 C-193.76 298.85 -193.76 298.85 -194.03 297.47 C-194.27 296.22 -194.27 296.22 -194.52 294.95 C-194.82 293.01 -194.82 293.01 -196 292 C-201.49 261.13 -200.57 227.89 -196 197 C-195.34 197 -194.68 197 -194 197 C-193.95 196.31 -193.9 195.62 -193.85 194.91 C-193.36 188.77 -192.47 182.99 -191 177 C-190.34 177 -189.68 177 -189 177 C-188.88 175.85 -188.75 174.69 -188.62 173.5 C-188.1 169.22 -187.12 165.17 -186 161 C-185.34 161 -184.68 161 -184 161 C-183.34 157.7 -182.68 154.4 -182 151 C-181.34 151 -180.68 151 -180 151 C-179.84 149.85 -179.67 148.69 -179.5 147.5 C-177.79 139.8 -173.67 132.92 -170 126 C-169.62 125.28 -169.24 124.55 -168.84 123.81 C-166.58 119.53 -164.3 115.26 -162 111 C-161.34 111 -160.68 111 -160 111 C-159.72 109.82 -159.72 109.82 -159.44 108.62 C-155.59 98.92 -147.73 90.67 -141.24 82.56 C-140.07 81.09 -138.93 79.59 -137.79 78.08 C-137.2 77.39 -136.61 76.71 -136 76 C-135.34 76 -134.68 76 -134 76 C-133.77 75.46 -133.55 74.93 -133.31 74.38 C-130.27 68.87 -125.97 64.95 -121.24 60.92 C-118.78 58.81 -116.39 56.63 -114 54.44 C-102.42 44 -102.42 44 -99 44 C-98.67 43.01 -98.34 42.02 -98 41 C-94.94 39.81 -94.94 39.81 -92 39 C-92 38.34 -92 37.68 -92 37 C-89.72 35.37 -89.72 35.37 -86.5 33.44 C-85.93 33.09 -85.35 32.75 -84.76 32.39 C-82.85 31.25 -80.93 30.12 -79 29 C-78.31 28.59 -77.61 28.18 -76.89 27.76 C-74.77 26.52 -72.64 25.29 -70.5 24.06 C-69.83 23.67 -69.16 23.28 -68.47 22.88 C-65.01 20.92 -61.97 19.48 -58 19 C-58 18.34 -58 17.68 -58 17 C-52.56 15.51 -52.56 15.51 -47 14 C-47 13.34 -47 12.68 -47 12 C-45.42 11.49 -43.83 10.99 -42.25 10.5 C-40.93 10.08 -40.93 10.08 -39.58 9.66 C-37 9 -37 9 -33 9 C-33 8.34 -33 7.68 -33 7 C-31.25 6.49 -29.5 6 -27.75 5.5 C-26.78 5.22 -25.8 4.94 -24.8 4.66 C-22 4 -22 4 -18 4 C-18 3.34 -18 2.68 -18 2 C-15.75 1.47 -13.5 0.95 -11.25 0.44 C-10 0.15 -8.74 -0.14 -7.45 -0.44 C-4.41 -0.93 -2.82 -1.08 0 0 Z " fill="#010000" transform="translate(814,118)"/>
<path d="M0 0 C6.14 0.58 12.01 1.54 18 3 C18 3.66 18 4.32 18 5 C19.64 5.14 19.64 5.14 21.31 5.28 C26.78 5.96 31.81 7.76 37 9.56 C38.45 10.06 38.45 10.06 39.93 10.56 C42.29 11.37 44.64 12.18 47 13 C47 13.66 47 14.32 47 15 C48.26 15.31 49.52 15.62 50.81 15.94 C53.26 16.54 55.6 17.2 58 18 C58 18.66 58 19.32 58 20 C58.72 20.12 59.44 20.25 60.19 20.38 C62.96 20.99 65.4 21.88 68 23 C68 23.66 68 24.32 68 25 C70.97 25.99 73.94 26.98 77 28 C77 28.66 77 29.32 77 30 C77.95 30.31 78.9 30.62 79.88 30.94 C83 32 83 32 85 33 C85 33.66 85 34.32 85 35 C85.89 35.25 86.77 35.5 87.69 35.75 C91.17 37.06 93.21 38.57 96 41 C98.41 42.94 100.83 44.87 103.25 46.79 C105.84 48.85 108.42 50.92 111 53 C112.01 53.81 113.03 54.62 114.07 55.46 C119.28 59.68 124.16 63.9 128.4 69.11 C130.05 71.12 130.05 71.12 132.27 73.26 C135.57 76.58 138.67 80.04 141.75 83.56 C142.34 84.22 142.93 84.88 143.54 85.56 C144.1 86.2 144.66 86.84 145.23 87.5 C145.74 88.08 146.25 88.66 146.77 89.25 C148.11 91.16 148.58 92.72 149 95 C149.66 95 150.32 95 151 95 C152.66 97.27 152.66 97.27 154.5 100.25 C155.11 101.22 155.72 102.2 156.34 103.2 C158 106 158 106 159.03 108.17 C159.91 110.05 159.91 110.05 161.43 111.37 C163.64 113.66 164.79 116.22 166.19 119.06 C166.72 120.13 167.25 121.19 167.79 122.29 C169 125 169 125 169 127 C169.66 127 170.32 127 171 127 C171.99 130.3 172.98 133.6 174 137 C174.66 137 175.32 137 176 137 C185 157.8 185 157.8 185 165 C185.66 165 186.32 165 187 165 C188.29 169.12 189.26 172.67 189 177 C189.66 177 190.32 177 191 177 C191.67 180.23 192.34 183.46 193 186.69 C193.19 187.6 193.38 188.51 193.58 189.45 C193.76 190.34 193.94 191.22 194.12 192.14 C194.29 192.95 194.46 193.76 194.63 194.6 C195.02 197.1 195.06 199.47 195 202 C195.66 202 196.32 202 197 202 C198.53 215.6 199.32 229.02 199.26 242.71 C199.25 245.57 199.26 248.42 199.27 251.27 C199.28 263.63 198.47 275.73 197 288 C196.34 288 195.68 288 195 288 C194.96 288.78 194.93 289.55 194.89 290.35 C194.37 298.84 192.97 306.74 191 315 C190.34 315 189.68 315 189 315 C188.9 316.14 188.8 317.29 188.69 318.46 C188.1 323.13 186.68 327.21 184.94 331.56 C184.48 332.72 184.48 332.72 184.02 333.9 C181.33 340.55 178.1 346.81 174.6 353.06 C172.92 355.93 172.92 355.93 172 359 C171.34 359 170.68 359 170 359 C169.81 359.78 169.63 360.57 169.44 361.38 C167.4 366.51 164.25 370.57 161 375 C160.37 375.9 159.73 376.81 159.08 377.74 C155.09 383.38 150.84 388.59 146.15 393.66 C144.21 395.77 142.35 397.93 140.5 400.12 C131.89 409.98 120.91 418.8 110 426 C109.34 426 108.68 426 108 426 C108 426.66 108 427.32 108 428 C105.9 429.47 103.82 430.81 101.62 432.12 C101.02 432.5 100.42 432.87 99.8 433.25 C95.27 436 95.27 436 93 436 C93 436.66 93 437.32 93 438 C80.13 438 67.26 438 54 438 C54 437.34 54 436.68 54 436 C52.64 436.09 52.64 436.09 51.25 436.19 C45.67 436.22 40.34 434.47 35 433 C35 432.34 35 431.68 35 431 C34.26 430.88 33.52 430.75 32.75 430.62 C24.38 428.72 19.59 421.82 15 415 C13.24 411.48 13 410.04 13 406 C12.34 406 11.68 406 11 406 C8.83 398 6.44 387.67 10.69 380 C16.14 372.66 23.76 364.13 32 360 C32.66 360 33.32 360 34 360 C34 359.34 34 358.68 34 358 C36.29 356.66 38.58 355.33 40.88 354 C41.53 353.62 42.18 353.24 42.85 352.84 C47.77 350 47.77 350 50 350 C50 349.34 50 348.68 50 348 C50.86 347.54 51.72 347.08 52.61 346.6 C59.85 342.63 66.49 338.36 72.91 333.15 C76.82 330 76.82 330 79 330 C79.23 329.44 79.45 328.89 79.69 328.31 C81 326 81 326 83.29 323.73 C86.05 320.95 88.35 318.08 90.69 314.94 C91.45 313.92 92.22 312.89 93.01 311.84 C94.59 309.59 95.88 307.5 97 305 C97.66 305 98.32 305 99 305 C99.14 304.24 99.29 303.47 99.44 302.69 C100 300 100 300 101 297 C101.66 297 102.32 297 103 297 C103.12 296.11 103.25 295.23 103.38 294.31 C103.94 291.3 104.77 288.8 106 286 C106.66 286 107.32 286 108 286 C108.18 285.16 108.18 285.16 108.37 284.31 C109.49 279.18 110.7 274.09 112 269 C112.66 269 113.32 269 114 269 C114.12 267.76 114.25 266.52 114.38 265.25 C116.09 249.81 116.09 249.81 118 246 C119.01 240.02 119.15 234 119.13 227.94 C119.13 226.7 119.13 226.7 119.14 225.43 C119.14 223.69 119.13 221.95 119.13 220.21 C119.13 217.57 119.13 214.94 119.14 212.3 C119.14 201.53 119.14 191.4 116 181 C115.38 177.97 114.87 174.93 114.38 171.88 C114.17 170.7 114.17 170.7 113.97 169.5 C113.33 165.62 112.83 161.94 113 158 C112.34 158 111.68 158 111 158 C110.82 157.23 110.64 156.45 110.45 155.66 C109.15 150.27 107.75 145.1 105.7 139.96 C104.43 136.4 103.73 132.7 103 129 C102.34 129 101.68 129 101 129 C100.82 128.33 100.63 127.66 100.44 126.97 C96.72 114.67 90.21 103.63 83.78 92.57 C83 91 83 91 83 89 C82.34 89 81.68 89 81 89 C80.71 88.45 80.42 87.91 80.12 87.35 C75.74 79.29 70.78 71.83 65.1 64.63 C64 63 64 63 64 61 C63.34 61 62.68 61 62 61 C61.05 59.71 60.17 58.36 59.31 57 C53.8 48.88 46.82 42.02 40 35 C39.49 34.48 38.99 33.96 38.47 33.42 C32.12 26.89 25.65 20.51 18.19 15.25 C15.78 13.55 14.02 12.07 12 10 C9.15 7.63 6.22 5.44 3.19 3.31 C2.14 2.55 1.08 1.79 0 1 C0 0.67 0 0.34 0 0 Z " fill="#010000" transform="translate(1176,117)"/>
<path d="M0 0 C0.98 -0.01 1.96 -0.03 2.97 -0.04 C4.01 -0.04 5.06 -0.04 6.14 -0.05 C7.79 -0.06 7.79 -0.06 9.46 -0.07 C11.78 -0.08 14.09 -0.08 16.41 -0.08 C19.92 -0.08 23.42 -0.12 26.93 -0.16 C38.34 -0.22 48.31 -0.16 58.96 4.29 C60.42 4.78 61.9 5.25 63.38 5.7 C64.62 6.1 65.86 6.5 67.14 6.92 C72.3 8.55 77.41 9.96 82.75 10.83 C84.96 11.29 84.96 11.29 87.71 12.25 C99.38 15.99 111.73 15.54 123.83 15.42 C125.5 15.41 127.17 15.4 128.84 15.39 C132.88 15.37 136.92 15.33 140.96 15.29 C140.96 13.31 140.96 11.33 140.96 9.29 C141.29 9.29 141.62 9.29 141.96 9.29 C142.03 13.57 142.09 17.86 142.12 22.14 C142.14 23.59 142.16 25.04 142.18 26.49 C142.41 39.44 141.35 51.34 135.96 63.29 C135.35 64.87 134.74 66.46 134.14 68.04 C128.52 82.02 119.94 94.01 108.96 104.29 C108.19 105.08 107.42 105.87 106.62 106.68 C84.5 128.38 54 137.12 23.71 137.42 C-7.4 137.07 -36.2 124.59 -58.61 103.04 C-71.87 89.38 -80.7 73.42 -86.04 55.29 C-86.32 54.39 -86.59 53.49 -86.87 52.56 C-89 44.94 -89.41 37.92 -89.23 30.04 C-89.22 28.9 -89.2 27.76 -89.19 26.59 C-89.15 23.82 -89.11 21.06 -89.04 18.29 C-81.58 19.18 -81.58 19.18 -78.46 19.84 C-70.23 21.37 -61.56 20.53 -53.45 18.73 C-50.93 18.27 -48.6 18.22 -46.04 18.29 C-46.04 17.63 -46.04 16.97 -46.04 16.29 C-44.27 15.79 -42.5 15.29 -40.73 14.79 C-39.74 14.51 -38.76 14.23 -37.74 13.95 C-35.04 13.29 -35.04 13.29 -32.04 13.29 C-32.04 12.63 -32.04 11.97 -32.04 11.29 C-29.07 10.63 -26.1 9.97 -23.04 9.29 C-23.04 8.63 -23.04 7.97 -23.04 7.29 C-22.16 6.95 -21.28 6.62 -20.38 6.27 C-19.21 5.82 -18.05 5.38 -16.86 4.92 C-15.71 4.47 -14.56 4.03 -13.38 3.58 C-11.45 2.84 -9.54 2.07 -7.65 1.23 C-4.92 0.25 -2.89 0.03 0 0 Z " fill="#E40000" transform="translate(982.04296875,1215.70947265625)"/>
<path d="M0 0 C3.41 0.39 5.26 1.55 8.11 3.44 C9 4.02 9.9 4.6 10.82 5.2 C17.39 9.97 22.23 14.84 26.8 21.57 C27.58 22.7 27.58 22.7 28.37 23.85 C35.95 34.91 42.51 45.99 46.06 59.03 C46.7 61.36 46.7 61.36 47.72 63.68 C48.92 66.79 49.61 69.86 50.3 73.13 C50.67 74.87 50.67 74.87 51.05 76.65 C57.55 111.51 50.5 148.25 31.73 178.32 C7.47 213.69 -26.68 237.33 -68.83 245.88 C-78.09 247.54 -87.46 247.57 -96.84 247.61 C-98.44 247.62 -100.05 247.64 -101.65 247.67 C-133.69 248.26 -167.83 236.19 -192.27 215.32 C-193.4 214.38 -194.53 213.44 -195.67 212.5 C-202.06 207.17 -208.1 201.88 -213.27 195.32 C-213.81 194.66 -214.36 194 -214.92 193.32 C-238.37 164.34 -250.13 128.15 -246.52 90.94 C-243.84 66.89 -235.98 45.22 -222.27 25.32 C-221.77 24.6 -221.28 23.89 -220.78 23.15 C-215.05 15.17 -208.21 6.91 -198.27 4.63 C-193.6 5.7 -191.26 8.73 -188.27 12.32 C-187.63 13.08 -186.99 13.84 -186.33 14.63 C-184 20.53 -184.68 26.44 -186.83 32.32 C-188.38 35.84 -190.25 38.84 -192.52 41.94 C-205.84 60.21 -211.72 81.75 -211.77 104.13 C-211.77 105.22 -211.77 105.22 -211.77 106.33 C-211.76 119.14 -209.94 130.32 -205.27 142.32 C-204.8 143.6 -204.34 144.89 -203.88 146.17 C-193.62 172.59 -171.32 193.52 -145.73 204.9 C-128.09 212.1 -111.28 214.74 -92.27 214.32 C-91.09 214.3 -89.92 214.28 -88.71 214.27 C-61.87 213.25 -33.39 201.27 -14.22 182.29 C-12.49 180.35 -10.88 178.35 -9.27 176.32 C-8.21 175.1 -8.21 175.1 -7.13 173.87 C1.81 163.47 7.82 152.09 12.73 139.32 C13.05 138.58 13.37 137.84 13.7 137.08 C17.66 126.51 18.32 115.11 18.3 103.94 C18.3 102.92 18.3 102.92 18.3 101.87 C18.24 84.15 14.88 66.2 6.73 50.32 C6.27 49.39 5.81 48.47 5.34 47.52 C2.39 41.88 -0.96 36.71 -4.75 31.61 C-8.48 25.97 -8.91 20.92 -8.27 14.32 C-5.13 0.72 -5.13 0.72 0 0 Z " fill="#F0A800" transform="translate(1105.265625,1137.68359375)"/>
<path d="M0 0 C0.33 1.32 0.66 2.64 1 4 C1.66 4 2.32 4 3 4 C5.29 13.78 7.14 25.05 1.71 34.17 C0.22 36.2 -1.36 38.1 -3 40 C-3.72 41.01 -4.44 42.02 -5.19 43.06 C-9.03 45.71 -11.41 45.03 -15.91 44.41 C-31.04 42.41 -45.57 44.86 -59 52 C-59.49 52.99 -59.49 52.99 -60 54 C-60.99 54.52 -61.98 55.03 -63 55.56 C-70.07 59.44 -78.43 67.28 -81 75 C-81.99 76.01 -82.99 77.01 -84 78 C-88.7 84.93 -92.36 92.48 -96 100 C-96.66 100 -97.32 100 -98 100 C-98.1 100.55 -98.2 101.09 -98.3 101.65 C-99.31 106.75 -100.83 111.15 -103.05 115.85 C-104.37 118.84 -105.19 121.84 -106 125 C-106.66 125 -107.32 125 -108 125 C-108.1 126.09 -108.21 127.19 -108.31 128.31 C-108.97 133.69 -110.48 138.81 -112 144 C-112.66 144 -113.32 144 -114 144 C-114.1 145.28 -114.21 146.56 -114.31 147.88 C-114.68 151.18 -115.28 154.16 -116.31 157.31 C-118.26 163.36 -119.37 169.55 -120.55 175.78 C-121.25 179.42 -121.99 182.96 -123.02 186.52 C-124.22 190.79 -124.93 195.06 -125.62 199.44 C-125.76 200.26 -125.89 201.09 -126.03 201.94 C-126.36 203.96 -126.68 205.98 -127 208 C-127.66 208 -128.32 208 -129 208 C-129.06 208.85 -129.12 209.69 -129.18 210.56 C-129.64 216.74 -130.16 222.87 -131 229 C-131.66 229 -132.32 229 -133 229 C-133.05 229.83 -133.1 230.65 -133.15 231.5 C-133.59 238.3 -134.17 245.05 -135 251.81 C-135.08 252.51 -135.17 253.21 -135.25 253.93 C-135.88 258.88 -135.88 258.88 -137 260 C-137.36 262.27 -137.66 264.56 -137.94 266.84 C-138.06 267.87 -138.06 267.87 -138.2 268.92 C-138.47 271.11 -138.73 273.31 -139 275.5 C-139.35 278.39 -139.7 281.27 -140.06 284.16 C-140.22 285.44 -140.37 286.73 -140.54 288.06 C-141 291 -141 291 -142 292 C-142.3 293.85 -142.54 295.71 -142.75 297.57 C-142.89 298.69 -143.02 299.82 -143.15 300.97 C-143.29 302.16 -143.42 303.34 -143.56 304.56 C-143.7 305.75 -143.84 306.94 -143.98 308.16 C-144.33 311.11 -144.66 314.05 -145 317 C-145.66 317 -146.32 317 -147 317 C-147.27 312.71 -147.54 308.41 -147.8 304.12 C-147.89 302.68 -147.98 301.23 -148.07 299.79 C-149.64 275.07 -150.17 250.33 -150.13 225.57 C-150.12 221.61 -150.13 217.64 -150.14 213.68 C-150.14 192.92 -149.84 172.21 -147.56 151.56 C-147.44 150.36 -147.32 149.16 -147.19 147.93 C-146.59 142.22 -145.84 136.67 -144.49 131.1 C-143.63 127.41 -143.02 123.67 -142.38 119.94 C-142.24 119.17 -142.11 118.4 -141.97 117.6 C-141.64 115.74 -141.32 113.87 -141 112 C-140.34 112 -139.68 112 -139 112 C-138.94 111.32 -138.88 110.65 -138.82 109.95 C-138.73 109.06 -138.65 108.17 -138.56 107.25 C-138.48 106.37 -138.4 105.49 -138.32 104.58 C-138.04 102.31 -137.61 100.2 -137 98 C-136.34 98 -135.68 98 -135 98 C-134.9 97.05 -134.79 96.1 -134.69 95.12 C-134.01 90.27 -132.49 85.66 -131 81 C-130.34 81 -129.68 81 -129 81 C-128.9 80.15 -128.81 79.31 -128.71 78.43 C-127.91 74.55 -126.5 71.58 -124.69 68.06 C-124.37 67.45 -124.06 66.84 -123.74 66.21 C-121.6 62.07 -119.38 58 -117 54 C-116.34 54 -115.68 54 -115 54 C-114.75 53.28 -114.51 52.56 -114.25 51.81 C-112.85 48.67 -111.25 46.61 -109 44 C-108.51 43.41 -108.01 42.83 -107.5 42.22 C-104.22 38.39 -100.82 34.69 -97.31 31.06 C-96.59 30.31 -95.86 29.56 -95.11 28.79 C-92.93 26.94 -91.69 26.65 -89 26 C-88.51 24.51 -88.51 24.51 -88 23 C-86.45 21.79 -86.45 21.79 -84.46 20.62 C-83.74 20.2 -83.01 19.77 -82.26 19.33 C-81.49 18.89 -80.73 18.45 -79.94 18 C-79.2 17.56 -78.46 17.12 -77.7 16.67 C-71.75 13.22 -66.02 10 -59 10 C-59 9.34 -59 8.68 -59 8 C-57.27 7.49 -55.54 6.99 -53.81 6.5 C-52.85 6.22 -51.89 5.94 -50.89 5.66 C-48.15 5.03 -45.8 4.88 -43 5 C-43 4.34 -43 3.68 -43 3 C-28.63 1.13 -14.51 -0.55 0 0 Z " fill="#020000" transform="translate(1239,711)"/>
<path d="M0 0 C9.86 0.58 18.66 1.82 28 5 C31.66 6.03 35.33 7.02 39 8 C39 8.66 39 9.32 39 10 C40.2 10.12 41.39 10.25 42.62 10.38 C46.28 10.82 49.55 11.7 53 13 C53 13.66 53 14.32 53 15 C53.63 15.13 54.25 15.27 54.9 15.4 C55.72 15.58 56.53 15.76 57.38 15.94 C58.59 16.2 58.59 16.2 59.84 16.46 C62 17 62 17 64 18 C64 18.66 64 19.32 64 20 C64.69 20.1 65.39 20.19 66.1 20.29 C69.57 21.14 72.25 22.58 75.38 24.31 C77.08 25.25 77.08 25.25 78.82 26.21 C82.22 28.12 85.62 30.04 89 32 C89 32.66 89 33.32 89 34 C90.08 34.39 90.08 34.39 91.19 34.79 C98.06 37.74 103.88 42.63 109 48 C110.66 49.46 112.33 50.92 114 52.38 C118.05 55.99 121 59.5 124 64 C124.64 64.62 125.28 65.24 125.94 65.88 C130.02 70.08 133.9 75.16 135 81 C135.66 81 136.32 81 137 81 C140 86.62 140 86.62 140 90 C140.66 90 141.32 90 142 90 C145 96.62 145 96.62 145 100 C145.66 100 146.32 100 147 100 C148.32 103.62 149 106.1 149 110 C149.66 110 150.32 110 151 110 C151.27 111.02 151.53 112.05 151.8 113.11 C152.16 114.47 152.52 115.83 152.88 117.19 C153.05 117.86 153.22 118.53 153.4 119.23 C154.16 122.1 154.95 124.87 156.06 127.62 C158.68 134.27 159.32 141.9 159 149 C159.66 149 160.32 149 161 149 C164.15 179.32 165.36 211.73 161 242 C160.67 242.33 160.34 242.66 160 243 C158.97 250.25 158.79 257.62 158.54 264.93 C158.46 266.96 158.38 268.99 158.3 271.03 C158.18 274.18 158.06 277.34 157.95 280.5 C157.84 283.58 157.72 286.66 157.6 289.74 C157.57 290.68 157.54 291.62 157.51 292.59 C157.31 297.41 156.85 301.47 155 306 C154.67 306 154.34 306 154 306 C154 303.36 154 300.72 154 298 C153.34 298 152.68 298 152 298 C151.83 296.46 151.83 296.46 151.65 294.89 C151.22 291.11 150.78 287.32 150.35 283.53 C150.16 281.89 149.97 280.24 149.78 278.6 C149.52 276.25 149.25 273.89 148.97 271.54 C148.89 270.8 148.81 270.06 148.72 269.3 C148.58 265.85 148.58 265.85 147 263 C146.63 260.21 146.33 257.43 146.06 254.62 C145.94 253.33 145.94 253.33 145.8 252 C144.94 242.91 144.3 233.79 143.7 224.68 C143.58 223.01 143.58 223.01 143.46 221.3 C143.37 219.8 143.37 219.8 143.27 218.27 C143.24 216.04 143.24 216.04 142 215 C141.7 213.01 141.46 211.02 141.25 209.02 C141.11 207.79 140.98 206.57 140.85 205.3 C140.71 204.01 140.58 202.71 140.44 201.38 C140.23 199.47 140.23 199.47 140.02 197.52 C139.4 191.64 138.93 185.92 139 180 C138.34 180 137.68 180 137 180 C136.33 176.27 135.66 172.54 135 168.81 C134.81 167.76 134.62 166.7 134.42 165.62 C134.24 164.59 134.06 163.57 133.88 162.52 C133.62 161.11 133.62 161.11 133.37 159.68 C133.01 157.08 132.93 154.62 133 152 C132.34 152 131.68 152 131 152 C130.75 150.93 130.49 149.85 130.23 148.75 C129.88 147.31 129.54 145.87 129.19 144.44 C128.94 143.38 128.94 143.38 128.69 142.3 C127.83 138.79 126.86 135.52 125.36 132.22 C124 129 124 129 124 125 C123.34 125 122.68 125 122 125 C121.49 123.73 121 122.46 120.5 121.19 C120.22 120.48 119.94 119.77 119.66 119.04 C119 117 119 117 119 114 C118.34 114 117.68 114 117 114 C116.33 112.54 115.66 111.08 115 109.62 C114.44 108.41 114.44 108.41 113.88 107.16 C113 105 113 105 113 103 C112.34 103 111.68 103 111 103 C110.57 101.91 110.13 100.81 109.69 99.69 C108.48 96.84 107.24 95.14 105 93 C104.84 92.3 104.67 91.6 104.5 90.88 C104.34 90.26 104.17 89.64 104 89 C102.51 88.5 102.51 88.5 101 88 C99.68 86.4 99.68 86.4 98.31 84.38 C95.49 80.42 92.31 77.48 88.54 74.45 C88.03 73.97 87.52 73.49 87 73 C87 72.34 87 71.68 87 71 C86.24 70.71 85.47 70.42 84.69 70.12 C82 69 82 69 79 67 C79 66.34 79 65.68 79 65 C77.02 64.34 75.04 63.68 73 63 C73 62.34 73 61.68 73 61 C70.03 60.01 67.06 59.02 64 58 C64 57.34 64 56.68 64 56 C63.43 55.88 62.86 55.76 62.28 55.63 C57.46 54.59 52.73 53.41 48 52 C48 51.34 48 50.68 48 50 C46.21 49.81 46.21 49.81 44.38 49.62 C26.19 47.59 26.19 47.59 23 46 C21.33 45.85 19.66 45.75 17.99 45.68 C16.51 45.62 16.51 45.62 15 45.56 C13.97 45.52 12.94 45.48 11.88 45.44 C10.83 45.39 9.79 45.35 8.72 45.31 C6.15 45.2 3.57 45.1 1 45 C0.8 44.38 0.59 43.76 0.38 43.13 C0.12 42.31 -0.15 41.5 -0.43 40.67 C-0.7 39.86 -0.96 39.06 -1.23 38.23 C-1.8 36.57 -2.45 34.93 -3.12 33.31 C-6.67 23.95 -5.99 13.07 -2 4 C-1.34 2.66 -0.68 1.33 0 0 Z " fill="#030000" transform="translate(761,717)"/>
<path d="M0 0 C0.98 -0 1.96 -0.01 2.97 -0.01 C3.86 -0.01 4.75 -0.01 5.67 -0.01 C6.84 -0.01 6.84 -0.01 8.03 -0 C9.81 0.12 9.81 0.12 10.81 1.12 C10.85 2.79 10.86 4.46 10.81 6.12 C11.47 6.12 12.13 6.12 12.81 6.12 C13.49 9.35 14.15 12.58 14.81 15.81 C15.1 17.18 15.1 17.18 15.39 18.58 C15.57 19.46 15.75 20.35 15.94 21.26 C16.11 22.07 16.27 22.89 16.45 23.72 C16.83 26.23 16.88 28.6 16.81 31.12 C17.47 31.12 18.13 31.12 18.81 31.12 C19.15 33 19.48 34.87 19.81 36.75 C20 37.79 20.18 38.84 20.38 39.91 C20.8 43.03 20.89 45.98 20.81 49.12 C21.47 49.12 22.13 49.12 22.81 49.12 C23.49 53.29 24.15 57.46 24.81 61.62 C25 62.8 25.19 63.97 25.39 65.18 C26.34 71.24 27.06 76.99 26.81 83.12 C27.47 83.12 28.13 83.12 28.81 83.12 C29.99 92.16 31.1 100.99 30.81 110.12 C31.47 110.12 32.13 110.12 32.81 110.12 C34.14 125.18 35.05 140.01 34.81 155.12 C24.91 155.12 15.01 155.12 4.81 155.12 C0.81 146.12 0.81 146.12 0.81 143.12 C0.15 143.12 -0.51 143.12 -1.19 143.12 C-1.43 142.36 -1.67 141.6 -1.92 140.82 C-3.71 135.31 -5.62 130 -8.05 124.74 C-9.87 120.55 -11.42 116.26 -12.99 111.97 C-14.19 108.72 -15.43 105.52 -16.83 102.35 C-18.15 99.22 -18.78 96.48 -19.19 93.12 C-19.85 93.12 -20.51 93.12 -21.19 93.12 C-21.44 92.27 -21.7 91.41 -21.96 90.53 C-24.04 83.36 -24.04 83.36 -26.81 76.44 C-28.61 72.1 -29.4 67.74 -30.19 63.12 C-30.85 63.12 -31.51 63.12 -32.19 63.12 C-32.44 62.2 -32.7 61.27 -32.96 60.31 C-35.04 52.51 -35.04 52.51 -37.94 45 C-39.19 42.12 -39.19 42.12 -39.19 38.12 C-39.85 38.12 -40.51 38.12 -41.19 38.12 C-41.69 36.38 -42.19 34.63 -42.69 32.88 C-42.97 31.9 -43.24 30.93 -43.53 29.92 C-44.19 27.12 -44.19 27.12 -44.19 23.12 C-44.85 23.12 -45.51 23.12 -46.19 23.12 C-46.46 22.05 -46.74 20.98 -47.03 19.88 C-47.39 18.48 -47.76 17.08 -48.12 15.69 C-48.31 14.98 -48.49 14.27 -48.68 13.54 C-49.37 10.05 -49.37 10.05 -51.19 7.12 C-51.23 5.46 -51.23 3.79 -51.19 2.12 C-43.47 1.23 -35.77 0.82 -28 0.56 C-26.18 0.5 -26.18 0.5 -24.33 0.44 C-16.22 0.18 -8.11 0.02 0 0 Z " fill="#020000" transform="translate(874.1875,911.875)"/>
<path d="M0 0 C-1.05 10.06 -2.17 20.05 -4 30 C-4.66 30 -5.32 30 -6 30 C-6.07 31.23 -6.07 31.23 -6.15 32.49 C-6.62 39.48 -7.41 46.18 -9 53 C-9.66 53 -10.32 53 -11 53 C-11.07 54.02 -11.07 54.02 -11.15 55.05 C-11.67 61.49 -12.59 67.7 -14 74 C-14.66 74 -15.32 74 -16 74 C-16.19 75.95 -16.19 75.95 -16.38 77.94 C-17 83.53 -17.83 89.14 -19.98 94.38 C-21.12 97.31 -21.78 100.17 -22.44 103.25 C-23.65 108.65 -25.14 113.8 -27 119 C-28.98 124.72 -30.69 130.46 -32.25 136.31 C-33.13 139.47 -34.17 142.55 -35.24 145.65 C-36.67 150.05 -37.82 154.53 -39 159 C-39.66 159 -40.32 159 -41 159 C-41.33 160.65 -41.66 162.3 -42 164 C-45.58 163.86 -49.17 163.71 -52.75 163.56 C-53.75 163.52 -54.74 163.48 -55.77 163.44 C-62.87 163.15 -69.93 162.64 -77 162 C-75.19 139.14 -75.19 139.14 -74 128.12 C-73.93 127.44 -73.86 126.76 -73.79 126.06 C-73.28 121.51 -72.43 117.08 -71.5 112.6 C-70.49 107.36 -69.85 102.06 -69.14 96.77 C-68.46 91.8 -67.59 86.94 -66.46 82.05 C-65.59 78.14 -65.11 74.17 -64.56 70.21 C-64 67 -64 67 -63.04 63.72 C-61.78 59.2 -61.07 54.7 -60.38 50.06 C-60.24 49.19 -60.11 48.31 -59.97 47.41 C-59.64 45.28 -59.32 43.14 -59 41 C-58.34 41 -57.68 41 -57 41 C-56.96 40.32 -56.93 39.64 -56.89 38.94 C-56.29 30.13 -54.74 21.64 -53 13 C-52.34 13 -51.68 13 -51 13 C-50.67 10.03 -50.34 7.06 -50 4 C-48.35 4 -46.7 4 -45 4 C-45 3.34 -45 2.68 -45 2 C-38.91 1.71 -32.83 1.43 -26.74 1.15 C-24.67 1.05 -22.59 0.95 -20.52 0.85 C-17.55 0.72 -14.58 0.58 -11.6 0.44 C-10.67 0.39 -9.74 0.35 -8.78 0.3 C-7.92 0.26 -7.06 0.22 -6.17 0.18 C-5.41 0.15 -4.66 0.11 -3.87 0.08 C-2.58 0.02 -1.29 0 0 0 Z " fill="#020000" transform="translate(1176,903)"/>
<path d="M0 0 C1.1 0.01 2.19 0.02 3.32 0.03 C4.16 0.04 5.01 0.05 5.88 0.06 C5.88 0.72 5.88 1.38 5.88 2.06 C7.23 2.15 7.23 2.15 8.61 2.25 C9.79 2.33 10.97 2.41 12.19 2.5 C13.36 2.58 14.53 2.66 15.74 2.75 C18.88 3.06 18.88 3.06 21.88 4.06 C21.88 4.72 21.88 5.38 21.88 6.06 C22.87 6.17 23.86 6.27 24.88 6.38 C29.16 6.97 32.87 8.45 36.88 10.06 C36.88 10.72 36.88 11.38 36.88 12.06 C37.7 12.29 38.52 12.52 39.38 12.75 C44.96 14.84 49.73 17.77 53.88 22.06 C55.1 23.16 56.33 24.24 57.56 25.31 C58.26 25.92 58.96 26.53 59.68 27.16 C61.14 28.43 62.61 29.67 64.11 30.9 C67.93 34.09 70.31 36.23 71.88 41.06 C72.56 41.74 73.24 42.42 73.94 43.12 C76.04 45.23 76.2 46.28 76.88 49.06 C78.36 49.56 78.36 49.56 79.88 50.06 C80.82 52.13 80.82 52.13 81.56 54.62 C81.81 55.45 82.07 56.28 82.32 57.13 C82.51 57.77 82.69 58.41 82.88 59.06 C83.53 59.06 84.19 59.06 84.88 59.06 C85.87 62.69 86.86 66.32 87.88 70.06 C88.53 70.06 89.19 70.06 89.88 70.06 C90.38 71.64 90.88 73.23 91.38 74.81 C91.65 75.69 91.93 76.58 92.22 77.48 C92.88 80.06 92.88 80.06 92.88 84.06 C93.53 84.06 94.19 84.06 94.88 84.06 C95.37 88.52 95.37 88.52 95.88 93.06 C91.54 93.09 87.21 93.11 82.88 93.12 C81.65 93.13 80.43 93.14 79.18 93.15 C72.98 93.17 67 93.04 60.88 92.06 C60.88 91.4 60.88 90.74 60.88 90.06 C60.31 90.01 59.74 89.96 59.15 89.91 C54.16 89.43 49.65 88.59 44.88 87.06 C44.88 86.4 44.88 85.74 44.88 85.06 C44.11 84.92 43.35 84.77 42.56 84.62 C39.88 84.06 39.88 84.06 36.88 83.06 C36.88 82.4 36.88 81.74 36.88 81.06 C36.24 80.88 35.6 80.7 34.94 80.51 C34.12 80.26 33.29 80.01 32.44 79.75 C31.61 79.51 30.79 79.26 29.94 79.01 C29.26 78.7 28.58 78.39 27.88 78.06 C27.54 77.07 27.22 76.08 26.88 75.06 C24.48 73.96 24.48 73.96 21.88 73.06 C20.39 72.07 20.39 72.07 18.88 71.06 C18.88 70.4 18.88 69.74 18.88 69.06 C18.28 68.82 17.68 68.57 17.07 68.32 C14.52 66.86 13.41 65.4 11.75 63 C9.76 60.02 9.76 60.02 6.88 58.06 C6.57 57.07 6.26 56.08 5.94 55.06 C5.41 53.58 5.41 53.58 4.88 52.06 C3.88 51.73 2.89 51.4 1.88 51.06 C1.14 49.21 1.14 49.21 0.69 47 C0.53 46.27 0.37 45.53 0.21 44.78 C0.1 44.21 -0.01 43.65 -0.12 43.06 C-0.78 43.06 -1.45 43.06 -2.12 43.06 C-2.63 41.5 -3.13 39.94 -3.62 38.38 C-3.9 37.5 -4.18 36.63 -4.47 35.74 C-5.12 33.07 -5.24 30.8 -5.12 28.06 C-5.78 28.06 -6.45 28.06 -7.12 28.06 C-8.01 22.01 -8.25 16.17 -8.19 10.06 C-8.18 9.19 -8.18 8.32 -8.17 7.43 C-8.16 5.3 -8.14 3.18 -8.12 1.06 C-5.36 -0.32 -3.08 -0.03 0 0 Z " fill="#FCFBFB" transform="translate(779.125,773.9375)"/>
<path d="M0 0 C0.7 -0.01 1.4 -0.02 2.12 -0.03 C7.13 0 7.13 0 9.38 2.25 C12.6 11.13 10.74 22.73 7.38 31.25 C6.71 31.25 6.06 31.25 5.38 31.25 C5.19 32.36 5.19 32.36 5 33.5 C4.26 36.76 3.42 39.22 1.02 41.59 C-1.51 44.14 -3.56 47.04 -5.71 49.9 C-9.42 54.46 -13.78 58.36 -18.12 62.31 C-19.04 63.15 -19.96 63.99 -20.91 64.85 C-26.01 69.36 -31.31 73 -37.1 76.57 C-39.6 78.11 -39.6 78.11 -41.29 79.92 C-43.18 81.81 -45.04 81.9 -47.62 82.25 C-47.62 82.91 -47.62 83.57 -47.62 84.25 C-52.95 86.27 -58.28 88.27 -63.62 90.25 C-64.57 90.6 -65.51 90.95 -66.48 91.32 C-67.23 91.58 -67.98 91.85 -68.75 92.12 C-69.37 92.35 -69.99 92.57 -70.63 92.8 C-73.32 93.4 -75.89 93.32 -78.62 93.25 C-79.02 82.17 -78.04 72.07 -75.62 61.25 C-74.96 61.25 -74.31 61.25 -73.62 61.25 C-73.52 60.26 -73.42 59.27 -73.31 58.25 C-72.72 53.97 -71.24 50.25 -69.62 46.25 C-68.96 46.25 -68.31 46.25 -67.62 46.25 C-67.43 45.61 -67.24 44.97 -67.04 44.32 C-66.78 43.49 -66.52 42.66 -66.25 41.81 C-65.99 40.99 -65.74 40.17 -65.48 39.32 C-64.62 37.25 -64.62 37.25 -62.62 36.25 C-62.3 35.59 -61.96 34.93 -61.62 34.25 C-60.62 32.25 -60.62 32.25 -58.62 31.25 C-58.2 30.53 -57.78 29.81 -57.35 29.06 C-55.29 25.7 -52.77 23.02 -50 20.25 C-49.47 19.72 -48.94 19.19 -48.4 18.65 C-38.72 9.25 -38.72 9.25 -32.62 9.25 C-32.62 8.59 -32.62 7.93 -32.62 7.25 C-31.19 6.74 -29.75 6.25 -28.31 5.75 C-27.51 5.47 -26.71 5.19 -25.89 4.91 C-23.62 4.25 -23.62 4.25 -20.62 4.25 C-20.62 3.59 -20.62 2.93 -20.62 2.25 C-13.74 0.79 -7.02 0.04 0 0 Z " fill="#FDFCFC" transform="translate(1221.625,765.75)"/>
<path d="M0 0 C4.29 0 8.58 0 13 0 C13.33 0.99 13.66 1.98 14 3 C13.4 3.54 12.8 4.07 12.19 4.62 C9.88 6.9 9.88 6.9 8.62 9.82 C2.65 21.57 -8.83 32.78 -21 38 C-21.66 38 -22.32 38 -23 38 C-23 38.66 -23 39.32 -23 40 C-24.58 40.51 -26.17 41.01 -27.75 41.5 C-28.63 41.78 -29.51 42.06 -30.42 42.34 C-33 43 -33 43 -37 43 C-37 43.66 -37 44.32 -37 45 C-53.03 47.17 -67.98 47.33 -84 45 C-84 44.34 -84 43.68 -84 43 C-84.57 42.95 -85.14 42.9 -85.72 42.85 C-90.71 42.37 -95.23 41.52 -100 40 C-100 39.34 -100 38.68 -100 38 C-101.08 37.81 -101.08 37.81 -102.19 37.62 C-104.96 37.01 -107.4 36.12 -110 35 C-110 34.34 -110 33.68 -110 33 C-110.99 32.72 -110.99 32.72 -112 32.44 C-117.87 29.62 -123.25 24.98 -126 19 C-126.95 15.89 -127.13 13.06 -127.12 9.81 C-127.13 8.93 -127.13 8.05 -127.13 7.14 C-127 5 -127 5 -126 4 C-124.09 3.82 -122.17 3.73 -120.25 3.69 C-119.2 3.65 -118.16 3.61 -117.08 3.57 C-113.23 4.11 -111.86 5.42 -109 8 C-106.89 9.54 -104.77 11.06 -102.62 12.56 C-102.09 12.95 -101.55 13.33 -100.99 13.73 C-97.13 16.43 -93.35 18.28 -89 20 C-89 20.66 -89 21.32 -89 22 C-88.4 22.13 -87.79 22.27 -87.17 22.4 C-86.37 22.58 -85.57 22.76 -84.75 22.94 C-83.96 23.11 -83.17 23.29 -82.36 23.46 C-80.23 23.95 -78.11 24.46 -76 25 C-76 25.66 -76 26.32 -76 27 C-65.11 27 -54.22 27 -43 27 C-43 26.34 -43 25.68 -43 25 C-42.39 24.85 -41.79 24.71 -41.16 24.55 C-29.61 21.46 -19.59 14.71 -11.25 6.19 C-7.63 2.67 -5.01 2 0 2 C0 1.34 0 0.68 0 0 Z " fill="#040000" transform="translate(1061,1239)"/>
<path d="M0 0 C3.33 1.67 6.67 3.33 10 5 C10 5.66 10 6.32 10 7 C11.18 7.34 11.18 7.34 12.38 7.69 C16.35 9.13 19.98 10.94 23.73 12.88 C26.07 14.1 26.07 14.1 29 15 C29 15.66 29 16.32 29 17 C29.91 17.16 29.91 17.16 30.84 17.33 C36.18 18.34 41.31 19.62 46.48 21.32 C52.1 22.84 57.66 23.12 63.46 23.1 C64.14 23.1 64.82 23.09 65.52 23.09 C67.66 23.09 69.8 23.08 71.94 23.06 C73.4 23.06 74.86 23.05 76.32 23.05 C79.88 23.04 83.44 23.02 87 23 C87 22.34 87 21.68 87 21 C89.64 21 92.28 21 95 21 C94.67 28.92 94.34 36.84 94 45 C72.88 45.43 52.81 45.2 32 41 C31.07 40.81 30.15 40.63 29.19 40.44 C28.47 40.29 27.75 40.15 27 40 C27 39.34 27 38.68 27 38 C25.42 37.81 25.42 37.81 23.81 37.62 C20.54 37.09 17.99 36.36 15 35 C15 34.34 15 33.68 15 33 C14.14 32.86 14.14 32.86 13.25 32.72 C8.32 31.14 4.66 26.44 1.82 22.25 C-1.32 15.52 -0.24 7.24 0 0 Z " fill="#050000" transform="translate(785,854)"/>
<path d="M0 0 C1.98 3.96 -0.67 9.01 -2 13 C-3.55 16.73 -5.23 20.38 -7 24 C-7.66 24 -8.32 24 -9 24 C-9.24 24.72 -9.49 25.44 -9.74 26.19 C-14.51 36.81 -24.95 43.47 -35.2 48 C-39.18 49.42 -42.78 49.79 -47 50 C-47 50.66 -47 51.32 -47 52 C-53.79 53.04 -60.45 53.15 -67.31 53.12 C-68.94 53.13 -68.94 53.13 -70.6 53.14 C-71.63 53.14 -72.67 53.13 -73.74 53.13 C-74.68 53.13 -75.62 53.13 -76.58 53.13 C-79 53 -79 53 -82 52 C-81.67 49.69 -81.34 47.38 -81 45 C-80.34 45 -79.68 45 -79 45 C-78.78 43.39 -78.78 43.39 -78.56 41.75 C-78.16 39.08 -77.72 36.59 -77 34 C-76.34 34 -75.68 34 -75 34 C-74.86 33.24 -74.71 32.47 -74.56 31.69 C-74 29 -74 29 -73 26 C-72.03 26.02 -71.07 26.05 -70.07 26.07 C-63.21 26.17 -56.75 26.1 -50.05 24.44 C-48 24 -48 24 -44 24 C-44 23.34 -44 22.68 -44 22 C-43.37 21.79 -42.74 21.58 -42.09 21.37 C-32.83 18.18 -24.38 13.8 -15.71 9.29 C-13 8 -13 8 -11 8 C-11 7.34 -11 6.68 -11 6 C-7.37 4.02 -3.74 2.04 0 0 Z " fill="#050000" transform="translate(1209,843)"/>
<path d="M0 0 C2.85 -0.03 5.71 -0.05 8.56 -0.06 C9.36 -0.07 10.16 -0.08 10.99 -0.09 C23.82 -0.14 35.26 2.57 44.76 11.69 C45.17 12.12 45.58 12.55 46 13 C43.5 19.37 36.75 22.8 31 26 C27.25 27.52 25.08 28 21 28 C21 28.66 21 29.32 21 30 C15.31 31.21 9.72 31.15 3.94 31.12 C2.47 31.13 2.47 31.13 0.97 31.14 C0.02 31.14 -0.93 31.13 -1.91 31.13 C-3.2 31.13 -3.2 31.13 -4.51 31.13 C-7.09 31 -9.48 30.57 -12 30 C-12 29.34 -12 28.68 -12 28 C-12.87 27.92 -13.73 27.84 -14.62 27.75 C-22.43 26.02 -28.66 19.5 -33 13 C-33.06 10.81 -33.06 10.81 -32 9 C-29.11 7.48 -27.28 7 -24 7 C-24 6.34 -24 5.68 -24 5 C-15.96 3.22 -8.29 1.56 0 2 C0 1.34 0 0.68 0 0 Z " fill="#050000" transform="translate(994,1224)"/>
<path d="M0 0 C0 0.66 0 1.32 0 2 C1.09 2.12 1.09 2.12 2.2 2.25 C5.63 3.17 7.24 4.64 9.81 7.06 C10.6 7.8 11.39 8.53 12.21 9.29 C12.8 9.85 13.39 10.42 14 11 C13.67 11.99 13.34 12.98 13 14 C12.46 13.34 11.93 12.68 11.38 12 C9.15 9.82 9.15 9.82 6.31 9.38 C1.31 10.32 -2.04 12.88 -6 16 C-6.65 16.51 -7.3 17.02 -7.97 17.55 C-18.41 26.87 -25.18 41.47 -31 54 C-31.33 53.34 -31.66 52.68 -32 52 C-32.9 51.81 -32.9 51.81 -33.81 51.62 C-36.93 50.73 -38.11 49.64 -40 47 C-40.34 44.24 -40.19 41.8 -40 39 C-35.24 36.21 -30.42 36.39 -25 36 C-25 31.38 -25 26.76 -25 22 C-27.31 21.67 -29.62 21.34 -32 21 C-32 20.34 -32 19.68 -32 19 C-33.28 18.86 -34.56 18.71 -35.88 18.56 C-38.26 18.29 -39.84 18.08 -42 17 C-43.5 9.84 -43.5 9.84 -41.81 7 C-40 6 -40 6 -36 6 C-36 5.34 -36 4.68 -36 4 C-34.42 3.49 -32.83 2.99 -31.25 2.5 C-30.37 2.22 -29.49 1.94 -28.58 1.66 C-26 1 -26 1 -22 1 C-22 0.34 -22 -0.32 -22 -1 C-14.8 -2.47 -7 -2.33 0 0 Z " fill="#460100" transform="translate(901,1134)"/>
<path d="M0 0 C4.29 0 8.58 0 13 0 C13 0.66 13 1.32 13 2 C14.01 2.08 15.02 2.17 16.07 2.25 C20.23 2.85 23.45 4.67 26.94 6.94 C27.53 7.3 28.11 7.66 28.72 8.03 C30.19 8.96 31.6 9.97 33 11 C33 11.66 33 12.32 33 13 C33.66 13 34.32 13 35 13 C36.36 20.84 36.36 20.84 35 24 C33.03 26.42 32.04 26.99 29 28 C27.44 28.07 25.87 28.09 24.31 28.06 C23.1 28.05 23.1 28.05 21.86 28.04 C21.25 28.02 20.63 28.01 20 28 C20 28.66 20 29.32 20 30 C20.66 30 21.32 30 22 30 C22 30.66 22 31.32 22 32 C23.2 32.08 24.39 32.16 25.62 32.25 C30.25 32.81 33.67 34.67 37 38 C37.6 45.27 37.6 45.27 35.12 48.31 C34.42 48.87 33.72 49.43 33 50 C32.34 50.99 31.68 51.98 31 53 C30.47 52 30.47 52 29.93 50.98 C22.15 36.46 14.31 22.8 0 14 C-1.3 13.17 -1.3 13.17 -2.63 12.32 C-5.36 10.8 -6.93 10.67 -10 11 C-10.99 11.49 -10.99 11.49 -12 12 C-11.75 8.62 -10.74 7.75 -8.25 5.31 C-5.24 3.17 -3.61 2.32 0 2 C0 1.34 0 0.68 0 0 Z " fill="#460100" transform="translate(1113,1128)"/>
<path d="M0 0 C3.81 1.27 5.82 3.71 8.03 6.91 C9.71 10.53 9.4 14.11 9 18 C8.34 18 7.68 18 7 18 C6.92 19.18 6.84 20.35 6.75 21.56 C5.6 30.28 0.11 35.22 -6 41 C-7 42 -8 43 -9 44 C-9.66 44.66 -10.32 45.32 -11 46 C-9.56 42.11 -7.73 38.64 -5.62 35.06 C-5 34.01 -4.38 32.96 -3.75 31.87 C-2.45 29.73 -1.12 27.67 0.31 25.62 C4.06 19.79 4.92 13.81 4 7 C2.92 4.35 1.65 2.37 0 0 Z " fill="#450600" transform="translate(915,1148)"/>
<path d="M0 0 C0.66 0 1.32 0 2 0 C1.94 0.97 1.88 1.93 1.82 2.93 C1.41 14.89 4.16 22.04 12 31 C12 31.66 12 32.32 12 33 C7.7 31.57 5.56 28.66 3 25 C2.12 22.06 2.12 22.06 2 20 C1.34 20 0.68 20 0 20 C-1.02 16.62 -1.13 13.52 -1.12 10 C-1.13 8.45 -1.13 8.45 -1.13 6.88 C-1.02 4.4 -0.71 2.36 0 0 Z " fill="#440700" transform="translate(1096,1147)"/>
<path d="M0 0 C1.46 -0.03 2.92 -0.05 4.38 -0.06 C5.19 -0.07 6 -0.09 6.84 -0.1 C9 0 9 0 11 1 C11 1.99 11 2.98 11 4 C8 6 8 6 5.5 5.75 C3 5 3 5 0 3 C0 2.01 0 1.02 0 0 Z " fill="#090300" transform="translate(1116,1141)"/>
<path d="M0 0 C1.47 4.94 0.93 9.78 0.69 14.88 C0.65 15.86 0.62 16.84 0.58 17.85 C0.35 22.9 -0.03 27.27 -2 32 C-2.33 32 -2.66 32 -3 32 C-3.04 29.67 -3.04 27.33 -3 25 C-2.67 24.67 -2.34 24.34 -2 24 C-1.85 22.39 -1.77 20.78 -1.72 19.16 C-1.68 18.18 -1.64 17.2 -1.61 16.19 C-1.55 14.64 -1.55 14.64 -1.5 13.06 C-1.43 11.03 -1.36 9 -1.28 6.97 C-1.25 6.07 -1.22 5.16 -1.19 4.23 C-1 2 -1 2 0 0 Z " fill="#3B0000" transform="translate(918,991)"/>
<path d="M0 0 C1.62 -0.05 3.25 -0.09 4.88 -0.12 C5.78 -0.15 6.68 -0.17 7.62 -0.2 C10 0 10 0 12 2 C10.68 3.32 9.36 4.64 8 6 C4.95 4.98 4.1 4.28 2 2 C1.34 1.34 0.68 0.68 0 0 Z " fill="#080400" transform="translate(885,1146)"/>
<path d="M0 0 C0.56 0.7 1.11 1.4 1.69 2.12 C2.9 3.63 4.12 5.13 5.38 6.6 C9 10.8 9 10.8 9 13 C4.71 11.57 2.47 8.72 0 5 C-0.38 2.06 -0.38 2.06 0 0 Z " fill="#4D0F00" transform="translate(1099,1167)"/>
<path d="M0 0 C0 3 0 3 -2.41 5.7 C-3.43 6.7 -4.46 7.7 -5.5 8.69 C-6.02 9.2 -6.55 9.71 -7.09 10.24 C-8.39 11.5 -9.69 12.75 -11 14 C-11.66 13.67 -12.32 13.34 -13 13 C-8.96 8.19 -4.96 3.87 0 0 Z " fill="#250000" transform="translate(693,179)"/>
</svg>
