<?xml version="1.0" encoding="UTF-8" standalone="no"?>
<!-- Created with Inkscape (http://www.inkscape.org/) -->
<svg xmlns:svg="http://www.w3.org/2000/svg" xmlns="http://www.w3.org/2000/svg" version="1.0" width="1000" height="500" id="svg556">
  <defs id="defs558"/>
  <path d="M -7.022551e-16,0.0002244 L -7.022551e-16,500 L 1000,500 L 1000,0.0002244 L -7.022551e-16,0.0002244 z" id="path688" style="font-size: 12px; fill: rgb(81, 181, 224); fill-opacity: 1; fill-rule: evenodd; stroke-width: 1pt;"/>
  <path d="M 656.51333,124.93372 L 656.51333,248.82817 C 659.02622,325.23498 697.39546,352.59278 750.94598,375.06628 C 812.31013,347.94373 843.48667,314.66808 843.48667,248.82817 L 843.48667,124.93372 L 656.51333,124.93372 z" id="path5001" style="font-size: 12px; fill: rgb(255, 255, 255); fill-opacity: 1; fill-rule: evenodd; stroke: rgb(0, 0, 0); stroke-width: 2; stroke-miterlimit: 4; stroke-dasharray: none; stroke-opacity: 1;"/>
  <path d="M 656.48311,246.72965 C 656.48311,246.72965 656.67517,262.67947 660.89151,282.72965 L 839.57323,282.62921 C 843.55734,264.77141 844.01711,246.72965 844.01711,246.72965 L 656.48311,246.72965 z" id="path693" style="font-size: 12px; fill: rgb(210, 16, 52); fill-rule: evenodd; stroke-width: 1pt;"/>
  <path d="M 732,184.53592 L 732.05746,365.64563 C 740.90061,370.04595 752.18166,375.08967 752.18166,375.08967 C 752.18166,375.08967 759.71204,370.21029 768,366.06693 L 767.94254,184.53592 L 732,184.53592 z" id="path694" style="font-size: 12px; fill: rgb(210, 16, 52); fill-rule: evenodd; stroke-width: 1pt;"/>
  <rect width="499.99988" height="249.99988" x="5.5734421e-18" y="0.00017231323" id="rect962" style="font-size: 12px; fill: rgb(0, 40, 104); fill-opacity: 1; fill-rule: evenodd; stroke-width: 1pt;"/>
  <path d="M 0,0.000351 L 0,27.951173 L 444.09821,250.00025 L 499.99986,250.00025 L 499.99986,222.04943 L 55.901651,0.000351 L 0,0.000351 z" id="path5259" style="font-size: 12px; fill: rgb(255, 255, 255); stroke-width: 1pt;"/>
  <path d="M 499.99986,0.000351 L 499.99986,27.950756 L 55.901651,250.00025 L 0,250.00025 L 0,222.0486 L 444.09821,0.000351 L 499.99986,0.000351 z" id="path146" style="font-size: 12px; fill: rgb(255, 255, 255); stroke-width: 1pt;"/>
  <path d="M 208.33327,0.000351 L 208.33327,250.00025 L 291.66658,250.00025 L 291.66658,0.000351 L 208.33327,0.000351 z" id="path5255" style="font-size: 12px; fill: rgb(255, 255, 255); stroke-width: 1pt;"/>
  <path d="M 0,83.333651 L 0,166.66695 L 499.99986,166.66695 L 499.99986,83.333651 L 0,83.333651 z" id="path136" style="font-size: 12px; fill: rgb(255, 255, 255); stroke-width: 1pt;"/>
  <path d="M 0,100.00031 L 0,150.00029 L 499.99986,150.00029 L 499.99986,100.00031 L 0,100.00031 z" id="path5243" style="font-size: 12px; fill: rgb(206, 17, 38); fill-opacity: 1; stroke-width: 1pt;"/>
  <path d="M 224.99994,0.000351 L 224.99994,250.00025 L 274.99992,250.00025 L 274.99992,0.000351 L 224.99994,0.000351 z" id="path141" style="font-size: 12px; fill: rgb(206, 17, 38); fill-opacity: 1; stroke-width: 1pt;"/>
  <path d="M 0,250.00025 L 166.66662,166.66695 L 203.93411,166.66695 L 37.267823,250.00025 L 0,250.00025 z" id="path5251" style="font-size: 12px; fill: rgb(210, 16, 52); stroke-width: 1pt;"/>
  <path d="M 0,0.000351 L 166.66662,83.333651 L 129.39913,83.333651 L 0,18.63426 L 0,0.000351 z" id="path5249" style="font-size: 12px; fill: rgb(210, 16, 52); stroke-width: 1pt;"/>
  <path d="M 296.06575,83.333651 L 462.73237,0.000351 L 499.99986,0.000351 L 333.33324,83.333651 L 296.06575,83.333651 z" id="path5247" style="font-size: 12px; fill: rgb(210, 16, 52); stroke-width: 1pt;"/>
  <path d="M 499.99986,250.00025 L 333.33324,166.66695 L 370.60073,166.66695 L 499.99986,231.36609 L 499.99986,250.00025 z" id="path150" style="font-size: 12px; fill: rgb(210, 16, 52); stroke-width: 1pt;"/>
  <rect width="187.49997" height="66.812706" x="656.24994" y="124.4" id="rect566" style="font-size: 12px; fill: rgb(210, 16, 52); fill-rule: evenodd; stroke-width: 1pt;"/>
  <rect width="11.965175" height="15.58386" rx="5.9354806" ry="7.730577" x="660.50812" y="155.74721" id="rect909" style="font-size: 12px; fill: rgb(246, 239, 236); fill-opacity: 1; fill-rule: evenodd; stroke: rgb(0, 0, 0); stroke-width: 0.209996; stroke-dasharray: none; stroke-opacity: 1;"/>
  <path d="M 803.68486,151.60249 C 803.68486,151.60249 814.48136,150.90843 818.26006,147.20652 C 822.03899,143.50481 815.69606,136.79527 819.74466,136.1012 C 821.36411,135.98543 823.65843,136.44834 825.41271,138.299 C 825.14281,136.91104 824.06318,136.1012 823.65843,135.29174 C 822.17383,134.13457 820.68923,134.25034 818.52997,134.25034 C 817.04537,134.4819 816.77546,134.01879 814.34652,131.58965 C 813.13183,130.43286 813.13183,127.541 814.07639,125.57436 C 811.24248,127.42523 811.78229,129.96995 812.0522,130.54844 C 812.72685,133.09357 813.40174,133.78763 813.40174,134.94461 C 812.59201,134.59747 811.10741,131.58965 803.41495,131.12693 C 795.72226,130.66422 776.2885,135.75426 767.51641,135.75426 C 758.74409,135.75426 746.05823,132.63085 746.05823,132.63085 C 746.05823,132.63085 749.29711,130.43286 745.38335,129.50744 C 741.46981,128.582 732.83256,132.74662 730.40317,130.43286 C 728.64889,128.23488 729.32354,128.69758 729.05363,127.65657 C 728.37898,128.00352 727.974,129.39185 728.91879,131.2427 C 729.86335,133.09357 730.40317,132.51507 730.26833,132.51507 C 730.13326,132.51507 727.16428,132.51507 726.89438,133.44069 C 726.62447,134.13457 726.2195,134.94442 727.7041,137.48935 C 728.24391,134.94442 726.21972,134.59747 730.67308,134.36612 C 735.12688,134.13477 738.2307,135.87003 742.0094,136.44834 C 745.78832,137.02682 745.78832,135.06019 745.92316,135.17578 C 746.05823,135.29155 757.52939,137.95225 768.05599,137.37376 C 778.58259,136.79546 795.58742,131.82101 803.41472,132.86221 C 811.24225,133.90322 816.37071,138.76191 816.50555,143.27346 C 816.37071,146.04974 812.99676,147.43788 810.29769,147.90059 C 807.05881,148.36331 799.50118,149.05758 799.50118,149.05758 L 803.68486,151.60249 z" id="path908" style="font-size: 12px; fill: rgb(255, 209, 0); fill-opacity: 1; fill-rule: evenodd; stroke: rgb(0, 0, 0); stroke-width: 0.191956; stroke-linecap: butt; stroke-linejoin: miter; stroke-dasharray: none; stroke-opacity: 1;"/>
  <path d="M 791.6026,154.25528 C 791.47139,154.25528 784.39189,154.4212 782.29433,158.23404 C 780.19677,162.04715 779.27897,165.69463 779.41018,165.69463 C 779.54117,165.69463 784.1297,162.54464 784.1297,162.54464 C 784.1297,162.54464 780.72116,168.84434 782.55653,174.4812 C 784.39189,180.11777 777.71108,179.78621 773.85916,179.95185 C 772.15478,178.29403 766.71032,175.4756 764.76884,174.9784 C 763.55648,174.39823 761.17581,174.32335 758.68925,177.85891 C 757.2246,180.03899 760.86606,175.80717 764.47802,176.13901 C 764.86856,176.63622 765.11997,177.13398 765.18954,178.29403 C 763.26501,178.1284 761.26211,175.30997 758.90235,181.11246 C 761.26211,179.12308 761.55711,179.16457 762.75339,179.04012 C 764.34703,178.8909 764.1423,179.95213 764.07669,179.95213 C 763.8145,179.95213 763.16418,180.11777 762.17968,181.27838 C 761.65529,182.10715 760.34431,183.93089 760.60651,183.93089 C 760.8687,183.93089 761.65265,182.9362 762.87997,182.10715 C 763.64696,181.44403 764.37543,181.44403 766.69336,182.27307 C 779.41018,186.08591 786.22726,183.26776 787.01385,181.77559 C 787.40725,181.11274 779.67215,162.37872 800.25506,157.40527 C 799.99286,157.23935 791.6026,154.4212 791.6026,154.25528 z" id="path900" style="font-size: 12px; fill: rgb(255, 209, 0); fill-opacity: 1; fill-rule: evenodd; stroke: rgb(0, 0, 0); stroke-width: 0.129423; stroke-linecap: butt; stroke-linejoin: miter; stroke-dasharray: none; stroke-opacity: 1;"/>
  <path d="M 703.45993,174.97839 C 711.89684,182.60462 768.80818,166.85496 776.01793,161.38402 C 780.15975,158.23403 787.36949,155.91309 787.36949,166.68904 C 789.21024,159.39436 789.2105,157.57091 789.2105,157.73655 C 789.36377,157.90247 792.1249,160.55525 794.57949,169.50774 C 795.19307,161.54967 793.50559,156.90778 794.42596,157.57091 C 795.03955,156.90778 795.03955,161.54967 799.94822,168.01528 C 798.87458,162.8762 798.56779,160.55497 798.56779,160.55497 C 798.56779,160.55497 807.77181,170.17059 812.98727,171.49684 C 818.20299,172.8231 825.71953,168.84433 828.0206,171.16528 C 830.32141,173.4865 834.31048,177.6309 834.15592,180.94681 C 834.00395,184.26244 825.566,181.44402 824.64563,184.09652 C 823.72525,186.74931 825.25921,186.74931 825.25921,186.74931 C 825.25921,186.74931 826.02606,188.73869 826.63991,190.3965 C 827.09996,189.23589 826.17959,186.74903 827.86707,186.58339 C 829.09424,186.74903 829.09424,188.90433 829.40103,190.06494 C 829.75883,188.73869 829.34977,186.08618 830.47494,186.08618 C 831.7021,185.80974 831.85537,188.18608 832.77575,189.7331 L 832.77575,186.08618 C 836.30424,184.92557 839.37113,184.75993 839.83222,182.27307 C 840.29074,179.7862 834.46246,174.14962 833.08177,170.50215 C 831.7021,166.85496 834.15592,165.36278 831.54858,163.3734 C 828.94097,161.38402 818.96985,166.52339 814.36796,164.53402 C 809.76583,162.54463 811.60658,148.28686 794.27244,145.13715 C 776.9383,141.98715 729.99808,161.71559 721.71444,162.54463 C 713.4308,163.3734 703.30666,159.7262 703.30666,159.7262 L 703.45993,174.97839 z" id="path899" style="font-size: 12px; fill: rgb(255, 209, 0); fill-opacity: 1; fill-rule: evenodd; stroke: rgb(0, 0, 0); stroke-width: 0.174997; stroke-linecap: butt; stroke-linejoin: miter; stroke-dasharray: none; stroke-opacity: 1;"/>
  <path d="M 692.60064,169.49253 C 692.60064,169.49253 683.62592,180.70516 677.57524,180.47829 C 671.55204,180.04461 666.61348,172.62338 665.29628,173.14903 C 663.97903,173.67502 663.66381,172.52861 663.15627,170.48113 C 662.64878,168.43332 663.71929,167.41962 663.69159,167.62601 C 663.99342,167.70122 664.33612,170.98877 664.61076,171.27049 C 664.88511,171.55249 663.59578,167.17484 665.46192,167.21326 C 666.09308,167.15688 665.9829,170.3316 666.57276,171.75972 C 666.75104,171.5905 665.94204,167.11925 666.72419,167.10085 C 667.50614,167.08205 667.83508,171.64697 669.05585,173.01866 C 670.77073,175.36697 673.55555,176.70182 677.17786,177.60403 C 680.99216,177.06002 689.98027,166.91859 690.70749,167.31344 L 692.60064,169.49253 z" id="path892" style="font-size: 12px; fill: rgb(255, 209, 0); fill-opacity: 1; fill-rule: evenodd; stroke: rgb(0, 0, 0); stroke-width: 0.157572; stroke-linecap: butt; stroke-linejoin: miter; stroke-dasharray: none; stroke-opacity: 1;"/>
  <path d="M 692.87541,163.20245 C 692.87541,163.20245 685.51214,151.41171 679.52957,150.28883 C 673.54699,149.35325 667.71768,154.78067 666.49052,154.03208 C 665.26335,153.28318 664.80329,154.21938 664.03618,155.90356 C 663.26907,157.58803 664.1897,158.7106 664.18945,158.52361 C 664.49624,158.52361 665.26335,155.71625 665.5704,155.52925 C 665.87719,155.34196 664.03618,158.89822 665.87719,159.2722 C 666.49077,159.4595 666.79757,156.65214 667.56468,155.52894 C 667.71794,155.71625 666.33725,159.4595 667.10436,159.6465 C 667.87121,159.8338 668.79184,155.90356 670.17228,154.96766 C 672.16656,153.28349 675.08095,152.72158 678.76271,152.7219 C 682.44422,154.03208 689.96075,164.88661 690.72786,164.69931 L 692.87541,163.20245 z" id="path891" style="font-size: 12px; fill: rgb(255, 209, 0); fill-opacity: 1; fill-rule: evenodd; stroke: rgb(0, 0, 0); stroke-width: 0.148746; stroke-linecap: butt; stroke-linejoin: miter; stroke-dasharray: none; stroke-opacity: 1;"/>
  <path d="M 689.19371,159.56028 L 681.06359,163.87061 L 687.04616,165.5287 L 682.75082,170.83399 L 688.88692,168.67869 L 688.42686,175.80744 L 691.95509,171.16556 L 694.25591,177.63117 L 696.71024,172.82337 L 699.6249,178.12839 L 700.85206,172.98902 L 704.3803,178.12839 L 705.60747,171.16556 L 709.90282,175.47588 L 709.28923,168.18121 L 714.5047,170.00494 L 711.28325,164.36809 C 711.28325,164.36809 716.95903,164.03653 716.65224,164.03653 C 716.34545,164.03653 712.35715,160.38933 708.82892,159.39465 L 689.19371,159.56028 z" id="path887" style="font-size: 12px; fill: rgb(255, 209, 0); fill-opacity: 1; fill-rule: evenodd; stroke: rgb(0, 0, 0); stroke-width: 0.139998; stroke-linecap: butt; stroke-linejoin: miter; stroke-dasharray: none; stroke-opacity: 1;"/>
  <path d="M 693.49212,157.6648 L 689.04035,160.10604 L 692.3162,161.04514 L 689.96422,164.0499 L 693.32413,162.8292 L 693.07222,166.86672 L 695.00416,164.23769 L 696.264,167.89963 L 697.60791,165.17663 L 699.20387,168.18123 L 699.87583,165.27044 L 701.80777,168.18123 L 702.47972,164.23769 L 704.83171,166.67893 L 704.49573,162.54744 L 707.35154,163.58035 L 705.58758,160.38781 C 705.58758,160.38781 708.69544,160.20002 708.52746,160.20002 C 708.35947,160.20002 706.17562,158.13435 704.24368,157.57099 L 693.49212,157.6648 z" id="path888" style="font-size: 12px; fill: rgb(255, 209, 0); fill-opacity: 1; fill-rule: evenodd; stroke: rgb(0, 0, 0); stroke-width: 0.125998; stroke-linecap: butt; stroke-linejoin: miter; stroke-dasharray: none; stroke-opacity: 1;"/>
  <path d="M 695.78987,145.96591 C 695.78987,145.96591 693.48906,143.97654 692.56869,145.96591 C 691.64805,147.95557 694.56271,147.12652 694.56271,147.45809 C 694.56271,147.78965 692.56869,150.1106 692.56869,152.76338 C 692.56869,155.41589 694.10265,159.89212 694.10265,160.55525 C 694.10265,161.21838 694.71623,163.04184 696.86378,163.70496 C 699.01132,164.36809 699.77843,161.54994 700.23849,161.21838 C 700.69881,160.88682 703.61346,161.71559 704.6871,158.89744 C 705.761,156.07901 705.761,150.93964 705.761,150.93964 C 705.761,150.93964 707.60176,152.43154 707.60176,149.44746 C 707.60176,146.4634 705.60748,149.44746 705.60748,149.44746 C 705.60748,149.44746 705.91427,146.29775 701.15886,144.80558 C 696.40346,143.31341 695.9434,146.29775 695.78987,145.96591 z" id="path901" style="font-size: 12px; fill: rgb(255, 209, 0); fill-opacity: 1; fill-rule: evenodd; stroke: rgb(0, 0, 0); stroke-width: 0.139998; stroke-linecap: butt; stroke-linejoin: miter; stroke-dasharray: none; stroke-opacity: 1;"/>
  <path d="M 695.17689,145.442 C 694.55819,143.5495 692.75986,136.28819 692.75986,136.28819 L 696.75027,138.95348 C 695.39706,138.43636 694.24522,138.13995 694.38979,138.13731 C 694.53412,138.13467 696.1998,141.62743 696.1998,141.62743 C 697.76143,141.45131 699.34492,142.2695 701.28577,142.91588 C 701.28577,142.91588 702.81216,140.01422 702.66783,140.01687 C 702.52326,140.01952 701.7909,139.56279 701.7909,139.56279 L 705.34378,136.80387 L 704.26714,140.45731 L 703.54476,140.47055 L 702.15758,143.13458 C 703.79339,143.60196 704.59647,143.97417 706.22135,145.60211 C 707.62277,145.24514 708.78872,144.0362 709.52747,143.12419 C 708.25135,142.5808 707.66393,142.14942 707.80826,142.14678 C 707.95283,142.14414 713.12658,142.49148 713.12658,142.49148 C 713.12658,142.49148 708.17019,147.67652 705.25042,149.59716 C 702.48419,148.36758 695.48112,146.14125 695.17689,145.442 z" id="path893" style="font-size: 12px; fill: rgb(255, 209, 0); fill-opacity: 1; fill-rule: evenodd; stroke: rgb(0, 0, 0); stroke-width: 0.174692; stroke-linecap: butt; stroke-linejoin: miter; stroke-dasharray: none; stroke-opacity: 1;"/>
  <rect width="3.5906432" height="1.5866169" rx="1.7811849" ry="0.78706211" x="195.40033" y="-525.56256" transform="matrix(0.890737, 0.454519, -0.993207, -0.116359, 0, 0)" id="rect903" style="font-size: 12px; fill: rgb(0, 0, 0); fill-opacity: 1; fill-rule: evenodd; stroke-width: 1pt;"/>
  <rect width="3.5906436" height="1.5866175" rx="1.781185" ry="0.78706229" x="199.54195" y="-526.48175" transform="matrix(0.890737, 0.454519, -0.993207, -0.116359, 0, 0)" id="rect904" style="font-size: 12px; fill: rgb(0, 0, 0); fill-opacity: 1; fill-rule: evenodd; stroke-width: 1pt;"/>
  <rect width="6.631361" height="3.0771048" rx="3.2895718" ry="1.5264381" x="369.32651" y="-350.85416" transform="matrix(0.938434, 0.345459, -0.996447, -0.0842181, 0, 0)" id="rect905" style="font-size: 12px; fill: rgb(0, 0, 0); fill-opacity: 1; fill-rule: evenodd; stroke-width: 1pt;"/>
  <rect width="3.0092804" height="1.3786341" rx="1.4927922" ry="0.68388945" x="307.76736" y="-414.49872" transform="matrix(0.925753, 0.378129, -0.995632, -0.0933689, 0, 0)" id="rect906" style="font-size: 12px; fill: rgb(0, 0, 0); fill-opacity: 1; fill-rule: evenodd; stroke-width: 1pt;"/>
  <rect width="2.7238874" height="1.1378591" rx="1.3512197" ry="0.56444991" x="1581.9824" y="1676.7021" transform="matrix(0.306889, -0.951745, 0.126422, 0.991976, 0, 0)" id="rect907" style="font-size: 12px; fill: rgb(0, 0, 0); fill-opacity: 1; fill-rule: evenodd; stroke-width: 1pt;"/>
  <path d="M 670.44447,292.32785 L 666.74996,285.83958 L 672.01421,292.18619 L 672.25233,294.75289 L 670.44447,292.32785 z" id="path4960" style="font-size: 12px; fill: rgb(0, 117, 0); fill-opacity: 1; fill-rule: evenodd; stroke: rgb(0, 0, 0); stroke-width: 0.132422; stroke-dasharray: none; stroke-opacity: 1;"/>
  <path d="M 671.48595,293.02102 L 672.0763,288.31556 L 673.68829,294.0201 L 672.2453,294.90843 L 671.48595,293.02102 z" id="path4962" style="font-size: 12px; fill: rgb(0, 117, 0); fill-opacity: 1; fill-rule: evenodd; stroke: rgb(0, 0, 0); stroke-width: 0.132422; stroke-dasharray: none; stroke-opacity: 1;"/>
  <path d="M 670.13787,294.61205 L 663.93404,291.37033 L 669.07597,292.97273 L 672.43176,294.86664 L 670.13787,294.61205 z" id="path4964" style="font-size: 12px; fill: rgb(0, 117, 0); fill-opacity: 1; fill-rule: evenodd; stroke: rgb(0, 0, 0); stroke-width: 0.132422; stroke-dasharray: none; stroke-opacity: 1;"/>
  <path d="M 671.98808,296.62292 L 662.55526,293.91318 L 669.94582,294.19446 L 672.44323,294.60656 L 671.98808,296.62292 z" id="path4966" style="font-size: 12px; fill: rgb(0, 117, 0); fill-opacity: 1; fill-rule: evenodd; stroke: rgb(0, 0, 0); stroke-width: 0.132422; stroke-dasharray: none; stroke-opacity: 1;"/>
  <path d="M 672.52428,293.51803 L 678.29423,292.59989 L 676.26862,296.25086 L 671.89406,294.69752 L 672.52428,293.51803 z" id="path4968" style="font-size: 12px; fill: rgb(0, 117, 0); fill-opacity: 1; fill-rule: evenodd; stroke: rgb(0, 0, 0); stroke-width: 0.132423; stroke-dasharray: none; stroke-opacity: 1;"/>
  <path d="M 675.77372,295.42346 L 683.11905,298.45453 L 676.96699,297.55032 L 671.76071,294.5175 L 675.77372,295.42346 z" id="path4970" style="font-size: 12px; fill: rgb(0, 117, 0); fill-opacity: 1; fill-rule: evenodd; stroke: rgb(0, 0, 0); stroke-width: 0.132422; stroke-dasharray: none; stroke-opacity: 1;"/>
  <path d="M 676.80064,297.0563 L 684.6296,301.48741 L 677.6569,298.93878 L 671.87808,294.47109 L 676.80064,297.0563 z" id="path4972" style="font-size: 12px; fill: rgb(0, 117, 0); fill-opacity: 1; fill-rule: evenodd; stroke: rgb(0, 0, 0); stroke-width: 0.132422; stroke-dasharray: none; stroke-opacity: 1;"/>
  <path d="M 676.84757,298.58301 L 681.37769,305.28851 L 674.31586,297.72162 L 672.11091,294.55427 L 676.84757,298.58301 z" id="path4974" style="font-size: 12px; fill: rgb(0, 117, 0); fill-opacity: 1; fill-rule: evenodd; stroke: rgb(0, 0, 0); stroke-width: 0.132422; stroke-dasharray: none; stroke-opacity: 1;"/>
  <path d="M 675.68921,298.73043 L 675.80682,303.05803 L 672.37869,296.71687 L 672.08208,294.51197 L 675.68921,298.73043 z" id="path4976" style="font-size: 12px; fill: rgb(0, 117, 0); fill-opacity: 1; fill-rule: evenodd; stroke: rgb(0, 0, 0); stroke-width: 0.132422; stroke-dasharray: none; stroke-opacity: 1;"/>
  <path d="M 673.93716,297.39123 L 670.53311,300.0083 L 670.70413,295.29905 L 672.2343,294.86328 L 673.93716,297.39123 z" id="path4978" style="font-size: 12px; fill: rgb(0, 117, 0); fill-opacity: 1; fill-rule: evenodd; stroke: rgb(0, 0, 0); stroke-width: 0.132422; stroke-dasharray: none; stroke-opacity: 1;"/>
  <path d="M 669.6025,292.23056 L 667.11031,288.55861 L 670.52037,292.18942 L 672.1588,294.70488 L 669.6025,292.23056 z" id="path4980" style="font-size: 12px; fill: rgb(0, 117, 0); fill-opacity: 1; fill-rule: evenodd; stroke: rgb(0, 0, 0); stroke-width: 0.132422; stroke-dasharray: none; stroke-opacity: 1;"/>
  <path d="M 671.40837,293.7805 L 668.92813,289.15654 L 672.5344,294.16744 L 673.03437,295.56959 L 671.40837,293.7805 z" id="path4982" style="font-size: 12px; fill: rgb(0, 117, 0); fill-opacity: 1; fill-rule: evenodd; stroke: rgb(0, 0, 0); stroke-width: 0.0880874; stroke-dasharray: none; stroke-opacity: 1;"/>
  <path d="M 671.59889,295.20609 L 665.06108,292.34608 L 670.57733,294.01548 L 672.99046,295.27526 L 671.59889,295.20609 z" id="path4984" style="font-size: 12px; fill: rgb(0, 117, 0); fill-opacity: 1; fill-rule: evenodd; stroke: rgb(0, 0, 0); stroke-width: 0.0942537; stroke-dasharray: none; stroke-opacity: 1;"/>
  <path d="M 673.32516,294.83762 L 679.31681,296.62596 L 674.79981,295.88839 L 672.44047,295.01658 L 673.32516,294.83762 z" id="path4986" style="font-size: 12px; fill: rgb(0, 117, 0); fill-opacity: 1; fill-rule: evenodd; stroke: rgb(0, 0, 0); stroke-width: 0.08176; stroke-dasharray: none; stroke-opacity: 1;"/>
  <path d="M 673.58834,296.34663 L 671.78174,297.52201 L 672.72376,295.76056 L 672.61845,294.9098 L 673.58834,296.34663 z" id="path4988" style="font-size: 12px; fill: rgb(0, 117, 0); fill-opacity: 1; fill-rule: evenodd; stroke: rgb(0, 0, 0); stroke-width: 0.0811496; stroke-dasharray: none; stroke-opacity: 1;"/>
  <path d="M 676.14292,297.49551 L 679.98085,302.30908 L 676.73678,298.85503 L 672.78199,295.07348 L 676.14292,297.49551 z" id="path4990" style="font-size: 12px; fill: rgb(0, 117, 0); fill-opacity: 1; fill-rule: evenodd; stroke: rgb(0, 0, 0); stroke-width: 0.132422; stroke-dasharray: none; stroke-opacity: 1;"/>
  <path d="M 675.12737,295.81324 L 676.21249,294.54106 L 676.57135,296.97919 L 672.91604,295.35276 L 675.12737,295.81324 z" id="path4992" style="font-size: 12px; fill: rgb(0, 117, 0); fill-opacity: 1; fill-rule: evenodd; stroke: rgb(0, 0, 0); stroke-width: 0.132422; stroke-dasharray: none; stroke-opacity: 1;"/>
  <path d="M 670.99563,293.05501 L 669.36863,288.22678 L 672.02772,293.2298 L 672.27514,294.75683 L 670.99563,293.05501 z" id="path4994" style="font-size: 12px; fill: rgb(0, 117, 0); fill-opacity: 1; fill-rule: evenodd; stroke: rgb(0, 0, 0); stroke-width: 0.0926548; stroke-dasharray: none; stroke-opacity: 1;"/>
  <path d="M 689.30041,303.90779 C 690.18914,303.25104 696.7676,288.37222 728.06109,290.55957 C 710.2807,297.99968 699.25629,313.75371 696.59008,314.40909 C 694.63396,315.06586 690.36666,306.31363 689.30041,303.90779 z" id="path4997" style="font-size: 12px; fill: rgb(255, 255, 255); fill-rule: evenodd; stroke: rgb(0, 0, 0); stroke-width: 0.330659;"/>
  <path d="M 731.21573,296.56815 C 726.36017,298.68848 723.97962,299.69695 721.5241,300.11267 C 722.77584,300.82277 725.55666,300.39112 728.73023,301.5269 C 725.90295,301.60845 720.67413,304.47072 718.49894,304.54032 C 720.00252,305.73774 725.36478,304.58408 726.35118,304.89638 C 723.48341,305.13308 718.86921,308.08086 715.99546,308.08086 C 714.67925,309.41554 722.6814,307.1679 725.89246,309.68604 C 722.57197,309.45928 716.12139,311.99336 712.6255,311.3827 C 715.29088,313.45532 720.0505,311.15993 724.02009,313.40559 C 722.87029,313.57267 713.65987,314.94114 710.39935,314.29074 C 712.34817,315.58562 718.2216,315.37079 719.66523,316.52046 C 717.23371,316.09879 710.77862,317.89094 708.53298,317.17884 C 710.55525,319.11221 716.64906,318.02222 717.76888,319.18582 C 713.7858,321.02769 707.75046,319.55777 704.97415,320.05703 C 706.83601,321.21268 708.37258,322.38025 710.02008,323.46231 C 712.42462,325.70199 719.92908,332.00137 724.41135,333.89298 C 719.44937,333.03171 717.71791,332.91833 714.51136,332.57025 L 721.80743,342.83184 C 718.76277,340.6558 713.39604,336.54439 709.8327,334.42207 C 701.94148,329.29426 696.25393,330.18139 690.78824,325.84123 C 683.1099,315.96352 678.84649,304.19026 678.46272,301.04951 C 678.07745,297.91077 677.74166,292.28368 670.7379,295.21558 C 677.5003,294.05993 672.67434,286.75365 679.73605,286.75365 C 683.98377,286.75365 683.43432,290.84976 685.02336,293.57477 C 686.08172,295.53003 693.38468,302.41203 694.87626,302.76806 C 708.28413,292.19817 719.15853,290.89932 731.21573,296.56815 z" id="path4999" style="font-size: 12px; fill: rgb(255, 255, 255); fill-rule: evenodd; stroke: rgb(0, 0, 0); stroke-width: 0.452313;"/>
  <path d="M 772.74752,351.6123 C 772.49007,349.99332 772.32217,349.17622 773.04789,347.05342 C 774.10714,345.55866 774.6625,344.23361 776.5946,342.68639 C 778.68979,341.90931 779.39718,342.61046 782.14577,339.74097 C 783.02972,337.8501 784.37583,336.42152 785.14326,334.38294 C 786.93439,331.37819 787.53513,329.8944 788.96707,327.58254 C 790.86974,325.17958 792.40098,323.02498 793.51417,321.18376 C 794.70208,318.8236 795.76867,317.36464 797.49245,315.42403 C 798.18998,313.21015 799.68566,311.56773 801.47068,309.66574 C 802.83513,306.85973 805.45138,303.64661 806.58664,301.34711 C 808.59843,298.75227 809.38543,297.62468 811.13249,294.94837 C 812.671,293.80552 815.26645,291.29904 817.38487,290.46952 C 820.27696,289.10446 821.82404,287.75181 823.72685,289.82907 C 824.9858,291.24659 827.249,293.52809 825.67609,295.21198 C 824.84858,296.24446 823.49381,296.37276 821.93197,295.58875 C 820.32722,294.41836 819.54631,291.01332 817.38487,293.66889 C 815.82301,295.67714 815.0224,297.27962 812.83778,299.42722 C 811.75165,301.22701 810.96819,302.57278 809.99608,305.18691 C 808.71123,306.85558 807.64952,308.73134 806.58664,311.58565 C 805.20855,312.86656 804.02072,315.40887 803.176,317.34398 C 801.81273,318.95328 800.82824,320.6068 799.76533,323.10367 C 797.61872,325.41829 796.81688,327.37546 795.21822,328.86198 C 794.16272,331.374 792.50028,333.77286 791.23998,335.26073 C 790.24449,337.08264 789.25638,338.98044 788.39826,341.02045 C 786.58992,343.09773 786.51023,343.54626 783.85112,346.77873 C 781.63698,350.02922 782.38241,349.63719 778.91536,353.40527 C 777.01758,354.10915 775.11123,354.34934 772.74752,351.6123 z" id="path5003" style="font-size: 12px; fill: rgb(0, 96, 0); fill-rule: evenodd; stroke: rgb(0, 0, 0); stroke-width: 0.25;"/>
  <rect width="4.4218616" height="17.68771" rx="2.1935201" ry="8.7742147" x="796.59735" y="-330.42291" transform="matrix(0.710965, 0.703227, -0.703227, 0.710965, 0, 0)" id="rect5006" style="font-size: 12px; fill: rgb(255, 209, 0); fill-rule: evenodd; stroke: rgb(0, 0, 0); stroke-width: 0.25;"/>
  <rect width="4.4218631" height="17.687675" rx="2.1935229" ry="8.7742023" x="840.22693" y="-3.9522493" transform="matrix(0.926078, 0.377331, -0.377331, 0.926078, 0, 0)" id="rect5008" style="font-size: 12px; fill: rgb(255, 209, 0); fill-rule: evenodd; stroke: rgb(0, 0, 0); stroke-width: 0.25;"/>
  <rect width="4.4218564" height="17.687731" rx="2.1935208" ry="8.77423" x="843.27496" y="-30.651859" transform="matrix(0.913307, 0.407271, -0.407271, 0.913307, 0, 0)" id="rect5010" style="font-size: 12px; fill: rgb(255, 209, 0); fill-rule: evenodd; stroke: rgb(0, 0, 0); stroke-width: 0.25;"/>
  <rect width="4.4218659" height="17.687708" rx="2.1935251" ry="8.7742205" x="827.50635" y="-203.09459" transform="matrix(0.810575, 0.585635, -0.585634, 0.810575, 0, 0)" id="rect5012" style="font-size: 12px; fill: rgb(255, 209, 0); fill-rule: evenodd; stroke: rgb(0, 0, 0); stroke-width: 0.25;"/>
  <rect width="4.4218745" height="17.687721" rx="2.1935296" ry="8.7742224" x="771.98822" y="-398.46246" transform="matrix(0.6491, 0.760703, -0.760703, 0.6491, 0, 0)" id="rect5014" style="font-size: 12px; fill: rgb(255, 209, 0); fill-rule: evenodd; stroke: rgb(0, 0, 0); stroke-width: 0.25;"/>
  <rect width="4.4218612" height="17.687714" rx="2.1935222" ry="8.7742243" x="795.47992" y="-341.8439" transform="matrix(0.701424, 0.712744, -0.712744, 0.701424, 0, 0)" id="rect5016" style="font-size: 12px; fill: rgb(255, 209, 0); fill-rule: evenodd; stroke: rgb(0, 0, 0); stroke-width: 0.25;"/>
  <rect width="4.4218659" height="17.687691" rx="2.1935253" ry="8.7742109" x="833.34906" y="-202.64011" transform="matrix(0.810575, 0.585635, -0.585634, 0.810575, 0, 0)" id="rect5018" style="font-size: 12px; fill: rgb(255, 209, 0); fill-rule: evenodd; stroke: rgb(0, 0, 0); stroke-width: 0.25;"/>
  <rect width="4.4218659" height="17.687708" rx="2.1935248" ry="8.7742205" x="830.3783" y="-203.25444" transform="matrix(0.810575, 0.585635, -0.585634, 0.810575, 0, 0)" id="rect5020" style="font-size: 12px; fill: rgb(255, 209, 0); fill-rule: evenodd; stroke: rgb(0, 0, 0); stroke-width: 0.25;"/>
  <rect width="4.4218721" height="17.687731" rx="2.1935272" ry="8.774229" x="815.64948" y="-230.53302" transform="matrix(0.810575, 0.585635, -0.585635, 0.810575, 0, 0)" id="rect5022" style="font-size: 12px; fill: rgb(255, 209, 0); fill-rule: evenodd; stroke: rgb(0, 0, 0); stroke-width: 0.25;"/>
  <rect width="4.4218721" height="17.687733" rx="2.1935277" ry="8.77423" x="818.92188" y="-230.70587" transform="matrix(0.810575, 0.585635, -0.585635, 0.810575, 0, 0)" id="rect5024" style="font-size: 12px; fill: rgb(255, 209, 0); fill-rule: evenodd; stroke: rgb(0, 0, 0); stroke-width: 0.25;"/>
  <rect width="4.4218721" height="17.687733" rx="2.1935277" ry="8.77423" x="822.33466" y="-230.6839" transform="matrix(0.810575, 0.585635, -0.585635, 0.810575, 0, 0)" id="rect5026" style="font-size: 12px; fill: rgb(255, 209, 0); fill-rule: evenodd; stroke: rgb(0, 0, 0); stroke-width: 0.25;"/>
  <rect width="4.4218721" height="17.687733" rx="2.1935277" ry="8.77423" x="826.00012" y="-230.7336" transform="matrix(0.810575, 0.585635, -0.585635, 0.810575, 0, 0)" id="rect5028" style="font-size: 12px; fill: rgb(255, 209, 0); fill-rule: evenodd; stroke: rgb(0, 0, 0); stroke-width: 0.25;"/>
  <rect width="4.4218721" height="17.687733" rx="2.1935277" ry="8.77423" x="828.93958" y="-230.48242" transform="matrix(0.810575, 0.585635, -0.585635, 0.810575, 0, 0)" id="rect5030" style="font-size: 12px; fill: rgb(255, 209, 0); fill-rule: evenodd; stroke: rgb(0, 0, 0); stroke-width: 0.25;"/>
  <rect width="4.4218721" height="17.687731" rx="2.1935275" ry="8.77423" x="845.92902" y="-232.41508" transform="matrix(0.810575, 0.585635, -0.585635, 0.810575, 0, 0)" id="rect5032" style="font-size: 12px; fill: rgb(255, 209, 0); fill-rule: evenodd; stroke: rgb(0, 0, 0); stroke-width: 0.25;"/>
  <rect width="4.4218721" height="17.687731" rx="2.1935275" ry="8.77423" x="843.59399" y="-231.72388" transform="matrix(0.810575, 0.585635, -0.585635, 0.810575, 0, 0)" id="rect5034" style="font-size: 12px; fill: rgb(255, 209, 0); fill-rule: evenodd; stroke: rgb(0, 0, 0); stroke-width: 0.25;"/>
  <rect width="4.4218721" height="17.687735" rx="2.1935279" ry="8.774231" x="841.31488" y="-231.37962" transform="matrix(0.810575, 0.585635, -0.585635, 0.810575, 0, 0)" id="rect5036" style="font-size: 12px; fill: rgb(255, 209, 0); fill-rule: evenodd; stroke: rgb(0, 0, 0); stroke-width: 0.25;"/>
  <rect width="4.4218721" height="17.687733" rx="2.1935277" ry="8.77423" x="837.9588" y="-231.2531" transform="matrix(0.810575, 0.585635, -0.585635, 0.810575, 0, 0)" id="rect5038" style="font-size: 12px; fill: rgb(255, 209, 0); fill-rule: evenodd; stroke: rgb(0, 0, 0); stroke-width: 0.25;"/>
  <rect width="4.4218721" height="17.687731" rx="2.1935275" ry="8.77423" x="834.6698" y="-230.71547" transform="matrix(0.810575, 0.585635, -0.585635, 0.810575, 0, 0)" id="rect5040" style="font-size: 12px; fill: rgb(255, 209, 0); fill-rule: evenodd; stroke: rgb(0, 0, 0); stroke-width: 0.25;"/>
  <rect width="4.4218721" height="17.687731" rx="2.1935275" ry="8.77423" x="831.81165" y="-230.64224" transform="matrix(0.810575, 0.585635, -0.585635, 0.810575, 0, 0)" id="rect5042" style="font-size: 12px; fill: rgb(255, 209, 0); fill-rule: evenodd; stroke: rgb(0, 0, 0); stroke-width: 0.25;"/>
  <rect width="4.4218831" height="17.687773" rx="2.1935315" ry="8.774251" x="842.14966" y="-95.32811" transform="matrix(0.879036, 0.476756, -0.476757, 0.879035, 0, 0)" id="rect5044" style="font-size: 12px; fill: rgb(255, 209, 0); fill-rule: evenodd; stroke: rgb(0, 0, 0); stroke-width: 0.25;"/>
  <rect width="4.4218721" height="17.687731" rx="2.1935272" ry="8.774229" x="814.789" y="-216.41743" transform="matrix(0.810575, 0.585635, -0.585635, 0.810575, 0, 0)" id="rect5046" style="font-size: 12px; fill: rgb(255, 209, 0); fill-rule: evenodd; stroke: rgb(0, 0, 0); stroke-width: 0.25;"/>
  <rect width="4.4218721" height="17.687733" rx="2.1935277" ry="8.77423" x="818.06146" y="-216.59029" transform="matrix(0.810575, 0.585635, -0.585635, 0.810575, 0, 0)" id="rect5048" style="font-size: 12px; fill: rgb(255, 209, 0); fill-rule: evenodd; stroke: rgb(0, 0, 0); stroke-width: 0.25;"/>
  <rect width="4.4218721" height="17.687733" rx="2.1935277" ry="8.77423" x="821.47424" y="-216.56831" transform="matrix(0.810575, 0.585635, -0.585635, 0.810575, 0, 0)" id="rect5050" style="font-size: 12px; fill: rgb(255, 209, 0); fill-rule: evenodd; stroke: rgb(0, 0, 0); stroke-width: 0.25;"/>
  <rect width="4.4218721" height="17.687733" rx="2.1935277" ry="8.77423" x="825.13971" y="-216.61801" transform="matrix(0.810575, 0.585635, -0.585635, 0.810575, 0, 0)" id="rect5052" style="font-size: 12px; fill: rgb(255, 209, 0); fill-rule: evenodd; stroke: rgb(0, 0, 0); stroke-width: 0.25;"/>
  <rect width="4.4218721" height="17.687733" rx="2.1935277" ry="8.77423" x="828.0791" y="-216.36685" transform="matrix(0.810575, 0.585635, -0.585635, 0.810575, 0, 0)" id="rect5054" style="font-size: 12px; fill: rgb(255, 209, 0); fill-rule: evenodd; stroke: rgb(0, 0, 0); stroke-width: 0.25;"/>
  <rect width="4.4218721" height="17.687731" rx="2.1935275" ry="8.77423" x="845.0686" y="-218.2995" transform="matrix(0.810575, 0.585635, -0.585635, 0.810575, 0, 0)" id="rect5056" style="font-size: 12px; fill: rgb(255, 209, 0); fill-rule: evenodd; stroke: rgb(0, 0, 0); stroke-width: 0.25;"/>
  <rect width="4.4218721" height="17.687731" rx="2.1935275" ry="8.77423" x="842.73358" y="-217.60829" transform="matrix(0.810575, 0.585635, -0.585635, 0.810575, 0, 0)" id="rect5058" style="font-size: 12px; fill: rgb(255, 209, 0); fill-rule: evenodd; stroke: rgb(0, 0, 0); stroke-width: 0.25;"/>
  <rect width="4.4218721" height="17.687735" rx="2.1935279" ry="8.774231" x="840.45441" y="-217.26404" transform="matrix(0.810575, 0.585635, -0.585635, 0.810575, 0, 0)" id="rect5060" style="font-size: 12px; fill: rgb(255, 209, 0); fill-rule: evenodd; stroke: rgb(0, 0, 0); stroke-width: 0.25;"/>
  <rect width="4.4218721" height="17.687733" rx="2.1935277" ry="8.77423" x="837.09839" y="-217.13753" transform="matrix(0.810575, 0.585635, -0.585635, 0.810575, 0, 0)" id="rect5062" style="font-size: 12px; fill: rgb(255, 209, 0); fill-rule: evenodd; stroke: rgb(0, 0, 0); stroke-width: 0.25;"/>
  <rect width="4.4218721" height="17.687731" rx="2.1935275" ry="8.77423" x="833.80939" y="-216.5999" transform="matrix(0.810575, 0.585635, -0.585635, 0.810575, 0, 0)" id="rect5064" style="font-size: 12px; fill: rgb(255, 209, 0); fill-rule: evenodd; stroke: rgb(0, 0, 0); stroke-width: 0.25;"/>
  <rect width="4.4218721" height="17.687731" rx="2.1935275" ry="8.77423" x="830.95117" y="-216.52667" transform="matrix(0.810575, 0.585635, -0.585635, 0.810575, 0, 0)" id="rect5066" style="font-size: 12px; fill: rgb(255, 209, 0); fill-rule: evenodd; stroke: rgb(0, 0, 0); stroke-width: 0.25;"/>
  <rect width="6.0294547" height="37.457203" rx="2.9909897" ry="1.0419263" x="800.99078" y="208.80812" id="rect5068" style="font-size: 12px; fill: rgb(178, 128, 46); fill-rule: evenodd; stroke: rgb(0, 0, 0); stroke-width: 0.172298;"/>
  <path d="M 797.71892,222.97901 L 780.41341,234.65999 L 791.54186,220.49859 L 802.68655,217.90544 L 797.71892,222.97901 z" id="path5071" style="font-size: 12px; fill: rgb(0, 117, 0); fill-opacity: 1; fill-rule: evenodd; stroke: rgb(0, 0, 0); stroke-width: 0.350406; stroke-dasharray: none; stroke-opacity: 1;"/>
  <path d="M 797.29752,220.65882 L 773.25772,223.71077 L 794.22255,216.15278 L 803.43967,217.78357 L 797.29752,220.65882 z" id="path5073" style="font-size: 12px; fill: rgb(0, 117, 0); fill-opacity: 1; fill-rule: evenodd; stroke: rgb(0, 0, 0); stroke-width: 0.350406; stroke-dasharray: none; stroke-opacity: 1;"/>
  <path d="M 809.46068,221.53156 L 816.12758,234.59076 L 805.53967,224.69575 L 802.58876,217.51147 L 809.46068,221.53156 z" id="path5075" style="font-size: 12px; fill: rgb(0, 117, 0); fill-opacity: 1; fill-rule: evenodd; stroke: rgb(0, 0, 0); stroke-width: 0.350406; stroke-dasharray: none; stroke-opacity: 1;"/>
  <path d="M 812.35016,216.74055 L 832.84653,234.69599 L 808.19021,222.20557 L 801.33833,217.71327 L 812.35016,216.74055 z" id="path5077" style="font-size: 12px; fill: rgb(0, 117, 0); fill-opacity: 1; fill-rule: evenodd; stroke: rgb(0, 0, 0); stroke-width: 0.350406; stroke-dasharray: none; stroke-opacity: 1;"/>
  <path d="M 795.97093,218.51253 L 771.41025,209.73556 L 795.57084,209.96568 L 803.69133,218.54679 L 795.97093,218.51253 z" id="path5079" style="font-size: 12px; fill: rgb(0, 117, 0); fill-opacity: 1; fill-rule: evenodd; stroke: rgb(0, 0, 0); stroke-width: 0.350406; stroke-dasharray: none; stroke-opacity: 1;"/>
  <path d="M 793.44758,211.4949 L 781.78634,196.72413 L 799.1829,207.69536 L 803.3197,218.92223 L 793.44758,211.4949 z" id="path5081" style="font-size: 12px; fill: rgb(0, 117, 0); fill-opacity: 1; fill-rule: evenodd; stroke: rgb(0, 0, 0); stroke-width: 0.350405; stroke-dasharray: none; stroke-opacity: 1;"/>
  <path d="M 797.46066,208.39378 L 790.63553,191.62222 L 803.23938,205.36212 L 802.68996,218.767 L 797.46066,208.39378 z" id="path5083" style="font-size: 12px; fill: rgb(0, 117, 0); fill-opacity: 1; fill-rule: evenodd; stroke: rgb(0, 0, 0); stroke-width: 0.350406; stroke-dasharray: none; stroke-opacity: 1;"/>
  <path d="M 804.42077,207.0086 L 819.80415,193.7566 L 809.29573,211.94259 L 802.25837,218.31017 L 804.42077,207.0086 z" id="path5085" style="font-size: 12px; fill: rgb(0, 117, 0); fill-opacity: 1; fill-rule: evenodd; stroke: rgb(0, 0, 0); stroke-width: 0.350406; stroke-dasharray: none; stroke-opacity: 1;"/>
  <path d="M 809.1793,208.80136 L 828.96737,204.89964 L 811.41256,216.01309 L 802.16224,218.39329 L 809.1793,208.80136 z" id="path5087" style="font-size: 12px; fill: rgb(0, 117, 0); fill-opacity: 1; fill-rule: evenodd; stroke: rgb(0, 0, 0); stroke-width: 0.350406; stroke-dasharray: none; stroke-opacity: 1;"/>
  <path d="M 809.08571,212.85206 L 833.26367,216.25248 L 810.67985,220.00268 L 803.26883,217.83976 L 809.08571,212.85206 z" id="path5089" style="font-size: 12px; fill: rgb(0, 117, 0); fill-opacity: 1; fill-rule: evenodd; stroke: rgb(0, 0, 0); stroke-width: 0.350406; stroke-dasharray: none; stroke-opacity: 1;"/>
  <path d="M 800.22591,224.45781 L 791.84233,231.73366 L 796.80862,222.9717 L 802.79372,218.10149 L 800.22591,224.45781 z" id="path5091" style="font-size: 12px; fill: rgb(0, 117, 0); fill-opacity: 1; fill-rule: evenodd; stroke: rgb(0, 0, 0); stroke-width: 0.350406; stroke-dasharray: none; stroke-opacity: 1;"/>
  <path d="M 801.11611,220.13689 L 788.24656,228.20841 L 798.96573,217.93912 L 803.75419,215.90943 L 801.11611,220.13689 z" id="path5093" style="font-size: 12px; fill: rgb(0, 117, 0); fill-opacity: 1; fill-rule: evenodd; stroke: rgb(0, 0, 0); stroke-width: 0.23309; stroke-dasharray: none; stroke-opacity: 1;"/>
  <path d="M 807.10349,218.59907 L 816.72577,231.88488 L 805.13524,221.31205 L 802.53667,216.23336 L 807.10349,218.59907 z" id="path5095" style="font-size: 12px; fill: rgb(0, 117, 0); fill-opacity: 1; fill-rule: evenodd; stroke: rgb(0, 0, 0); stroke-width: 0.249407; stroke-dasharray: none; stroke-opacity: 1;"/>
  <path d="M 799.31559,216.05485 L 786.60985,204.59219 L 799.03898,212.71067 L 803.25964,217.3679 L 799.31559,216.05485 z" id="path5097" style="font-size: 12px; fill: rgb(0, 117, 0); fill-opacity: 1; fill-rule: evenodd; stroke: rgb(0, 0, 0); stroke-width: 0.216347; stroke-dasharray: none; stroke-opacity: 1;"/>
  <path d="M 805.4335,214.32546 L 817.26838,216.31305 L 805.73575,216.26047 L 802.13438,217.16371 L 805.4335,214.32546 z" id="path5099" style="font-size: 12px; fill: rgb(0, 117, 0); fill-opacity: 1; fill-rule: evenodd; stroke: rgb(0, 0, 0); stroke-width: 0.214732; stroke-dasharray: none; stroke-opacity: 1;"/>
  <path d="M 801.82268,209.10807 L 810.8067,198.62385 L 806.08223,206.95927 L 802.32632,216.7532 L 801.82268,209.10807 z" id="path5101" style="font-size: 12px; fill: rgb(0, 117, 0); fill-opacity: 1; fill-rule: evenodd; stroke: rgb(0, 0, 0); stroke-width: 0.350406; stroke-dasharray: none; stroke-opacity: 1;"/>
  <path d="M 797.53528,212.23146 L 787.78369,211.52261 L 797.90406,208.83944 L 803.15604,216.29103 L 797.53528,212.23146 z" id="path5103" style="font-size: 12px; fill: rgb(0, 117, 0); fill-opacity: 1; fill-rule: evenodd; stroke: rgb(0, 0, 0); stroke-width: 0.350406; stroke-dasharray: none; stroke-opacity: 1;"/>
  <path d="M 799.17919,221.44142 L 782.35777,228.2737 L 796.36849,219.58108 L 802.62736,217.86302 L 799.17919,221.44142 z" id="path5105" style="font-size: 12px; fill: rgb(0, 117, 0); fill-opacity: 1; fill-rule: evenodd; stroke: rgb(0, 0, 0); stroke-width: 0.245176; stroke-dasharray: none; stroke-opacity: 1;"/>
  <rect width="3.1705306" height="28.916292" rx="1.5727831" ry="0.80434871" x="743.97522" y="-46.455952" transform="matrix(0.93621, 0.351442, -0.295439, 0.955362, 0, 0)" id="rect5107" style="font-size: 12px; fill: rgb(178, 128, 46); fill-rule: evenodd; stroke: rgb(0, 0, 0); stroke-width: 0.161178;"/>
  <rect width="3.1358273" height="29.185007" rx="1.5555681" ry="0.81182313" x="693.69891" y="215.18042" id="rect5109" style="font-size: 12px; fill: rgb(178, 128, 46); fill-rule: evenodd; stroke: rgb(0, 0, 0); stroke-width: 0.161036;"/>
  <path d="M 685.66522,200.27773 C 689.50128,199.13713 692.41752,201.49636 693.6617,206.62065 C 693.6788,207.08549 694.57033,207.1615 694.55783,207.03136 C 693.90112,198.3294 702.54304,191.1694 708.0354,203.47461 C 708.5826,205.42495 705.4132,202.50018 703.40338,200.26057 C 700.88089,197.15362 697.45976,200.92302 697.22976,209.00917 C 696.9979,210.8422 696.68824,214.85501 696.68824,214.85501 C 696.68824,214.85501 693.85171,214.48479 693.78183,214.3757 C 693.71243,214.26737 691.43291,204.34631 687.26343,203.32156 C 684.15126,202.85 684.97905,204.77406 681.28661,205.59156 C 677.84095,205.91516 677.93829,205.40922 680.50617,204.26398 C 682.7304,204.14698 684.18525,200.82014 685.66522,200.27773 z" id="path5111" style="font-size: 12px; fill: rgb(0, 69, 0); fill-opacity: 1; fill-rule: evenodd; stroke: rgb(0, 0, 0); stroke-width: 0.166829; stroke-linecap: butt; stroke-linejoin: miter; stroke-dasharray: none; stroke-opacity: 1;"/>
  <path d="M 686.44116,205.30741 C 690.33362,204.42885 693.11268,206.98116 694.06855,212.18003 C 694.05969,212.64515 694.94529,212.7814 694.94008,212.65064 C 694.77021,203.92067 707.0697,203.66563 711.86499,216.31964 C 712.30231,218.30334 711.44695,218.14598 709.56591,215.77445 C 707.22158,212.5025 698.17738,206.75046 697.49657,214.80574 C 697.16286,216.6196 696.62985,220.60385 696.62985,220.60385 C 696.62985,220.60385 693.81933,220.04218 693.75569,219.92856 C 693.69246,219.81572 691.9709,209.75902 687.86649,208.45377 C 684.78652,207.77226 683.85588,210.58983 680.12479,211.15566 C 676.66759,211.24523 676.79298,210.74684 679.41992,209.77772 C 679.91517,209.69819 684.93373,205.74855 686.44116,205.30741 z" id="path5113" style="font-size: 12px; fill: rgb(0, 69, 0); fill-opacity: 1; fill-rule: evenodd; stroke: rgb(0, 0, 0); stroke-width: 0.166829; stroke-linecap: butt; stroke-linejoin: miter; stroke-dasharray: none; stroke-opacity: 1;"/>
  <path d="M 687.44894,211.33922 C 691.39293,210.80845 693.97666,213.59878 694.54989,218.86553 C 694.5071,219.32833 695.37988,219.54263 695.38422,219.41184 C 695.85224,210.69511 703.7559,215.46693 706.88779,227.42545 C 707.31085,228.70618 704.42853,226.11496 702.72672,223.58442 C 700.62883,220.11532 699.04179,213.81765 697.77511,221.78648 C 697.31007,223.5649 696.48791,227.48902 696.48791,227.48902 C 696.48791,227.48902 693.72752,226.68009 693.67237,226.56121 C 693.61758,226.44313 692.63578,216.26645 688.63995,214.60169 C 685.61972,213.64946 683.83318,221.64657 680.07288,221.87993 C 676.62033,221.66284 676.78171,221.17718 679.47088,220.444 C 679.97033,220.40863 685.91419,211.64535 687.44894,211.33922 z" id="path5115" style="font-size: 12px; fill: rgb(0, 69, 0); fill-opacity: 1; fill-rule: evenodd; stroke: rgb(0, 0, 0); stroke-width: 0.166829; stroke-linecap: butt; stroke-linejoin: miter; stroke-dasharray: none; stroke-opacity: 1;"/>
  <rect width="3.135828" height="29.185013" rx="1.5555685" ry="0.81182325" x="564.50183" y="422.61227" transform="matrix(0.945519, -0.325568, 0.325568, 0.945519, 0, 0)" id="rect5117" style="font-size: 12px; fill: rgb(178, 128, 46); fill-rule: evenodd; stroke: rgb(0, 0, 0); stroke-width: 0.161036;"/>
  <path d="M 675.45546,198.60143 C 671.4732,199.0159 669.68478,202.30992 670.50302,207.51727 C 670.66573,207.95302 669.87119,208.36427 669.83277,208.23932 C 667.09788,199.95338 658.17919,200.17542 657.83,213.63837 C 658.07337,215.64851 659.88399,211.79889 660.88088,208.96209 C 662.01839,205.12834 664.80592,203.70959 668.12361,211.08772 C 669.04173,212.69148 670.86882,216.27814 670.86882,216.27814 C 670.86882,216.27814 673.34741,214.8511 673.37007,214.72365 C 673.39259,214.59705 671.6889,204.56465 675.1477,202.02331 C 677.84203,200.39725 677.952,200.45642 681.67749,199.7986 C 684.98533,198.77915 684.70109,198.34923 681.88876,198.27422 C 681.39279,198.3574 677.03112,198.53603 675.45546,198.60143 z" id="path5120" style="font-size: 12px; fill: rgb(0, 69, 0); fill-opacity: 1; fill-rule: evenodd; stroke: rgb(0, 0, 0); stroke-width: 0.166829; stroke-linecap: butt; stroke-linejoin: miter; stroke-dasharray: none; stroke-opacity: 1;"/>
  <path d="M 676.67046,203.54249 C 672.73673,204.22048 671.14919,207.64031 672.26247,212.80623 C 672.44927,213.2323 671.68336,213.69691 671.63798,213.5742 C 668.44249,205.44863 659.59176,206.25912 660.02056,219.77742 C 660.37827,221.77635 661.95585,217.79813 662.78311,214.88881 C 663.69262,210.97084 666.38117,209.36494 670.10352,216.54209 C 671.10841,218.0892 673.13088,221.56403 673.13088,221.56403 C 673.13088,221.56403 675.5119,219.97018 675.52708,219.84094 C 675.54215,219.71253 673.27085,209.76835 676.56181,206.99292 C 679.14578,205.18533 679.25848,205.2374 682.92303,204.33241 C 686.15164,203.09245 685.84439,202.68026 683.04512,202.79045 C 682.55701,202.9065 678.23264,203.3731 676.67046,203.54249 z" id="path5122" style="font-size: 12px; fill: rgb(0, 69, 0); fill-opacity: 1; fill-rule: evenodd; stroke: rgb(0, 0, 0); stroke-width: 0.166829; stroke-linecap: butt; stroke-linejoin: miter; stroke-dasharray: none; stroke-opacity: 1;"/>
  <path d="M 678.05527,209.49744 C 674.20748,210.51625 672.89182,214.08111 674.38469,219.16331 C 674.60196,219.57426 673.87785,220.10603 673.82361,219.98694 C 670.04386,212.11765 661.33261,213.69329 662.77672,227.20672 C 663.28198,229.17956 664.54567,225.05585 665.14626,222.06826 C 665.75238,218.06258 668.29605,216.22102 672.52649,223.09421 C 673.63911,224.55834 675.90562,227.86702 675.90562,227.86702 C 675.90562,227.86702 678.14541,226.06405 678.15072,225.93319 C 678.15597,225.80319 675.15512,216.03124 678.20769,212.96541 C 680.63252,210.93073 680.74814,210.97319 684.312,209.75002 C 687.41855,208.22873 687.08295,207.84202 684.31678,208.19388 C 683.84174,208.35231 679.59083,209.19292 678.05527,209.49744 z" id="path5124" style="font-size: 12px; fill: rgb(0, 69, 0); fill-opacity: 1; fill-rule: evenodd; stroke: rgb(0, 0, 0); stroke-width: 0.166829; stroke-linecap: butt; stroke-linejoin: miter; stroke-dasharray: none; stroke-opacity: 1;"/>
  <path d="M 708.64805,196.707 C 712.60813,197.06379 714.6278,200.37104 714.22487,205.65691 C 714.09821,206.10068 714.9138,206.50457 714.94201,206.37746 C 716.9965,197.94397 727.32761,194.42804 728.71691,208.05502 C 728.63287,210.09429 726.54865,206.16048 725.34519,203.3037 C 723.92567,199.43963 719.5487,201.71127 716.84891,209.23472 C 716.06779,210.8732 714.544,214.53385 714.544,214.53385 C 714.544,214.53385 711.98848,213.12802 711.95624,212.9993 C 711.92421,212.87147 712.82603,202.68583 709.21719,200.16712 C 706.43342,198.56314 706.62149,200.68231 702.89577,200.07504 C 699.55398,199.09501 699.80096,198.65519 702.56909,198.53482 C 704.69805,199.25392 707.0888,196.66568 708.64805,196.707 z" id="path5126" style="font-size: 12px; fill: rgb(0, 69, 0); fill-opacity: 1; fill-rule: evenodd; stroke: rgb(0, 0, 0); stroke-width: 0.166829; stroke-linecap: butt; stroke-linejoin: miter; stroke-dasharray: none; stroke-opacity: 1;"/>
  <path d="M 707.83365,201.72923 C 711.76632,202.35361 713.5976,205.79144 712.90045,211.04 C 712.74927,211.47435 713.5408,211.93273 713.57604,211.80777 C 716.09727,203.5294 727.7496,207.8747 728.37583,221.56999 C 728.17814,223.59974 727.42157,223.13275 726.37981,220.19984 C 725.17861,216.24691 718.43442,207.46247 715.31989,214.78877 C 714.4488,216.37124 712.72362,219.92178 712.72362,219.92178 C 712.72362,219.92178 710.25139,218.34548 710.22638,218.21483 C 710.20154,218.08506 711.67006,207.97976 708.20861,205.22138 C 705.51961,203.43185 703.77855,205.73627 700.09378,204.87775 C 696.81298,203.67321 697.08405,203.25096 699.85366,203.31832 C 700.34413,203.42812 706.27964,201.58237 707.83365,201.72923 z" id="path5128" style="font-size: 12px; fill: rgb(0, 69, 0); fill-opacity: 1; fill-rule: evenodd; stroke: rgb(0, 0, 0); stroke-width: 0.166829; stroke-linecap: butt; stroke-linejoin: miter; stroke-dasharray: none; stroke-opacity: 1;"/>
  <path d="M 706.92953,207.78098 C 710.80388,208.75185 712.37826,212.34079 711.30021,217.51058 C 711.1178,217.93014 711.87329,218.45718 711.91754,218.33573 C 715.03496,210.30762 721.00693,217.74449 720.28149,230.1652 C 720.28627,231.52811 718.36976,228.01518 717.54548,224.99947 C 716.63675,220.95291 717.07741,214.43506 713.43812,221.46164 C 712.45433,222.96176 710.47554,226.34789 710.47554,226.34789 C 710.47554,226.34789 708.12639,224.55762 708.111,224.42518 C 708.09571,224.29365 710.2972,214.35124 707.04834,211.29502 C 704.4987,209.273 700.36153,216.13237 696.75137,214.9501 C 693.56914,213.45871 693.87016,213.06184 696.62588,213.37445 C 697.10673,213.52736 705.39129,207.49688 706.92953,207.78098 z" id="path5130" style="font-size: 12px; fill: rgb(0, 69, 0); fill-opacity: 1; fill-rule: evenodd; stroke: rgb(0, 0, 0); stroke-width: 0.166829; stroke-linecap: butt; stroke-linejoin: miter; stroke-dasharray: none; stroke-opacity: 1;"/>
  <path d="M 656.51333,124.93372 L 656.51333,248.82817 C 659.02622,325.23498 697.39546,352.59278 750.94598,375.06628 C 812.31013,347.94373 843.48667,314.66808 843.48667,248.82817 L 843.48667,124.93372 L 656.51333,124.93372 z" id="path5239" style="font-size: 12px; fill: none; fill-opacity: 1; fill-rule: evenodd; stroke: rgb(0, 0, 0); stroke-width: 2; stroke-miterlimit: 4; stroke-dasharray: none; stroke-opacity: 1;"/>
</svg>