<?xml version="1.0" encoding="UTF-8"?>
<!-- Generator: Adobe Illustrator 13.0.2, SVG Export Plug-In  -->
<!DOCTYPE svg PUBLIC "-//W3C//DTD SVG 1.1//EN" "http://www.w3.org/Graphics/SVG/1.1/DTD/svg11.dtd" [
	<!ENTITY ns_flows "http://ns.adobe.com/Flows/1.0/">
]>
<svg version="1.1" xmlns="http://www.w3.org/2000/svg" xmlns:xlink="http://www.w3.org/1999/xlink" xmlns:a="http://ns.adobe.com/AdobeSVGViewerExtensions/3.0/" x="0px" y="0px" width="1000px" height="500px" viewBox="0 0 1000 500" enable-background="new 0 0 1000 500" xml:space="preserve">
<defs>
</defs>
<rect id="green_x5F_stripe_1_" y="357.2226562" fill="#5BBF21" width="1000" height="142.7773438"/>
<rect id="white_x5F_stripe_1_" y="142.777832" fill="#FFFFFF" width="1000" height="214.4448242"/>
<rect id="red_x5F_stripe_1_" fill="#E5053A" width="1000" height="142.777832"/>
<path fill="#D8B511" d="M499.3662109,300.7900391c4.140625,5,19.2441406,10.2285156,32.2070312,3.7470703  c2.0019531,6.0234375,18.1484375,15.9257812,32.5927734,5.3710938C548.4257812,307.6855469,539.90625,302.5,531.203125,290.8330078  c-8.7041016,7.0371094-22.9628906,0.7412109-26.1113281-2.5917969l0.1855469-40.5556641l20.7402344-20.3706055  c0-4.378418-13.3154297-16.8256836-26.6425781-16.8286133c-13.3466797-0.003418-26.7036133,12.4438477-26.7036133,16.8286133  l20.7407227,20.3706055l0.1850586,40.5556641c-3.1479492,3.3330078-17.4072266,9.6289062-26.1113281,2.5917969  c-8.703125,11.6669922-17.222168,16.8525391-32.9628906,19.0751953  c14.4448242,10.5546875,30.5908203,0.6523438,32.5927734-5.3710938c12.9628906,6.4814453,28.0585938,1.2529297,32.1987305-3.7470703  H499.3662109z M499.3144531,240.659668c-5.2128906-8.8886719-15.7172852-12.2333984-15.7172852-12.2333984  s5.4306641-8.7041016,15.777832-8.7041016c10.3476562,0,15.7167969,8.7041016,15.7167969,8.7041016  S504.5273438,231.7709961,499.3144531,240.659668L499.3144531,240.659668z"/>
<path id="_x3C_Compound_Path_x3E__1_" fill="#D8B511" d="M499.3520508,321.7587891  c-19.0180664,0-31.1108398,6.6669922-37.4072266,13.7041016l-5.3701172-5.7402344  c4.8144531-5.9267578,11.2958984-7.9638672,12.9628906-15.3710938c1.6665039-5.1845703-2.0375977-9.2597656-2.0375977-9.2597656  S472.8696289,312.5,486.2041016,312.5c8.1484375,0,13.1479492-9.0742188,13.1479492-9.0742188 M499.3520508,303.4257812  c0,0,4.9995117,9.0742188,13.1479492,9.0742188c13.3339844,0,18.7041016-7.4082031,18.7041016-7.4082031  s-3.7041016,4.0751953-2.0371094,9.2597656c1.6660156,7.4072266,8.1474609,9.4443359,12.9619141,15.3710938l-5.3691406,5.7402344  c-6.296875-7.0371094-18.3896484-13.7041016-37.4077148-13.7041016"/>
<polygon fill="#D8B511" points="591.139,255.583 594.748,266.692 606.43,266.692 596.979,273.559 600.589,284.669 591.139,277.802 581.688,284.669 585.298,273.559 575.848,266.692 587.529,266.692"/>
<polygon fill="#D8B511" points="578.928,210.014 582.537,221.123 594.219,221.123 584.769,227.989 588.378,239.099 578.928,232.232 569.478,239.099 573.087,227.989 563.637,221.123 575.318,221.123"/>
<polygon fill="#D8B511" points="545.569,176.655 549.179,187.764 560.86,187.764 551.409,194.63 555.019,205.74 545.569,198.873 536.119,205.74 539.729,194.63 530.278,187.764 541.96,187.764"/>
<polygon fill="#D8B511" points="500,164.444 503.609,175.554 515.291,175.554 505.841,182.42 509.45,193.53 500,186.663 490.55,193.53 494.159,182.42 484.709,175.554 496.391,175.554"/>
<polygon fill="#D8B511" points="454.431,176.655 458.04,187.764 469.721,187.764 460.271,194.63 463.88,205.74 454.431,198.873 444.98,205.74 448.59,194.63 439.14,187.764 450.821,187.764"/>
<polygon fill="#D8B511" points="421.071,210.014 424.681,221.124 436.362,221.124 426.912,227.99 430.521,239.099 421.071,232.232 411.621,239.099 415.23,227.99 405.781,221.124 417.462,221.124"/>
<polygon fill="#D8B511" points="408.861,255.583 412.471,266.692 424.152,266.692 414.702,273.559 418.311,284.669 408.861,277.802 399.411,284.669 403.021,273.559 393.57,266.692 405.252,266.692"/>
</svg>