<?xml version="1.0" encoding="UTF-8" standalone="no"?>
<!DOCTYPE svg PUBLIC "-//W3C//DTD SVG 1.0//EN" "http://www.w3.org/TR/2001/REC-SVG-20010904/DTD/svg10.dtd">
<!-- Created with Inkscape (http://www.inkscape.org/) -->
<svg xmlns="http://www.w3.org/2000/svg" xmlns:xlink="http://www.w3.org/1999/xlink" version="1.0" x="0.0000000" y="0.0000000" width="510.00000" height="300.00000" id="svg1">
  <defs id="defs3"/>
  <g id="layer1">
    <rect width="637.50000" height="375.00000" x="125.00000" y="302.36218" transform="matrix(0.8, 0, 0, 0.8, -100, -241.89)" style="fill: rgb(0, 56, 147); fill-opacity: 1; fill-rule: nonzero; stroke: none; stroke-width: 1.875; stroke-linecap: round; stroke-linejoin: round; stroke-miterlimit: 4; stroke-opacity: 1;" id="rect1061"/>
    <rect width="637.50000" height="93.750000" x="125.00000" y="489.86218" transform="matrix(0.8, 0, 0, 0.8, -100, -241.89)" style="fill: rgb(255, 255, 255); fill-opacity: 1; fill-rule: nonzero; stroke: none; stroke-width: 1.875; stroke-linecap: round; stroke-linejoin: round; stroke-miterlimit: 4; stroke-opacity: 1;" id="rect1683"/>
    <rect width="637.50000" height="31.250000" x="125.00000" y="521.11218" transform="matrix(0.8, 0, 0, 0.8, -100, -241.89)" style="fill: rgb(206, 17, 38); fill-opacity: 1; fill-rule: nonzero; stroke: none; stroke-width: 1.875; stroke-linecap: round; stroke-linejoin: round; stroke-miterlimit: 4; stroke-opacity: 1;" id="rect2305"/>
    <path d="M 38.892678,309.86636 L 34.683857,322.81978 L 21.063820,322.81978 L 32.082662,330.82544 L 27.873837,343.77886 L 38.892678,335.77320 L 49.911519,343.77886 L 45.702695,330.82544 L 56.721536,322.81978 L 43.101500,322.81978 L 38.892678,309.86636 z " transform="matrix(0.8, 0, 0, 0.8, 160.136, -150.393)" style="fill: rgb(252, 209, 22); fill-opacity: 1; fill-rule: evenodd; stroke: none; stroke-width: 0.25pt; stroke-linecap: butt; stroke-linejoin: miter; stroke-opacity: 1;" id="path2937"/>
    <path d="M 38.892678,309.86636 L 34.683857,322.81978 L 21.063820,322.81978 L 32.082662,330.82544 L 27.873837,343.77886 L 38.892678,335.77320 L 49.911519,343.77886 L 45.702695,330.82544 L 56.721536,322.81978 L 43.101500,322.81978 L 38.892678,309.86636 z " transform="matrix(0.8, 0, 0, 0.8, 116.056, -136.073)" style="fill: rgb(252, 209, 22); fill-opacity: 1; fill-rule: evenodd; stroke: none; stroke-width: 0.25pt; stroke-linecap: butt; stroke-linejoin: miter; stroke-opacity: 1;" id="path2222"/>
    <path d="M 38.892678,309.86636 L 34.683857,322.81978 L 21.063820,322.81978 L 32.082662,330.82544 L 27.873837,343.77886 L 38.892678,335.77320 L 49.911519,343.77886 L 45.702695,330.82544 L 56.721536,322.81978 L 43.101500,322.81978 L 38.892678,309.86636 z " transform="matrix(0.8, 0, 0, 0.8, 88.8058, -98.5734)" style="fill: rgb(252, 209, 22); fill-opacity: 1; fill-rule: evenodd; stroke: none; stroke-width: 0.25pt; stroke-linecap: butt; stroke-linejoin: miter; stroke-opacity: 1;" id="path2225"/>
    <path d="M 38.892678,309.86636 L 34.683857,322.81978 L 21.063820,322.81978 L 32.082662,330.82544 L 27.873837,343.77886 L 38.892678,335.77320 L 49.911519,343.77886 L 45.702695,330.82544 L 56.721536,322.81978 L 43.101500,322.81978 L 38.892678,309.86636 z " transform="matrix(0.8, 0, 0, 0.8, 88.8058, -52.2134)" style="fill: rgb(252, 209, 22); fill-opacity: 1; fill-rule: evenodd; stroke: none; stroke-width: 0.25pt; stroke-linecap: butt; stroke-linejoin: miter; stroke-opacity: 1;" id="path2228"/>
    <path d="M 38.892678,309.86636 L 34.683857,322.81978 L 21.063820,322.81978 L 32.082662,330.82544 L 27.873837,343.77886 L 38.892678,335.77320 L 49.911519,343.77886 L 45.702695,330.82544 L 56.721536,322.81978 L 43.101500,322.81978 L 38.892678,309.86636 z " transform="matrix(0.8, 0, 0, 0.8, 116.056, -14.7134)" style="fill: rgb(252, 209, 22); fill-opacity: 1; fill-rule: evenodd; stroke: none; stroke-width: 0.25pt; stroke-linecap: butt; stroke-linejoin: miter; stroke-opacity: 1;" id="path2231"/>
    <path d="M 38.892678,309.86636 L 34.683857,322.81978 L 21.063820,322.81978 L 32.082662,330.82544 L 27.873837,343.77886 L 38.892678,335.77320 L 49.911519,343.77886 L 45.702695,330.82544 L 56.721536,322.81978 L 43.101500,322.81978 L 38.892678,309.86636 z " transform="matrix(0.8, 0, 0, 0.8, 160.136, -0.39346)" style="fill: rgb(252, 209, 22); fill-opacity: 1; fill-rule: evenodd; stroke: none; stroke-width: 0.25pt; stroke-linecap: butt; stroke-linejoin: miter; stroke-opacity: 1;" id="path2234"/>
    <path d="M 38.892678,309.86636 L 34.683857,322.81978 L 21.063820,322.81978 L 32.082662,330.82544 L 27.873837,343.77886 L 38.892678,335.77320 L 49.911519,343.77886 L 45.702695,330.82544 L 56.721536,322.81978 L 43.101500,322.81978 L 38.892678,309.86636 z " transform="matrix(0.8, 0, 0, 0.8, 204.216, -14.7134)" style="fill: rgb(252, 209, 22); fill-opacity: 1; fill-rule: evenodd; stroke: none; stroke-width: 0.25pt; stroke-linecap: butt; stroke-linejoin: miter; stroke-opacity: 1;" id="path2237"/>
    <path d="M 38.892678,309.86636 L 34.683857,322.81978 L 21.063820,322.81978 L 32.082662,330.82544 L 27.873837,343.77886 L 38.892678,335.77320 L 49.911519,343.77886 L 45.702695,330.82544 L 56.721536,322.81978 L 43.101500,322.81978 L 38.892678,309.86636 z " transform="matrix(0.8, 0, 0, 0.8, 231.466, -98.5734)" style="fill: rgb(252, 209, 22); fill-opacity: 1; fill-rule: evenodd; stroke: none; stroke-width: 0.25pt; stroke-linecap: butt; stroke-linejoin: miter; stroke-opacity: 1;" id="path2240"/>
    <path d="M 38.892678,309.86636 L 34.683857,322.81978 L 21.063820,322.81978 L 32.082662,330.82544 L 27.873837,343.77886 L 38.892678,335.77320 L 49.911519,343.77886 L 45.702695,330.82544 L 56.721536,322.81978 L 43.101500,322.81978 L 38.892678,309.86636 z " transform="matrix(0.8, 0, 0, 0.8, 231.466, -52.2134)" style="fill: rgb(252, 209, 22); fill-opacity: 1; fill-rule: evenodd; stroke: none; stroke-width: 0.25pt; stroke-linecap: butt; stroke-linejoin: miter; stroke-opacity: 1;" id="path2243"/>
    <path d="M 38.892678,309.86636 L 34.683857,322.81978 L 21.063820,322.81978 L 32.082662,330.82544 L 27.873837,343.77886 L 38.892678,335.77320 L 49.911519,343.77886 L 45.702695,330.82544 L 56.721536,322.81978 L 43.101500,322.81978 L 38.892678,309.86636 z " transform="matrix(0.8, 0, 0, 0.8, 204.216, -136.073)" style="fill: rgb(252, 209, 22); fill-opacity: 1; fill-rule: evenodd; stroke: none; stroke-width: 0.25pt; stroke-linecap: butt; stroke-linejoin: miter; stroke-opacity: 1;" id="path2246"/>
    <g transform="translate(-393.667, -217.173)" style="display: block;" id="g1775"/>
  </g>
</svg>