<?xml version="1.0" encoding="UTF-8"?>
<!-- Generator: Adobe Illustrator 13.0.2, SVG Export Plug-In . SVG Version: 6.00 Build 14948)  -->
<!DOCTYPE svg PUBLIC "-//W3C//DTD SVG 1.1//EN" "http://www.w3.org/Graphics/SVG/1.1/DTD/svg11.dtd" [
	<!ENTITY ns_flows "http://ns.adobe.com/Flows/1.0/">
	<!ENTITY ns_extend "http://ns.adobe.com/Extensibility/1.0/">
	<!ENTITY ns_ai "http://ns.adobe.com/AdobeIllustrator/10.0/">
	<!ENTITY ns_graphs "http://ns.adobe.com/Graphs/1.0/">
]>
<svg version="1.1" xmlns:x="http://ns.adobe.com/Extensibility/1.0/" xmlns:i="http://ns.adobe.com/AdobeIllustrator/10.0/" xmlns:graph="http://ns.adobe.com/Graphs/1.0/" xmlns="http://www.w3.org/2000/svg" xmlns:xlink="http://www.w3.org/1999/xlink" xmlns:a="http://ns.adobe.com/AdobeSVGViewerExtensions/3.0/" x="0px" y="0px" width="900" height="600" viewBox="0 0 1501.95 1001.95" enable-background="new 0 0 1501.953 1001.953" xml:space="preserve">
<g id="black">
	
		<rect x="0.977" y="667.645" fill-rule="evenodd" clip-rule="evenodd" stroke="#000000" stroke-width="1.9531" width="1500" height="333.332"/>
</g>
<g id="white">
	
		<rect x="0.977" y="334.311" fill-rule="evenodd" clip-rule="evenodd" fill="#FFFFFF" stroke="#FFFFFF" stroke-width="1.9531" width="1500" height="333.334"/>
</g>
<g id="red">
	
		<rect x="0.977" y="0.977" fill-rule="evenodd" clip-rule="evenodd" fill="#ce1126" stroke="#ce1126" stroke-width="1.9531" width="1500" height="333.334"/>
</g>
<g id="eagle">
	<g id="g1838" transform="matrix(1.00015, 0, 0, 1, 0.021783, 6.39489e-14)">
		
			<path id="_x32_1445608" fill="#FFFFFF" stroke="#FAC800" stroke-width="3.9062" stroke-linecap="round" stroke-linejoin="round" d="    M741.329,659.042c32.762,0,64.106-2.592,82.488-7.778c7.779-1.411,7.779-5.418,7.779-10.606c7.779-2.592,3.77-11.781,9.19-11.781    c-5.42,1.417-6.597-9.191-13.196-7.774c0-9.195-9.192-10.372-16.969-7.784c-15.556,5.188-43.13,6.367-69.291,6.367    c-26.159-1.179-53.499-1.179-69.29-6.367c-7.777-2.588-16.965-1.411-16.965,7.784c-6.601-1.417-7.779,9.191-13.198,7.774    c5.419,0,1.412,9.189,9.19,11.781c0,5.188,0,9.195,8.013,10.606C677.224,656.45,708.572,659.042,741.329,659.042z"/>
	</g>
	
		<path id="_x32_1445696" fill="#FDD220" stroke="#FAC800" stroke-width="2.0872" stroke-linecap="round" stroke-linejoin="round" d="   M666.979,626.281c-2.595,0-2.595,1.416,0,1.416C668.155,627.697,668.155,626.281,666.979,626.281z"/>
	
		<path id="_x32_1445784" fill="#FDD220" stroke="#FAC800" stroke-width="2.0872" stroke-linecap="round" stroke-linejoin="round" d="   M666.979,621.102c-1.416,0-1.416,2.59,0,2.59C669.575,623.691,669.575,621.102,666.979,621.102z"/>
	
		<path id="_x32_1445872" fill="#FDD220" stroke="#FAC800" stroke-width="2.0872" stroke-linecap="round" stroke-linejoin="round" d="   M666.979,640.657c-1.416,0-1.416,2.593,0,2.593C668.155,643.25,668.155,640.657,666.979,640.657z"/>
	
		<path id="_x32_1445960" fill="#FDD220" stroke="#FAC800" stroke-width="2.0872" stroke-linecap="round" stroke-linejoin="round" d="   M672.162,642.072c-2.587,0-2.587,2.593,0,2.593C673.58,644.665,673.58,642.072,672.162,642.072z"/>
	
		<path id="_x32_1446048" fill="#FDD220" stroke="#FAC800" stroke-width="2.0872" stroke-linecap="round" stroke-linejoin="round" d="   M677.348,643.25c-1.177,0-1.177,2.596,0,2.596C679.941,645.846,679.941,643.25,677.348,643.25z"/>
	
		<path id="_x32_1446136" fill="#FDD220" stroke="#FAC800" stroke-width="2.0872" stroke-linecap="round" stroke-linejoin="round" d="   M758.438,630.293c-1.183,0-1.183,2.588,0,2.588C759.85,632.881,759.85,630.293,758.438,630.293z"/>
	
		<path id="_x32_1446224" fill="#FDD220" stroke="#FAC800" stroke-width="2.0872" stroke-linecap="round" stroke-linejoin="round" d="   M759.85,635.477c-2.594,0-2.594,1.18,0,1.18C761.028,636.656,761.028,635.477,759.85,635.477z"/>
	
		<path id="_x32_1446312" fill="#FDD220" stroke="#FAC800" stroke-width="2.0872" stroke-linecap="round" stroke-linejoin="round" d="   M763.624,648.439c-1.181,0-1.181,2.824,0,2.824C765.037,651.264,765.037,648.439,763.624,648.439z"/>
	
		<path id="_x32_1446400" fill="#FDD220" stroke="#FAC800" stroke-width="2.0872" stroke-linecap="round" stroke-linejoin="round" d="   M769.043,648.439c-2.83,0-2.83,2.824,0,2.824C770.222,651.264,770.222,648.439,769.043,648.439z"/>
	
		<path id="_x32_1446488" fill="#FDD220" stroke="#FAC800" stroke-width="2.0872" stroke-linecap="round" stroke-linejoin="round" d="   M822.548,638.065c-2.59,0-2.59,1.417,0,1.417C823.963,639.482,823.963,638.065,822.548,638.065z"/>
	<g id="g1853" transform="matrix(1.00015, 0, 0, 1, 0.021783, 6.39489e-14)">
		<path id="_x32_1446576" fill="none" stroke="#FAC800" stroke-width="2.0872" stroke-linecap="round" stroke-linejoin="round" d="    M672.039,621.102c-1.411,5.18-2.587,10.368-4.007,12.96c0,2.595,1.42,4.004,2.595,4.004c4.008,1.417,4.008,1.417,5.42-4.004    c1.177-2.592,0-2.592,0,0c-1.412,4.004-2.591,5.421,2.591,6.596c3.772,1.415,5.185,0,6.363-5.181c0-2.596-2.591-1.415-1.178,0"/>
	</g>
	<g id="g1856" transform="matrix(1.00015, 0, 0, 1, 0.021783, 6.39489e-14)">
		<path id="_x32_1311504" fill="none" stroke="#FAC800" stroke-width="2.0872" stroke-linecap="round" stroke-linejoin="round" d="    M669.452,631.47c-6.6,1.411-4.011,5.187,1.176,6.596"/>
	</g>
	<g id="g1859" transform="matrix(1.00015, 0, 0, 1, 0.021783, 6.39489e-14)">
		<path id="_x32_1311592" fill="none" stroke="#FAC800" stroke-width="2.0872" stroke-linecap="round" stroke-linejoin="round" d="    M686.418,645.846c2.592-1.181,4.004-3.773,4.004-6.363c-1.412-4.006-2.591-2.826-1.412,0c0,2.59,1.412,3.768,5.185,3.768    c2.593,0,5.185-1.178,8.013-2.593c2.591-1.175,2.591-5.181,0-6.596c-4.006-1.181-6.599,4.004-2.827,6.596    c1.411,1.415,2.827,2.593,5.418,4.008c0,1.181,0,3.774,2.593,3.774c1.181,1.413,3.774-2.594,3.774-6.367c0-5.416,0-9.191,0-11.779    "/>
	</g>
	<g id="g1862" transform="matrix(1.00015, 0, 0, 1, 0.021783, 6.39489e-14)">
		<path id="_x32_1311680" fill="none" stroke="#FAC800" stroke-width="2.0872" stroke-linecap="round" stroke-linejoin="round" d="    M716.586,630.293c0,3.769-1.416,10.364-1.416,14.372"/>
	</g>
	<g id="g1865" transform="matrix(1.00015, 0, 0, 1, 0.021783, 6.39489e-14)">
		<path id="_x32_1311768" fill="none" stroke="#FAC800" stroke-width="2.0872" stroke-linecap="round" stroke-linejoin="round" d="    M719.177,652.443c5.185-4.004,5.185-6.598,5.185-9.193c-1.414-3.768-4.007-2.593-2.593,0c1.179,1.415,2.593,2.596,5.184,2.596    c1.417,0,2.593-1.181,2.593-6.363c0-1.417-1.176-1.417-1.176,0c0,1.175,3.767,1.175,5.18,1.175c2.593,1.415,9.193,1.415,10.374,0    c1.41,0,1.41,4.008,1.41,4.008c0,1.181-1.41,2.594-1.41,3.774c-1.181,2.824-2.596,1.413-4.009,0c0-2.594-2.594-2.594-3.772-2.594    c-2.593,0-5.181,0-9.191,0"/>
	</g>
	<g id="g1868" transform="matrix(1.00015, 0, 0, 1, 0.021783, 6.39489e-14)">
		<path id="_x32_1311856" fill="none" stroke="#FAC800" stroke-width="2.0872" stroke-linecap="round" stroke-linejoin="round" d="    M745.336,645.846c1.18,0,3.772-1.181,5.185,0c1.179,0,4.008-1.181,4.008-2.596c0-3.768-6.601-3.768-4.008,2.596"/>
	</g>
	<g id="g1871" transform="matrix(1.00015, 0, 0, 1, 0.021783, 6.39489e-14)">
		<path id="_x32_1311944" fill="none" stroke="#FAC800" stroke-width="2.0872" stroke-linecap="round" stroke-linejoin="round" d="    M763.487,630.293c1.413,5.184,1.413,11.779,0,14.372c-1.181,1.181-3.774,1.181-3.774,0c1.179-1.415,3.774-2.593,5.187-1.415    c0,1.415,1.176,2.596,4.005,1.415c2.591,0,3.77,0,3.77-6.6c0-1.409-3.77-1.409,0,1.417"/>
	</g>
	<g id="g1874" transform="matrix(1.00015, 0, 0, 1, 0.021783, 6.39489e-14)">
		<path id="_x32_1312032" fill="none" stroke="#FAC800" stroke-width="2.0872" stroke-linecap="round" stroke-linejoin="round" d="    M776.684,649.853c2.591-2.594,5.185-7.78,3.768-10.37c-2.591-2.826-3.768-2.826-3.768,0c0,1.175,1.177,2.59,3.768,3.768"/>
	</g>
	<g id="g1877" transform="matrix(1.00015, 0, 0, 1, 0.021783, 6.39489e-14)">
		<path id="_x32_1312120" fill="none" stroke="#FAC800" stroke-width="2.0872" stroke-linecap="round" stroke-linejoin="round" d="    M785.874,647.259c3.768-1.413,3.768-4.009,3.768-6.602c0-2.592-1.177-4.001-2.593-2.592c-2.589,1.417-2.589,4.007,0,4.007    c5.189,0,14.382-1.415,20.977-5.416"/>
	</g>
	<g id="g1880" transform="matrix(1.00015, 0, 0, 1, 0.021783, 6.39489e-14)">
		<path id="_x32_1312208" fill="none" stroke="#FAC800" stroke-width="2.0872" stroke-linecap="round" stroke-linejoin="round" d="    M795.064,640.657c0-2.592,1.179-5.181,3.772-5.181c1.414-1.415,5.184,0,5.184,2.589c1.415,2.592-1.177,5.185-3.77,4.007    c-1.414-2.59-2.592-9.191-4.007-14.375"/>
	</g>
	<g id="g1883" transform="matrix(1.00015, 0, 0, 1, 0.021783, 6.39489e-14)">
		<path id="_x32_1312296" fill="none" stroke="#FAC800" stroke-width="2.0872" stroke-linecap="round" stroke-linejoin="round" d="    M815.805,634.062c-2.591-2.592-9.194,0-7.779,2.595C809.44,640.657,817.216,638.065,815.805,634.062z"/>
	</g>
	<g id="g1886" transform="matrix(1.00015, 0, 0, 1, 0.021783, 6.39489e-14)">
		<path id="_x32_1312384" fill="none" stroke="#FAC800" stroke-width="2.0872" stroke-linecap="round" stroke-linejoin="round" d="    M815.805,635.477c0,0,2.592-1.415,4.007-2.596"/>
	</g>
	<g id="g1889" transform="matrix(1.00015, 0, 0, 1, 0.021783, 6.39489e-14)">
		<path id="_x32_1312472" fill="none" stroke="#FAC800" stroke-width="2.0872" stroke-linecap="round" stroke-linejoin="round" d="    M809.44,621.102c2.593-2.596,7.776-2.596,7.776,2.59c0,9.189,3.775,12.965,9.194,9.189c0-1.411,0-2.588-1.413,0"/>
	</g>
	<g id="g1892" transform="matrix(1.00015, 0, 0, 1, 0.021783, 6.39489e-14)">
		<path id="_x32_1312560" fill="none" stroke="#FAC800" stroke-width="2.0872" stroke-linecap="round" stroke-linejoin="round" d="    M695.609,636.656h2.593"/>
	</g>
	<g id="g1895" transform="matrix(1.00015, 0, 0, 1, 0.021783, 6.39489e-14)">
		<path id="_x32_1312648" fill="none" stroke="#FAC800" stroke-width="2.0872" stroke-linecap="round" stroke-linejoin="round" d="    M704.798,638.065h1.18"/>
	</g>
	
		<path id="_x32_1312736" fill="#FFFFFF" stroke="#FAC800" stroke-width="2.0872" stroke-linecap="round" stroke-linejoin="round" d="   M742.785,508.857l112.525,104.46l-8.011-189.716c-1.177-28.752-26.163-22.155-44.313-11.784   c-18.387,11.784-39.362,11.784-61.523,4.004c-22.156,7.78-43.134,7.78-61.521-4.004c-18.148-10.371-43.132-16.969-44.312,11.784   l-8.016,189.716L742.785,508.857z"/>
	<g id="g1902" transform="matrix(1.00015, 0, 0, 1, 0.021783, 6.39489e-14)">
		<path id="_x32_1312912" fill="#FFFFFF" stroke="#FAC800" stroke-width="1.9531" stroke-linecap="square" d="M759.713,422.422    c6.362,3.773,12.962,3.773,16.971,3.773c-13.197-9.194-16.971-33.938-15.792-44.311c2.595-20.976-2.589-32.756-15.556-35.351    c-2.592,0-4.007-1.413-9.191-1.413c-4.006-1.177-6.995,2.592-8.412,5.183c-4.006-2.591-7.377-1.175-11.147-3.77    c-4.01-1.413-10.607,0-10.607,9.19l2.563-1.075c1.175,0.181,3.346,1.455,5.979,2.905c3.409,2.687,8.428,4.534,9.842,13.726    c2.591,19.562,0,37.945-18.383,54.916c4.006,0,10.607,0,16.969-3.773c-2.592,3.773-3.771,5.185-6.362,7.776    c7.776-1.414,14.377-4.003,18.146-10.369c1.413,2.592,5.185,6.365,6.598,8.955c1.415-2.59,5.186-6.363,6.599-8.955    c3.771,6.365,10.374,8.955,18.147,10.369C763.486,427.607,762.306,426.195,759.713,422.422z"/>
	</g>
	<g id="g1907" transform="matrix(1.00015, 0, 0, 1, 0.021783, 6.39489e-14)">
		<path id="_x32_1313000" fill="none" stroke="#FAC800" stroke-width="2.0872" stroke-linecap="round" stroke-linejoin="round" d="    M753.112,397.441c0,10.606,3.416,18.38,7.421,26.16"/>
	</g>
	<g id="g1910" transform="matrix(1.00015, 0, 0, 1, 0.021783, 6.39489e-14)">
		<path id="_x32_1313088" fill="none" stroke="#FAC800" stroke-width="2.0872" stroke-linecap="round" stroke-linejoin="round" d="    M747.928,419.83c-2.592-4.009-4.003-11.783-4.003-22.389"/>
	</g>
	<g id="g1913" transform="matrix(1.00015, 0, 0, 1, 0.021783, 6.39489e-14)">
		<path id="_x32_1313176" fill="none" stroke="#FAC800" stroke-width="2.0872" stroke-linecap="round" stroke-linejoin="round" d="    M729.546,397.441c0,10.606-3.412,18.38-7.417,26.16"/>
	</g>
	<g id="g1916" transform="matrix(1.00015, 0, 0, 1, 0.021783, 6.39489e-14)">
		<path id="_x32_1313264" fill="none" stroke="#FAC800" stroke-width="2.0872" stroke-linecap="round" stroke-linejoin="round" d="    M734.731,419.83c2.591-4.009,4.003-11.783,4.003-22.389"/>
	</g>
	
		<path id="_x32_1313352" fill="#FAC800" stroke="#FAC800" stroke-width="0.9766" stroke-linecap="round" stroke-linejoin="round" d="   M706.959,354.492c2.766,0.181,3.979,1.139,7.689,3.062c2.596,1.417,8.429,4.534,9.844,12.548c-1.415-4.007,1.176-8.015,4.009-6.598   C724.493,354.311,712.144,351.9,706.959,354.492z"/>
	<g id="g1920" transform="matrix(1.00015, 0, 0, 1, 0.021783, 6.39489e-14)">
		<path id="_x32_1313440" fill="#FAC800" stroke="#FAC800" stroke-width="1.7643" stroke-linecap="square" d="M746.515,529.651    l15.791,71.889l-5.187,5.184l-5.42-4.007l-8.956-64.106l3.771,64.106l-5.186,6.598l-5.185-6.598l3.772-64.106l-8.954,64.106    l-5.425,4.007l-5.182-5.184l15.789-71.889H746.515z"/>
	</g>
	<g id="g1925" transform="matrix(1.00015, 0, 0, 1, 0.021783, 6.39489e-14)">
		<path id="_x32_1313528" fill="#FAC800" d="M648.472,417.001l-7.777,184.539l-13.199,11.777l8.014-189.716    C639.28,421.008,645.881,417.001,648.472,417.001z"/>
	</g>
	<g id="g1930" transform="matrix(1.00015, 0, 0, 1, 0.021783, 6.39489e-14)">
		<path id="_x32_1313616" fill="#FAC800" d="M664.261,430.199l-6.599,154.368l-13.195,13.506l8.012-178.242    C655.073,422.422,662.851,428.785,664.261,430.199z"/>
	</g>
	<g id="g1935" transform="matrix(1.00015, 0, 0, 1, 0.021783, 6.39489e-14)">
		<path id="_x32_1313704" fill="#FAC800" d="M678.638,441.983l-5.182,128.749l-10.605,10.366l6.6-146.892    C672.038,436.799,677.223,440.57,678.638,441.983z"/>
	</g>
	<g id="g1940" transform="matrix(1.00015, 0, 0, 1, 0.021783, 6.39489e-14)">
		<path id="_x32_1313792" fill="#FAC800" d="M694.194,448.582l-5.185,109.73l-10.371,8.411l5.185-122.146    C686.417,445.754,691.601,448.582,694.194,448.582z"/>
	</g>
	<g id="g1945" transform="matrix(1.00015, 0, 0, 1, 0.021783, 6.39489e-14)">
		<path id="_x32_1313880" fill="#FAC800" d="M708.572,448.582l-3.774,91.444l-10.603,10.372l4.007-100.636    C700.791,449.761,707.391,449.761,708.572,448.582z"/>
	</g>
	<g id="g1950" transform="matrix(1.00015, 0, 0, 1, 0.021783, 6.39489e-14)">
		<path id="_x32_1313968" fill="#FAC800" d="M834.188,417.001l7.773,184.539l13.197,11.777l-8.01-189.716    C843.378,421.008,836.779,417.001,834.188,417.001z"/>
	</g>
	<g id="g1955" transform="matrix(1.00015, 0, 0, 1, 0.021783, 6.39489e-14)">
		<path id="_x32_1314056" fill="#FAC800" d="M818.397,430.199l6.6,154.368l13.197,11.553l-8.011-176.289    C827.589,422.422,819.812,428.785,818.397,430.199z"/>
	</g>
	<path id="_x32_1314144" fill="#FAC800" d="M804.162,441.983l5.421,128.749l10.374,8.413l-6.6-144.938   C810.764,436.799,805.577,440.57,804.162,441.983z"/>
	<g id="g1961" transform="matrix(1.00015, 0, 0, 1, 0.021783, 6.39489e-14)">
		<path id="_x32_1314232" fill="#FAC800" d="M788.465,448.582l5.186,107.777l10.369,8.411l-5.184-120.192    C796.242,445.754,791.058,448.582,788.465,448.582z"/>
	</g>
	<g id="g1966" transform="matrix(1.00015, 0, 0, 1, 0.021783, 6.39489e-14)">
		<path id="_x32_1314320" fill="#FAC800" d="M774.09,448.582l3.77,91.444l10.605,10.372l-4.006-100.636    C781.868,449.761,775.266,449.761,774.09,448.582z"/>
	</g>
	<g id="g1971" transform="matrix(1.00015, 0, 0, 1, 0.021783, 6.39489e-14)">
		
			<path id="_x32_1314408" fill="#FFFFFF" stroke="#FAC800" stroke-width="1.9531" stroke-linecap="round" stroke-linejoin="round" d="    M705.978,498.076l-31.343,111.239l43.13,6.601l18.379-83.667L705.978,498.076z"/>
	</g>
	<g id="g1976" transform="matrix(1.00015, 0, 0, 1, 0.021783, 6.39489e-14)">
		
			<path id="_x32_1314496" fill="#FFFFFF" stroke="#FAC800" stroke-width="1.9531" stroke-linecap="round" stroke-linejoin="round" d="    M776.683,498.076l31.342,111.239l-43.126,6.601l-18.384-83.667L776.683,498.076z"/>
	</g>
	<g id="g1981" transform="matrix(1.00015, 0, 0, 1, 0.021783, 6.39489e-14)">
		<path id="_x32_1314584" fill="none" stroke="#FAC800" stroke-width="2.0872" stroke-linecap="round" stroke-linejoin="round" d="    M695.608,536.021l3.771,9.189l11.785-12.962"/>
	</g>
	<g id="g1984" transform="matrix(1.00015, 0, 0, 1, 0.021783, 6.39489e-14)">
		<path id="_x32_1314672" fill="none" stroke="#FAC800" stroke-width="2.0872" stroke-linecap="round" stroke-linejoin="round" d="    M709.983,516.459l4.007,36.529l12.962-16.968"/>
	</g>
	<g id="g1987" transform="matrix(1.00015, 0, 0, 1, 0.021783, 6.39489e-14)">
		<path id="_x32_1314760" fill="none" stroke="#FAC800" stroke-width="2.0872" stroke-linecap="round" stroke-linejoin="round" d="    M721.768,542.618l7.777,19.562"/>
	</g>
	<g id="g1990" transform="matrix(1.00015, 0, 0, 1, 0.021783, 6.39489e-14)">
		<path id="_x32_1314848" fill="none" stroke="#FAC800" stroke-width="2.0872" stroke-linecap="round" stroke-linejoin="round" d="    M728.37,567.363l-10.605,10.605l-6.6-20.974l-6.367,11.784l-5.418-12.965l-11.55,10.372"/>
	</g>
	<g id="g1993" transform="matrix(1.00015, 0, 0, 1, 0.021783, 6.39489e-14)">
		<path id="_x32_1314936" fill="none" stroke="#FAC800" stroke-width="2.0872" stroke-linecap="round" stroke-linejoin="round" d="    M685.001,571.367l8.012,19.563l9.193-11.785l5.184,15.793l10.373-13.195l4.004,19.797"/>
	</g>
	<g id="g1996" transform="matrix(1.00015, 0, 0, 1, 0.021783, 6.39489e-14)">
		<path id="_x32_1315024" fill="none" stroke="#FAC800" stroke-width="2.0872" stroke-linecap="round" stroke-linejoin="round" d="    M683.823,606.724l7.777-10.604l6.601,17.198l7.777-13.197l5.187,15.795l8.011-6.601"/>
	</g>
	<g id="g1999" transform="matrix(1.00015, 0, 0, 1, 0.021783, 6.39489e-14)">
		<path id="_x32_1315112" fill="none" stroke="#FAC800" stroke-width="2.0872" stroke-linecap="round" stroke-linejoin="round" d="    M787.048,536.021l-3.768,9.189l-11.784-12.962"/>
	</g>
	<g id="g2002" transform="matrix(1.00015, 0, 0, 1, 0.021783, 6.39489e-14)">
		<path id="_x32_1315200" fill="none" stroke="#FAC800" stroke-width="2.0872" stroke-linecap="round" stroke-linejoin="round" d="    M772.674,516.459l-3.77,36.529l-13.197-16.968"/>
	</g>
	<g id="g2005" transform="matrix(1.00015, 0, 0, 1, 0.021783, 6.39489e-14)">
		<path id="_x32_1315288" fill="none" stroke="#FAC800" stroke-width="2.0872" stroke-linecap="round" stroke-linejoin="round" d="    M760.89,542.618l-7.779,19.562"/>
	</g>
	<g id="g2008" transform="matrix(1.00015, 0, 0, 1, 0.021783, 6.39489e-14)">
		<path id="_x32_1315376" fill="none" stroke="#FAC800" stroke-width="2.0872" stroke-linecap="round" stroke-linejoin="round" d="    M754.528,567.363l10.37,10.605l5.184-20.974l7.777,11.784l5.42-12.965l11.783,10.372"/>
	</g>
	<g id="g2011" transform="matrix(1.00015, 0, 0, 1, 0.021783, 6.39489e-14)">
		<path id="_x32_1315464" fill="none" stroke="#FAC800" stroke-width="2.0872" stroke-linecap="round" stroke-linejoin="round" d="    M797.656,571.367l-8.015,19.563l-9.19-11.785l-5.185,15.793l-10.368-13.195l-4.008,19.797"/>
	</g>
	<g id="g2014" transform="matrix(1.00015, 0, 0, 1, 0.021783, 6.39489e-14)">
		<path id="_x32_1315552" fill="none" stroke="#FAC800" stroke-width="2.0872" stroke-linecap="round" stroke-linejoin="round" d="    M798.835,606.724l-7.777-10.604l-6.6,17.198l-7.775-13.197l-5.188,15.795l-8.01-6.601"/>
	</g>
	<g id="g2017" transform="matrix(1.00015, 0, 0, 1, 0.021783, 6.39489e-14)">
		
			<path id="_x32_1315640" fill="#FFFFFF" stroke="#FAC800" stroke-width="1.4648" stroke-linecap="round" stroke-linejoin="round" d="    M741.328,434.207c13.2,10.37,30.167,15.554,49.73,14.375c-1.417,45.724-14.375,77.067-49.73,100.639    c-35.351-23.572-48.315-54.915-49.728-100.639C711.164,449.761,728.369,444.577,741.328,434.207z"/>
	</g>
	<g id="g2022" transform="matrix(1.00015, 0, 0, 1, 0.021783, 6.39489e-14)">
		
			<path id="_x32_1315728" fill="#FAC800" stroke="#FAC800" stroke-width="1.9531" stroke-linecap="round" stroke-linejoin="round" d="    M741.328,544.031c27.576-18.383,43.13-49.726,44.545-91.679c-16.969,0-34.174-3.771-44.545-12.961    c-11.783,9.19-27.338,12.961-45.72,12.961C698.2,494.306,713.99,525.648,741.328,544.031z"/>
	</g>
	<g id="g2027" transform="matrix(1.00015, 0, 0, 1, 0.021783, 6.39489e-14)">
		
			<path id="_x32_1315816" fill="#FFFFFF" stroke="#FAC800" stroke-width="2.0872" stroke-linecap="round" stroke-linejoin="round" d="    M696.787,609.314c10.603,1.415,22.388,2.592,31.582,1.415c5.18,0,8.952,8.955-1.417,10.372c-9.188,1.175-23.566,0-31.344-1.417    c-6.599-1.179-20.974-3.77-30.168-6.367c-9.191-4.003-2.589-11.777,2.591-10.601C676.046,605.307,686.417,607.902,696.787,609.314    z"/>
	</g>
	<g id="g2032" transform="matrix(1.00015, 0, 0, 1, 0.021783, 6.39489e-14)">
		
			<path id="_x32_1315904" fill="#FFFFFF" stroke="#FAC800" stroke-width="2.0872" stroke-linecap="round" stroke-linejoin="round" d="    M785.873,609.314c-10.607,1.415-22.387,2.592-31.345,1.415c-5.422,0-9.193,8.955,1.178,10.372c9.192,1.175,23.568,0,31.341-1.417    c6.602-1.179,20.977-3.77,30.167-6.367c9.194-4.003,2.596-11.777-2.591-10.601C806.61,605.307,796.241,607.902,785.873,609.314z"/>
	</g>
	
		<path id="_x32_1315992" fill="#FFFFFF" stroke="#FAC800" stroke-width="2.0872" stroke-linecap="round" stroke-linejoin="round" d="   M664.382,604.132c-8.013-1.415-11.784,7.774-9.189,12.958c1.177-2.592,6.599-2.592,7.779-5.184   C664.382,607.902,661.792,607.902,664.382,604.132z"/>
	<g id="g2041" transform="matrix(1.00015, 0, 0, 1, 0.021783, 6.39489e-14)">
		
			<path id="_x32_1316168" fill="#FFFFFF" stroke="#FAC800" stroke-width="2.0872" stroke-linecap="round" stroke-linejoin="round" d="    M695.607,628.234c0-5.18,5.182-4.543,5.182-9.729c0-2.591-1.411-6.6-4.003-6.6c-2.593,0-5.187,2.592-5.187,5.184    C690.42,622.276,695.607,623.055,695.607,628.234z"/>
	</g>
	<g id="g2046" transform="matrix(1.00015, 0, 0, 1, 0.021783, 6.39489e-14)">
		
			<path id="_x32_1316256" fill="#FFFFFF" stroke="#FAC800" stroke-width="2.0872" stroke-linecap="round" stroke-linejoin="round" d="    M732.914,613.317c7.771,0,7.001,10.374,3.229,15.559c0-3.771-6.598-5.185-6.598-7.774    C729.545,617.09,735.502,617.09,732.914,613.317z"/>
	</g>
	
		<path id="_x32_1316344" fill="#FFFFFF" stroke="#FAC800" stroke-width="2.0872" stroke-linecap="round" stroke-linejoin="round" d="   M818.541,604.132c8.014-1.415,11.787,7.774,9.193,12.958c-1.18-2.592-6.6-2.592-7.778-5.184   C818.541,607.902,821.135,607.902,818.541,604.132z"/>
	<g id="g2055" transform="matrix(1.00015, 0, 0, 1, 0.021783, 6.39489e-14)">
		
			<path id="_x32_1316520" fill="#FFFFFF" stroke="#FAC800" stroke-width="2.0872" stroke-linecap="round" stroke-linejoin="round" d="    M787.047,628.234c0-5.18-5.18-4.543-5.18-9.729c0-2.591,1.412-6.6,4.005-6.6c2.591,0,5.185,2.592,5.185,5.184    C792.236,622.276,787.047,623.055,787.047,628.234z"/>
	</g>
	<g id="g2060" transform="matrix(1.00015, 0, 0, 1, 0.021783, 6.39489e-14)">
		
			<path id="_x32_1316608" fill="#FFFFFF" stroke="#FAC800" stroke-width="2.0872" stroke-linecap="round" stroke-linejoin="round" d="    M749.745,613.317c-7.774,0-7.003,10.374-3.232,15.559c0-3.771,6.597-5.185,6.597-7.774    C753.111,617.09,747.153,617.09,749.745,613.317z"/>
	</g>
	
		<path id="_x32_1316696" fill="#FFFFFF" stroke="#FAC800" stroke-width="1.4648" stroke-linecap="round" stroke-linejoin="round" d="   M666.977,606.724c2.596,0,6.601,1.179,7.78,2.591L666.977,606.724z"/>
	
		<path id="_x32_1316872" fill="#FFFFFF" stroke="#FAC800" stroke-width="1.4648" stroke-linecap="round" stroke-linejoin="round" d="   M679.94,610.729c1.416,0,6.602,1.177,9.194,2.588L679.94,610.729z"/>
	
		<path id="_x32_1317048" fill="#FFFFFF" stroke="#FAC800" stroke-width="1.4648" stroke-linecap="round" stroke-linejoin="round" d="   M727.083,615.915c-2.592,0-7.778,0-9.189,1.175L727.083,615.915z"/>
	
		<path id="_x32_1317224" fill="#FFFFFF" stroke="#FAC800" stroke-width="1.4648" stroke-linecap="round" stroke-linejoin="round" d="   M712.704,615.915c-1.411-1.417-6.599-1.417-9.19,0H712.704z"/>
	
		<path id="_x32_1317312" fill="#FFFFFF" stroke="#FAC800" stroke-width="1.4648" stroke-linecap="round" stroke-linejoin="round" d="   M815.949,606.724c-2.592,0-6.366,1.179-7.78,2.591L815.949,606.724z"/>
	
		<path id="_x32_1317488" fill="#FFFFFF" stroke="#FAC800" stroke-width="1.4648" stroke-linecap="round" stroke-linejoin="round" d="   M802.985,610.729c-1.413,0-6.6,1.177-9.193,2.588L802.985,610.729z"/>
	
		<path id="_x32_1317664" fill="#FFFFFF" stroke="#FAC800" stroke-width="1.4648" stroke-linecap="round" stroke-linejoin="round" d="   M755.842,615.915c2.595,0,7.78,0,9.193,1.175L755.842,615.915z"/>
	
		<path id="_x32_1317840" fill="#FFFFFF" stroke="#FAC800" stroke-width="1.4648" stroke-linecap="round" stroke-linejoin="round" d="   M770.22,615.915c1.413-1.417,6.602-1.417,9.193,0H770.22z"/>
	
		<path id="_x32_1318016" fill="#FAC800" stroke="#FAC800" stroke-width="0.9766" stroke-linecap="round" stroke-linejoin="round" d="   M759.848,358.32c-2.594-6.602-7.264-11.811-13.628-12.989c-3.283-0.994-6.668-0.708-10.441-0.708   c-4.007-1.177-7.278,3.089-8.696,5.68c4.01,2.831,4.906,5.709,6.965,6.6c4.002,1.417,6.002-0.002,10.01-3.769   C748.061,349.129,757.254,350.304,759.848,358.32z"/>
	
		<path id="_x32_1318104" fill="#FFFFFF" stroke="#FFFFFF" stroke-width="2.0872" stroke-linecap="round" stroke-linejoin="round" d="   M734.863,348.189c-2.594,0-2.594,4.006,0,4.006C737.454,352.196,737.454,348.189,734.863,348.189z"/>
	<path id="_x32_1318280" fill="#FFFFFF" d="M757.493,448.11v82.255c-4.715,5.184-10.137,9.66-16.031,13.666   c-5.893-4.006-11.313-8.482-16.028-13.666v-82.49c5.893-2.121,11.312-4.949,16.028-8.484   C745.94,443.161,751.362,445.99,757.493,448.11z"/>
</g>
</svg>