<?xml version="1.0" encoding="UTF-8" standalone="no"?>
<!-- Created with Inkscape (http://www.inkscape.org/) -->
<svg xmlns:svg="http://www.w3.org/2000/svg" xmlns="http://www.w3.org/2000/svg" version="1.0" width="799.99988" height="400" id="svg607">
  <defs id="defs609"/>
  <rect width="800" height="133.33328" x="0" y="0" style="fill: rgb(0, 0, 0);" id="rect611"/>
  <rect width="800" height="133.33328" x="0" y="266.66663" style="fill: rgb(0, 128, 0);" id="rect612"/>
  <rect width="800" height="133.33328" x="0" y="133.3333" style="fill: rgb(255, 255, 255);" id="rect643"/>
  <path d="M 0.012587301,0.00011474121 L 266.66659,200.48259 L 0,399.99998 L 0.0012539682,2.0483347 L 0.012587301,0.00011474121 z " style="fill: rgb(204, 0, 0);" id="path615"/>
  <circle cx="120" cy="120" r="60" transform="matrix(0.886243, 0, 0, 0.886243, 293.651, 93.6508)" style="fill: rgb(204, 0, 0); fill-opacity: 1;" id="circle1456"/>
  <circle cx="120" cy="120" r="60" transform="matrix(0.886243, 0, 0, 0.886243, 313.968, 93.6508)" style="fill: rgb(255, 255, 255); fill-opacity: 1;" id="circle3256"/>
  <path d="M 385.68392,232.29387 L 408.42569,216.03689 L 430.98964,232.53968 L 422.55595,205.8873 L 445.22369,189.52732 L 417.26961,189.31224 L 408.71507,162.69843 L 399.8722,189.21786 L 371.91746,189.12962 L 394.40638,205.73459 L 385.68392,232.29387 z " style="fill: rgb(204, 0, 0); fill-opacity: 1;" id="path3258"/>
</svg>