<svg id="svg" version="1.1" xmlns="http://www.w3.org/2000/svg"
    xmlns:xlink="http://www.w3.org/1999/xlink" width="800" height="486" viewBox="0, 0, 800,486">
    <!-- viewBox="0, 0, 400,243" -->
    <g id="svgg" transform="scale(2, 2)">
        <path id="path0"
            d="M202.662 18.058 C 202.538 18.185,198.188 18.618,194.057 18.913 C 180.374 19.891,173.900 22.412,165.500 30.034 C 156.096 38.567,151.676 49.108,152.499 61.042 C 153.118 70.023,155.006 76.402,157.762 78.821 C 159.051 79.953,159.191 78.771,159.130 67.250 C 159.075 56.756,158.998 57.142,162.241 51.667 C 163.481 49.573,164.367 47.876,165.495 45.436 C 167.169 41.811,168.967 39.673,171.250 38.591 C 173.774 37.395,173.854 37.603,172.153 40.936 C 171.504 42.209,170.754 43.682,170.487 44.210 C 170.220 44.738,169.560 46.576,169.021 48.294 C 167.792 52.209,167.766 52.269,166.376 54.448 C 163.261 59.332,163.343 58.907,163.165 71.083 C 162.984 83.504,163.141 83.052,158.455 84.620 C 154.861 85.822,154.410 86.340,154.533 89.134 C 154.719 93.383,157.402 95.371,167.851 99.001 C 174.560 101.332,175.974 102.211,178.534 105.647 C 183.030 111.680,188.472 113.529,201.750 113.536 C 213.828 113.542,217.678 112.283,222.782 106.657 C 226.314 102.764,227.399 102.052,232.417 100.333 C 242.351 96.931,246.188 94.039,246.464 89.745 L 246.544 88.500 245.814 87.776 C 245.236 87.202,244.701 86.905,243.250 86.352 C 237.244 84.061,237.249 84.067,237.252 78.833 C 237.254 75.259,237.353 74.310,238.178 69.957 C 238.938 65.949,238.872 66.019,240.500 67.499 L 241.583 68.484 241.694 72.534 C 241.878 79.299,242.130 79.999,244.063 79.114 C 246.936 77.799,247.992 75.265,248.732 67.907 C 250.703 48.334,248.787 40.768,239.511 31.488 C 231.519 23.494,221.937 19.158,211.167 18.663 C 207.785 18.507,205.201 18.308,203.500 18.072 C 203.088 18.015,202.711 18.008,202.662 18.058 M186.667 62.085 C 198.604 65.143,197.649 78.710,185.048 85.069 C 173.962 90.663,167.479 85.821,169.558 73.500 C 171.011 64.891,178.394 59.965,186.667 62.085 M221.917 61.897 C 228.679 63.738,232.521 69.755,232.571 78.583 C 232.611 85.645,223.619 90.192,217.000 86.458 C 209.454 82.201,204.833 74.126,207.069 69.105 C 209.022 64.722,217.382 60.663,221.917 61.897 M201.833 80.758 C 202.637 81.164,203.652 82.704,203.663 83.532 C 203.665 83.687,204.263 85.899,204.991 88.448 C 206.554 93.917,207.021 96.076,207.057 98.000 L 207.083 99.417 206.333 99.375 C 205.921 99.352,204.193 99.104,202.493 98.824 L 199.403 98.316 196.576 99.164 C 192.876 100.276,192.931 100.284,192.865 98.583 C 192.689 94.067,194.674 87.230,197.340 83.170 C 199.004 80.636,200.260 79.962,201.833 80.758 M168.209 108.208 C 167.883 108.619,167.825 109.685,167.996 112.115 C 168.091 113.473,168.318 117.321,168.499 120.667 C 169.024 130.374,169.000 130.302,173.249 134.924 C 174.509 136.295,176.187 138.233,176.978 139.231 C 182.688 146.434,184.098 147.217,192.961 148.110 C 197.680 148.586,211.164 148.007,213.500 147.229 C 217.566 145.874,222.657 141.312,226.867 135.250 C 229.189 131.906,229.857 130.297,230.153 127.333 C 230.249 126.371,230.443 124.407,230.584 122.970 C 230.761 121.172,231.048 119.538,231.503 117.738 C 232.313 114.534,232.667 112.407,232.667 110.733 L 232.667 109.462 231.875 109.574 C 225.258 110.506,223.556 112.378,221.760 120.705 C 218.970 133.641,215.250 136.562,201.583 136.552 C 186.082 136.540,178.976 132.208,177.982 122.167 C 177.386 116.150,176.636 113.832,174.520 111.468 C 172.749 109.490,168.808 107.454,168.209 108.208 M186.345 114.955 C 184.795 115.756,184.518 117.947,185.789 119.354 C 188.188 122.010,190.247 119.682,189.124 115.583 L 188.896 114.750 187.906 114.705 C 187.213 114.673,186.746 114.748,186.345 114.955 M210.826 115.272 C 210.280 116.926,210.882 120.714,211.723 120.925 C 212.907 121.222,213.562 119.897,213.575 117.183 L 213.583 115.282 212.750 114.987 C 211.404 114.511,211.060 114.562,210.826 115.272 M198.721 115.435 C 196.171 116.693,197.021 121.940,199.694 121.438 C 201.264 121.144,202.029 119.039,201.486 116.508 C 201.208 115.211,200.071 114.770,198.721 115.435 M192.515 115.769 C 192.104 116.291,191.863 117.094,191.744 118.333 C 191.695 118.837,191.623 119.564,191.583 119.947 L 191.509 120.645 192.400 120.844 C 193.401 121.068,195.279 120.839,195.538 120.461 C 195.840 120.022,195.579 117.749,195.119 116.809 C 194.422 115.383,193.201 114.896,192.515 115.769 M204.546 115.708 C 204.176 116.187,203.551 120.374,203.754 121.014 C 203.910 121.503,206.842 121.492,207.333 121.000 C 207.837 120.497,207.728 117.793,207.144 116.302 C 206.871 115.605,204.964 115.169,204.546 115.708 M103.374 125.508 C 99.740 126.155,98.128 128.071,98.000 131.899 C 97.934 133.872,97.865 134.410,97.667 134.519 C 97.529 134.595,96.854 134.918,96.167 135.238 C 91.848 137.245,90.432 141.260,93.174 143.725 C 95.869 146.148,101.580 146.632,107.417 144.931 C 108.730 144.548,108.761 144.547,109.500 144.844 C 110.865 145.392,120.096 149.136,131.250 153.667 C 137.300 156.124,144.762 159.147,147.833 160.384 C 150.904 161.622,155.817 163.608,158.750 164.798 C 161.683 165.988,167.646 168.402,172.000 170.162 C 180.837 173.736,183.853 174.988,184.051 175.165 C 184.258 175.350,181.489 176.475,135.611 194.848 L 109.804 205.182 108.361 204.777 C 103.157 203.319,99.198 203.382,96.059 204.972 C 91.189 207.440,92.680 213.533,98.513 215.000 L 99.276 215.192 99.263 217.471 C 99.205 227.568,111.902 226.605,115.660 216.228 C 116.168 214.827,111.174 216.956,156.833 198.671 C 167.329 194.468,181.167 188.917,187.583 186.336 C 197.786 182.231,199.337 181.651,199.943 181.715 C 200.692 181.795,203.034 182.729,238.250 196.998 C 242.375 198.670,248.675 201.221,252.250 202.667 C 263.875 207.371,283.401 215.296,284.038 215.569 C 284.766 215.880,285.018 216.229,285.485 217.570 C 289.256 228.410,303.503 227.775,301.813 216.842 C 301.757 216.482,301.869 216.383,302.752 216.009 C 311.694 212.213,309.409 205.184,299.083 204.718 C 296.772 204.614,294.583 204.923,292.922 205.587 C 291.441 206.180,290.498 205.932,284.500 203.377 C 282.896 202.693,277.871 200.645,273.333 198.825 C 268.796 197.005,262.383 194.418,259.083 193.075 C 255.783 191.733,249.596 189.223,245.333 187.497 C 241.071 185.770,234.508 183.111,230.750 181.586 C 226.992 180.062,222.021 178.054,219.705 177.125 C 216.174 175.708,215.529 175.399,215.718 175.211 C 215.998 174.930,218.006 174.118,258.317 157.966 L 291.217 144.783 293.400 145.302 C 300.708 147.041,306.119 145.954,307.774 142.417 C 309.114 139.551,306.750 136.035,302.766 134.969 L 302.060 134.780 302.072 132.265 C 302.085 129.324,301.969 128.983,300.466 127.561 C 295.970 123.310,288.046 126.476,285.768 133.434 C 285.256 134.998,288.289 133.638,260.417 144.802 C 248.042 149.758,230.229 156.903,220.833 160.679 C 198.417 169.687,199.929 169.178,198.028 168.348 C 197.417 168.081,194.217 166.777,190.917 165.450 C 187.617 164.124,182.704 162.138,180.000 161.039 C 175.371 159.156,167.841 156.106,152.750 150.001 C 115.817 135.059,115.297 134.847,115.061 134.608 C 114.958 134.503,114.742 134.004,114.582 133.500 C 112.933 128.290,107.901 124.702,103.374 125.508 M185.765 128.290 C 185.131 128.924,185.979 131.479,186.996 131.998 C 189.030 133.036,190.279 131.598,188.863 129.846 C 188.173 128.992,186.103 127.952,185.765 128.290 M192.450 128.616 C 191.592 128.839,193.073 133.178,194.096 133.435 C 195.860 133.877,196.961 129.317,195.247 128.666 C 194.813 128.500,193.019 128.469,192.450 128.616 M209.051 128.835 C 208.077 129.227,207.829 130.937,208.491 132.693 C 209.108 134.332,209.350 134.330,210.885 132.672 C 212.399 131.037,212.323 129.940,210.639 129.101 C 209.695 128.630,209.599 128.614,209.051 128.835 M199.679 129.625 C 197.414 130.780,198.320 134.550,200.752 134.094 C 202.272 133.809,203.513 131.437,202.820 130.142 C 202.412 129.380,200.708 129.100,199.679 129.625 "
            stroke="none" fill="#ffffff" fill-rule="evenodd"></path>
        <path id="path1"
            d="M0.000 121.500 L 0.000 243.000 200.000 243.000 L 400.000 243.000 400.000 121.500 L 400.000 0.000 200.000 0.000 L 0.000 0.000 0.000 121.500 M205.917 18.337 C 206.833 18.426,209.196 18.572,211.167 18.663 C 221.937 19.158,231.519 23.494,239.511 31.488 C 248.787 40.768,250.703 48.334,248.732 67.907 C 247.992 75.265,246.936 77.799,244.063 79.114 C 242.130 79.999,241.878 79.299,241.694 72.534 L 241.583 68.484 240.500 67.499 C 238.872 66.019,238.938 65.949,238.178 69.957 C 237.353 74.310,237.254 75.259,237.252 78.833 C 237.249 84.067,237.244 84.061,243.250 86.352 C 244.701 86.905,245.236 87.202,245.814 87.776 L 246.544 88.500 246.464 89.745 C 246.188 94.039,242.351 96.931,232.417 100.333 C 227.399 102.052,226.314 102.764,222.782 106.657 C 217.678 112.283,213.828 113.542,201.750 113.536 C 188.472 113.529,183.030 111.680,178.534 105.647 C 175.974 102.211,174.560 101.332,167.851 99.001 C 157.402 95.371,154.719 93.383,154.533 89.134 C 154.410 86.340,154.861 85.822,158.455 84.620 C 163.141 83.052,162.984 83.504,163.165 71.083 C 163.343 58.907,163.261 59.332,166.376 54.448 C 167.766 52.269,167.792 52.209,169.021 48.294 C 169.560 46.576,170.220 44.738,170.487 44.210 C 170.754 43.682,171.504 42.209,172.153 40.936 C 173.854 37.603,173.774 37.395,171.250 38.591 C 168.967 39.673,167.169 41.811,165.495 45.436 C 164.367 47.876,163.481 49.573,162.241 51.667 C 158.998 57.142,159.075 56.756,159.130 67.250 C 159.191 78.771,159.051 79.953,157.762 78.821 C 155.006 76.402,153.118 70.023,152.499 61.042 C 151.676 49.108,156.096 38.567,165.500 30.034 C 173.900 22.412,180.374 19.891,194.057 18.913 C 198.188 18.618,202.538 18.185,202.662 18.058 C 202.711 18.008,203.088 18.015,203.500 18.072 C 203.912 18.129,205.000 18.249,205.917 18.337 M180.000 61.893 C 174.223 63.280,170.604 67.304,169.558 73.500 C 167.479 85.821,173.962 90.663,185.048 85.069 C 196.303 79.389,198.668 67.613,189.444 63.177 C 186.652 61.834,182.560 61.278,180.000 61.893 M216.279 62.337 C 206.498 65.587,203.961 71.529,209.091 79.167 C 213.546 85.799,220.087 89.085,225.253 87.287 C 232.173 84.878,234.030 80.369,231.581 71.923 C 230.164 67.039,227.801 64.170,223.890 62.586 C 220.984 61.409,219.241 61.352,216.279 62.337 M200.083 80.514 C 196.857 81.435,192.611 92.062,192.865 98.583 C 192.931 100.284,192.876 100.276,196.576 99.164 L 199.403 98.316 202.493 98.824 C 204.193 99.104,205.921 99.352,206.333 99.375 L 207.083 99.417 207.057 98.000 C 207.021 96.076,206.554 93.917,204.991 88.448 C 204.263 85.899,203.665 83.687,203.663 83.532 C 203.641 81.849,201.558 80.094,200.083 80.514 M170.365 108.564 C 175.387 110.756,177.166 113.934,177.982 122.167 C 178.976 132.208,186.082 136.540,201.583 136.552 C 215.250 136.562,218.970 133.641,221.760 120.705 C 223.556 112.378,225.258 110.506,231.875 109.574 L 232.667 109.462 232.667 110.733 C 232.667 112.407,232.313 114.534,231.503 117.738 C 231.048 119.538,230.761 121.172,230.584 122.970 C 230.443 124.407,230.249 126.371,230.153 127.333 C 229.484 134.033,220.349 144.947,213.500 147.229 C 211.164 148.007,197.680 148.586,192.961 148.110 C 184.098 147.217,182.688 146.434,176.978 139.231 C 176.187 138.233,174.509 136.295,173.249 134.924 C 169.000 130.302,169.024 130.374,168.499 120.667 C 168.318 117.321,168.091 113.473,167.996 112.115 C 167.693 107.814,167.908 107.491,170.365 108.564 M189.124 115.583 C 190.247 119.682,188.188 122.010,185.789 119.354 C 183.981 117.353,185.242 114.583,187.906 114.705 L 188.896 114.750 189.124 115.583 M212.750 114.987 L 213.583 115.282 213.575 117.183 C 213.552 122.101,210.905 122.606,210.703 117.730 C 210.576 114.673,210.845 114.314,212.750 114.987 M200.949 115.416 C 201.970 116.131,201.864 119.775,200.792 120.823 C 198.834 122.737,196.356 119.898,197.408 116.947 C 197.934 115.472,199.847 114.645,200.949 115.416 M194.190 115.624 C 195.189 116.214,196.132 119.597,195.538 120.461 C 195.279 120.839,193.401 121.068,192.400 120.844 L 191.509 120.645 191.583 119.947 C 191.623 119.564,191.695 118.837,191.744 118.333 C 191.990 115.768,192.840 114.826,194.190 115.624 M206.459 115.677 C 207.489 116.037,208.167 120.166,207.333 121.000 C 206.842 121.492,203.910 121.503,203.754 121.014 C 203.651 120.689,204.077 116.778,204.276 116.222 C 204.544 115.472,205.318 115.280,206.459 115.677 M107.256 125.777 C 110.564 126.900,113.459 129.952,114.582 133.500 C 114.742 134.004,114.958 134.503,115.061 134.608 C 115.297 134.847,115.817 135.059,152.750 150.001 C 167.841 156.106,175.371 159.156,180.000 161.039 C 182.704 162.138,187.617 164.124,190.917 165.450 C 194.217 166.777,197.417 168.081,198.028 168.348 C 199.929 169.178,198.417 169.687,220.833 160.679 C 230.229 156.903,248.042 149.758,260.417 144.802 C 288.289 133.638,285.256 134.998,285.768 133.434 C 288.046 126.476,295.970 123.310,300.466 127.561 C 301.969 128.983,302.085 129.324,302.072 132.265 L 302.060 134.780 302.766 134.969 C 306.750 136.035,309.114 139.551,307.774 142.417 C 306.119 145.954,300.708 147.041,293.400 145.302 L 291.217 144.783 258.317 157.966 C 218.006 174.118,215.998 174.930,215.718 175.211 C 215.529 175.399,216.174 175.708,219.705 177.125 C 222.021 178.054,226.992 180.062,230.750 181.586 C 234.508 183.111,241.071 185.770,245.333 187.497 C 249.596 189.223,255.783 191.733,259.083 193.075 C 262.383 194.418,268.796 197.005,273.333 198.825 C 277.871 200.645,282.896 202.693,284.500 203.377 C 290.498 205.932,291.441 206.180,292.922 205.587 C 294.583 204.923,296.772 204.614,299.083 204.718 C 309.409 205.184,311.694 212.213,302.752 216.009 C 301.869 216.383,301.757 216.482,301.813 216.842 C 302.538 221.530,300.509 224.674,296.325 225.348 C 292.095 226.029,287.208 222.522,285.485 217.570 C 285.018 216.229,284.766 215.880,284.038 215.569 C 283.401 215.296,263.875 207.371,252.250 202.667 C 248.675 201.221,242.375 198.670,238.250 196.998 C 203.034 182.729,200.692 181.795,199.943 181.715 C 199.337 181.651,197.786 182.231,187.583 186.336 C 181.167 188.917,167.329 194.468,156.833 198.671 C 111.174 216.956,116.168 214.827,115.660 216.228 C 111.902 226.605,99.205 227.568,99.263 217.471 L 99.276 215.192 98.513 215.000 C 92.680 213.533,91.189 207.440,96.059 204.972 C 99.198 203.382,103.157 203.319,108.361 204.777 L 109.804 205.182 135.611 194.848 C 181.489 176.475,184.258 175.350,184.051 175.165 C 183.853 174.988,180.837 173.736,172.000 170.162 C 167.646 168.402,161.683 165.988,158.750 164.798 C 155.817 163.608,150.904 161.622,147.833 160.384 C 144.762 159.147,137.300 156.124,131.250 153.667 C 120.096 149.136,110.865 145.392,109.500 144.844 C 108.761 144.547,108.730 144.548,107.417 144.931 C 101.580 146.632,95.869 146.148,93.174 143.725 C 90.432 141.260,91.848 137.245,96.167 135.238 C 96.854 134.918,97.529 134.595,97.667 134.519 C 97.865 134.410,97.934 133.872,98.000 131.899 C 98.078 129.569,98.111 129.369,98.540 128.639 C 100.082 126.017,104.088 124.701,107.256 125.777 M187.854 128.941 C 190.444 130.458,189.634 133.344,186.996 131.998 C 185.979 131.479,185.131 128.924,185.765 128.290 C 185.900 128.155,187.209 128.563,187.854 128.941 M195.247 128.666 C 196.961 129.317,195.860 133.877,194.096 133.435 C 193.073 133.178,191.592 128.839,192.450 128.616 C 193.019 128.469,194.813 128.500,195.247 128.666 M210.639 129.101 C 212.323 129.940,212.399 131.037,210.885 132.672 C 209.350 134.330,209.108 134.332,208.491 132.693 C 207.829 130.937,208.077 129.227,209.051 128.835 C 209.599 128.614,209.695 128.630,210.639 129.101 M202.075 129.569 C 203.065 129.983,203.294 131.121,202.654 132.443 C 201.392 135.050,198.142 134.418,198.384 131.613 C 198.538 129.825,200.323 128.837,202.075 129.569 "
            stroke="none" fill="#000000" fill-rule="evenodd"></path>
    </g>
</svg>