<?xml version="1.0" encoding="UTF-8"?>
<svg id="outputsvg" class="img-fluid" width="800" height="500" version="1.1" viewBox="0 0 800 500" xmlns="http://www.w3.org/2000/svg">
 <rect id="rect583" width="800" height="500" style="fill-rule:evenodd;fill:#c70f2e;paint-order:stroke markers fill;stroke-linecap:round;stroke-width:1.0964"/>
 <g id="g1820">
  <path id="pc9qjTGt8" d="m467.991 299.796c-8.21239-0.7447-15.8321-3.5994-34.5852-12.9702-9.14369-4.59234-17.5678-7.75733-23.4942-8.87438-8.21239-1.55147-15.8321-0.62059-25.8648 3.16498-4.74118 1.76867-15.5358 6.85748-18.1604 8.53307l-1.48162 0.96191v-1.11706c0-0.65162 0.55031-1.95485 1.31229-3.00985 4.86818-7.07468 9.2707-18.059 10.583-26.4059l0.50798-3.28911 3.00558-1.17911c14.1812-5.67836 24.3832-6.54719 36.3631-3.10293 5.54548 1.61352 10.1173 3.53734 22.6052 9.68115 23.8752 11.698 31.6643 13.1564 46.1418 8.59511 4.65651-1.45838 11.4296-4.43719 20.658-9.09158 12.0646-6.05072 19.0917-8.87439 25.8225-10.3017 4.95284-1.02398 14.1389-1.02398 19.1764 0.0311 6.01113 1.24118 13.4616 4.21999 25.9495 10.3328 12.4879 6.1438 16.6788 7.91247 22.6052 9.65011 12.8266 3.75455 21.039 2.04794 43.3056-8.90541 11.9799-5.86454 17.6948-8.34689 22.6052-9.80526 6.01113-1.73764 8.04307-2.01691 14.9432-1.98587 5.75714 0 6.68844 0.0931 9.948 0.86882 6.60378 1.58249 12.6996 4.06483 25.3145 10.2397 16.2978 7.97453 23.2826 10.5189 31.1986 11.3257 5.07983 0.52751 12.9536-1.05499 20.9543-4.21998 1.9896-0.80676 7.87374-3.56837 13.1229-6.1438 11.7683-5.80249 17.1868-8.22277 18.499-8.22277h0.97364l-0.0846 13.2185 0.0846 12.9634-4.86817 2.33403c-12.4502 5.9692-8.17006 3.81661-12.4879 5.95763-21.5046 10.7672-30.987 12.8151-44.2369 9.55703-5.8418-1.42735-11.218-3.66146-23.7059-9.77423-6.30746-3.0719-13.0806-6.2369-15.0702-7.04365-12.9112-5.15087-21.6316-5.80249-32.9342-2.48235-5.63014 1.64455-9.60934 3.35117-22.1819 9.49497-12.4879 6.14378-17.9064 8.34686-23.8329 9.80524-12.5726 3.07191-22.9439 0.99294-41.6546-8.34688-15.0278-7.5091-21.6739-10.2707-28.7857-11.9773-3.1749-0.7447-4.27553-0.86882-9.10137-0.86882-4.86816-0.0311-5.92647 0.062-9.18602 0.83779-6.13813 1.42735-13.0806 4.21999-25.3145 10.2086-12.6149 6.17483-16.1708 7.69527-21.6316 9.33982-6.26513 1.89279-11.6413 2.51338-17.0174 2.01691z" style="fill:#ffffff;stroke-width:.0362427"/>
  <path id="pxO3Jic4y" d="m465.154 249.156c-7.53508-1.17911-14.3505-3.69249-27.3041-10.0845-12.7419-6.26791-18.4567-8.75026-23.6635-10.2397-6.05347-1.70661-7.61975-1.98587-11.6836-2.0169-5.84181 0-12.8266 1.76867-21.6316 5.58528-1.86261 0.80675-3.72521 1.36529-4.48719 1.36529-1.26995 0-1.26995 0-2.45525-3.47529-1.43928-4.31307-4.44484-10.7051-6.60378-14.1804-1.10063-1.73764-1.65094-3.00984-1.60861-3.87866 0-0.99294 0.0846-1.17911 0.46565-0.77573 0.38099 0.40338 1.39695 0 6.85778-2.63749 14.3505-6.9816 24.0445-9.526 32.7649-8.62615 8.42405 0.86882 16.7211 3.84763 31.3256 11.2947 24.6795 12.5669 34.8392 14.0252 52.5763 7.54012 2.45525-0.89985 9.48235-4.09587 15.5782-7.07468 12.2763-6.01969 16.9751-8.06762 22.1819-9.65012 11.1333-3.38219 18.5837-3.0719 30.606 1.24117 5.0375 1.79971 8.67805 3.44426 20.8273 9.49498 15.2395 7.50909 24.7218 10.3017 33.3576 9.77422 8.29706-0.52749 15.7052-3.10293 32.2569-11.1706 16.9328-8.25379 23.2402-10.55 31.5373-11.4188 9.77867-1.05499 18.2451 1.45838 38.2681 11.2636 13.1229 6.42307 19.5574 8.9985 25.7801 10.3328 7.06944 1.48941 12.3186 1.36529 19.6844-0.52749 5.9688-1.55146 11.472-3.81661 23.6636-9.80526 9.69401-4.74749 16.5518-7.30223 16.5518-7.30223v26.7576l-3.68288 1.61352c-2.07426 0.89985-6.94244 3.25808-10.9216 5.24395-9.01669 4.53029-14.6892 7.07469-19.261 8.65718-8.12773 2.79264-16.1285 3.69249-23.4519 2.69955-8.59338-1.21014-15.0278-3.69249-33.4846-12.9392-7.78908-3.90969-17.4831-7.60218-22.6899-8.65718-7.40808-1.52044-13.3346-0.77574-23.1979 2.82366-5.41849 1.98588-8.38173 3.32014-21.7163 9.96042-14.0965 7.01262-23.1556 9.52599-32.9342 9.15364-9.56701-0.37235-16.2131-2.57543-33.8655-11.2326-16.0438-7.85041-23.1556-10.4569-30.9023-11.3567-2.24359-0.24823-3.76754-0.24823-5.8418 0-7.9584 0.99294-14.6468 3.44426-30.3097 11.1085-18.2451 8.96747-25.0605 11.1706-34.9662 11.4188-3.13257 0.0931-5.84181 0-7.61975-0.27927z" style="fill:#ffffff;stroke-width:.0362427"/>
  <path id="pOrtHYJrs" d="m467.61 274.104c-3.72521-0.43441-9.82101-2.04794-14.5198-3.81661-2.32826-0.89984-9.35535-4.12689-15.6628-7.22982-12.4456-6.08175-16.9751-8.0366-22.5206-9.61909-11.345-3.25808-19.8537-2.48235-33.8655 3.13395-1.69328 0.65163-3.09023 1.39633-3.09023 1.61353 0 0.21721-0.25399 0.40339-0.50798 0.40339-0.42332 0-0.55032-1.83074-0.55032-8.12969-0.0424-6.36101-0.21166-8.90541-0.8043-11.5739-1.10063-4.80954-1.26996-6.85748-0.71965-7.10571 0.25399-0.12412 0.59265 0.062 0.80431 0.40338 0.29632 0.62059 0.42332 0.58956 2.83623-0.49647 4.19087-1.86176 11.6413-4.37513 15.2395-5.11983 3.93687-0.80677 11.726-0.96192 15.0278-0.27927 7.91606 1.64456 14.2235 4.15793 29.844 11.8532 23.6212 11.667 32.8919 12.9392 49.9517 6.82645 3.1749-1.14809 9.65168-4.09587 17.3561-7.85042 16.1708-7.91247 22.7746-10.3017 30.9446-11.1706 2.6669-0.27927 4.36018-0.27927 7.06942-0.0311 8.12773 0.80676 15.0702 3.32014 31.622 11.4188 16.8058 8.22276 23.9175 10.7051 32.5109 11.2016 8.21239 0.46544 18.1604-2.38926 31.7489-9.12262 13.3346-6.64027 16.2978-7.97454 21.7163-9.96041 7.61975-2.79264 11.472-3.56837 17.5254-3.56837 3.59821 0 5.46082 0.15515 8.21239 0.71367 5.20683 1.08603 14.9008 4.80955 22.6899 8.68821 18.4567 9.24674 24.9335 11.7601 33.4846 12.9392 10.4137 1.42734 20.4463-1.36529 39.1147-10.8603 6.05346-3.07183 16.9328-6.70226 16.9328-6.70226v25.3199c-6.32358 1.02761-11.8946 4.64969-16.2978 6.82645-6.30746 3.0719-13.0382 6.23689-15.0278 7.04365-8.42406 3.35117-16.5094 4.87161-22.6476 4.31308-8.59338-0.8378-15.2395-3.19602-32.0453-11.4188-12.6149-6.20586-18.753-8.65718-25.3145-10.2397-3.09023-0.71368-4.36019-0.83779-8.67804-0.86882-10.075-0.062-16.2131 1.92381-36.2785 11.7911-19.134 9.43291-27.8121 11.8222-38.0141 10.55-8.0854-1.02397-14.0542-3.25808-30.4367-11.2947-18.0334-8.84336-24.9335-11.0464-34.3312-11.0464-9.52469-0.0311-17.0174 2.38925-34.0772 10.9844-13.2499 6.67131-20.531 9.55703-27.5158 10.8603-3.93686 0.7447-8.55105 0.99293-11.7259 0.62058z" style="fill:#012773;stroke-width:.0362427"/>
 </g>
 <g id="g1825">
  <path id="pc9qjTGt8-0" d="m61.5328 83.8342c-4.86595-6.65736-7.75634-14.2636-13.1093-34.5327-2.59257-9.89824-5.78133-18.3133-8.85768-23.5005-4.26028-7.1903-9.99268-12.2959-19.4622-17.3271-4.4598-2.39105-15.411-7.13346-18.4028-7.99697l-1.7009-0.47689 0.838624-0.737917c0.489202-0.430456 1.83112-0.878214 3.12652-1.00308 8.52717-1.01871 19.6819-4.96972 26.8152-9.49841l2.80485-1.7914 2.87067 1.47752c13.631 6.89538 21.0226 13.9806 26.3507 25.2497 2.45195 5.22912 4.02778 9.93228 7.66476 23.3661 6.9895 25.6518 11.04 32.4628 24.0281 40.3186 4.17092 2.53246 10.8815 5.64956 20.472 9.50306 12.5123 5.06039 19.2742 8.47066 24.7921 12.5809 4.04055 3.04189 10.1088 9.93826 12.6444 14.4171 3.0391 5.33274 5.72445 12.8939 9.38472 26.3072 3.63698 13.4338 5.0776 17.7484 7.68805 23.3456 5.65442 12.1097 12.3607 17.1478 35.293 26.6286 12.3166 5.11981 17.9554 7.77037 22.2941 10.4935 5.27543 3.36496 6.82737 4.70595 11.3622 9.90667 3.80312 4.32215 4.34845 5.08281 5.9193 8.04235 3.17436 6.00314 5.33758 12.2194 9.03516 25.769 4.77933 17.5034 7.48321 24.428 12.1068 30.9039 2.95967 4.16213 9.34905 9.02792 17.0104 12.9437 1.91999 0.96075 7.88026 3.55394 13.2813 5.79342 12.1302 5.0019 17.5266 7.47099 18.3935 8.45618l0.64318 0.73096-9.9796 8.6685-9.67634 8.62704-4.96814-2.11292c-12.7058-5.4037-8.26237-3.61242-12.7221-5.43969-22.2892-9.0318-30.0906-14.7978-36.3974-26.8973-2.78747-5.3286-4.66166-10.8406-8.32194-24.2538-1.86044-6.76457-3.95859-13.9402-4.66723-15.9668-4.66206-13.0957-9.93347-20.0729-19.8925-26.365-4.95387-3.14043-8.86373-5.00042-21.7815-10.3807-12.8618-5.31671-18.0952-7.92928-23.105-11.4152-10.6116-7.40954-15.902-16.5691-21.2503-36.7859-4.28984-16.2425-6.60694-23.0564-10.0237-29.5229-1.53823-2.87549-2.17211-3.78377-5.36002-7.40675-3.19255-3.67527-3.96155-4.40829-6.69718-6.34292-5.12637-3.66528-11.809-7.0325-24.3866-12.261-12.969-5.39155-16.4595-7.05673-21.3015-10.07-5.5597-3.45316-9.57704-7.07932-12.7558-11.4434z" style="fill:#ffffff;stroke-width:.0362427"/>
  <path id="pxO3Jic4y-1" d="m97.2576 48.6216c-4.09239-6.43584-6.70772-13.2128-10.4659-27.1602-3.71158-13.7065-5.62313-19.6366-7.94455-24.5295-2.71764-5.67199-3.54266-7.03235-6.20391-10.1038-3.85905-4.38571-9.80095-8.46113-18.4828-12.5503-1.8361-0.865409-3.48583-1.89479-3.98918-2.46684-0.838918-0.95341-0.838918-0.95341 0.987136-4.13901 2.28725-3.92971 5.1006-10.4087 6.28347-14.3252 0.57746-1.97416 1.16903-3.22771 1.84925-3.76987 0.745444-0.655926 0.941098-0.715397 0.889981-0.162856-0.05116 0.552495 0.922813 1.04875 6.51028 3.40614 14.7212 6.1616 23.0352 11.7585 28.1203 18.8997 4.91259 6.89825 8.15723 15.095 12.214 30.9787 6.86856 26.8296 12.4851 35.4203 29.0707 44.4523 2.29747 1.24884 9.33892 4.41314 15.6021 7.02175 12.6288 5.23979 17.2703 7.41458 21.898 10.2782 9.89372 6.12402 14.5825 11.9224 19.2862 23.7972 1.97661 4.97075 3.14689 8.79025 6.63003 21.9083 4.42967 16.4014 8.59707 25.365 14.6978 31.4998 5.87698 5.88052 12.7042 9.7408 29.6949 16.8376 17.3821 7.25982 23.2726 10.4783 29.4059 16.1333 7.25174 6.64437 10.9577 14.6608 16.8234 36.1702 3.84678 14.095 6.16383 20.6269 9.27287 26.1801 3.55184 6.29124 7.11257 10.15 13.3993 14.4295 5.10769 3.45616 10.4436 6.09129 22.9932 11.288 9.96794 4.14159 16.4161 7.60239 16.4161 7.60239-7.06743 6.21873-20.0882 17.6758-20.0882 17.6758l-3.64423-1.69902c-2.04579-0.96281-7.0321-3.05975-11.1516-4.73527-9.35744-3.77657-15.0148-6.35435-19.223-8.74126-7.46566-4.25707-13.4264-9.66915-17.5188-15.8231-4.76821-7.25086-7.15514-13.7213-12.4055-33.6859-2.21022-8.43033-5.84188-18.1473-8.48944-22.7532-3.75225-6.56598-8.22631-10.5233-17.4442-15.5504-5.0703-2.75605-8.02948-4.09929-21.8233-9.72363-14.5767-5.95043-22.448-11.0912-28.6281-18.6784-6.04035-7.42836-8.77677-13.8732-13.9385-32.8446-4.70474-17.2307-7.44592-24.2917-11.8878-30.7019-1.29573-1.84835-2.30244-2.99244-3.85904-4.3857-6.0027-5.31881-12.2614-8.72081-28.362-15.4167-18.7848-7.77357-24.941-11.4349-31.671-18.7075-2.13924-2.29027-3.85905-4.38571-4.82389-5.90497z" style="fill:#ffffff;stroke-width:.0362427"/>
  <path id="pOrtHYJrs-9" d="m80.1502 66.9451c-2.13471-3.08366-4.9502-8.72593-6.72639-13.4219-0.862472-2.34236-3.08182-9.74968-4.91896-16.5348-3.6556-13.361-5.18016-18.0529-7.65542-23.2615-5.0484-10.6694-11.2516-16.5449-24.7241-23.3541-1.60777-0.840767-3.08966-1.39758-3.25273-1.2541-0.163067 0.143485-0.470625 0.07579-0.638408-0.11489-0.279642-0.317805 1.01088-1.62252 5.73979-5.78355 4.74749-4.23386 6.54588-6.04174 8.15776-8.24947 2.88368-4.00344 4.3093-5.48341 4.85919-5.23425 0.260964 0.108691 0.344924 0.485912 0.228485 0.870301-0.270155 0.632415-0.162967 0.707264 2.24631 1.80132 4.16616 1.91642 10.9747 5.84947 13.9108 8.05887 3.20634 2.42264 8.46821 8.16777 10.1369 11.0976 3.99464 7.02933 6.27439 13.4249 10.816 30.2354 6.84501 25.4407 12.0141 33.241 27.8727 42.0105 2.95923 1.62513 9.45078 4.54026 17.359 7.84409 16.6226 6.91324 22.7787 10.2927 28.828 15.8524 1.97139 1.81768 3.08996 3.0889 4.69331 5.28682 4.76344 6.6348 7.46265 13.5071 12.3166 31.2832 4.92854 18.0488 7.7629 25.0277 13.0669 31.8071 5.07561 6.47288 13.7903 12.0555 27.8218 17.809 13.7939 5.62435 16.753 6.96758 21.8233 9.72363 7.1301 3.87571 10.2572 6.2553 14.2561 10.7999 2.37694 2.70134 3.49089 4.20218 4.88925 6.63686 2.62426 4.62643 6.23262 14.3639 8.46613 22.7737 5.2504 19.9646 7.64201 26.4874 12.4056 33.6859 5.8076 8.7609 14.5316 14.4481 33.9921 22.191 6.30506 2.51536 16.2174 8.28472 16.2174 8.28472l-19.0088 16.7261c-4.94877-4.06858-11.3482-5.85827-15.8911-7.726-6.47287-2.70603-13.2953-5.66837-15.2152-6.6291-8.08074-4.11058-14.5633-9.17626-18.1988-14.1534-5.04775-7.00488-7.66768-13.5522-12.5962-31.601-3.67428-13.5701-5.88876-19.7976-9.03515-25.769-1.50559-2.79142-2.25134-3.82683-5.08038-7.08893-6.60888-7.60474-12.1546-10.9011-32.8174-19.4468-19.7215-8.13348-27.2479-13.0702-33.0321-21.5697-4.5724-6.74651-6.83809-12.7034-11.6268-30.3114-5.27359-19.3804-8.17779-26.0159-14.3858-33.0712-6.26861-7.17114-13.0353-11.1974-30.7576-18.3271-13.7612-5.54028-20.7375-9.10025-26.33-13.4831-3.15974-2.46364-6.39419-5.76374-8.21196-8.39324z" style="fill:#012773;stroke-width:.0362427"/>
 </g>
 <g id="g1830">
  <path id="pc9qjTGt8-0-7" d="m133.575 481.925c-5.98412 5.67347-13.1608 9.50818-32.584 17.3966-9.48792 3.83093-17.4289 8.06449-22.1825 11.7758-6.58979 5.14053-10.9245 11.476-14.71 21.5086-1.80416 4.72779-5.11461 16.1934-5.59045 19.2707l-0.256596 1.74775-0.838624-0.73792c-0.489202-0.43046-1.10406-1.7045-1.39274-2.97348-2.09541-8.32824-7.43361-18.8896-12.8331-25.3887l-2.13372-2.55412 1.10025-3.03534c5.10497-14.3975 11.1921-22.6306 21.6917-29.3492 4.87464-3.09736 9.33906-5.2588 22.2009-10.5755 24.554-10.1966 30.7943-15.0808 36.9336-28.9629 1.98118-4.45924 4.21911-11.5119 6.82102-21.5147 3.42722-13.0545 5.94941-20.1954 9.32412-26.1913 2.50306-4.39475 8.57128-11.2911 12.6911-14.376 4.9027-3.69293 12.0607-7.31852 24.8993-12.6557 12.8618-5.31671 16.9581-7.29461 22.1776-10.596 11.2918-7.14927 15.4357-14.4421 21.9216-38.3943 3.51106-12.868 5.42261-18.7981 7.57158-23.4481 2.66637-5.6607 3.799-7.37065 8.38044-12.5304 3.80312-4.32215 4.48821-4.95983 7.22383-6.89448 5.55045-3.91238 11.4409-6.84896 24.4099-12.2405 16.753-6.96758 23.2773-10.5306 29.1123-15.9406 3.75171-3.46519 7.76499-10.4218 10.6741-18.519 0.70865-2.02662 2.5224-8.26841 4.05645-13.9105 3.41783-12.668 5.18022-18.3348 6.0471-19.32l0.64318-0.73096 9.86783 8.79553 9.78812 8.50001-1.46361 5.1966c-3.74312 13.2901-2.53177 8.65486-3.77675 13.3108-6.12236 23.2572-10.8488 31.7289-22.0476 39.5239-4.93061 3.44282-10.1593 6.0031-22.9978 11.3403-6.47287 2.70602-13.3232 5.70014-15.2432 6.66088-12.396 6.29043-18.6458 12.4068-23.6197 23.0854-2.48458 5.31318-3.83197 9.42792-7.52489 22.9253-3.63699 13.4338-5.56244 18.957-8.38255 24.3697-5.99912 11.4681-14.4111 17.881-33.7831 25.7581-15.5647 6.32163-22.0283 9.48688-28.0075 13.6986-2.6564 1.8916-3.47665 2.6359-6.66456 6.25888-3.23918 3.63423-3.8684 4.49025-5.43923 7.4498-2.98323 5.55107-5.47278 12.6079-9.05845 25.7485-3.69758 13.5496-4.9051 17.2236-7.27783 22.4096-2.71769 5.95389-5.80322 10.4-9.72739 14.1081z" style="fill:#ffffff;stroke-width:.0362427"/>
  <path id="pxO3Jic4y-1-5" d="m93.6837 450.602c-5.86283 4.87802-12.252 8.33437-25.6078 13.8367-13.1228 5.42539-18.7616 8.07595-23.3193 11.0011-5.2801 3.41724-6.52443 4.40864-9.23228 7.43907-3.85905 4.38571-7.14531 10.7979-10.0965 19.9294-0.624755 1.93128-1.43586 3.69858-1.93922 4.27063-0.838918 0.95341-0.838918 0.95341-4.23097-0.45247-4.1888-1.76865-10.973-3.73477-15.0083-4.4097-2.03159-0.32157-3.35022-0.74884-3.97452-1.35455-0.745444-0.65593-0.829325-0.84242-0.274772-0.86203 0.554514-0.01955 0.922813-1.04875 2.55011-6.89075 4.23843-15.3856 8.73201-24.3441 15.1682-30.2965 6.21712-5.75038 13.9344-10.0116 29.1729-16.0564 25.7376-10.2265 33.5439-16.8904 40.3921-34.4904 0.94636-2.4377 3.189-9.82453 4.97951-16.3687 3.59034-13.1929 5.15688-18.0734 7.40841-23.0278 4.81539-10.5925 9.97002-15.9809 21.1499-22.1574 4.67885-2.59301 8.31841-4.23976 20.8866-9.3637 15.7045-6.48055 24.065-11.7546 29.3737-18.5863 5.08495-6.57744 8.04518-13.8403 12.9224-31.5959 4.98915-18.1646 7.43196-24.4167 12.2607-31.2196 5.66768-8.03821 13.1474-12.734 33.7357-21.2889 13.491-5.60893 19.675-8.73826 24.7874-12.5286 5.78818-4.32346 9.16255-8.34624 12.6073-15.1264 2.77819-5.50593 4.71297-11.1337 8.27068-24.2426 2.83963-10.4139 5.45186-17.25 5.45186-17.25 7.06743 6.21873 20.0882 17.6758 20.0882 17.6758l-1.22153 3.83078c-0.69468 2.15168-2.14013 7.36427-3.27787 11.6635-2.55526 9.7619-4.39226 15.7013-6.22433 20.179-3.27255 7.94665-7.88221 14.5476-13.4654 19.3897-6.58523 5.65203-12.6994 8.84285-31.8337 16.5908-8.08058 3.26491-17.2565 8.10341-21.4881 11.3155-6.03518 4.55719-9.39108 9.49841-13.2045 19.281-2.08852 5.37976-3.04432 8.4858-6.86785 22.8832-4.04736 15.2154-8.14478 23.6767-14.884 30.772-6.59942 6.93642-12.6437 10.4706-30.8041 18.0042-16.4921 6.8589-23.1468 10.4762-28.9398 15.6976-1.66846 1.52039-2.67517 2.66449-3.85905 4.38571-4.51181 6.63066-7.08982 13.2713-11.6826 30.093-5.32025 19.6212-8.16851 26.1932-14.5257 33.7938-1.99946 2.41326-3.85905 4.38571-5.2432 5.53601z" style="fill:#ffffff;stroke-width:.0362427"/>
  <path id="pOrtHYJrs-9-0" d="m114.035 465.239c-2.78698 2.50971-8.02516 6.02023-12.457 8.37949-2.21359 1.1535-9.27832 4.2973-15.7745 6.98283-12.7873 5.32592-17.247 7.43507-22.0984 10.5529-9.94037 6.36492-14.9788 13.2652-20.0185 27.4947-0.629365 1.70167-0.993095 3.24237-0.830034 3.38585 0.163067 0.14349 0.135057 0.45716-0.03273 0.64784-0.279642 0.31781-1.73795-0.79621-6.46686-4.95725-4.80351-4.17019-6.82552-5.72394-9.22039-7.04182-4.33781-2.35085-5.98714-3.57657-5.80998-4.15369 0.0746-0.27268 0.438075-0.40395 0.834155-0.33737 0.661649 0.1875 0.722251 0.0717 1.50087-2.45725 1.37075-4.37614 4.40553-11.6298 6.22339-14.8231 1.99499-3.48853 7.02391-9.43864 9.7176-11.4666 6.46393-4.85656 12.5175-7.93155 28.6134-14.5751 24.3629-10.0264 31.4422-16.1459 38.1226-32.9915 1.23539-3.14196 3.30086-9.95166 5.57162-18.2159 4.74204-17.3671 7.31072-23.9032 12.0555-30.6107 1.55207-2.18665 2.67064-3.45787 4.64668-5.32785 5.97478-5.56892 12.4478-9.12061 29.4618-16.1969 17.275-7.18497 23.8365-10.8843 29.886-17.0078 5.77446-5.85795 10.2029-15.2122 14.1243-29.8617 3.82354-14.3974 4.77933-17.5034 6.86785-22.8832 2.93699-7.56528 4.89935-10.9698 8.89821-15.5144 2.37695-2.70134 3.72385-3.9972 5.96082-5.69397 4.25492-3.19158 13.4541-8.00959 21.5114-11.295 19.1343-7.74799 25.2997-10.9501 31.8337-16.5908 7.95075-6.87512 12.4817-16.2519 17.6855-36.5394 1.69267-6.57386 6.15393-17.1397 6.15393-17.1397l19.0088 16.7261c-3.40583 5.42623-4.36674 12.0014-5.64125 16.745-1.86045 6.76457-3.93064 13.9084-4.63927 15.935-3.04899 8.53808-7.24867 15.6125-11.7228 19.8518-6.30568 5.898-12.4665 9.32971-29.7414 16.5147-12.9923 5.37106-18.8874 8.35991-24.4099 12.2405-2.57717 1.84853-3.50927 2.71996-6.3849 5.94107-6.70203 7.52277-9.26596 13.4428-15.1131 35.025-5.55806 20.5961-9.49698 28.6894-17.1914 35.5081-6.10989 5.39365-11.7301 8.39886-28.5856 15.389-18.5518 7.69665-24.7639 11.4215-30.972 18.4768-6.31524 7.1301-9.44785 14.3541-14.2646 32.8395-3.74431 14.3543-6.3877 21.7268-10.0234 27.8315-2.04157 3.44752-4.90331 7.07559-7.28015 9.21315z" style="fill:#012773;stroke-width:.0362427"/>
 </g>
 <g id="g1815">
  <circle id="path1106" cx="270" cy="250" r="110" style="fill-rule:evenodd;fill:#f5dc0f;paint-order:stroke markers fill;stroke-linecap:round;stroke-width:.840131"/>
  <g id="g1804">
   <path id="p16xxTWB6T" d="m265.771 335.804c-3.19254-1.711-8.09537-6.65389-9.61564-9.7337-1.8243-3.65014-1.71029-4.71476 1.10219-8.8972 4.1047-6.12159 6.30907-11.3306 7.29725-17.2621l0.49408-2.96574 9.57763-0.22813 0.45608 2.77563c0.57009 3.46003 2.24238 8.63105 3.83866 11.7869 1.29221 2.58551 5.09286 8.51699 5.66296 8.85919 0.79814 0.49429 0.34206 3.19387-0.98817 5.89345-1.67228 3.34596-5.70097 7.52841-9.27358 9.61963-3.23055 1.86309-5.2829 1.90111-8.55146 0.15209z" style="fill:#012773;stroke-width:.0380144"/>
   <path id="pQAol6trK" d="m239.47 315.158c-3.23055-2.85167-3.23055-3.53607 0.076-7.07214 3.07853-3.30794 5.16889-6.50181 6.08104-9.23941l0.72212-2.09123h8.2094v1.82507c0 3.46003-2.66045 9.80975-5.70097 13.7641-4.56078 5.89345-5.58695 6.19762-9.3876 2.81364z" style="fill:#012773;stroke-width:.0380144"/>
   <path id="pcT3ydoyb" d="m293.287 315.31c-2.77447-3.23189-4.44676-5.74136-5.81499-8.7071-1.44425-3.0798-2.50843-6.844-2.50843-8.66907v-1.1787h4.18071c3.64863 0 4.21872 0.076 4.40875 0.68441 1.25422 3.68816 2.96451 6.42576 6.87917 10.9504 2.8505 3.26991 2.81248 4.22047-0.30404 6.92005-1.90033 1.63496-2.54644 1.97716-3.72464 1.97716-1.21621 0-1.63428-0.26616-3.11653-1.97716z" style="fill:#012773;stroke-width:.0380144"/>
   <path id="pVeHZqMiJ" d="m230.615 285.729v-5.70333l39.2607 0.076 39.2227 0.11407v11.0264l-39.2227 0.11407-39.2607 0.076z" style="fill:#012773;stroke-width:.0380144"/>
   <path id="p17DrX6vzg" d="m199.487 276.755c-3.64862-0.98857-6.84117-2.81364-9.50162-5.4752-2.88849-2.8897-4.59878-5.62729-6.04303-9.58162-0.87414-2.47144-0.98817-3.34595-1.02617-7.90863 0-5.85542 0.41807-7.64247 2.81248-11.2926 3.76264-5.77938 10.6038-10.6082 17.673-12.5474 3.26855-0.8745 12.5041-0.76044 17.1409 0.22814 16.3808 3.422 26.4525 15.285 32.1155 37.7181 0.64611 2.47145 1.1402 5.01894 1.1402 5.6273v1.17869h-8.62747l-1.78631-2.28134c-2.58444-3.26991-7.44927-8.06072-10.2618-10.0759-5.01686-3.57409-10.6038-5.4752-14.2524-4.82882-7.79134 1.40682-12.6182 7.83259-11.44 15.1709 0.22803 1.21672 0.38006 2.77563 0.38006 3.46002v1.21672l-3.11653-0.038c-1.7483 0-4.06669-0.26616-5.20689-0.57034z" style="fill:#012773;stroke-width:.0380144"/>
   <path id="pWeeag0k7" d="m332.282 273.219c0.30404-4.79081-0.22805-7.41434-2.16638-10.19-2.85048-4.22047-8.74148-6.42576-13.7583-5.28509-6.61313 1.55891-14.5565 7.45236-20.3715 15.1709l-1.33023 1.74903-4.25672 0.038h-4.29473v-1.55891c0-2.85167 2.69846-12.2812 5.24489-18.2127 6.91718-16.2735 17.559-24.3343 33.7498-25.4749 9.34959-0.64637 14.9746 0.79847 21.6637 5.51324 7.25924 5.17102 10.8318 12.1671 10.2618 20.0758-0.49408 6.61587-3.07853 12.2432-7.56329 16.4636-4.18071 3.95432-8.89351 5.85543-14.6705 5.85543h-2.77447z" style="fill:#012773;stroke-width:.0380144"/>
   <path id="pr6CM4ixr" d="m264.365 269.493c-1.59627-12.7375-5.66296-24.7525-12.2381-36.2352-5.2449-9.12534-7.37326-14.1063-8.58947-20.1518-1.10218-5.39916-0.95016-14.9808 0.34206-19.3914 1.7863-6.08356 5.92901-13.4219 10.8318-19.0872 4.7128-5.47521 12.8082-11.7109 15.2026-11.7109 2.88849 0 12.9222 8.47897 17.9391 15.2089 3.00251 3.99234 6.68914 11.2166 7.98135 15.7792 1.33023 4.67675 1.67229 11.8249 0.76013 17.2241-1.10219 6.57785-2.92649 11.2166-7.75332 19.9237-4.18071 7.52841-6.00502 11.2166-7.86734 16.0834-2.81248 7.22423-5.13087 16.8058-5.70097 23.2316-0.41807 4.79081 0.11402 4.33454-5.43492 4.33454h-4.82682z" style="fill:#012773;stroke-width:.0380144"/>
  </g>
 </g>
</svg>
