<svg viewBox="0 0 360 240" xmlns:xlink="http://www.w3.org/1999/xlink" xmlns:inkscape="http://www.inkscape.org/namespaces/inkscape" xmlns:sodipodi="http://sodipodi.sourceforge.net/DTD/sodipodi-0.dtd" xmlns="http://www.w3.org/2000/svg" xmlns:svg="http://www.w3.org/2000/svg" width="360" height="240" version="1.1" id="svg2" sodipodi:docname="Flag_of_Oregon_(reverse).svg" inkscape:version="1.3 (0e150ed6c4, 2023-07-21)">
  <defs id="defs2"/>
  <sodipodi:namedview id="namedview2" pagecolor="#ffffff" bordercolor="#000000" borderopacity="0.25" inkscape:showpageshadow="2" inkscape:pageopacity="0.0" inkscape:pagecheckerboard="0" inkscape:deskcolor="#d1d1d1" inkscape:zoom="1.55" inkscape:cx="69.677419" inkscape:cy="133.87097" inkscape:window-width="1920" inkscape:window-height="1007" inkscape:window-x="-9" inkscape:window-y="-9" inkscape:window-maximized="1" inkscape:current-layer="svg2"/>
  <path fill="#002a86" d="M0 0h360v240H0z" id="path1" style="fill:#000080;fill-opacity:1"/>
  <path style="fill:gold;fill-opacity:1;stroke:none;stroke-width:0.9;stroke-dasharray:none;stroke-opacity:1" d="M186.96935 91.183378c-23.98062-.04113-36.52539 26.324222-36.52539 26.324222s-2.2176 4.9216-9.87305 6.74609c-7.9387 1.89215-16.0724.93569-19.9082 3.45508-1.36139.89422-5.67742 4.97867-5.10156 9.05078.74145 5.24324 5.89044 12.55528 14.11719 10.95118 8.22663-1.60422 15.17486-11.88394 18.46093-16.71094.91071-1.33775 5.07504-.88601 7.23438-.55274.35164-2.46589 1.0479-5.26089 2.66797-7.88086.93544-1.51268 2.4707-2.36523 2.4707-2.36523s-.78687 1.54657-1.61914 2.89258c-.9699 1.56851-1.59176 3.21011-2.00391 4.8125.65669-1.4665 1.54392-2.94763 2.89649-4.10547 1.67773-1.43188 3.75-1.38281 3.75-1.38281s-1.74308.97738-3.09961 2.14258c-1.94889 1.66825-3.1894 6.16502-3.14258 6.16992-.91637 3.2305.88281 5.04101.88281 5.04101l34.7168.16602s.20535-1.64655-3.29102-2.30469c-3.49625-.65814-10.69336-.32812-10.69336-.32812l-.1875-.9375c5.80177.3092 11.97873.52432 17.62696.44336 2.66831-.0383 5.12786-.16156 7.5-.31055-.0749-1.18958-.52441-4.0336.54101-6.81445.81026-2.10993 2.67969-3.10938 2.67969-3.10938s-1.08475 1.736-1.74609 3.4668c-.97796 2.55256-.54075 4.31232-.0195 6.37109.2975 1.17518.20236 2.16812 1.74023 3.19336 2.59143 1.72762 8.7207.49414 8.7207.49414-1.55581-.89767-2.99402-1.67755-4.11328-2.13867 0 0-.75042-1.3143-.70703-2.0293.12562-2.06984 1.2412-3.91442 2.74219-5.58398 1.03808-1.15252 2.51953-1.64844 2.51953-1.64844s-.85211 1.28737-1.77539 2.31641c-1.32528 1.47406-1.98043 2.94963-1.99219 4.73242 7.98305-.91152 13.09375-1.74414 13.09375-1.74414l8.00195-1.47266s1.81591-.35536 3.6875-1.06836l.41599 1.61133.875.25s-.13246-1.20334-.24023-2.30664c1.93918-.91122 3.585-2.24317 2.83007-4.08203-1.6041-3.90771-5.19801-6.61778-9.21484-9.37695-2.63892-1.8128-6.4986-.61822-9.70703-2.3047-3.20843-1.68647-4.36021-4.19568-5.42969-5.42968-6.63604-7.657005-12.94931-14.613907-29.78125-14.642582zm8.91797 2.205078c.46568-.000939.92926.0091 1.37695.0332 1.08519.03525 2.00286.125302 2.79493.478516.7087.316065 1.0039.736328 1.0039.736328s-.40696-.310151-1.09766-.455078c-.69533-.145917-1.72717-.08494-2.73437-.160157-1.16533-.06279-2.43463-.03571-3.58984.06641-.87658.08346-1.74906.09247-2.38672.183593-.63508.09076-1.05469.240235-1.05469.240235s.34626-.282309.97852-.529297c.68585-.267952 1.47678-.416089 2.41015-.492188.73798-.06523 1.52269-.1 2.29883-.101562zm-19.43359 2.298828c.23008.0018.45364.01316.67187.03711.80408.08825 1.28711.316406 1.28711.316406s-.52791-.08182-1.29297-.01758c-.95939.08056-1.59067.273343-2.8164.507812-1.12318.222698-2.28674.548136-3.32032.935547-.97384.374993-1.47458.49406-2.19336.857422-.56262.284425-.89843.574219-.89843.574219s.21769-.387115.73242-.822266c.55528-.469435 1.27384-.852903 2.14844-1.171875 1.06458-.399064 2.26329-.732777 3.41406-.960937.8288-.170139 1.57733-.261184 2.26758-.25586zm22.58007.296875c.51893-.0042 1.03892.013 1.53711.05273.9372.05702 1.74872.218671 2.4043.564453.60046.316697.85156.6875.85156.6875s-.36122-.262317-.95898-.41211c-.75661-.189599-1.31032-.140108-2.3457-.242187-.96257-.07677-2.00354-.06673-2.96875.02148-.76675.07478-1.52901.100853-2.0918.185547-.56075.08439-.9375.208984-.9375.208984s.30219-.257056.85351-.496093c.5881-.254989 1.30093-.426113 2.1211-.496094.49779-.04549 1.01623-.06997 1.53515-.07422zm5.14649 2.474609c.37157-.000999.74235.01748 1.10156.05273.92193.06649 1.73482.299424 2.32617.707031.54791.377664.7168.783201.7168.783201s-.29898-.318601-.85352-.523435c-.6587-.24334-1.29699-.25041-2.24804-.369141-.90917-.08927-1.88542-.05854-2.75782.09961-.78713.161906-1.324.227122-1.86914.470704-.46377.20722-.7207.482422-.7207.482422s.1237-.357521.56055-.730469c.46594-.397799 1.13904-.688759 1.92187-.8125.57984-.10512 1.20298-.158435 1.82227-.160157zm-32.30078.283204c.23008.0018.45364.01511.67187.03906.80408.08825 1.28711.314453 1.28711.314453s-.52791-.08182-1.29297-.01758c-.95939.08056-1.59059.275296-2.8164.509766-1.12318.222697-2.28674.546189-3.32032.933589-.97376.375-1.47458.49407-2.19336.85743-.56254.28442-.89843.57422-.89843.57422s.21769-.38713.73242-.82227c.55528-.46944 1.27384-.8529 2.14844-1.171876 1.06466-.399055 2.26329-.732768 3.41406-.960937.82881-.170138 1.57733-.261184 2.26758-.255859zm34.68945 2.222658c.53397-.002 1.0725.0364 1.58594.11133.78774.10507 1.46461.35563 1.97461.69726.47972.32135.68554.64063.68554.64063s-.31416-.21016-.8164-.37305c-.59782-.19389-1.11826-.24177-1.93164-.37109-.77471-.11306-1.6091-.13543-2.39258-.0605-.75271.0775-1.19712.0966-1.77539.21875-.47644.10061-.79492.23242-.79492.23242s.23149-.25658.68945-.51172c.48171-.26836 1.10823-.47376 1.82422-.53711.31178-.0298.63079-.0456.95117-.0469zm-37.53125.44726c.23008.002.45365.0151.67188.0391.804.0882 1.28906.31446 1.28906.31446s-.52791-.0799-1.29297-.0156c-.95939.0806-1.59255.27334-2.81836.50781-1.12318.22269-2.28674.54619-3.32031.93359-.97385.375-1.47459.49407-2.19336.85743-.56263.28442-.89844.57617-.89844.57617s.2177-.38907.73242-.82422c.55528-.46943 1.2758-.85096 2.15039-1.16992 1.06466-.39907 2.26134-.73277 3.41211-.96094.82881-.17014 1.57733-.26314 2.26758-.25781zm41.29297 2.42579c.44869-.005.88329.0637 1.30273.19921 1.17969.3858 1.75391 1.41407 1.75391 1.41407s-.99682-.5444-1.9375-.84375c-.40992-.1324-.83653-.19003-1.27734-.16407-.89169.0491-1.91016.25782-1.91016.25782s.7397-.78486 1.875-.85547c.0647-.004.12926-.007.19336-.008zm-44.04883.44531c.23008.002.45365.0132.67188.0371.80408.0883 1.28906.31445 1.28906.31445s-.52791-.0799-1.29297-.0156c-.95939.0806-1.59255.27334-2.81836.50781-1.12318.2227-2.28674.54619-3.32031.9336-.97385.37499-1.47459.49601-2.19336.85937-.56263.28443-.89844.57422-.89844.57422s.2177-.38711.73242-.82227c.55528-.46942 1.2758-.8529 2.15039-1.17187 1.06467-.39906 2.26134-.73278 3.41211-.96094.82881-.17014 1.57733-.26118 2.26758-.25586zm-2.15625 2.88281c.0795-.00043.15805.00091.23633.006.57055.0358.89648.21875.89648.21875s-.37074-.0358-.875.0781c-.50826.11481-1.17207.41368-1.88086.60938-1.89832.56027-4.19189 1.56459-5.67968 2.60937-.66074.464-1.90398 1.90229-1.89258 1.89259.55528-.46944 1.27384-.85291 2.14844-1.17189 1.06466-.39905 2.26329-.73277 3.41406-.96093 1.10507-.22685 2.06459-.31261 2.9375-.2168.80408.0883 1.28906.31445 1.28906.31445s-.52791-.0799-1.29297-.0156c-.95939.0806-1.59059.27335-2.8164.50782-1.12318.22268-2.28674.54619-3.32032.93359-.97384.37499-1.47654.49406-2.19531.85742-.30463.154-.5351.3057-.68945.41602-.38536.5149-.74394 1.03354-1.0625 1.5-.53649.78926-1.33399 1.35742-1.33399 1.35742s.31149-.92796.83789-1.69531c.9319-1.36454 2.27252-3.25374 3.63282-4.20899 1.5327-1.07631 3.92422-2.12593 5.85351-2.69531.64664-.20369 1.23628-.33291 1.79297-.33594zm60.48242 7.22461c.58855.002 1.08162.36227 1.29688.72071.25762.42896.10742.71484.10742.71484s-.13-.27597-.42578-.375c-.30732-.1029-.76703-.0396-1.16602-.0352-.52707.0795-.85551.33948-.78906.65625.0399.4067.34859.83142.64258 1.22461.28252.37786.48828.6543.48828.6543s-.33084-.043-.80273-.24609c-.46458-.19992-1.08729-.61098-1.30665-1.42579-.2264-1.07949.7254-1.71676 1.61915-1.85156.11425-.0264.22694-.0375.33593-.0371zm-39.68164 4.09571c.0539-.00092.10823-.00065.16211 0l1.86133.0215c1.5977.0191 3.19141.33789 3.19141.33789s-1.60152.28082-3.19922.26172l-1.85938-.0215-2.58789-.0312c.81272-.36533 1.62312-.55458 2.43164-.56836zm46.71094.46484c.89746 0 1.625.55964 1.625 1.25s-.72754 1.25-1.625 1.25-1.625-.55964-1.625-1.25.72754-1.25 1.625-1.25zm-45.40625 1.07812 1.76367.008c1.51455.007 3.02735.31445 3.02735.31445s-1.51677.29235-3.03125.28516l-1.76368-.008c-1.22587-.006-2.44921-.31054-2.44922-.31054 0 0 1.22725-.29483 2.45313-.28907zm-4.47656.88086 1.18359.006c1.98253.009 3.96485.31641 3.96484.31641 0 0-1.98427.29196-3.96679.2832l-1.18555-.006c-1.31722-.006-2.63281-.31054-2.63281-.31054s1.3195-.29489 2.63672-.28907zm42.39062 1.14649c.73122.003 1.92134.0513 3.07227.29101l3.52539.73438c.31099.0648.51953.61914.51953.61914s-.41362.42411-.72461.35938l-3.52344-.73438c-1.84148-.38353-3.58203-1.25586-3.58203-1.25586s.27416-.0153.71289-.0137zm-38.17578.15039 2.02735.002c1.74019.001 3.48046.30274 3.48046.30274s-1.74027.29813-3.48046.29687l-2.02735-.002c-1.40856-.001-2.8164-.30078-2.81641-.30078.00001 0 1.40785-.29985 2.81641-.29883zm-5.61914.77734 1.76367.008c1.51455.007 3.02735.31445 3.02735.31445s-1.51677.29235-3.03125.28515l-1.76368-.008c-1.22581-.006-2.44921-.3125-2.44921-.3125s1.22724-.29293 2.45312-.28711zm5.05859.95703c.0793-.001.15866-.00096.23829 0l1.83203.0215c1.57394.0191 3.14453.33789 3.14453.33789s-1.57645.28078-3.15039.26172l-1.83399-.0215c-1.27395-.0154-2.54297-.33203-2.54297-.33203s1.1225-.24903 2.3125-.26758zm40.95313.95899c.43191-.001.89027.0161 1.3457.0645l5.93555.63086c-.36205.26535-.72998.52258-1.10352.77149-1.87895 1.25447-3.43021 1.98571-5.05859 2.69921-1.38329.60619-2.96875.75977-2.96875.75977s1.1794-1.06806 2.56641-1.67578c1.23448-.54094 2.40434-1.08679 3.69531-1.85352l-3.17188-.33789c-1.82167-.19331-3.58984-.88286-3.58984-.88286s1.05388-.17179 2.34961-.17578zm-42.25977.64062 1.86719.008c1.60364.007 3.20508.31445 3.20508.31445s-1.60339.29216-3.20703.28516l-1.86719-.008-2.59766-.0117c.86713-.39612 1.73428-.59189 2.59961-.58789zm.0781 1.59375c1.43139-.005 2.86328.29102 2.86328.29102s-1.42994.30586-2.86133.31055l-1.66601.004c-1.15858.004-2.31836-.29101-2.31836-.29101s1.15783-.30481 2.3164-.3086zm-38.34375.41016s-1.61928 1.21745-3.4082 2.00391c-1.85311.81461-3.69922 1.67696-5.54297 2.67382-1.58074.85475-3.38868 1.41016-3.38867 1.41016-.00001 0 1.27636-1.4056 2.91406-2.29102 1.87609-1.01434 3.74849-1.88837 5.61523-2.70898 1.80477-.79333 3.81055-1.08789 3.81055-1.08789zm-13.10352.36133s.53967.31235.82227.78125l.77148 1.28125c.31621.52467.37696 1.20508.37696 1.20508s-.57442-.36987-.89063-.89454l-.77148-1.28124c-.2826-.4689-.3086-1.0918-.3086-1.0918zm-4.66015.14062s.65973.53382 1.06054 1.21875l1.09571 1.8711c.44848.76639.63867 1.68554.63867 1.68554s-.70777-.61641-1.15625-1.38281l-1.0957-1.87109c-.40081-.68494-.54297-1.52149-.54297-1.52149zm2.55859.0859s.58841.40627.91992.96484l.90625 1.5254c.37095.62498.48438 1.40234.48438 1.40234s-.62906-.4707-1-1.0957l-.90625-1.52735c-.33152-.55857-.4043-1.26953-.4043-1.26953zm50.79688.97852 1.31445.002c1.12847.001 2.25586.30078 2.25586.30078s-1.1294.30008-2.25781.29883l-1.3125-.002c-.9134-.001-1.82813-.30274-1.82813-.30274s.91473-.29789 1.82813-.29687zm-3.58985 1.16601 1.31445.002c1.12848.001 2.25782.30274 2.25782.30274s-1.12934.29813-2.25782.29687h-1.31445c-.91333-.001-1.82614-.30274-1.82614-.30274s.91278-.29984 1.82617-.29883zm-55.5039.0137s.70474.6032 1.15039 1.35743l1.21679 2.06054c.49865.84394.73828 1.83985.73828 1.83985s-.75525-.69123-1.2539-1.53516l-1.21875-2.06055c-.44565-.75423-.63281-1.66211-.63281-1.66211zm113.15039.87696c-2.33761.0173-4.78378.3998-6.40039.89258-2.65286 2.11132-3.53159 4.55624-6.19727 5.25195-.74487.49658-49.70691-.46762-71.15039-.13867-6.01691.0923-13.60352 9.4707-13.60352 9.4707s.43072 1.1583 1.21485 1.21484c7.29523.52293 24.28909.71681 24.28909.71681s.0848-.54911-.28571-1.79018c-.8125-1.28125-2.96429-3.33482-2.96429-3.33482l1.625-.125 2.375 1.875c.12851-.78815-.1985-2.03183-.375-3.125l1.375.25.375 3c.60316-.5504.92689-1.21258 3.125-1.125l-1.625 2.125-.082 2.47461c6.84656.0488 13.8153-.0175 20.72851-.14258l-.39651-2.58203s-2.15247-.50759-2.625-1.375c-.22016-.40415.125-1.375.125-1.375s.44428.97952.875 1.25c.55901.35104 1.95508.31836 1.95508.31836l-1.20508-2.56836s1.08453-.15629 1.5.125c.38575.26117.625 1.25.625 1.25l1.125-1.625.625 2.5 2.5-1.25-1.375 3.5-.24023 1.75586c8.30483-.18018 16.3959-.43306 23.66601-.75977l-1.92578-3.37109 2.25 1.125.5-3.75.75 3.875 2.5-1.25s-.96088.806-1.125 1.375c-.17056.5913.22852 1.83203.22852 1.83203 3.52092-.17096 6.92952-.3429 9.94336-.52734l-2.79688-3.80469s1.39116-.14975 2 .125c.37597.16966.875.875.875.875l1.625-2s.26616 1.10039.125 1.625c-.10371.38544-.67857.98661-.67857.98661l.20591 2.09933c6.49443-.41309 11.76104-.83798 14.53516-1.20313 1.456-.19165-1.31641-3.54438-2.02539-6.88672-.70898-3.34224-.20285-4.70996-.81055-6.48242-1.18684-.96697-3.41639-1.31414-5.7539-1.29687zm-114.57029.94141s.63147.45111 1.00782 1.0586l1.02734 1.6582c.42111.67974.58789 1.51758.58789 1.51758s-.67654-.52143-1.09766-1.20117l-1.02734-1.66016c-.37635-.60749-.49805-1.37305-.49805-1.37305zm17.38672 1.67774s.51725.28815.77539.72851l.70508 1.20313c.28885.49274.31836 1.13672.31836 1.13672s-.54709-.34124-.83594-.83399l-.70507-1.20312c-.25815-.44037-.25782-1.03125-.25782-1.03125zm-18.72265.084s.55478.35948.84961.86914l.80468 1.39258c.3299.57028.40039 1.29102.40039 1.29102s-.58807-.41996-.91797-.99024l-.80664-1.39258c-.29482-.50966-.33007-1.16992-.33007-1.16992zm16.39257 1.10938s.55479.35379.84961.85937l.80469 1.38086c.3299.56572.40039 1.2832.40039 1.2832s-.58807-.41475-.91797-.98046l-.80468-1.38086c-.29483-.50559-.33204-1.16211-.33204-1.16211zm-18.2539.79101s.51724.2901.77539.73047l.70508 1.20313c.28884.49274.31836 1.13671.31836 1.13671 0 .00001-.54709-.34124-.83594-.83398l-.70508-1.20312c-.25814-.44037-.25781-1.03321-.25781-1.03321zm122.29492.19922c.24715-.0318.47307.14336.50391.39063.0306.24644-.14423.47108-.39063.50195-2.53164.31872-5.0366.16699-7.51172.0371-.24805-.013-.43863-.2246-.42578-.47266.013-.24805.2246-.43863.47266-.42578 2.47942.13014 4.92866.27375 7.35156-.0312zm-106 .11719s.69727.60888 1.13477 1.36719l1.19531 2.07031c.48953.84849.71875 1.84765.71875 1.84766 0 0-.74876-.69839-1.23828-1.54688l-1.19532-2.07227c-.43749-.75827-.61523-1.66601-.61523-1.66601zm-4.79492.3418s-.96236 1.06567-2.15625 1.6875l-2.93945 1.53125c-1.28516.66932-2.80079.89453-2.80079.89453s1.0547-1.1119 2.33985-1.78125l2.93945-1.53125c1.1939-.62183 2.61719-.80078 2.61719-.80078zm93.29492 2.57226h3.375c.24792.00043.44879.2013.44922.44922-.00043.24792-.2013.44879-.44922.44922h-3.375c-.24792-.00043-.44879-.2013-.44922-.44922.00043-.24792.2013-.44879.44922-.44922zm-73.625.125h7.25c.24792.00043.44879.2013.44922.44922-.00043.24792-.2013.44879-.44922.44922h-7.25c-.24792-.00043-.44879-.2013-.44922-.44922.00043-.24792.2013-.44879.44922-.44922zm87.77539.125c.69216.00033 1.4128.0527 2.14453.12695.24688.0251.42688.24525.40235.49219-.0251.24688-.24525.42688-.49219.40235-2.28091-.23136-4.27982-.1634-5.41992.77539-.19207.15729-.47523.12932-.63282-.0625-.15729-.19207-.12932-.47523.0625-.63282.75009-.61764 1.68447-.91995 2.72461-1.03906.39006-.0447.79565-.0627 1.21094-.0625zm-39.26953.375c2.78454.0314 5.44985.47701 7.92187 1.53516.22893.0979.33484.36312.23633.59179-.0979.22893-.36312.33484-.59179.23633-2.34119-1.00213-4.88327-1.43444-7.57813-1.46484-.24792-.004-.44619-.20715-.44336-.45508.004-.24792.20715-.44619.45508-.44336zm-68.75195.24024s.68997.64284 1.11523 1.42968l1.16211 2.15039c.47584.88043.6875 1.90235.6875 1.90235s-.739-.73677-1.21484-1.61719l-1.16211-2.15039c-.42527-.78684-.58789-1.71484-.58789-1.71484zm53.59765.48046c.79538.002 1.34788.0947 1.77735.25196.57262.20972.88859.53385 1.15625.7539.19182.15759.21979.44075.0625.63282-.15759.19182-.44075.21979-.63282.0625-.32132-.26418-.49631-.45695-.89648-.60352-.40017-.14652-1.06315-.24752-2.28906-.16992-.24813.0163-.46243-.17178-.47852-.41992-.0163-.24813.17178-.46243.41992-.47852.32349-.0205.61574-.03.88086-.0293zm-55.58594.62696c.00001 0 .66173.55266 1.0625 1.2539l1.09571 1.91602c.44848.78464.63672 1.7168.63672 1.7168s-.70973-.63528-1.15821-1.41993l-1.0957-1.91601c-.40081-.70124-.54102-1.55078-.54102-1.55078zm44.58204.0273c.24811-.0151.46149.17377.47656.42188.0151.24811-.17377.46149-.42188.47656l-2.125.125c-.24811.0151-.46149-.17377-.47656-.42188-.0151-.24811.17377-.46149.42188-.47656zm1.77734 0h3.875c.24792.00043.44879.2013.44922.44922-.00043.24792-.2013.44879-.44922.44922h-3.875c-.24792-.00043-.44879-.2013-.44922-.44922.00043-.24792.2013-.44879.44922-.44922zm-48.12109.71094s.61116.48346.95898 1.11133l.94922 1.71484c.38919.70254.51758 1.55078.51758 1.55078s-.65183-.55722-1.04102-1.25976l-.95117-1.7168c-.34782-.62787-.43359-1.40039-.43359-1.40039zm21.99609.28908h6c.24792.00043.44879.2013.44922.44922-.00043.24792-.2013.44879-.44922.44922h-6c-.24792-.00043-.44879-.2013-.44922-.44922.00043-.24792.2013-.44879.44922-.44922zm88.09375.24805c2.31634-.002 3.85317.55928 5.21484 1.16601.22625.10165.32759.36721.22657.59375-.10165.22625-.36721.32759-.59375.22657-1.36656-.60891-2.75947-1.12404-5.0586-1.08594-.24794.004-.45233-.19348-.45703-.44141-.004-.24794.19348-.45233.44141-.45703.0764-.001.15184-.002.22656-.002zm-111.87891.23047s.51725.28815.77539.72851l.70508 1.20313c.28885.49274.31836 1.13672.31836 1.13672s-.54709-.34125-.83594-.83399l-.70507-1.20312c-.25815-.44037-.25782-1.03125-.25782-1.03125zm20.67774 2.64648 3.25.125c.24799.01.44111.21879.43164.4668-.01.24799-.21879.44111-.4668.43164l-3.25-.125c-.24799-.01-.44111-.21879-.43164-.4668.01-.24799.21879-.44111.4668-.43164z" id="path2"/>
</svg>