<?xml version="1.0" encoding="UTF-8" standalone="no"?>
<svg
   xmlns:dc="http://purl.org/dc/elements/1.1/"
   xmlns:cc="http://creativecommons.org/ns#"
   xmlns:rdf="http://www.w3.org/1999/02/22-rdf-syntax-ns#"
   xmlns:svg="http://www.w3.org/2000/svg"
   xmlns="http://www.w3.org/2000/svg"
   xmlns:sodipodi="http://sodipodi.sourceforge.net/DTD/sodipodi-0.dtd"
   xmlns:inkscape="http://www.inkscape.org/namespaces/inkscape"
   enable-background="new 0 0 720.786 507.304"
   version="1.1"
   viewBox="0 0 720.786 507.304"
   x="0px"
   xml:space="preserve"
   y="0px"
   id="svg2"
   inkscape:version="0.48.1 "
   width="100%"
   height="100%"
   sodipodi:docname="ZZ1.svg"><metadata
   id="metadata78"><rdf:RDF><cc:Work
       rdf:about=""><dc:format>image/svg+xml</dc:format><dc:type
         rdf:resource="http://purl.org/dc/dcmitype/StillImage" /></cc:Work></rdf:RDF></metadata><defs
   id="defs76" /><sodipodi:namedview
   pagecolor="#ffffff"
   bordercolor="#666666"
   borderopacity="1"
   objecttolerance="10"
   gridtolerance="10"
   guidetolerance="10"
   inkscape:pageopacity="0"
   inkscape:pageshadow="2"
   inkscape:window-width="1280"
   inkscape:window-height="1004"
   id="namedview74"
   showgrid="false"
   inkscape:zoom="1.0289688"
   inkscape:cx="620.5885"
   inkscape:cy="121.19027"
   inkscape:window-x="-8"
   inkscape:window-y="-8"
   inkscape:window-maximized="1"
   inkscape:current-layer="svg2" />
	<rect
   clip-rule="evenodd"
   fill-rule="evenodd"
   height="507.304"
   width="720.786"
   id="rect4"
   style="fill:#000000" />
	<path
   d="M351.67,110.59c0.688,0.688-1.75,0.75-3.375-1.625,0-1.625,0-1.125-0.625-1.75s-2.375,0-5.313,0c0-1.813,1.063-1.875-0.813-5s-6.125-3.25-6.125-1.25-1,10.625-1,13c-5.875,2.875-51.875,38.375-54.375,43.25-1.125,1.125-4.938,0.438-7.125-1.75-8.5-12.375-41.375-23.5-46-26.875-10.5-17.5-23.625-0.25-26.125,1.125-1.125,0-9.508,1.921-12.25-0.625-3.188-3.938-3.25-4.875-3.25-7.5,12.25,0,15.438-19.813,15.625-21.75,2.125,0,3.375,0,5.375-3.125s0.688-5.688-0.25-6.625c0-6,0.125-15.188-1.75-16.25v-6.875c1.892-3.777,6.875-13.75,6.875-16.125-2.375-0.75-15.875,10.375-16.75,10.375s-2.912,2.039-4.375-0.75c-1.134-2.163-2.438-4.813-5.625-7-3.25,1.875-2.5,6.875-3.125,7.5-2.5,0.625-6.25,0-8.125-0.625-0.875-3.25-2.169-6.956-3.169-7.956-1.669,0-5.456,5.456-5.456,8.831-2,0-0.5,0.5-4.375-0.625s-9.25-8.625-12.875-10.625c-2.75,5.25,4.875,17.625,5.875,20,0,2.625,0.25,10.375,0.25,11.75-1.375,0-0.688-0.688-1.5,0.125-1.5,2.875-0.625,13.375,0.125,17.25,3.125,0,2.75,1.25,4.25,2.75,0,16.25,8.5,19.125,12.75,20.125,2.581,0.607-0.698,6.732-2.375,7.25-4.85,1.497-8.75,1.625-12.75,1.625-13.75-19.375-28.625,2.125-29.875,3.375-26.313,9.938-41.375,25-45.063,22.813-1.813-6.688-33.438-42.063-35.313-46.188s-1.125-2.875-1.938-8.313c-1.639-10.971-5.12-3.569-8.688-2.563-5.895,1.664-10.625-3.875-11.875-5.125s-1.75-9.375,0.5-9.375c1.043,0,0.01-3.621,0-4.625-4.125-2.75-4.875,2.75-6.125,4s-1,6.5,0,12c2.625,5.25,17.75,14.5,18.625,15.375s2.375,0.125,5.375,6.75c8.398,18.545,28.125,44.75,33.625,52s11.5,5,15,3.75,33.625-12.375,37.75-13.375c1.5,3.25,9.625,9.875,10.875,9.875,0,5.232-1.035,33.503-1.035,40.479s18.31,33.721,21.217,41.861c0,0,0.31,1.027,0.068,2.41-1-1-7.15-6.085-16.125-10.875-12.385-6.609-18.5,5.25-15.5,10.5,0.983,5.94,6.75,24.625,7.5,25.375v5.5c-5.688,5.688-3.438,65.188-1.5,78.625-6.875,6.875-0.525,16.775,0,18.625,0.649,2.284,0,3.875,0,6.375-5.25,12.75-8.5,66.5-7.75,74.75-0.875,4.375-1.125,3.25-4,4.625-2.5,0-17.64,2.251-20.75,3.625-14.375,5.088-12.438,6.313-10.875,7.875,6.375-0.875,10-4.875,16.438-2.688-1.188,0-0.5,0.5-1.75,0.875s0.438,0.438,0.438,2.688c11.125-2.375,27.25-2.75,39.125-1,9.685,1.427,2.25-6.375,1.563-7.063s-3.175-1.494-4.063-4.063c-2.109-6.104-1.625-6.25,0-12.375,8.25-11.125,12.313-55.063,8.25-62.375-2.048-3.687-1-6.5-0.375-11.125,3.188-3.188,2-12.625,2.875-21.875,8.375-6,21.969-52.594,18.813-57.313,0-1.563,2.688-0.813,3.438-0.063,6.063,9.563,11.125,1.125,14.375,1.125,0.875,29,9.625,46.125,15.25,58.125-3.625,11.25,2.125,17.375,3.125,18.375s0,0.603,0,3.75c-8,4.375-4.875,52.375-3.5,59.75s0.5,22.75-0.375,26.875c-9.375,5.625-1.625,9.5,1.25,9.5s20.5-0.625,25-0.625,9,1.875,11.5,1.875,2.188-2.188,0-4.375c3.125-1.375,14.875,2.125,16.5,2.125s3.125-1.125,1.375-2.875c-3.813-3.813-18.118-3.944-21.5-4.5-2.317-0.381-13.375-2.5-14.625-3.75s-2-2.25-3.375-7.375c0-5,5.625-62.25,5.625-80.75,9.75-14.125,0.625-19.375,0.625-20.25s0-2.558,0.5-3.875c6.375-16.75-0.156-70.469-2.938-75.5,0-2.25,0-1.063,0.563-7.25,2-4.75,7.25-6.625,7.25-20.25s-9.875-9.25-13.375-8-9.795,6.68-16.875,4.875c11-17.375,24.125-48.25,16-84.5,7.25-1.625,11-6.125,14.25-9.375,7.75,5.375,37,14.75,41.625,15.5s6.333,4.537,16.438-1.688c39.063-24.063,46.688-50.313,59.938-56.313,9.58-1.90,3.52-5.34,4.21-4.65zm-238.49,49.78c-2.088,0.696-13.921,6.075-19.743,8.163s-3.543-2.088-1.708-2.974,6.837-3.474,10.947-5.505c0.686-0.339,1.708-1.519,7.847-3.48s4.74,3.10,2.65,3.79zm23.16-18.28v8.037c-6.075,0.38-8.67-16.389,1.898-16.389,0,1.58,0.09,6.35-1.90,8.35zm47.40,60.63c-0.759,0-8.353-0.949-11.327-0.316s-2.656-2.401-1.772-3.101c1.931-1.526,8.479-4.746,14.175,0.38,1.70,1.71-0.32,3.04-1.08,3.04zm-9.50-75.63h5.252c2.30,5.01-7.68,3.76-5.25,0zm2.85,9.30c-5.601-1.423-1.582-3.543,0.38-3.923h0.316c2.92-1.24,6.33,3.92-0.70,3.92zm11.33-51.001c4.367,0.57,5.125,5.882-0.38,5.758-7.10-0.160-3.16-6.075,0.38-5.758zm-12.91,13.098c0.823-1.392,1.373-2.164,2.278-3.733,1.222-2.12,1.899-0.38,2.278,0s1.012,1.772,2.088,3.48,0.316,2.214-0.823,2.214-3.228,0-4.936,0-1.71-0.571-0.89-1.963zm2.85,11.263c10.125,0,13.099,3.48-0.854,2.436-12.19,0-6.37-3.45,0.85-2.44zm-11.03-18.224c-6.209,0-3.021-5.818,0-6.977,6.209-2.382,5.269,2.099,5.269,2.666s-0.66,3.797-5.27,4.311zm19.76,121.63c2.658,4.113-6.455,2.215-8.479,1.772s-1.95-0.848-6.633,0.481-4.536-2.791-4.124-3.203c2.08-2.09,12.08-8.99,19.23,0.95zm-35.75-27.47c-6.201,2.405-5.41-3.805-4.746-4.469,1.741-1.739,8.985-6.731,20.882-4.517,3.348,0.739,1.329,3.227-0.253,3.48s-8.92-1.45-15.88,5.51zm33.54,103.10c-4.019,1.551-5.525,0.356-6.645,0-2.117-0.674-5.695-1.329-6.771-2.404-1.076-1.076-1.202-3.923,2.152-3.607s2.784,1.266,4.619,1.582,4.367,0.316,6.328,0.316,4.32,2.56,0.31,4.11zm-1.07-17.91c-1.023-0.443-4.567-3.227-11.401-1.835-2.025,0.506-1.169-2.218-0.506-2.658,1.454-0.965,9.429-3.481,14.048,1.139,3.17,3.17-0.56,4.04-2.14,3.36zm4.48-43.36c-1.519-0.316-10.884-3.855-22.464,0.034-2.974,1.042-4.778-2.696-0.633-3.894,3.249-0.939,14.174-4.682,24.236-0.569,6.70,2.85,0.37,4.75-1.15,4.43zm15.63-42.84c-2.038-0.78-3.987-4.62-11.327-4.936-6.455-1.835-7.657-6.834,2.025-4.936,4.478,1.365,11.517,3.86,13.668,4.999s2.78,7.22-4.37,4.88zm20.12-34.05c-1.519,0.633-10.631,10.631-11.39,11.39-4.864,4.864-3.037-1.456-1.329-3.164,1.297-1.297,8.227-8.733,9.872-10.378,5.67-5.67,4.37,1.52,2.85,2.15zm17.60,9.36h-0.253c-3.354-1.582-13.858-8.226-0.823-3.037s8.91,7.03,1.07,3.04zm30.31,11.01c-1.519,0-1.203,0.316-3.101-0.949-2.195-4.05,1.115-2.553,2.468-1.961,2.15,0.95,2.15,2.91,0.63,2.91z"
   fill="#FFF"
   id="path6" />
	<path
   d="M31.125,97.488c-1.955,1.955-5.752-1.129-7.097-3.763,0-3.441-0.323-6.667,1.505-9.677v-7.419c1.398-1.398,6.828-5.86,8.279-7.312,0.753-3.01,2.15-26.88,2.15-28.708,0-1.236,3.145-6.371,8.279-1.236s13.763,9.838,17.419,14.677,2.903,8.924-4.946,10.43-15.804,5.267-18.277,7.740-2.043,6.022-2.043,10.645c-1.935,1.936,0.968,12.150-5.269,14.623z"
   fill="#FFF"
   id="path8" />
	<path
   d="M338.64,96.198c-0.823-0.394-48.117-52.525-48.815-53.224s-4.946-10.537,3.387-4.785,47.794,49.73,48.439,50.375,1.94,9.999-3.01,7.634z"
   fill="#FFF"
   id="path10" />
	<path
   d="M347.68,93.833c0-1.291-6.452,1.398-5.376,6.667,0.538,1.72,2.615-0.86,2.615-2.473,1.004-1.004,1.656-0.771,2.331-1.445s0.43-1.997,0.43-2.749z"
   fill="#FFF"
   id="path12" />
	<path
   d="M351.82,96.581c-2.738,0-5.113,4.886-6.296,6.069s-0.861,4.839,1.183,2.796,5.161-6.021,5.806-6.667,0.60-2.202-0.69-2.202z"
   fill="#FFF"
   id="path14" />
	<path
   d="M354.12,101.32c-1.204,1.204-3.01,2.765-4.085,4.737s-1.613,3.155,1.183,1.972,4.301-4.731,4.301-5.376-1.40-1.33-1.40-1.33z"
   fill="#FFF"
   id="path16" />
	<path
   d="M357.46,104.91c-0.985-1.159-0.944,3.095-3.59,3.59s-0.711,2.108,0.794,2.108,5.57-2.44,2.80-5.70z"
   fill="#FFF"
   id="path18" />
	<path
   d="M361.62,113.59c2,2,92.167,96.667,94.667,101.67s2.666,0.834,3.5,0,5.834-14.5,6.834-14.5,7.666,32.667,6.833,37.167-34.584-5.083-36.167-6.667,14-6.5,15-6.5,1.5-1.667-0.833-4-91.333-101.5-92.333-102.5,0.34-4.67,2.50-4.67z"
   fill="#FFF"
   id="path20" />
	<radialGradient
   cx="501.2793"
   cy="301.1816"
   gradientUnits="userSpaceOnUse"
   id="SVGID_1_"
   r="67.8162">
		<stop
   offset="0"
   stop-color="#F00"
   id="stop23" />
		<stop
   offset="0.2281"
   stop-color="#F80405"
   id="stop25" />
		<stop
   offset="0.554"
   stop-color="#E51013"
   id="stop27" />
		<stop
   offset="0.937"
   stop-color="#C72329"
   id="stop29" />
		<stop
   offset="1"
   stop-color="#C1272D"
   id="stop31" />
	</radialGradient>
	<path
   clip-rule="evenodd"
   d="M508.54,284.41c-28.598-10.637-62.114,20.368-24.776,54.927,22.713,21.023,101.60,16.052,101.60,16.052s-2.494-78.099-24.368-99.98c-36.45-36.47-69.54,7.66-52.45,29z"
   fill="url(#SVGID_1_)"
   fill-rule="evenodd"
   id="path33"
   style="fill:#f90304;fill-opacity:1" />
	<radialGradient
   cx="594.0615"
   cy="444.9248"
   gradientUnits="userSpaceOnUse"
   id="SVGID_2_"
   r="11.6528">
		<stop
   offset="0"
   stop-color="#F00"
   id="stop36" />
		<stop
   offset="0.2281"
   stop-color="#F80405"
   id="stop38" />
		<stop
   offset="0.554"
   stop-color="#E51013"
   id="stop40" />
		<stop
   offset="0.937"
   stop-color="#C72329"
   id="stop42" />
		<stop
   offset="1"
   stop-color="#C1272D"
   id="stop44" />
	</radialGradient>
	<circle
   clip-rule="evenodd"
   cx="599.292"
   cy="448.193"
   fill="url(#SVGID_2_)"
   fill-rule="evenodd"
   r="10"
   id="circle46"
   style="fill:#f90304;fill-opacity:1" />
	<radialGradient
   cx="654.5615"
   cy="367.3213"
   gradientUnits="userSpaceOnUse"
   id="SVGID_3_"
   r="11.6528">
		<stop
   offset="0"
   stop-color="#F00"
   id="stop49" />
		<stop
   offset="0.2281"
   stop-color="#F80405"
   id="stop51" />
		<stop
   offset="0.554"
   stop-color="#E51013"
   id="stop53" />
		<stop
   offset="0.937"
   stop-color="#C72329"
   id="stop55" />
		<stop
   offset="1"
   stop-color="#C1272D"
   id="stop57" />
	</radialGradient>
	<circle
   clip-rule="evenodd"
   cx="659.792"
   cy="370.59"
   fill="url(#SVGID_3_)"
   fill-rule="evenodd"
   r="10"
   id="circle59"
   style="fill:#f90304;fill-opacity:1" />
	<radialGradient
   cx="688.0615"
   cy="483.8213"
   gradientUnits="userSpaceOnUse"
   id="SVGID_4_"
   r="11.6528">
		<stop
   offset="0"
   stop-color="#F00"
   id="stop62" />
		<stop
   offset="0.2281"
   stop-color="#F80405"
   id="stop64" />
		<stop
   offset="0.554"
   stop-color="#E51013"
   id="stop66" />
		<stop
   offset="0.937"
   stop-color="#C72329"
   id="stop68" />
		<stop
   offset="1"
   stop-color="#C1272D"
   id="stop70" />
	</radialGradient>
	<circle
   clip-rule="evenodd"
   cx="693.292"
   cy="487.09"
   fill="url(#SVGID_4_)"
   fill-rule="evenodd"
   r="10"
   id="circle72"
   style="fill:#f90304;fill-opacity:1" />
</svg>