<svg xmlns="http://www.w3.org/2000/svg" xml:space="preserve" width="1200px" height="600px" style="shape-rendering: geometricprecision; text-rendering: geometricprecision; fill-rule: evenodd; clip-rule: evenodd;" viewBox="0 0 1200 600" xmlns:xlink="http://www.w3.org/1999/xlink" xmlns:dc="http://purl.org/dc/elements/1.1/" xmlns:cc="http://web.resource.org/cc/" xmlns:rdf="http://www.w3.org/1999/02/22-rdf-syntax-ns#" xmlns:svg="http://www.w3.org/2000/svg" xmlns:sodipodi="http://sodipodi.sourceforge.net/DTD/sodipodi-0.dtd" xmlns:inkscape="http://www.inkscape.org/namespaces/inkscape" version="1.0" sodipodi:version="0.32" inkscape:version="0.46dev+devel" sodipodi:docname="Flag_of_Moldova.svg" inkscape:output_extension="org.inkscape.output.svg.inkscape">
 <defs>
  <style type="text/css">
   <![CDATA[
    .fil3 {fill:black}
    .fil1 {fill:#0000B3}
    .fil8 {fill:#005BA4}
    .fil7 {fill:#035D34}
    .fil5 {fill:#86632B}
    .fil6 {fill:#D32620}
    .fil2 {fill:#E32110}
    .fil0 {fill:#F7D900}
    .fil4 {fill:#FDF700}
   ]]>
  </style>
 </defs>
 <g id="Layer_x0020_1">
  <metadata id="CorelCorpID_0Corel-Layer"/>
  <sodipodi:namedview inkscape:window-height="712" inkscape:window-width="1024" inkscape:pageshadow="2" inkscape:pageopacity="0.0" guidetolerance="10.0" gridtolerance="10.0" objecttolerance="10.0" borderopacity="1.0" bordercolor="#666666" pagecolor="#ffffff" id="base" inkscape:zoom="0.985" inkscape:cx="300" inkscape:cy="150" inkscape:window-x="-4" inkscape:window-y="-4" inkscape:current-layer="svg2"/>
  <rect fill="#F7D900" id="rect2182" class="fil0" width="1200" height="600"/>
  <rect fill="#0000B3" id="rect1307" class="fil1" width="400" height="600"/>
  <rect fill="#E32110" id="rect2184" class="fil2" x="800.001" width="400" height="600"/>
  <g id="g2431" inkscape:label="Layer 1">
   <g id="g2782">
    <path fill="black" id="rect2244" class="fil3" d="M568.637 148.898c-1.93285,0 -3.62079,0.49285 -4.60422,1.25858 1.56472,0.456567 2.70085,1.89883 2.70161,3.65329l0 4.45077 -1.71969 0 -2.73184 0c-1.74312,0 -3.1869,-1.12101 -3.65254,-2.67061 -0.765732,0.983433 -1.25858,2.67213 -1.25858,4.60422 0,1.93285 0.492094,3.62079 1.25858,4.60422 0.455811,-1.56397 1.89883,-2.70085 3.65254,-2.70085l2.73184 0 1.71969 0 0 1.71893 0 13.8746 0 5.80157c-0.000755906,1.68189 -1.05146,3.07654 -2.51717,3.59131 2.12334,0.288756 3.94961,3.13776 4.45077,4.69644 0.501921,-1.5549 2.32894,-4.40769 4.45077,-4.69644 -1.48006,-0.505701 -2.5474,-1.89883 -2.5474,-3.59131l0 -10.0067 0 -9.66954 0 -1.71893 1.71893 0 2.73184 0c1.74312,0 3.1869,1.12101 3.65254,2.67061 0.765732,-0.984189 1.25858,-2.67288 1.25858,-4.60422 0,-1.93285 -0.492094,-3.62079 -1.25858,-4.60498 -0.455811,1.56472 -1.89883,2.70161 -3.65254,2.70161l-2.73184 0 -1.71893 0 0 -4.45077c0,-1.74312 1.12101,-3.1869 2.66986,-3.65329 -0.983433,-0.765732 -2.67213,-1.25858 -4.60422,-1.25858z"/>
    <path fill="#FDF700" id="path2303" class="fil4" d="M568.637 149.819c-1.00535,0 -1.89203,0.188976 -2.63962,0.43011 0.997795,0.867024 1.6577,2.12485 1.6577,3.56107l0 4.45077c-0.000755906,0.0634961 -0.0181417,0.123969 -0.0309921,0.183685l0 0.706016 -0.706016 0c-0.0597165,0.0128504 -0.120945,0.0309921 -0.183685,0.0309921l-0.399118 0 -1.32057 0 -2.73184 0c-1.41883,0 -2.66079,-0.649323 -3.53008,-1.62671 -0.247937,0.754394 -0.460346,1.61613 -0.460346,2.63962 0,1.00611 0.188976,1.89279 0.43011,2.63962 0.867024,-0.997795 2.12485,-1.65694 3.56031,-1.65694l2.73184 0 0.583559 0 1.13613 0 0.920693 0c-0.00604724,0.0922205 -0.0309921,0.181417 -0.0309921,0.275906l0 0.460346c0.0128504,0.0597165 0.0302362,0.120945 0.0309921,0.184441l0 1.71893 0 13.8746 0 5.80157c0,1.38935 -0.715843,2.48164 -1.6577,3.34564 0.673512,0.414992 1.25329,0.938079 1.74992,1.53524 0.441449,0.530646 0.616819,1.04995 0.920693,1.59572 0.303874,-0.545008 0.478488,-1.06431 0.920693,-1.59572 0.488315,-0.587339 1.05978,-1.09153 1.71893,-1.50425 -0.949417,-0.861732 -1.6577,-1.98123 -1.6577,-3.37663l0 -10.0067 0 -9.66954 0 -0.245669 0 -1.47326 0 -0.890457 0.737008 0c0.0597165,-0.0120945 0.120945,-0.0302362 0.184441,-0.0302362l1.71893 0 2.73184 0c1.41883,0 2.66079,0.649323 3.53008,1.62671 0.247937,-0.754394 0.460346,-1.61613 0.460346,-2.63962 0,-1.00611 -0.188976,-1.89279 -0.43011,-2.64038 -0.867024,0.997795 -2.12485,1.6577 -3.56031,1.6577l-2.73184 0 -1.71893 0c-0.0634961,0 -0.124724,-0.0181417 -0.184441,-0.0309921l-0.706016 0 0 -0.706016c-0.0128504,-0.0597165 -0.0302362,-0.120189 -0.0309921,-0.183685l0 -4.45077c0,-1.41959 0.650079,-2.66154 1.62746,-3.53008 -0.75515,-0.248693 -1.61688,-0.461102 -2.64038,-0.461102z"/>
    <polygon fill="#86632B" id="path2778" class="fil5" points="572.01,227.575 564.639,225.893 549.191,217.748 539.431,217.209 538.757,198.294 520.045,183.25 500.962,203.847 498.235,209.906 499.111,397.302 511.462,382.36 514.054,382.999 526.809,369.2 537.647,341.871 540.844,330.529 555.451,347.794 549.931,357.992 554.946,357.622 555.383,361.897 559.994,359.945 561.239,365.834 571.404,355.536 585.54,362.502 558.715,410.294 549.157,417.362 566.389,423.824 584.059,403.226 581.501,416.756 576.25,429.882 597.756,442.267 621.114,428.468 609.637,404.371 613.373,402.654 628.518,424.598 645.01,416.419 623.571,391.346 609.469,361.19 624.345,356.276 634.475,366.003 635.99,359.675 641.341,362.267 640.668,356.982 646.054,358.161 639.49,347.761 656.15,333.794 666.684,366.709 682.2,384.446 685.498,384.042 696.773,397.976 696.672,204.891 675.838,182.981 655.611,199.472 656.453,217.243 647.366,217.579 633.836,224.512 626.263,227.003 622.696,227.71 618.051,222.661 611.825,210.208 611.421,197.924 615.258,189.914 614.551,182.341 617.984,182.408 615.796,177.293 618.825,176.081 614.282,172.076 615.863,170.225 598.699,162.855 585.607,161.979 582.073,163.527 580.356,166.725 583.823,176.519 580.121,180.221 583.79,187.39 583.924,203.107 580.996,216.367 575.106,226.397"/>
    <polygon fill="#D32620" id="path2516" class="fil6" points="552.171,358.309 539.224,378.109 532.941,377.919 526.469,380.965 524.374,388.009 525.326,391.246 532.371,398.861 538.082,395.625 542.652,390.675 543.794,386.296 560.167,364.972 559.406,359.642 555.788,361.926 554.455,357.547"/>
    <polygon id="path2750" class="fil6" points="634.989,364.211 652.315,387.628 654.028,392.198 661.643,399.052 663.928,398.481 672.305,388.771 670.401,382.107 662.596,377.347 656.694,377.919 643.557,358.309 641.272,357.357 640.32,361.165 636.513,360.023"/>
    <path id="rect2205" class="fil3" d="M589.633 160.962c-2.14299,0 -5.30041,0.0589606 -7.15162,1.28957 -1.69398,1.12479 -1.55641,2.58671 -2.14904,3.09997 -1.39616,1.20945 -3.79011,1.16636 -4.94211,1.16636 -7.46003,0 -7.73518,7.98161 -7.73518,7.98161 0,0 1.90715,-2.88605 5.27924,-2.88605 5.60655,0 9.85398,3.05386 9.85398,4.20586 0,0.465638 -0.578268,0.552567 -0.613795,0.552567 -3.66236,0 -9.18954,-2.10898 -12.1255,-2.21027l0 1.16636c0.0393071,0.0257008 0.0657638,0.0604724 0.123213,0.0922205 -0.0415748,-0.00755906 -0.0816378,-0.0226772 -0.123213,-0.0309921l0 0.215433c6.5537,2.27981 13.1996,5.50828 13.1996,19.7374 0,8.95975 -1.07339,18.1009 -5.55591,25.2934 -1.5874,2.54665 -3.84907,4.72592 -6.56957,6.66104 -1.2102,-0.365858 -6.90293,-2.13392 -10.8964,-4.35855 -7.03143,-3.91635 -10.6779,-7.81304 -19.0322,-8.19628 0,-1.86406 0,-6.35414 0,-6.35414 0,-3.39477 1.22835,-6.45317 1.22835,-9.69978 -3.52176,-0.94337 -13.2986,-12.898 -22.3166,-18.203 -13.2699,8.5954 -23.5434,22.7036 -23.5434,29.1923 0,0 0.398362,139.415 0,187.982 0,2.79912 -1.68869,6.75326 -1.68869,6.75326 4.8446,-2.04926 13.725,-14.1982 15.5936,-18.8168 0,0.851906 0,2.21027 0,2.21027 7.31565,-3.33581 12.6728,-12.1013 15.072,-16.6375 0.0423307,0.656126 0.153449,2.30249 0.153449,2.30249 6.53631,-5.73052 14.8573,-39.5981 14.8573,-39.5981l-0.43011 -7.12139c0,0 -5.75395,27.6518 -12.3092,33.3362 0,0 0,-110.587 0,-119.07l5.18778 4.8189 7.85839 -7.33606 0 -5.5869 -6.96794 6.50759 0 -16.8522c1.0492,-1.58891 1.74614,-2.77417 2.2715,-3.71376 1.12781,1.96611 4.77279,7.99143 9.05499,11.6954 0.704504,-2.86564 5.34123,-5.5869 5.34123,-5.5869 0,0 1.66148,4.50217 4.2051,5.61713 0.894236,-1.57606 6.23169,-5.06457 6.23169,-5.06457 0,0 -4.56643,0.693165 -6.41537,2.42494 -1.58891,-0.356031 -1.99559,-6.6308 -1.99559,-6.6308 0,0 -6.72,3.27383 -7.88863,5.61789 -1.28126,-0.346961 -3.27609,-5.38961 -4.05241,-7.45928 1.17241,-0.127748 2.82709,-0.276661 5.00409,-0.276661 1.91471,0 4.36762,0.908598 6.93694,2.11805 2.8218,1.32888 5.77436,3.01153 8.41096,4.20586 3.37739,1.5292 8.4858,1.83987 9.97569,1.90261 -1.70608,1.19962 -3.58072,2.29493 -5.61713,3.3154 0,0 8.04208,-0.0740787 13.6902,-2.88529 2.016,-1.29638 4.10759,-2.58822 5.8938,-4.11364 -0.774047,2.15509 -1.98123,4.70022 -3.86721,6.87647 8.29531,-0.702236 12.4256,-5.44025 13.598,-7.02992 0.550299,1.42488 1.53071,3.70998 3.06973,5.67912 1.53902,-1.96913 2.54967,-4.25424 3.09997,-5.67912 1.17241,1.58967 5.30268,6.32769 13.5987,7.02992 -1.88674,-2.17625 -3.09317,-4.72139 -3.86797,-6.87647 1.78696,1.52542 3.87855,2.81726 5.8938,4.11364 5.64888,2.81121 13.6902,2.88529 13.6902,2.88529 -2.03565,-1.02047 -3.94205,-2.11805 -5.64813,-3.3154 1.43395,-0.0551811 6.60283,-0.360567 10.0074,-1.90261 2.6366,-1.19433 5.58917,-2.87698 8.4102,-4.20586 2.56932,-1.20945 5.02224,-2.11805 6.9377,-2.11805 2.17701,0 3.83093,0.148913 5.00334,0.276661 -0.775559,2.06967 -2.77039,7.11231 -4.05165,7.45928 -1.16863,-2.34406 -7.88939,-5.61789 -7.88939,-5.61789 0,0 -0.405921,6.27477 -1.99483,6.6308 -1.84894,-1.73178 -6.41537,-2.42494 -6.41537,-2.42494 0,0 5.33669,3.4885 6.23093,5.06457 2.54438,-1.11496 4.17487,-5.61713 4.17487,-5.61713 0,0 4.66772,2.72126 5.37146,5.5869 4.28296,-3.70394 7.92718,-9.7285 9.05575,-11.6954 0.545008,0.969827 1.27294,2.20195 2.2715,3.71376l0 16.8522 -6.96794 -6.50759 0 5.5869 7.85839 7.33606 5.18702 -4.8189c0,8.48277 0,119.07 0,119.07 -6.55446,-5.68441 -12.3092,-33.3362 -12.3092,-33.3362l-0.429354 7.12139c0,0 8.32101,33.8676 14.8566,39.5981 0,0 0.111118,-1.64636 0.153449,-2.30249 2.39924,4.53619 7.75635,13.3017 15.072,16.6375 0,0 0,-1.35836 0,-2.21027 1.86935,4.61858 10.7497,16.7675 15.5936,18.8168 0,0 -1.68794,-3.95414 -1.68794,-6.75326 -0.398362,-48.5677 0,-187.982 0,-187.982 0,-6.48869 -10.2743,-20.5969 -23.5442,-29.1923 -9.0172,5.30494 -18.7941,17.2596 -22.3158,18.203 0,3.24661 1.22759,6.30501 1.22759,9.69978 0,0 0,4.44246 0,6.32391 -8.33764,0.390803 -12.0068,4.31395 -19.0314,8.22652 -4.02066,2.23899 -9.77461,4.01386 -10.9281,4.35855 -2.71824,-1.93134 -4.95043,-4.11439 -6.53783,-6.66104 -3.8211,-6.12964 -5.43345,-13.6554 -5.43345,-21.3029 0,-3.23301 3.6223,-6.87194 3.6223,-9.4851 0,-3.95263 -0.368126,-6.32391 -0.368126,-6.32391 1.28504,0.176126 3.53008,2.45594 3.53008,2.45594 0,0 -0.0771024,-6.55899 -2.14904,-7.70494 0,0 0.838299,-0.860976 3.86797,-0.950929 -0.851906,-2.1566 -5.06532,-4.78866 -5.06532,-4.78866 0.210898,-0.377197 0.599433,-0.702992 1.10513,-0.982677 1.05827,-0.585071 2.54589,-0.971339 3.68353,-1.19735 -1.21172,-0.250205 -2.60939,-0.634961 -4.14387,-1.13537 -3.50287,-1.14217 -7.62633,-2.8165 -11.4799,-4.66545 -7.03521,-3.37512 -12.3938,-3.59206 -15.3487,-3.59206zm0.153449 1.93436c0.653102,0.00604724 1.25783,0.0302362 1.78091,0.0302362 6.86967,0 11.7022,3.13247 18.2022,6.01701 1.70381,0.75515 3.26854,1.36743 4.6662,1.84139 -0.876094,0.774803 -1.55565,1.55414 -1.74992,2.21027 0,0 2.91402,0.539717 4.23609,2.97751 0,0 -2.77039,0.314457 -3.22318,1.93361 1.55112,0.117165 3.09392,2.07345 3.10072,3.96019 0,0 -3.9292,-1.22835 -3.9292,-1.22835 0,0 0.951685,4.41222 0.951685,9.2092 0,2.44989 -3.53008,5.33291 -3.53008,9.4851 0,13.0318 3.28214,18.0404 5.61713,22.0702 0.913134,1.57606 1.65543,3.39024 3.19219,4.75843 -6.72605,-3.58224 -11.7256,-8.05871 -11.7256,-12.2177l0 -15.747 -1.74992 0c0,0 0,15.747 0,15.747 0,3.01606 0.737008,4.42054 0.737008,4.42054 1.056,3.33581 3.18992,8.48504 4.512,10.5592 -6.18784,-3.34488 -9.33165,-7.5326 -9.33165,-9.08598l0 -21.6408 -1.74917 0 0 21.9477 0.337134 1.50425c-0.750614,1.1263 -1.72573,2.46274 -2.39395,2.91628 -0.667465,-0.452787 -1.6131,-1.78998 -2.36372,-2.91628l0.33789 -1.50425 0 -21.9477 -1.74992 0 0 21.6408c0,1.55339 -3.14381,5.7411 -9.33165,9.08598 1.32208,-2.0742 3.45676,-7.22343 4.51276,-10.5592 0,0 0.736252,-1.40447 0.736252,-4.42054 0,0 0,-15.747 0,-15.747l-1.74917 0 0 15.747c0,4.15446 -4.98142,8.63773 -11.6954,12.2177 1.52088,-1.3697 2.2526,-3.18992 3.1612,-4.75843 2.55345,-4.40542 5.71011,-10.0029 5.71011,-25.9381 0,-5.97997 -0.885165,-10.046 -2.42494,-12.892 -0.468661,-0.940346 -1.09984,-3.43861 2.48617,-3.43861 1.85726,0 6.10847,3.28517 6.10847,3.28517 0,0 -0.17537,-2.62148 -2.33272,-4.11364 -0.358299,-0.247937 -0.951685,-1.02728 -0.951685,-1.74992 0,-0.541984 0.929764,-1.87994 1.6577,-2.20951 0.498898,-0.226772 -7.30583,-1.58665 -7.30583,-5.12655 0,-0.737008 0.462614,-1.22759 2.08706,-1.22759 2.12485,0 5.58387,2.5474 8.65663,2.5474 2.2715,0 3.16876,-0.552567 5.49468,-0.552567 2.84372,0 8.77531,5.38356 10.8049,5.18778 -2.26847,-1.42413 -5.93386,-6.81449 -11.4807,-6.81449 -1.92378,0 -3.66765,0.429354 -5.46369,0.429354 -2.30324,0 -4.5702,-2.11805 -7.06016,-2.11805 -1.66753,0 -3.53083,0.0937323 -3.80598,-0.337134 -0.482268,-0.752882 -0.048378,-1.1898 0.399118,-1.81115 0.844346,-1.17392 3.21713,-1.51408 5.55591,-1.59647 0.70148,-0.024189 1.40296,-0.0370394 2.05606,-0.0302362zm-69.6801 23.6357c0,0.000755906 0,0.0309921 0,0.0309921 0,0 12.3311,11.2978 16.484,12.7385 0,0 0.153449,3.80674 0.153449,3.80674l0 11.204c-3.01077,-1.03635 -6.79106,-5.97997 -8.62564,-8.5954 0,-0.73474 0,-1.53449 0,-1.53449 0,-1.44454 0.849638,-2.49827 1.47326,-3.06973l-1.81115 -0.644787c-0.690142,0.786898 -1.44227,1.95704 -1.44227,3.46885 0,0 0,0.588094 0,0.890457l-0.583559 0.613795 -0.306898 0.33789 -4.512 4.84989 -5.31024 -8.04283c0,-0.981165 0,-1.9646 0,-1.9646 0,-1.32435 1.0182,-2.79987 1.87238,-3.80598l-1.78091 -0.644787c-0.899528,1.16485 -1.84139,2.73411 -1.84139,4.2051 0,0 0,0.836031 0,1.59647 -1.24951,1.29184 -6.10847,6.29291 -6.10847,6.29291 0,0 -2.43855,-5.23843 -3.10072,-6.66104 3.72057,-5.15301 9.75269,-10.9251 15.4401,-15.072zm155.292 0c5.67458,4.13783 11.7105,9.92882 15.4401,15.072 -0.662173,1.42186 -3.09997,6.66104 -3.09997,6.66104 0,0 -4.85896,-5.00107 -6.10847,-6.29291 0,-0.760441 0,-1.59647 0,-1.59647 0,-1.47099 -0.942614,-3.04025 -1.84214,-4.2051l-1.78016 0.644787c0.854173,1.00611 1.87238,2.48164 1.87238,3.80598 0,0 0,0.983433 0,1.9646l-5.31024 8.04283 -4.51276 -4.84989 -0.306898 -0.33789 -0.582803 -0.613795c0,-0.302362 0,-0.890457 0,-0.890457 0,-1.51181 -0.752126,-2.68195 -1.44302,-3.46885l-1.81115 0.644787c0.624378,0.571465 1.47326,1.6252 1.47326,3.06973 0,0 0,0.799748 0,1.53449 -1.83458,2.61543 -5.61487,7.55906 -8.62564,8.5954l0 -11.204c0,0 0.153449,-3.80674 0.153449,-3.80674 4.1537,-1.44076 16.484,-12.7385 16.484,-12.7385 0,0 0,-0.0302362 0,-0.0309921zm-172.88 18.5099l2.82406 5.12655 0 9.23943 -4.29732 3.99043c0,-1.87389 0,-13.7212 0,-13.7212 0,-1.31376 0.550299,-2.89587 1.47326,-4.63521zm190.469 0c0.924472,1.73934 1.47326,3.32145 1.47326,4.63521 0,0 0,11.8254 0,13.7212l-4.29732 -3.99043 0 -9.23943 2.82406 -5.12655zm-179.204 1.16636l4.94211 7.5205 0 5.70935 -4.94211 4.63521 0 -17.8651zm167.938 0l0 17.8651 -4.94135 -4.63521 0 -5.70935 4.94135 -7.5205zm-169.688 1.3508l0 16.484 -4.94211 -4.60498 0 -6.69128 4.94211 -5.18778zm171.438 0l4.94211 5.18778 0 6.69128 -4.94211 4.60498 0 -16.484zm-156.274 1.19735c0.743811,1.23742 4.15672,6.76006 7.39805,8.34898 -1.14898,1.62142 -4.1537,5.58841 -7.39805,7.33606l0 -15.685zm141.11 0l0 15.685c-3.24435,-1.74765 -6.24983,-5.71465 -7.39805,-7.33606 3.24057,-1.58891 6.65348,-7.11156 7.39805,-8.34898zm-142.86 0.79748l0 14.4892 -4.94211 -4.60498 0 -5.1258 4.94211 -4.75843zm144.609 0l4.94211 4.75843 0 5.1258 -4.94211 4.60498 0 -14.4892zm-164.715 15.4401l0 14.4582 -4.29732 -4.02142c0,-1.52844 0,-5.22104 0,-6.41537l4.29732 -4.02142zm184.821 0l4.29732 4.02142c0,1.20794 0,4.86954 0,6.41537l-4.29732 4.02142 0 -14.4582zm-183.072 0.0309921l2.82406 2.63962 2.11805 1.9646 0 5.18778 -2.11805 1.9646 -2.82406 2.63962 0 -14.3962zm11.6341 0l0 14.3962 -2.82406 -2.63962 -2.11805 -1.99559 0 -5.1258 2.11805 -1.99559 2.82406 -2.63962zm1.78016 0l4.94211 4.63521 0 5.1258 -2.14828 2.02658 -2.79383 2.60863 0 -14.3962zm11.6341 0l0 14.4272 -2.82406 -2.63962 -2.11805 -1.99559 0 -4.8189c1.70457,-1.04013 3.4182,-2.95332 4.94211,-4.9731zm131.226 0c1.52391,2.01978 3.23754,3.93298 4.94211,4.9731l0 4.8189 -2.11805 1.99559 -2.82406 2.63962 0 -14.4272zm11.6334 0l0 14.3962 -2.79307 -2.60863 -2.14904 -2.02658 0 -5.1258 4.94211 -4.63521zm1.78091 0l2.82331 2.63962 2.11805 1.99559 0 5.1258 -2.11805 1.99559 -2.82331 2.63962 0 -14.3962zm11.6334 0l0 14.3962 -2.82406 -2.63962 -2.11805 -1.9646 0 -5.18778 2.11805 -1.9646 2.82406 -2.63962zm-174.016 15.9315l5.21877 4.88013 5.21802 -4.84989 0 119.101c0,0 0.364346,5.90967 0.613795,9.76101 -2.32063,2.34557 -11.0506,11.1738 -11.0506,11.1738l0 -140.066zm166.71 0l0 140.066c0,0 -8.7292,-8.82822 -11.0506,-11.1738 0.250205,-3.85134 0.613795,-9.76101 0.613795,-9.76101l0 -119.101 5.21877 4.84989 5.21802 -4.88013zm-169.688 0.0302362l0 135.585c0,3.82791 -6.99137,12.7551 -10.3748,14.7953 0,-3.42501 0,-108.304 0,-150.35l5.15679 4.8189 5.21802 -4.84989zm172.665 0l5.21877 4.84989 5.15679 -4.8189c0,42.5303 0,146.925 0,150.35 -3.38343,-2.04019 -10.3756,-10.9674 -10.3756,-14.7953l0 -135.585zm-129.66 106.515c0,0 -5.01468,10.179 -6.96869,12.0023 0,0 1.30923,0.167055 2.79383,0.153449 -0.912378,1.3115 -7.88334,11.3484 -10.0687,15.1332 -2.04472,3.54142 -3.48699,1.9646 -6.63005,1.9646 -2.60712,0 -8.51528,4.15219 -9.4851,5.83257 -1.01972,1.7658 -1.78016,3.91106 -1.78016,5.67836 0,1.94343 2.05606,4.60498 2.05606,4.60498 0.22148,-0.929764 0.614551,-1.25858 0.614551,-1.25858 0,0 5.40397,6.73285 6.19994,7.61197 0.620598,0.685606 3.38494,1.13159 4.35931,0.245669 2.4378,-2.21631 4.79773,-3.76668 6.96794,-6.96794 1.11798,-1.64863 1.20265,-3.53991 2.48617,-5.31024 4.29506,-5.92403 12.8413,-17.2687 14.7953,-19.8607 0.131528,0.72189 0.242646,1.32283 0.368882,2.05682 2.21405,-4.47118 12.8617,-13.0152 12.8617,-13.0152l-2.94728 -1.93361c0,0 -6.41915,7.48195 -8.50243,8.87131 0,0 -0.891213,-3.72132 -1.41203,-5.03433 0,0 -2.46047,1.85953 -3.80674,1.90337 0,0 -0.402142,-2.52548 -0.706016,-4.17487 -1.69247,1.12857 -4.512,0.890457 -4.512,0.890457 2.47408,-1.17241 5.40246,-8.34973 5.40246,-8.34973l-2.08706 -1.04391zm86.6547 0l-2.08706 1.04391c0,0 2.92762,7.17732 5.40246,8.34973 0,0 -2.81953,0.23811 -4.51276,-0.890457 -0.303874,1.64939 -0.706016,4.17487 -0.706016,4.17487 -1.34551,-0.0438425 -3.80598,-1.90337 -3.80598,-1.90337 -0.520819,1.31301 -1.41203,5.03433 -1.41203,5.03433 -2.08403,-1.38935 -8.50318,-8.87131 -8.50318,-8.87131l-2.94652 1.93361c0,0 10.6477,8.544 12.8617,13.0152 0.12548,-0.733984 0.237354,-1.33493 0.368126,-2.05682 1.95477,2.592 10.5003,13.9366 14.7953,19.8607 1.28428,1.77033 1.36894,3.66161 2.48693,5.31024 2.16945,3.20126 4.52939,4.75162 6.96794,6.96794 0.973606,0.885921 3.73871,0.439937 4.35855,-0.245669 0.795969,-0.879118 6.20069,-7.61197 6.20069,-7.61197 0,0 0.392315,0.328819 0.613795,1.25858 0,0 2.05682,-2.66154 2.05682,-4.60498 0,-1.76731 -0.761197,-3.91257 -1.78016,-5.67836 -0.970583,-1.68038 -6.87874,-5.83257 -9.4851,-5.83257 -3.14381,0 -4.58608,1.57682 -6.6308,-1.9646 -2.18532,-3.78482 -9.15553,-13.8217 -10.0679,-15.1332 1.48384,0.0136063 2.79307,-0.153449 2.79307,-0.153449 -1.95326,-1.82324 -6.96794,-12.0023 -6.96794,-12.0023zm-87.3608 11.4807c0,0 -0.0415748,3.44995 1.04315,4.66545 0,0 3.80674,-2.60863 3.80674,-2.60863 0,0 0.253228,1.25858 0.582803,2.97751 -1.62973,2.22841 -10.9909,15.0047 -15.6238,21.2417 -1.15124,1.54885 -2.11805,5.49468 -2.11805,5.49468 0,0 -1.68869,-0.798992 -1.68869,-2.24126 0,-1.41657 0.184441,-3.09997 0.184441,-3.09997 0,0 -1.26009,1.44227 -3.43786,1.44227 0,-1.74009 3.36605,-3.6291 3.49909,-6.10847 -2.56781,1.90337 -4.79622,0.92674 -7.76617,1.84214 -3.23452,0.996283 -4.1348,2.3554 -5.12655,2.30173 -0.584315,-0.0309921 -1.11269,-1.03861 -0.889701,-1.65694 0.386268,-1.07187 4.38576,-4.03729 7.18261,-4.57398 0.669732,-0.128504 5.93764,1.14595 6.99893,-0.491339 4.37291,-6.74646 11.4709,-17.6995 12.1557,-18.7555 0.451276,-0.106583 0.865512,-0.22148 1.19735,-0.429354zm88.0668 0c0.331087,0.207874 0.746079,0.322772 1.19735,0.429354 0.684094,1.056 7.78205,12.0091 12.1557,18.7555 1.06129,1.63729 6.3292,0.362835 6.99817,0.491339 2.79761,0.536693 6.7971,3.50211 7.18337,4.57398 0.222992,0.618331 -0.306142,1.62595 -0.890457,1.65694 -0.991748,0.0536693 -1.89203,-1.30545 -5.12655,-2.30173 -2.96995,-0.915402 -5.19836,0.0612283 -7.76542,-1.84214 0.132283,2.47937 3.49909,4.36838 3.49909,6.10847 -2.17776,0 -3.43786,-1.44227 -3.43786,-1.44227 0,0 0.183685,1.6834 0.183685,3.09997 0,1.44227 -1.68794,2.24126 -1.68794,2.24126 0,0 -0.966803,-3.94583 -2.11805,-5.49468 -4.63294,-6.23698 -13.9941,-19.0133 -15.6246,-21.2417 0.330331,-1.71893 0.583559,-2.97751 0.583559,-2.97751 0,0 3.80598,2.60863 3.80598,2.60863 1.08548,-1.2155 1.04391,-4.66545 1.04391,-4.66545zm-57.6476 2.51717c0,0 -20.7987,47.8103 -39.2602,55.1607 0,0 8.03225,3.4114 17.8961,8.53342 1.43924,0.747591 2.92157,1.54961 4.42054,2.36372 1.2412,-1.49518 2.54816,-3.15666 3.83698,-4.88088 5.89682,-7.8909 11.6644,-17.0358 11.6644,-17.0358 0.401386,2.3743 -2.71219,9.70961 -7.98085,18.7548 -1.03635,1.77865 -2.11654,3.63742 -3.3154,5.52567 1.33644,0.762709 2.6623,1.53373 3.99043,2.33272 9.77083,5.87943 18.946,12.638 22.3468,18.8477 3.40082,-6.20976 12.576,-12.9683 22.3468,-18.8477 1.32737,-0.798992 2.65323,-1.57002 3.99043,-2.33272 -1.19887,-1.88825 -2.27906,-3.74702 -3.3154,-5.52567 -5.26866,-9.04517 -8.38224,-16.3805 -7.98085,-18.7548 0,0 5.76756,9.14494 11.6644,17.0358 1.28882,1.72422 2.59578,3.3857 3.83698,4.88088 1.49896,-0.81411 2.98129,-1.61613 4.42054,-2.36372 9.86381,-5.12202 17.8961,-8.53342 17.8961,-8.53342 -18.4622,-7.35043 -39.261,-55.1607 -39.261,-55.1607l-3.06898 0.889701c0,0 16.5899,41.3125 32.8139,53.8106 -3.68957,1.11043 -8.00882,2.70463 -12.4626,4.60422 -5.4138,-6.34129 -11.0143,-14.8951 -15.5626,-22.5003 -4.91263,-8.21216 -8.93329,-22.6227 -8.93329,-22.6227 -2.27679,5.53096 2.57613,33.3158 12.3711,50.8944 -8.10028,4.21644 -15.3078,8.78438 -18.7555,12.5238 -3.44769,-3.73946 -10.6552,-8.3074 -18.7555,-12.5238 9.79502,-17.5786 14.6479,-45.3634 12.3704,-50.8944 0,0 -4.01991,14.4106 -8.93254,22.6227 -4.54828,7.60517 -10.1488,16.159 -15.5626,22.5003 -4.4538,-1.89959 -8.77304,-3.4938 -12.4626,-4.60422 16.224,-12.4981 32.8139,-53.8106 32.8139,-53.8106l-3.06973 -0.889701zm-54.3315 22.9606c0.14211,0.015874 0.292535,0.0922205 0.399118,0.214677 0.212409,0.244913 0.193512,0.603213 -0.0309921,0.798236l-1.71893 1.50425c-0.224504,0.195024 -0.585827,0.152693 -0.798236,-0.0922205 -0.212409,-0.244913 -0.193512,-0.603213 0.0309921,-0.798236l1.71893 -1.50425c0.111874,-0.0975118 0.256252,-0.139087 0.399118,-0.122457zm135.891 0c0.142866,-0.0166299 0.286488,0.0249449 0.399118,0.122457l1.71893 1.50425c0.224504,0.195024 0.243402,0.553323 0.0302362,0.798236 -0.212409,0.244913 -0.573732,0.287244 -0.79748,0.0922205l-1.71893 -1.50425c-0.224504,-0.195024 -0.243402,-0.553323 -0.0309921,-0.798236 0.106583,-0.122457 0.256252,-0.198803 0.399118,-0.214677zm-134.08 1.50425c0.427087,-0.0347717 0.875339,0.151181 1.1966,0.521575 0.514772,0.59263 0.481512,1.43169 -0.0612283,1.90337l-4.17487 3.65254c-0.54274,0.471685 -1.41883,0.377953 -1.93361,-0.214677 -0.514772,-0.59263 -0.481512,-1.46192 0.0612283,-1.93361l4.17487 -3.6223c0.203339,-0.176882 0.48,-0.286488 0.737008,-0.306898zm131.931 0c0.107339,-0.0188976 0.231307,-0.00907087 0.33789,0 0.256252,0.0204094 0.532913,0.130016 0.737008,0.306898l4.17411 3.6223c0.543496,0.471685 0.576,1.34098 0.0619843,1.93361 -0.514772,0.59263 -1.39087,0.686362 -1.93436,0.214677l-4.17487 -3.65254c-0.54274,-0.471685 -0.576,-1.31074 -0.0612283,-1.90337 0.241134,-0.277417 0.538205,-0.466394 0.859465,-0.521575zm-129.568 2.82406c0.427843,-0.0347717 0.906331,0.151181 1.22835,0.521575 0.514772,0.59263 0.481512,1.43169 -0.0619843,1.90337l-4.2051 3.65254c-0.54274,0.471685 -1.3886,0.377953 -1.90337,-0.214677 -0.514016,-0.59263 -0.481512,-1.46192 0.0619843,-1.93361l4.17411 -3.6223c0.204094,-0.176882 0.449764,-0.286488 0.706016,-0.306898zm127.205 0c0.110362,-0.0188976 0.231307,-0.00907087 0.33789,0 0.256252,0.0204094 0.502677,0.130016 0.706016,0.306898l4.17487 3.6223c0.54274,0.471685 0.576,1.34098 0.0612283,1.93361 -0.514772,0.59263 -1.35987,0.686362 -1.90337,0.214677l-4.2051 -3.65254c-0.54274,-0.471685 -0.576,-1.31074 -0.0612283,-1.90337 0.241134,-0.277417 0.560126,-0.466394 0.889701,-0.521575zm-124.534 2.76208c0.427843,-0.0340157 0.876094,0.120945 1.19735,0.491339 0.514772,0.59263 0.481512,1.46192 -0.0612283,1.93361l-4.17487 3.6223c-0.54274,0.471685 -1.3886,0.377953 -1.90337,-0.214677 -0.514016,-0.59263 -0.511748,-1.43169 0.0309921,-1.90337l4.2051 -3.65254c0.204094,-0.176882 0.449764,-0.255496 0.706016,-0.276661zm121.864 0c0.106583,-0.0151181 0.230551,-0.00831496 0.337134,0 0.256252,0.0211654 0.502677,0.0997795 0.706016,0.276661l4.20586 3.65254c0.54274,0.471685 0.545008,1.31074 0.0302362,1.90337 -0.514772,0.59263 -1.35987,0.686362 -1.90337,0.214677l-4.17411 -3.6223c-0.543496,-0.471685 -0.576,-1.34098 -0.0619843,-1.93361 0.24189,-0.277417 0.538205,-0.444472 0.86022,-0.491339z" sodipodi:nodetypes="cssscsssccsccsscscccccccccccccccccccccccccccccssscccccccccccscsssccccccccccccccccccccccsccccscscsssscccsscssccssccccccsssccccsscccccccccccccscccccsscscssssssscssssssccccccccccccccccscccccccccccsccsccccccccccccccccccccccccccccccccccccccccccccccccccccccccccccccccccccccccccccccccccccccccccccccccccccccccccccccccccccccccccccccccccccccccccccccccccccccccccccssssccssssccccsssccccccccsssccccssssccssssccccsccscscccsssssccccssssscccscsccsccsscscscscscscscssccccsscccsscccccsccsccccccsccsccsccsccccsccsccsccsccsccccsccsccsccsccsccccsccsccsc"/>
    <g id="g2704">
     <rect id="rect2290" class="fil3" transform="matrix(0.431214, 0.235096, -0.104839, 0.479817, 540.827, 393.783)" width="22.529" height="22.529"/>
     <path id="rect2273" class="fil3" d="M495.611 290.101l-3.49909 1.59572 39.5361 86.5943 4.2051 0 -40.2421 -88.19zm46.6273 102.126l-2.85506 2.94652 1.78091 3.9292 3.46809 -1.59647 -2.39395 -5.27924z"/>
     <rect id="rect2288" class="fil4" transform="matrix(0.431214, 0.235096, -0.104839, 0.479817, 542.223, 396.841)" width="13.9744" height="13.9744"/>
     <path id="path2280" class="fil3" d="M507.892 358.374c0,0 3.33052,6.87874 5.86129,7.82287 -1.30847,-0.357543 -5.55969,1.20189 -5.55969,1.20189 0,0 7.4948,6.69506 13.8512,7.13424 5.39036,0.371906 8.00806,-2.31987 8.00806,-2.31987l-1.08019 -5.71087c0,0 -3.29726,-3.98211 -8.57424,-5.82047 -5.33443,-1.85802 -12.5065,-2.30778 -12.5065,-2.30778z" sodipodi:nodetypes="cccsccsc"/>
     <path id="path2282" class="fil3" d="M532.999 346.054c0,0 -4.59742,3.936 -5.856,8.49562 -1.25934,4.55887 0.820157,9.74211 0.820157,9.74211l3.86343 7.20756c0,0 5.35559,-2.85052 7.63389,-7.11156 2.27754,-4.26104 1.44227,-10.012 1.44227,-10.012 0,0 -4.24214,1.57909 -4.78186,2.2783 0.895748,-4.72743 -3.12189,-10.6001 -3.12189,-10.6001z" sodipodi:nodetypes="csccsccc"/>
     <path id="path2284" class="fil3" d="M518.223 344.209c0,0 -5.23011,1.76731 -10.309,1.46117 -4.8378,-0.291024 -8.85921,-4.35402 -8.85921,-4.35402 0,0 4.01008,-2.7137 5.98828,-2.35238 -2.17625,-0.795969 -5.33443,-6.24983 -5.33443,-6.24983 0,0 4.48706,-1.35609 8.46463,0.144378 3.97757,1.50047 7.44643,5.85827 7.44643,5.85827l2.60334 5.49241z" sodipodi:nodetypes="cscccscc"/>
     <path id="path2286" class="fil3" d="M520.021 318.669c0,0 2.61543,5.41531 1.99483,7.29751 0.811843,-1.25405 3.88233,-3.20428 3.88233,-3.20428 0,0 1.85575,8.7685 0.0808819,14.1838 -1.77487,5.41531 -7.18035,7.47742 -7.18035,7.47742l-5.96183 -11.5948c0,0 -0.887433,-4.29506 0.972094,-7.69663 1.85877,-3.40233 6.21203,-6.46299 6.21203,-6.46299z" sodipodi:nodetypes="cccsccsc"/>
     <path id="path2293" class="fil3" d="M485.988 304.333c0,0 5.65342,-0.593386 10.8238,1.54885 4.32378,1.79452 5.64888,5.05625 5.64888,5.05625l2.12939 5.7086c0,0 -6.15231,2.30778 -11.0143,0.54274 -4.86274,-1.76504 -8.43439,-7.6029 -8.43439,-7.6029 0,0 3.39704,-1.28806 4.69115,-0.805039 -1.88372,-0.833764 -3.84454,-4.4485 -3.84454,-4.4485z" sodipodi:nodetypes="csccsccc"/>
     <path id="path2295" class="fil3" d="M503.769 293.734c0,0 2.48013,3.1869 2.55496,6.85077 0.661417,-1.94797 3.75836,-4.10154 3.75836,-4.10154 0,0 3.18463,7.70797 2.48617,13.1815 -0.699213,5.47276 -5.28151,8.70954 -5.28151,8.70954l-5.71616 -10.8472c0,0 -1.86255,-4.44699 -1.31301,-7.89468 0.549543,-3.44844 3.51118,-5.89833 3.51118,-5.89833z" sodipodi:nodetypes="cccsccsc"/>
     <path id="path2297" class="fil3" d="M484.193 272.988c0,0 -1.02501,5.90816 0.718866,9.31124 1.55717,3.03798 2.54967,3.70394 2.54967,3.70394 -2.97071,-1.96082 -7.46154,-2.12939 -7.46154,-2.12939 0,0 1.59874,6.42822 5.41833,9.36113 3.82035,2.93216 9.71187,2.24731 9.71187,2.24731 0,0 3.87326,-5.15603 3.6034,-10.7119 -0.269102,-5.55591 -4.68208,-11.5109 -4.68208,-11.5109 0,0 -1.74009,3.6102 -1.89354,6.30501 -1.12554,-2.77871 -7.96498,-6.57638 -7.96498,-6.57638z" sodipodi:nodetypes="csccscsccc"/>
     <path fill="#035D34" id="path2299" class="fil7" d="M485.93 276.586c0,0 -0.152693,4.31698 1.27597,6.76687 1.42866,2.44913 4.61858,3.42652 4.61858,3.42652 0,0 0.152693,-4.31622 -1.27597,-6.76611 -1.42791,-2.44989 -4.61858,-3.42728 -4.61858,-3.42728z" sodipodi:nodetypes="cscsc"/>
     <path id="path2301" class="fil7" d="M482.943 286.348c0,0 3.7508,0.220724 5.91647,1.87994 2.16567,1.65997 3.00472,5.11899 3.00472,5.11899 0,0 -2.48542,0.251717 -4.65109,-1.40825 -2.16567,-1.65997 -4.27011,-5.59068 -4.27011,-5.59068z" sodipodi:nodetypes="cscsc"/>
     <path id="path2304" class="fil7" d="M494.712 277.635c0,0 -1.24724,2.85959 -1.10362,5.94444 0.143622,3.08409 1.94343,6.55672 1.94343,6.55672 0,0 1.62671,-3.70167 1.48384,-6.78576 -0.143622,-3.08409 -1.8875,-4.84233 -2.32365,-5.7154z" sodipodi:nodetypes="cscsc"/>
     <path id="path2306" class="fil7" d="M488.397 305.428c0,0 1.84214,2.57083 4.67679,3.97304 2.8354,1.4022 7.05865,1.45436 7.05865,1.45436 0,0 -2.10822,-2.73638 -4.94287,-4.13783 -2.8354,-1.4022 -6.79257,-1.28957 -6.79257,-1.28957z" sodipodi:nodetypes="cscsc"/>
     <path id="path2308" class="fil7" d="M489.313 311.405c0,0 1.35307,2.65096 3.82866,3.78709 2.47559,1.13688 7.5394,1.04466 7.5394,1.04466 0,0 -1.94268,-2.47786 -4.41827,-3.61474 -2.47559,-1.13613 -6.9498,-1.21701 -6.9498,-1.21701z" sodipodi:nodetypes="cscsc"/>
     <path id="path2310" class="fil7" d="M503.567 297.262c0,0 -1.49594,2.47257 -1.35005,5.19761 0.146646,2.72428 1.93512,5.7018 1.93512,5.7018 0,0 1.25783,-3.41291 1.11118,-6.13795 -0.146646,-2.72504 -1.69625,-4.76145 -1.69625,-4.76145z" sodipodi:nodetypes="cscsc"/>
     <path id="path2312" class="fil7" d="M509.077 300.76c0,0 -2.5595,3.43559 -2.92762,6.96718 -0.368126,3.53235 1.45587,7.16145 1.45587,7.16145 0,0 3.09165,-3.10526 3.45978,-6.63761 0.368126,-3.53235 -1.98803,-7.49102 -1.98803,-7.49102z" sodipodi:nodetypes="cscsc"/>
     <path id="path2320" class="fil7" d="M502.017 333.379c0,0 0.307654,1.26992 1.3765,2.61921 1.06961,1.34854 2.90041,2.7772 2.90041,2.7772 0,0 1.76806,-0.568441 3.96624,-0.0922205 2.19742,0.475465 5.11975,2.43402 5.11975,2.43402 0,0 -3.14608,-4.69569 -6.4131,-6.52044 -3.26627,-1.82551 -6.9498,-1.21776 -6.9498,-1.21776z" sodipodi:nodetypes="cscscsc"/>
     <path id="path2322" class="fil7" d="M501.692 341.449c0,0 4.07282,-1.74009 7.42753,-1.29109 3.35395,0.449008 6.37833,3.10072 6.37833,3.10072 0,0 -4.53317,1.5685 -7.88787,1.1195 -3.35471,-0.449008 -5.91798,-2.92913 -5.91798,-2.92913z" sodipodi:nodetypes="cscsc"/>
     <path id="path2324" class="fil7" d="M518.913 322.515c0,0 -3.60265,3.81581 -3.90425,7.12743 -0.302362,3.31087 2.92006,6.39723 2.92006,6.39723 0,0 -0.157984,-2.12334 0.39685,-3.52176 0.554835,-1.39843 1.73405,-2.89134 1.73405,-2.89134 0,0 0.502677,-1.70532 0.308409,-3.072 -0.272126,-1.91017 -1.45512,-4.03956 -1.45512,-4.03956z" sodipodi:nodetypes="cscscsc"/>
     <path id="path2326" class="fil7" d="M524.079 326.933c0,0 -3.39477,3.43483 -4.29203,7.11383 -0.89726,3.67824 0.702236,7.60063 0.702236,7.60063 0,0 3.08712,-2.43553 3.98513,-6.11376 0.89726,-3.67899 -0.395339,-8.60069 -0.395339,-8.60069z" sodipodi:nodetypes="cscsc"/>
     <path id="path2328" class="fil7" d="M532.58 349.108c0,0 1.53751,3.21109 1.92831,5.89606 0.390803,2.68422 0.0272126,3.61398 0.0272126,3.61398 0,0 -1.58967,1.56321 -2.30249,2.48239 -0.915402,1.18224 -1.05071,3.34337 -1.05071,3.34337 0,0 -3.19219,-4.74633 -2.70085,-8.21594 0.492094,-3.46961 4.09852,-7.11987 4.09852,-7.11987z" sodipodi:nodetypes="cscscsc"/>
     <path id="path2330" class="fil7" d="M539.311 356.533c0,0 -4.08794,2.70161 -5.71087,5.47049 -1.62293,2.76888 -0.78085,5.6058 -0.78085,5.6058 0,0 2.91326,-0.256252 4.53619,-3.02513 1.62293,-2.76888 1.95553,-8.05115 1.95553,-8.05115z" sodipodi:nodetypes="cscsc"/>
     <path id="path2333" class="fil7" d="M512.449 367.938c0,0 5.89153,-0.160252 9.49342,0.724913 3.60113,0.885165 4.91187,2.81575 4.91187,2.81575 0,0 -4.04939,1.89581 -7.65052,1.0114 -3.60189,-0.885165 -6.75477,-4.55206 -6.75477,-4.55206z" sodipodi:nodetypes="cscsc"/>
     <path id="path2335" class="fil7" d="M511.453 360.948c0,0 2.65852,4.12195 6.09487,5.61638 4.73575,2.05984 10.2191,1.06129 10.2191,1.06129 0,0 -2.97827,-3.65102 -7.07906,-5.26261 -4.10003,-1.61159 -9.2349,-1.41506 -9.2349,-1.41506z" sodipodi:nodetypes="cscsc"/>
     <path id="path2350" class="fil3" d="M530.362 371.971l0.157984 2.12107c3.52403,0.031748 4.04863,-0.318236 4.95118,0.792189 0.601701,0.739276 2.03187,1.38482 3.47036,0.727937 1.43924,-0.656882 2.08328,-2.38413 1.42715,-3.82261 -0.656882,-1.43924 -1.99408,-1.75068 -3.2829,-1.49669 -0.790677,0.155717 -1.31074,0.786898 -1.98198,1.13386 -1.27597,0.659906 -4.7418,0.544252 -4.7418,0.544252z" sodipodi:nodetypes="ccsssssc"/>
     <path id="path2348" class="fil4" d="M539.178 372.342c0.000755906,0 0.00151181,0.000755906 0.00151181,0.000755906 0.358299,0.785386 0.0120945,1.71288 -0.772535,2.07118 -0.785386,0.358299 -1.71213,0.0120945 -2.07118,-0.772535 0,-0.000755906 0,-0.00151181 -0.000755906,-0.00226772 0,0 0,-0.000755906 -0.000755906,-0.00151181 -0.358299,-0.78463 -0.0120945,-1.71213 0.773291,-2.07043 0.78463,-0.358299 1.71213,-0.0120945 2.07043,0.772535 0,0.000755906 0.000755906,0.00151181 0.000755906,0.00151181l-0.000755906 0.000755906z" sodipodi:ry="3.0935922" sodipodi:rx="3.0935922" sodipodi:cy="669.64063" sodipodi:cx="165.28621" sodipodi:type="arc"/>
     <path id="path2357" class="fil3" d="M530.058 370.348l1.71591 1.25707c-1.83836,3.00624 -2.41361,3.26551 -1.95024,4.61934 0.309165,0.901795 0.0990236,2.45745 -1.22003,3.32976 -1.31906,0.873071 -3.12567,0.504945 -3.99798,-0.81411 -0.873071,-1.31906 -0.429354,-2.61846 0.468661,-3.57694 0.551055,-0.58885 1.36139,-0.695433 2.01146,-1.08094 1.23591,-0.733228 2.97222,-3.73417 2.97222,-3.73417z" sodipodi:nodetypes="ccsssssc"/>
     <path id="path2359" class="fil4" d="M525.704 378.023c0.000755906,0 0.000755906,0.000755906 0.00151181,0.00151181 0.47622,0.719622 1.44529,0.916913 2.16567,0.440693 0.719622,-0.47622 0.916913,-1.44605 0.440693,-2.16567 0,0 -0.000755906,-0.000755906 -0.000755906,-0.00151181 -0.000755906,0 -0.000755906,-0.000755906 -0.00151181,-0.00151181 -0.47622,-0.719622 -1.44529,-0.916913 -2.16567,-0.440693 -0.719622,0.47622 -0.916913,1.44529 -0.440693,2.16567 0,0 0.000755906,0.000755906 0.000755906,0.00151181z" sodipodi:type="arc" sodipodi:cx="165.28621" sodipodi:cy="669.64063" sodipodi:rx="3.0935922" sodipodi:ry="3.0935922"/>
     <path id="path2361" class="fil3" d="M518.124 345.165l0.15874 2.12031c3.52328,0.0325039 4.04787,-0.31748 4.95043,0.792189 0.601701,0.740031 2.03187,1.38557 3.47112,0.728693 1.43849,-0.656882 2.08328,-2.38413 1.42639,-3.82337 -0.656882,-1.43849 -1.99408,-1.75068 -3.2829,-1.49594 -0.790677,0.155717 -1.31074,0.786142 -1.98123,1.13386 -1.27672,0.659906 -4.74255,0.544252 -4.74255,0.544252z" sodipodi:nodetypes="ccsssssc"/>
     <path id="path2363" class="fil4" d="M526.94 345.535c0.000755906,0 0.00151181,0.000755906 0.00151181,0.000755906 0.358299,0.785386 0.0120945,1.71213 -0.772535,2.07043 -0.785386,0.359055 -1.71213,0.0128504 -2.07043,-0.772535 -0.000755906,0 -0.000755906,-0.000755906 -0.000755906,-0.00151181 -0.000755906,0 -0.000755906,-0.000755906 -0.000755906,-0.00151181 -0.359055,-0.785386 -0.0128504,-1.71213 0.772535,-2.07043 0.78463,-0.358299 1.71213,-0.0128504 2.07043,0.772535 0,0.000755906 0.000755906,0.000755906 0.000755906,0.00151181l-0.000755906 0.000755906z" sodipodi:type="arc" sodipodi:cx="165.28621" sodipodi:cy="669.64063" sodipodi:rx="3.0935922" sodipodi:ry="3.0935922"/>
     <path id="path2365" class="fil3" d="M518.839 345.917l1.49896 1.50954c-2.28359,2.68271 -2.89209,2.84976 -2.64491,4.25953 0.164787,0.938835 -0.28422,2.44233 -1.72271,3.09921 -1.43849,0.656882 -3.16649,0.0120945 -3.82337,-1.42639 -0.656882,-1.43849 -0.0166299,-2.65323 1.01972,-3.46054 0.635717,-0.495118 1.45285,-0.475465 2.15433,-0.754394 1.33569,-0.532157 3.51798,-3.22696 3.51798,-3.22696z" sodipodi:nodetypes="ccsssssc"/>
     <path id="path2367" class="fil4" d="M513.344 352.822c0.000755906,0 0.000755906,0.000755906 0.000755906,0.000755906 0.359055,0.785386 1.2858,1.13159 2.07118,0.773291 0.78463,-0.359055 1.13083,-1.2858 0.772535,-2.07118 0,0 -0.000755906,-0.000755906 -0.000755906,-0.00151181 0,0 -0.000755906,-0.000755906 -0.000755906,-0.00151181 -0.358299,-0.785386 -1.2858,-1.13083 -2.07043,-0.772535 -0.785386,0.358299 -1.13159,1.28504 -0.773291,2.07043 0.000755906,0.000755906 0.000755906,0.00151181 0.00151181,0.00151181l-0.000755906 0.000755906z" sodipodi:ry="3.0935922" sodipodi:rx="3.0935922" sodipodi:cy="669.64063" sodipodi:cx="165.28621" sodipodi:type="arc"/>
     <path id="path2370" class="fil3" d="M506.265 320.074l0.15874 2.12107c3.52328,0.0325039 4.04787,-0.31748 4.95043,0.792189 0.601701,0.740031 2.03263,1.38557 3.47112,0.728693 1.43849,-0.656882 2.08328,-2.38488 1.42639,-3.82337 -0.656882,-1.43849 -1.99408,-1.75068 -3.28214,-1.49669 -0.791433,0.156472 -1.3115,0.786898 -1.98198,1.13386 -1.27672,0.660661 -4.74255,0.544252 -4.74255,0.544252z" sodipodi:nodetypes="ccsssssc"/>
     <path id="path2374" class="fil4" d="M515.082 320.445c0.000755906,-0.000755906 0.000755906,0 0.000755906,0.000755906 0.358299,0.785386 0.0128504,1.71213 -0.772535,2.07043 -0.78463,0.358299 -1.71213,0.0128504 -2.07043,-0.772535 0,-0.000755906 -0.000755906,-0.000755906 -0.000755906,-0.00151181 0,-0.000755906 -0.000755906,-0.00151181 -0.000755906,-0.00151181 -0.358299,-0.785386 -0.0128504,-1.71213 0.772535,-2.07043 0.785386,-0.359055 1.71213,-0.0128504 2.07043,0.772535 0.000755906,0 0.000755906,0.000755906 0.000755906,0.00151181l0 0.000755906z" sodipodi:type="arc" sodipodi:cx="165.28621" sodipodi:cy="669.64063" sodipodi:rx="3.0935922" sodipodi:ry="3.0935922"/>
     <path id="path2376" class="fil3" d="M507.242 319.628l1.49896 1.50879c-2.28359,2.68346 -2.89209,2.85052 -2.64416,4.26028 0.164787,0.938835 -0.284976,2.44233 -1.72346,3.09921 -1.43849,0.656882 -3.16649,0.0120945 -3.82337,-1.42639 -0.656882,-1.43849 -0.0166299,-2.65323 1.01972,-3.46054 0.636472,-0.495874 1.45361,-0.475465 2.15509,-0.754394 1.33493,-0.532157 3.51723,-3.22696 3.51723,-3.22696z" sodipodi:nodetypes="ccsssssc"/>
     <path id="path2378" class="fil4" d="M501.747 326.532c0,0 0,0.000755906 0.000755906,0.000755906 0.358299,0.785386 1.28504,1.13159 2.07043,0.772535 0.785386,-0.358299 1.13083,-1.28504 0.772535,-2.07043 0,0 -0.000755906,-0.000755906 -0.000755906,-0.00151181 0,-0.000755906 -0.000755906,-0.000755906 -0.000755906,-0.00151181 -0.358299,-0.785386 -1.2858,-1.13083 -2.07043,-0.772535 -0.785386,0.358299 -1.13083,1.28504 -0.772535,2.07043 0,0.000755906 0,0.00151181 0.000755906,0.00151181l0 0.000755906z" sodipodi:ry="3.0935922" sodipodi:rx="3.0935922" sodipodi:cy="669.64063" sodipodi:cx="165.28621" sodipodi:type="arc"/>
     <path id="path2380" class="fil3" d="M493.631 293.583l0.157984 2.12107c3.52403,0.031748 4.04863,-0.318236 4.95118,0.791433 0.601701,0.740031 2.03187,1.38557 3.47036,0.728693 1.43924,-0.656882 2.08328,-2.38413 1.42715,-3.82337 -0.656882,-1.43849 -1.99408,-1.75068 -3.2829,-1.49594 -0.790677,0.155717 -1.31074,0.786898 -1.98198,1.13386 -1.27597,0.659906 -4.7418,0.544252 -4.7418,0.544252z" sodipodi:nodetypes="ccsssssc"/>
     <path id="path2382" class="fil4" d="M502.447 293.954c0.000755906,0.000755906 0.00151181,0.00151181 0.00151181,0.00151181 0.358299,0.785386 0.0120945,1.71213 -0.772535,2.07118 -0.785386,0.358299 -1.71213,0.0120945 -2.07118,-0.773291 0,0 0,-0.000755906 -0.000755906,-0.00151181 0,0 0,-0.000755906 -0.000755906,-0.00151181 -0.358299,-0.78463 -0.0120945,-1.71213 0.773291,-2.07043 0.78463,-0.358299 1.71213,-0.0128504 2.07043,0.772535 0,0.000755906 0.000755906,0.00151181 0.000755906,0.00151181l-0.000755906 0z" sodipodi:ry="3.0935922" sodipodi:rx="3.0935922" sodipodi:cy="669.64063" sodipodi:cx="165.28621" sodipodi:type="arc"/>
     <path id="path2384" class="fil3" d="M494.609 293.136l1.49896 1.50954c-2.28435,2.68271 -2.89209,2.85052 -2.64491,4.25953 0.164787,0.938835 -0.28422,2.44233 -1.72271,3.09921 -1.43924,0.656882 -3.16649,0.0120945 -3.82337,-1.42639 -0.656882,-1.43849 -0.0166299,-2.65323 1.01972,-3.46054 0.635717,-0.495118 1.45285,-0.474709 2.15433,-0.754394 1.33493,-0.532157 3.51798,-3.22696 3.51798,-3.22696z" sodipodi:nodetypes="ccsssssc"/>
     <path id="path2386" class="fil4" d="M489.113 300.041c0.000755906,0 0.000755906,0.000755906 0.000755906,0.00151181 0.358299,0.78463 1.2858,1.13083 2.07118,0.772535 0.78463,-0.358299 1.13083,-1.28504 0.772535,-2.06967 -0.000755906,-0.000755906 -0.000755906,-0.00151181 -0.000755906,-0.00226772 -0.000755906,0 -0.000755906,-0.000755906 -0.000755906,-0.00151181 -0.358299,-0.78463 -1.2858,-1.13083 -2.07118,-0.772535 -0.78463,0.358299 -1.13083,1.2858 -0.772535,2.06967 0.000755906,0.000755906 0.000755906,0.00151181 0.000755906,0.00226772z" sodipodi:type="arc" sodipodi:cx="165.28621" sodipodi:cy="669.64063" sodipodi:rx="3.0935922" sodipodi:ry="3.0935922"/>
     <path id="path2340" class="fil4" d="M515.886 338.882c-1.26312,0.525354 -3.1355,-4.9731 -4.51124,-7.98539 -1.41052,-3.0909 -4.27616,-7.85461 -3.46205,-8.22652 0.892724,-0.407433 2.06891,2.09461 3.51269,5.25732 1.44378,3.1612 5.64359,10.4625 4.4606,10.9546z" sodipodi:nodetypes="czzzz"/>
     <path id="path2342" class="fil4" d="M502.919 309.925c-1.26312,0.525354 -2.64491,-3.07427 -4.01991,-6.08655 -1.41128,-3.0909 -2.784,-5.27395 -1.96989,-5.64586 0.892724,-0.407433 2.21178,2.30022 3.3668,4.83024 1.11874,2.45065 3.80598,6.40932 2.62299,6.90217z" sodipodi:nodetypes="czzzz"/>
     <path id="path2337" class="fil4" d="M532.925 375.578c-0.991748,0.265323 -5.31855,-8.79118 -8.81688,-16.4546 -3.49757,-7.66261 -6.10243,-13.861 -5.28831,-14.2329 0.892724,-0.407433 3.7251,6.83112 7.22419,14.4945 3.49833,7.66413 7.62331,15.9942 6.88101,16.193z" sodipodi:nodetypes="czzzz"/>
    </g>
    <polygon fill="#005BA4" id="path2754" class="fil8" points="540.557,288.817 540.748,335.463 544.175,340.984 565.878,352.978 593.675,365.734 597.292,369.542 621.282,356.405 649.459,343.078 654.79,334.891 654.79,289.008"/>
    <path id="path2355" class="fil6" d="M539.23 232.668c0,0 1.44302,4.20586 1.44302,4.20586 0,0 -0.33789,53.5642 -0.33789,53.5642 0,0 1.99559,2.21027 1.99559,2.21027 0,0 16.484,1.9646 16.484,1.9646 0,0 17.8341,-2.60939 17.8341,-2.60939 0,0 10.3559,1.59874 17.4969,2.70161 0.00755906,0.0362835 0.214677,1.07414 0.214677,1.07414 0,0 2.59124,-0.395339 3.40762,-0.521575 0.802016,0.123969 3.37587,0.521575 3.37587,0.521575 0,0 0.207874,-1.03786 0.215433,-1.07414 7.14028,-1.10287 17.4962,-2.70161 17.4969,-2.70161 0,0 17.8341,2.60939 17.8341,2.60939 0,0 16.484,-1.9646 16.484,-1.9646 0,0 1.99483,-2.21027 1.99483,-2.21027 0,0 -0.337134,-53.5642 -0.337134,-53.5642 0,0 1.44227,-4.20586 1.44227,-4.20586 0,0 -19.7374,0.154205 -19.7374,0.154205 0,0 -22.557,0.223748 -38.7689,0.398362 -16.2081,-0.174614 -38.7999,-0.398362 -38.7999,-0.398362 0,0 -19.7382,-0.154205 -19.7382,-0.154205z"/>
    <polygon id="path2756" class="fil4" points="544.95,292.363 553.835,288.862 560.028,284.016 564.336,288.593 572.952,292.094 565.952,296.133 559.759,301.518 554.374,297.479"/>
    <polygon id="path2758" class="fil4" points="635.418,284.285 631.379,288.593 622.763,292.094 630.841,297.209 635.956,301.787 641.61,297.209 650.765,292.632 641.341,288.862"/>
    <polygon id="path2760" class="fil4" points="597.723,240.129 595.031,248.206 587.222,244.436 590.723,252.245 583.183,255.207 590.723,257.899 587.491,265.708 594.762,261.938 597.723,270.015 600.685,261.938 607.954,265.169 604.724,257.899 612.262,255.207 604.993,251.976 608.223,244.167 600.685,247.937"/>
    <polygon id="path2762" class="fil4" points="618.455,238.782 620.878,247.399 624.648,258.438 625.186,268.938 620.878,276.478 613.07,279.708 608.762,281.055 603.646,278.362 597.992,281.862 591.799,278.093 586.684,281.593 583.452,279.439 577.798,278.631 571.337,271.9 569.991,259.784 577.798,238.244 568.105,246.053 559.759,257.361 559.759,272.169 565.683,282.132 576.452,289.132 579.414,289.94 574.298,299.364 583.183,302.056 587.761,306.633 590.184,315.788 589.646,335.443 586.953,340.02 581.03,344.059 580.761,347.828 587.222,351.867 592.876,356.444 601.223,356.713 608.493,351.598 614.686,348.098 613.07,342.712 606.608,337.597 605.262,321.98 607.147,306.364 616.57,300.441 621.417,298.825 616.301,289.132 624.11,286.44 632.725,278.9 636.764,263.822 634.341,254.668 628.418,247.129" sodipodi:nodetypes="cccccccccccccccccccccccccccccccccccccccccccccccc"/>
    <polygon id="path2764" class="fil4" points="581.568,306.229 585.338,309.999 581.837,313.499 578.203,309.865"/>
    <polygon id="path2766" class="fil4" points="614.012,305.826 610.243,309.729 613.609,313.364 617.647,309.865"/>
    <polygon id="path2768" class="fil4" points="616.705,315.788 609.974,317.403 608.223,321.307 608.089,332.078 610.916,338.135 614.686,339.751 614.148,325.615"/>
    <polygon id="path2770" class="fil4" points="578.875,315.922 581.299,327.904 581.299,339.482 584.664,337.058 586.953,331.808 587.357,322.654 585.607,317.134"/>
    <polygon id="path2772" class="fil4" points="640.668,325.481 632.86,321.711 625.321,323.326 621.417,327.904 621.013,335.308 626.532,341.771 627.879,342.174 627.744,335.174 633.668,327.096"/>
    <polygon id="path2774" class="fil4" points="566.355,322.923 565.548,319.692 561.375,317.269 557.874,318.615 556.124,322.249 557.066,325.481 553.432,325.076 550.47,327.904 550.066,331.673 552.085,334.097 554.913,335.039 556.528,334.905 555.182,338.27 556.259,341.635 559.624,343.521 563.394,342.578 565.413,338.808 568.644,340.963 572.549,340.154 575.106,336.251 573.356,332.616 571.471,331.135 574.164,329.654 575.241,325.212 571.606,321.038 568.105,321.577"/>
    <path id="path2169" class="fil3" d="M578.092 235.676c-0.563906,3.94431 -20.4132,12.1429 -20.4132,28.67 0,21.1608 19.7987,26.1536 19.7987,26.1536l-0.828472 1.5035 -4.81965 8.77909c0,0 8.18192,0.409701 12.5246,4.11364 5.23616,4.46589 4.72668,13.9283 4.72668,20.8116 0,5.42438 -0.685606,11.1473 -3.46809,13.5065 -3.73644,3.168 -6.26192,3.40233 -6.26192,7.12139 0,3.10224 2.38337,3.72435 6.26192,5.77134 4.96932,2.62299 4.73726,6.13871 12.1247,6.13871 7.38746,0 7.18564,-3.51572 12.1557,-6.13871 3.8778,-2.04699 6.26192,-2.6691 6.26192,-5.77134 0,-3.71906 -2.52548,-3.95339 -6.26192,-7.12139 -2.78324,-2.35918 -3.46885,-8.08214 -3.46885,-13.5065 0,-6.88328 -0.508724,-16.3457 4.72743,-20.8116 4.34268,-3.70394 12.5238,-4.11364 12.5238,-4.11364l-4.8189 -8.77909 -0.829228 -1.5035c0,0 19.7987,-4.99276 19.7987,-26.1536 0,-16.5271 -19.8493,-24.7257 -20.4125,-28.67 -1.94041,6.82356 6.63005,16.2497 6.63005,27.4114 0,14.4423 -10.6515,15.1332 -10.6515,15.1332 -2.49222,0 -3.50211,1.78091 -4.48176,1.78091 -2.09688,-0.219213 -3.08409,-2.88605 -5.15679,-2.88605 -1.94721,0 -3.44239,3.0085 -6.01625,3.0085 -2.57386,0 -4.03805,-3.0085 -5.98602,-3.0085 -2.07194,0 -3.05915,2.66683 -5.15679,2.88605 -0.979654,0 -1.98879,-1.78091 -4.48176,-1.78091 0,0 -10.6515,-0.690898 -10.6515,-15.1332 0,-11.1617 8.57121,-20.5878 6.6308,-27.4114zm40.7645 56.3271c0,0 13.3017,5.86809 16.7902,10.8669 7.56964,-5.72674 17.5279,-10.2221 17.5279,-10.2221 0,0 -9.54482,-2.48844 -17.5279,-9.66879 -4.56567,6.03515 -16.7909,9.024 -16.7902,9.024zm-42.2075 0c0,0 -12.2253,-2.98885 -16.7909,-9.024 -7.98236,7.18035 -17.5272,9.66879 -17.5272,9.66879 0,0 9.95754,4.49537 17.5272,10.2221 3.4885,-4.9988 16.7909,-10.8669 16.7909,-10.8669zm21.0883 -54.8538l-3.43786 9.76176 -9.36265 -4.45077 4.45077 9.36189 -9.76101 3.46885 9.76101 3.46885 -4.45077 9.33165 9.36265 -4.45153 3.43786 9.76176 3.46885 -9.76176 9.36189 4.45153 -4.45077 -9.33165 9.76101 -3.46885 -9.76101 -3.46885 4.45077 -9.36189 -9.36189 4.45077 -3.46885 -9.76176zm-22.5313 4.51276c0.81411,1.75294 -6.63005,12.5609 -6.63005,21.4254 0,10.8707 5.79628,17.2823 13.5368,17.2823 1.47704,0 3.0909,1.99483 4.48176,1.99483 2.26772,0 3.7765,-2.51641 5.15679,-2.51641 1.75597,0 2.93896,2.76208 5.98602,2.76208 3.04706,0 4.26104,-2.76208 6.01625,-2.76208 1.38028,0 2.88983,2.51641 5.15679,2.51641 1.39162,0 3.00548,-1.99483 4.48176,-1.99483 7.74047,0 13.5368,-6.41159 13.5375,-17.2823 0,-8.8645 -7.44491,-19.6724 -6.6308,-21.4254 0,0 14.5194,10.4141 14.5194,22.684 0,19.7654 -20.0443,24.6493 -20.0443,24.6493l4.512 10.1601c0,0 -6.21279,0.931276 -10.0067,3.99043 -5.06003,4.08113 -5.12655,15.1053 -5.12655,22.5615 0,8.78287 0.326551,12.5042 3.49909,14.8883 3.34639,2.51339 5.86356,3.05461 5.86356,5.61713 0,2.23294 -2.60561,3.14532 -5.98602,4.63521 -3.84529,1.69398 -4.22854,4.63521 -9.792,4.63521 -5.56346,0 -5.91647,-2.94123 -9.76176,-4.63521 -3.38041,-1.48989 -5.98526,-2.40227 -5.98526,-4.63521 0,-2.56252 2.51641,-3.10375 5.8628,-5.61713 3.17329,-2.38413 3.49909,-6.10545 3.49909,-14.8883 0,-7.45625 -0.0657638,-18.4804 -5.1258,-22.5615 -3.79389,-3.05915 -10.0074,-3.99043 -10.0074,-3.99043l4.51276 -10.1601c0,0 -20.0443,-4.88391 -20.0443,-24.6493 0,-12.2699 14.5187,-22.684 14.5187,-22.684zm22.5623 2.05606l2.20951 6.23169 5.95502 -2.85506 -2.82406 5.98602 6.20069 2.21027 -6.20069 2.21027 2.82406 5.95502 -5.95502 -2.82406 -2.2405 6.20069 -2.21027 -6.20069 -5.95502 2.82406 2.82406 -5.95502 -6.20069 -2.21027 6.20069 -2.21027 -2.82406 -5.98602 5.95502 2.85506 2.24126 -6.23169zm-38.0939 42.2687c4.03427,4.61934 10.436,6.38513 10.436,6.38513 0,0 -6.66406,3.49228 -10.2523,7.61272 0,0.00831496 0,0.244913 0,0.244913 -0.0355276,-0.0332598 -0.0861732,-0.0582047 -0.122457,-0.0914646 -0.0710551,0.0831496 -0.146646,0.161764 -0.214677,0.245669 0,0 -0.000755906,-0.405165 0,-0.43011 -3.79767,-3.35546 -11.3582,-7.12139 -11.3582,-7.12139 0,0 7.24687,-2.49827 11.5117,-6.84548zm76.1567 0c4.26406,4.34721 11.5109,6.84548 11.5109,6.84548 0,0 -7.55981,3.76592 -11.3575,7.12139 0,0.0249449 0,0.43011 0,0.43011 -0.0680315,-0.0839055 -0.144378,-0.16252 -0.214677,-0.245669 -0.0370394,0.0332598 -0.0869291,0.0582047 -0.123213,0.0914646 0,0 0,-0.236598 0,-0.244913 -3.58828,-4.12044 -10.2523,-7.61272 -10.2523,-7.61272 0,0 6.40176,-1.7658 10.4368,-6.38513zm-54.1788 19.0314l-4.75767 4.75843 4.75767 4.75767 4.75767 -4.75767 -4.75767 -4.75843zm32.2001 0l-4.75767 4.75843 4.75767 4.75767 4.75843 -4.75767 -4.75843 -4.75843zm-32.2001 2.2715l2.48617 2.48693 -2.48617 2.51717 -2.51717 -2.51717 2.51717 -2.48693zm32.2001 0l2.51717 2.48693 -2.51717 2.51717 -2.48617 -2.51717 2.48617 -2.48693zm-36.5896 7.2446c0.946394,2.33726 3.19219,9.58035 3.19219,18.2642 0,6.01172 -0.582803,9.1782 -0.582803,9.1782 0,0 6.70715,-1.97443 8.04208,-8.77909 0.62589,-3.19068 1.32435,-14.9412 -1.90261,-16.9444 0,0 -8.74885,-1.71893 -8.74885,-1.71893zm40.9791 0c0,0 -8.74809,1.71893 -8.74809,1.71893 -3.22772,2.00315 -2.52926,13.7537 -1.90337,16.9444 1.33569,6.80466 8.04283,8.77909 8.04283,8.77909 0,0 -0.583559,-3.16649 -0.583559,-9.1782 0,-8.68384 2.24655,-15.9269 3.19219,-18.2642zm-57.2787 1.90337c-0.374173,0.015874 -0.758929,0.0589606 -1.13537,0.153449 -3.01682,0.756661 -4.84006,3.82866 -4.08265,6.84472 0.115654,0.462614 0.306898,0.888945 0.521575,1.28957 -0.439181,-0.14589 -0.898016,-0.243402 -1.38104,-0.275906 -0.194268,-0.0136063 -0.393071,-0.00680315 -0.583559,0 -2.8543,0.0952441 -5.23389,2.33953 -5.43345,5.24901 -0.211654,3.10224 2.14677,5.77285 5.24901,5.98526 0.46337,0.031748 0.91389,0.0143622 1.3508,-0.0612283 -0.266835,0.365858 -0.498142,0.757417 -0.675024,1.19735 -1.16107,2.88529 0.245669,6.20598 3.13096,7.36706 2.88529,1.16031 6.17575,-0.276661 7.33606,-3.16195 0.177638,-0.439937 0.275906,-0.870803 0.33789,-1.31981 0.266079,0.368882 0.585827,0.706772 0.951685,1.01291 2.38564,1.99559 5.95427,1.67962 7.94986,-0.706016 1.99559,-2.38564 1.67962,-5.92403 -0.706016,-7.91962 -0.361323,-0.302362 -0.761197,-0.539717 -1.16636,-0.737008 0.43389,-0.139087 0.854929,-0.329575 1.25858,-0.582803 2.63509,-1.65241 3.43257,-5.16208 1.78091,-7.79717 -1.13613,-1.81115 -3.13172,-2.74243 -5.12655,-2.60863 -0.907087,0.0604724 -1.81644,0.343181 -2.63962,0.859465 -0.402898,0.251717 -0.760441,0.532157 -1.0749,0.859465 0.00151181,-0.454299 -0.0377953,-0.920693 -0.153449,-1.3818 -0.662173,-2.63962 -3.08863,-4.37972 -5.70935,-4.26633zm19.3693 0.736252c0,0 4.69644,0.982677 4.69644,0.982677 1.73783,2.39773 1.44302,6.27326 1.44302,11.6644 0,5.43723 -4.08265,7.5205 -4.08265,7.5205 0,-13.0681 -1.34702,-16.2096 -2.05682,-20.1676zm34.8404 0c-0.710551,3.95792 -2.05682,7.09946 -2.05682,20.1676 0,0 -4.08265,-2.08328 -4.08265,-7.5205 0,-5.39112 -0.294803,-9.26665 1.44227,-11.6644 0,0 4.69644,-0.982677 4.6972,-0.982677zm-53.8719 1.62746c2.03414,-0.087685 3.90501,1.26161 4.41978,3.31465 0.123213,0.489071 0.135307,0.969827 0.0922205,1.44302 -0.0355276,0.392315 -0.139843,0.748346 -0.275906,1.10513 -0.679559,-0.248693 -1.4143,-0.368882 -2.17928,-0.368882 -1.8943,0 -3.5898,0.833008 -4.75843,2.14904 -0.305386,-0.270614 -0.57222,-0.570709 -0.798236,-0.920693 -0.250205,-0.388535 -0.464126,-0.814866 -0.582803,-1.28957 -0.58885,-2.34633 0.845858,-4.72139 3.19219,-5.31024 0.293291,-0.0733228 0.599433,-0.110362 0.890457,-0.122457zm70.1405 1.81039c-7.2068,0 -12.48,5.55364 -11.7566,12.3711 0.610016,5.74715 5.28151,10.5645 11.0506,11.9403 -0.984945,-1.61083 -1.63956,-3.40687 -1.84214,-5.31024 -0.722646,-6.81751 4.55055,-12.3402 11.7566,-12.3402 1.13688,0 2.23672,0.141354 3.3154,0.399118 -2.5406,-4.16428 -7.32472,-7.06016 -12.5238,-7.06016zm-61.3614 1.56548c1.40825,0.047622 2.75754,0.776315 3.56031,2.05682 1.28504,2.05002 0.66822,4.7622 -1.38104,6.04724 -0.427843,0.268346 -0.885921,0.445984 -1.3508,0.552567 -0.387024,0.0891969 -0.781606,0.0808819 -1.16636,0.0612283 0.00151181,-0.0619843 0,-0.120945 0,-0.183685 0,-2.60863 -1.5685,-4.86274 -3.80598,-5.86356 0.157984,-0.382488 0.343937,-0.746835 0.613795,-1.07414 0.288756,-0.35074 0.636472,-0.665953 1.04391,-0.920693 0.768,-0.482268 1.64107,-0.703748 2.48617,-0.67578zm61.3614 0.982677c2.25562,0 4.42356,0.690898 6.29291,1.84139 -7.03294,1.36063 -12.0945,7.57266 -11.3575,14.8263 -2.24277,-1.8565 -3.88157,-4.35628 -4.17487,-7.12139 -0.571465,-5.38356 3.33959,-9.54633 9.23943,-9.54633zm-75.5127 2.63962c0.510992,0.0355276 0.969071,0.17537 1.41203,0.368882 0.355276,0.154205 0.682583,0.353008 0.982677,0.582803 -0.852661,1.09153 -1.3508,2.47106 -1.3508,3.96019 0,1.16787 0.312945,2.25033 0.859465,3.19219 -0.370394,0.232063 -0.759685,0.415748 -1.19735,0.521575 -0.423307,0.102803 -0.861732,0.154205 -1.31981,0.123213 -2.41285,-0.165543 -4.24743,-2.2526 -4.08265,-4.6662 0.165543,-2.41361 2.28359,-4.24743 4.69644,-4.08265zm7.42904 0.644787c2.34331,0 4.23609,1.92378 4.23609,4.26709 0,2.34331 -1.89279,4.23609 -4.23609,4.23609 -2.34331,0 -4.23609,-1.89279 -4.23609,-4.23609 0,-2.34331 1.89279,-4.26709 4.23609,-4.26709zm6.35414 4.88088c0.419528,0.0461102 0.823937,0.14589 1.22759,0.306898 0.418016,0.166299 0.832252,0.370394 1.19735,0.675024 1.85499,1.55263 2.07345,4.31471 0.521575,6.17046 -1.55187,1.85499 -4.31471,2.10444 -6.1697,0.551811 -0.391559,-0.327307 -0.676535,-0.720378 -0.921449,-1.13537 -0.194268,-0.330331 -0.322016,-0.681827 -0.429354,-1.04391 2.46954,-0.713575 4.31924,-2.89058 4.57398,-5.52491zm-11.6651 2.94652c1.14671,1.69852 3.1045,2.82406 5.31099,2.82406 0.464126,0 0.91389,-0.0597165 1.35005,-0.153449 0.0922205,0.402142 0.148157,0.808819 0.123213,1.22759 -0.0279685,0.455055 -0.0967559,0.904063 -0.276661,1.3508 -0.902551,2.24428 -3.46507,3.32825 -5.70935,2.42494 -2.24428,-0.902551 -3.35849,-3.46507 -2.45594,-5.70935 0.182929,-0.452787 0.435402,-0.84737 0.737008,-1.19735 0.266079,-0.308409 0.583559,-0.552567 0.920693,-0.767244zm32.1086 10.4368c-3.93827,0 -6.44636,0.83074 -6.44636,2.02583 0,1.19584 2.50809,1.99559 6.44636,1.99559 1.04844,0 2.2405,-0.610772 2.2405,-1.99559 0,-1.38406 -1.19206,-2.02583 -2.2405,-2.02583zm15.1945 0c-1.04844,0 -2.24126,0.641764 -2.24126,2.02583 0,1.38482 1.19282,1.99559 2.24126,1.99559 3.93751,0 6.44636,-0.799748 6.44636,-1.99559 0,-1.19509 -2.50885,-2.02583 -6.44636,-2.02583z"/>
    <path id="rect2189" class="fil4" d="M534.104 231.164c0,0 5.21802,3.91483 5.21802,7.88863l0 82.2652 0 12.4626c0,2.49676 0.771024,4.12195 1.99559,5.71011 1.22381,1.71061 3.83169,4.07433 6.53783,5.83181 8.3588,5.42891 22.3347,11.1526 32.9068,15.9625 8.81083,4.00781 12.3938,5.62469 16.9746,11.2955 4.58003,-5.6708 8.19402,-7.28769 17.0056,-11.2955 10.5721,-4.80983 24.5473,-10.5335 32.9061,-15.9625 2.7069,-1.75748 5.31477,-4.1212 6.53858,-5.83181 1.22381,-1.58816 1.9646,-3.21335 1.9646,-5.71011l0 -12.4626 0 -82.2652c0,-3.9738 5.21802,-7.88863 5.21802,-7.88863l-5.55591 0 -3.25342 0 -54.8236 0 -54.8236 0 -3.25342 0 -5.55591 0zm6.69128 3.00775l2.11805 0 54.8236 0 54.8236 0 2.11729 0c0,0 -1.53449,1.84743 -1.53449,4.88088l0 82.2652c0,0 0,12.4626 0,12.4626 0,2.06816 -2.1445,6.91124 -14.5194,13.0772 -20.4533,10.1911 -36.1754,14.9503 -40.8869,20.7504 -4.71231,-5.80006 -20.4336,-10.5592 -40.8869,-20.7504 -12.3749,-6.16592 -14.5194,-11.009 -14.5194,-13.0772 0,0 0,-12.4626 0,-12.4626l0 -82.2652c0,-3.03345 -1.53524,-4.88088 -1.53524,-4.88088z"/>
    <path id="path2193" class="fil3" d="M594.882 173.289c0.00226772,1.85348 -1.97669,3.35546 -4.41827,3.35546 -2.44157,0 -4.42054,-1.50198 -4.42054,-3.35546 0,-1.85272 1.97896,-3.35546 4.42054,-3.35546 2.44157,0 4.42054,1.50274 4.42054,3.35546l-0.00226772 0z" sodipodi:type="arc" sodipodi:cx="251.8125" sodipodi:cy="190.86218" sodipodi:rx="1.3125" sodipodi:ry="1.3125"/>
    <path id="path2192" class="fil6" d="M569.26 171.349c0,0 1.45058,-2.7462 5.11824,-2.7462 1.53222,0 6.58998,-0.105827 6.58998,-0.105827 0.674268,1.75219 3.74778,4.6783 3.74778,7.72157 0,0 -3.11887,-5.62243 -11.8261,-5.62243 -2.18759,0 -3.62986,0.752882 -3.62986,0.752882z" sodipodi:nodetypes="csccsc"/>
    <path id="path2194" class="fil3" d="M580.477 172.12c0,0 -2.13921,-0.686362 -2.13921,-1.40523 0,-0.914646 1.03937,-0.914646 1.65997,-0.202583 0.428598,0.491339 0.479244,1.60781 0.479244,1.60781z" sodipodi:nodetypes="cssc"/>
    <path id="path2196" class="fil6" d="M583.414 177.295c0,0 -1.85499,1.95326 -2.25713,2.9949 -1.83534,-0.694677 -5.03584,-3.99345 -5.03584,-3.99345 0,0 2.71294,1.58438 7.29298,0.998551z" sodipodi:nodetypes="cccc"/>
    <g id="g2348">
     <path id="path2206" class="fil3" d="M719.999 275.06l-6.81449 4.97235 0.767244 1.62671c0,0 -1.24724,0.428598 -1.81115,1.53524 -0.563906,1.10665 0.368882,2.67061 0.368882,2.67061 0,0 -6.47811,-0.565417 -7.49027,0.0922205 -0.915402,0.594142 0.388535,5.08195 -0.214677,8.87055 -0.840567,5.28302 -2.92309,4.83931 -3.0085,5.86356 -0.0823937,0.994016 0.798236,2.5474 0.798236,2.5474 0,0 -1.21474,0.382488 -1.47326,0.890457 -0.416504,0.817134 0.290268,2.3229 -0.214677,3.31465 -2.81802,5.5302 -6.97928,13.6932 -9.73077,19.0934 -0.384756,0.754394 -1.41732,1.04239 -1.93361,2.05682 -0.477732,0.936567 -0.0922205,2.30173 -0.0922205,2.30173 0,0 -1.82324,0.10885 -2.45594,1.3508 -0.672,1.31981 -0.275906,3.09997 -0.275906,3.09997 0,0 -1.15351,0.148157 -1.71969,1.25858 -0.604724,1.18828 0.420283,1.81039 0.154205,2.33348 -3.69789,7.25669 -8.05569,15.8105 -10.7134,21.0263 -0.977386,1.91849 -4.39861,2.30324 -6.38438,6.20069 -1.9268,3.7818 0.828472,6.56882 0.828472,6.56882 0,0 -2.86186,0.25852 -3.6223,1.74992 -0.774803,1.52088 -0.161008,3.82866 1.90337,4.88088 2.06438,1.05146 4.32076,0.200315 5.09556,-1.31981 0.759685,-1.4914 -0.767244,-3.96019 -0.767244,-3.96019 0,0 3.87477,0.558614 5.80157,-3.22318 1.98576,-3.89745 0.311433,-6.8606 1.28882,-8.77909 2.65776,-5.21575 7.01556,-13.7696 10.7134,-21.0263 0.266079,-0.523087 1.35912,-0.0710551 1.9646,-1.25858 0.565417,-1.11118 0,-2.11805 0,-2.11805 0,0 1.69096,-0.737764 2.36296,-2.05682 0.633449,-1.24195 -0.337134,-2.79307 -0.337134,-2.79307 0,0 1.33342,-0.475465 1.81115,-1.41203 0.516283,-1.01443 0.136819,-2.00844 0.521575,-2.76283 2.7515,-5.40019 6.91351,-13.5632 9.73077,-19.0934 0.504945,-0.991748 2.13165,-1.33115 2.5474,-2.14828 0.259276,-0.507969 -0.153449,-1.71893 -0.153449,-1.71893 0,0 1.79225,-0.177638 2.54816,-0.829228 0.777827,-0.670488 -0.802772,-2.10822 2.97751,-5.89304 2.71068,-2.71521 7.08661,-4.31244 7.02917,-5.40321 -0.0627402,-1.20491 -4.32831,-6.10847 -4.32831,-6.10847 0,0 1.79981,-0.151181 2.36372,-1.25858 0.563906,-1.10665 0.184441,-2.39395 0.184441,-2.39395l1.78016 -0.306898 0 -8.4412zm-64.063 121.587c-0.873827,0.0884409 -1.41959,0.60548 -1.59572,0.951685 -0.268346,0.526866 -0.318236,1.24573 0,1.87238 0,0 -2.14828,-0.672 -2.88529,-0.306898 -0.693921,0.343937 0,10.4678 0,10.4678 0,0 8.57121,-5.40699 8.4412,-6.17046 -0.138331,-0.810331 -1.93361,-2.17928 -1.93361,-2.17928 0.693921,-0.111118 1.23515,-0.547276 1.5035,-1.07414 0.282709,-0.554079 0.319748,-2.13921 -1.62671,-3.13096 -0.729449,-0.371906 -1.37877,-0.482268 -1.90337,-0.43011z"/>
     <path id="path2220" class="fil4" d="M718.741 277.546l-3.99043 2.82406 2.02583 1.04391 2.02583 1.01291 -0.0612283 -4.88088zm-3.86797 4.69644c-0.723402,0.0498898 -1.3629,0.436157 -1.68794,1.07414 -0.520819,1.02198 -0.0151181,2.3297 1.13613,2.91628 1.15049,0.586583 2.48693,0.223748 3.00775,-0.798236 0.520819,-1.02123 0.0151181,-2.3297 -1.13537,-2.91628 -0.431622,-0.219213 -0.885921,-0.306142 -1.32057,-0.275906zm-7.5205 4.69644c-0.600189,0.00755906 -1.0371,0.0279685 -1.13537,0.0922205 -0.426331,0.276661 0.153449,3.92542 0.0309921,7.02917 -0.116409,2.92762 -1.05373,3.75231 -1.56548,4.75843 -0.473197,0.928252 -2.18003,2.02583 -2.18003,2.02583 0,0 1.41203,1.41203 1.41203,1.41203 0,0 0.918425,-1.43093 2.36372,-4.26709 1.70457,-3.34564 1.64939,-9.40724 2.14904,-9.73077 0.434646,-0.281197 3.99043,-1.16636 3.99043,-1.16636 0,0 -3.26249,-0.176126 -5.06532,-0.153449zm6.20069 0.829228c0,-0.000755906 -3.73871,0.717354 -4.26633,1.22759 -0.510992,0.494362 -0.285732,5.55742 -2.2715,9.45411 -1.64636,3.2315 -2.45594,4.42054 -2.45594,4.42054l1.01291 0.521575 1.01291 0.491339c0,0 0.471685,-1.31225 2.11805,-4.54299 1.98576,-3.89669 6.22413,-6.72454 6.32391,-7.42828 0.102047,-0.727181 -1.47402,-4.14463 -1.47402,-4.14387zm1.19735 0.490583c0,0 1.35383,3.41216 1.38104,3.9292 0.0325039,0.594142 -4.89449,4.11364 -6.59906,7.45928 -1.44529,2.83616 -2.05682,4.42054 -2.05682,4.42054 0,0 1.9646,0.306898 1.9646,0.306898 0,0 -0.135307,-2.01902 0.33789,-2.94728 0.511748,-1.00535 0.646299,-2.23672 2.94652,-4.05165 2.43931,-1.92378 5.73581,-3.60567 5.70935,-4.11364 -0.024189,-0.468661 -3.68353,-5.00334 -3.68353,-5.00334zm-11.1118 16.0849c-0.619087,0.0665197 -1.06961,0.459591 -1.31981,0.951685 -0.373417,0.731717 -0.171591,1.71137 -3.13096,7.5205 -1.29789,2.5474 -1.82098,3.57165 -3.22318,6.32315 -1.42639,2.79987 -3.49984,6.84548 -3.49984,6.84548 0,0 -0.703748,1.2926 0.614551,1.9646 1.3183,0.671244 1.90261,-0.67578 1.90261,-0.67578 0,0 2.07269,-4.04485 3.49984,-6.84472 1.4022,-2.75225 1.92529,-3.80674 3.22243,-6.35414 2.96013,-5.80913 3.86343,-6.20523 4.23609,-6.9377 0.401386,-0.786898 0.305386,-1.84517 -1.01291,-2.51717 -0.494362,-0.251717 -0.917669,-0.315969 -1.28882,-0.275906zm-12.7393 24.2192c-0.497386,0.0438425 -0.890457,0.253984 -1.07414,0.613795 -0.366614,0.719622 0.261543,1.77713 1.41203,2.36372 1.15049,0.586583 2.39622,0.473953 2.76283,-0.245669 0.366614,-0.719622 -0.29178,-1.77713 -1.44302,-2.36372 -0.575244,-0.293291 -1.15956,-0.411969 -1.6577,-0.368126zm-1.71893 3.53008c-0.825449,-0.0385512 -1.54507,0.247181 -1.84139,0.828472 -0.474709,0.931276 0.265323,2.26847 1.6577,2.97751 1.39238,0.709795 2.90192,0.532157 3.37663,-0.398362 0.473953,-0.931276 -0.265323,-2.26847 -1.6577,-2.97751 -0.522331,-0.266079 -1.03937,-0.406677 -1.53524,-0.43011zm-2.33272 4.38954c-0.497386,0.0438425 -0.891213,0.253984 -1.07414,0.613795 -0.366614,0.719622 0.260787,1.77713 1.41203,2.36372 1.15049,0.586583 2.39546,0.473953 2.76208,-0.245669 0.36737,-0.719622 -0.260787,-1.77713 -1.41128,-2.36372 -0.576,-0.293291 -1.19131,-0.411969 -1.68869,-0.368126zm-1.01291 3.77575c-0.727181,0.0944882 -1.07414,0.828472 -1.07414,0.828472 0,0 -7.46532,14.691 -10.0989,19.8607 -0.842079,1.6509 -4.38425,2.68044 -5.77134,5.40246 -1.3954,2.7394 -0.409701,5.30268 1.41203,6.23093 1.82249,0.929008 4.49764,0.253228 5.8938,-2.48617 1.38709,-2.72202 0.140598,-6.20674 0.981921,-7.85839 2.63433,-5.16964 10.0997,-19.8599 10.0997,-19.8599 0,0 0.73474,-1.29335 -0.583559,-1.9646 -0.329575,-0.167811 -0.616819,-0.185197 -0.859465,-0.153449zm-18.0185 33.8268c-0.838299,0.0226772 -1.58438,0.419528 -1.93361,1.10513 -0.55937,1.09757 0.080126,2.5595 1.44227,3.25417 1.36214,0.693921 2.94047,0.359811 3.49909,-0.737008 0.55937,-1.09682 -0.111118,-2.5595 -1.47326,-3.25342 -0.510236,-0.260787 -1.03181,-0.382488 -1.53449,-0.368882zm-11.8798 23.5442c-0.426331,0.0143622 -0.777827,0.148913 -0.920693,0.429354 -0.285732,0.561638 0.305386,1.44756 1.31981,1.9646 1.01518,0.517039 2.07798,0.469417 2.36372,-0.0922205 0.285732,-0.560882 -0.30463,-1.4468 -1.31981,-1.96384 -0.507213,-0.259276 -1.01594,-0.352252 -1.44302,-0.33789zm-3.49909 2.76283l0 7.24384 5.8938 -4.23609c0,0 -0.799748,-1.41128 -2.54816,-2.30173 -1.74841,-0.891213 -3.34564,-0.706016 -3.34564,-0.706016z"/>
    </g>
    <path id="path2191" class="fil4" d="M593.532 173.289c0.00151181,1.6955 -1.37348,3.06973 -3.06822,3.06973 -1.6955,0 -3.07049,-1.37424 -3.07049,-3.06973 0,-1.6955 1.37499,-3.06973 3.07049,-3.06973 1.69474,0 3.06973,1.37424 3.06973,3.06973l-0.00151181 0z" sodipodi:ry="1.3125" sodipodi:rx="1.3125" sodipodi:cy="190.86218" sodipodi:cx="251.8125" sodipodi:type="arc"/>
    <path id="path2189" class="fil3" d="M591.869 173.289c0.000755906,0.777071 -0.628913,1.4075 -1.40598,1.4075 -0.777071,0 -1.4075,-0.630425 -1.4075,-1.4075 0,-0.777071 0.630425,-1.40674 1.4075,-1.40674 0.777071,0 1.40674,0.629669 1.40674,1.40674l-0.000755906 0z" sodipodi:type="arc" sodipodi:cx="251.8125" sodipodi:cy="190.86218" sodipodi:rx="1.3125" sodipodi:ry="1.3125"/>
   </g>
  </g>
 </g>
</svg>