<?xml version="1.0" encoding="utf-8"?>
<!-- Generator: Adobe Illustrator 16.0.0, SVG Export Plug-In . SVG Version: 6.00 Build 0)  -->
<!DOCTYPE svg PUBLIC "-//W3C//DTD SVG 1.1//EN" "http://www.w3.org/Graphics/SVG/1.1/DTD/svg11.dtd">
<svg version="1.1" id="Layer_1" xmlns="http://www.w3.org/2000/svg" xmlns:xlink="http://www.w3.org/1999/xlink" x="0px" y="0px"
	 width="721px" height="504px" viewBox="0 0 721 504" style="enable-background:new 0 0 721 504;" xml:space="preserve">
<path style="fill:#000002;" d="M0,0h721v504H0V0z"/>
<path style="fill:#99E6FF;" d="M350,200.5C492,91.5,639,55.9,721,45v459H112c0.8-1.3,1.4-2.6,2.1-4C135.7,451.3,208,309.5,350,200.5
	z"/>
<path style="fill:#659900;" d="M721,74.3V504H207.9c7.9-16.3,84.1-171.5,205.1-270.5S648.3,93,721,74.3z"/>
<path style="fill:#1919A7;" d="M719.3,121.6l0.8,382.4H370.3c0,0,44.7-108.2,132.7-210.8S719.3,121.6,719.3,121.6z"/>
<path style="fill:#F5FFC7;" d="M114,70.9c14.8-10.1,33.4-14.2,51.1-11.7c1.2,0,2.1,0.8,3.1,1.5c-28.7,4.3-52.7,28.4-57.8,56.8
	c-3,16.6-0.5,34.4,8.1,49c10.4,18.2,28.9,31.6,49.7,34.9c-2.8,2.4-6.8,1.6-10.2,2c-16.7,1-33.7-4.3-47-14.4
	c-14.5-10.8-24.5-27.3-27.7-45.1c-1.9-12.1-1.4-24.9,2.9-36.6C91.1,92.6,101.2,79.8,114,70.9z"/>
</svg>
