<svg xmlns="http://www.w3.org/2000/svg" xml:space="preserve"
    width="100%" height="100%" version="1.1"
    style="shape-rendering:geometricPrecision; text-rendering:geometricPrecision; image-rendering:optimizeQuality; fill-rule:evenodd; clip-rule:evenodd"
    viewBox="0 0 2540 1524"
    xmlns:xlink="http://www.w3.org/1999/xlink">
    <!-- 
    SVG file from Wikipedia
    Free/Unlicensed
    Modified by Brett Tolbert <bretttolbert.com> 2026
    - Changed width and height to 100%
    - Changed CSS to explicit fill to make color parsing easier
    - Removed Corel bloat
    -->
 <g>
  <rect fill="#EE1F23" y="508" width="2540" height="508"/>
  <rect fill="#0F6938" y="1016" width="2540" height="508"/>
  <rect fill="#0F6938" width="2540" height="508"/>
  <circle fill="#EE1F23" cx="1270" cy="762" r="570.94"/>
  <circle fill="#EE1F23" cx="1270" cy="762" r="697.17"/>
  <path fill="black" d="M1769.55 313.04c-122.95,-136.71 -301.21,-222.68 -499.55,-222.68 -198.34,0 -376.6,85.97 -499.55,222.68 333.03,0 666.07,0 999.1,0z"/>
  <polygon fill="black" points="1269.85,1232.61 1211.83,1171.74 1153.79,1110.87 1269.85,1110.87 1385.92,1110.87 1327.88,1171.74 "/>
  <polygon fill="black" points="1269.85,1232.61 1211.83,1293.48 1153.79,1354.35 1269.85,1354.35 1385.92,1354.35 1327.88,1293.48 "/>
  <path fill="black" d="M1358.79 1325.89c-29.65,-31.09 -59.29,-62.18 -88.94,-93.28 -29.77,31.16 -60.02,62.02 -89.8,93.28 -24.53,-3.87 -48.53,-9.32 -71.91,-16.22 -20.93,-6.18 -41.37,-13.52 -61.22,-21.96 1.5,-12.98 2.8,-28.13 3.59,-44.65 4.16,-87.88 -6.37,-214.74 -79.04,-262.02 -74.25,-48.31 -180.98,-49.08 -245.08,-44 -20.39,-63.36 -29.39,-129.86 -26.94,-196.35 0.88,-24.08 3.29,-48.07 7.17,-71.85 5.77,-35.17 14.76,-69.26 26.65,-101.95 9.18,-0.56 18.42,-0.84 27.74,-0.84 55.06,0 107.82,9.83 156.64,27.83l22 -23.6c-45.45,-43.88 -98.16,-80.29 -156.15,-107.25 -30.79,-14.32 -63.07,-25.97 -96.55,-34.66 -28.45,49.61 -50.74,103.19 -65.85,159.71 -9.14,34.17 -15.65,69.41 -19.3,105.5 -34.86,344.23 198.44,665.11 546.11,728.99l-0.13 0.19c37.8,6.89 76.71,10.58 116.41,10.86l0.78 0.01 1.16 0 0.77 0.01 1.16 0 0.78 0 1.16 0 0.78 0 1.16 0 0.77 -0.01 1.16 0 0.78 -0.01c39.72,-0.26 78.62,-3.98 116.41,-10.86l-0.13 -0.19c347.67,-63.88 580.97,-384.76 546.11,-728.99 -3.65,-36.09 -10.16,-71.33 -19.3,-105.5 -15.11,-56.52 -37.4,-110.1 -65.85,-159.71 -33.48,8.69 -65.76,20.34 -96.55,34.66 -57.99,26.96 -110.7,63.37 -156.15,107.25l22 23.6c48.82,-18 101.58,-27.83 156.64,-27.83 9.32,0 18.56,0.28 27.74,0.84 11.89,32.69 20.88,66.78 26.65,101.95 3.88,23.78 6.29,47.77 7.17,71.85 2.45,66.49 -6.55,132.99 -26.94,196.35 -64.1,-5.08 -170.83,-4.31 -245.08,44 -72.67,47.28 -83.2,174.14 -79.04,262.02 0.79,16.52 2.09,31.67 3.59,44.65 -19.85,8.44 -40.29,15.78 -61.22,21.96 -23.38,6.9 -47.38,12.35 -71.91,16.22z"/>
  <path fill="#7688A1" d="M947.29 763.79c4.29,-21.6 18.06,-39.78 36.79,-50.03 -13.58,-6.68 -27.65,-12.75 -42.17,-18.16 -15.68,14.69 -27.17,33.8 -32.49,55.34 12.87,3.74 25.5,8.03 37.87,12.85z"/>
  <path fill="black" d="M1100.46 856.92c12.95,12.36 18.68,26.78 18.87,26.59l28.07 0c-7.68,-18.67 -16.96,-36.52 -27.66,-53.37 -8.58,-13.49 -18.06,-26.34 -28.38,-38.46 -11.51,-13.54 -18.92,-20.32 -32.94,-31.34l66.51 -79.26 -32.39 -27.17 -76.57 91.25 7.76 -9.25c-12.66,-7.98 -25.9,-15.38 -39.65,-22.15 -13.58,-6.68 -27.65,-12.75 -42.17,-18.16 -29.19,-10.88 -60.17,-19.08 -92.48,-24.24 -26,-4.15 -52.86,-6.32 -80.34,-6.32 -21.23,0 -42.09,1.3 -62.47,3.8 -1.42,8.7 -2.65,17.46 -3.68,26.28 -1.76,15.02 -2.93,30.22 -3.49,45.57 27.01,-5.02 54.88,-7.64 83.38,-7.64 43.97,0 86.45,6.25 126.59,17.89 -2.16,8.72 -3.3,17.84 -3.3,27.22 0,62.48 50.64,113.12 113.12,113.12 30.17,0 57.58,-11.81 77.86,-31.06 1.16,-1.1 2.29,-2.22 3.36,-3.3zm-15.35 -46.42c-4.32,8.87 -10.42,16.75 -17.86,23.13 -12.86,11.15 -29.65,17.89 -48.01,17.89 -40.52,0 -73.36,-32.84 -73.36,-73.36 0,-4.92 0.48,-9.72 1.41,-14.37 2.09,-10.5 6.41,-20.19 12.46,-28.56 13.66,4.6 26.93,10.05 39.76,16.27 -8.15,6.04 -13.43,15.73 -13.43,26.66 0,18.32 14.84,33.16 33.16,33.16 16.72,0 30.43,-12.22 32.8,-28.27 11.6,8.46 22.64,17.63 33.07,27.45z"/>
  <path fill="#FAE82F" d="M973.14 835.23c17.62,13.31 41.17,18.82 62.88,14.36 21.6,-5.05 39.52,-19.64 49.09,-39.09 -10.43,-9.82 -21.47,-18.99 -33.07,-27.45 -2.37,16.05 -16.08,28.27 -32.8,28.27 -18.32,0 -33.16,-14.84 -33.16,-33.16 0,-10.93 5.28,-20.62 13.43,-26.66 -12.83,-6.22 -26.1,-11.67 -39.76,-16.27 -6.05,8.36 -10.37,18.06 -12.46,28.56 -0.09,0.45 -0.17,0.89 -0.26,1.33 -0.75,4.23 -1.15,8.59 -1.15,13.04 0,23.06 10.63,43.62 27.26,57.07z"/>
  <polygon fill="black" points="1268.98,1232.61 1327.01,1293.48 1385.05,1354.35 1268.98,1354.35 1152.92,1354.35 1210.96,1293.48 "/>
  <path fill="#7688A1" d="M1591.55 763.79c-4.29,-21.6 -18.06,-39.78 -36.79,-50.03 13.58,-6.68 27.65,-12.75 42.17,-18.16 15.68,14.69 27.17,33.8 32.49,55.34 -12.87,3.74 -25.5,8.03 -37.87,12.85z"/>
  <path fill="black" d="M1438.38 856.92c-12.95,12.36 -18.68,26.78 -18.87,26.59l-28.07 0c7.68,-18.67 16.96,-36.52 27.66,-53.37 8.58,-13.49 18.06,-26.34 28.38,-38.46 11.51,-13.54 18.92,-20.32 32.94,-31.34l-66.51 -79.26 32.39 -27.17 76.57 91.25 -7.76 -9.25c12.66,-7.98 25.9,-15.38 39.65,-22.15 13.58,-6.68 27.65,-12.75 42.17,-18.16 29.19,-10.88 60.17,-19.08 92.48,-24.24 26,-4.15 52.86,-6.32 80.34,-6.32 21.23,0 42.09,1.3 62.47,3.8 1.42,8.7 2.65,17.46 3.68,26.28 1.76,15.02 2.93,30.22 3.49,45.57 -27.01,-5.02 -54.88,-7.64 -83.38,-7.64 -43.97,0 -86.45,6.25 -126.59,17.89 2.16,8.72 3.3,17.84 3.3,27.22 0,62.48 -50.64,113.12 -113.12,113.12 -30.17,0 -57.58,-11.81 -77.86,-31.06 -1.16,-1.1 -2.29,-2.22 -3.36,-3.3zm15.35 -46.42c4.32,8.87 10.42,16.75 17.86,23.13 12.86,11.15 29.65,17.89 48.01,17.89 40.52,0 73.36,-32.84 73.36,-73.36 0,-4.92 -0.48,-9.72 -1.41,-14.37 -2.09,-10.5 -6.41,-20.19 -12.46,-28.56 -13.66,4.6 -26.93,10.05 -39.76,16.27 8.15,6.04 13.43,15.73 13.43,26.66 0,18.32 -14.84,33.16 -33.16,33.16 -16.72,0 -30.43,-12.22 -32.8,-28.27 -11.6,8.46 -22.64,17.63 -33.07,27.45z"/>
  <path fill="#FAE82F" d="M1565.7 835.23c-17.62,13.31 -41.17,18.82 -62.88,14.36 -21.6,-5.05 -39.52,-19.64 -49.09,-39.09 10.43,-9.82 21.47,-18.99 33.07,-27.45 2.37,16.05 16.08,28.27 32.8,28.27 18.32,0 33.16,-14.84 33.16,-33.16 0,-10.93 -5.28,-20.62 -13.43,-26.66 12.83,-6.22 26.1,-11.67 39.76,-16.27 6.05,8.36 10.37,18.06 12.46,28.56 0.09,0.45 0.17,0.89 0.26,1.33 0.75,4.23 1.15,8.59 1.15,13.04 0,23.06 -10.63,43.62 -27.26,57.07z"/>
 </g>
</svg>