<?xml version="1.0" encoding="UTF-8" standalone="no"?>
<!-- Created with Inkscape (http://www.inkscape.org/) -->
<svg xmlns:svg="http://www.w3.org/2000/svg" xmlns="http://www.w3.org/2000/svg" version="1.0" width="1000" height="500" viewBox="0 0 200 100" id="svg11581">
  <defs id="defs11583"/>
  <g id="layer1">
    <rect width="200" height="100" x="0" y="0" style="opacity: 1; fill: rgb(22, 23, 150); fill-opacity: 1; fill-rule: evenodd; stroke: none; stroke-width: 1.403; stroke-linecap: square; stroke-miterlimit: 4; stroke-dasharray: none; stroke-opacity: 1;" id="rect11593"/>
    <path d="M 53,0 L 153,0 L 153,100 L 53,0 z " style="fill: rgb(255, 205, 0); fill-opacity: 1; fill-rule: evenodd; stroke: none; stroke-width: 1px; stroke-linecap: butt; stroke-linejoin: miter; stroke-opacity: 1;" id="path11595"/>
    <path d="M 81.53125,51.125 L 85,51.125 L 88.46875,51.125 L 90.58396,57.685662 L 85,53.625 L 79.41604,57.685661 L 81.53125,51.125 z " transform="translate(-50, -51.125)" style="fill: rgb(255, 255, 255); fill-opacity: 1; fill-rule: evenodd; stroke: none; stroke-width: 1px; stroke-linecap: butt; stroke-linejoin: miter; stroke-opacity: 1;" id="path11682"/>
    <path d="M 81.53125,51.125 L 75.964963,47.064338 L 82.875,47.0625 L 85,40.5 L 87.125,47.0625 L 94.035037,47.064339 L 88.46875,51.125 L 85,51.125 L 81.53125,51.125 z " transform="translate(50, 48.875)" style="fill: rgb(255, 255, 255); fill-opacity: 1; fill-rule: evenodd; stroke: none; stroke-width: 1px; stroke-linecap: butt; stroke-linejoin: miter; stroke-opacity: 1;" id="path11689"/>
    <path d="M 79.41604,57.685661 L 85,40.5 L 90.58396,57.685662 L 75.964963,47.064338 L 94.035037,47.064339 L 79.41604,57.685661 z " transform="translate(-37.5, -38.625)" style="fill: rgb(255, 255, 255); fill-opacity: 1; fill-rule: nonzero; stroke: none; stroke-width: 1px; stroke-linecap: butt; stroke-linejoin: miter; stroke-opacity: 1;" id="path11746"/>
    <path d="M 79.41604,57.685661 L 85,40.5 L 90.58396,57.685662 L 75.964963,47.064338 L 94.035037,47.064339 L 79.41604,57.685661 z " transform="translate(-25, -26.125)" style="fill: rgb(255, 255, 255); fill-opacity: 1; fill-rule: nonzero; stroke: none; stroke-width: 1px; stroke-linecap: butt; stroke-linejoin: miter; stroke-opacity: 1;" id="path11754"/>
    <path d="M 79.41604,57.685661 L 85,40.5 L 90.58396,57.685662 L 75.964963,47.064338 L 94.035037,47.064339 L 79.41604,57.685661 z " transform="translate(-12.5, -13.625)" style="fill: rgb(255, 255, 255); fill-opacity: 1; fill-rule: nonzero; stroke: none; stroke-width: 1px; stroke-linecap: butt; stroke-linejoin: miter; stroke-opacity: 1;" id="path11762"/>
    <path d="M 79.41604,57.685661 L 85,40.5 L 90.58396,57.685662 L 75.964963,47.064338 L 94.035037,47.064339 L 79.41604,57.685661 z " transform="translate(0, -1.125)" style="fill: rgb(255, 255, 255); fill-opacity: 1; fill-rule: nonzero; stroke: none; stroke-width: 1px; stroke-linecap: butt; stroke-linejoin: miter; stroke-opacity: 1;" id="path11770"/>
    <path d="M 79.41604,57.685661 L 85,40.5 L 90.58396,57.685662 L 75.964963,47.064338 L 94.035037,47.064339 L 79.41604,57.685661 z " transform="translate(12.5, 11.375)" style="fill: rgb(255, 255, 255); fill-opacity: 1; fill-rule: nonzero; stroke: none; stroke-width: 1px; stroke-linecap: butt; stroke-linejoin: miter; stroke-opacity: 1;" id="path11778"/>
    <path d="M 79.41604,57.685661 L 85,40.5 L 90.58396,57.685662 L 75.964963,47.064338 L 94.035037,47.064339 L 79.41604,57.685661 z " transform="translate(25, 23.875)" style="fill: rgb(255, 255, 255); fill-opacity: 1; fill-rule: nonzero; stroke: none; stroke-width: 1px; stroke-linecap: butt; stroke-linejoin: miter; stroke-opacity: 1;" id="path11786"/>
    <path d="M 79.41604,57.685661 L 85,40.5 L 90.58396,57.685662 L 75.964963,47.064338 L 94.035037,47.064339 L 79.41604,57.685661 z " transform="translate(37.5, 36.375)" style="fill: rgb(255, 255, 255); fill-opacity: 1; fill-rule: nonzero; stroke: none; stroke-width: 1px; stroke-linecap: butt; stroke-linejoin: miter; stroke-opacity: 1;" id="path11794"/>
  </g>
</svg>