<svg xmlns="http://www.w3.org/2000/svg" width="2560" height="1707" viewBox="0 0 2560 1707" version="1.1"><path d="M 349.022 674.721 C 336.721 712.549, 324.015 751.710, 320.785 761.745 L 314.914 779.989 224.541 780.245 L 134.169 780.500 207.084 833.417 C 247.188 862.522, 280 886.516, 280 886.737 C 280 886.958, 267.411 925.893, 252.025 973.261 C 236.639 1020.628, 224.151 1059.470, 224.275 1059.576 C 224.399 1059.682, 256.675 1036.380, 296 1007.795 C 335.325 979.210, 368.463 955.168, 369.639 954.368 C 371.668 952.990, 375.549 955.651, 444.976 1006.037 C 485.235 1035.254, 518.351 1058.982, 518.567 1058.766 C 518.784 1058.549, 506.400 1019.709, 491.049 972.453 C 475.697 925.197, 463.481 886.301, 463.903 886.017 C 464.324 885.733, 497.209 861.875, 536.980 833 L 609.290 780.500 519.121 780.245 L 428.952 779.989 427.970 777.745 C 427.430 776.510, 414.795 737.925, 399.894 692 C 384.992 646.075, 372.482 607.924, 372.094 607.221 C 371.705 606.516, 361.341 636.839, 349.022 674.721" stroke="none" fill="#ffffff" fill-rule="evenodd"/><path d="M 0 853.474 L 0 1706.496 94.504 1611.998 C 675.158 1031.378, 852.034 854.387, 852.248 853.761 C 852.386 853.354, 660.688 661.194, 426.250 426.737 L 0 0.453 0 853.474 M 349.022 674.721 C 336.721 712.549, 324.015 751.710, 320.785 761.745 L 314.914 779.989 224.541 780.245 L 134.169 780.500 207.084 833.417 C 247.188 862.522, 280 886.516, 280 886.737 C 280 886.958, 267.411 925.893, 252.025 973.261 C 236.639 1020.628, 224.151 1059.470, 224.275 1059.576 C 224.399 1059.682, 256.675 1036.380, 296 1007.795 C 335.325 979.210, 368.463 955.168, 369.639 954.368 C 371.668 952.990, 375.549 955.651, 444.976 1006.037 C 485.235 1035.254, 518.351 1058.982, 518.567 1058.766 C 518.784 1058.549, 506.400 1019.709, 491.049 972.453 C 475.697 925.197, 463.481 886.301, 463.903 886.017 C 464.324 885.733, 497.209 861.875, 536.980 833 L 609.290 780.500 519.121 780.245 L 428.952 779.989 427.970 777.745 C 427.430 776.510, 414.795 737.925, 399.894 692 C 384.992 646.075, 372.482 607.924, 372.094 607.221 C 371.705 606.516, 361.341 636.839, 349.022 674.721" stroke="none" fill="#0f47af" fill-rule="evenodd"/><path d="M 284 284.500 L 378.496 379 1469.248 379 L 2560 379 2560 284.500 L 2560 190 1374.752 190 L 189.504 190 284 284.500 M 663.500 664 L 758.496 759 1659.248 759 L 2560 759 2560 664 L 2560 569 1564.252 569 L 568.504 569 663.500 664 M 663.500 1043 L 568.504 1138 1564.252 1138 L 2560 1138 2560 1043 L 2560 948 1659.248 948 L 758.496 948 663.500 1043 M 284 1422.500 L 189.504 1517 1374.752 1517 L 2560 1517 2560 1422.500 L 2560 1328 1469.248 1328 L 378.496 1328 284 1422.500" stroke="none" fill="#cc0504" fill-rule="evenodd"/><path d="M 8.825 8.750 C 13.248 13.563, 55.716 56.313, 103.197 103.750 L 189.527 190 1374.764 190 L 2560 190 2560 95 L 2560 0 1280.392 0 L 0.784 0 8.825 8.750 M 380 379.752 C 380 380.166, 422.413 422.916, 474.252 474.752 L 568.504 569 1564.252 569 L 2560 569 2560 474 L 2560 379 1470 379 C 870.500 379, 380 379.338, 380 379.752 M 805.753 806.253 L 852.997 853.505 805.750 900.753 L 758.503 948 1659.251 948 L 2560 948 2560 853.500 L 2560 759 1659.254 759 L 758.508 759 805.753 806.253 M 474.248 1232.252 C 422.412 1284.091, 380 1326.841, 380 1327.252 C 380 1327.663, 870.500 1328, 1470 1328 L 2560 1328 2560 1233 L 2560 1138 1564.248 1138 L 568.496 1138 474.248 1232.252 M 94.511 1611.998 L -0.500 1706.997 1279.583 1706.998 C 1983.629 1706.999, 2559.854 1706.813, 2560.083 1706.583 C 2560.312 1706.354, 2560.383 1663.604, 2560.240 1611.583 L 2559.980 1517 1374.751 1517 L 189.522 1517 94.511 1611.998" stroke="none" fill="#fbd50c" fill-rule="evenodd"/></svg>