<?xml version="1.0" encoding="UTF-8" standalone="no"?>
<!-- Created with Inkscape (http://www.inkscape.org/) -->

<svg
   version="1.0"
   width="1200"
   height="750"
   id="svg548"
   sodipodi:version="0.32"
   inkscape:version="1.1.2 (0a00cf5339, 2022-02-04)"
   sodipodi:docname="Flag_of_the_Syriac-Aramaic_People.svg"
   xmlns:inkscape="http://www.inkscape.org/namespaces/inkscape"
   xmlns:sodipodi="http://sodipodi.sourceforge.net/DTD/sodipodi-0.dtd"
   xmlns="http://www.w3.org/2000/svg"
   xmlns:svg="http://www.w3.org/2000/svg"
   xmlns:rdf="http://www.w3.org/1999/02/22-rdf-syntax-ns#"
   xmlns:cc="http://creativecommons.org/ns#"
   xmlns:dc="http://purl.org/dc/elements/1.1/">
  <defs
     id="defs9" />
  <metadata
     id="metadata2203">
    <rdf:RDF>
      <cc:Work
         rdf:about="">
        <dc:format>image/svg+xml</dc:format>
        <dc:type
           rdf:resource="http://purl.org/dc/dcmitype/StillImage" />
      </cc:Work>
    </rdf:RDF>
  </metadata>
  <sodipodi:namedview
     inkscape:window-height="579"
     inkscape:window-width="980"
     inkscape:pageshadow="2"
     inkscape:pageopacity="0.0"
     borderopacity="1.0"
     bordercolor="#666666"
     pagecolor="#ffffff"
     id="base"
     inkscape:zoom="0.22214938"
     inkscape:cx="328.60772"
     inkscape:cy="742.74347"
     inkscape:window-x="0"
     inkscape:window-y="0"
     inkscape:current-layer="svg548"
     showguides="true"
     inkscape:guide-bbox="true"
     width="1200px"
     height="600px"
     inkscape:pagecheckerboard="0"
     showgrid="false"
     inkscape:window-maximized="0" />
  <rect
     style="fill:#d91616;fill-opacity:1"
     width="1200"
     height="750"
     x="0"
     y="0"
     id="rect4" />
  <path
     style="fill:#ffec1a;fill-opacity:1"
     d="m 643.02012,532.89307 -1.87731,-60.49999 -8.92478,1.71256 1.30209,59.78744 z m -22.26441,-57.2644 -10.48559,1.25965 0,57.00476 13.20514,0 z m 3.33786,-15.12687 -6.93954,-32.4341 -8.02401,2.25758 3.31675,34.18896 z m 45.64762,-5.01147 -4.03032,-8.51073 -8.11534,5.69472 3.16161,7.42696 z m -25.99678,-4.02747 -9.23354,-29.57903 -9.99923,3.80193 8.00847,31.64102 z m 49.77571,-6.18759 -6.93033,-11.88219 -11.99422,7.7182 4.42734,9.9737 z m -31.5,-6.7155 -11.26606,-27.36861 -7.84838,6.45192 11.013,27.47082 z m 53.85798,0.0629 -12.05603,-15.81018 -11.4977,6.46206 8.89629,13.02277 z m 267.81702,0.88779 -104.925,-57.51257 -18.625,5.51853 87.41759,53.37671 z m 44.89998,-9.01742 -121.73041,-58.51903 -20.42526,6.91174 112.34257,59.82512 z m -179.38501,-40.90684 -16.88444,3.21708 63.07658,44.78977 37.36789,2.14101 z m 28.29021,46.94865 -58.04487,-41.72042 -21.29436,3.78729 45.27678,36.39702 z m -128.1999,-2.39172 -22.03028,-23.29191 -12.99636,6.00553 15.93186,19.39931 z m 79.09473,0.1275 -43.92119,-33.97941 -15.66667,2.45052 34.96285,32.11908 z m -73.48959,-29.14704 -15.18973,3.37378 24.56983,26.39576 21.48448,-0.1437 z m -72.08707,21.43089 -17.90898,-26.94444 -8.32603,6.11538 13.68666,29.19699 z m 372.83013,-12.51542 -123.68647,-53.16982 -17.78397,8.49996 122.37904,57.44848 z m -357.62848,1.53211 -18.91935,-26.69872 -9.45791,6.4807 17.70334,26.34875 z m -83.01196,0.95005 -6.23212,-35.16774 -4.25528,0.66465 3.38017,36 z m 16.52813,-4.64424 -10.29318,-34.76086 -6.7967,3.02701 8.59777,34.22423 z m 89.00427,-8.77194 -23.59833,-25.21191 -9.42211,6.42464 21.73853,24.95108 z m -74.60498,0.001 -13.83582,-31.73831 -4.75635,4.27512 12.92403,30.7023 z m 427.64052,-17.59215 -116.82529,-40.20176 -15.09656,10.44683 121.13225,49.13614 z m -328.57819,9.60945 -29.11128,-26.72224 -10.86302,5.18022 26.7134,25.19649 z m -85.82129,-6.64858 -16.43676,-24.05871 -4.99869,3.57139 14.03463,28.9697 z m 110.19519,1.06663 -34.57347,-27.0666 -11.18039,3.34463 33.13662,26.92012 z m 14.23084,-2.07702 17.33918,-3.17505 -39.33572,-27.81255 -15.02479,2.89278 z m -112.18615,-9.01989 -18.05805,-24.35488 -6.23171,6.63334 16.43157,23.17014 z m 160.33357,0.58205 -45.02059,-25.97753 -13.73151,1.25489 42.66924,27.91186 z m 246.82593,-0.8145 5.8967,-17.86641 -109.31511,-30.45254 -13.39308,11.63826 z m -217.07394,-5.56895 -43.84576,-23.55564 -15.06654,2.2707 41.74545,24.85676 z m -174.38983,-6.01461 -21.91778,-23.92211 -7.49151,7.0379 19.93146,23.57526 z m 202.85767,-2.15644 -42.69978,-20.64674 -20.63125,3.42444 43.88125,22.6505 z m -185.94978,-7.72112 -26.12443,-23.81013 -6.11849,4.31511 22.30227,25.54127 z m 213.19725,-1.81336 -41.44725,-17.67355 -17.25,4.61018 41.63079,19.39749 z m -195.46524,-4.28454 -27.72018,-23.93546 -9.97857,3.09262 27.77276,24.77229 z m 369.91047,-17.61746 -103.38241,-20.66346 -8.72498,12.11019 107.27299,27.60314 z m -151.73317,7.16683 -35.15006,-12.20587 -17.74267,6.39657 38.67719,16.08936 z m -192.53999,6.33069 -33.7752,-24.97872 -11.70415,2.21558 29.83305,24.60428 z m 22.27221,-2.5117 -35.61339,-26.2377 -12.49863,2.15869 34.7052,25.13855 z m 29.69601,-3.41019 -44.77297,-26.76762 -13.54613,1.86688 42.24116,26.59571 z m 29.46551,-4.45309 -50.7837,-27.24926 -13.6205,2.706 49.75004,27.03819 z m 129.20232,-11.18371 -34.99629,-10.09246 -11.98047,9.66977 35.97187,11.34139 z m -98.75537,5.64299 -55.65519,-22.59563 -14.84481,1.29994 53.25,24.82495 z m 28.5,-8.724 -52.03495,-17.3078 -19.83323,2.0578 54.63585,20.13157 z m -207,-2.42129 20.04884,-8.42473 -0.42447,-33.65427 -33.43232,18.4522 -0.10905,30.87441 13.91703,-7.24789 z M 1096.72,306.6129 995.91019,293.89188 l -4.25046,11.33135 102.26287,17.45305 z m -124.43131,2.67532 -36.19529,-6.39514 -6.81813,8.12549 34.24485,8.36741 z m -64.81908,1.55435 -44.69373,-11.51006 -14.75576,4.13227 46.08542,15.57583 z m 14.80051,-10.69864 -35.13042,-8.25425 -11.65822,4.46475 38.66083,10.78965 z m -206.51628,6.40852 31.76628,-3.89816 0,-35.91017 -33.75,5.46422 z m 264.71387,-14.70536 -36.39654,-4.53493 -4.25948,9.11075 36.80916,6.36619 z m -181.94759,6.3072 0,-29.46666 -38.33137,-2.22728 1.00777,34.93273 z m 44.3651,-4.78494 0.0849,-23.55123 -30.83495,-1.19877 0,27 z m 259.55538,-20.47627 -102.66555,-2.94807 -1.64439,14.02344 101.45124,10.04274 z m -200.69624,8.98586 -7.33039,5.77936 33.95913,6.23478 4.92481,-8.32157 z m -34.85914,5.5999 c 12.23097,-3.56224 20.59176,-8.10547 25.37296,-13.78763 2.20019,-2.61476 3.35676,-5.39769 3.35676,-5.39769 l -41.40942,1.13313 0.21225,21.43133 c 0,0 7.51745,-1.93746 12.46745,-3.37914 z m 120.31591,-17.58576 -35.24427,-1.91098 -3.43674,10.19098 35.55207,4.04706 z m -49.86105,7.63416 3.46014,-8.95101 -32.41695,-1.19223 -1.53979,7.00452 z M 505.5,538.5 l 178.5,0 0,55.5 -178.5,0 z m 171,10.5 -163.5,0 0,35.89407 163.5,0.057 z m -88.5,-70.5 13.56619,0 -0.81619,56.25 -12.75,0.32416 z m -42.5,54.5 1.87731,-60.5 8.92478,1.71256 L 555,534 z m 22.26441,-57.26441 10.48559,1.25965 0,57.00476 -13.20513,0 z M 586.5,430.5 l 16.5,0 1.94466,36 -20.38929,0 z m -22.07345,30.10872 6.93954,-32.4341 8.02401,2.25758 -3.31675,34.18896 z m -45.64762,-5.01147 4.03032,-8.51073 8.11534,5.69472 -3.1616,7.42696 z m 25.99678,-4.02747 9.23354,-29.57903 9.99924,3.80193 -8.00847,31.64102 z M 495,445.38219 501.93033,433.5 l 11.99423,7.7182 -4.42734,9.9737 z m 31.5,-6.7155 11.26607,-27.36861 7.84837,6.45192 -11.013,27.47082 z m -53.85798,0.0628 12.05604,-15.81018 11.49769,6.46206 -8.89629,13.02278 z M 204.825,439.61733 309.75,382.10477 328.375,387.62329 240.95742,441 z m -44.89997,-9.01742 121.7304,-58.51903 20.42526,6.91174 -112.34257,59.82512 z m 179.38501,-40.90684 16.88443,3.21708 -63.07657,44.78977 -37.3679,2.14101 z m -28.29021,46.94865 58.04487,-41.72042 21.29435,3.78729 -45.27677,36.39702 z M 439.21973,434.25 461.25,410.95809 l 12.99636,6.00553 -15.93186,19.39931 z m -79.09473,0.1275 43.92118,-33.97941 15.66668,2.45052 -34.96286,32.11908 z m 73.48959,-29.14704 15.18973,3.37378 L 424.23448,435 402.75,434.8563 z m 72.08707,21.43089 17.90898,-26.94444 8.32602,6.11538 -13.68666,29.19699 z m -372.83017,-12.51542 123.6865,-53.16982 17.78397,8.49996 -122.379,57.44848 z m 357.62851,1.53211 18.91935,-26.69872 9.45792,6.4807 -17.70335,26.34875 z m 83.01197,0.95005 6.23212,-35.16774 4.25527,0.66465 -3.38017,36 z m 16.13707,-33.58084 9.96189,0.17865 2.32927,35.2741 -14.38485,0 z m -32.6652,28.9366 10.29318,-34.76086 6.7967,3.02701 -8.59778,34.22423 z M 467.97957,403.21191 491.5779,378 501,384.42464 479.26148,409.37572 z m 74.60497,0.001 13.83582,-31.7383 4.75636,4.27512 -12.92403,30.7023 z m -427.64047,-17.5921 116.82525,-40.20175 15.09655,10.44682 -121.13226,49.13614 z m 328.57815,9.60945 29.11128,-26.72225 10.86301,5.18022 -26.71339,25.19649 z m 85.82129,-6.64859 16.43675,-24.05871 4.99869,3.5714 -14.03463,28.96969 z m -110.19519,1.06664 34.57346,-27.0666 11.18039,3.34462 -33.13662,26.92013 z m -14.23085,-2.07702 -17.33918,-3.17505 39.33572,-27.81255 15.02479,2.89278 z m 112.18615,-9.01989 18.05806,-24.35489 6.2317,6.63335 L 524.96181,384 z m -160.33357,0.58204 45.0206,-25.97752 13.7315,1.25488 -42.66924,27.91187 z m -246.82592,-0.8145 -5.89667,-17.8664 L 213.36253,330 l 13.39308,11.63826 z m 217.07393,-5.56894 43.84577,-23.55564 15.06654,2.2707 -41.74545,24.85676 z m 174.38983,-6.01461 21.91778,-23.92211 7.49151,7.0379 -19.93146,23.57526 z M 298.55022,364.57894 341.25,343.93221 361.88125,347.35665 318,370.00714 z m 277.96553,4.44863 c -18.35637,-3.89571 -31.92174,-14.92227 -37.95728,-30.85344 -2.43424,-6.42531 -3.60835,-13.50459 -4.19317,-25.28252 -0.77213,-15.55009 -0.67151,-16.31824 2.03622,-15.54579 1.56666,0.44693 8.92348,2.7153 16.34848,5.04084 12.82113,4.01564 14.93318,4.22826 42,4.22826 27.06683,0 29.17887,-0.21262 42,-4.22826 7.425,-2.32554 14.78183,-4.59391 16.34849,-5.04084 2.70772,-0.77245 2.80834,-0.005 2.03622,15.54579 -1.05989,21.34542 -4.71908,31.3884 -15.28688,41.95622 -10.75267,10.75267 -20.83345,14.41738 -41.34783,15.03139 -8.6625,0.25928 -18.5554,-0.1239 -21.98425,-0.85165 z M 484.5,356.85783 l 26.12443,-23.81013 6.11849,4.31511 -22.30227,25.54127 z M 271.30275,355.04447 312.75,337.37092 330,341.9811 288.36921,361.37859 z m 195.46524,-4.28454 27.72018,-23.93546 9.97857,3.09263 -27.77276,24.77228 z M 96.857537,333.14247 200.23994,312.47901 l 8.72497,12.11019 -107.273,27.60314 z m 151.733163,7.16683 35.15005,-12.20587 17.74268,6.39657 -38.67719,16.08936 z m 192.53998,6.33069 33.7752,-24.97872 11.70416,2.21558 -29.83305,24.60428 z m -22.27221,-2.5117 35.61339,-26.2377 12.49863,2.15869 -34.7052,25.13855 z m -29.69601,-3.41019 44.77298,-26.76762 13.54612,1.86688 -42.24116,26.59571 z m -29.46551,-4.4531 50.78371,-27.24925 13.62049,2.706 -49.75004,27.03819 z M 230.49464,325.0813 265.49092,314.98884 277.4714,324.6586 241.49952,336 z m 98.75536,5.64299 55.65519,-22.59563 14.84481,1.29993 -53.25,24.82496 z m -28.5,-8.724 52.03496,-17.3078 19.83322,2.05779 -54.63585,20.13158 z m 207,-2.42129 -20.04883,-8.42473 0.42447,-33.65427 33.43231,18.4522 0.10905,30.87441 -13.91703,-7.24789 z M 91.800106,306.71982 192.60993,293.9988 196.86039,305.33015 94.597543,322.7832 z M 216.23143,309.39515 252.42672,303 259.24485,311.12549 225,319.4929 z m 64.81909,1.55434 44.69372,-11.51006 14.75576,4.13226 -46.08542,15.57584 z M 266.25,300.25085 l 35.13042,-8.25425 11.65822,4.46475 -38.66083,10.78965 z M 472.76628,306.65937 441,302.76121 l 0,-35.91017 33.75,5.46422 z m -264.71386,-14.70535 36.39654,-4.53494 4.25947,9.11075 -36.80916,6.36619 z M 390,298.26121 390,268.79455 428.33138,266.56727 427.3236,301.5 z m 184.10171,0.10665 c -14.57464,-3.43374 -29.21761,-13.94259 -33.58432,-30.28756 -4.36671,-16.34498 -2.44156,-35.23099 1.52298,-52.83036 1.18572,5.63863 2.36378,22.61641 8.18817,23.25 0.63767,0 2.97102,-8.26875 5.18523,-18.375 2.21421,-10.10625 6.20744,-25.125 8.87381,-33.375 l 4.84797,-15 0.95463,13.5 c 1.11985,15.83664 4.03761,30.75 6.01617,30.75 0.7665,0 1.39365,-1.36092 1.39365,-3.02428 0,-7.89922 15.59268,-62.9858 17.82373,-62.96856 2.37177,17.12589 -0.39778,33.98887 3.70352,51.74284 2.8866,12.04494 5.36025,18.75 6.9173,18.75 6.12753,-13.53412 6.94198,-27.00223 9.42214,-41.25 5.34133,13.29159 6.58567,28.18815 7.30897,38.99376 0.80402,12.37157 2.09044,23.12233 2.85868,23.89058 2.87713,2.87713 9.85668,-22.82174 7.90117,-29.09234 -1.50835,-4.83673 5.72379,5.70243 10.98347,16.00584 4.70998,9.22662 5.5258,12.29717 5.60641,21.10145 0.20601,22.49837 -16.04214,40.56856 -42.90928,47.72103 -8.70174,2.31654 -24.29622,2.55159 -33.0144,0.49761 z m -228.46681,-4.89159 -0.0849,-23.55123 30.83495,-1.19877 0,27 z M 86.079565,273 l 102.665505,-2.94807 1.64439,14.02344 -101.451246,10.04274 z m 200.696195,8.98586 7.33039,5.77936 -33.95913,6.23478 -4.92481,-8.32157 z m 34.85914,5.5999 c -12.23096,-3.56225 -20.59176,-8.10548 -25.37296,-13.78763 -2.20019,-2.61477 -3.35676,-5.39769 -3.35676,-5.39769 l 41.40942,1.13313 -0.21225,21.43133 c 0,0 -7.51745,-1.93746 -12.46745,-3.37914 z M 201.31899,270 236.56326,268.08902 240,278.28 l -35.55207,4.04706 z m 49.86105,7.63416 -3.46014,-8.95101 32.41695,-1.19223 1.53979,7.00452 z m 281.27199,273.90637 -3.74646,11.06099 -11.5962,0 9.27696,6.95772 -3.33019,11.12046 9.39589,-6.60091 9.45537,6.60091 -3.38967,-11.12046 9.33644,-6.95772 -11.65568,0 -3.74646,-11.06098 z m 0.23787,12.19088 c 2.17755,0 3.98433,1.74731 3.98433,3.92487 0,2.17753 -1.80678,3.92487 -3.98433,3.92487 -2.17758,0 -3.92487,-1.74734 -3.92487,-3.92487 0,-2.17756 1.74729,-3.92487 3.92487,-3.92487 z m 38.76213,-12.19088 -3.74646,11.06099 -11.5962,0 9.27696,6.95772 -3.33019,11.12046 9.39589,-6.60091 9.45537,6.60091 -3.38967,-11.12046 9.33644,-6.95772 -11.65568,0 -3.74646,-11.06098 z m 0.23787,12.19088 c 2.17755,0 3.98433,1.74731 3.98433,3.92487 0,2.17753 -1.80678,3.92487 -3.98433,3.92487 -2.17758,0 -3.92487,-1.74734 -3.92487,-3.92487 0,-2.17756 1.74729,-3.92487 3.92487,-3.92487 z m 41.76213,-12.19088 -3.74646,11.06099 -11.5962,0 9.27696,6.95772 -3.33019,11.12046 9.39589,-6.60091 9.45537,6.60091 -3.38967,-11.12046 9.33644,-6.95772 -11.65568,0 -3.74646,-11.06098 z m 0.23787,12.19088 c 2.17755,0 3.98433,1.74731 3.98433,3.92487 0,2.17753 -1.80678,3.92487 -3.98433,3.92487 -2.17758,0 -3.92487,-1.74734 -3.92487,-3.92487 0,-2.17756 1.74729,-3.92487 3.92487,-3.92487 z m 38.76213,-12.19088 -3.74646,11.06099 -11.5962,0 9.27696,6.95772 -3.33019,11.12046 9.39589,-6.60091 9.45537,6.60091 -3.38967,-11.12046 9.33644,-6.95772 -11.65568,0 -3.74646,-11.06098 z m 0.23787,12.19088 c 2.17755,0 3.98433,1.74731 3.98433,3.92487 0,2.17753 -1.80678,3.92487 -3.98433,3.92487 -2.17758,0 -3.92487,-1.74734 -3.92487,-3.92487 0,-2.17756 1.74729,-3.92487 3.92487,-3.92487 z"
     inkscape:connector-curvature="0"
     id="path6" />
</svg>
