<?xml version="1.0" encoding="UTF-8"?>
<!-- Created with Inkscape (http://www.inkscape.org/) -->
<svg id="svg10611" width="700" height="420" version="1.1" viewBox="0 0 700 420" xmlns="http://www.w3.org/2000/svg" xmlns:cc="http://creativecommons.org/ns#" xmlns:dc="http://purl.org/dc/elements/1.1/" xmlns:rdf="http://www.w3.org/1999/02/22-rdf-syntax-ns#" xmlns:xlink="http://www.w3.org/1999/xlink">
 <metadata id="metadata10617">
  <rdf:RDF>
   <cc:Work rdf:about="">
    <dc:format>image/svg+xml</dc:format>
    <dc:type rdf:resource="http://purl.org/dc/dcmitype/StillImage"/>
   </cc:Work>
  </rdf:RDF>
 </metadata>
 <g>
  <rect id="rect11241" width="700" height="420" fill="#62b5e5"/>
  <path id="rect11206-5-3" d="m219.7814-5.21855v430.4371h60.4371v-430.4371z" fill="#ffc72c" stroke="#041e42" stroke-linecap="round" stroke-linejoin="round" stroke-width="1.5629"/>
  <path id="path11174" d="m250.8848 69.35059c-77.67794-1e-5 -140.6479 62.9705-140.6484 140.6484-5.4e-4 77.67869 62.96973 140.6504 140.6484 140.6504 77.6787 0 140.649-62.9717 140.6484-140.6504-5.4e-4 -77.67792-62.97049-140.6484-140.6484-140.6484zm0 51.44922c49.52534 5.4e-4 89.67382 40.14849 89.67382 89.67382 0 49.52534-40.14848 89.67329-89.67382 89.67383-49.52611 5.4e-4 -89.67579-40.14773-89.67579-89.67383s40.14968-89.67437 89.67579-89.67382z" fill="#ffffff" stroke="#041e42" stroke-linecap="round" stroke-linejoin="round" stroke-width="2"/>
 </g>
 <g fill="#ffc72c">
  <path id="rect11206-5" d="m-5.000008 240h710v-60h-710z" stroke="#041e42" stroke-linecap="round" stroke-linejoin="round" stroke-width="2"/>
  <path id="rect11206-5-3-2" d="m220 145v130h60v-130z"/>
  <path id="rect11206-5-3-2-3" d="m220 140v135m60 0v-135" stroke="#041e42" stroke-linecap="round" stroke-linejoin="round" stroke-width="2"/>
  <path id="rect11206-5-3-2-2" d="m185 240h130v-60h-130z"/>
 </g>
 <g id="g12065" transform="translate(-7.900391e-6 79)" fill="none" stroke="#041e42" stroke-width="2">
  <path id="path11988" d="m220 61v40h-45"/>
  <path id="path11988-3" d="m280 61v40h45"/>
  <path id="path11988-7" d="m220 201v-40h-45"/>
  <path id="path11988-3-4" d="m280 201v-40h45"/>
 </g>
 <g id="g905" transform="matrix(.9477653 0 0 .9477653 26.05739 -644.02)">
  <g fill="#ffc72c" stroke="#041e42" stroke-width="1.5">
   <path id="path885" d="m51.99999 695c-8 0-9.191753 3.86708-17.11918 2.59588 0.566104 1.00839 3.621803 2.32333 3.913677 2.40412-1.198626 0.35753-1.794502 0.54749-3.198626 1 1.666667 0.66667 2.896357 2 4.404124 2 3 0 5.873952-1.11918 11.87395-2.11918"/>
   <rect id="rect12199" x="50.24278" y="692.9256" width="3.707863" height="75.61797" rx="1" ry="2" stroke-linecap="round" stroke-linejoin="round"/>
   <g>
    <path id="path12203" d="m86.95742 704.6816c0.242403-0.0233 0.680911-0.0804 1.366054-0.13543 1.576388-0.12671 1.097823 2.46197 0.343098 3.07041-1.526235 1.23041-1.867772-0.82579-4.727228 0.42217"/>
    <path id="path12201" d="m87.88322 704.611c-30.6987 2.36887-43.65035 4.05198-67.86517 4.94382-6.13044 0.22579-14.92548 35.86398-2.02247 53.93259 10.14981-11.61049 19.16335-14.99542 30.11236-15.2809 13.47862-0.35144 20.89887 7.90262 40.33708 12.69663 0.786517-19.21348-16.29214-39.21348-0.561798-56.29214z" stroke-linejoin="round"/>
    <path id="path879" d="m103 778c3.48358-2 6-4 9.40412-7 0.55056-0.4852 0.94084-1.51706 0.59588-2-5-7-7-11.56303-8-23l-3 30.41636z"/>
    <path id="path849" d="m-7.971918 738.4494c0.9098729 10.0086 12.97205 26.48107 29.97191 26.55056l54.97753 0.22472c9.022472 0.03688 20.02247-13.22472 20.02247-24.22472h9.999998l-3 36c-2 3-12.77689 4.09604-18.5618 4.33708-24 1-38.4382 1.66292-59.4382 1.66292-30 0-37.97191-19.55056-37.97191-44.55056 0-1 3.909464-0.9959 4 0z" stroke-linejoin="round"/>
   </g>
  </g>
  <g id="g877">
   <g id="g12134" transform="rotate(-35.50332 447.8003 824.6441)">
    <g id="g12128" transform="translate(-8,1)">
     <rect id="rect12086" x="166" y="540" width="2" height="31" rx="1" ry="1" fill="#ffc72c" stroke="#041e42" stroke-linecap="round" stroke-linejoin="round" stroke-width=".75"/>
     <path id="rect12088" d="m168 569.3427c0.95561 2.96201 1.59795 4.03429 1.62319 8.61752l0.0397 7.20836c9e-3 1.66197-0.892 3-2 3h-2.55055c-1.108 0-2.01481-1.33807-2-3l0.0562-6.30466c0.0194-2.17233 0.57287-5.08785 2.83148-9.54613z" fill="#ffc72c" stroke="#041e42" stroke-linecap="round" stroke-linejoin="round" stroke-width=".75"/>
     <path id="path12122" d="m166.4888 579c-0.2225 0-0.48875-6.29591-0.48873-9.68221l1.99998 0.02491c-0.4243 3.6573-1.23835 9.6573-1.51125 9.6573z" fill="#000000"/>
    </g>
   </g>
   <g fill="#ffc72c" stroke="#041e42">
    <use id="use12136" transform="translate(-26.7655)" width="100%" height="100%" xlink:href="#g12134"/>
    <use id="use12138" transform="translate(-13.38275)" width="100%" height="100%" xlink:href="#g12134"/>
    <use id="use12140" transform="translate(13.38275)" width="100%" height="100%" xlink:href="#g12134"/>
    <use id="use12142" transform="translate(26.7655)" width="100%" height="100%" xlink:href="#g12134"/>
   </g>
  </g>
 </g>
</svg>
