<?xml version="1.0" encoding="UTF-8" standalone="no"?>
<!-- Created with Sodipodi ("http://www.sodipodi.com/") -->
<svg xmlns:dc="http://purl.org/dc/elements/1.1/" xmlns:cc="http://web.resource.org/cc/" xmlns:rdf="http://www.w3.org/1999/02/22-rdf-syntax-ns#" xmlns:svg="http://www.w3.org/2000/svg" xmlns="http://www.w3.org/2000/svg" xmlns:sodipodi="http://inkscape.sourceforge.net/DTD/sodipodi-0.dtd" xmlns:inkscape="http://www.inkscape.org/namespaces/inkscape" height="500.00000px" id="svg761" sodipodi:docbase="C:\Documents and Settings\Bimbito\Escritorio" sodipodi:docname="Flag_of_Martinique.svg" sodipodi:version="0.32" width="750.00000px" inkscape:version="0.42.2">
  <metadata id="metadata1386">
    <rdf:RDF>
      <cc:Work rdf:about="">
        <dc:title>Saudi Arabia</dc:title>
        <dc:description/>
        <dc:subject>
          <rdf:Bag>
            <rdf:li/>
            <rdf:li>asia</rdf:li>
            <rdf:li>united_nations_member</rdf:li>
            <rdf:li>flag</rdf:li>
            <rdf:li>arab</rdf:li>
            <rdf:li>sign</rdf:li>
          </rdf:Bag>
        </dc:subject>
        <dc:publisher>
          <cc:Agent rdf:about="http://www.openclipart.org">
            <dc:title>Cezary Biele</dc:title>
          </cc:Agent>
        </dc:publisher>
        <dc:creator>
          <cc:Agent>
            <dc:title>Cezary Biele</dc:title>
          </cc:Agent>
        </dc:creator>
        <dc:rights>
          <cc:Agent>
            <dc:title>Cezary Biele</dc:title>
          </cc:Agent>
        </dc:rights>
        <dc:date/>
        <dc:format>image/svg+xml</dc:format>
        <dc:type rdf:resource="http://purl.org/dc/dcmitype/StillImage"/>
        <cc:license rdf:resource="http://web.resource.org/cc/PublicDomain"/>
        <dc:language>en</dc:language>
      </cc:Work>
      <cc:License rdf:about="http://web.resource.org/cc/PublicDomain">
        <cc:permits rdf:resource="http://web.resource.org/cc/Reproduction"/>
        <cc:permits rdf:resource="http://web.resource.org/cc/Distribution"/>
        <cc:permits rdf:resource="http://web.resource.org/cc/DerivativeWorks"/>
      </cc:License>
    </rdf:RDF>
  </metadata>
  <defs id="defs763"/>
  <sodipodi:namedview id="base" showguides="false" inkscape:zoom="1.0960000" inkscape:cx="375.00000" inkscape:cy="250.00000" inkscape:window-width="1024" inkscape:window-height="717" inkscape:window-x="-4" inkscape:window-y="-4" inkscape:current-layer="svg761"/>
  <rect height="166.66660" id="rect1465" style="font-size: 12px; fill: rgb(255, 0, 0); fill-opacity: 1; fill-rule: evenodd; stroke: none; stroke-width: 1pt; stroke-opacity: 1;" width="750.00000" x="0.00000000" y="333.33334"/>
  <rect height="166.66660" id="rect1463" style="font-size: 12px; fill: rgb(255, 255, 255); fill-opacity: 1; fill-rule: evenodd; stroke: none; stroke-width: 1pt; stroke-opacity: 1;" width="750.00000" x="0.00000000" y="166.66600"/>
  <rect height="166.66660" id="rect681" style="font-size: 12px; fill: rgb(25, 157, 0); fill-opacity: 1; fill-rule: evenodd; stroke: none; stroke-width: 1pt; stroke-opacity: 1;" width="750.00000" x="0.00000000" y="-1.4964837e-005"/>
  <g id="g1427" transform="translate(4.93588, -100.839)">
    <path style="fill: rgb(255, 255, 255); fill-opacity: 1; fill-rule: evenodd; stroke: none; stroke-width: 1pt; stroke-linecap: butt; stroke-linejoin: round; stroke-opacity: 1;" sodipodi:nodetypes="cccccccccccccccccccccccccccccccccccccccc" id="path766" d="M 187.51600,140.61600 C 186.65700,152.20500 185.62600,172.59900 195.47300,174.69100 C 207.38300,175.83600 200.81600,154.53300 205.12700,150.67000 C 205.94200,148.76100 207.44500,148.75100 207.56900,151.15900 C 207.56900,157.18200 207.56900,163.20600 207.56900,169.22900 C 207.46000,175.10500 211.32300,176.83600 214.32400,178.05000 C 217.44700,177.80900 219.53200,177.91300 220.75600,180.95200 C 221.24400,191.37100 221.73300,201.79000 222.22100,212.20900 C 222.22100,212.20900 229.46400,214.28200 229.80900,194.62800 C 230.15500,183.08800 227.50400,173.42800 229.05800,171.18300 C 229.11300,168.97700 231.93000,168.84500 233.88400,169.92000 C 236.99700,172.11600 238.38400,174.82800 243.22200,173.74300 C 250.58400,171.71500 255.00900,168.13400 255.11800,162.48100 C 254.68800,157.10900 254.08600,151.73600 251.75800,146.36400 C 252.08300,145.38700 250.33700,142.85600 250.66100,141.87900 C 251.98400,143.95100 253.99700,143.77900 254.45500,141.87900 C 253.20200,137.75000 251.25800,133.79400 248.10600,132.08200 C 245.50100,129.78700 241.68900,130.25600 240.29300,135.04200 C 239.64600,140.55700 242.28100,147.10900 246.29700,152.45100 C 247.15000,154.53800 248.34800,158.00600 247.82100,161.12900 C 245.68400,162.34800 243.54700,161.84000 241.75700,159.95000 C 241.75700,159.95000 235.89700,155.55500 235.89700,154.57800 C 237.45200,144.62200 236.24200,143.49300 235.38000,140.73000 C 234.77800,136.91600 232.96800,135.69300 231.50200,133.08800 C 230.03600,131.53400 228.05300,131.53400 227.10500,133.08800 C 224.51500,137.57800 225.72300,147.21700 227.59400,151.53400 C 228.94600,155.50500 231.01200,157.99700 230.03600,157.99700 C 229.23200,160.24100 227.57000,159.72300 226.36100,157.13300 C 224.63500,151.78000 224.28900,143.79300 224.28900,140.19600 C 223.77100,135.73700 223.20200,126.22600 220.26700,123.80900 C 218.47700,121.37100 215.82300,122.56000 214.89600,124.78500 C 214.70300,129.21100 214.68300,133.63600 215.18100,137.71500 C 217.19400,144.86900 217.82600,151.15900 218.80300,158.48500 C 219.07400,168.29800 213.12900,162.74300 213.40100,157.87800 C 214.77200,151.55900 214.41600,141.61300 213.19800,139.09200 C 212.23200,136.57100 211.09200,135.94900 208.74300,136.36400 C 206.87800,136.25000 202.07900,141.49000 200.73200,150.18200 C 200.73200,150.18200 199.58300,154.65600 199.09300,158.62800 C 198.43400,163.11700 195.47900,166.28500 193.40700,157.99700 C 191.61600,151.97300 190.51500,137.14300 187.51600,140.61600 z "/>
    <path style="fill: rgb(255, 255, 255); fill-opacity: 1; fill-rule: evenodd; stroke: none; stroke-width: 1pt; stroke-linecap: butt; stroke-linejoin: miter; stroke-opacity: 1;" sodipodi:nodetypes="cccc" id="path767" d="M 219.88000,188.16100 C 209.37000,193.29900 199.20500,198.09200 188.86600,203.05700 C 189.24400,196.02700 203.61100,183.33700 213.40900,183.15800 C 219.78600,183.33600 218.18400,185.62900 219.88000,188.16100 z "/>
    <path style="fill: rgb(255, 255, 255); fill-opacity: 1; fill-rule: evenodd; stroke: none; stroke-width: 1pt; stroke-linecap: butt; stroke-linejoin: miter; stroke-opacity: 1;" sodipodi:nodetypes="cccccccccccccccccccccccccccccccccc" id="path768" d="M 214.46200,197.87900 C 198.11700,240.01200 252.73700,245.88300 258.84100,199.60500 C 259.41600,197.70600 261.71900,195.80600 262.12200,198.91400 C 260.85500,240.81600 219.87300,243.69500 212.90900,230.51300 C 211.18300,227.40600 210.66400,220.49900 210.49100,216.35400 C 209.45500,208.12400 205.13900,211.28900 204.44800,219.46200 C 203.75700,224.00900 203.93000,225.27700 203.93000,229.65100 C 206.11700,262.74700 258.90000,248.53000 267.47500,221.19000 C 272.02200,206.05100 266.72600,194.88600 269.20100,194.94200 C 274.43900,200.58400 281.74800,195.69100 283.36000,193.73400 C 284.05100,192.75500 285.77900,192.12300 286.98700,193.38900 C 291.07300,196.32600 298.27000,194.94200 299.76500,189.76200 C 300.62900,184.69700 301.32000,179.45900 301.49300,174.05000 C 298.15300,175.08700 295.67900,175.77600 295.44900,177.15800 C 295.21800,178.65500 294.98900,180.15000 294.75800,181.64700 C 294.47100,183.08700 291.59100,183.14300 291.47700,181.30100 C 290.21100,175.54500 284.97300,174.79700 281.80700,183.72000 C 279.67700,185.44600 275.82100,185.79200 275.41700,183.20200 C 275.93500,177.21600 273.51700,176.40900 268.68300,179.23000 C 267.12900,167.37300 265.57600,156.03400 264.02100,144.17700 C 266.03600,144.11900 267.87900,145.61500 269.72100,143.31300 C 267.70400,137.04000 263.44600,124.20400 261.08500,123.28300 C 259.93400,121.90200 258.95400,122.76500 257.45900,123.11000 C 254.92700,123.91600 252.56600,126.10300 253.31400,130.36300 C 256.30700,148.55100 258.26500,162.42300 261.25800,180.61200 C 261.71800,182.74200 259.93400,185.56000 257.63200,185.27300 C 253.71800,182.62500 252.74200,177.27300 246.06300,177.50200 C 241.22800,177.56000 235.70100,182.79800 235.01200,187.86500 C 234.20600,191.89200 233.91700,196.26600 235.01000,199.77800 C 238.40800,203.86400 242.49400,203.46300 246.06300,202.54100 C 248.99800,201.33300 251.41500,198.39700 252.45200,199.08700 C 253.14300,199.95100 252.62300,209.61900 238.63700,217.04500 C 230.17600,220.84400 223.44100,221.70800 219.81700,214.80000 C 217.57200,210.48300 219.98900,194.07900 214.46200,197.87900 z "/>
    <path style="fill: rgb(255, 255, 255); fill-opacity: 1; fill-rule: evenodd; stroke: none; stroke-width: 1pt; stroke-linecap: butt; stroke-linejoin: miter; stroke-opacity: 1;" sodipodi:nodetypes="cccccccccc" id="path769" d="M 283.79200,155.05200 C 287.07300,153.84300 302.61600,136.05800 302.61600,136.05800 C 301.80900,135.36700 301.08900,134.84900 300.28300,134.15800 C 299.41900,133.41000 299.50600,132.66200 300.28300,131.91300 C 304.13900,129.66900 302.90200,124.74700 300.88800,122.50300 C 297.54900,121.00600 294.64200,121.49500 292.51200,122.58900 C 289.80700,125.17900 289.17500,129.32300 291.30500,131.91300 C 293.37800,132.89200 295.44900,134.99300 294.06700,136.14400 C 287.70800,142.93600 270.29600,154.64900 272.31100,155.05200 C 272.74100,155.62800 283.44800,155.59900 283.79200,155.05200 z "/>
    <path style="fill: rgb(255, 255, 255); fill-opacity: 1; fill-rule: evenodd; stroke: none; stroke-width: 1pt; stroke-linecap: butt; stroke-linejoin: miter; stroke-opacity: 1;" sodipodi:nodetypes="ccccccsc" id="path770" d="M 189.93400,217.99200 C 184.10500,227.27800 183.59800,241.15100 186.81400,245.28700 C 188.52300,247.24100 191.33100,248.09700 193.40800,247.48500 C 197.07000,245.89700 198.67300,238.47700 197.80400,235.76300 C 196.58200,233.85000 195.61900,233.54700 194.39900,235.17400 C 191.82200,240.40600 190.75200,236.81700 190.52600,233.89300 C 190.13100,228.34800 190.65300,223.24100 191.25500,219.19700 C 191.89600,215.05200 191.24400,216.31900 189.93400,217.99200 z "/>
    <path style="fill: rgb(255, 255, 255); fill-opacity: 1; fill-rule: evenodd; stroke: none; stroke-width: 1pt; stroke-linecap: butt; stroke-linejoin: miter; stroke-opacity: 1;" sodipodi:nodetypes="csccccsccc" id="path771" d="M 439.01700,203.12200 C 433.38100,190.99100 425.57900,179.00300 423.09600,174.39800 C 420.61400,169.79100 401.87300,142.59300 399.11400,139.53400 C 393.02600,132.29900 409.00000,142.54700 397.09300,128.18300 C 392.55300,124.28800 392.28900,124.05100 388.52100,120.87300 C 386.62000,119.52400 381.97900,117.06000 381.15700,121.14400 C 380.74400,124.74500 380.96700,126.69800 381.57200,129.69600 C 382.03600,131.69500 384.94800,135.04300 386.38000,136.98300 C 405.39400,162.54100 422.25400,188.35200 438.51300,220.80400 C 441.08000,219.58400 440.51900,205.15200 439.01700,203.12200 z "/>
    <path style="fill: rgb(255, 255, 255); fill-opacity: 1; fill-rule: evenodd; stroke: none; stroke-width: 1pt; stroke-linecap: butt; stroke-linejoin: miter; stroke-opacity: 1;" sodipodi:nodetypes="ccccccccccccc" id="path793" d="M 414.27900,243.71000 C 413.17100,244.95400 417.01500,250.27500 422.01100,250.27000 C 430.36600,249.30000 437.72100,244.60700 444.53100,232.25300 C 446.35200,229.37200 449.55300,223.21000 449.64700,218.43000 C 450.28400,190.40500 448.24400,168.59800 444.04500,148.34300 C 443.77600,146.37000 443.94000,144.05100 444.27400,143.45900 C 444.81500,142.81300 446.65000,143.46200 447.62300,141.86600 C 449.05100,140.40800 443.83100,128.33100 440.85500,123.67900 C 439.79800,121.60200 439.43000,120.21500 437.68100,123.92300 C 435.84100,126.93700 434.60500,132.19600 434.75000,137.11000 C 438.73600,164.70500 439.96000,188.84600 442.56500,216.44200 C 442.77700,219.11100 442.38500,222.98900 440.61100,224.53500 C 434.04900,231.38700 424.57800,239.82100 414.27900,243.71000 z "/>
    <path style="fill: rgb(255, 255, 255); fill-opacity: 1; fill-rule: evenodd; stroke: none; stroke-width: 1pt; stroke-linecap: butt; stroke-linejoin: miter; stroke-opacity: 1;" sodipodi:nodetypes="ccccccccccccsc" id="path794" d="M 527.14500,243.56200 C 521.14900,247.02800 521.14200,251.01500 525.99000,251.15900 C 534.34500,250.18900 544.21700,249.49500 551.02700,239.21400 C 552.84900,236.33300 555.01300,228.54200 555.10700,223.76200 C 555.74400,195.73700 554.74100,174.81900 550.54200,154.56400 C 550.27300,152.59100 549.40000,148.05000 549.73400,147.45800 C 550.27500,146.07100 552.99900,147.60900 553.97200,146.01300 C 555.40000,144.55500 546.92100,133.66300 543.94500,129.01100 C 542.88800,126.93400 542.52000,125.54700 540.77100,129.25500 C 538.93100,132.26900 538.28800,137.67600 539.02500,142.44200 C 543.45500,172.40700 546.75300,194.91900 547.43300,221.47800 C 547.05200,223.99900 546.95700,225.35800 545.77500,228.53400 C 543.16000,231.88600 540.26300,236.07700 537.54600,238.10300 C 534.83000,240.12800 529.03500,242.06100 527.14500,243.56200 z "/>
    <path style="fill: rgb(255, 255, 255); fill-opacity: 1; fill-rule: evenodd; stroke: none; stroke-width: 1pt; stroke-linecap: butt; stroke-linejoin: miter; stroke-opacity: 1;" sodipodi:nodetypes="cssscccccccc" id="path795" d="M 531.63900,216.70000 C 531.57000,209.69200 531.73800,203.64100 531.50700,198.41400 C 531.27700,193.18700 530.35300,188.93100 528.54400,185.22100 C 526.83200,181.24300 527.89500,178.04600 527.09100,173.80900 C 526.28800,169.57300 526.48600,163.22900 525.27200,158.20200 C 524.93900,156.23900 523.91900,149.95200 524.23400,149.34900 C 524.72900,147.94600 526.61400,149.39300 527.53500,147.76700 C 528.91400,146.26400 522.75200,130.32000 519.62600,125.76700 C 518.50200,123.72600 516.46100,124.42500 513.94400,127.74400 C 511.61000,129.92800 512.47600,134.90900 513.36700,139.64800 C 519.36200,170.93400 523.83400,199.25100 522.85800,229.03300 C 522.55900,231.56500 531.70100,221.48000 531.63900,216.70000 z "/>
    <path style="fill: rgb(255, 255, 255); fill-opacity: 1; fill-rule: evenodd; stroke: none; stroke-width: 1pt; stroke-linecap: butt; stroke-linejoin: miter; stroke-opacity: 0.528302;" sodipodi:nodetypes="cccccccccscc" id="path796" d="M 487.34000,177.89200 C 483.56900,177.82300 475.67100,170.55400 473.36600,166.29500 C 472.49500,163.85200 473.05400,161.46900 473.82200,160.07300 C 475.21800,159.16500 477.36600,158.14500 478.97200,159.12300 C 478.97200,159.12300 480.63700,161.45300 480.31500,161.74900 C 482.37400,162.73500 483.24800,162.16800 483.45700,161.33000 C 483.59700,159.86400 482.84800,158.99000 482.84000,157.37500 C 483.71300,152.99500 488.71900,152.31400 490.60400,155.10700 C 491.98400,156.81000 492.49000,160.42800 492.69900,162.87100 C 492.67700,164.11900 490.65600,162.65500 489.50800,162.95500 C 488.35900,163.25600 488.08300,164.58100 487.99400,165.78000 C 487.78600,168.95600 487.41000,174.05200 487.34000,177.89200 z "/>
    <path style="fill: rgb(255, 255, 255); fill-opacity: 1; fill-rule: evenodd; stroke: none; stroke-width: 1pt; stroke-linecap: butt; stroke-linejoin: miter; stroke-opacity: 1;" sodipodi:nodetypes="cscccccscc" id="path797" d="M 417.75300,224.46900 C 418.79200,214.94700 417.36900,197.98900 417.27400,192.37000 C 416.89300,179.09600 414.72500,153.45800 413.69300,149.17500 C 412.53000,141.10100 417.01400,150.06100 416.39300,145.36800 C 414.93900,137.30500 410.46700,131.84000 405.21000,124.45500 C 403.51500,122.05300 403.57200,121.56300 400.95500,125.04400 C 398.05900,131.61400 400.55900,136.13300 401.30700,141.24900 C 405.09800,157.91900 407.31000,173.25800 408.34000,188.42100 C 409.37000,203.58500 409.68600,219.97900 408.74600,235.94900 C 411.58700,236.06100 416.15500,231.35300 417.75300,224.46900 z "/>
    <path style="fill: rgb(255, 255, 255); fill-opacity: 1; fill-rule: evenodd; stroke: none; stroke-width: 1pt; stroke-linecap: butt; stroke-linejoin: miter; stroke-opacity: 1;" sodipodi:nodetypes="csccccsccc" id="path798" d="M 544.47300,209.21700 C 537.82400,198.06000 527.79000,185.97700 525.10900,181.48400 C 522.42900,176.99000 499.75700,147.73800 496.86800,144.80200 C 488.57400,136.08900 500.67200,143.38400 495.28000,136.65400 C 490.72000,131.64700 489.39000,130.07500 485.48700,127.06400 C 483.53000,125.79900 482.34400,123.38400 481.70100,127.50000 C 481.44500,131.11600 481.17800,135.29900 481.42100,138.34700 C 481.40700,140.04100 483.17100,143.22400 484.68600,145.10000 C 504.79500,169.80600 526.72800,195.03300 544.38500,226.74600 C 546.89700,225.41500 546.06200,211.18000 544.47300,209.21700 z "/>
    <path style="fill: rgb(27, 164, 0); fill-opacity: 1; fill-rule: evenodd; stroke: none; stroke-width: 1pt; stroke-linecap: butt; stroke-linejoin: round; stroke-opacity: 1;" sodipodi:nodetypes="cccccc" id="path799" d="M 242.79200,188.63200 C 242.31300,189.47100 241.24800,190.55800 241.60500,191.68300 C 242.35200,192.69500 242.94800,192.90000 244.19200,192.95500 C 245.27100,192.95500 246.77900,193.21000 247.10300,192.57300 C 247.68400,191.93300 248.12600,190.62700 247.64200,189.39400 C 246.51800,186.58500 243.37900,187.63200 242.79200,188.63200 z "/>
    <path style="fill: rgb(255, 255, 255); fill-opacity: 1; fill-rule: evenodd; stroke: none; stroke-width: 1pt; stroke-linecap: butt; stroke-linejoin: miter; stroke-opacity: 1;" sodipodi:nodetypes="cccccccccccccccccccccccccccccccccccccccc" id="path801" d="M 306.78400,131.06700 C 300.73000,148.37000 310.25200,167.29700 316.85400,165.45400 C 321.61700,167.42600 324.65000,158.36500 326.60000,148.43800 C 327.93400,145.65200 328.94200,145.35500 329.62700,146.78700 C 329.45100,159.98800 330.57500,162.91200 333.96900,166.91900 C 341.54000,172.76000 347.80300,167.66500 348.29400,167.17300 C 348.78500,166.68200 354.18900,161.27800 354.18900,161.27800 C 355.50100,159.89800 357.24800,159.81700 359.10100,161.03300 C 360.90200,162.67000 360.64900,165.49800 364.50500,167.45900 C 367.75000,168.75700 374.68800,167.75900 376.29500,164.96300 C 378.45800,161.25600 378.97700,159.98300 379.97900,158.57700 C 381.52300,156.52200 384.15500,157.43600 384.15500,158.08500 C 383.90900,159.23100 382.36400,160.37800 383.41800,162.44200 C 385.25400,163.81900 385.67800,162.93300 386.76400,162.62700 C 390.60500,160.79100 393.48900,152.43600 393.48900,152.43600 C 393.65900,149.32800 391.91700,149.58500 390.78700,150.22500 C 389.31300,151.12600 389.21700,151.41400 387.74300,152.31500 C 385.86500,152.59400 382.22200,153.83900 380.42100,151.05000 C 378.58200,147.69700 378.55700,143.01900 377.15100,139.63700 C 377.15100,139.39100 374.71100,134.31000 376.98200,133.98500 C 378.12800,134.19800 380.57300,134.84500 380.96200,132.78600 C 382.16400,130.77900 378.38800,125.09600 375.80400,122.22400 C 373.56100,119.76200 370.45300,119.46500 367.45300,121.97900 C 365.35200,123.91200 365.65400,126.07200 365.24200,128.11900 C 364.70700,130.47000 364.82100,133.36200 367.20700,136.47000 C 369.30400,140.60500 373.13000,145.93000 371.87400,153.41800 C 371.87400,153.41800 369.63900,156.95700 365.74500,156.49400 C 364.12200,156.14000 361.49000,155.45100 360.08400,145.06700 C 359.02000,137.20700 360.33500,126.21000 356.99900,121.05400 C 355.79400,117.94100 354.91400,114.93500 351.97800,120.25900 C 351.18900,122.35000 347.80300,125.52300 350.25900,132.04900 C 352.26800,136.18700 353.08600,142.92100 352.17400,150.41300 C 350.78200,152.54200 350.47300,153.26300 348.64800,155.39200 C 346.08400,158.14900 343.30200,157.44500 341.17100,156.41600 C 339.18000,155.07400 337.62100,154.38000 336.71200,150.11700 C 336.87600,143.32200 337.25500,132.19900 336.01300,129.83900 C 334.18200,126.18400 331.16200,127.50600 329.87200,128.61000 C 323.67400,134.27700 320.61200,143.83900 318.74100,151.45300 C 317.02200,157.00200 315.19300,155.41200 313.90700,153.17300 C 310.77600,150.23900 310.56400,127.29500 306.78400,131.06700 z "/>
    <path style="fill: rgb(255, 255, 255); fill-opacity: 1; fill-rule: evenodd; stroke: none; stroke-width: 1pt; stroke-linecap: butt; stroke-linejoin: miter; stroke-opacity: 1;" sodipodi:nodetypes="ccccccccccccsccccccccccccccccccccccccccccccc" id="path802" d="M 325.01100,168.68200 C 327.76000,166.73500 326.47500,165.37400 330.58600,169.48400 C 335.73300,178.28400 339.04100,189.68000 339.53700,199.77700 C 339.32000,202.26500 341.07400,203.84000 341.87600,203.29900 C 342.35300,197.45800 356.55700,189.31900 369.58200,188.12900 C 371.57400,187.69600 370.60500,183.87900 370.93000,181.93200 C 370.14900,174.70100 374.99300,168.11800 381.78300,167.59300 C 391.02400,168.95900 394.10000,173.89300 394.25600,181.42400 C 393.25800,195.88200 378.19700,198.33300 369.73500,199.48600 C 368.43700,199.97700 367.89600,200.57600 369.73500,201.28400 L 405.19100,201.44500 L 407.00000,202.49000 C 407.21700,203.33500 406.48300,202.63000 405.08300,204.93500 C 403.68400,207.24000 401.62000,212.55500 401.51300,216.10400 C 390.94900,219.50100 380.02300,220.98900 368.91800,222.33200 C 365.06000,224.28300 363.14800,226.88300 363.94000,229.80900 C 365.23800,233.05400 373.78400,236.29600 373.78400,236.45000 C 375.40700,237.46800 377.32700,239.84300 373.32500,244.71000 C 356.03000,243.94900 342.62800,236.58900 337.98800,226.20100 C 336.59000,225.11700 335.08400,226.19500 334.11900,227.59900 C 327.36700,236.30300 320.72300,244.14200 309.21100,248.30300 C 302.34600,250.01800 295.31800,247.25000 291.99900,242.75400 C 289.77700,240.19500 289.86200,237.37000 289.04600,236.75800 C 285.33600,238.39900 253.40600,251.96600 257.45300,245.64600 C 265.22400,237.32900 278.67700,231.21900 290.55800,223.01000 C 291.41500,220.26000 292.97400,210.95500 297.66700,207.92500 C 297.93800,207.94800 296.92300,213.38900 297.02500,215.68400 C 297.07800,217.56800 296.88700,218.30600 297.29900,217.82100 C 298.10100,217.31000 312.51700,205.98200 313.63100,202.50800 C 315.03700,200.51600 314.05300,195.47100 314.05300,195.31800 C 311.34900,188.35000 307.55700,187.75800 306.15100,184.29600 C 304.88500,179.69700 305.45800,174.44700 308.08700,172.98400 C 310.42100,170.86500 313.18600,171.12700 315.73600,173.44300 C 318.64800,176.05100 321.23400,181.14800 321.98200,184.94500 C 321.48200,186.44700 318.17200,183.94700 317.02300,184.69200 C 319.05600,186.79700 320.00500,189.22500 320.73900,192.19600 C 322.61700,200.14900 322.04400,203.24100 320.15400,208.38400 C 313.75300,221.84200 305.57300,225.85800 298.41600,230.84300 C 298.22500,230.91100 298.09800,234.25800 300.79000,236.06800 C 301.71800,237.04200 305.45100,237.54200 309.84100,236.13600 C 318.32300,231.51000 327.12900,222.98900 331.50000,213.49600 C 332.76900,206.31500 331.00900,198.70100 329.14200,192.06100 C 326.32900,185.57100 323.01600,176.30500 323.01600,176.15200 C 322.90700,172.10500 323.23600,170.70100 325.01100,168.68200 z "/>
    <path style="font-size: 12px; fill: rgb(255, 255, 255); fill-opacity: 1; fill-rule: evenodd; stroke: none; stroke-width: 0.955991pt;" sodipodi:nodetypes="ccccccccccccccccc" id="path803" d="M 232.18400,131.25400 C 236.26500,133.20000 243.93700,132.37200 243.61300,125.79200 C 243.61300,125.21000 243.46500,123.24100 243.40700,122.70800 C 242.57400,120.76800 240.30100,121.24700 239.78600,123.25000 C 239.62400,123.90600 240.07500,124.97400 239.48100,125.30400 C 239.14000,125.64800 237.83600,125.44600 237.89000,123.62800 C 237.89000,123.04900 237.46300,122.42600 237.20600,122.05900 C 236.94800,121.89000 236.78400,121.84300 236.31700,121.84300 C 235.74800,121.86600 235.75700,122.01400 235.44500,122.49200 C 235.31300,122.97900 235.13000,123.45500 235.13000,124.00700 C 235.05900,124.65400 234.81500,124.88500 234.33900,124.98000 C 233.80700,124.98000 233.92700,125.03900 233.49600,124.76400 C 233.24000,124.48400 232.92000,124.37700 232.92000,123.89900 C 232.92000,123.40400 232.80800,122.60300 232.65900,122.27600 C 232.43300,121.97800 232.07000,121.84000 231.66100,121.73500 C 229.43200,121.74300 229.27800,124.28500 229.40600,125.25000 C 229.23900,125.43200 229.14400,129.99200 232.18400,131.25400 z "/>
    <path style="font-size: 12px; fill: rgb(255, 255, 255); fill-opacity: 1; fill-rule: evenodd; stroke: none; stroke-width: 0.955991pt;" sodipodi:nodetypes="ccccccccccccccccc" id="path804" d="M 351.80900,181.88800 C 355.89000,183.83400 365.60400,182.71400 363.23800,176.42600 C 363.23800,175.84400 363.09000,173.87500 363.03200,173.34200 C 362.19900,171.40200 359.92600,171.88100 359.41100,173.88400 C 359.24900,174.54000 359.70000,175.60800 359.10600,175.93800 C 358.76500,176.28200 357.46100,176.08000 357.51500,174.26200 C 357.51500,173.68300 357.08800,173.06000 356.83100,172.69300 C 356.57300,172.52400 356.40900,172.47700 355.94200,172.47700 C 355.37300,172.50000 355.38200,172.64800 355.07000,173.12600 C 354.93800,173.61300 354.75500,174.08900 354.75500,174.64100 C 354.68400,175.28800 354.44000,175.51900 353.96400,175.61400 C 353.43200,175.61400 353.55200,175.67300 353.12100,175.39800 C 352.86500,175.11800 352.54500,175.01100 352.54500,174.53300 C 352.54500,174.03800 352.43300,173.23700 352.28400,172.91000 C 352.05800,172.61200 351.69500,172.47400 351.28600,172.36900 C 349.05700,172.37700 348.90300,174.91900 349.03100,175.88400 C 348.86400,176.06600 348.76900,180.62600 351.80900,181.88800 z "/>
    <path style="font-size: 12px; fill: rgb(255, 255, 255); fill-opacity: 1; fill-rule: evenodd; stroke: none; stroke-width: 0.955991pt;" sodipodi:nodetypes="ccccccccccccccccc" id="path805" d="M 421.56500,160.93100 C 425.64600,162.87700 433.31800,162.04900 432.99400,155.46900 C 432.99400,154.88700 432.84600,152.91800 432.78800,152.38500 C 431.95500,150.44500 429.68200,150.92400 429.16700,152.92700 C 429.00500,153.58300 429.45600,154.65100 428.86200,154.98100 C 428.52100,155.32500 427.21700,155.12300 427.27100,153.30500 C 427.27100,152.72600 426.84400,152.10300 426.58700,151.73600 C 426.32900,151.56700 426.16500,151.52000 425.69800,151.52000 C 425.12900,151.54300 425.13800,151.69100 424.82600,152.16900 C 424.69400,152.65600 424.51100,153.13200 424.51100,153.68400 C 424.44000,154.33100 424.19600,154.56200 423.72000,154.65700 C 423.18800,154.65700 423.30800,154.71600 422.87700,154.44100 C 422.62100,154.16100 422.30100,154.05400 422.30100,153.57600 C 422.30100,153.08100 422.18900,152.28000 422.04000,151.95300 C 421.81400,151.65500 421.45100,151.51700 421.04200,151.41200 C 418.81300,151.42000 418.65900,153.96200 418.78700,154.92700 C 418.62000,155.10900 418.52500,159.66900 421.56500,160.93100 z "/>
    <path style="fill: rgb(255, 255, 255); fill-opacity: 1; fill-rule: evenodd; stroke: none; stroke-width: 1pt; stroke-linecap: butt; stroke-linejoin: miter; stroke-opacity: 1;" sodipodi:nodetypes="cccccccccccccccccccccccccccc" id="path806" d="M 457.69400,213.56400 C 450.58200,221.57900 453.71800,234.83600 455.32400,237.69200 C 457.66900,242.38300 459.55700,245.39200 464.12000,247.71200 C 468.27600,250.77100 471.51400,248.85900 473.29900,246.71700 C 477.48100,242.38300 477.53100,231.31800 479.49400,229.12500 C 480.87100,225.09700 484.33800,225.78500 486.02100,227.57000 C 487.65200,229.91500 489.57300,231.42700 491.96900,232.70300 C 495.87000,236.14400 500.52800,236.77300 505.11700,233.63700 C 508.25300,231.87800 510.29200,229.60500 512.12800,225.09300 C 514.16800,219.63700 513.03100,194.43000 512.62300,179.49000 C 512.46600,178.31800 508.56900,158.94500 508.56900,158.72900 C 508.56900,158.51200 508.05400,148.84200 507.62500,146.53800 C 507.55000,145.60300 507.31800,145.33400 508.29800,145.45300 C 509.33700,146.32700 509.47900,146.38200 510.12800,146.67000 C 511.17700,146.86200 512.11600,145.07700 511.48300,143.43400 C 508.23800,137.44900 504.99300,131.46300 501.74800,125.47800 C 500.96700,124.70900 499.95800,123.86400 498.71900,125.69500 C 497.53500,126.73300 496.27400,128.61200 496.31300,131.02700 C 496.60100,135.28200 497.34900,139.61200 497.63700,143.86700 C 498.93500,151.15000 500.23400,158.43400 501.53200,165.71700 C 502.75800,181.29300 503.06500,194.04000 504.29100,209.61600 C 504.11900,216.21100 502.06900,221.96100 500.14600,222.79100 C 500.14600,222.79100 497.22000,224.48700 495.25800,222.61400 C 493.83100,222.04100 488.11900,213.09500 488.11900,213.09500 C 485.19900,210.41800 483.27400,211.18300 481.19600,213.09500 C 475.46600,218.62800 472.87300,228.97900 468.97900,236.11800 C 467.97500,237.71100 465.13700,239.07500 461.99300,236.00200 C 454.00800,225.09300 458.68800,209.57300 457.69400,213.56400 z "/>
    <path style="fill: rgb(255, 255, 255); fill-opacity: 1; fill-rule: evenodd; stroke: none; stroke-width: 1.25; stroke-linecap: butt; stroke-linejoin: round; stroke-dasharray: none; stroke-opacity: 1;" sodipodi:nodetypes="cccccc" id="path807" d="M 423.39600,122.72400 C 427.05200,124.25400 429.63100,131.66000 428.79000,135.27600 C 428.06200,139.74900 426.12300,144.58000 424.72900,143.95100 C 423.21400,143.38900 425.76200,139.50500 424.30600,135.42900 C 423.49700,132.77600 418.50800,127.92900 419.03300,126.50000 C 418.00300,123.50600 421.15400,122.19600 423.39600,122.72400 z "/>
    <path transform="translate(0, -1.52588e-05)" style="fill: rgb(255, 255, 255); fill-opacity: 1; fill-rule: evenodd; stroke: none; stroke-width: 1pt; stroke-linecap: butt; stroke-linejoin: miter; stroke-opacity: 1;" sodipodi:nodetypes="csccccccc" id="path808" d="M 469.46500,217.95700 C 470.23400,209.06400 468.93600,203.64100 468.70500,198.41400 C 468.47500,193.18700 462.79300,153.30400 461.64100,149.34900 C 460.25100,141.87100 467.16400,148.34600 466.40900,143.99700 C 464.01700,138.51400 458.06500,130.53000 456.19600,125.76700 C 455.07200,123.72600 455.54400,121.91100 453.02700,125.23000 C 450.69300,132.86100 449.88300,139.09800 450.77400,143.83700 C 456.76900,175.12300 462.91700,201.13600 461.94100,230.91800 C 464.78400,230.93700 468.06100,224.41300 469.46500,217.95700 z "/>
    <path style="fill: rgb(255, 255, 255); fill-opacity: 1; fill-rule: evenodd; stroke: none; stroke-width: 1.25; stroke-linecap: butt; stroke-linejoin: round; stroke-dasharray: none; stroke-opacity: 1;" sodipodi:nodetypes="cccccc" id="path809" d="M 531.93200,135.32800 C 535.26500,136.98500 537.21700,146.26600 536.84900,148.91700 C 536.18600,153.76000 534.41800,158.99000 533.14700,158.30900 C 531.76600,157.70100 533.42400,151.12700 532.76100,149.08300 C 532.02400,146.21100 527.47600,140.96300 527.95400,139.41600 C 527.01500,136.17500 529.88800,134.75700 531.93200,135.32800 z "/>
    <path style="fill: rgb(255, 255, 255); fill-opacity: 1; fill-rule: evenodd; stroke: none; stroke-width: 1.25; stroke-linecap: butt; stroke-linejoin: round; stroke-dasharray: none; stroke-opacity: 1;" sodipodi:nodetypes="cccccc" id="path810" d="M 284.22100,201.13900 C 287.40900,202.35600 289.27800,209.17600 288.92600,211.12500 C 288.29000,214.68300 286.59800,218.52600 285.38400,218.02600 C 284.06200,217.57900 285.64900,212.74800 285.01400,211.24600 C 284.74500,207.60300 280.32000,205.71700 280.41300,204.14300 C 279.58700,201.25000 282.26400,200.71800 284.22100,201.13900 z "/>
    <path style="fill: rgb(27, 157, 0); fill-opacity: 1; fill-rule: evenodd; stroke: none; stroke-width: 1pt; stroke-linecap: butt; stroke-linejoin: miter; stroke-opacity: 1;" sodipodi:nodetypes="ccccccc" id="path811" d="M 361.25000,211.37500 C 365.36500,211.63600 367.42100,214.86500 363.56700,216.21900 C 359.76500,217.52100 356.11100,218.53800 356.09400,224.03200 C 357.50000,231.68800 354.16500,229.06100 352.17600,228.02100 C 349.83200,226.33800 343.25400,222.28600 342.31700,213.53600 C 342.17600,211.44800 343.80400,209.69100 346.42500,209.70300 C 350.37300,210.77600 356.19800,210.85400 361.25000,211.37500 z "/>
    <path style="fill: rgb(255, 255, 255); fill-opacity: 1; fill-rule: evenodd; stroke: none; stroke-width: 1.25; stroke-linecap: butt; stroke-linejoin: round; stroke-dasharray: none; stroke-opacity: 1;" sodipodi:nodetypes="cccccc" id="path812" d="M 199.00600,120.51700 C 203.71000,121.93500 203.98800,128.84900 203.64100,130.87000 C 203.01400,134.55900 201.34800,138.54300 200.15100,138.02400 C 198.84900,137.56100 200.10000,132.55300 199.47500,130.99500 C 198.77800,128.80700 194.80300,124.81000 195.25400,123.63200 C 194.36900,121.16200 197.07800,120.08100 199.00600,120.51700 z "/>
    <path style="fill: rgb(255, 255, 255); fill-opacity: 1; fill-rule: evenodd; stroke: none; stroke-width: 1pt; stroke-linecap: butt; stroke-linejoin: miter; stroke-opacity: 1;" sodipodi:nodetypes="cccccccc" id="path813" d="M 291.90300,153.11500 C 288.29400,155.06700 286.89400,160.88600 289.14100,164.27400 C 291.24000,167.25800 294.55500,166.15200 294.99700,166.15200 C 298.53300,166.59400 300.63100,159.52300 300.63100,159.52300 C 300.63100,159.52300 300.74200,157.53500 296.54300,161.29200 C 294.77600,161.62300 294.55500,160.96000 294.11300,159.96500 C 293.74500,158.12400 293.81800,156.28300 294.66500,154.44100 C 295.29100,152.67400 293.92800,151.90000 291.90300,153.11500 z "/>
    <path style="fill: rgb(255, 255, 255); fill-opacity: 1; fill-rule: evenodd; stroke: none; stroke-width: 1pt; stroke-linecap: butt; stroke-linejoin: miter; stroke-opacity: 1;" sodipodi:nodetypes="cccccccc" id="path814" d="M 318.97200,117.84500 C 317.15800,119.06100 313.54800,122.80100 313.43800,127.11000 C 313.32800,129.54100 312.87500,129.53400 314.46700,131.08100 C 315.61700,132.73900 316.77700,132.59000 319.09800,131.37400 C 320.43100,130.39200 320.88200,129.74000 321.33100,128.09300 C 321.88400,125.33100 318.41100,129.40300 317.96900,126.32900 C 317.19600,123.47500 319.42600,122.30700 321.52500,119.54500 C 321.59500,117.65300 321.55400,116.31300 318.97200,117.84500 z "/>
    <path style="fill: rgb(255, 255, 255); fill-opacity: 1; fill-rule: evenodd; stroke: none; stroke-width: 1pt; stroke-linecap: butt; stroke-linejoin: miter; stroke-opacity: 1;" sodipodi:nodetypes="ccccc" id="path815" d="M 340.78200,121.71900 C 340.00000,123.44600 339.06300,132.46700 339.21900,132.46700 C 338.59500,135.15500 342.03200,136.30500 343.59500,132.85000 C 345.93800,126.51600 345.93800,123.82900 346.09500,121.14200 C 345.36500,117.04900 342.60500,117.17700 340.78200,121.71900 z "/>
    <path style="fill: rgb(255, 255, 255); fill-opacity: 1; fill-rule: evenodd; stroke: none; stroke-width: 1pt; stroke-linecap: butt; stroke-linejoin: miter; stroke-opacity: 0.408805;" sodipodi:nodetypes="ccccc" id="path816" d="M 478.28200,191.68700 C 478.75100,191.21800 497.65800,177.78100 497.65800,177.78100 C 499.58500,177.10400 499.16800,184.70800 498.28300,184.65600 C 498.64700,186.16600 479.63700,199.08300 478.28200,198.56200 C 477.34500,199.23900 476.40700,193.35400 478.28200,191.68700 z "/>
    <path style="fill: rgb(255, 255, 255); fill-opacity: 1; fill-rule: evenodd; stroke: none; stroke-width: 1.25; stroke-linecap: butt; stroke-linejoin: round; stroke-dasharray: none; stroke-opacity: 1;" sodipodi:nodetypes="cccccc" id="path817" d="M 495.52500,191.57800 C 498.85800,193.23500 500.18500,202.98500 499.81700,205.63600 C 499.93500,210.79200 496.60500,214.92800 495.33400,214.24700 C 493.95300,213.63900 495.45500,207.84600 494.79200,205.80200 C 494.05500,202.93000 491.22500,197.52600 491.70300,195.97900 C 490.76400,192.73800 493.48100,191.00700 495.52500,191.57800 z "/>
    <path style="fill: rgb(255, 255, 255); fill-opacity: 1; fill-rule: evenodd; stroke: none; stroke-width: 1pt; stroke-linecap: butt; stroke-linejoin: miter; stroke-opacity: 1;" sodipodi:nodetypes="ccccccccccccc" id="path818" d="M 383.06100,233.56300 C 384.37600,231.64100 388.43800,228.87500 388.53000,228.87500 C 390.40400,227.93700 392.23500,229.61000 392.12400,229.50000 C 392.43600,231.37500 390.93800,233.12000 391.40700,235.62100 C 391.81700,236.62900 392.11700,237.74800 393.96400,237.32100 C 396.96600,234.95900 399.74700,234.80700 402.74900,234.65600 C 405.05000,234.79500 405.14100,238.69000 403.68600,238.71900 C 398.14300,239.92400 395.65900,241.40800 391.70100,242.91900 C 389.82600,244.01200 388.21700,242.62500 388.21700,242.46900 C 388.21700,242.31300 387.12000,241.40500 387.88600,238.92100 C 388.02200,236.92900 387.22000,235.83700 385.56100,236.06300 C 384.31100,236.73900 383.21000,237.18700 382.58500,235.75000 C 382.33900,234.68900 382.25900,234.17300 383.06100,233.56300 z "/>
    <path style="fill: rgb(255, 255, 255); fill-opacity: 1; fill-rule: evenodd; stroke: none; stroke-width: 1pt; stroke-linecap: butt; stroke-linejoin: miter; stroke-opacity: 1;" sodipodi:nodetypes="ccccccccccccc" id="path819" d="M 515.41600,238.81400 C 516.22600,239.84500 516.75000,240.79900 515.35100,242.49300 C 514.02500,243.70800 513.09100,244.37700 511.76500,245.59200 C 511.13900,246.66000 510.73900,248.28000 512.65400,248.79600 C 516.19000,249.79000 524.36600,244.48700 524.36600,244.37600 C 525.69200,243.38200 525.25000,241.50400 525.13900,241.50400 C 524.36600,240.62000 522.62400,241.14500 521.45200,241.00200 C 520.89400,241.00200 519.06400,240.72500 519.93500,239.10500 C 520.66200,238.09700 520.92200,237.48000 521.41500,236.23800 C 521.96700,235.02300 521.49300,234.21200 519.50400,233.54900 C 517.47800,233.18100 516.66900,233.36500 514.42200,233.54900 C 513.20700,233.80700 512.79200,234.35000 512.57100,235.82300 C 512.65800,238.05700 514.01700,237.93000 515.41600,238.81400 z "/>
    <path transform="matrix(0.865631, 0.500682, -0.30041, 0.519379, 105.273, -102.975)" style="fill: rgb(37, 159, 0); fill-opacity: 1; fill-rule: evenodd; stroke: none; stroke-width: 1pt; stroke-linecap: butt; stroke-linejoin: miter; stroke-opacity: 1;" sodipodi:type="arc" sodipodi:ry="3.1250150" sodipodi:rx="3.4375150" sodipodi:cy="181.37419" sodipodi:cx="381.25159" id="path820" d="M 384.68910 181.37419 A 3.4375150 3.1250150 0 1 1  377.81407,181.37419 A 3.4375150 3.1250150 0 1 1  384.68910 181.37419 z"/>
    <path transform="matrix(0.316782, 0.695571, -0.5691, 0.139385, 278.845, -160.947)" style="fill: rgb(37, 159, 0); fill-opacity: 1; fill-rule: evenodd; stroke: none; stroke-width: 1pt; stroke-linecap: butt; stroke-linejoin: miter; stroke-opacity: 1;" sodipodi:type="arc" sodipodi:ry="3.1250150" sodipodi:rx="3.4375150" sodipodi:cy="181.37419" sodipodi:cx="381.25159" id="path821" d="M 384.68910 181.37419 A 3.4375150 3.1250150 0 1 1  377.81407,181.37419 A 3.4375150 3.1250150 0 1 1  384.68910 181.37419 z"/>
  </g>
  <path style="fill: rgb(0, 0, 0); fill-opacity: 1; fill-rule: evenodd; stroke: none; stroke-width: 1px; stroke-linecap: butt; stroke-linejoin: miter; stroke-opacity: 1;" d="M 406.21408,299.67155 L 375.19356,277.47726 L 344.41068,300.00000 L 355.93281,263.63928 L 325.00000,241.32291 L 363.14159,241.04503 L 374.80694,204.73000 L 386.85762,240.91899 L 425.00001,240.79145 L 394.30614,263.43534 L 406.21408,299.67155 z " id="path1471"/>
</svg>