<?xml version="1.0" encoding="UTF-8" standalone="no"?>
<!-- Created with Inkscape (http://www.inkscape.org/) -->

<svg
   xmlns:dc="http://purl.org/dc/elements/1.1/"
   xmlns:cc="http://creativecommons.org/ns#"
   xmlns:rdf="http://www.w3.org/1999/02/22-rdf-syntax-ns#"
   xmlns:svg="http://www.w3.org/2000/svg"
   xmlns="http://www.w3.org/2000/svg"
   xmlns:sodipodi="http://sodipodi.sourceforge.net/DTD/sodipodi-0.dtd"
   xmlns:inkscape="http://www.inkscape.org/namespaces/inkscape"
   id="svg3336"
   version="1.1"
   inkscape:version="0.92.5 (2060ec1f9f, 2020-04-08)"
   width="746.01062"
   height="500.0058"
   viewBox="0 0 746.01062 500.0058"
   sodipodi:docname="Flag_of_the_American_Indian_Movement_V2.svg">
  <metadata
     id="metadata3342">
    <rdf:RDF>
      <cc:Work
         rdf:about="">
        <dc:format>image/svg+xml</dc:format>
        <dc:type
           rdf:resource="http://purl.org/dc/dcmitype/StillImage" />
        <dc:title></dc:title>
      </cc:Work>
    </rdf:RDF>
  </metadata>
  <defs
     id="defs3340" />
  <sodipodi:namedview
     pagecolor="#ffffff"
     bordercolor="#666666"
     borderopacity="1"
     objecttolerance="10"
     gridtolerance="10"
     guidetolerance="10"
     inkscape:pageopacity="0"
     inkscape:pageshadow="2"
     inkscape:window-width="1528"
     inkscape:window-height="836"
     id="namedview3338"
     showgrid="false"
     borderlayer="false"
     fit-margin-top="0"
     fit-margin-left="0"
     fit-margin-right="0"
     fit-margin-bottom="0"
     inkscape:zoom="0.65799237"
     inkscape:cx="375.00531"
     inkscape:cy="250.00291"
     inkscape:window-x="72"
     inkscape:window-y="27"
     inkscape:window-maximized="1"
     inkscape:current-layer="svg3336"
     inkscape:snap-global="false" />
  <path
     style="fill:#090d15;fill-opacity:1"
     d="M 0,250.00581 V 0.00579995 h 93.75 93.75001 V 250.00581 v 250 H 93.75 0 Z"
     id="path3370"
     inkscape:connector-curvature="0" />
  <path
     style="fill:#f5cf11;fill-opacity:1"
     d="M 187.50203,250.00521 V 0.005196 h 93.75001 93.75001 v 250.000014 250 h -93.75001 -93.75001 z"
     id="path3370-2"
     inkscape:connector-curvature="0" />
  <path
     style="fill:#fffff2;fill-opacity:1"
     d="M 375.00989,250.00001 V 0 h 93.75001 93.75001 v 250.00001 250 H 468.7599 375.00989 Z"
     id="path3370-2-1"
     inkscape:connector-curvature="0" />
  <path
     style="fill:#850405;fill-opacity:1"
     d="M 558.5106,250.00113 V 0.00113274 h 93.75001 93.75001 V 250.00113 v 250 H 652.26061 558.5106 Z"
     id="path3370-2-1-14"
     inkscape:connector-curvature="0" />
  <path
     style="fill:#fffff2;fill-opacity:1"
     d="m 406.17036,274.44231 c -0.0463,0.0107 -2.64271,-1.28676 -5.7703,-2.88405 -5.14758,-2.62893 -5.68319,-2.91681 -5.65143,-3.03742 0.0502,-0.19034 18.97726,-4.73591 19.10435,-4.58812 0.0804,0.0937 -0.27534,0.59563 -3.75495,5.29647 -2.11416,2.85615 -3.88164,5.20206 -3.92768,5.21313 z"
     id="path3365-1"
     inkscape:connector-curvature="0" />
  <path
     style="fill:#850405;fill-opacity:1;stroke-width:0.69861758"
     d="m 364.52884,398.65746 c -22.73707,-1.83479 -49.76832,-10.99751 -67.64046,-22.92793 -14.78043,-9.86658 -34.78696,-29.97867 -45.11179,-45.34984 -10.55991,-15.72115 -19.15522,-39.3416 -22.16626,-60.91428 -3.34556,-23.96933 0.44387,-52.57001 9.81516,-74.07967 3.46804,-7.96015 7.24957,-14.69749 8.29871,-14.78537 0.36159,-0.0302 1.3564,2.95396 2.21071,6.63166 2.63556,11.34601 7.70205,20.76585 13.30362,24.73477 1.64471,1.16534 2.99038,2.66281 2.99038,3.3277 0,0.66491 -1.06192,4.62297 -2.35983,8.7957 -3.23073,10.38662 -4.18279,18.26267 -3.72926,30.85071 0.42664,11.84184 2.19286,21.90933 5.79574,33.03595 3.11728,9.627 12.88568,29.68669 13.94021,28.62666 0.37637,-0.37833 -0.82869,-4.16707 -8.37787,-26.34 l -5.33154,-15.65946 1.16923,-3.60247 c 1.87751,-5.7847 8.63226,-22.83047 10.93193,-27.587 2.19571,-4.54151 4.37607,-7.36329 14.59614,-18.89008 3.34344,-3.77091 7.10619,-8.6594 8.36167,-10.86329 l 2.28271,-4.00708 3.48404,0.50491 c 1.9162,0.27771 8.97136,0.48587 15.67812,0.46262 11.25357,-0.039 12.89972,-0.21463 21.34234,-2.27641 5.03154,-1.22876 9.97014,-2.23412 10.9747,-2.23412 1.69469,0 1.82646,0.22291 1.82646,3.08955 0,4.50501 -2.24908,11.04516 -5.17711,15.05471 -2.93012,4.01241 -7.14861,7.31163 -13.63666,10.66504 -4.31671,2.23113 -4.94613,2.35293 -13.41351,2.59594 l -8.88428,0.25498 v 24.73793 24.73793 l 2.61302,1.61078 c 6.98371,4.30506 13.42599,12.27183 20.83256,25.76244 5.44487,9.91748 6.98286,11.33267 6.24574,5.74706 -1.55363,-11.77287 -8.83661,-23.86368 -20.26565,-33.64405 l -5.24482,-4.48825 v -18.44988 -18.44988 h 7.33884 c 8.84225,0 10.21672,-0.50373 17.0334,-6.24278 3.8473,-3.23911 5.59515,-4.27947 6.92663,-4.12291 1.6726,0.19667 1.83058,0.56238 2.59809,6.01419 0.44946,3.19262 1.33604,6.60072 1.97017,7.57357 1.48593,2.27963 6.92284,5.74241 9.89668,6.30322 4.79526,0.90427 7.22622,-0.17224 12.11864,-5.36653 2.51725,-2.67254 5.07853,-4.85918 5.69176,-4.85918 0.6132,0 2.76348,1.41448 4.77834,3.14331 5.34511,4.58624 8.88157,4.91856 13.70278,1.28762 4.43038,-3.33658 5.34031,-6.29025 5.61832,-18.23708 0.22461,-9.65245 0.36992,-10.69314 1.54527,-11.06812 2.14758,-0.68516 6.44582,0.87555 10.82156,3.92936 5.44919,3.80297 6.66902,4.95795 11.55035,10.93631 l 4.12393,5.05075 -2.51525,5.02064 -2.51525,5.0206 4.50548,7.4395 c 5.21364,8.6088 11.08693,20.19351 13.4938,26.61571 1.61072,4.29785 1.62708,4.51943 0.43182,5.84705 -0.68329,0.75895 -2.96898,2.39231 -5.07934,3.62969 -4.41858,2.5908 -5.00327,4.1727 -2.84172,7.68839 0.79395,1.29132 1.44354,2.57001 1.44354,2.84153 0,0.27152 -1.93056,2.31198 -4.29014,4.53437 -4.44767,4.18904 -4.81651,5.66296 -1.41738,5.66378 l 1.87509,4.4e-4 0.0698,6.12836 c 0.0465,4.08847 0.67687,8.54758 1.89354,13.39644 2.43092,9.68818 2.10658,10.26625 -6.96745,12.4179 -3.06917,0.72776 -10.03357,1.30173 -19.67212,1.62126 l -14.92091,0.49464 -3.64958,3.94135 c -3.64168,3.9328 -8.66536,12.83081 -8.66536,15.34823 0,2.19317 2.0133,2.33042 10.08187,0.68726 33.18078,-6.75719 61.59498,-25.82503 78.68693,-52.80417 7.60095,-11.99788 14.2714,-29.00154 17.24475,-43.95862 2.05944,-10.35979 2.19152,-26.85171 0.29993,-37.44499 -4.90685,-27.47912 -16.44954,-49.74683 -35.09777,-67.70934 -16.81667,-16.19829 -36.24251,-26.27254 -60.76362,-31.51205 -13.04604,-2.7876 -25.3473,-2.52819 -44.1246,0.93045 -6.54116,1.20483 -8.35164,1.33453 -8.7852,0.62935 -0.30038,-0.48854 -0.75782,-4.17971 -1.01656,-8.2026 -0.55991,-8.70556 -0.96686,-9.93447 -5.00593,-15.11687 -1.7062,-2.18917 -2.8628,-4.12055 -2.57022,-4.29192 3.08499,-1.80698 21.51166,-5.30994 31.88826,-6.06205 27.60247,-2.00066 61.63534,6.02848 84.85064,20.0182 16.86943,10.16566 40.23528,33.11226 51.23857,50.31922 11.04082,17.2656 19.44602,42.80653 21.79307,66.22262 2.91952,29.1276 -6.64589,66.96975 -23.13806,91.53731 -10.63151,15.83725 -29.89585,35.08636 -45.55307,45.51702 -24.73032,16.47509 -60.22696,25.15786 -92.2765,22.57159 z m 0.16323,-152.83437 c -1.1117,-1.27276 -2.74256,-3.48722 -3.62413,-4.92108 -1.60021,-2.60266 -1.60233,-2.642 -1.28442,-23.77707 0.34422,-22.88469 0.63157,-24.91347 4.08948,-28.8723 2.59047,-2.96576 5.80853,-3.74579 8.87575,-2.15141 4.93289,2.56416 6.43825,10.14685 6.60016,33.24609 l 0.11095,15.83184 -2.08672,5.13004 c -2.73553,6.72508 -3.80963,7.82798 -7.62352,7.82798 -2.5633,0 -3.35118,-0.36049 -5.05757,-2.31409 z m 27.34647,-1.97307 c -1.00636,-1.20222 -2.27024,-3.2456 -2.80862,-4.54083 -2.33969,-5.6288 -5.94759,-26.59721 -5.9223,-34.41919 0.0185,-5.72842 1.52721,-9.44253 5.12561,-12.61844 2.21099,-1.95138 3.09306,-2.2704 6.27758,-2.2704 2.70508,0 4.34421,0.4323 6.07281,1.60158 3.88466,2.62775 4.29239,4.96922 3.86794,22.21318 -0.45815,18.61278 -1.92999,26.81248 -5.50058,30.64398 -2.12578,2.28113 -4.8909,2.04402 -7.11244,-0.60988 z M 287.73018,208.03734 c -2.91134,-2.40774 -9.71133,-8.22685 -15.11109,-12.93133 -5.39976,-4.70449 -11.00632,-9.31809 -12.459,-10.25245 -3.60806,-2.32064 -6.86265,-5.45695 -12.10264,-11.66281 -2.4396,-2.8893 -7.58008,-8.5642 -11.42325,-12.61094 -7.37933,-7.77013 -10.59149,-12.17032 -14.31474,-19.60901 -3.6697,-7.33175 -6.95738,-15.41068 -6.95738,-17.09664 0,-0.85961 1.14426,-2.9067 2.5428,-4.54909 2.3519,-2.76197 2.72935,-2.95099 5.02777,-2.51756 1.36672,0.25775 3.43648,0.95949 4.59945,1.55944 2.74097,1.41399 12.76056,11.20778 17.25471,16.86585 3.08783,3.88754 4.39821,4.86692 10.90795,8.15253 4.0692,2.0538 9.33015,5.16601 11.69102,6.916 4.09003,3.03172 10.75312,11.13291 12.56513,15.27702 0.78563,1.79677 3.92726,3.94166 13.50935,9.22327 5.24181,2.88926 9.68352,7.38691 11.83166,11.98066 0.81395,1.74063 3.17567,4.82154 5.24827,6.84646 2.07258,2.02491 3.76834,4.02889 3.76834,4.45328 0,0.42441 -2.41247,1.83734 -5.36103,3.13989 -3.82748,1.69081 -6.69208,3.63045 -10.0142,6.7807 -2.55926,2.42685 -4.93593,4.41244 -5.2815,4.41244 -0.34555,0 -3.01028,-1.96996 -5.92162,-4.37771 z m 35.10796,-14.70912 c -1.6583,-2.07562 -4.4439,-8.55441 -5.85469,-13.61691 -1.32281,-4.74681 -1.50755,-7.0181 -1.39738,-17.18121 l 0.12695,-11.71127 -2.82822,-7.47614 c -3.28357,-8.67979 -4.09363,-14.63267 -2.75469,-20.24311 0.88549,-3.71032 0.83893,-4.00327 -1.9945,-12.54834 -3.5476,-10.698868 -4.16289,-15.54458 -2.6417,-20.804535 1.159,-4.007535 3.68069,-8.355579 5.12155,-8.830832 0.4599,-0.151698 2.26927,1.052042 4.02081,2.674962 9.54044,8.839858 17.89103,29.446145 22.40141,55.278655 5.33102,30.53268 7.11176,41.95437 7.39853,47.45439 l 0.30132,5.77858 h -2.9591 c -1.6275,0 -5.41679,0.47275 -8.42064,1.05054 -6.65533,1.28015 -9.59773,1.32916 -10.51965,0.17522 z"
     id="path117"
     inkscape:connector-curvature="0" />
  <path
     style="fill:#fffff2;fill-opacity:1;stroke-width:0.06181933"
     d="m 400.86344,266.10754 -4.3169,-3.16834 0.0173,-1.39556 0.0173,-1.39555 1.71337,-0.3926 c 4.07651,-0.9341 6.06122,-1.36394 6.28568,-1.36133 0.13221,0.002 1.19418,0.27369 2.35992,0.6048 1.16576,0.3311 2.62872,0.74498 3.25102,0.91972 0.62231,0.17474 1.18966,0.34041 1.26078,0.36816 0.0712,0.0277 0.23115,0.0812 0.35561,0.11872 0.12446,0.0375 0.58234,0.28757 1.01751,0.55559 l 0.79121,0.4873 5.1e-4,1.13272 5.2e-4,1.13271 -3.73455,2.48245 c -2.05401,1.36535 -3.81426,2.51565 -3.91166,2.55622 -0.0974,0.0406 -0.1771,0.0948 -0.1771,0.12056 0,0.0413 -0.54098,0.41043 -0.59356,0.40494 -0.011,-0.002 -1.96329,-1.42793 -4.33759,-3.17051 z"
     id="path130"
     inkscape:connector-curvature="0" />
</svg>
