<?xml version="1.0" encoding="UTF-8" standalone="no"?>
<svg
   viewBox="0 0 36000 21600"
   height="720"
   width="1200"
   version="1.1"
   id="svg16"
   sodipodi:docname="Flag_of_Mississippi_(USA)_(no-text).svg"
   inkscape:version="1.1.2 (0a00cf5339, 2022-02-04)"
   xmlns:inkscape="http://www.inkscape.org/namespaces/inkscape"
   xmlns:sodipodi="http://sodipodi.sourceforge.net/DTD/sodipodi-0.dtd"
   xmlns="http://www.w3.org/2000/svg"
   xmlns:svg="http://www.w3.org/2000/svg">
  <defs
     id="defs20" />
  <sodipodi:namedview
     id="namedview18"
     pagecolor="#ffffff"
     bordercolor="#666666"
     borderopacity="1.0"
     inkscape:pageshadow="2"
     inkscape:pageopacity="0.0"
     inkscape:pagecheckerboard="0"
     showgrid="false"
     inkscape:zoom="1.115"
     inkscape:cx="599.55157"
     inkscape:cy="360.08969"
     inkscape:window-width="1920"
     inkscape:window-height="1016"
     inkscape:window-x="0"
     inkscape:window-y="27"
     inkscape:window-maximized="1"
     inkscape:current-layer="svg16" />
  <path
     fill="#ba0c2f"
     d="M0 0h36000v21600H0z"
     id="path2" />
  <path
     fill="#d69a2d"
     d="M7500 0h21000v21600H7500z"
     id="path4" />
  <path
     fill="#041e42"
     d="M9000 0h18000v21600H9000z"
     id="path6" />
  <path
     fill="#d69a2d"
     d="M17136 4073.5h590.9l183.1 250.9-295 97.1-479-348m1699.2 0h-590.9l-183.1 250.9 295 97.1 479-348m-848.8-616.8 179.2 559.2-180.9 250.8-179.1-249.1 180.8-560.9m520 1612.8-474-342.3v-309.3l293.1 96.6 180.9 555m-1040.4 0 474-342.3v-309.3l-293.1 96.6-180.9 555"
     id="path8" />
  <path
     fill="#fff"
     id="path10"
     style="stroke-width:0.0333333"
     transform="scale(30)"
     d="m 534.55664,132.32422 -0.70312,14.32617 -13.87305,3.73047 13.41601,5.04883 -0.58984,14.27734 8.92578,-11.20703 13.4707,5.05273 -7.8789,-11.84961 8.97851,-11.20312 -13.86914,3.73047 z m 130.88672,0 -7.87695,11.90625 -13.86914,-3.73047 8.97851,11.20312 -7.8789,11.84961 13.4707,-5.05273 8.92578,11.20703 -0.58984,-14.27734 13.41601,-5.04883 -13.87305,-3.73047 z m -182.02734,20.15625 2.56445,14.18359 -12.69727,6.74024 14.17774,1.96484 2.56836,14.07031 6.24804,-12.94922 14.17578,1.96289 -10.3496,-9.88281 6.24218,-12.89648 -12.58203,6.74609 z m 233.16796,0 -10.34765,9.93945 -12.58203,-6.74609 6.24218,12.89648 -10.3496,9.88281 14.17578,-1.96289 6.24804,12.94922 2.56836,-14.07031 14.17774,-1.96484 -12.69727,-6.74024 z m -254.8164,29.45898 -10.98828,9.29297 -12.12891,-7.56836 5.39649,13.25977 -10.99024,9.29297 14.30664,-1.08985 5.39649,13.26367 3.47265,-13.89453 14.24805,-1.09179 -12.1875,-7.51758 z m 276.46289,0 3.47656,13.94727 -12.1875,7.51758 14.24805,1.09179 3.47265,13.89453 5.39649,-13.26367 14.30664,1.08985 -10.99024,-9.29297 5.39649,-13.25977 -12.12891,7.56836 z m -314.82031,35.24024 -8.54102,11.49414 -13.58203,-4.52344 8.3125,11.63867 -8.48633,11.55078 13.60938,-4.36914 8.31445,11.63868 0.14648,-14.24219 13.66211,-4.36328 -13.52929,-4.57813 z m 353.17968,0 0.0899,14.24609 -13.52539,4.57813 13.66211,4.36328 0.14648,14.24219 8.31445,-11.63868 13.60938,4.36914 -8.48633,-11.55078 8.3125,-11.63867 -13.58203,4.52344 z M 584.9043,255.62305 c -2.67667,-0.8 -5.62334,0.13299 -8.5,1.73633 -5.62334,3.33333 -10.51081,8.40466 -14.99414,13.61132 -4.42,5.27 -8.57026,10.87245 -12.1836,16.67578 -1.47333,2.53667 -2.81065,5.13665 -4.08398,7.80664 -0.53667,1.26667 -1.33951,3.40352 -2.07617,5.60352 -0.6,1.80333 -1.20378,3.60391 -1.53711,5.00391 -0.40334,1.40333 -0.66992,2.33593 -0.66992,2.33593 -0.27001,0.8 -0.60274,1.66654 -0.80274,2.53321 l -1.07031,3.80273 c -0.60334,2.07 -0.93959,4.20344 -1.40625,6.27344 -0.33667,2.06667 -0.66914,4.20456 -0.86914,6.33789 -0.67,8.34 1.67291,16.41385 6.15625,23.61719 3.28,5.07333 7.42857,9.54323 12.11523,13.47656 0.2,0.0667 0.40018,0.0661 0.60352,0.13281 5.08666,1.80334 9.37005,4.73573 13.38672,7.53907 0.33333,-1.06667 1.13682,-2.06589 2.41015,-2.19922 1.54,0.13333 2.27414,1.46679 2.74414,2.46679 v 0.13282 c 0,0.33333 -0.20044,0.73385 -0.53711,0.86718 -0.2,0.0667 -0.39935,0.0669 -0.66601,-0.0664 0.0667,0.33333 0.13281,0.66888 0.13281,0.93554 0,-0.0667 2.6e-4,0.26771 -0.0664,0.73438 0.4,0.33333 0.80287,0.59857 1.26954,0.86523 -0.0667,-0.46666 -5.3e-4,-0.99843 0.13281,-1.39843 0.33666,-1.13667 1.20825,-2.20456 2.54492,-2.33789 1.54,0.0667 2.27635,1.46763 2.67969,2.40429 0,0.0667 0.0667,0.0661 0,0.13281 0,0.4 -0.13737,0.73386 -0.47071,0.86719 h -0.0664 c -0.13334,0.0667 -0.40326,0.0667 -0.66992,0 0.13333,0.26667 0.19922,0.60026 0.19922,0.9336 0,-0.0667 7.8e-4,0.26523 -0.19922,0.86523 0,0.2 -0.20013,0.53437 -0.4668,0.73438 0.53333,0.33333 1.07075,0.60273 1.60742,0.80273 0.0667,-0.26667 0.0659,-0.60247 0.19922,-0.86914 0.33333,-1.13333 1.13656,-2.20065 2.47656,-2.33399 1.54,0.0667 2.27414,1.40039 2.74414,2.4004 v 0.13281 c 0,0.33666 -0.20044,0.73776 -0.53711,0.87109 -0.2,0.0667 -0.39935,0.065 -0.66601,-0.0684 0.0667,0.33334 0.13281,0.66667 0.13281,1 0,-0.0667 0.0667,0.0673 0,0.33399 h 0.0664 c 1.20333,0.2 2.00648,0.2664 3.14648,0.0664 l 4.08399,-0.66601 c 0.4,-0.0667 0.73364,-0.13256 1.07031,-0.19922 0.0667,-0.2 0.0661,-0.40182 0.13281,-0.53516 -0.2,0.0667 -0.53776,0.20169 -0.87109,0.0684 -0.2,-0.13333 -0.40209,-0.33469 -0.46875,-0.80469 0,-0.0667 -0.0667,-0.13255 0,-0.19921 0.40333,-1 1.13968,-2.33373 2.67968,-2.4004 1.33667,0.13334 2.20631,1.20066 2.54297,2.33399 0.0667,0.26667 0.0661,0.53581 0.13282,0.86914 0.46666,-0.13333 1.0046,-0.1987 1.4746,-0.33203 -0.40333,-0.47 -0.60377,-1.13854 -0.5371,-1.67188 -0.0667,-0.4 0.0659,-0.66523 0.19921,-0.86523 -0.2,0.0667 -0.53247,0.19974 -0.86914,0.0664 -0.2,-0.0667 -0.39987,-0.33412 -0.5332,-0.80079 v -0.19921 c 0.46667,-0.93334 1.20219,-2.33764 2.74219,-2.4043 1.33666,0.13333 2.13989,1.20122 2.47656,2.33789 0.26667,0.73333 0.26667,1.53203 0,2.33203 0.0667,0 -0.0656,0.19987 -0.26562,0.5332 0.66666,-0.13333 1.26971,-0.3332 1.87304,-0.5332 l 0.53321,-0.13281 0.53711,-0.9336 c -0.0667,0 -0.0661,2.6e-4 -0.13282,-0.0664 -0.60333,-0.53334 -0.80495,-1.26719 -0.73828,-1.86719 0,-0.4 0.13425,-0.66888 0.26758,-0.93555 -0.2,0.13334 -0.60083,0.26615 -0.9375,0.13282 -0.2,-0.13334 -0.40013,-0.33217 -0.4668,-0.79883 v -0.20117 c 0.4,-1 1.13774,-2.33347 2.67774,-2.4668 1.07,0.13333 1.73898,0.79961 2.20898,1.59961 0.66667,-1.33334 1.27115,-2.73529 2.00781,-4.00196 1.07,-2.06666 2.07388,-4.13789 2.81055,-6.33789 0.73667,-2.13666 1.60513,-4.26932 2.3418,-6.47265 l 1.54101,-6.66992 c 1.00334,-4.47 1.53972,-9.14107 1.87305,-13.67774 0.13333,-2.33666 0.13333,-4.60305 0,-6.87304 -0.0667,-1.53334 -0.20065,-2.39993 -0.33398,-3.66993 0,0 -0.40305,-5.40226 -1.87305,-9.07226 -0.60333,-1.53334 -1.07344,-2.4681 -1.27344,-3.13477 -0.26667,-0.6 -0.20026,-0.8694 0.0664,-0.80273 0.47,0.0667 1.87315,1.20364 3.14648,3.07031 -0.0667,-0.2 1.34068,2.06992 2.27735,4.66992 0.93666,2.53667 1.40429,5.26953 1.40429,5.26953 l 0.26953,1.8711 0.13282,2.46679 c 0.0667,2.40334 0.0672,4.73534 -0.13282,7.13868 -0.33666,4.73666 -0.87002,9.34002 -1.94336,13.94336 l -1.67382,6.9414 -2.41016,6.60352 c -0.73333,2.27 -1.87362,4.33541 -2.87695,6.46875 -1.07,2.00333 -1.93956,4.13781 -3.21289,6.00781 1.94,-0.6 3.95036,-1.20162 5.95703,-1.73828 0.87,-0.2 1.80942,-0.39961 2.74609,-0.59961 7.43,-12.47333 13.38805,-25.81649 15.99805,-39.89649 1.67333,-9.14 1.47328,-18.41403 -1.13672,-27.2207 -1.20667,-4.40333 -3.21474,-8.47174 -5.69141,-12.20508 l -1.80664,-2.40429 c -0.53666,-0.73334 -1.13885,-1.33334 -1.74219,-2 0,0 -0.33442,-0.33391 -0.87109,-1.00391 -0.53333,-0.66667 -1.2037,-1.66602 -2.20703,-2.66602 -1.00333,-1.06666 -2.20878,-2.27044 -3.41211,-3.5371 -2.94667,-2.33334 -6.02664,-4.60222 -9.30664,-6.93555 -5.55333,-4.60667 -9.63625,-10.01047 -14.65625,-14.48047 -2.47667,-2.2 -5.15654,-4.13698 -8.0332,-5.07031 z m -190.875,4.65039 -5.7168,13.08008 -14.24609,-1.36329 10.78711,9.51563 -5.82422,13.07422 12.41797,-7.18946 10.79296,9.40235 -3.19335,-13.92969 12.36328,-7.19336 -14.24024,-1.4707 z m 411.9414,0 -3.14062,13.92578 -14.24024,1.4707 12.36328,7.19336 -3.19335,13.92969 10.79296,-9.40235 12.41797,7.18946 -5.82422,-13.07422 10.78711,-9.51563 -14.24609,1.36329 z m -112.3164,23.08398 c -7.76334,-0.13333 -15.5269,1.53612 -22.49024,4.93946 -6.96,3.40666 -13.18377,8.34593 -18.53711,14.08593 -4.68666,5.14334 -8.70333,10.81813 -12.25,16.82813 0.2,5.40666 -0.26619,10.74867 -1.26953,15.88867 -2.47666,12.61667 -7.29672,24.37005 -13.38672,35.38672 1.13667,-0.67 2.27571,-1.46953 3.34571,-2.26953 1.54,-1.20334 3.01104,-2.53998 4.48437,-3.80664 l 15.66211,-15.22266 c 2.20667,-2.33667 4.3505,-4.67336 6.42383,-6.94336 l 2.34375,-2.60352 c 0,0 4.08349,-4.00773 7.16015,-6.67773 1.94334,-1.73667 2.94571,-2.46875 3.34571,-2.46875 0.60333,-0.0667 -0.33305,1.80279 -1.87305,3.93945 0.2,-0.13333 -1.34002,1.93222 -2.94336,3.93555 l -3.21289,4.14063 -6.15625,6.74414 c -2.41,2.60333 -4.82021,5.13937 -7.29687,7.60937 -4.55,4.61 -9.23756,9.15044 -14.32422,13.28711 l 1.27343,-0.4668 c 1.80667,-0.6 3.61326,-1.53619 5.41993,-2.26953 1.07,-0.46666 2.07341,-1.00044 3.08007,-1.53711 0,0 4.07987,-1.66659 9.03321,-3.66992 2.34333,-1.07 3.54784,-1.40286 3.95117,-1.26953 0.60333,0.13333 -0.93674,1.53534 -3.08008,3.13867 0.20334,-0.13333 -1.87398,1.33326 -4.08398,2.66992 -2.20667,1.4 -4.55078,2.73633 -4.55078,2.73633 -0.93667,0.4 -1.80552,0.86815 -2.74219,1.27149 -1.13667,0.46666 -2.21125,1.00013 -3.28125,1.46679 1.07,0.2 2.14484,0.33352 3.21484,0.60352 2.67667,0.73333 5.35216,1.26568 8.29883,2.40234 0.73333,0.26667 1.47037,0.6 2.20703,1 0.40334,0.2 0.73698,0.39935 1.07031,0.66602 0.33667,0.2 1.00599,0.73646 1.47266,1.20312 0.93667,0.93334 1.40677,2.27188 1.27344,3.67188 0,0.33666 -0.0665,0.73672 -0.20313,1.13672 7.83334,-2.20334 15.32698,-5.87836 21.82032,-10.81836 6.29,-4.74 11.78059,-10.67906 16.19726,-17.28906 l 3.14649,-5.07618 c 0.73666,-1.73333 1.67226,-3.33703 2.07226,-5.20703 l 0.4707,-1.53711 c 0.13334,-0.4 0.19896,-0.79922 0.26563,-1.19922 l 0.4707,-2.53711 c 0,0 0.13425,-0.53593 0.26758,-1.33593 0.13333,-0.86667 0.33156,-2.07071 0.60156,-3.47071 0.46667,-2.80666 0.9369,-6.47744 1.74024,-9.55078 1.27,-5.07333 2.47721,-6.4069 2.81054,-5.74023 0.2,0.33333 0.26732,1.13482 0.33399,2.27148 -0.0667,1.06667 -0.0664,2.46893 -0.0664,4.07227 0.0667,-0.33334 -2.6e-4,3.3376 0.0664,7.21094 0,1.93666 -0.0681,3.93932 -0.13477,5.47265 0,1.53667 -0.19922,2.60352 -0.19922,2.60352 l -0.4707,2.87304 c -0.26667,1 -0.39979,1.40058 -1.20312,4.00391 -0.33334,1.07 -0.86985,2.06893 -1.33985,3.07227 -0.46666,1 -0.93541,2.07109 -1.46875,2.87109 -1.14,1.80333 -2.14406,3.67318 -3.41406,5.33984 -4.08333,5.94334 -9.03651,11.28396 -14.58984,15.89063 6.42333,-2.06667 12.98362,-4.00422 19.87695,-5.07422 2.34333,-0.4 4.75016,-0.59909 7.16016,-0.73242 0.20333,-0.4 0.46992,-0.73339 0.66992,-1.13672 5.22,-10.14667 7.16276,-21.96367 7.49609,-33.51367 0.0667,-2.94 0.0669,-5.81138 -0.0664,-8.74805 -0.0667,-2.94 -0.3373,-5.6757 -1.14063,-8.3457 -0.66667,-2.60334 -1.93943,-5.00722 -3.74609,-6.81055 -0.80334,-0.86667 -1.80696,-1.53698 -2.87696,-2.07031 -0.20333,0.33333 -0.40351,0.66724 -0.60351,1.0039 -3.41334,6.00667 -3.07972,3.13779 -1.87305,-0.93554 -0.13333,0.2 0.67096,-2.13742 1.4043,-4.60742 0.67,-2.40334 1.13867,-4.87305 1.13867,-4.87305 0.13333,-0.6 0.26706,-1.13659 0.40039,-1.66992 l 0.13281,-0.86719 v -0.19922 l 0.13672,-1.07031 c 0.13333,-0.93334 0.13307,-1.86966 0.0664,-2.73633 -0.20334,-3.54 -2.27612,-6.14349 -5.68946,-7.41016 -3.34666,-1.27 -7.36218,-1.53658 -11.24218,-1.66992 z m -130.52149,0.7461 c 0.0838,0.50875 -0.68599,2.11002 -1.72265,3.94336 0.13333,-0.20001 -1.14016,1.93645 -2.41016,4.20312 -1.20667,2.20333 -2.34375,4.53711 -2.34375,4.53711 l -1.47266,2.53711 c -1.80666,3.40333 -3.41416,6.80318 -4.6875,10.33984 -0.66666,1.93667 -1.27023,3.8694 -1.74023,5.80274 0,0.07 -0.0661,0.0698 -0.13281,0.20312 -0.73667,0.6 -2.34381,1.53393 -3.48047,-0.80273 0,0 -0.0664,-0.20065 -0.0664,-0.33399 0.53667,-2.06666 1.13638,-4.13672 1.87305,-6.13672 1.40667,-3.73666 3.08174,-7.33997 4.95508,-10.80664 l 1.73828,-3.07031 c 0,0 3.28041,-4.86997 6.09375,-7.80664 2.375,-2.535 3.31273,-3.11812 3.39648,-2.60937 z m -59.53711,23.65234 c -5.28666,-0.53333 -10.70846,-0.39878 -15.59179,1.33789 -2.41,0.8 -4.55154,2.20195 -6.15821,4.00195 -1.74,1.80334 -2.60877,4.14107 -3.41211,6.67774 -1.47333,5.07333 -1.2077,10.54724 0.26563,15.7539 0.93667,3.13667 2.21112,6.21008 3.81445,9.08008 0.20334,0.26667 0.40326,0.59974 0.66992,1.06641 0.40334,0.53333 0.86985,1.20221 1.33985,1.93555 0.53333,0.66666 1.13716,1.33364 1.67383,2.07031 0.6,0.73333 1.20356,1.46672 1.74023,2.13672 0.6,0.66666 1.20187,1.26744 1.67188,1.80078 1.00333,1.00333 1.60742,1.66992 1.60742,1.66992 0.6,0.66667 1.2033,1.26555 1.80664,1.93555 0.66666,0.66666 0.86937,0.93351 2.60937,2.60351 2.87667,2.53667 5.88797,5.0731 9.16797,7.00977 1.54,1.06666 3.34594,1.86659 5.08594,2.66992 l 5.28711,2.53711 5.55664,1.86719 c 1.87333,0.60333 3.67914,1.26992 5.61914,1.66992 4.82,1.2 9.77461,2.13581 14.72461,2.86914 -0.4,-0.86667 -0.73724,-1.73685 -1.00391,-2.60352 -0.33333,-1 -0.53659,-1.86992 -0.66992,-2.66992 -2.81,-0.86667 -5.68635,-1.86888 -8.42969,-2.93555 -5.95666,-2.27 -11.7807,-4.80773 -17.4707,-7.67773 -2.81,-1.40333 -5.61995,-2.80318 -8.36328,-4.33984 l -3.54688,-1.93555 c 0,0 -4.82013,-3.1369 -7.96679,-5.74023 -5.42,-4.27334 -2.60964,-3.53633 1.20703,-1.73633 -0.20334,-0.13334 2.07294,1.00312 4.34961,2.20312 2.34,1.13667 4.68359,2.26953 4.68359,2.26953 l 4.01758,2.20313 c 2.67667,1.40333 5.41878,2.80396 8.16211,4.14062 5.49,2.73667 11.11078,5.20709 16.80078,7.34375 2.27333,0.86667 4.61591,1.66568 6.89258,2.40235 0.13333,-0.0667 0.20065,-0.0669 0.33398,0.0664 0.53667,0.46667 1.27393,2.73677 2.94727,5.27344 -0.13667,-0.33333 1.66838,2.73638 4.01172,5.87305 1.14,1.53666 2.27648,3.13768 3.14648,4.54101 0.80333,1.2 1.33789,2.00391 1.33789,2.00391 l 1.33985,2.26562 0.66992,1.13672 1.07031,1.60352 c 0.67,1.13333 1.40534,2.26594 2.13867,3.33594 3.08,4.40666 6.0918,8.67679 9.8418,12.21679 3.68,3.53667 7.89674,6.40761 12.58008,8.21094 4.62,1.87 9.77271,2.60378 14.85937,2.53711 5.15334,0 10.23664,-0.93326 15.05664,-2.66992 6.56,-2.27 12.58339,-6.07354 18.13672,-10.54688 l -0.0664,0.0664 0.73633,-0.59961 c 0.0667,-0.0667 0.13256,-0.0667 0.19922,-0.13672 l 1.60742,-1.40039 0.0664,-0.0664 c 0.2,-0.13333 0.40044,-0.33346 0.53711,-0.46679 l 0.26562,-0.20117 c 1.40667,-1.33667 2.8768,-2.60279 4.2168,-3.93946 3.81333,-3.73666 7.29292,-7.60948 10.90625,-11.88281 0.94,-1 1.81159,-1.93443 2.54492,-2.87109 0.33667,-0.46667 0.66946,-0.93177 0.93946,-1.39844 0.13333,-0.2 0.26731,-0.40018 0.33398,-0.60352 l 0.0664,-0.13476 -0.60352,-0.33203 c -0.93667,-0.53334 -2.0076,-1.00065 -3.21094,-1.33399 -1.14,-0.4 -2.41,-0.73698 -3.75,-1.07031 l -2.00586,-0.4668 c -0.60333,-0.2 -1.20664,-0.33346 -1.80664,-0.46679 -2.47666,-0.46667 -4.95276,-0.73243 -7.49609,-0.73243 -5.08667,-0.0667 -10.24146,0.86646 -15.32812,2.20313 -2.54334,0.66667 -5.08696,1.46732 -7.62696,2.33398 -1.27333,0.40334 -2.47562,0.86953 -4.01562,1.26953 -1.40667,0.4 -2.81039,0.73334 -4.15039,1 -2.74334,0.53667 -5.48545,0.93568 -8.16211,1.40235 l -4.01758,0.60156 c -1.80667,0.26667 -3.54594,0.0658 -5.08594,-0.26758 -3.08,-0.66666 -5.75713,-1.93594 -8.23047,-3.33594 -2.54333,-1.40333 -4.88791,-3.14049 -7.03125,-4.67382 -4.41666,-3.20334 -8.7,-6.21055 -13.25,-7.81055 -2.67666,-0.87 -5.28648,-1.20273 -7.89648,-0.80273 -0.13334,0 -0.19927,0.0669 -0.33594,-0.0664 -0.6,-0.33333 -1.40305,-0.8013 -1.87305,-1.66797 -0.46666,-0.80333 -0.60086,-2.0024 0.86914,-3.53906 0.0667,0 0.27071,-0.26758 0.47071,-0.26758 0.2,-0.0667 0.39992,-0.0664 0.66992,-0.0664 -3.08,-3.13666 -5.8232,-6.60544 -8.0332,-10.41211 -1.13667,-2.07 -2.47735,-4.07153 -3.27735,-6.4082 l -1.33984,-3.33984 -0.93555,-3.53516 c -0.73666,-2.27 -0.80364,-4.74094 -1.07031,-7.21094 -0.13667,-2.40333 0.0659,-4.80591 0.19922,-7.14257 0.4,-3.20334 1.00357,-6.40714 1.74023,-9.48047 -4.41666,-2 -9.10325,-3.73729 -13.91992,-5.14063 -5.02,-1.46666 -10.24094,-2.60364 -15.46094,-3.07031 z m -128.89648,0.98047 -2.56836,14.12109 -14.12109,1.95508 12.61718,6.77344 -2.50976,14.00976 10.37695,-9.91992 12.61524,6.77344 -6.25196,-12.8125 10.26563,-9.92578 -14.17578,1.94922 z m 450.60156,0 -6.24805,12.92383 -14.17578,-1.94922 10.26563,9.92578 -6.25196,12.8125 12.61524,-6.77344 10.37695,9.91992 -2.50976,-14.00976 12.61718,-6.77344 -14.12109,-1.95508 z m -237.18359,41.82422 c 1.60666,0.0667 2.34218,1.46901 2.74219,2.40234 v 0.20117 c 0,0.33334 -0.13347,0.6655 -0.4668,0.79883 v 0.0664 l -0.0664,-0.0664 c -0.13666,0.0667 -0.40325,0.0667 -0.66992,0 0.13333,0.26667 0.20117,0.60026 0.20117,0.93359 0,-0.0667 -0.001,0.26719 -0.20117,0.86719 -0.13333,0.53667 -0.86997,1.46927 -1.80664,1.33594 -0.80333,-0.13333 -1.47388,-0.59948 -1.81055,-1.13281 -0.4,-0.53667 -0.5332,-1.07032 -0.5332,-1.07032 -0.13333,-0.66666 -0.0652,-1.4 0.13476,-2 0.33334,-1.13333 1.20323,-2.2026 2.47657,-2.33593 z m 77.69336,2.16601 c 0.33333,-0.33333 0.80187,-0.2 1.67187,0 0.26667,0.8 0.33334,1.33268 0,1.66602 -0.2,0.2 -0.80318,0.80482 -1.33984,1.27148 -0.53334,0.53334 -1.06836,1 -1.06836,1 0,0 -0.53339,0.46888 -1.13672,0.93555 -0.53667,0.53333 -1.34076,0.93281 -1.60742,1.13281 -0.47,0.26667 -0.93742,0.0682 -1.60742,-0.39844 0.0667,-0.93333 0.0676,-1.39992 0.40429,-1.66992 0.2,-0.13333 0.80261,-0.40026 1.33594,-0.93359 0.53667,-0.46667 1.07031,-0.86719 1.07031,-0.86719 0,0 0.4692,-0.40247 1.00586,-0.86914 0.46667,-0.53333 1.07149,-1.06758 1.27149,-1.26758 z m -83.58399,0.23633 c 1.54,0.0667 2.27414,1.4668 2.74414,2.4668 v 0.13281 c 0,0.33333 -0.20044,0.67135 -0.53711,0.80469 v 0.0664 c -0.2,0.0667 -0.39935,0.0669 -0.66601,-0.0664 0.0667,0.26666 0.19948,0.60026 0.13281,0.93359 0,-0.0667 0.0672,0.3319 -0.13281,0.86524 -0.13667,0.6 -0.94055,1.46731 -1.81055,1.33398 -0.80333,-0.13333 -1.46971,-0.53281 -1.87305,-1.13281 -0.33333,-0.53334 -0.46679,-1 -0.46679,-1 -0.13667,-0.73334 -0.0672,-1.40032 0.13281,-2.07031 0.33333,-1.13334 1.13656,-2.20066 2.47656,-2.33399 z m 11.51367,0 c 1.33667,0.13333 2.20631,1.26732 2.54297,2.33399 0.2,0.73666 0.26667,1.60234 0,2.40234 0,-0.0667 -0.40265,1.06654 -1.47265,1.5332 -0.47,0.26667 -1.27305,0.40052 -1.87305,-0.13281 -0.60333,-0.53333 -0.80495,-1.26719 -0.73828,-1.86719 0,-0.4 0.0678,-0.66497 0.20117,-0.93164 -0.2,0.13333 -0.53776,0.26615 -0.87109,0.13281 -0.2,-0.13333 -0.40209,-0.33442 -0.46875,-0.87109 0,0 -0.0667,-0.13281 0,-0.13281 0.40333,-1 1.13968,-2.40013 2.67968,-2.4668 z m -16.73632,4.33789 c 1.54,0.0667 2.34276,1.39844 2.74609,2.39844 v 0.13476 c 0,0.33334 -0.20044,0.73581 -0.53711,0.86914 -0.2,0.0667 -0.39992,0.0669 -0.66992,-0.0664 0.13333,0.33333 0.20281,0.66693 0.13281,0.93359 0,-0.0667 0.0705,0.3336 -0.13281,0.9336 -0.13333,0.53333 -0.86998,1.46562 -1.80664,1.26562 -0.80334,-0.0667 -1.47331,-0.53307 -1.80664,-1.06641 -0.40334,-0.59999 -0.53711,-1.0664 -0.53711,-1.0664 -0.13334,-0.66667 -0.0652,-1.40391 0.13476,-2.00391 0.33667,-1.13333 1.1399,-2.1987 2.47657,-2.33203 z m 21.82226,0.13281 c 1.33667,0.13334 2.1399,1.26706 2.47656,2.40039 0.26667,0.67 0.26667,1.53594 0,2.33594 0,-0.0667 -0.33625,1.13294 -1.40625,1.59961 -0.46666,0.2 -1.33945,0.33412 -1.93945,-0.19922 -0.60333,-0.53333 -0.73633,-1.26719 -0.73633,-1.86719 0,-0.39999 0.13229,-0.66718 0.26563,-0.86718 -0.2,0.0667 -0.53248,0.20169 -0.86914,0.0684 -0.26667,-0.13334 -0.40045,-0.33469 -0.53711,-0.80469 v -0.19922 c 0.47,-1 1.20609,-2.33346 2.74609,-2.4668 z m -10.70898,0.66602 c 1.60666,0.0667 2.34218,1.46763 2.74219,2.4043 v 0.19921 c 0,0.33334 -0.13347,0.66745 -0.4668,0.80079 v 0.0664 h -0.0664 c -0.13666,0.0667 -0.40325,0.0669 -0.66992,-0.0664 0.13333,0.26666 0.20117,0.60026 0.20117,0.93359 0,-0.0667 -0.001,0.3319 -0.20117,0.86523 -0.13333,0.6 -0.86997,1.46732 -1.80664,1.33399 -0.80333,-0.13333 -1.47388,-0.53281 -1.81055,-1.13281 -0.4,-0.53334 -0.5332,-1.06641 -0.5332,-1.06641 -0.13333,-0.66667 -0.0652,-1.33333 0.13476,-2 0.33334,-1.13667 1.20323,-2.20456 2.47657,-2.33789 z m -221.10352,1.56445 0.69336,14.30274 -13.39648,5.1289 13.85547,3.70703 0.69336,14.30469 7.85351,-11.96094 13.91406,3.71094 -9.06445,-11.18164 7.80078,-11.96289 -13.34375,5.13086 z m 465.97266,0 -9.00586,11.17969 -13.34375,-5.13086 7.80078,11.96289 -9.06445,11.18164 13.91406,-3.71094 7.85351,11.96094 0.69336,-14.30469 13.85547,-3.70703 -13.39648,-5.1289 z m -239.2461,0.83985 c 1.33667,0.13333 2.20631,1.26705 2.54297,2.40039 0.2,0.66666 0.26667,1.5326 0,2.33593 0,-0.0667 -0.40265,1.06654 -1.47265,1.53321 -0.47,0.26666 -1.27305,0.40052 -1.87305,-0.13282 -0.60333,-0.53333 -0.80495,-1.26776 -0.73828,-1.87109 0,-0.4 0.0678,-0.66693 0.20117,-0.93359 -0.2,0.13333 -0.53776,0.2681 -0.87109,0.13476 -0.2,-0.13333 -0.40209,-0.33385 -0.46875,-0.86718 0,0 -0.0667,-0.13282 0,-0.13282 0.40333,-1 1.13968,-2.33346 2.67968,-2.46679 z m -11.17968,0.19921 c 1.60666,0.13334 2.34218,1.4668 2.74218,2.4668 v 0.13281 c 0,0.33334 -0.19987,0.73386 -0.5332,0.86719 -0.2,0.0667 -0.40325,0.0669 -0.66992,-0.0664 0.13333,0.26666 0.19948,0.59888 0.13281,0.93554 0,-0.0667 0.0672,0.3336 -0.13281,0.9336 -0.13333,0.53333 -0.86997,1.40091 -1.80664,1.26757 -0.80333,-0.13333 -1.47331,-0.53281 -1.80664,-1.13281 -0.40334,-0.53333 -0.53711,-1 -0.53711,-1 -0.13333,-0.73666 -0.0652,-1.4039 0.13476,-2.0039 0.33667,-1.13334 1.1399,-2.26706 2.47657,-2.4004 z m -10.17383,1.86719 c 1.54,0.0667 2.27747,1.46542 2.74414,2.46875 v 0.13477 c 0,0.33333 -0.20182,0.66523 -0.53516,0.86523 -0.20333,0.0667 -0.40299,0.0669 -0.73632,-0.0664 0.13333,0.26666 0.20117,0.60026 0.20117,0.93359 0,-0.0667 0.0652,0.33385 -0.13477,0.86719 -0.13333,0.6 -0.93664,1.46732 -1.80664,1.33398 -0.80333,-0.13333 -1.47167,-0.53476 -1.875,-1.13476 -0.4,-0.53334 -0.4668,-1 -0.4668,-1 -0.13333,-0.73334 -0.13385,-1.39974 0.13282,-2.06641 0.33333,-1.13667 1.13656,-2.2026 2.47656,-2.33594 z m 31.32617,0.13281 c 1.33667,0.0667 2.1399,1.19928 2.47656,2.33594 0.26667,0.66667 0.26667,1.53399 0,2.33399 0.0667,-0.0667 -0.33625,1.13294 -1.40625,1.59961 -0.47,0.2 -1.33945,0.40078 -1.93945,-0.19922 -0.60333,-0.53334 -0.73633,-1.26719 -0.73633,-1.86719 0,-0.4 0.13229,-0.66719 0.26563,-0.86719 -0.2,0.0667 -0.53581,0.2017 -0.86914,0.0684 -0.2,-0.13333 -0.40045,-0.33411 -0.53711,-0.80078 v -0.19922 c 0.47,-1.00333 1.20609,-2.33763 2.74609,-2.4043 z m -26.30664,2.20313 c 1.60667,0.0667 2.34414,1.4668 2.74414,2.4668 v 0.13281 c 0,0.33333 -0.13346,0.66719 -0.4668,0.86719 h -0.0664 c -0.13667,0.0667 -0.40326,0.0669 -0.66992,-0.0664 0.13333,0.26667 0.19921,0.60026 0.19921,0.93359 0,-0.0667 7.9e-4,0.33555 -0.19921,0.93555 -0.13334,0.53333 -0.86998,1.40091 -1.80665,1.26758 -0.80333,-0.13333 -1.47388,-0.53281 -1.81054,-1.13281 -0.4,-0.53334 -0.5332,-1.00391 -0.5332,-1.00391 -0.13334,-0.73333 -0.0672,-1.39974 0.13281,-2.06641 0.33333,-1.06666 1.20323,-2.20065 2.47656,-2.33398 z m 21.2207,0.40039 c 1.33667,0.13333 2.20631,1.20065 2.54297,2.33398 0.2,0.73334 0.26667,1.59928 0,2.33594 0,0 -0.40265,1.13295 -1.47265,1.59961 -0.47,0.2 -1.27305,0.40052 -1.87305,-0.13281 -0.60333,-0.53333 -0.80495,-1.33359 -0.73828,-1.93359 0,-0.33667 0.0678,-0.60248 0.20117,-0.86915 -0.2,0.13334 -0.53776,0.26641 -0.87109,0.0664 -0.2,-0.0667 -0.40209,-0.26745 -0.46875,-0.80078 0,0 -0.0667,-0.13255 0,-0.19922 0.40333,-0.93333 1.13968,-2.33372 2.67968,-2.40039 z m -10.50976,0.33398 c 1.60666,0.13334 2.34218,1.4668 2.74219,2.4668 v 0.13281 c 0,0.33334 -0.13347,0.73386 -0.4668,0.86719 h -0.0664 c -0.13666,0.0667 -0.40325,0.065 -0.66992,-0.0684 0.13333,0.26667 0.20117,0.60417 0.20117,0.9375 0,-0.0667 -0.001,0.3336 -0.20117,0.9336 -0.13333,0.53333 -0.86997,1.39895 -1.80664,1.26562 -0.80333,-0.13333 -1.47388,-0.53281 -1.81055,-1.13281 -0.4,-0.53333 -0.5332,-1 -0.5332,-1 -0.13333,-0.73667 -0.0652,-1.40391 0.13476,-2.00391 0.33334,-1.13333 1.20323,-2.2651 2.47657,-2.39844 z m -5.82422,2.59961 c 1.60667,0.13334 2.34414,1.47071 2.74414,2.47071 v 0.13281 c 0,0.33333 -0.13346,0.73385 -0.4668,0.86719 H 584.5 c -0.2,0.0667 -0.39935,0.065 -0.66602,-0.0684 0.13334,0.26666 0.19922,0.60026 0.19922,0.93359 0,-0.0667 7.8e-4,0.3336 -0.19922,0.9336 -0.13333,0.53666 -0.87054,1.40286 -1.81054,1.26953 -0.8,-0.13334 -1.40331,-0.53339 -1.80664,-1.13672 -0.4,-0.53334 -0.53321,-1 -0.53321,-1 -0.13333,-0.73334 -0.0672,-1.4 0.13282,-2 0.33333,-1.13334 1.20323,-2.26901 2.47656,-2.40235 z m 11.24414,0.0664 c 1.34,0.13333 2.20963,1.2026 2.54297,2.33594 0.20333,0.73333 0.20333,1.60065 0,2.33398 0,0 -0.40071,1.13685 -1.4707,1.60352 -0.47,0.2 -1.27336,0.40078 -1.94336,-0.19922 -0.53334,-0.46667 -0.73602,-1.27109 -0.66602,-1.87109 0,-0.33334 0.0659,-0.66719 0.19922,-0.86719 -0.2,0.13333 -0.53581,0.26836 -0.86914,0.0684 -0.20334,-0.0667 -0.40404,-0.26745 -0.4707,-0.80078 -0.0667,0 -0.0667,-0.13256 0,-0.19922 0.40333,-0.93334 1.14106,-2.33763 2.67773,-2.4043 z m -105.7832,4.10352 c -5.22,0.4 -10.57745,1.53645 -15.80079,3.20312 -5.21999,1.66667 -10.37661,4.00344 -14.86328,7.27344 -4.41666,3.20333 -8.1,7.67362 -8.5,12.87695 -0.47,5.27334 2.3437,10.47557 5.95704,14.87891 3.55,4.40333 8.50361,7.33997 14.12695,8.80664 4.68666,1.33667 9.70687,2.00482 14.79687,3.27148 0,-0.0667 0.0664,-0.13476 0.0664,-0.13476 0.0667,0 1.20193,0.0681 2.80859,0.13476 1.61,0.13334 3.7512,0.26589 5.89453,0.19922 h 8.63672 c 0,0 2.74391,0.33417 4.75391,0.9375 3.34667,0.8 2.07667,1.59974 0,2.06641 0.2,0.0667 -4.95508,0.73242 -4.95508,0.73242 h -5.15625 c 0.33667,0.13333 0.67057,0.26732 1.00391,0.33398 1.81,0.67 3.61677,1.33607 5.02344,1.80274 1.33666,0.53333 2.27734,0.80078 2.27734,0.80078 l 2.4082,0.93359 c 0.87,0.33334 1.27073,0.39836 3.41406,1.06836 1.74,0.46667 3.48102,0.73503 5.29102,1.06836 1.74,0.0667 3.47849,0.39922 5.28516,0.19922 7.16666,-0.26667 14.46461,-2.13672 21.22461,-5.13672 7.09666,-3.13666 13.72692,-7.47328 19.68359,-12.61328 -8.36667,4.27 -17.47505,6.73964 -26.51172,8.54297 -1.14,0.2 -2.27575,0.39961 -3.48242,0.59961 0,0 -5.75651,0.53372 -9.83984,0.40039 -6.89667,-0.13333 -4.21948,-1.27031 -0.13282,-2.07031 -0.20333,-0.0667 2.27503,-0.46667 4.81836,-1 2.47667,-0.53334 5.02149,-1.13282 5.02149,-1.13282 l 1.80664,-0.26562 2.00976,-0.40039 c 1.74,-0.33667 3.41292,-0.73672 5.15625,-1.13672 3.41334,-0.8 6.76102,-1.73443 10.04102,-2.87109 4.01666,-1.4 7.8987,-3.13339 11.58203,-5.13672 -0.53667,-0.53334 -1.06906,-1.06628 -1.53906,-1.59961 -2.01,-2.27 -3.8169,-4.60279 -5.49024,-6.93945 -0.87,0.2 -1.73937,0.46627 -2.60937,0.5996 l -3.21485,0.26758 c -2.14333,0.26667 -4.21963,0.0664 -6.29297,0.0664 -1.20666,0 -2.34216,-0.13425 -3.54882,-0.26758 0,0 -5.8237,-0.86614 -9.70703,-2.13281 -6.63,-2.07 -3.68321,-2.33698 0.46679,-2.07031 -0.2,-0.0667 2.34201,0.26731 4.88867,0.33398 2.54334,0.2 5.1543,0.19922 5.1543,0.19922 0.93667,0.0667 1.94224,0.20117 2.87891,0.20117 1.94,-0.0667 3.95062,0.19831 5.89062,-0.0684 l 2.94727,-0.26562 0.80273,-0.19922 c -0.73666,-1.13334 -1.54067,-2.27097 -2.27734,-3.4043 l -2.27539,-3.60351 -1.4043,-2.4668 c 0,0 -0.20351,-0.46927 -0.60351,-1.33594 -0.40334,-0.8 -0.86907,-1.86672 -1.53907,-3.13672 -0.0667,-0.0667 -0.0661,-0.1345 -0.13281,-0.20117 -6.63,-0.86667 -13.32338,-2.06633 -19.88672,-3.73633 -2.00666,-0.46666 -4.01677,-1.26692 -6.02344,-1.93359 -2.01,-0.73333 -4.0176,-1.20005 -5.96093,-2.13672 -2.54334,-1.26667 -5.08558,-2.33156 -7.62891,-3.60156 -0.40333,-0.0667 -0.87344,-0.13477 -1.27344,-0.13477 -5.09,-0.33333 -10.24346,-1.33268 -15.46679,-0.66601 z m 100.36328,0.76562 c 1.60666,0.13333 2.34218,1.4707 2.74219,2.4707 v 0.13282 c 0,0.33333 -0.13347,0.73385 -0.4668,0.86718 h -0.0664 c -0.13666,0.0667 -0.40325,0.0669 -0.66992,-0.0664 0.13333,0.33333 0.20117,0.66693 0.20117,0.93359 0,-0.0667 -0.001,0.33222 -0.20117,0.93555 -0.13333,0.53333 -0.86997,1.46758 -1.80664,1.26758 -0.80333,-0.13334 -1.47388,-0.53282 -1.81055,-1.13282 -0.4,-0.53666 -0.5332,-1.0039 -0.5332,-1.0039 -0.13333,-0.73334 -0.0652,-1.4 0.13476,-2 0.33334,-1.13334 1.20323,-2.27097 2.47657,-2.4043 z m 123.72851,1.20703 -4.81836,0.33399 c -1.61,0.2 -3.28395,0.46601 -4.89062,0.66601 -6.42667,1.13667 -12.78623,3.07396 -19.21289,5.14063 -8.63667,2.73666 -17.47427,6.01028 -26.71094,7.87695 -1.87667,0.53667 -3.81643,0.93594 -5.75977,1.33594 -0.66999,0.66666 -1.26971,1.40031 -1.87304,2.07031 -3.61667,4.20333 -7.43091,8.34289 -11.51758,12.21289 -0.87,0.87 -1.80552,1.73711 -2.74219,2.53711 l 0.86914,0.86914 c 4.01667,3.33667 8.57063,6.07427 13.39063,8.21094 2.41,1.06667 4.88635,1.80351 7.42969,2.60351 2.54333,0.53334 5.02424,1.1323 7.76757,1.26563 l 7.9668,0.87109 8.16602,0.4668 11.98242,0.66602 c 0,0 5.69427,0.66737 9.71094,1.4707 6.76,1.13333 4.01687,1.80031 -0.20313,2.07031 0.40333,0.0667 -10.17383,0.13281 -10.17383,0.13281 l -12.38672,-0.66992 c -2.67666,-0.13333 -5.35653,-0.2668 -8.0332,-0.46679 l -8.09961,-0.86719 c -2.61333,-0.13334 -5.42294,-0.80235 -8.09961,-1.40235 -2.61333,-0.86666 -5.29091,-1.66776 -7.76758,-2.87109 -2.74666,-1.2 -5.42372,-2.60312 -7.90039,-4.20313 1.47334,2.40001 3.01365,4.6705 4.82032,6.67383 5.89,6.74334 14.39406,11.01321 23.16406,13.28321 8.63666,2.00333 17.9438,1.33718 26.98047,-0.13282 2.41,-0.6 4.81825,-1.2675 7.29492,-1.9375 2.61,-0.8 5.35654,-1.59901 8.0332,-2.40234 2.81334,-0.86667 5.62417,-1.60117 8.4375,-2.20117 1.00334,-0.26667 2.00701,-0.46992 3.01367,-0.66992 -0.80333,-0.26667 -2.01033,-0.6 -3.01367,-1 -2.67666,-1.13334 -1.33909,-1.80365 0.26758,-2.07032 -0.13333,-0.0667 4.01562,-0.46679 4.01562,-0.46679 0,0 3.35034,5.2e-4 6.76368,-0.13282 2.87666,-0.33333 5.82362,-0.66744 6.62695,-0.80078 0.87,-0.4 1.80604,-0.80286 2.60937,-1.26953 l 1.87696,-1 1.67383,-1.26953 c 2.27666,-1.53333 4.282,-3.60331 5.88867,-5.80664 3.35,-4.40667 4.48726,-10.01378 2.94726,-15.28711 -1.54,-5.27333 -5.08664,-10.01307 -9.30664,-13.81641 -3.01,-2.73666 -6.42573,-5.00721 -10.03906,-6.81054 -0.33667,-0.13334 -0.73677,-0.2668 -1.27344,-0.4668 -1.27333,-0.46667 -2.94724,-1.13208 -4.7539,-1.46875 -0.93667,-0.2 -1.80604,-0.46797 -2.60938,-0.66797 -0.87,-0.13333 -1.67375,-0.13255 -2.34375,-0.19922 -1.34,-0.13333 -2.21094,-0.19922 -2.21094,-0.19922 -0.87,-0.13333 -1.73937,-0.0681 -2.60937,-0.13476 z m -82.34179,36.1211 c -6.09334,4.80333 -12.92021,8.80369 -20.54688,11.20703 0.2,1 0.39961,2.13203 0.59961,3.33203 0.33667,2.73667 0.4043,5.60351 0.4043,5.60351 0,0 -0.1343,0.40365 -0.4043,1.07032 -0.2,0.66666 -0.4675,1.4 -0.9375,2 -1.40667,2 -1.87226,0.53346 -2.07226,-0.53321 0.0667,0.13334 -0.4043,-2.73632 -0.4043,-2.73632 0,0 0.001,-2.40026 -0.33203,-4.9336 -0.13334,-1.00333 -0.33737,-2.00273 -0.47071,-2.80273 -1.80666,0.4 -3.61325,0.73333 -5.41992,1 0.0667,1.93666 2.6e-4,3.8694 -0.0664,5.80273 -0.2,2.87 -0.47032,5.73547 -1.07032,8.60547 -0.27,1.2 -0.4694,2.33516 -0.80273,3.53516 0,0 -0.13789,0.33164 -0.33789,0.93164 -0.26667,0.53666 -0.53196,1.40482 -1.00196,2.27148 -0.80333,1.86667 -2.00791,4.13633 -3.28124,5.73633 -1.67334,2.13333 -2.60977,2.93333 -3.00977,3 -0.13333,0 -0.20313,-0.0678 -0.20313,-0.20117 -0.13333,-0.4 0.26941,-1.2668 0.80274,-2.4668 l 5.08789,-21.2793 c 0,-0.13333 0.0664,-0.26731 0.0664,-0.33398 0.07,-1.8 0.07,-3.5326 0,-5.33594 -1.53667,0.0667 -3.07719,0.0667 -4.61719,0 -0.0667,0.2 -0.13229,0.46602 -0.26563,0.66602 -0.40333,1.07 -1.07382,2.47135 -1.67382,3.80469 -0.73667,1.33333 -1.40644,2.66992 -2.00977,3.66992 -0.6,0.93333 -1.07031,1.59961 -1.07031,1.59961 0,0 -0.33443,0.26744 -0.8711,0.80078 -0.53666,0.46666 -1.26919,0.93229 -2.00586,1.26562 -2.21,1.07 -2.00932,-0.3332 -1.47265,-1.5332 -0.0667,0 0.39992,-0.53398 0.66992,-1.33398 0.33333,-0.73334 0.66992,-1.4668 0.66992,-1.4668 0,0 0.39888,-0.53568 0.93555,-1.40234 0.53333,-0.86667 1.13664,-2.06732 1.80664,-3.33399 0.46667,-1.06667 1.00456,-2.13529 1.33789,-3.00195 -4.68333,-0.53334 -9.50378,-1.86667 -13.78711,-4 -1.94,-1.00334 -3.74607,-2.13763 -5.55273,-3.4043 -7.36334,7.00333 -15.93079,12.80695 -25.30079,16.87695 -2.41,1 -4.81989,1.86628 -7.22656,2.59961 -0.47,2.80334 -0.33562,5.66933 0.73438,8.47266 0.87,2.6 2.27588,5.0707 3.94922,7.4707 l 5.08593,2.60352 c 7.16,3.53333 14.32391,7.00273 21.75391,9.80273 1.07,0.4 2.14068,0.86784 3.27734,1.20117 0,0 1.20506,0.53287 3.01172,1.26954 0.87,0.4 1.80695,0.86731 2.87696,1.33398 0.93666,0.33333 1.94367,0.73307 3.01367,1.06641 6.35666,2.4 3.68007,2.6 -0.66993,2 0.26667,0.0667 -2.34338,-0.20026 -4.88671,-0.9336 -2.54334,-0.66666 -5.08594,-1.40039 -5.08594,-1.40039 -1.00333,-0.26666 -1.94029,-0.6664 -2.87695,-1.0664 -6.42667,-2.40334 -12.58357,-5.27011 -18.74024,-8.27344 7.76333,7.34 17.20024,13.21041 27.24024,17.34375 5.35333,2.20333 10.84289,3.87044 16.46289,3.53711 5.69,-0.13334 11.44666,-1.13347 17,-2.4668 10.51,-2.53667 20.61328,-6.47427 29.11328,-12.21094 -8.96667,2.80334 -18.20305,4.53633 -27.37305,5.73633 l -3.54687,0.40039 c 0,0 -1.33904,0.0661 -3.34571,0.13281 -2.00666,0 -4.48357,-0.0661 -6.49023,-0.13281 -6.89667,-0.46666 -4.15,-1.39948 0,-2.13281 -0.20334,0 2.27307,-0.40104 4.8164,-0.73438 2.54334,-0.46666 5.08594,-0.86523 5.08594,-0.86523 l 2.94727,-0.40039 c 10.37333,-1.33333 20.67948,-3.26966 30.38281,-6.73633 l 5.62305,-2.27148 c 1.47333,-1.66667 2.74497,-3.39953 3.68164,-5.26953 2.27666,-4.33334 2.40971,-9.3373 1.87304,-14.14063 -0.33333,-2 -0.80455,-3.93581 -1.33789,-5.86914 -3.75,-2.33667 -7.16239,-5.2024 -10.03906,-8.53906 l -2.34375,-2.86719 -2.07422,-3.13672 -3.75,-5.9375 c -0.53333,-0.8 -1.00182,-1.46562 -1.53515,-2.26562 z m -258.9668,1.3164 3.98633,13.76367 -11.91992,7.99219 14.33984,0.55469 3.99023,13.65234 4.89063,-13.35742 14.3418,0.44336 -11.29883,-8.78516 4.94336,-13.41015 -11.91993,7.99023 z m 458.92578,0 -11.35351,8.84375 -11.91993,-7.99023 4.94336,13.41015 -11.29883,8.78516 14.3418,-0.44336 4.89063,13.35742 3.99023,-13.65234 14.33984,-0.55469 -11.91992,-7.99219 z M 408.89648,457.7793 398.96289,468.08008 386,461.92383 l 6.80273,12.5664 -9.8789,10.35547 14.16015,-2.52929 6.68946,12.5664 1.99414,-14.17969 14.09961,-2.58398 -12.90625,-6.21289 z m 382.20704,0 1.93554,14.12695 -12.90625,6.21289 14.09961,2.58398 1.99414,14.17969 6.68946,-12.5664 14.16015,2.52929 -9.8789,-10.35547 6.80273,-12.5664 -12.96289,6.15625 z m -357.46094,40.40039 -7.45313,12.22461 -13.87304,-3.32422 9.34961,10.91015 -7.45313,12.16993 13.17383,-5.58008 9.40625,10.91406 -1.20313,-14.29102 13.17774,-5.52343 -13.92383,-3.26563 z m 332.71484,0 -1.20117,14.23437 -13.92383,3.26563 13.17774,5.52343 -1.20313,14.29102 9.40625,-10.91406 13.17383,5.58008 -7.45313,-12.16993 9.34961,-10.91015 -13.87304,3.32422 z m -240.53515,76.84375 c 0.0198,-0.012 -0.53283,0.33248 -0.51954,0.32617 0.0711,0.002 0.1418,0.01 0.21289,0.0117 0.0885,-0.0681 0.25424,-0.30612 0.30665,-0.33789 z" />
  <path
     fill="#041e42"
     d="M18188.3 11317.6c-121.2 31.3-372.3 67.5-604.7 96.3-198.7-26.3-634.8-150-627.3-318.8 20-257.5 433.6-710 659.7-735 225-25 663.5 507.5 756 661.3-112.5 187.5-71.2 187.5-183.7 296.2"
     id="path12" />
  <path
     fill="#d69a2d"
     d="M18123.4 11334.5c-108.6 31.2-328.5 67.5-535.9 96.2-176.1-26.2-557.1-126.2-550.9-295 7.5-27.5 374.8-646.2 575.9-671.2 201.1-25 587.1 542.5 667.1 566.2-99.9 187.5-56.2 195-156.2 303.8"
     id="path14" />
</svg>
