<svg xmlns="http://www.w3.org/2000/svg" viewBox="0 0 27 18" width="810" height="540">
<desc>Flag of Greece</desc>
<path fill="#000080" d="M0,0 L4,0 L5,1 L6,0 L27,0 L27,2 L26,3 L27,4 L27,6 L26,7 L27,8 L27,10 L26,11 L27,12 L27,14 L26,15 L27,16 L27,18 L0,18 L0,16 L1,15 L0,14 L0,12 L1,11 L0,10 L0,6 L1,5 L0,4 L0,0 z"/>
<path fill="#fff" d="M4,0 L6,0 L6,4 L10,4 L10,6 L6,6 L6,10 L27,10 L27,12 L0,12 L0,10 L4,10 L4,6 L0,6 L0,4 L4,4 L4,0 z M10,2 L27,2 L27,4 L10,4 L10,2 z M10,6 L27,6 L27,8 L10,8 L10,6 z M0,10 L17,10 L17,12 L0,12 L0,10 z M0,14 L27,14 L27,16 L0,16 L0,14 z"/>
</svg>