<?xml version="1.0" encoding="UTF-8" standalone="no"?>
<svg xmlns="http://www.w3.org/2000/svg"
   xmlns:dc="http://purl.org/dc/elements/1.1/"
   xmlns:cc="http://web.resource.org/cc/"
   xmlns:rdf="http://www.w3.org/1999/02/22-rdf-syntax-ns#"
   xmlns:xlink="http://www.w3.org/1999/xlink"
   width="975" height="650">
  <metadata><rdf:RDF><cc:Work rdf:about="">
    <dc:format>image/svg+xml</dc:format>
    <dc:type rdf:resource="http://purl.org/dc/dcmitype/StillImage"/>
    <dc:description>The Serapis Flag was flown from the captured British frigate &quot;Serapis&quot;. It is conventional based on later flags of the United States. This flag is also known as the &quot;Franklin Flag&quot; do to its description by description Benjimin Franklin.</dc:description>
    <dc:title>Serapis Flag</dc:title>
    <dc:publisher>
      <cc:Agent>
        <dc:title>Devin Cook</dc:title>
      </cc:Agent>
    </dc:publisher>
    <cc:license rdf:resource=""/>
    <dc:creator>
      <cc:Agent>
        <dc:title>Captain John Paul Jones</dc:title>
      </cc:Agent>
    </dc:creator>
    <dc:rights>
      <cc:Agent>
        <dc:title>Public Domain</dc:title>
      </cc:Agent>
    </dc:rights>
    <dc:contributor>
      <cc:Agent>
        <dc:title>Devin Cook</dc:title>
      </cc:Agent>
    </dc:contributor>
  </cc:Work>
  <cc:License rdf:about="http://web.resource.org/cc/PublicDomain">
    <cc:permits rdf:resource="http://web.resource.org/cc/Reproduction"/>
    <cc:permits rdf:resource="http://web.resource.org/cc/Distribution"/>
    <cc:permits rdf:resource="http://web.resource.org/cc/DerivativeWorks"/>
  </cc:License></rdf:RDF></metadata>
  <desc>Serapis Flag</desc>
  <defs><path style="fill:#ffffff" id="Star"
     d="M 343.46355,261.34388 L 248.96805,216.42579 L 213.91151,315.00609 L 178.85499,216.42579 L 84.359477,261.34388 L 129.27757,166.84837 L 30.697266,131.79184 L 129.27757,96.735315 L 84.359476,2.2398024 L 178.85498,47.157894 L 213.91151,-51.422409 L 248.96804,47.157891 L 343.46355,2.2398015 L 298.54546,96.735307 L 397.12576,131.79184 L 298.54546,166.84836 Z"
     transform="scale(0.0818714,0.0818714)"/></defs>
  <rect style="fill:#00205B" width="975" height="50"/>
  <rect style="fill:rgb(191,10,48)" width="975" height="150" y="50"/>
  <rect style="fill:#ffffff" width="975" height="50" y="100"/>
  <rect style="fill:#ffffff" width="975" height="50" y="200"/>
  <rect style="fill:rgb(191,10,48)" width="975" height="150" y="300"/>
  <rect style="fill:#ffffff" width="975" height="50" y="350"/>
  <rect style="fill:#00205B" width="975" height="150" y="450"/>
  <rect style="fill:#ffffff" width="975" height="50" y="500"/>
  <rect style="fill:rgb(191,10,48)" width="975" height="50" y="600"/>
  <path style="fill:#00205B" d="M0,0 V300 H975 V250 H325 V0Z"/>
<use xlink:href="#Star" x="262.487" y="114.21"/>
<use xlink:href="#Star" x="202.487" y="114.21"/>
<use xlink:href="#Star" x="142.487" y="114.21"/>
<use xlink:href="#Star" x="82.4868" y="114.21"/>
<use xlink:href="#Star" x="22.4868" y="114.21"/>
<use xlink:href="#Star" x="232.487" y="174.21"/>
<use xlink:href="#Star" x="172.487" y="174.21"/>
<use xlink:href="#Star" x="112.487" y="174.21"/>
<use xlink:href="#Star" x="52.4868" y="174.21"/>
<use xlink:href="#Star" x="232.487" y="54.21"/>
<use xlink:href="#Star" x="172.487" y="54.21"/>
<use xlink:href="#Star" x="112.487" y="54.21"/>
<use xlink:href="#Star" x="52.4868" y="54.21"/>
</svg>