<?xml version="1.0" encoding="UTF-8" standalone="no"?>
<!-- Created with Inkscape (http://www.inkscape.org/) -->

<svg
   xmlns:dc="http://purl.org/dc/elements/1.1/"
   xmlns:cc="http://creativecommons.org/ns#"
   xmlns:rdf="http://www.w3.org/1999/02/22-rdf-syntax-ns#"
   xmlns:svg="http://www.w3.org/2000/svg"
   xmlns="http://www.w3.org/2000/svg"
   version="1.0"
   width="415"
   height="300"
   id="svg1">
  <rect
     id="rect2772"
     style="color:#000000;display:inline;overflow:visible;visibility:visible;opacity:1;fill:#ce0a21;fill-opacity:1;fill-rule:nonzero;stroke:none;stroke-width:5.07936525;stroke-linecap:butt;stroke-linejoin:miter;stroke-miterlimit:4;stroke-dasharray:none;stroke-dashoffset:0;stroke-opacity:1;marker:none;marker-start:none;marker-mid:none;marker-end:none"
     y="150"
     height="150"
     width="415" />
  <rect
     id="rect1884"
     style="color:#000000;display:inline;overflow:visible;visibility:visible;opacity:1;fill:#002153;fill-opacity:1;fill-rule:nonzero;stroke:none;stroke-width:5.07936525;stroke-linecap:butt;stroke-linejoin:miter;stroke-miterlimit:4;stroke-dasharray:none;stroke-dashoffset:0;stroke-opacity:1;marker:none;marker-start:none;marker-mid:none;marker-end:none"
     height="150"
     width="415" />
  <path
     id="rect1960"
     style="color:#000000;display:inline;overflow:visible;visibility:visible;opacity:1;fill:#ffffff;fill-opacity:1;fill-rule:nonzero;stroke:none;stroke-width:5.07936525;stroke-linecap:butt;stroke-linejoin:miter;stroke-miterlimit:4;stroke-dasharray:none;stroke-dashoffset:0;stroke-opacity:1;marker:none;marker-start:none;marker-mid:none;marker-end:none"
     d="M 0,0 V 300 H 58 L 208,150 58,0 Z" />
  <path
     id="path8227"
     style="color:#000000;display:inline;overflow:visible;visibility:visible;opacity:1;fill:#ffdd00;fill-opacity:1;fill-rule:nonzero;stroke:none;stroke-width:4.4192152;stroke-linecap:butt;stroke-linejoin:miter;stroke-miterlimit:4;stroke-dasharray:none;stroke-dashoffset:0;stroke-opacity:1;marker:none;marker-start:none;marker-mid:none;marker-end:none"
     d="M 91.616801,185.92463 68.461243,167.93327 45.36443,186 55.319772,158.4181 31,142.03465 l 29.308298,0.94483 8.066366,-28.19225 8.158182,28.16581 29.305067,-1.04031 -24.266269,16.46261 z" />
  <path
     id="path4650"
     style="fill:#ffffff;fill-opacity:1"
     d="m 309.69917,125.79876 c -2.05846,-2.01685 -3.11467,-3.95017 -2.93122,-5.36534 0.0384,-0.2966 0.0197,-0.5392 -0.0415,-0.5392 -0.0613,0 -0.44464,0.17816 -0.8519,0.39591 -1.01547,0.54301 -1.56011,0.65056 -2.23804,0.44214 -1.08962,-0.33501 -2.04948,-1.79068 -2.64594,-4.01259 l -0.25098,-0.93501 1.47083,0.0851 c 3.2593,0.18847 5.12973,-0.99026 5.52578,-3.48237 l 0.0989,-0.62212 -1.13256,-0.001 c -1.25113,-0.001 -1.74151,-0.24246 -2.23701,-1.10067 -0.35268,-0.6108 -0.34774,-1.13148 0.0171,-1.80562 0.39561,-0.73091 1.08658,-1.07414 2.16263,-1.07414 0.6657,0 0.88608,-0.0581 0.88608,-0.23391 0,-0.47328 -1.16883,-1.90222 -2.19024,-2.67757 -1.50499,-1.14244 -3.18697,-1.75334 -4.85631,-1.76365 -1.55364,-0.01 -2.27148,0.26696 -2.60529,1.00414 -0.30766,0.67933 -0.28785,2.52814 0.0386,3.6067 l 0.25673,0.84808 -0.66102,0.18673 c -2.42178,0.6839 -4.26461,0.13045 -6.03718,-1.81313 -1.72966,-1.89654 -2.63289,-4.67956 -2.49936,-7.70106 0.17791,-4.02543 2.12433,-6.71255 5.35187,-7.38844 2.24983,-0.47111 5.68918,0.51807 7.95482,2.28797 1.77197,1.38419 3.54672,3.93943 4.9054,7.06258 0.6417,1.47506 1.06838,2.00745 1.06838,1.33303 0,-0.14938 -0.39723,-1.66108 -0.88276,-3.35937 -1.00244,-3.50644 -1.88243,-7.28771 -2.26295,-9.72367 -1.04867,-7.69262 0.41101,-13.64429 4.99128,-19.40991 l 1.01143,-1.16127 c 5.21212,5.22285 7.37225,13.09499 6.18169,20.82004 -0.44357,2.61701 -1.04074,5.16466 -2.0672,8.81908 -0.47821,1.70263 -0.86949,3.21433 -0.86949,3.35943 0,0.55983 0.43522,0.22219 0.8895,-0.69014 1.04561,-2.1 2.43589,-4.1857 3.89808,-5.84791 2.43526,-2.76828 3.86421,-3.5447 6.5447,-3.55607 2.53184,-0.0107 4.32574,0.72174 5.79896,2.36779 1.37559,1.53688 2.04158,3.38513 2.04475,5.67416 0.005,3.37572 -1.61466,6.62636 -4.02966,8.08926 -1.14186,0.69162 -2.74101,1.08699 -3.8201,0.94434 l -0.80513,-0.10635 v -1.70109 c 0,-1.55454 -0.037,-1.78512 -0.42979,-2.6759 -0.56949,-1.29162 -1.16961,-1.66405 -2.62437,-1.62852 -1.25504,0.0306 -2.29728,0.47638 -4.06703,1.73964 -1.3661,0.97507 -3.10934,2.69112 -3.10934,3.06087 0,0.18092 0.24933,0.23412 1.09685,0.23412 1.61949,0 2.53529,0.70299 2.53529,1.9461 0,1.37747 -0.81722,2.03546 -2.52813,2.03546 -1.06669,0 -1.10401,0.0134 -1.10401,0.39586 0,0.56629 1.0699,2.3181 1.77992,2.9143 1.04956,0.88136 2.03824,1.21482 3.63197,1.22493 0.77908,0.005 1.41654,0.048 1.41654,0.0955 0,0.26233 -0.56021,1.71689 -0.97587,2.53374 -0.87649,1.72265 -2.12,2.52313 -3.30432,2.12721 -0.32279,-0.10798 -0.87299,-0.37634 -1.22265,-0.59642 -0.34967,-0.22015 -0.68459,-0.40028 -0.74425,-0.40028 -0.0597,0 -0.13977,0.3715 -0.17798,0.82549 -0.12017,1.428 -0.87229,2.89218 -2.36694,4.60766 -0.73536,0.84395 -1.42796,1.53275 -1.53911,1.53058 -0.11115,-0.002 -0.76294,-0.55347 -1.44842,-1.22507 z" />
  <path
     id="path5537"
     style="fill:#ffffff;fill-opacity:1"
     d="m 359.72869,78.77496 c -2.05845,-2.01686 -3.11465,-3.95018 -2.9312,-5.36535 0.0384,-0.29661 0.0198,-0.5392 -0.0415,-0.5392 -0.0613,0 -0.44463,0.17816 -0.85189,0.39591 -1.01546,0.54301 -1.56009,0.65056 -2.23802,0.44214 -1.08961,-0.33502 -2.04946,-1.79069 -2.64591,-4.0126 l -0.25098,-0.93501 1.47082,0.0851 c 3.25926,0.18847 5.12967,-0.99026 5.52572,-3.48239 l 0.0989,-0.62211 -1.13255,-0.001 c -1.25112,-10e-4 -1.7415,-0.24245 -2.237,-1.10067 -0.35268,-0.6108 -0.34774,-1.13148 0.0171,-1.80562 0.3956,-0.73092 1.08656,-1.07415 2.16261,-1.07415 0.66569,0 0.88607,-0.0581 0.88607,-0.2339 0,-0.47329 -1.16883,-1.90223 -2.19022,-2.67759 -1.50498,-1.14243 -3.18694,-1.75333 -4.85627,-1.76364 -1.55362,-0.01 -2.27145,0.26696 -2.60526,1.00414 -0.30765,0.67932 -0.28784,2.52814 0.0386,3.60671 l 0.25672,0.84808 -0.66101,0.18672 c -2.42175,0.68391 -4.26456,0.13046 -6.03712,-1.81312 -1.72965,-1.89656 -2.63287,-4.67958 -2.49934,-7.70108 0.17791,-4.02544 2.12432,-6.71257 5.35183,-7.38846 2.2498,-0.47112 5.68911,0.51807 7.95473,2.28797 1.77196,1.3842 3.54669,3.93944 4.90536,7.0626 0.64169,1.47506 1.06837,2.00745 1.06837,1.33303 0,-0.14938 -0.39723,-1.66109 -0.88276,-3.35937 -1.00242,-3.50645 -1.8824,-7.28773 -2.26293,-9.72369 -1.04865,-7.69265 0.41101,-13.64434 4.99124,-19.40996 l 1.01142,-1.16128 c 5.21208,5.22286 7.37218,13.09503 6.18163,20.82009 -0.44357,2.61701 -1.04073,5.16467 -2.06718,8.8191 -0.47821,1.70264 -0.86948,3.21434 -0.86948,3.35944 0,0.55984 0.43521,0.2222 0.88949,-0.69014 1.0456,-2.1 2.43587,-4.18571 3.89804,-5.84792 2.43524,-2.76829 3.86417,-3.54471 6.54464,-3.55608 2.53181,-0.0107 4.3257,0.72174 5.7989,2.36779 1.37558,1.53689 2.04157,3.38514 2.04474,5.67418 0.005,3.37572 -1.61465,6.62637 -4.02963,8.08928 -1.14185,0.69161 -2.74098,1.08699 -3.82006,0.94434 l -0.80512,-0.10635 v -1.70109 c 0,-1.55455 -0.037,-1.78513 -0.42979,-2.67591 -0.56948,-1.29163 -1.16959,-1.66406 -2.62434,-1.62853 -1.25503,0.0306 -2.29726,0.47639 -4.06699,1.73965 -1.36609,0.97507 -3.10931,2.69113 -3.10931,3.06088 0,0.18092 0.24932,0.23411 1.09684,0.23411 1.61947,0 2.53526,0.70299 2.53526,1.94611 0,1.37747 -0.81721,2.03547 -2.5281,2.03547 -1.06669,0 -1.104,0.0134 -1.104,0.39585 0,0.5663 1.06989,2.31811 1.7799,2.91431 1.04955,0.88137 2.03822,1.21482 3.63193,1.22494 0.77908,0.005 1.41653,0.0479 1.41653,0.0955 0,0.26232 -0.56021,1.71689 -0.97586,2.53374 -0.87649,1.72265 -2.11998,2.52314 -3.30429,2.12721 -0.32278,-0.10797 -0.87297,-0.37634 -1.22263,-0.59642 -0.34968,-0.22015 -0.68459,-0.40028 -0.74425,-0.40028 -0.0597,0 -0.13977,0.37151 -0.17798,0.82549 -0.12017,1.42801 -0.87228,2.89219 -2.36692,4.60768 -0.73534,0.84395 -1.42794,1.53275 -1.53909,1.53058 -0.11115,-0.002 -0.76294,-0.55347 -1.4484,-1.22507 z" />
  <path
     id="path5539"
     style="fill:#ffffff;fill-opacity:1"
     d="m 259.69869,78.77496 c -2.05845,-2.01686 -3.11465,-3.95018 -2.9312,-5.36535 0.0384,-0.29661 0.0197,-0.5392 -0.0416,-0.5392 -0.0613,0 -0.44463,0.17816 -0.85189,0.39591 -1.01546,0.54301 -1.56009,0.65056 -2.23802,0.44214 -1.08961,-0.33502 -2.04946,-1.79069 -2.64591,-4.0126 l -0.25098,-0.93501 1.47082,0.0851 c 3.25926,0.18847 5.12967,-0.99026 5.52572,-3.48239 l 0.0989,-0.62211 -1.13255,-0.001 c -1.25112,-10e-4 -1.7415,-0.24245 -2.237,-1.10067 -0.35268,-0.6108 -0.34774,-1.13148 0.0171,-1.80562 0.3956,-0.73092 1.08656,-1.07415 2.16261,-1.07415 0.66569,0 0.88607,-0.0581 0.88607,-0.2339 0,-0.47329 -1.16883,-1.90223 -2.19022,-2.67759 -1.50498,-1.14243 -3.18694,-1.75333 -4.85627,-1.76364 -1.55362,-0.01 -2.27145,0.26696 -2.60526,1.00414 -0.30765,0.67932 -0.28784,2.52814 0.0386,3.60671 l 0.25672,0.84808 -0.66101,0.18672 c -2.42175,0.68391 -4.26456,0.13046 -6.03712,-1.81312 -1.72965,-1.89656 -2.63287,-4.67958 -2.49934,-7.70108 0.17791,-4.02544 2.12432,-6.71257 5.35183,-7.38846 2.2498,-0.47112 5.68911,0.51807 7.95473,2.28797 1.77196,1.3842 3.54669,3.93944 4.90536,7.0626 0.64169,1.47506 1.06837,2.00745 1.06837,1.33303 0,-0.14938 -0.39723,-1.66109 -0.88276,-3.35937 -1.00242,-3.50645 -1.8824,-7.28773 -2.26293,-9.72369 -1.04865,-7.69265 0.41101,-13.64434 4.99124,-19.40996 l 1.01142,-1.16128 c 5.21208,5.22286 7.37218,13.09503 6.18163,20.82009 -0.44357,2.61701 -1.04073,5.16467 -2.06718,8.8191 -0.47821,1.70264 -0.86948,3.21434 -0.86948,3.35944 0,0.55984 0.43521,0.2222 0.88949,-0.69014 1.0456,-2.1 2.43587,-4.18571 3.89804,-5.84792 2.43524,-2.76829 3.86417,-3.54471 6.54464,-3.55608 2.53181,-0.0107 4.3257,0.72174 5.7989,2.36779 1.37558,1.53689 2.04157,3.38514 2.04474,5.67418 0.005,3.37572 -1.61465,6.62637 -4.02963,8.08928 -1.14185,0.69161 -2.74098,1.08699 -3.82006,0.94434 l -0.80512,-0.10635 v -1.70109 c 0,-1.55455 -0.037,-1.78513 -0.42979,-2.67591 -0.56948,-1.29163 -1.16959,-1.66406 -2.62434,-1.62853 -1.25503,0.0306 -2.29726,0.47639 -4.06699,1.73965 -1.36609,0.97507 -3.10931,2.69113 -3.10931,3.06088 0,0.18092 0.24932,0.23411 1.09684,0.23411 1.61947,0 2.53526,0.70299 2.53526,1.94611 0,1.37747 -0.81721,2.03547 -2.5281,2.03547 -1.06669,0 -1.104,0.0134 -1.104,0.39585 0,0.5663 1.06989,2.31811 1.7799,2.91431 1.04955,0.88137 2.03822,1.21482 3.63193,1.22494 0.77908,0.005 1.41653,0.0479 1.41653,0.0955 0,0.26232 -0.56021,1.71689 -0.97586,2.53374 -0.87649,1.72265 -2.11998,2.52314 -3.30429,2.12721 -0.32278,-0.10797 -0.87297,-0.37634 -1.22263,-0.59642 -0.34968,-0.22015 -0.68459,-0.40028 -0.74425,-0.40028 -0.0597,0 -0.13977,0.37151 -0.17798,0.82549 -0.12017,1.42801 -0.87228,2.89219 -2.36692,4.60768 -0.73534,0.84395 -1.42794,1.53275 -1.53909,1.53058 -0.11115,-0.002 -0.76294,-0.55347 -1.4484,-1.22507 z" />
  <path
     id="rect6490"
     style="color:#000000;display:inline;overflow:visible;visibility:visible;fill:#ffdd00;fill-opacity:1;fill-rule:nonzero;stroke:none;stroke-width:5.07936525;stroke-linecap:butt;stroke-linejoin:miter;stroke-miterlimit:4;stroke-dashoffset:0;stroke-opacity:1;marker:none;marker-start:none;marker-mid:none;marker-end:none"
     d="m 318.29269,169.48436 h 4.69511 v 8.04878 h -4.69511 z m -18.7805,8.04878 H 322.9878 V 278.1429 h -23.47561 z m -38.56707,43.59756 h 100.60976 v 57.0122 H 260.94512 Z m 33.87196,-43.59756 h 32.86585 v 8.04878 h -32.86585 z m 4.69511,-8.04878 h 4.69512 v 8.04878 h -4.69512 z m 9.39025,0 h 4.69512 v 8.04878 h -4.69512 z M 256.25,213.08193 h 28.17072 v 8.04877 H 256.25 Z m 4.69512,-8.04878 h 4.69513 v 8.04878 h -4.69513 z m 9.39024,0 h 4.69512 v 8.04878 h -4.69512 z m 9.39024,0 h 4.69512 v 8.04878 h -4.69512 z m 58.35367,8.04878 H 366.25 v 8.04877 h -28.17073 z m 0,-8.04878 h 4.69511 v 8.04878 h -4.69511 z m 9.39025,0 h 4.69511 v 8.04878 h -4.69511 z m 9.39023,0 h 4.69513 v 8.04878 h -4.69513 z M 256.25,270.0941 h 110 v 8.0488 h -110 z" />
  <path
     id="rect7408"
     style="color:#000000;display:inline;overflow:visible;visibility:visible;fill:#ce0a21;fill-opacity:1;fill-rule:nonzero;stroke:none;stroke-width:5.07936525;stroke-linecap:butt;stroke-linejoin:miter;stroke-miterlimit:4;stroke-dashoffset:0;stroke-opacity:1;marker:none;marker-start:none;marker-mid:none;marker-end:none"
     d="m 298.84146,251.3136 h 24.81708 v 26.8293 h -24.81708 z m 24.81707,1.006 c 0,6.8496 -5.55902,12.4087 -12.40854,12.4087 -6.84951,0 -12.40853,-5.5591 -12.40853,-12.4087 0,-6.84934 5.55902,-12.40838 12.40853,-12.40838 6.84952,0 12.40854,5.55904 12.40854,12.40838 z" />
</svg>
