<svg width="630" height="770" viewBox="-18 -5 72 88" xmlns:xlink="http://www.w3.org/1999/xlink" xmlns="http://www.w3.org/2000/svg">
   <defs>
      <clipPath id="helper1">
         <rect width="50" height="30" x="-20" y="21"/>
      </clipPath>
      <clipPath id="helper2">
         <rect width="50" height="30" x="-20" y="20"/>
      </clipPath>
   </defs>
   <path d="M -15,0 V 80 H 45 L 2.573593128807148536,37.573593128807148536 H 45 z" fill="#003893" stroke="#003893" stroke-width="5.1646754223387927912"/><!--E 2TN-->
   <path d="M -15,0 V 80 H 45 L 2.573593128807148536,37.573593128807148536 H 45 z" stroke="none" fill="#ce1126"/><!--E-->
   <g fill="white">
      <circle fill="white" clip-path="url(#helper1)" cy="23.483495705504467835" r="11.950276943145973342"/><!--MQ-->
      <circle clip-path="url(#helper2)" cy="18.786796564403574268" r="12.840097423302680701" fill="#ce1126"/><!--LN-->
      <g transform="translate(0, 29.0446) scale(5.56106, 5.56106)"><!--TM-->
         <circle r="1"/>
         <g id="6jags">
            <g id="3jags">
               <path id="jag" d="M 0.19509032201612826785,-0.98078528040323044912 L 0,-1.3887841097499965383 L -0.19509032201612826785,-0.98078528040323044912" transform="rotate(11.25)"/><!--sin(Pi/16) cos(Pi/16) TS/TM-->
               <use xlink:href="#jag" transform="rotate(22.5)"/>
               <use xlink:href="#jag" transform="rotate(45)"/>
            </g>
            <use xlink:href="#3jags" transform="rotate(67.5)"/>
         </g>
         <use xlink:href="#6jags" transform="scale(-1, 1)"/>
      </g>
      <g transform="translate(0, 58.7868) scale(8.1434, 8.1434)"><!--W NM-->
         <circle r="1"/>
         <g id="4rays">
            <g id="2rays">
               <path id="ray" d="M 0.25881904510252076235,0.96592582628906828675 L 0,1.5767492855367273539 L -0.25881904510252076235,0.96592582628906828675"/><!--sin(Pi/12) cos(Pi/12) LN/NM-->
               <use xlink:href="#ray" transform="rotate(180)"/>
            </g>
            <use xlink:href="#2rays" transform="rotate(90)"/>
         </g>
         <use xlink:href="#4rays" transform="rotate(30)"/>
         <use xlink:href="#4rays" transform="rotate(60)"/>
      </g>
   </g>
</svg>