<svg xmlns="http://www.w3.org/2000/svg" xmlns:xlink="http://www.w3.org/1999/xlink" width="300" height="200.00002" overflow="visible" xml:space="preserve" style="overflow:visible">
  <symbol id="a" viewBox="-47.193 -64.438 94.384 128.876">
    <path d="M-.002 64.438c-3.502-3.908-6.55-7.558-8.991-11.602-6.814-11.28-9.106-23.53-5.297-33.44C-6.717-1.572-3.813-6.894-3.813-23.59h-5.381c-.335 18.365-7.261 30.66-17.55 34.35-4.529 1.747-10.405.881-15.789-4.66-6.666-6.859-8.606-25.756 10.96-29.389-2.071 3.079-1.894 9.822 2.247 12.203 3.167 1.584 6.745.963 8.417-.398 2.689-1.627 5.281-6.834 5.281-12.105l-9.291.014.003-10.377 19.285.012c-.253-5.338-3.163-9.613-8.578-11.992.697-2.248 3.963-6.832 8.447-6.523.886-4.85 1.728-7.572 5.76-11.98 4.035 4.408 4.877 7.131 5.763 11.98 4.484-.309 7.75 4.275 8.446 6.523-5.415 2.379-8.324 6.654-8.577 11.992l19.285-.012v10.377l-9.288-.014c0 5.271 2.587 10.479 5.281 12.105 1.672 1.361 5.248 1.982 8.414.398 4.144-2.381 4.321-9.124 2.25-12.203C51.139-19.656 49.196-.76 42.532 6.1c-5.387 5.541-11.261 6.407-15.79 4.66C16.451 7.07 9.528-5.225 9.192-23.59h-5.38c0 16.696 2.904 22.018 10.475 42.985 3.812 9.91 1.521 22.16-5.294 33.44-2.442 4.045-5.49 7.694-8.995 11.603z" style="fill:#edb41d"/>
  </symbol>
  <path style="fill:#fff;stroke-width:.42163703" d="M0 0h300v200H0z"/>
  <path style="fill:#111b4c;stroke-width:.43643579" d="M0 171.42859h300v28.571428H0z"/>
  <path style="fill:#d52c11;stroke-width:.43643579" d="M0 0h300v28.571428H0z"/>
  <use xlink:href="#a" width="94.384003" height="128.87601" x="-47.193001" y="-64.438004" transform="matrix(.27713 0 0 -.27713 122.50713 76.1904762)"/>
  <use xlink:href="#a" width="94.384003" height="128.87601" x="-47.193001" y="-64.438004" transform="matrix(.27713 0 0 -.27713 150 123.809524)"/>
  <use xlink:href="#a" width="94.384003" height="128.87601" x="-47.193001" y="-64.438004" transform="matrix(.27713 0 0 -.27713 177.49287 76.1904762)"/>
</svg>
