<svg xmlns="http://www.w3.org/2000/svg" width="793.047" height="528.047">
  <defs>
    <linearGradient id="a">
      <stop style="stop-color:#000;stop-opacity:1" offset="0"/>
      <stop style="stop-color:#000;stop-opacity:0" offset="1"/>
    </linearGradient>
    <linearGradient id="b">
      <stop style="stop-color:#000;stop-opacity:1" offset="0"/>
      <stop style="stop-color:#000;stop-opacity:0" offset="1"/>
    </linearGradient>
    <linearGradient id="c">
      <stop style="stop-color:#000;stop-opacity:1" offset="0"/>
      <stop style="stop-color:#000;stop-opacity:0" offset="1"/>
    </linearGradient>
    <filter x="-.31512091" y="-.2193533" width="1.6302418" height="1.4387066" color-interpolation-filters="sRGB" id="d">
      <feGaussianBlur stdDeviation="1.1794536"/>
    </filter>
    <filter id="e" x="-.15197487" width="1.3039497" y="-.5703541" height="2.1407082" color-interpolation-filters="sRGB">
      <feGaussianBlur stdDeviation=".45387106"/>
    </filter>
  </defs>
  <path style="fill:#004614;fill-opacity:1;stroke:none" d="M33.476505.97650343h793.047v528.047h-793.047z" transform="translate(-33.476505 -.97650343)"/>
  <g style="fill:#fff;fill-opacity:1;stroke:#fff;stroke-opacity:1">
    <path d="M118.29289 93.078429c-164.22717 171.030091-43.818158 404.411451 160.5 430.750001C331.0941 536.51279 321.39874 536.67948 346.25 553.75c11.24279.5931-3.14905-6.19505-12.42678-13.61612-10.21891-6.94299-28.98643-12.69762-47.19913-16.7091-20.28883-4.46876-39.71237-5.71364-45.68564-7.03353" style="fill:none;stroke:#fff;stroke-width:10;stroke-linecap:butt;stroke-linejoin:round;stroke-miterlimit:4;stroke-opacity:1;stroke-dasharray:none" transform="matrix(.56813 0 0 .56813 228.07914623 87.88079553)"/>
    <path d="M54.53561 335.71535c32.329678-15.06276 29.608105-31.97032 31.908194-48.61359-20.543211 9.8538-29.725683 26.99012-31.908194 48.61359z" style="fill:#fff;fill-opacity:1;stroke:#fff;stroke-width:1px;stroke-linecap:butt;stroke-linejoin:miter;stroke-opacity:1" transform="matrix(.56813 0 0 .56813 228.07914623 87.88079553)"/>
    <path d="M47.335715 290.41521c35.724668-8.46195 36.497027-26.0728 42.276873-42.37294-22.75923 5.66174-35.579895 21.02769-42.276873 42.37294zM52.973205 211.23719c36.667687 1.82679 42.31622-14.87149 52.408755-28.91578-23.435469-.90366-40.02973 10.2817-52.408755 28.91578zM45.46179 250.73702c36.663937-1.90059 40.590217-19.08555 49.206703-34.0808-23.406315 1.47726-38.780899 14.28757-49.206703 34.0808zM66.390275 171.37401c36.250415 5.81074 43.684545-10.17275 55.247085-23.03389-23.197519-3.45151-40.911615 5.85937-55.247085 23.03389z" style="fill:#fff;fill-opacity:1;stroke:#fff;stroke-width:1.02934754px;stroke-linecap:butt;stroke-linejoin:miter;stroke-opacity:1" transform="matrix(.56813 0 0 .56813 228.07914623 87.88079553)"/>
    <path d="M91.799135 121.17588c28.740705 18.07314 40.855105 7.16535 55.351505.40951-18.48854-11.33831-36.93347-9.83128-55.351505-.40951z" style="fill:#fff;fill-opacity:1;stroke:#fff;stroke-width:.95190156px;stroke-linecap:butt;stroke-linejoin:miter;stroke-opacity:1" transform="matrix(.56813 0 0 .56813 228.07914623 87.88079553)"/>
    <path d="M115.07076 96.27074c30.34838 10.14279 39.01022-2.546767 50.77903-11.96525-19.45856-6.261075-36.01337-.768847-50.77903 11.96525z" style="fill:#fff;fill-opacity:1;stroke:#fff;stroke-width:.89715803px;stroke-linecap:butt;stroke-linejoin:miter;stroke-opacity:1" transform="matrix(.56813 0 0 .56813 228.07914623 87.88079553)"/>
    <path d="M112.72036 102.71849c-10.56901-35.043914 4.23369-44.517912 15.4015-57.655234 6.49962 22.461012-.34108 41.203669-15.4015 57.655234z" style="fill:#fff;fill-opacity:1;stroke:#fff;stroke-width:1.02625906px;stroke-linecap:butt;stroke-linejoin:miter;stroke-opacity:1" transform="matrix(.56813 0 0 .56813 228.07914623 87.88079553)"/>
    <path d="M46.699421 329.8857C6.6801596 318.58389 6.6568673 298.61714.90349973 279.89178 26.38562 287.39838 40.151896 305.40671 46.699421 329.8857z" style="fill:#fff;fill-opacity:1;stroke:#fff;stroke-width:1.16592872px;stroke-linecap:butt;stroke-linejoin:miter;stroke-opacity:1" transform="matrix(.56813 0 0 .56813 228.07914623 87.88079553)"/>
    <path d="M38.119408 284.23423c-33.570613-22.56769-27.544949-41.03186-27.192089-60.08394 21.282012 14.65665 28.5534 35.47272 27.192089 60.08394z" style="fill:#fff;fill-opacity:1;stroke:#fff;stroke-width:1.13414848px;stroke-linecap:butt;stroke-linejoin:miter;stroke-opacity:1" transform="matrix(.56813 0 0 .56813 228.07914623 87.88079553)"/>
    <path d="M40.458697 232.34379c-28.739909-27.89312-19.621326-44.82368-15.926577-63.32483 18.158054 18.02372 21.581663 39.58456 15.926577 63.32483z" style="fill:#fff;fill-opacity:1;stroke:#fff;stroke-width:1.12290633px;stroke-linecap:butt;stroke-linejoin:miter;stroke-opacity:1" transform="matrix(.56813 0 0 .56813 228.07914623 87.88079553)"/>
    <path d="M52.278242 185.6312c-26.320277-39.13169-11.693286-56.41719-2.932636-76.83254 16.531769 25.18525 15.22718 50.85853 2.932636 76.83254z" style="fill:#fff;fill-opacity:1;stroke:#fff;stroke-width:1.32224536px;stroke-linecap:butt;stroke-linejoin:miter;stroke-opacity:1" transform="matrix(.56813 0 0 .56813 228.07914623 87.88079553)"/>
    <path d="M81.974802 134.06072c-20.220289-33.41836-7.433115-47.137497.625217-63.678888 12.676276 21.491926 10.577415 42.679248-.625217 63.678888z" style="fill:#fff;fill-opacity:1;stroke:#fff;stroke-width:1.09513366px;stroke-linecap:butt;stroke-linejoin:miter;stroke-opacity:1" transform="matrix(.56813 0 0 .56813 228.07914623 87.88079553)"/>
    <path d="M78.411216 469.19311c36.201634 29.56243 54.600834 16.71372 75.550534 9.94109-23.3369-18.62382-48.79134-19.69118-75.550534-9.94109z" style="fill:#fff;fill-opacity:1;stroke:#fff;stroke-width:1.31043613px;stroke-linecap:butt;stroke-linejoin:miter;stroke-opacity:1" transform="matrix(.56813 0 0 .56813 228.07914623 87.88079553)"/>
    <path d="M96.242468 418.74896c23.483212-28.2205 13.524592-42.76576 8.357052-59.27023-14.797853 18.19509-15.821095 38.18095-8.357052 59.27023z" style="fill:#fff;fill-opacity:1;stroke:#fff;stroke-width:1.02934754px;stroke-linecap:butt;stroke-linejoin:miter;stroke-opacity:1" transform="matrix(.56813 0 0 .56813 228.07914623 87.88079553)"/>
    <path d="M41.423666 419.74455c29.095329 38.11252 50.512856 29.66676 73.030364 27.8912-18.858928-24.13642-44.00708-31.25624-73.030364-27.8912z" style="fill:#fff;fill-opacity:1;stroke:#fff;stroke-width:1.34437215px;stroke-linecap:butt;stroke-linejoin:miter;stroke-opacity:1" transform="matrix(.56813 0 0 .56813 228.07914623 87.88079553)"/>
    <path d="M71.494262 380.76367c27.049967-24.82248 19.128351-40.57007 16.216964-57.6178-17.100608 16.05014-20.790365 35.71909-16.216964 57.6178z" style="fill:#fff;fill-opacity:1;stroke:#fff;stroke-width:1.02934754px;stroke-linecap:butt;stroke-linejoin:miter;stroke-opacity:1" transform="matrix(.56813 0 0 .56813 228.07914623 87.88079553)"/>
    <path d="M167.17987 481.5148c-26.68622-23.66306-19.25248-39.0907-16.70698-55.69821 16.87657 15.30693 20.78649 34.35119 16.70698 55.69821z" style="fill:#fff;fill-opacity:1;stroke:#fff;stroke-width:1px;stroke-linecap:butt;stroke-linejoin:miter;stroke-opacity:1" transform="matrix(.56813 0 0 .56813 228.07914623 87.88079553)"/>
    <path d="M127.06799 450.75092c-20.93324-30.16051-9.74437-43.7821-3.15749-59.77316 13.15509 19.41602 12.43187 39.41499 3.15749 59.77316z" style="fill:#fff;fill-opacity:1;stroke:#fff;stroke-width:1.02934754px;stroke-linecap:butt;stroke-linejoin:miter;stroke-opacity:1" transform="matrix(.56813 0 0 .56813 228.07914623 87.88079553)"/>
    <path d="M83.012089 410.82844c-43.253288.95949-49.364135-18.89446-60.796247-35.76659 27.635953-.30239 46.819952 13.41342 60.796247 35.76659z" style="fill:#fff;fill-opacity:1;stroke:#fff;stroke-width:1.21301508px;stroke-linecap:butt;stroke-linejoin:miter;stroke-opacity:1" transform="matrix(.56813 0 0 .56813 228.07914623 87.88079553)"/>
    <path d="M189.24204 502.59107c-34.09989 25.57612-49.41981 11.77878-67.43027 3.62231 21.95077-16.07081 44.50469-15.09749 67.43027-3.62231z" style="fill:#fff;fill-opacity:1;stroke:#fff;stroke-width:1.21139944px;stroke-linecap:butt;stroke-linejoin:miter;stroke-opacity:1" transform="matrix(.56813 0 0 .56813 228.07914623 87.88079553)"/>
    <path d="M61.91804 373.54977c-42.614008-8.09671-44.457817-28.84204-52.1426156-47.77528 27.1625746 5.47789 43.1082626 22.93582 52.1426156 47.77528z" style="fill:#fff;fill-opacity:1;stroke:#fff;stroke-width:1.21616781px;stroke-linecap:butt;stroke-linejoin:miter;stroke-opacity:1" transform="matrix(.56813 0 0 .56813 228.07914623 87.88079553)"/>
    <path d="M236.57664 516.41212c-26.61942 29.311-43.64688 20.85562-62.04856 17.81085 17.2142-18.532 38.40597-22.62099 62.04856-17.81085z" style="fill:#fff;fill-opacity:1;stroke:#fff;stroke-width:1.11013436px;stroke-linecap:butt;stroke-linejoin:miter;stroke-opacity:1" transform="matrix(.56813 0 0 .56813 228.07914623 87.88079553)"/>
    <path d="M209.94477 501.36764c-31.52825-18.81027-26.9706-35.83867-27.58286-53.12238 20.00438 12.24186 27.61259 30.75123 27.58286 53.12238zM254.07184 512.94192c-34.68132-12.04419-33.66224-29.64249-37.75782-46.44509 22.06704 7.94249 33.2619 24.53034 37.75782 46.44509z" style="fill:#fff;fill-opacity:1;stroke:#fff;stroke-width:1.02934754px;stroke-linecap:butt;stroke-linejoin:miter;stroke-opacity:1" transform="matrix(.56813 0 0 .56813 228.07914623 87.88079553)"/>
  </g>
  <g style="fill:#fff;fill-opacity:1;stroke:#fff;stroke-opacity:1">
    <path d="M118.29289 93.078429c-164.22717 171.030091-43.818158 404.411451 160.5 430.750001C331.0941 536.51279 321.39874 536.67948 346.25 553.75c11.24279.5931-3.14905-6.19505-12.42678-13.61612-10.21891-6.94299-28.98643-12.69762-47.19913-16.7091-20.28883-4.46876-39.71237-5.71364-45.68564-7.03353" style="fill:none;stroke:#fff;stroke-width:10;stroke-linecap:butt;stroke-linejoin:round;stroke-miterlimit:4;stroke-opacity:1;stroke-dasharray:none" transform="matrix(-.56809 -.00677 -.00677 .56809 566.8626703 90.30911827)"/>
    <path d="M54.53561 335.71535c32.329678-15.06276 29.608105-31.97032 31.908194-48.61359-20.543211 9.8538-29.725683 26.99012-31.908194 48.61359z" style="fill:#fff;fill-opacity:1;stroke:#fff;stroke-width:1px;stroke-linecap:butt;stroke-linejoin:miter;stroke-opacity:1" transform="matrix(-.56809 -.00677 -.00677 .56809 566.8626703 90.30911827)"/>
    <path d="M47.335715 290.41521c35.724668-8.46195 36.497027-26.0728 42.276873-42.37294-22.75923 5.66174-35.579895 21.02769-42.276873 42.37294zM52.973205 211.23719c36.667687 1.82679 42.31622-14.87149 52.408755-28.91578-23.435469-.90366-40.02973 10.2817-52.408755 28.91578zM45.46179 250.73702c36.663937-1.90059 40.590217-19.08555 49.206703-34.0808-23.406315 1.47726-38.780899 14.28757-49.206703 34.0808zM66.390275 171.37401c36.250415 5.81074 43.684545-10.17275 55.247085-23.03389-23.197519-3.45151-40.911615 5.85937-55.247085 23.03389z" style="fill:#fff;fill-opacity:1;stroke:#fff;stroke-width:1.02934754px;stroke-linecap:butt;stroke-linejoin:miter;stroke-opacity:1" transform="matrix(-.56809 -.00677 -.00677 .56809 566.8626703 90.30911827)"/>
    <path d="M91.799135 121.17588c28.740705 18.07314 40.855105 7.16535 55.351505.40951-18.48854-11.33831-36.93347-9.83128-55.351505-.40951z" style="fill:#fff;fill-opacity:1;stroke:#fff;stroke-width:.95190156px;stroke-linecap:butt;stroke-linejoin:miter;stroke-opacity:1" transform="matrix(-.56809 -.00677 -.00677 .56809 566.8626703 90.30911827)"/>
    <path d="M115.07076 96.27074c30.34838 10.14279 39.01022-2.546767 50.77903-11.96525-19.45856-6.261075-36.01337-.768847-50.77903 11.96525z" style="fill:#fff;fill-opacity:1;stroke:#fff;stroke-width:.89715803px;stroke-linecap:butt;stroke-linejoin:miter;stroke-opacity:1" transform="matrix(-.56809 -.00677 -.00677 .56809 566.8626703 90.30911827)"/>
    <path d="M112.72036 102.71849c-10.56901-35.043914 4.23369-44.517912 15.4015-57.655234 6.49962 22.461012-.34108 41.203669-15.4015 57.655234z" style="fill:#fff;fill-opacity:1;stroke:#fff;stroke-width:1.02625906px;stroke-linecap:butt;stroke-linejoin:miter;stroke-opacity:1" transform="matrix(-.56809 -.00677 -.00677 .56809 566.8626703 90.30911827)"/>
    <path d="M46.699421 329.8857C6.6801596 318.58389 6.6568673 298.61714.90349973 279.89178 26.38562 287.39838 40.151896 305.40671 46.699421 329.8857z" style="fill:#fff;fill-opacity:1;stroke:#fff;stroke-width:1.16592872px;stroke-linecap:butt;stroke-linejoin:miter;stroke-opacity:1" transform="matrix(-.56809 -.00677 -.00677 .56809 566.8626703 90.30911827)"/>
    <path d="M38.119408 284.23423c-33.570613-22.56769-27.544949-41.03186-27.192089-60.08394 21.282012 14.65665 28.5534 35.47272 27.192089 60.08394z" style="fill:#fff;fill-opacity:1;stroke:#fff;stroke-width:1.13414848px;stroke-linecap:butt;stroke-linejoin:miter;stroke-opacity:1" transform="matrix(-.56809 -.00677 -.00677 .56809 566.8626703 90.30911827)"/>
    <path d="M40.458697 232.34379c-28.739909-27.89312-19.621326-44.82368-15.926577-63.32483 18.158054 18.02372 21.581663 39.58456 15.926577 63.32483z" style="fill:#fff;fill-opacity:1;stroke:#fff;stroke-width:1.12290633px;stroke-linecap:butt;stroke-linejoin:miter;stroke-opacity:1" transform="matrix(-.56809 -.00677 -.00677 .56809 566.8626703 90.30911827)"/>
    <path d="M52.278242 185.6312c-26.320277-39.13169-11.693286-56.41719-2.932636-76.83254 16.531769 25.18525 15.22718 50.85853 2.932636 76.83254z" style="fill:#fff;fill-opacity:1;stroke:#fff;stroke-width:1.32224536px;stroke-linecap:butt;stroke-linejoin:miter;stroke-opacity:1" transform="matrix(-.56809 -.00677 -.00677 .56809 566.8626703 90.30911827)"/>
    <path d="M81.974802 134.06072c-20.220289-33.41836-7.433115-47.137497.625217-63.678888 12.676276 21.491926 10.577415 42.679248-.625217 63.678888z" style="fill:#fff;fill-opacity:1;stroke:#fff;stroke-width:1.09513366px;stroke-linecap:butt;stroke-linejoin:miter;stroke-opacity:1" transform="matrix(-.56809 -.00677 -.00677 .56809 566.8626703 90.30911827)"/>
    <path d="M78.411216 469.19311c36.201634 29.56243 54.600834 16.71372 75.550534 9.94109-23.3369-18.62382-48.79134-19.69118-75.550534-9.94109z" style="fill:#fff;fill-opacity:1;stroke:#fff;stroke-width:1.31043613px;stroke-linecap:butt;stroke-linejoin:miter;stroke-opacity:1" transform="matrix(-.56809 -.00677 -.00677 .56809 566.8626703 90.30911827)"/>
    <path d="M96.242468 418.74896c23.483212-28.2205 13.524592-42.76576 8.357052-59.27023-14.797853 18.19509-15.821095 38.18095-8.357052 59.27023z" style="fill:#fff;fill-opacity:1;stroke:#fff;stroke-width:1.02934754px;stroke-linecap:butt;stroke-linejoin:miter;stroke-opacity:1" transform="matrix(-.56809 -.00677 -.00677 .56809 566.8626703 90.30911827)"/>
    <path d="M41.423666 419.74455c29.095329 38.11252 50.512856 29.66676 73.030364 27.8912-18.858928-24.13642-44.00708-31.25624-73.030364-27.8912z" style="fill:#fff;fill-opacity:1;stroke:#fff;stroke-width:1.34437215px;stroke-linecap:butt;stroke-linejoin:miter;stroke-opacity:1" transform="matrix(-.56809 -.00677 -.00677 .56809 566.8626703 90.30911827)"/>
    <path d="M71.494262 380.76367c27.049967-24.82248 19.128351-40.57007 16.216964-57.6178-17.100608 16.05014-20.790365 35.71909-16.216964 57.6178z" style="fill:#fff;fill-opacity:1;stroke:#fff;stroke-width:1.02934754px;stroke-linecap:butt;stroke-linejoin:miter;stroke-opacity:1" transform="matrix(-.56809 -.00677 -.00677 .56809 566.8626703 90.30911827)"/>
    <path d="M167.17987 481.5148c-26.68622-23.66306-19.25248-39.0907-16.70698-55.69821 16.87657 15.30693 20.78649 34.35119 16.70698 55.69821z" style="fill:#fff;fill-opacity:1;stroke:#fff;stroke-width:1px;stroke-linecap:butt;stroke-linejoin:miter;stroke-opacity:1" transform="matrix(-.56809 -.00677 -.00677 .56809 566.8626703 90.30911827)"/>
    <path d="M127.06799 450.75092c-20.93324-30.16051-9.74437-43.7821-3.15749-59.77316 13.15509 19.41602 12.43187 39.41499 3.15749 59.77316z" style="fill:#fff;fill-opacity:1;stroke:#fff;stroke-width:1.02934754px;stroke-linecap:butt;stroke-linejoin:miter;stroke-opacity:1" transform="matrix(-.56809 -.00677 -.00677 .56809 566.8626703 90.30911827)"/>
    <path d="M83.012089 410.82844c-43.253288.95949-49.364135-18.89446-60.796247-35.76659 27.635953-.30239 46.819952 13.41342 60.796247 35.76659z" style="fill:#fff;fill-opacity:1;stroke:#fff;stroke-width:1.21301508px;stroke-linecap:butt;stroke-linejoin:miter;stroke-opacity:1" transform="matrix(-.56809 -.00677 -.00677 .56809 566.8626703 90.30911827)"/>
    <path d="M189.24204 502.59107c-34.09989 25.57612-49.41981 11.77878-67.43027 3.62231 21.95077-16.07081 44.50469-15.09749 67.43027-3.62231z" style="fill:#fff;fill-opacity:1;stroke:#fff;stroke-width:1.21139944px;stroke-linecap:butt;stroke-linejoin:miter;stroke-opacity:1" transform="matrix(-.56809 -.00677 -.00677 .56809 566.8626703 90.30911827)"/>
    <path d="M61.91804 373.54977c-42.614008-8.09671-44.457817-28.84204-52.1426156-47.77528 27.1625746 5.47789 43.1082626 22.93582 52.1426156 47.77528z" style="fill:#fff;fill-opacity:1;stroke:#fff;stroke-width:1.21616781px;stroke-linecap:butt;stroke-linejoin:miter;stroke-opacity:1" transform="matrix(-.56809 -.00677 -.00677 .56809 566.8626703 90.30911827)"/>
    <path d="M236.57664 516.41212c-26.61942 29.311-43.64688 20.85562-62.04856 17.81085 17.2142-18.532 38.40597-22.62099 62.04856-17.81085z" style="fill:#fff;fill-opacity:1;stroke:#fff;stroke-width:1.11013436px;stroke-linecap:butt;stroke-linejoin:miter;stroke-opacity:1" transform="matrix(-.56809 -.00677 -.00677 .56809 566.8626703 90.30911827)"/>
    <path d="M209.94477 501.36764c-31.52825-18.81027-26.9706-35.83867-27.58286-53.12238 20.00438 12.24186 27.61259 30.75123 27.58286 53.12238zM254.07184 512.94192c-34.68132-12.04419-33.66224-29.64249-37.75782-46.44509 22.06704 7.94249 33.2619 24.53034 37.75782 46.44509z" style="fill:#fff;fill-opacity:1;stroke:#fff;stroke-width:1.02934754px;stroke-linecap:butt;stroke-linejoin:miter;stroke-opacity:1" transform="matrix(-.56809 -.00677 -.00677 .56809 566.8626703 90.30911827)"/>
  </g>
  <path d="M448.1292 99.038094a18.129215 18.129215 0 0 1-36.25843 0 18.129215 18.129215 0 1 1 36.25843 0z" style="fill:#fff;fill-opacity:1;stroke:none" transform="matrix(.96132 0 0 .96132 -16.845834 9.27263057)"/>
  <path d="M443.26983 96.60841a15.699527 15.699527 0 0 1-31.39905 0 15.699527 15.699527 0 1 1 31.39905 0z" style="fill:#004614;fill-opacity:1;stroke:none" transform="matrix(.96132 0 0 .96132 -16.845834 9.27263057)"/>
  <path d="m423.36221 82.398648-.48326 5.387481 4.34285 2.507752-5.27314 1.205221-1.043 4.905226-2.77572-4.642614-4.98745.523846 3.55764-4.074515-2.03941-4.581472 4.97446 2.124426z" style="fill:#fff;fill-opacity:1;stroke:none" transform="matrix(.96132 0 0 .96132 -16.845834 9.27263057)"/>
  <path d="M550.24332 242.01895a120.24332 120.24332 0 1 1-240.48662 0 120.24332 120.24332 0 1 1 240.48662 0z" style="fill:none;stroke:#fff;stroke-width:1.81737185;stroke-linecap:butt;stroke-linejoin:miter;stroke-miterlimit:4;stroke-opacity:1;stroke-dasharray:none" transform="matrix(.96132 0 0 .96132 -16.845834 9.27263057)"/>
  <path d="M313.57884 266.39962c2.28873-1.86615 5.69621-1.62988 7.4356-3.36803 20.7507-20.73608 32.50005 2.52806 42.16469-11.39425 3.58069-1.80629 8.48255-3.05398 8.7964-6.40345.22284-5.65537 3.863-7.37106 4.69559-11.33847 1.13584-5.41248 3.81891-8.33496 7.53109-8.03113 3.66883-.0941 6.45285 1.00355 10.64764-1.68892 2.8236-1.81232 5.52377-.39046 8.78423-.60943 1.14728-4.85967 4.08762-6.33246 7.73097-6.47731 5.25969.8493 8.94276-.71888 10.02935-6.26835-.0531-4.05971.61255-5.96298 1.67156-6.68623 2.44392.30188 3.68257-1.97891 4.17889-5.85046 6.43768-1.41757 9.76138-7.50611 14.62615-11.28303 4.29621-2.02483 8.38517 1.78861 13.47694-1.25367 18.74596-2.44285 28.70523 6.1912 32.58509 13.38382 3.14509 5.83042 11.91024 2.40767 17.03932 12.52534 8.46317 10.35247 11.48701 10.66309 16.71559 15.04401 1.96807 3.55543 3.94189 7.10441 8.3578 7.93995 3.78563 4.85075 8.09588 9.17688 10.86514 15.044 3.20382 2.93519 6.40764 2.64147 9.61146 2.92526" style="fill:none;stroke:#fff;stroke-width:1.18197072;stroke-linecap:butt;stroke-linejoin:round;stroke-miterlimit:4;stroke-opacity:1;stroke-dasharray:none" transform="matrix(.96132 0 0 .96132 -16.845834 9.27263057)"/>
  <path d="M352.95445 256.33006c1.31468-2.6173 2.22296-3.86328 5.75648-8.42208 2.1591-.13297 4.3182-2.99334 6.4773-5.2236 1.86755-2.78697 5.03928-4.59574 4.9102-8.88015 1.34285-1.08759 2.05736-2.09622 3.39708-3.19575 1.14864-.94268 2.9506-1.86917 3.81152-3.90836-.40149-1.2708.86326-3.09694 2.08945-4.91026 3.79819-1.41423 4.7257-2.53131 5.95493-6.26835 5.26742-3.63155 15.28032-8.92104 17.86478-18.07371 2.43151-1.91065 4.71429-2.54055 5.98996-5.5985.57526-1.37897 3.03963-1.48519 4.7707-3.07271 3.92526-.29807 6.09033-2.74299 7.62649-5.95493 3.12099-3.24251 6.49356-4.64001 10.44725-1.77603.99427 2.16405 2.17551 3.01928 3.44759 3.23865 1.26404 3.03533 2.7078 1.96269 5.30582 3.93083" style="fill:none;stroke:#fff;stroke-width:.88647807;stroke-linecap:butt;stroke-linejoin:round;stroke-miterlimit:4;stroke-opacity:1;stroke-dasharray:none" transform="matrix(.96132 0 0 .96132 -16.845834 9.27263057)"/>
  <path d="M300.69716 97.862304c.93521-3.780875 3.66418-6.280485 6.18718-8.927224 1.85643-4.479482 2.89966-19.43142 6.0988-8.927223 2.28398-6.759102 3.6848 1.346296 3.44714 1.944544 3.32757-7.101621 3.18714 1.022239 3.0936 1.325825 3.68903-5.219557 3.64097.853013 2.65165 2.032932l-11.13694 20.064152-15.20279 7.95495c.15961-1.16287-3.17106-3.62369-2.55277-4.66688 7.45322.88255 7.55128-7.38259 7.41413-10.801076z" style="fill:#fff;fill-opacity:1;stroke:#004614;stroke-width:1px;stroke-linecap:butt;stroke-linejoin:round;stroke-opacity:1" transform="matrix(.56813 0 0 .56813 228.1623296 88.44892457)"/>
  <path d="M310.55273 99.055819c.64392-.958321-.46921-3.991635.68152-4.562002 2.91222-1.443448 4.16536-5.972866 9.38541-9.165015 3.96112-2.630148 6.44249-3.726571 1.64425 3.075948 3.9776-2.248128 10.03453-5.775587 2.20971 2.740039 6.5501-2.957387 6.32866-1.505738 1.06066 3.093592 4.92488-1.095072 7.00692-1.339348 2.03294 4.242641 5.16277-2.182299 5.68009 1.125498.61871 3.712308 6.94243-1.09145 2.26695 3.0403 0 4.77297 5.32402.00034 4.11302 3.20979-3.35875 5.39169 7.46877-.1599 7.32186 1.85052-2.20971 3.44714 10.38443 2.30497 1.46094 3.11008-3.62392 3.62393 9.43525 1.35046 7.20937 4.00451-1.94455 2.91682l3.97748 1.85615c7.02475 6.7411 15.33678 6.49407 23.64022 6.29367 16.53776-.59054 17.5439 3.75666 1.28529 3.60584 10.89903-1.08319 21.88527 3.90208.0928 3.49264 9.72975-1.41163 18.87303 7.1339-1.50704 2.87132 13.36234 3.57977 10.40749 7.23296-2.47488 1.94454 7.51481 3.19726 9.36543 9.49209-2.29809 1.94454 1.99913 1.94864 10.50984 10.92593-4.38633 1.80974 1.35886 1.21143 7.11802 8.32781-2.15441 2.07935-8.52926-3.75452-14.52137-8.95885-18.38478-15.37957-13.08523-4.13538-23.75866 4.1613-34.60718-20.5882-.73478-3.78314-3.76294-2.37213-5.83363-2.82843-11.17759 2.25844-3.14035-2.26821-1.79809-2.6302.96448-7.272495 5.81277-6.1921 9.40133-4.00521 4.22346 2.58066 6.37501 6.346 13.2861 5.84406 2.71353 4.34998 10.82021-2.98537 15.26491-9.600301z" style="fill:#fff;fill-opacity:1;stroke:#004614;stroke-width:1px;stroke-linecap:round;stroke-linejoin:round;stroke-opacity:1" transform="matrix(.56813 0 0 .56813 228.1623296 88.44892457)"/>
  <path d="M307.67984 118.10323c-8.42214-4.80895-.11219-8.54497 5.39169-12.9047" style="fill:none;stroke:#004614;stroke-width:3;stroke-linecap:round;stroke-linejoin:miter;stroke-miterlimit:4;stroke-opacity:1;stroke-dasharray:none;filter:url(#d)" transform="matrix(.56813 0 0 .56813 228.1623296 88.44892457)"/>
  <path d="M321.83086 135.36485c1.19182.19551 2.57207-.68823 3.6147-1.13922.75428-.32627 2.65019-.47628 3.55287-.74282" style="fill:none;stroke:#004614;stroke-width:1px;stroke-linecap:round;stroke-linejoin:miter;stroke-opacity:1;filter:url(#e)" transform="matrix(.56813 0 0 .56813 228.1623296 88.44892457)"/>
  <path d="M278.95102 105.11015a1.5 1.5 0 1 1-3 0 1.5 1.5 0 1 1 3 0z" style="fill:#004614;fill-opacity:1;stroke:none" transform="matrix(.56813 0 0 .56813 228.1623296 88.44892457)"/>
  <path d="M305.39599 131.96764c.0761 1.48535.15127 2.98313 2.22034 3.00049 1.91728.0161 1.29736-1.46642-.0803-1.59608M312.26439 132.85613c-.0244 1.08556.53936 1.34912 1.58647 1.27305.62138-.0451 1.75847-.36572.61604-1.20795" style="fill:none;stroke:#fff;stroke-width:2;stroke-linecap:round;stroke-linejoin:miter;stroke-miterlimit:4;stroke-opacity:1;stroke-dasharray:none" transform="matrix(.56813 0 0 .56813 228.1623296 88.44892457)"/>
  <g style="fill:#004614;fill-opacity:1;stroke:#fff;stroke-opacity:1">
    <path d="M755.80086 284.01258V239.7463H744.0531v8.95072h-8.13172v-8.95072h-12.81631v8.95072h-8.04334v-8.95072h-13.08148v8.95072h-7.95495v-8.95072h-12.99309v8.95072h-8.04334v-8.95072h-12.9047v8.95072h-8.04334v-8.95072h-11.40209l2.20971 44.26628c36.80871-8.84977 74.84401-8.23762 112.95241 0z" style="fill:#004614;fill-opacity:1;stroke:#fff;stroke-width:1px;stroke-linecap:butt;stroke-linejoin:miter;stroke-opacity:1" transform="matrix(.56813 0 0 .56813 -.21736253 138.7282915)"/>
    <g style="fill:#004614;fill-opacity:1;stroke:#fff;stroke-width:.5;stroke-miterlimit:4;stroke-opacity:1;stroke-dasharray:none">
      <path d="M746.62487 278.5826v3.6875M731.87487 278.4576v1.5M656.81237 278.5201v2.5625M722.3125 278.5826h33.49987M642.25 278.5826h33.09375M754.12487 271.1403v7.3125M739.37487 271.0153v7.4375M724.31237 271.29655v7.15625M709.31237 271.2653v6.5625M642.12487 271.1403h65.125M694.12487 271.29655v6.40625M679.37487 271.23405v7.21875M664.31237 271.0778v7.375M649.31237 271.23405v7.21875M701.24987 271.1403h54.625M746.62487 263.69799v7.3125M731.87487 263.57299v7.4375M716.81237 263.63549v7.375M701.81237 263.71316v7.29733M686.62487 263.69799v7.3125M671.87487 263.57299v7.4375M656.81237 263.63549v7.375M693.74987 263.69799h62.1875M642.06237 263.69799h57.6875M754.49987 256.25568v7.3125M739.74987 256.32955v7.23863M724.68737 256.19318v7.375M709.68737 256.27085v7.29733M641.62487 256.25568h66M694.49987 256.25568v7.3125M679.74987 256.30746v7.26072M664.68737 256.19318v7.375M649.68737 256.29294v7.27524M701.62487 256.25568h54.125M746.74987 249.03434v7.09153M731.99987 249.06402v7.06185M716.93737 249.01604v7.10983M701.93737 248.96112v7.16475M686.74987 249.03434v7.09153M671.99987 249.12587v7M656.93737 249.14862v6.97725M641.93737 249.0716v7.05427M693.87487 249.00087h61.875M641.31237 249.00087h58.5625" style="fill:#004614;fill-opacity:1;stroke:#fff;stroke-width:.5;stroke-linecap:butt;stroke-linejoin:miter;stroke-miterlimit:4;stroke-opacity:1;stroke-dasharray:none" transform="matrix(.56813 0 0 .56813 -.21736253 138.7282915)"/>
    </g>
  </g>
  <g style="fill:#004614;fill-opacity:1;stroke:#fff;stroke-opacity:1">
    <path d="M865.67548 437.27356h66.99836l-8.42855-112.40103h-12.90625v5.1875h-6.90625v-5.1875h-13.25v5.1875h-6.90625v-5.1875h-12.75z" style="fill:#004614;fill-opacity:1;stroke:#fff;stroke-width:1px;stroke-linecap:butt;stroke-linejoin:miter;stroke-opacity:1" transform="matrix(.56813 0 0 .56813 -160.46241299 82.45156143)"/>
    <g style="fill:#004614;fill-opacity:1;stroke:#fff;stroke-width:.5;stroke-miterlimit:4;stroke-opacity:1;stroke-dasharray:none">
      <path d="M856.10425 415.91789h35.95825M879.16675 415.85539v7.375M864.16675 415.66789v7.5625M825.875 415.91789h36.22925M848.97925 415.91789v7.3125M834.22925 415.79289v7.4375M886.72925 408.35059v7.4375M871.66675 408.41309v7.375M856.66675 408.22559v7.5625M826.25 408.47559h28.35425M841.47925 408.47559v7.3125M826.72925 408.35059v7.4375M848.60425 408.47559H891.375M878.91675 400.97078v7.375M863.91675 400.78328v7.5625M826.625 401.03328h35.22925M848.72925 401.03328v7.3125M833.97925 400.90828v7.4375M855.85425 401.03328H890.75M886.60425 393.34097v7.4375M871.54175 393.40347v7.375M856.54175 393.21597v7.5625M827 393.46597h27.47925M841.35425 393.46597v7.3125M848.47925 393.46597h41.58325M878.79175 386.08616v7.375M863.79175 385.89866v7.5625M827.375 386.14866h34.35425M848.60425 386.14866v7.3125M833.85425 386.02366v7.4375M855.72925 386.14866H889.75M886.35425 378.58136v7.4375M871.29175 378.64386v7.375M856.29175 378.45636v7.5625M827.9375 378.70636h26.29175M841.10425 378.70636v7.3125M848.22925 378.70636H889.25M879.35425 371.13905v7.4375M864.29175 371.20155v7.375M849.29175 371.01405v7.5625M828 371.26405h19.22925M834.10425 371.26405v7.3125M841.22925 371.26405H888.375M886.10425 363.69674v7.4375M871.04175 363.75924v7.375M856.04175 363.57174v7.5625M828.875 363.82174h25.10425M840.85425 363.82174v7.3125M847.97925 363.82174H888.125M879.04175 356.31693v7.375M864.04175 356.12943v7.5625M829.0625 356.37943h32.91675M848.85425 356.37943v7.3125M834.10425 356.25443v7.4375M855.97925 356.37943H887.625M871.41675 348.87463v7.375M856.41675 348.68713v7.5625M829.4375 348.93713h24.91675M841.22925 348.93713v7.3125M848.35425 348.93713H887.125M886.3542 348.74963v7.4375M871.41675 348.87463v7.375M856.41675 348.68713v7.5625M841.22925 348.93713v7.3125M878.91675 341.43232v7.375M863.91675 341.24482v7.5625M830 341.49482h31.85425M848.72925 341.49482v7.3125M833.97925 341.36982v7.4375M855.85425 341.49482h30.58325M871.41675 333.99001v7.375M856.41675 333.80251v7.5625M830.375 334.05251h23.97925M841.22925 334.05251v7.3125M848.35425 334.05251H885.625M856.22925 326.6102h28.90482M879.29175 326.5477v7.375M864.29175 326.3602v7.5625M830.8125 326.6102h31.41675M849.10425 326.6102v7.3125M834.35425 326.4852v7.4375M871.54175 318.55297v7.92743M856.54175 318.60854v7.87186M841.35425 318.65967v7.82073" style="fill:#004614;fill-opacity:1;stroke:#fff;stroke-width:.5;stroke-linecap:butt;stroke-linejoin:miter;stroke-miterlimit:4;stroke-opacity:1;stroke-dasharray:none" transform="matrix(.56813 0 0 .56813 -137.7012753 89.42287123)"/>
      <g style="fill:#004614;fill-opacity:1;stroke:#fff;stroke-width:.4615162;stroke-miterlimit:4;stroke-opacity:1;stroke-dasharray:none">
        <path d="M942.53838 317.58631h21.44087M957.97925 317.58631h34.14956" style="fill:#004614;fill-opacity:1;stroke:#fff;stroke-width:.4615162;stroke-linecap:butt;stroke-linejoin:miter;stroke-miterlimit:4;stroke-opacity:1;stroke-dasharray:none" transform="translate(-245.74299387 74.87953363) scale(.6155)"/>
      </g>
      <path d="M825.63121 423.66789h66.67427" style="fill:#004614;fill-opacity:1;stroke:#fff;stroke-width:2;stroke-linecap:butt;stroke-linejoin:miter;stroke-miterlimit:4;stroke-opacity:1;stroke-dasharray:none" transform="matrix(.56813 0 0 .56813 -137.7012753 89.42287123)"/>
    </g>
  </g>
  <g style="fill:#004614;fill-opacity:1;stroke:#fff;stroke-opacity:1">
    <path d="M865.67548 437.27356h66.99836l-8.42855-112.40103h-12.90625v5.1875h-6.90625v-5.1875h-13.25v5.1875h-6.90625v-5.1875h-12.75z" style="fill:#004614;fill-opacity:1;stroke:#fff;stroke-width:1px;stroke-linecap:butt;stroke-linejoin:miter;stroke-opacity:1" transform="matrix(-.56813 0 0 .56813 953.50944064 82.45156143)"/>
    <g style="fill:#004614;fill-opacity:1;stroke:#fff;stroke-width:.5;stroke-miterlimit:4;stroke-opacity:1;stroke-dasharray:none">
      <path d="M856.10425 415.91789h35.95825M879.16675 415.85539v7.375M864.16675 415.66789v7.5625M825.875 415.91789h36.22925M848.97925 415.91789v7.3125M834.22925 415.79289v7.4375M886.72925 408.35059v7.4375M871.66675 408.41309v7.375M856.66675 408.22559v7.5625M826.25 408.47559h28.35425M841.47925 408.47559v7.3125M826.72925 408.35059v7.4375M848.60425 408.47559H891.375M878.91675 400.97078v7.375M863.91675 400.78328v7.5625M826.625 401.03328h35.22925M848.72925 401.03328v7.3125M833.97925 400.90828v7.4375M855.85425 401.03328H890.75M886.60425 393.34097v7.4375M871.54175 393.40347v7.375M856.54175 393.21597v7.5625M827 393.46597h27.47925M841.35425 393.46597v7.3125M848.47925 393.46597h41.58325M878.79175 386.08616v7.375M863.79175 385.89866v7.5625M827.375 386.14866h34.35425M848.60425 386.14866v7.3125M833.85425 386.02366v7.4375M855.72925 386.14866H889.75M886.35425 378.58136v7.4375M871.29175 378.64386v7.375M856.29175 378.45636v7.5625M827.9375 378.70636h26.29175M841.10425 378.70636v7.3125M848.22925 378.70636H889.25M879.35425 371.13905v7.4375M864.29175 371.20155v7.375M849.29175 371.01405v7.5625M828 371.26405h19.22925M834.10425 371.26405v7.3125M841.22925 371.26405H888.375M886.10425 363.69674v7.4375M871.04175 363.75924v7.375M856.04175 363.57174v7.5625M828.875 363.82174h25.10425M840.85425 363.82174v7.3125M847.97925 363.82174H888.125M879.04175 356.31693v7.375M864.04175 356.12943v7.5625M829.0625 356.37943h32.91675M848.85425 356.37943v7.3125M834.10425 356.25443v7.4375M855.97925 356.37943H887.625M871.41675 348.87463v7.375M856.41675 348.68713v7.5625M829.4375 348.93713h24.91675M841.22925 348.93713v7.3125M848.35425 348.93713H887.125M886.3542 348.74963v7.4375M871.41675 348.87463v7.375M856.41675 348.68713v7.5625M841.22925 348.93713v7.3125M878.91675 341.43232v7.375M863.91675 341.24482v7.5625M830 341.49482h31.85425M848.72925 341.49482v7.3125M833.97925 341.36982v7.4375M855.85425 341.49482h30.58325M871.41675 333.99001v7.375M856.41675 333.80251v7.5625M830.375 334.05251h23.97925M841.22925 334.05251v7.3125M848.35425 334.05251H885.625M856.22925 326.6102h28.90482M879.29175 326.5477v7.375M864.29175 326.3602v7.5625M830.8125 326.6102h31.41675M849.10425 326.6102v7.3125M834.35425 326.4852v7.4375M871.54175 318.55297v7.92743M856.54175 318.60854v7.87186M841.35425 318.65967v7.82073" style="fill:#004614;fill-opacity:1;stroke:#fff;stroke-width:.5;stroke-linecap:butt;stroke-linejoin:miter;stroke-miterlimit:4;stroke-opacity:1;stroke-dasharray:none" transform="matrix(-.56813 0 0 .56813 930.74830296 89.42287123)"/>
      <g style="fill:#004614;fill-opacity:1;stroke:#fff;stroke-width:.4615162;stroke-miterlimit:4;stroke-opacity:1;stroke-dasharray:none">
        <path d="M942.53838 317.58631h21.44087M957.97925 317.58631h34.14956" style="fill:#004614;fill-opacity:1;stroke:#fff;stroke-width:.4615162;stroke-linecap:butt;stroke-linejoin:miter;stroke-miterlimit:4;stroke-opacity:1;stroke-dasharray:none" transform="matrix(-.6155 0 0 .6155 1038.79002152 74.87953363)"/>
      </g>
      <path d="M825.63121 423.66789h66.67427" style="fill:#004614;fill-opacity:1;stroke:#fff;stroke-width:2;stroke-linecap:butt;stroke-linejoin:miter;stroke-miterlimit:4;stroke-opacity:1;stroke-dasharray:none" transform="matrix(-.56813 0 0 .56813 930.74830296 89.42287123)"/>
    </g>
  </g>
  <g style="fill:#fff;fill-opacity:1;stroke-width:1;stroke-miterlimit:4;stroke-dasharray:none">
    <path d="M532 555c2.78063-2.13037 9.33035-3.66484 3.5-10.25l-16.75-20.5c-5.8287-6.23046-10.99757-4.93899-16-1.75l-23.5 15.25 19.4375 28.1875 17.88702-11.01045 10.23798-6.30205zM498.6875 565.875l36.0625-22.25" style="fill:#fff;fill-opacity:1;stroke:#004614;stroke-width:1;stroke-linecap:butt;stroke-linejoin:miter;stroke-miterlimit:4;stroke-opacity:1;stroke-dasharray:none" transform="matrix(-.56813 0 0 .56813 568.0414362 93.10038505)"/>
  </g>
  <g style="fill:#fff;fill-opacity:1;stroke-width:1;stroke-miterlimit:4;stroke-dasharray:none">
    <path d="M532 555c2.78063-2.13037 9.33035-3.66484 3.5-10.25l-16.75-20.5c-5.8287-6.23046-10.99757-4.93899-16-1.75l-23.5 15.25 19.4375 28.1875 28.125-17.3125zM498.6875 565.875l36.0625-22.25" style="fill:#fff;fill-opacity:1;stroke:#004614;stroke-width:1;stroke-linecap:butt;stroke-linejoin:miter;stroke-miterlimit:4;stroke-opacity:1;stroke-dasharray:none" transform="matrix(.56813 0 0 .56813 225.0055434 90.09334332)"/>
  </g>
  <path d="m545.2478 414.88458-16.50898-22.9089s-.19286-.31281-.47623-.15011c-63.56678 36.49807-129.33851 39.30626-197.83839 2.88732-.2498-.1328-.54272.17156-.54272.17156l-15.17256 23.52802c-.0268.008-.0797.5252.11965.56515 79.82904 42.63026 156.46037 39.28653 230.51035-3.50773.16417-.1877.0728-.38509-.0911-.58531z" style="fill:#fff;fill-opacity:1;stroke:#004614;stroke-width:.68481922px;stroke-linecap:butt;stroke-linejoin:miter;stroke-opacity:1" transform="matrix(.96132 0 0 .96132 -16.845834 9.27263057)"/>
  <path d="M527.53714 395.04685c-65.89333 40.70773-139.47728 33.29931-196.22044 3.24345-.10006-.0791-.46603.0643-.46603.10508l-12.16744 18.85958c.0295.0195-.51552.57131.16799.87366 76.98088 39.77963 150.98967 36.79516 222.58119-3.08146.61094-.35294.20631-.78034.2108-.78631l-13.45115-19.15992c.002-.009-.50772-.15803-.65492-.0538z" style="fill:#004614;fill-opacity:1;stroke:none" transform="matrix(.96132 0 0 .96132 -16.845834 9.27263057)"/>
  <path d="M414.15218 217.16076c.85266 1.51209-.13676 3.54797 5.82584 2.76211 2.74471.2502 5.65167-.0766 7.52382 1.39506 2.06272.81306 2.45559 2.5652 3.43607 3.70349.65046.75515 1.38898.8672 2.28201 2.49791 1.31239.24857 1.99738 2.31175 2.65118 3.28242l2.33238 2.2801c.0228 2.0026 1.33103 3.68289 2.33503 6.05984.80113 1.45959 1.14801 3.20122 1.55565 4.18911 1.08123.53602 1.61355 1.46159 2.6142 2.08625" style="fill:none;stroke:#fff;stroke-width:.5;stroke-linecap:butt;stroke-linejoin:round;stroke-miterlimit:4;stroke-opacity:1;stroke-dasharray:none" transform="matrix(.96132 0 0 .96132 -16.845834 9.27263057)"/>
  <path d="M496.51041 204.31322c.20842 4.4412-.18051 9.41259 1.44202 12.59871.90126 4.49953 2.10106 10.85828 2.13023 14.0713.78073 2.90472.94414 5.8608 3.63784 8.60635 1.38612 3.1456 2.48444 6.36451 2.16303 10.43892.78804 2.84415.46343 5.44142 2.60725 8.5864 1.4442 1.68237 2.75121 3.43324 3.52133 5.45215.40357 1.46324.88725 2.87629 1.2526 4.34167.65812 2.63965 1.395 4.48589 2.71295 6.27723" style="fill:none;stroke:#fff;stroke-width:.50441653;stroke-linecap:butt;stroke-linejoin:round;stroke-miterlimit:4;stroke-opacity:1;stroke-dasharray:none" transform="matrix(.96132 0 0 .96132 -16.845834 9.27263057)"/>
  <g style="fill:#fff;fill-opacity:1;stroke:none">
    <path d="M135.12157 569.37201c3.57049-8.37502 7.24162-16.88422 10.00901-24.18843 2.53665-1.66745 3.37898-.98888 5.42155-1.66817-2.72073 9.47268-6.11662 15.56957-9.17493 23.35435-2.08521 2.39354-4.17042 3.16677-6.25563 2.50225zM156.59923 570.2061c-5.74383 3.61035-8.30367-.0309-10.63457-3.33634-4.5716 2.19941 1.90694 18.67406 14.1273 4.74386 9.29505 3.77541 17.89565 8.361 27.9418 11.26013 4.35795 1.03002 5.76581-.28981 5.6822-3.70125l-.0521-9.93082-5.26515 4.04011c-.011 1.35223 3.13079 5.18952-1.66817 3.12781l-7.19397-3.07569c-1.71522-5.90789-7.62584-19.91775-13.65812-7.71527 5.54469.0709 6.30771 2.29293 6.77693 5.0045l-10.00901-4.17042c-.43305-12.88984-3.08977-14.51785-7.7022-6.24108-1.74266 2.98238-1.84006 8.39663 1.65509 9.99446z" style="fill:#fff;fill-opacity:1;stroke:none" transform="matrix(.50976 0 0 .50976 242.92791085 125.44313961)"/>
    <path d="M157.0684 562.69934c.56044.89705 1.18132 1.75985 2.38497 2.38496 1.68913-4.91637-2.39772-6.83687-2.38497-2.38496zM202.89088 586.88777c-4.10406 4.76341-7.64429 1.35139-11.208-1.72029 2.68567 18.41747 9.6889 8.77075 16.10825 2.91929l6.11343 1.51029c.65831-.30273 1.24995-.40548 1.76613-.28183.50471.12089.93728.45823 1.28946 1.0367l34.93315 8.63005c.83226.23981 4.40062-.0611 4.22256-3.49272v-9.38344c-.35547-6.19277-3.94262-1.57894-4.53534-.5213l-1.82455 3.2842c1.47827 1.71521 2.46932 4.26268.26065 4.11829-4.05054-.88445-8.42359-1.4464-11.15587-3.64911-4.72621-2.54872-5.91591-16.55064-15.32629-5.78646 5.1417-.3708 6.6442 1.66168 8.4451 4.22255-4.71386.0838-8.91676-1.36531-13.08469-2.9193l-1.51178-8.39296-4.37894 3.64911c.69959 1.7113 2.37084 3.86425.20852 4.27468l-4.58746-1.77243c-.86832-12.92636-6.61777-10.81331-8.86214-4.06615-.31348 1.37893-.42289 5.75348 3.12781 8.34083zM232.9179 576.98303l-3.59699-3.4406 3.28421-3.44059 3.64911 3.54485z" style="fill:#fff;fill-opacity:1;stroke:none" transform="matrix(.50976 0 0 .50976 242.92791085 125.44313961)"/>
    <path d="M205.77332 581.6368c-.43928-7.68881-3.69265-2.06459-3.02356-1.51439zM268.18848 598.77347c2.69214-2.2217 6.64236 4.89715 14.28369 1.77243 3.31248-3.8965-.19513-6.77535-2.50226-9.27919.4933-2.14088 1.80321-4.00956 3.54486-5.73432l4.79598 7.81953c2.11996 1.10908 4.23993 1.31331 6.35989 1.25113 1.58797.009 2.07909-1.88228.41704-2.91929-2.87901-2.49626 1.41066-6.00149 2.18947-6.8812 2.10772 2.58628 4.02907 5.2761 4.90024 8.54936 1.18928.97001 5.34659.82317 8.6881.64251 2.15456.0251 1.8464-1.33275.50911-2.46427-.95747-1.04851-1.61197-1.64908 2.58423-6.93612 2.0731 2.55702 3.74259 5.58107 4.69172 8.86214 6.30284.58819 17.72551.62189 19.49671 0-7.41278-6.64724-8.05799-1.03102-11.8857-2.81503 8.6831-13.74843 16.87286.98209 20.74784 2.08521h3.12782c.81039 1.97652 1.39863 4.04191.83408 6.56841-11.32964.20852-24.58355.80189-33.98892.62556-1.39412-1.32371-2.55423-.71053-3.23207.20852-5.34075-.0379-11.77773.62324-13.4496-.31278-.82105-.45026-1.88544-1.6755-2.81504.10426-3.58228.0767-7.62062 1.44513-9.90474-1.5639-3.76704 20.33599-23.54718 2.57504-19.39245.41704zM364.2861 589.02512c-6.81724 9.01391.81005 14.08954 9.27918 11.83356 10.24574-1.98676 16.6033-7.27404 24.53698-11.31597 3.84693-.88259 7.10362-2.38356 8.51359-5.26145 1.52414.39174 8.95809 2.61548 9.38344-3.54485.42695-4.90112-1.86952-7.45839-6.2372-7.67155-3.9551.11087-6.25731 3.40283-5.75275 8.50563l-5.73433 2.81503c-1.66412-4.04356-4.3321-5.0755-7.08971-5.83858l-.83408 5.5258c2.37645.69177 3.95157 1.58387.83408 3.64912-7.93474 2.63113-16.33421 9.08723-25.02251 7.61101-1.68836-1.74832-1.30051-4.18871-1.87669-6.30775z" style="fill:#fff;fill-opacity:1;stroke:none" transform="matrix(.50976 0 0 .50976 242.92791085 125.44313961)"/>
    <path d="M408.33615 580.99706c1.13745 1.45815 5.22927-.52101 3.59535-2.89202-1.86004-2.07038-5.06633.0605-3.59535 2.89202zM417.82014 584.07798c1.30473-2.52864 8.87915 3.06779 10.79467-7.27741-4.18951.80107-5.78206-3.38118-6.17743-5.76039-.46496-3.38612.11645-5.89544 3.8837-6.88119 1.4476-.51053 4.93672 1.51357 4.90024 5.31728 2.65618-.37589 5.4805-.47155 7.46946-1.95948 2.07729-1.5351.89861-2.21468-.63634-3.40733-2.14866-1.66761-5.22689-2.77696-7.49663-4.53684-3.05791-3.40435-.16457-6.45565.26327-7.33727 2.71018-3.29883 5.17385-6.18959 7.50892-10.12374 1.70256.34226 1.98791 1.17496 1.91247 5.9723-.95817.7956-2.82936 3.27771-5.05683 5.75816-.6373 1.09405-1.19622 1.91766.73484 3.36332 3.00574 2.05615 6.4655 3.88174 9.96471 5.66453 3.9619.26762 7.96065-2.25981 11.92255-3.81969-1.10156-4.23545-6.81594-1.08759-9.17492.10426.19201-3.09901.68111-5.5758 5.1609-7.19397 2.91289-.88738 8.61249.29959 11.02107 3.75886 1.3448-.6902 2.57639-1.33205 3.33007-1.01034.18298.0781 1.70801 1.49953 1.29894 3.71209-6.70547 3.40916-14.2264 6.7294-20.08116 8.86567-2.3871.78285-3.92697 1.40584-3.54485 1.77243-3.96721 2.71885-8.88075 3.78163-13.34534 5.63007 2.0645 12.70111-11.06021 17.92977-14.65231 9.38868z" style="fill:#fff;fill-opacity:1;stroke:none" transform="matrix(.50976 0 0 .50976 242.92791085 125.44313961)"/>
    <path d="M424.91357 570.96199c-.55189-2.43546 2.74305-4.48566 4.3268-1.17293.83869 2.72626-3.49517 2.83188-4.3268 1.17293zM240.88001 604.85043l-3.59699-3.4406 3.28421-3.44059 3.64911 3.54485zM248.54724 605.88255l-3.59699-3.4406 3.28421-3.44059 3.64911 3.54485zM244.71362 610.01106l-3.59699-3.4406 3.28421-3.44059 3.64911 3.54485zM220.67983 575.65601l-3.59699-3.4406 3.28421-3.44059 3.64911 3.54485zM192.66498 565.33475l-3.59699-3.4406 3.28421-3.44059 3.64911 3.54485zM214.92941 573.29687l-3.59699-3.4406 3.28421-3.44059 3.64911 3.54485zM174.6765 558.25731l-3.59699-3.4406 3.28421-3.44059 3.64911 3.54485zM335.30169 581.98753l-3.59699-3.4406 3.28421-3.44059 3.64911 3.54485zM298.18496 611.5975l-3.59699-3.4406 3.28421-3.44059 3.64911 3.54485zM311.73882 612.22306l-3.59699-3.4406 3.28421-3.44059 3.64911 3.54485zM318.82854 611.80603l-3.59699-3.4406 3.28421-3.44059 3.64911 3.54485zM378.30695 588.7322l-4.6653-1.73525 1.65356-4.45976 4.75444 1.81034z" style="fill:#fff;fill-opacity:1;stroke:none" transform="matrix(.50976 0 0 .50976 242.92791085 125.44313961)"/>
    <path d="m383.73524 586.01792-4.72949-1.55176 1.47817-4.52092 4.82149 1.62332z" style="fill:#fff;fill-opacity:1;stroke:none" transform="matrix(.50976 0 0 .50976 242.92791085 125.44313961)"/>
  </g>
</svg>
