<!-- Generator: visioncortex VTracer 0.6.4 -->
<!-- Further edited by Brett Tolbert <bretttolbert.com> -->
<svg version="1.1" xmlns="http://www.w3.org/2000/svg" width="2880" height="1920">
    <g id="gun">
        <path
            d="M0 0 C950.4 0 1900.8 0 2880 0 C2880 633.6 2880 1267.2 2880 1920 C1929.6 1920 979.2 1920 0 1920 C0 1286.4 0 652.8 0 0 Z "
            fill="#161616" transform="translate(0,0)" />
        <path
            d="M0 0 C3.46 1.98 3.46 1.98 7 4 C7 4.66 7 5.32 7 6 C7.63 5.84 8.27 5.67 8.92 5.5 C13.07 4.83 17.1 4.89 21.3 4.93 C22.69 4.94 22.69 4.94 24.12 4.95 C26.13 4.96 28.14 4.97 30.15 4.99 C33.34 5.01 36.53 5.02 39.71 5.03 C48.77 5.07 57.83 5.11 66.88 5.17 C72.42 5.21 77.97 5.23 83.51 5.25 C85.62 5.25 87.73 5.27 89.85 5.29 C92.8 5.31 95.75 5.32 98.7 5.32 C100.01 5.34 100.01 5.34 101.34 5.36 C106.18 5.35 108.94 4.87 113 2 C115.62 2.12 115.62 2.12 118 3 C118.39 3.5 118.78 4.01 119.19 4.53 C121.97 6.79 124.94 6.44 128.37 6.44 C129.09 6.45 129.81 6.47 130.55 6.48 C132.85 6.52 135.14 6.54 137.44 6.56 C139.73 6.59 142.02 6.61 144.32 6.65 C145.74 6.68 147.17 6.69 148.59 6.7 C152.2 6.75 154.99 6.91 158 9 C159.15 11.3 159.12 12.58 159.1 15.13 C159.09 16.34 159.09 16.34 159.09 17.57 C159.08 18.42 159.07 19.26 159.06 20.12 C159.06 20.97 159.05 21.82 159.05 22.7 C159.04 24.8 159.02 26.9 159 29 C163.29 29 167.58 29 172 29 C172 27.02 172 25.04 172 23 C173.08 21.14 173.08 21.14 175 20 C178.14 19.71 178.14 19.71 181.69 19.81 C183.46 19.85 183.46 19.85 185.26 19.89 C186.17 19.93 187.07 19.96 188 20 C188 19.34 188 18.68 188 18 C194.52 16.97 200.7 17.01 207.28 17.3 C209.56 17.39 211.83 17.48 214.11 17.57 C215.91 17.65 215.91 17.65 217.74 17.72 C224.26 17.99 230.78 18.23 237.3 18.47 C237.97 18.49 238.64 18.52 239.33 18.54 C251.07 18.97 262.8 19.19 274.54 19.33 C302.89 19.7 331.22 20.64 359.55 21.61 C364.64 21.79 369.72 21.96 374.81 22.12 C380.87 22.32 386.93 22.53 392.99 22.75 C395.26 22.83 397.53 22.9 399.8 22.97 C402.94 23.07 406.08 23.19 409.22 23.31 C410.15 23.33 411.07 23.36 412.02 23.38 C416.87 23.59 419.97 24.04 424 27 C426.3 27.61 428.57 27.99 430.91 28.38 C433.42 29.13 434.46 29.89 436 32 C436 33.32 436 34.64 436 36 C447.55 36 459.1 36 471 36 C471 37.32 471 38.64 471 40 C521.82 40 572.64 40 625 40 C625.66 41.65 626.32 43.3 627 45 C627.66 45 628.32 45 629 45 C629.77 46.6 629.77 46.6 630.55 48.23 C635.78 58.8 641.77 67.55 650 76 C650.51 76.52 651.02 77.05 651.55 77.59 C663.2 89.33 677.61 96.48 694.25 97.56 C695.51 97.65 696.78 97.73 698.08 97.82 C699.04 97.88 700.01 97.94 701 98 C701 99.98 701 101.96 701 104 C748.19 104 795.38 104 844 104 C844 101.69 844 99.38 844 97 C845.03 94.47 846.07 92.25 847.38 89.88 C848.11 88.48 848.84 87.08 849.57 85.68 C849.96 84.94 850.35 84.19 850.76 83.42 C853.48 78.11 855.97 72.68 858.5 67.27 C860.25 63.56 862.01 59.91 864.11 56.38 C865.53 53.84 866.54 51.7 867.49 49 C868.67 45.69 870.24 42.84 872.06 39.82 C877.19 31.04 877.87 23.07 877.79 12.99 C877.78 11.5 877.78 11.5 877.77 9.98 C877.74 9.09 877.72 8.2 877.69 7.29 C878 5 878 5 879.33 3.25 C884.18 -0.38 890.98 0.78 896.77 0.76 C898.86 0.75 900.95 0.72 903.04 0.69 C904.38 0.68 905.72 0.68 907.05 0.67 C908.87 0.66 908.87 0.66 910.73 0.64 C914.49 1.05 916.12 1.53 919 4 C919.49 6.97 919.63 9.36 919.57 12.33 C919.57 13.18 919.57 14.02 919.57 14.9 C919.57 17.71 919.53 20.52 919.49 23.32 C919.48 25.27 919.47 27.22 919.47 29.16 C919.45 34.29 919.4 39.41 919.34 44.54 C919.29 49.76 919.27 54.99 919.24 60.22 C919.19 70.48 919.11 80.74 919 91 C921.31 91 923.62 91 926 91 C926 93.31 926 95.62 926 98 C928.97 98 931.94 98 935 98 C935 99.98 935 101.96 935 104 C936.32 104 937.64 104 939 104 C939 102.35 939 100.7 939 99 C942.92 98.83 946.83 98.72 950.75 98.62 C951.86 98.57 952.97 98.52 954.12 98.47 C962.14 98.33 962.14 98.33 964.66 100.29 C966.16 102.47 967 104.34 967 107 C967.66 107 968.32 107 969 107 C969.53 108.02 969.53 108.02 970.06 109.06 C976.21 118.39 987.28 122.53 997.39 126.07 C999.95 126.98 1002.48 127.97 1005 129 C1005 131.97 1005 134.94 1005 138 C983.55 138 962.1 138 940 138 C940 136.68 940 135.36 940 134 C938.35 134 936.7 134 935 134 C935 135.65 935 137.3 935 139 C929.39 139 923.78 139 918 139 C918 142.63 918 146.26 918 150 C915.03 150 912.06 150 909 150 C908.86 151.3 908.71 152.6 908.56 153.94 C908.12 157.87 908.12 157.87 907 159 C904.14 159.07 901.3 159.09 898.44 159.06 C897.63 159.06 896.82 159.05 895.99 159.05 C894 159.04 892 159.02 890 159 C890 157.68 890 156.36 890 155 C805.85 155 721.7 155 635 155 C635 156.65 635 158.3 635 160 C629.72 160 624.44 160 619 160 C619 158.35 619 156.7 619 155 C560.26 155 501.52 155 441 155 C441 158.63 441 162.26 441 166 C438.95 166.23 436.9 166.46 434.85 166.68 C432.99 166.82 432.99 166.82 432 168 C430.31 168.07 428.62 168.08 426.94 168.06 C426.02 168.05 425.1 168.04 424.15 168.04 C423.09 168.02 423.09 168.02 422 168 C422 168.66 422 169.32 422 170 C412.39 173.2 400.8 172.27 390.74 172.65 C389.26 172.71 387.77 172.76 386.29 172.82 C382.27 172.98 378.26 173.13 374.25 173.28 C371.7 173.38 369.16 173.47 366.62 173.57 C357.64 173.91 348.67 174.25 339.69 174.58 C332.4 174.86 325.11 175.13 317.83 175.42 C307.19 175.83 296.55 176.23 285.91 176.62 C285.04 176.66 284.17 176.69 283.27 176.72 C264.35 177.42 245.43 178.06 226.5 178.34 C225.77 178.35 225.04 178.36 224.29 178.37 C216.89 178.48 209.48 178.57 202.08 178.62 C174.02 178.86 174.02 178.86 146.62 184.31 C144.98 184.78 144.98 184.78 143.3 185.25 C138.02 186.76 132.78 188.38 127.56 190.12 C115.41 194.17 92.76 200.73 80.63 194.85 C79 193 79 193 78.75 189.81 C78.83 188.88 78.91 187.96 79 187 C78.42 187.01 77.83 187.02 77.23 187.03 C74.57 187.07 71.91 187.1 69.25 187.12 C68.33 187.14 67.41 187.16 66.46 187.18 C65.57 187.18 64.68 187.19 63.77 187.2 C62.95 187.21 62.13 187.22 61.29 187.23 C58.78 186.98 57.17 186.26 55 185 C55 183.68 55 182.36 55 181 C53.86 181.16 52.72 181.31 51.54 181.47 C47.14 182.02 42.76 182.28 38.33 182.48 C37.5 182.52 36.68 182.56 35.82 182.6 C33.11 182.73 30.39 182.85 27.67 182.97 C25.76 183.06 23.84 183.15 21.93 183.24 C17.92 183.42 13.91 183.6 9.9 183.78 C4.81 184.01 -0.27 184.25 -5.35 184.49 C-9.31 184.67 -13.26 184.85 -17.22 185.03 C-19.09 185.12 -20.96 185.2 -22.83 185.29 C-35.56 185.89 -48.25 186.1 -61 186 C-60.78 187.07 -60.78 187.07 -60.55 188.15 C-59.92 191.1 -59.31 194.05 -58.69 197 C-58.46 198.1 -58.23 199.2 -57.99 200.33 C-56.73 206.35 -55.56 212.38 -54.5 218.44 C-53.21 225.48 -51.28 232.2 -49.19 239.03 C-48.16 242.41 -47.3 245.81 -46.5 249.25 C-45.19 254.68 -43.25 259.74 -41.18 264.92 C-40.17 267.56 -39.32 270.16 -38.56 272.88 C-35.59 283.16 -31.2 292.93 -26.3 302.43 C-25.26 304.49 -24.31 306.54 -23.44 308.69 C-21.88 312.27 -20 315.54 -17.99 318.89 C-17 321 -17 321 -17 325 C-16.34 325 -15.68 325 -15 325 C-14.41 326.1 -13.81 327.2 -13.2 328.34 C-8.79 336.43 -4.26 344.39 0.75 352.12 C1.18 352.8 1.62 353.47 2.07 354.16 C5.19 358.92 8.55 363.47 12 368 C12.76 369.02 13.52 370.04 14.31 371.09 C20.57 379.47 26.89 387.75 33.62 395.75 C34.08 396.29 34.54 396.84 35.01 397.4 C37.86 400.76 40.86 403.89 44 407 C45.33 408.67 46.67 410.33 48 412 C49.66 413.68 51.33 415.34 53 417 C54 418.01 55.01 419.03 56.01 420.04 C57.05 421.09 58.09 422.14 59.12 423.19 C59.91 423.99 59.91 423.99 60.71 424.8 C63.05 427.15 65.23 429.16 68 431 C68 431.66 68 432.32 68 433 C68.66 433 69.32 433 70 433 C72.63 435.38 72.63 435.38 75 438 C75 438.66 75 439.32 75 440 C75.57 440.25 76.14 440.5 76.73 440.76 C79.32 442.18 81.12 443.84 83.25 445.88 C89.47 451.59 96.21 456.54 103.01 461.53 C105.77 463.57 108.5 465.63 111.23 467.7 C112.79 468.84 114.39 469.93 116 471 C116 471.66 116 472.32 116 473 C116.53 473.25 117.07 473.49 117.62 473.75 C120.58 475.31 123.29 477.13 126.06 479 C127.11 479.7 128.15 480.4 129.22 481.12 C130.14 481.74 131.06 482.36 132 483 C132.99 483.66 133.98 484.32 135 485 C132.21 492.86 127.52 499.86 123.03 506.83 C120.16 511.31 117.36 515.82 114.55 520.34 C112.1 524.28 109.57 528.14 107 532 C105.64 534.18 104.28 536.37 102.94 538.56 C102.27 539.66 101.59 540.75 100.9 541.88 C99.69 543.87 98.51 545.87 97.38 547.9 C96.7 548.94 96.7 548.94 96 550 C95.34 550 94.68 550 94 550 C93.94 550.99 93.94 550.99 93.88 552 C92.8 555.67 90.95 557.86 88.61 560.83 C86.51 563.65 84.92 566.65 83.27 569.74 C81.6 572.72 79.68 575.5 77.75 578.32 C76.33 580.49 75 582.67 73.69 584.9 C73.28 585.59 72.88 586.27 72.47 586.98 C71.66 588.36 70.86 589.74 70.07 591.12 C69.1 592.78 68.06 594.4 67 596 C66.34 596 65.68 596 65 596 C64.71 596.76 64.42 597.53 64.12 598.31 C63 601 63 601 61 604 C55.28 602.44 50.63 599.59 45.62 596.5 C44.79 596 43.96 595.5 43.11 594.99 C42.32 594.51 41.54 594.03 40.73 593.53 C39.65 592.87 39.65 592.87 38.56 592.21 C38.04 591.81 37.53 591.41 37 591 C37 590.34 37 589.68 37 589 C36.29 588.74 35.58 588.49 34.85 588.23 C22.16 582.77 10.56 572.41 0.09 563.56 C-2.97 561 -6.13 558.59 -9.31 556.19 C-26.97 542.81 -26.97 542.81 -34 535 C-34 534.34 -34 533.68 -34 533 C-34.74 532.77 -35.48 532.55 -36.25 532.31 C-39.56 530.73 -40.79 528.89 -43 526 C-44.65 524.65 -46.32 523.31 -48 522 C-50.6 519.52 -52.95 517.06 -55.19 514.25 C-56.8 511.93 -56.8 511.93 -59 511 C-59 510.34 -59 509.68 -59 509 C-59.57 508.76 -60.15 508.53 -60.74 508.28 C-63.49 506.72 -65.11 504.89 -67.19 502.5 C-67.98 501.6 -68.77 500.7 -69.58 499.77 C-70.38 498.85 -71.18 497.94 -72 497 C-73.46 495.42 -74.92 493.83 -76.38 492.25 C-84.32 483.41 -91.48 473.9 -98.34 464.21 C-99.9 462 -99.9 462 -101.72 460.39 C-103 459 -103 459 -103 456 C-103.99 455.67 -104.98 455.34 -106 455 C-107.8 452.66 -107.8 452.66 -109.75 449.62 C-110.45 448.55 -111.14 447.47 -111.86 446.36 C-112.92 444.7 -112.92 444.7 -114 443 C-114.69 441.95 -115.37 440.91 -116.08 439.83 C-121 432.27 -121 432.27 -121 430 C-121.66 430 -122.32 430 -123 430 C-124.1 428.5 -124.1 428.5 -125.28 426.42 C-125.71 425.67 -126.14 424.92 -126.58 424.15 C-127.03 423.36 -127.48 422.57 -127.94 421.75 C-128.82 420.2 -129.7 418.65 -130.59 417.11 C-130.98 416.42 -131.37 415.73 -131.77 415.01 C-132.98 412.95 -132.98 412.95 -134.54 410.96 C-136.74 408.01 -138.22 404.69 -139.81 401.38 C-142.14 396.62 -144.51 392 -147.31 387.5 C-149.42 384.11 -150.88 380.89 -152.16 377.12 C-153.2 374.48 -154.55 372.1 -155.94 369.62 C-158.35 365.3 -160.32 361 -162.08 356.38 C-162.94 354.16 -163.88 352.03 -164.88 349.88 C-172.22 333.5 -178.24 315.98 -182.97 298.68 C-183.76 295.85 -184.6 293.04 -185.47 290.22 C-188.15 281.55 -190.58 273.01 -192.21 264.06 C-192.81 260.85 -193.53 257.68 -194.29 254.5 C-194.63 253.04 -194.63 253.04 -194.99 251.56 C-195.44 249.65 -195.9 247.75 -196.38 245.85 C-197.74 240.08 -198.22 234.93 -198 229 C-203.28 229 -208.56 229 -214 229 C-214 224.71 -214 220.42 -214 216 C-216.31 216.33 -218.62 216.66 -221 217 C-221.01 218.23 -221.03 219.45 -221.04 220.72 C-221.1 225.26 -221.18 229.81 -221.26 234.35 C-221.3 236.32 -221.32 238.29 -221.35 240.26 C-221.38 243.08 -221.43 245.91 -221.49 248.74 C-221.49 249.62 -221.5 250.5 -221.51 251.41 C-221.53 252.23 -221.55 253.05 -221.57 253.9 C-221.58 254.62 -221.59 255.34 -221.6 256.08 C-222.12 258.56 -223.03 259.45 -225 261 C-227.69 261.69 -227.69 261.69 -230 262 C-230.09 263.73 -230.09 263.73 -230.19 265.5 C-230.78 271.01 -232.46 276.09 -234.18 281.33 C-235.35 284.86 -236.37 288.32 -237 292 C-238.65 291.67 -240.3 291.34 -242 291 C-243.27 287.19 -242.63 284.07 -242.06 280.19 C-241.16 273.89 -240.43 268.27 -242 262 C-247.94 262 -253.88 262 -260 262 C-260.66 263.98 -261.32 265.96 -262 268 C-267.76 276.34 -275.48 280.96 -285 284 C-288.42 284.57 -291.77 284.68 -295.23 284.73 C-296.21 284.75 -297.19 284.78 -298.2 284.81 C-301.47 284.9 -304.73 284.95 -308 285 C-309.17 285.02 -310.34 285.05 -311.55 285.07 C-319.15 285.23 -326.74 285.31 -334.34 285.35 C-336.97 285.37 -339.6 285.39 -342.23 285.43 C-346.09 285.49 -349.96 285.51 -353.83 285.52 C-354.99 285.55 -356.15 285.57 -357.35 285.59 C-366.39 285.57 -373.83 283.52 -380.83 277.61 C-381.55 276.75 -382.26 275.89 -383 275 C-383.45 274.47 -383.9 273.94 -384.37 273.39 C-386.33 271.07 -388.25 268.73 -390.16 266.38 C-391.4 264.88 -392.69 263.44 -394 262 C-397.41 262 -399.34 264.55 -401.78 266.75 C-411.21 276.3 -417.18 288.29 -421.79 300.74 C-424.72 308.62 -428.11 316.31 -431.62 323.96 C-435.86 333.3 -439.9 342.72 -443.82 352.2 C-445.01 355.03 -446.28 357.83 -447.56 360.62 C-449.88 365.69 -451.97 370.81 -454 376 C-454.98 378.48 -455.96 380.96 -456.94 383.44 C-457.4 384.61 -457.86 385.79 -458.34 387 C-459.21 389.21 -460.15 391.3 -461.25 393.41 C-465.15 401.09 -466 408.15 -466.56 416.69 C-467.74 433.86 -467.74 433.86 -473.65 440.99 C-487.21 451.39 -508.6 449.07 -524.59 447.12 C-525.49 447 -526.39 446.87 -527.31 446.75 C-528.15 446.64 -528.99 446.53 -529.86 446.42 C-541.03 444.71 -553.5 439.03 -560.5 429.94 C-565.99 421.75 -567.9 414.8 -567 405 C-565.94 400.57 -564.51 396.3 -563 392 C-562.54 390.54 -562.08 389.08 -561.62 387.62 C-560.08 383.03 -558.23 378.57 -556.41 374.08 C-552.76 365.03 -549.51 355.81 -546.56 346.5 C-545.15 342.15 -543.34 337.97 -541.56 333.75 C-538.96 327.55 -536.77 321.35 -534.89 314.89 C-534.09 312.29 -533.14 309.87 -532.06 307.38 C-529.09 300.24 -527.43 292.64 -525.57 285.16 C-525.07 283.28 -524.48 281.42 -523.88 279.57 C-522.72 274.86 -522.63 270.4 -522.62 265.56 C-522.6 264.66 -522.58 263.76 -522.55 262.83 C-522.52 256.52 -523.78 252.37 -527 247 C-531.34 238.18 -532.24 231.39 -531.16 221.57 C-530.79 219.01 -530.79 219.01 -532 217 C-532.07 214.96 -532.08 212.92 -532.06 210.88 C-532.05 209.78 -532.04 208.68 -532.04 207.55 C-532.02 206.29 -532.02 206.29 -532 205 C-547.07 205.63 -559.97 208.79 -574.1 213.96 C-578.5 215.54 -582.94 216.98 -587.38 218.44 C-595.21 221.04 -603.01 223.73 -610.81 226.44 C-624.91 231.34 -639.07 236.07 -653.25 240.73 C-654.07 241 -654.89 241.26 -655.73 241.54 C-657.22 242.03 -658.71 242.52 -660.21 243.01 C-663.41 244.07 -666.47 245.21 -669.58 246.55 C-672.93 247.97 -676.17 248.95 -679.69 249.88 C-685.36 251.44 -690.61 253.44 -696 255.78 C-700.2 257.49 -704.5 258.75 -708.85 260.04 C-711.78 260.93 -714.63 261.93 -717.5 263 C-721.55 264.51 -725.61 265.82 -729.75 267.06 C-733.19 268.1 -736.54 269.14 -739.81 270.62 C-742.8 271.91 -745.68 272.65 -748.83 273.42 C-752.32 274.36 -755.64 275.68 -759 277 C-762.95 278.56 -766.82 280.01 -770.96 280.98 C-775.38 282.02 -779.48 283.66 -783.69 285.38 C-789.79 287.8 -795.88 289.98 -802.18 291.84 C-807.55 293.47 -812.87 295.23 -818.19 297 C-819.2 297.33 -820.21 297.66 -821.25 298.01 C-826.86 299.88 -832.37 301.91 -837.84 304.14 C-840.4 305.16 -842.98 305.99 -845.62 306.75 C-852.25 308.74 -858.81 310.89 -865.38 313.06 C-866.41 313.4 -867.44 313.74 -868.51 314.09 C-872.69 315.48 -876.83 316.86 -880.86 318.63 C-883.82 319.92 -886.72 320.9 -889.81 321.81 C-900.64 325.08 -911.42 328.53 -921.94 332.69 C-925.78 334.21 -929.56 335.48 -933.56 336.5 C-938.52 337.77 -943.06 339.65 -947.75 341.68 C-950.81 342.92 -953.84 343.92 -957 344.86 C-964.09 347 -971.07 349.38 -978.06 351.81 C-979.33 352.25 -980.61 352.69 -981.88 353.14 C-984.41 354.01 -986.93 354.89 -989.46 355.77 C-992.63 356.87 -995.8 357.97 -998.98 359.07 C-1006.32 361.61 -1013.6 364.19 -1020.77 367.17 C-1024.27 368.48 -1027.88 369.35 -1031.49 370.29 C-1034.8 371.23 -1037.84 372.64 -1041 374 C-1042.93 374.6 -1044.87 375.18 -1046.81 375.75 C-1054.79 378.14 -1062.48 381.21 -1070.21 384.31 C-1073.74 385.67 -1076.42 386.11 -1080.19 386.06 C-1081.09 386.05 -1081.99 386.04 -1082.92 386.04 C-1083.95 386.02 -1083.95 386.02 -1085 386 C-1085.33 386.99 -1085.66 387.98 -1086 389 C-1090.23 388.83 -1092.41 388.52 -1095.62 385.67 C-1099.13 381.15 -1099.33 375.87 -1099.95 370.34 C-1100.09 369.2 -1100.24 368.06 -1100.38 366.88 C-1100.84 363.24 -1101.26 359.59 -1101.69 355.94 C-1101.98 353.54 -1102.28 351.14 -1102.58 348.75 C-1103.88 338.2 -1105.07 327.66 -1106.02 317.07 C-1106.96 306.62 -1108.44 296.26 -1110 285.88 C-1111.51 275.73 -1112.99 265.6 -1114 255.39 C-1114.95 245.82 -1116.43 236.36 -1118 226.88 C-1118.53 223.69 -1119.05 220.5 -1119.56 217.3 C-1119.69 216.53 -1119.81 215.76 -1119.94 214.96 C-1120.91 208.84 -1121.68 202.7 -1122.34 196.53 C-1122.73 192.93 -1123.26 189.45 -1124.12 185.94 C-1125.07 181.54 -1125.25 177.17 -1125.31 172.69 C-1125.33 172 -1125.35 171.32 -1125.37 170.62 C-1125.36 166.25 -1124.72 163.45 -1122 160 C-1119.44 159.06 -1119.44 159.06 -1117 159 C-1116.34 159.66 -1115.68 160.32 -1115 161 C-1114.17 160.06 -1114.17 160.06 -1113.33 159.09 C-1105.39 151.95 -1087 152.09 -1076.76 150.47 C-1073.47 149.94 -1070.18 149.41 -1066.9 148.87 C-1056.29 147.17 -1045.71 145.66 -1035.01 144.68 C-1027.7 144 -1020.46 142.98 -1013.2 141.88 C-1000.7 140 -988.22 138.43 -975.64 137.24 C-964.3 136.12 -953.03 134.52 -941.75 132.94 C-929.3 131.19 -916.93 129.57 -904.37 128.76 C-894.88 128.1 -885.49 126.82 -876.06 125.56 C-859.16 123.31 -842.27 121.65 -825.28 120.28 C-822.49 120.04 -819.72 119.76 -816.94 119.44 C-796.83 117.19 -778.07 121.39 -760 130 C-745.36 136.34 -728.66 135.36 -713.39 131.78 C-710.17 131.04 -707.03 130.58 -703.75 130.19 C-695.45 129.08 -687.35 127.13 -679.21 125.21 C-672.09 123.56 -665.04 122.43 -657.8 121.53 C-650.24 120.48 -642.8 118.79 -635.34 117.21 C-628.28 115.75 -621.25 114.6 -614.1 113.78 C-609.25 113.2 -604.47 112.41 -599.68 111.49 C-598.99 111.36 -598.3 111.23 -597.59 111.09 C-594.79 110.56 -591.99 110.01 -589.2 109.45 C-580.07 107.64 -571.36 106.58 -562 107 C-562 106.01 -562 105.02 -562 104 C-559.03 104 -556.06 104 -553 104 C-552.34 102.68 -551.68 101.36 -551 100 C-549.67 99.33 -548.33 98.67 -547 98 C-546.32 96.67 -545.66 95.34 -545 94 C-543.82 92.39 -542.61 90.81 -541.38 89.25 C-540.74 88.45 -540.11 87.65 -539.46 86.83 C-538.98 86.22 -538.5 85.62 -538 85 C-540.31 85 -542.62 85 -545 85 C-542.74 78.9 -539.87 73.4 -535 69 C-531.9 68.45 -531.9 68.45 -528.56 68.5 C-523.65 68.56 -523.65 68.56 -519.62 66.02 C-517.75 63.63 -515.98 61.2 -514.25 58.71 C-511.87 55.46 -509.15 52.53 -506.44 49.56 C-505.66 48.68 -505.66 48.68 -504.87 47.77 C-504.35 47.21 -503.84 46.65 -503.31 46.07 C-502.86 45.57 -502.42 45.08 -501.96 44.56 C-496.1 39.89 -490.56 38.41 -483.18 38.51 C-481.89 38.5 -481.89 38.5 -480.58 38.49 C-477.71 38.48 -474.85 38.5 -471.98 38.52 C-469.9 38.52 -467.82 38.51 -465.75 38.51 C-460.04 38.5 -454.34 38.52 -448.63 38.54 C-442.48 38.55 -436.32 38.55 -430.17 38.54 C-419.51 38.54 -408.85 38.55 -398.19 38.58 C-387.01 38.6 -375.83 38.62 -364.65 38.62 C-363.6 38.62 -363.6 38.62 -362.54 38.62 C-359.01 38.62 -355.48 38.62 -351.94 38.63 C-326.94 38.63 -301.93 38.66 -276.92 38.7 C-252.63 38.73 -228.33 38.76 -204.04 38.78 C-202.91 38.78 -202.91 38.78 -201.77 38.78 C-194.25 38.79 -186.73 38.79 -179.2 38.8 C-163.88 38.81 -148.56 38.82 -133.24 38.83 C-132.53 38.83 -131.83 38.83 -131.1 38.83 C-84.07 38.87 -37.03 38.93 10 39 C10 33.39 10 27.78 10 22 C11.65 21.67 13.3 21.34 15 21 C15.33 20.01 15.66 19.02 16 18 C14.35 17.67 12.7 17.34 11 17 C11 15.02 11 13.04 11 11 C7.37 11 3.74 11 0 11 C0 7.37 0 3.74 0 0 Z "
            fill="#FEFEFE" transform="translate(1500,774)" />
        <path
            d="M0 0 C0.27 8.19 0.51 16.38 0.7 24.57 C0.79 28.37 0.9 32.17 1.03 35.98 C1.15 39.65 1.24 43.33 1.32 47.01 C1.35 48.4 1.39 49.8 1.45 51.2 C1.8 60.18 1.23 66.24 -5 73 C-12.79 80.92 -21.11 83.02 -32.04 83.27 C-32.72 83.29 -33.39 83.3 -34.09 83.32 C-36.32 83.37 -38.54 83.41 -40.77 83.46 C-41.53 83.47 -42.3 83.49 -43.08 83.5 C-47.14 83.58 -51.19 83.65 -55.24 83.72 C-59.4 83.79 -63.56 83.89 -67.72 83.99 C-70.94 84.06 -74.16 84.12 -77.38 84.17 C-78.91 84.19 -80.44 84.23 -81.98 84.27 C-92.12 84.53 -100.21 83.85 -108.83 78.12 C-111.41 75.6 -113.58 72.95 -115.75 70.06 C-116.53 69.04 -117.31 68.02 -118.11 66.97 C-119.94 64.1 -120.84 62.38 -121 59 C-120.19 57.01 -120.19 57.01 -119 55.12 C-116.79 51.07 -116.69 48.53 -118 44 C-119.47 41.74 -119.47 41.74 -121 40 C-121 39.34 -121 38.68 -121 38 C-120.01 37.34 -119.02 36.68 -118 36 C-116.61 31.59 -116.67 26.78 -116.44 22.19 C-116.37 21.01 -116.37 21.01 -116.31 19.8 C-116.2 17.87 -116.1 15.93 -116 14 C-113.79 15.05 -111.58 16.12 -109.38 17.19 C-108.76 17.48 -108.14 17.77 -107.5 18.07 C-101.03 21.24 -96.03 24.52 -93.44 31.56 C-93.03 32.61 -92.63 33.66 -92.21 34.73 C-91.81 35.81 -91.41 36.89 -91 38 C-90.2 40.11 -89.39 42.21 -88.56 44.31 C-88.04 45.7 -88.04 45.7 -87.5 47.11 C-83.85 54.13 -78.65 58.33 -71.94 62.31 C-70.9 62.96 -70.9 62.96 -69.83 63.61 C-64.54 66.84 -59.96 69.12 -53.69 69.62 C-52.8 69.7 -51.92 69.77 -51.01 69.85 C-50.02 69.93 -50.02 69.93 -49 70 C-49.33 69.01 -49.66 68.02 -50 67 C-52.49 66 -52.49 66 -55.5 65.25 C-65.32 62.18 -71.74 55.97 -78 48 C-78.62 47.22 -79.24 46.43 -79.88 45.62 C-83.02 38.29 -82.93 28.31 -80.21 20.84 C-79.25 18.81 -78.15 16.93 -77 15 C-76.74 14.35 -76.49 13.69 -76.22 13.02 C-75.05 10.58 -74.29 9.52 -72 8 C-68.37 7.16 -64.68 6.88 -60.97 6.71 C-58.48 6.6 -58.48 6.6 -55 6 C-53.73 4.03 -53.73 4.03 -53 2 C-47.38 1.71 -41.76 1.43 -36.14 1.15 C-34.24 1.05 -32.33 0.95 -30.42 0.85 C-27.66 0.71 -24.9 0.57 -22.14 0.44 C-21.31 0.39 -20.47 0.35 -19.61 0.3 C-13.07 -0.01 -6.55 -0.04 0 0 Z "
            fill="#161616" transform="translate(1233,968)" />
        <path
            d="M0 0 C1.29 -0.01 2.58 -0.02 3.91 -0.03 C5.32 -0.03 6.74 -0.03 8.15 -0.03 C9.59 -0.03 11.04 -0.03 12.48 -0.04 C15.51 -0.05 18.54 -0.05 21.57 -0.04 C25.46 -0.04 29.34 -0.05 33.22 -0.08 C36.21 -0.09 39.2 -0.09 42.18 -0.09 C43.61 -0.09 45.04 -0.09 46.48 -0.1 C48.48 -0.12 50.48 -0.11 52.48 -0.1 C54.19 -0.1 54.19 -0.1 55.93 -0.1 C58.74 0.27 58.74 0.27 60.63 1.36 C61.74 3.27 61.74 3.27 61.74 10.27 C76.92 10.27 92.1 10.27 107.74 10.27 C107.74 7.96 107.74 5.65 107.74 3.27 C108.85 1.36 108.85 1.36 110.74 0.27 C113.55 -0.1 113.55 -0.1 117 -0.1 C118.29 -0.1 119.58 -0.11 120.91 -0.12 C122.32 -0.11 123.74 -0.1 125.15 -0.09 C126.59 -0.09 128.04 -0.09 129.48 -0.09 C132.51 -0.09 135.54 -0.08 138.57 -0.06 C142.46 -0.04 146.34 -0.04 150.22 -0.05 C153.21 -0.05 156.2 -0.04 159.18 -0.03 C160.61 -0.03 162.04 -0.03 163.48 -0.03 C165.48 -0.03 167.48 -0.01 169.48 0 C170.62 0 171.76 0.01 172.93 0.01 C175.74 0.27 175.74 0.27 178.74 2.27 C178.74 4.91 178.74 7.55 178.74 10.27 C185.67 10.27 192.6 10.27 199.74 10.27 C199.74 12.25 199.74 14.23 199.74 16.27 C193.14 16.27 186.54 16.27 179.74 16.27 C179.74 17.92 179.74 19.57 179.74 21.27 C177.65 24.24 176.44 25.15 172.86 25.78 C171.18 25.79 171.18 25.79 169.47 25.79 C168.21 25.8 166.94 25.82 165.63 25.83 C164.25 25.82 162.87 25.82 161.49 25.81 C160.07 25.81 158.65 25.81 157.23 25.82 C154.26 25.82 151.29 25.81 148.31 25.8 C144.51 25.77 140.7 25.79 136.9 25.81 C133.96 25.82 131.03 25.82 128.1 25.81 C126.7 25.81 125.3 25.81 123.89 25.82 C121.93 25.83 119.97 25.81 118.01 25.79 C116.89 25.79 115.77 25.79 114.62 25.78 C111.04 25.15 109.83 24.24 107.74 21.27 C107.74 19.62 107.74 17.97 107.74 16.27 C92.56 16.27 77.38 16.27 61.74 16.27 C61.41 18.58 61.08 20.89 60.74 23.27 C57.22 25.62 55.75 25.54 51.59 25.57 C49.69 25.58 49.69 25.58 47.75 25.6 C46.36 25.61 44.97 25.61 43.59 25.61 C42.17 25.62 40.75 25.62 39.32 25.63 C36.35 25.64 33.37 25.65 30.39 25.65 C26.58 25.65 22.76 25.67 18.95 25.71 C16.01 25.73 13.08 25.73 10.14 25.73 C8.74 25.73 7.33 25.74 5.92 25.76 C3.96 25.78 1.99 25.77 0.02 25.76 C-1.1 25.76 -2.22 25.77 -3.37 25.77 C-6.92 25.16 -8.11 24.11 -10.26 21.27 C-10.51 18.52 -10.51 18.52 -10.26 16.27 C-12.24 16.27 -14.22 16.27 -16.26 16.27 C-16.26 14.29 -16.26 12.31 -16.26 10.27 C-13.95 10.27 -11.64 10.27 -9.26 10.27 C-9.32 9 -9.38 7.72 -9.45 6.4 C-9.55 4.22 -9.55 4.22 -9.26 2.27 C-5.72 -0.09 -4.2 0.02 0 0 Z "
            fill="#171717" transform="translate(1714.259765625,844.725341796875)" />
        <path
            d="M0 0 C11.89 -0.02 23.77 -0.04 35.66 -0.05 C41.19 -0.06 46.71 -0.06 52.24 -0.08 C81.84 -0.14 111.41 0.18 141 1 C141 8.26 141 15.52 141 23 C91.17 23 41.34 23 -10 23 C-10 18.38 -10 13.76 -10 9 C-17.92 9 -25.84 9 -34 9 C-34 6.69 -34 4.38 -34 2 C-22.78 2 -11.56 2 0 2 C0 1.34 0 0.68 0 0 Z "
            fill="#161616" transform="translate(1971,855)" />
        <path
            d="M0 0 C47.52 0 95.04 0 144 0 C144 1.65 144 3.3 144 5 C155.22 5 166.44 5 178 5 C178 7.31 178 9.62 178 12 C97.48 12 16.96 12 -66 12 C-66 11.67 -66 11.34 -66 11 C-62.7 11 -59.4 11 -56 11 C-56 9.68 -56 8.36 -56 7 C-37.52 7 -19.04 7 0 7 C0 4.69 0 2.38 0 0 Z "
            fill="#161616" transform="translate(2201,908)" />
        <path
            d="M0 0 C49.83 0 99.66 0 151 0 C151 3.63 151 7.26 151 11 C153.31 11 155.62 11 158 11 C158 11.33 158 11.66 158 12 C99.59 12 41.18 12 -19 12 C-19 10.35 -19 8.7 -19 7 C-12.73 7 -6.46 7 0 7 C0 4.69 0 2.38 0 0 Z "
            fill="#151515" transform="translate(1961,908)" />
        <path
            d="M0 0 C2.13 0.07 4.26 0.06 6.4 0.05 C14 0.14 14 0.14 17.24 0.88 C21 5.38 20.76 9.78 20.74 15.38 C20.77 16.22 20.8 17.06 20.83 17.93 C20.83 19.16 20.83 19.16 20.83 20.41 C20.84 21.15 20.85 21.89 20.86 22.65 C19.87 26.22 18.18 27.66 15.24 29.88 C12.22 30.34 9.78 30.51 6.76 30.44 C5.96 30.43 5.15 30.43 4.32 30.43 C2.62 30.42 0.92 30.4 -0.78 30.37 C-3.38 30.32 -5.98 30.3 -8.59 30.3 C-10.24 30.28 -11.89 30.27 -13.55 30.25 C-14.72 30.24 -14.72 30.24 -15.91 30.23 C-19.7 30.15 -21.53 30.03 -24.76 27.88 C-25.63 21.7 -25.46 14.51 -22.76 8.88 C-16.5 0.72 -9.79 -0.32 0 0 Z "
            fill="#171717" transform="translate(2390.7587890625,832.121826171875)" />
        <path
            d="M0 0 C18.15 0 36.3 0 55 0 C52.49 2.51 50.19 3.24 46.88 4.5 C45.78 4.92 44.68 5.35 43.55 5.78 C35.93 8.39 28.75 9.49 20.75 10.12 C19.23 10.25 19.23 10.25 17.68 10.38 C-1.25 11.88 -1.25 11.88 -5 10 C-5 9.01 -5 8.02 -5 7 C-4.04 6.66 -4.04 6.66 -3.06 6.31 C-2.38 5.88 -1.7 5.45 -1 5 C-0.67 3.35 -0.34 1.7 0 0 Z "
            fill="#141414" transform="translate(1529,785)" />
        <path
            d="M0 0 C1.4 4.42 0.08 7.69 -1.38 11.94 C-3.53 18.38 -3.53 18.38 -5 25 C-6.65 24.67 -8.3 24.34 -10 24 C-11.13 20.61 -10.87 18.97 -10.25 15.5 C-10.09 14.54 -9.93 13.58 -9.77 12.59 C-8.95 9.83 -8.09 8.89 -6 7 C-6 6.34 -6 5.68 -6 5 C-4 3.38 -4 3.38 -2 2 C-1.34 2.33 -0.68 2.66 0 3 C0 2.01 0 1.02 0 0 Z "
            fill="#F3F3F3" transform="translate(1268,1041)" />
        <path
            d="M0 0 C1.26 0 2.52 0 3.82 0 C5.2 0.01 6.58 0.01 7.97 0.02 C9.38 0.02 10.79 0.02 12.2 0.02 C15.91 0.02 19.62 0.03 23.33 0.04 C27.12 0.06 30.91 0.06 34.69 0.06 C42.13 0.08 49.56 0.09 56.99 0.11 C56.99 0.44 56.99 0.77 56.99 1.11 C56.22 1.12 55.45 1.13 54.66 1.14 C47.42 1.22 40.18 1.3 32.95 1.4 C29.22 1.45 25.5 1.5 21.78 1.54 C18.19 1.57 14.6 1.62 11 1.67 C9.63 1.69 8.26 1.71 6.89 1.72 C4.97 1.73 3.06 1.76 1.14 1.79 C0.04 1.81 -1.05 1.82 -2.18 1.84 C-4.96 2.11 -6.64 2.67 -9.01 4.11 C-8.68 3.12 -8.35 2.13 -8.01 1.11 C-5.26 -0.26 -3.07 -0.01 0 0 Z "
            fill="#1F1F1F" transform="translate(1714.01025390625,844.886474609375)" />
        <path
            d="M0 0 C4.56 0.56 4.56 0.56 6 2 C6.12 4.5 6.12 4.5 6 7 C5 8 5 8 2 8.12 C-1 8 -1 8 -2 7 C-2.19 4.56 -2.19 4.56 -2 2 C-1.34 1.34 -0.68 0.68 0 0 Z "
            fill="#212121" transform="translate(2010,819)" />
        <path
            d="M0 0 C1.21 0.03 1.21 0.03 2.44 0.06 C2.44 0.72 2.44 1.38 2.44 2.06 C3.1 2.06 3.76 2.06 4.44 2.06 C3.56 6.94 3.56 6.94 2.44 8.06 C-0.06 8.19 -0.06 8.19 -2.56 8.06 C-3.56 7.06 -3.56 7.06 -3.69 4.06 C-3.52 0.09 -3.52 0.09 0 0 Z "
            fill="#222222" transform="translate(2031.5625,818.9375)" />
        <path
            d="M0 0 C1.21 0.03 1.21 0.03 2.44 0.06 C2.77 2.37 3.1 4.68 3.44 7.06 C-1.31 8.19 -1.31 8.19 -3.56 7.06 C-3.61 5.06 -3.6 3.06 -3.56 1.06 C-2.56 0.06 -2.56 0.06 0 0 Z "
            fill="#1E1E1E" transform="translate(1992.5625,818.9375)" />
        <path
            d="M0 0 C-0.99 0.66 -1.98 1.32 -3 2 C-3.33 2.99 -3.66 3.98 -4 5 C-5.65 4.67 -7.3 4.34 -9 4 C-9.33 3.01 -9.66 2.02 -10 1 C-6.62 -0.04 -3.52 -0.08 0 0 Z "
            fill="#DBDBDB" transform="translate(882,889)" />
        <path
            d="M0 0 C1.32 0.33 2.64 0.66 4 1 C0.83 4.26 -2.4 7.22 -6 10 C-4.83 5.59 -3.88 3.45 0 1 C0 0.67 0 0.34 0 0 Z "
            fill="#EDEDED" transform="translate(2351,861)" />
        <path
            d="M0 0 C0.66 0 1.32 0 2 0 C2.66 1.98 3.32 3.96 4 6 C2.82 6.22 2.82 6.22 1.62 6.44 C-0.96 6.88 -0.96 6.88 -3 8 C-2.45 4.63 -1.95 2.92 0 0 Z "
            fill="#F0F0F0" transform="translate(968,1083)" />
        <path
            d="M0 0 C2.78 0.38 4.59 0.67 6.81 2.44 C8 4 8 4 8 6 C6.35 5.67 4.7 5.34 3 5 C3 4.34 3 3.68 3 3 C2.01 2.67 1.02 2.34 0 2 C0 1.34 0 0.68 0 0 Z "
            fill="#F5F5F5" transform="translate(1521,1160)" />
        <path
            d="M0 0 C0.33 0 0.66 0 1 0 C1.33 1.65 1.66 3.3 2 5 C3.65 5.33 5.3 5.66 7 6 C7 6.33 7 6.66 7 7 C5.35 7 3.7 7 2 7 C2 7.66 2 8.32 2 9 C1.01 9.33 0.02 9.66 -1 10 C-0.67 6.7 -0.34 3.4 0 0 Z "
            fill="#D6D6D6" transform="translate(2027,821)" />
        <path
            d="M0 0 C1.65 0.33 3.3 0.66 5 1 C4.01 1.33 3.02 1.66 2 2 C0.77 5.51 0.77 5.51 0 9 C-0.66 8.34 -1.32 7.68 -2 7 C-1.67 6.01 -1.34 5.02 -1 4 C-0.66 2.67 -0.32 1.34 0 0 Z "
            fill="#E2E2E2" transform="translate(1336,1115)" />
        <path
            d="M0 0 C-0.33 0.99 -0.66 1.98 -1 3 C-3.06 3.69 -3.06 3.69 -5 4 C-5.66 3.01 -6.32 2.02 -7 1 C-3.38 -1.12 -3.38 -1.12 0 0 Z "
            fill="#F8F8F8" transform="translate(425,926)" />
        <path
            d="M0 0 C2.31 0.33 4.62 0.66 7 1 C6.34 2.32 5.68 3.64 5 5 C5 4.34 5 3.68 5 3 C3.35 3 1.7 3 0 3 C0 2.01 0 1.02 0 0 Z "
            fill="#F5F5F5" transform="translate(1581,781)" />
        <path
            d="M0 0 C0.66 0 1.32 0 2 0 C3.35 6.4 3.35 6.4 1.56 9.44 C1.05 9.95 0.53 10.47 0 11 C-0.95 7.29 -0.93 4.71 0 1 C0 0.67 0 0.34 0 0 Z "
            fill="#E7E7E7" transform="translate(1110,1025)" />
        <path
            d="M0 0 C1.65 1.32 3.3 2.64 5 4 C2.12 4.62 2.12 4.62 -1 5 C-1.66 4.34 -2.32 3.68 -3 3 C-2.01 2.01 -1.02 1.02 0 0 Z "
            fill="#F1F1F1" transform="translate(1131,1053)" />
        <path
            d="M0 0 C0.66 0.33 1.32 0.66 2 1 C1.34 2.98 0.68 4.96 0 7 C-0.99 6.67 -1.98 6.34 -3 6 C-3 4.35 -3 2.7 -3 1 C-2.01 0.67 -1.02 0.34 0 0 Z "
            fill="#EBEBEB" transform="translate(1159,973)" />
    </g>


    <g id="star" transform="translate(1189, 150) scale(5)">
        <polygon
            points="50,5 63,38 98,38 70,59 78,95 50,75 22,95 30,59 2,38 37,38"
            fill="#ff0000"
            stroke="#ff0000"
            stroke-width="0"
        />
    </g>

    <g id="text">
        <text x="400" y="1800" font-family="Arial, Helvetica, sans-serif" font-size="200" font-weight="bold" fill="#fff">UNDER NO PRETEXT</text>
    </g>
</svg>