<svg width="1e3" height="600" version="1.1" xmlns="http://www.w3.org/2000/svg"
    xmlns:cc="http://creativecommons.org/ns#" xmlns:dc="http://purl.org/dc/elements/1.1/"
    xmlns:rdf="http://www.w3.org/1999/02/22-rdf-syntax-ns#">
    <rect width="1e3" height="600" fill="#d40000" stroke-width="1.0541" />
    <g transform="matrix(1.2361 0 0 1.2361 -56.25 -70.833)">
        <circle cx="450" cy="300" r="180" fill="#fff" />
        <path
            fill="#000"
            d="m450 120c-99.36 0-180 80.64-180 180s80.64 180 180 180c99.36 0 180-80.64 180-180 0-99.36-80.64-180-180-180zm-8.4949 14.923c0.10128-5e-3 0.20481 5e-3 0.30612 0l0.76531 12.207c-10.382 0.49498-20.487 2.009-30.23 4.477l3.023 11.901c-25.573 6.4776-48.351 19.945-66.199 38.265l-8.7628-8.5714c-7.1269 7.3116-13.499 15.343-19.056 23.954l-10.255-6.773c28.009-43.306 75.717-72.684 130.41-75.459zm16.684 0c54.818 2.6816 102.65 32.073 130.71 75.459l-10.255 6.773c-5.545-8.5894-11.911-16.62-19.018-23.916l-8.7627 8.5332c-17.851-18.33-40.655-31.786-66.237-38.265l3.023-11.901c-9.7428-2.468-19.848-3.9821-30.23-4.477zm-8.1888 53.954c5.2041-0.0119 10.408 0.30612 14.694 0.91838l-6.6964 55.714c14.076 2.0526 26.417 9.4193 34.936 20.013l44.694-33.52c5.4289 6.7631 11.583 17.373 14.809 25.408l-51.352 21.964c2.5811 6.3771 4.0179 13.326 4.0179 20.625 0 7.0318-1.3073 13.751-3.7118 19.936l50.931 21.773c-3.1426 8.083-9.2329 18.674-14.579 25.485l-44.388-33.214c-8.5082 10.835-20.991 18.402-35.242 20.51l6.5816 54.796c-8.5714 1.32-20.816 1.301-29.388 0.0765l6.5816-54.872c-14.262-2.1097-26.734-9.7004-35.242-20.548l-44.273 33.214c-5.4288-6.7631-11.583-17.373-14.809-25.408l51.046-21.849c-2.3963-6.1758-3.7117-12.879-3.7117-19.898 0-7.3116 1.4282-14.277 4.0178-20.663l-51.237-21.888c3.1426-8.083 9.2329-18.674 14.579-25.485l44.809 33.559c8.5195-10.593 20.861-17.96 34.936-20.013l-6.6964-55.638c4.2857-0.65999 9.4898-0.98296 14.694-0.9949zm-147.09 35.663 11.02 5.4337c-4.648 9.011-8.4483 18.525-11.25 28.469l11.786 3.3291c-3.4263 12.159-5.2806 24.977-5.2806 38.227 0 13.263 1.8479 26.096 5.2806 38.265l-11.786 3.3291c2.7997 9.9286 6.6077 19.434 11.25 28.431l-11.02 5.4337c-11.639-22.627-18.214-48.279-18.214-75.459 0-27.18 6.5754-52.832 18.214-75.459zm294.18 0c11.639 22.627 18.214 48.279 18.214 75.459 0 27.18-6.5754 52.832-18.214 75.459l-11.02-5.4337c4.6443-8.9998 8.4494-18.499 11.25-28.431l-11.786-3.3291c3.4327-12.17 5.2806-25.002 5.2806-38.265 0-13.25-1.8543-26.068-5.2806-38.227l11.786-3.3291c-2.8009-9.9418-6.6039-19.461-11.25-28.469zm-275.74 158.3c5.5596 8.6109 11.929 16.642 19.056 23.954l8.7628-8.5714c17.848 18.32 40.626 31.788 66.199 38.265l-3.023 11.9c9.7428 2.468 19.848 3.9821 30.23 4.4771l-0.76531 12.207c-54.818-2.6816-102.65-32.073-130.71-75.459zm257.33 0 10.217 6.773c-28.06 43.387-75.896 72.778-130.71 75.459l-0.7653-12.207c10.382-0.49498 20.487-2.009 30.23-4.4771l-3.023-11.9c25.582-6.4798 48.387-19.935 66.237-38.265l8.7627 8.5332c7.1159-7.3054 13.504-15.315 19.056-23.916z" />
    </g>
</svg>