<?xml version="1.0" encoding="UTF-8" standalone="no"?>
<svg
   xmlns:dc="http://purl.org/dc/elements/1.1/"
   xmlns:cc="http://creativecommons.org/ns#"
   xmlns:rdf="http://www.w3.org/1999/02/22-rdf-syntax-ns#"
   xmlns:svg="http://www.w3.org/2000/svg"
   xmlns="http://www.w3.org/2000/svg"
   xmlns:xlink="http://www.w3.org/1999/xlink"
   xmlns:sodipodi="http://sodipodi.sourceforge.net/DTD/sodipodi-0.dtd"
   xmlns:inkscape="http://www.inkscape.org/namespaces/inkscape"
   width="1350"
   height="900"
   version="1.1"
   id="svg74"
   sodipodi:docname="Proposed_design_for_a_flag_of_Grand_Est.svg"
   inkscape:version="0.92.3 (2405546, 2018-03-11)">
  <metadata
     id="metadata80">
    <rdf:RDF>
      <cc:Work
         rdf:about="">
        <dc:format>image/svg+xml</dc:format>
        <dc:type
           rdf:resource="http://purl.org/dc/dcmitype/StillImage" />
      </cc:Work>
    </rdf:RDF>
  </metadata>
  <defs
     id="defs78" />
  <sodipodi:namedview
     pagecolor="#ffffff"
     bordercolor="#666666"
     borderopacity="1"
     objecttolerance="10"
     gridtolerance="10"
     guidetolerance="10"
     inkscape:pageopacity="0"
     inkscape:pageshadow="2"
     inkscape:window-width="1920"
     inkscape:window-height="1017"
     id="namedview76"
     showgrid="false"
     inkscape:zoom="0.65213478"
     inkscape:cx="657.51243"
     inkscape:cy="316.25732"
     inkscape:window-x="-8"
     inkscape:window-y="-8"
     inkscape:window-maximized="1"
     inkscape:current-layer="svg74" />
  <clipPath
     id="Alsace">
    <rect
       width="1350"
       height="900"
       id="rect2" />
  </clipPath>
  <clipPath
     id="Lorraine">
    <rect
       width="900"
       height="900"
       id="rect5" />
  </clipPath>
  <clipPath
     id="ChampArd">
    <rect
       width="450"
       height="900"
       id="rect8" />
  </clipPath>
  <g
     id="g1730"
     transform="matrix(-1.8778101,0,0,2.0862179,676.01164,449.37694)"
     style="stroke-width:0.50523609">
    <rect
       id="rect1702"
       height="216.00305"
       width="359.46124"
       x="0.53875023"
       y="-0.0030656273"
       style="fill:#002395;stroke:none;stroke-width:0.50523603" />
    <path
       id="path1704"
       d="M 0,0 360,216"
       inkscape:connector-curvature="0"
       style="stroke:#ffd203;stroke-width:79.8272934;stroke-miterlimit:4;stroke-dasharray:none" />
    <path
       id="path1706"
       d="M 0,0 360,216"
       inkscape:connector-curvature="0"
       style="stroke:#002395;stroke-width:33.34558105;stroke-miterlimit:4;stroke-dasharray:none" />
    <path
       id="path1708"
       d="M 0,0 360,216"
       inkscape:connector-curvature="0"
       style="stroke:#ffffff;stroke-width:25.26180267;stroke-miterlimit:4;stroke-dasharray:none" />
    <g
       id="g1713"
       transform="rotate(30.963757)"
       style="stroke-width:0.50523609">
      <path
         d="m -19.5,22.5 h 33 v 6 H 0 v 6 h 33 v -6 H 19.5 v -6 h 33 v 6 H 39 v 6 h 33 v -6 H 58.5 v -6 h 33 v 6 H 78 v 6 h 33 v -6 H 97.5 v -6 h 33 v 6 H 117 v 6 h 33 v -6 h -13.5 v -6 h 33 v 6 H 156 v 6 h 33 v -6 h -13.5 v -6 h 33 v 6 H 195 v 6 h 33 v -6 h -13.5 v -6 h 33 v 6 H 234 v 6 h 33 v -6 h -13.5 v -6 h 33 v 6 H 273 v 6 h 33 v -6 h -13.5 v -6 h 33 v 6 H 312 v 6 h 33 v -6 h -13.5 v -6 h 33 v 6 H 351 v 6 h 33 v -6 h -13.5 v -6 h 33 v 6 H 390 v 6 h 33"
         id="line"
         inkscape:connector-curvature="0"
         style="fill:none;stroke:#002395;stroke-width:3.53665233;stroke-miterlimit:4;stroke-dasharray:none" />
      <use
         id="use1711"
         transform="scale(1,-1)"
         xlink:href="#line"
         x="0"
         y="0"
         width="100%"
         height="100%"
         style="stroke-width:0.50523609" />
    </g>
  </g>
  <g
     clip-path="url(#Alsace)"
     id="g39"
     inkscape:label="g39">
    <rect
       width="1350"
       height="449.37054"
       id="rect11"
       x="-1.0956436e-006"
       y="-1.1592076e-007"
       style="fill:#ed2939;fill-opacity:1;stroke-width:0.99999988" />
    <g
       transform="rotate(63.434949,217.81757,1124.884)"
       id="g37">
      <g
         id="use35"
         transform="matrix(-0.93020621,0.03489689,0.03489689,-0.98255155,-38.317107,-5.44318)"
         style="stroke-width:1.0467">
        <path
           style="fill:#ffffff;stroke-width:1.04669988"
           inkscape:connector-curvature="0"
           d="m 277.70997,-419.30998 c -37.17742,0.0742 -32.05866,53.10109 -12.97304,61.05063 -8.05335,-8.2803 -10.06732,-16.39309 -6.05275,-24.40758 1.3941,-2.24549 2.6327,-3.92335 3.72342,-5.03588 7.15615,-5.07245 14.37025,-5.78909 21.64272,-2.14587 2.12843,1.06711 4.1748,2.56596 6.13413,4.49944 5.57147,6.76992 6.38598,14.09337 2.43569,21.97525 l -0.5464,1.09232 c -1.3918,2.78147 -3.19813,5.14751 -5.42006,7.10043 l 4.68494,-1.38017 c 7.66607,-1.13148 13.57458,-0.65529 17.72698,1.42087 1.93611,1.09498 3.72015,2.31775 5.34859,3.67278 6.37679,7.37797 7.79104,14.61063 4.23906,21.69901 -0.64925,1.29278 -1.89705,2.94455 -3.74759,4.95883 -7.25703,5.27298 -14.45249,6.12335 -21.58085,2.55227 l -0.74662,-0.37238 c -2.87254,-1.44011 -5.76272,-4.12955 -8.67106,-8.07065 -1.96672,-2.18755 -3.5124,-5.30161 -4.75326,-9.31123 -0.42019,3.11486 -1.28281,6.07838 -2.71108,8.92792 l -0.22114,0.44483 c -0.84845,1.69134 -2.03096,3.52057 -3.55276,5.49324 -7.02634,6.67321 -14.66945,7.93799 -22.93578,3.79823 -2.05935,-1.03033 -4.08493,-2.56461 -6.08429,-4.60053 -5.43941,-6.94878 -6.57239,-13.58598 -3.40424,-19.91269 4.06396,-8.11301 11.83954,-11.36481 23.28405,-9.86969 -17.89768,-10.60211 -63.51193,17.01914 -41.25853,47.07893 l -57.95463,-21.33378 61.59997,-122.95366 z"
           id="path1563" />
        <g
           id="g1575"
           style="stroke-width:1.0467">
          <path
             style="fill:#ffffff;stroke-width:1.04669988"
             inkscape:connector-curvature="0"
             d="m 333.14993,-529.96829 c -37.17741,0.0742 -32.05865,53.10111 -12.97304,61.05064 -8.05333,-8.28029 -10.0673,-16.3931 -6.05274,-24.40757 1.39408,-2.24552 2.6327,-3.92336 3.72341,-5.03588 7.15616,-5.07245 14.37024,-5.78908 21.64272,-2.14587 2.12845,1.0671 4.1748,2.56596 6.13412,4.49943 5.5715,6.76993 6.386,14.09336 2.43571,21.97526 l -0.54641,1.09232 c -1.39181,2.78147 -3.19812,5.14752 -5.42007,7.10043 l 4.68498,-1.38017 c 7.66604,-1.13149 13.57457,-0.65528 17.72697,1.42088 1.93609,1.09497 3.72015,2.31775 5.34857,3.67275 6.37679,7.37799 7.79106,14.61066 4.23908,21.69903 -0.64928,1.29278 -1.89708,2.94454 -3.74762,4.95882 -7.25702,5.273 -14.45246,6.12335 -21.58083,2.55227 l -0.74662,-0.37237 c -2.87253,-1.44011 -5.76272,-4.12956 -8.67106,-8.07065 -1.96674,-2.18756 -3.5124,-5.30161 -4.75327,-9.31123 -0.42018,3.11486 -1.2828,6.07837 -2.71106,8.92791 l -0.22116,0.44484 c -0.84844,1.69135 -2.03096,3.52057 -3.55275,5.49322 -7.02634,6.67325 -14.66947,7.93801 -22.93579,3.79825 -2.05935,-1.03034 -4.08494,-2.56462 -6.08427,-4.60053 -5.43943,-6.94879 -6.5724,-13.58599 -3.40424,-19.9127 4.06395,-8.113 11.83951,-11.3648 23.28404,-9.86968 -17.89769,-10.60212 -63.51195,17.01914 -41.25854,47.07892 l -57.9546,-21.33377 61.59994,-122.95367 z"
             id="use1565" />
          <path
             style="fill:#ffffff;stroke-width:1.04669988"
             inkscape:connector-curvature="0"
             d="m 388.5899,-640.62658 c -37.1774,0.0742 -32.05866,53.1011 -12.97305,61.05065 -8.05333,-8.28032 -10.06731,-16.39311 -6.05273,-24.40758 1.39409,-2.24551 2.63269,-3.92337 3.72341,-5.03588 7.15615,-5.07246 14.37025,-5.78911 21.64272,-2.14588 2.12844,1.06709 4.1748,2.56596 6.13413,4.49944 5.57147,6.76992 6.38599,14.09336 2.43569,21.97525 l -0.54639,1.09232 c -1.39181,2.78146 -3.19814,5.1475 -5.42007,7.10043 l 4.68496,-1.38018 c 7.66605,-1.13147 13.57457,-0.65528 17.72696,1.42089 1.93612,1.09496 3.72016,2.31774 5.34859,3.67277 6.3768,7.37796 7.79105,14.61065 4.23907,21.69901 -0.64926,1.29278 -1.89707,2.94454 -3.7476,4.95883 -7.25703,5.27298 -14.45247,6.12334 -21.58085,2.55226 l -0.74661,-0.37236 c -2.87255,-1.44013 -5.76274,-4.12955 -8.67107,-8.07064 -1.96672,-2.18758 -3.5124,-5.30163 -4.75328,-9.31125 -0.42018,3.11485 -1.28277,6.07837 -2.71106,8.92791 l -0.22114,0.44483 c -0.84843,1.69136 -2.03096,3.5206 -3.55276,5.49325 -7.02635,6.67322 -14.66945,7.93798 -22.93579,3.79823 -2.05935,-1.03034 -4.08493,-2.5646 -6.08428,-4.60053 -5.43941,-6.94879 -6.5724,-13.58599 -3.40422,-19.9127 4.06395,-8.11301 11.83951,-11.36479 23.28402,-9.86969 -17.89766,-10.60211 -63.51193,17.01915 -41.25852,47.07893 l -57.95462,-21.33377 61.59997,-122.95366 z"
             id="use1567" />
          <path
             style="fill:#ffffff;stroke-width:1.04669988"
             inkscape:connector-curvature="0"
             d="m 444.02985,-751.28489 c -37.1774,0.0742 -32.05864,53.10111 -12.97302,61.05065 -8.05335,-8.28031 -10.06731,-16.39311 -6.05274,-24.40758 1.39407,-2.24551 2.6327,-3.92336 3.7234,-5.03588 7.15616,-5.07246 14.37024,-5.7891 21.64272,-2.14589 2.12845,1.06711 4.1748,2.56598 6.13413,4.49946 5.57149,6.76992 6.386,14.09335 2.43571,21.97525 l -0.54641,1.09231 c -1.39181,2.78147 -3.19813,5.14752 -5.42008,7.10043 l 4.68497,-1.38017 c 7.66605,-1.13147 13.57458,-0.65528 17.72699,1.42088 1.93608,1.09497 3.72014,2.31775 5.34857,3.67277 6.37679,7.37798 7.79104,14.61066 4.23908,21.69902 -0.64928,1.29277 -1.89709,2.94454 -3.74762,4.95883 -7.25703,5.273 -14.45247,6.12335 -21.58085,2.55226 l -0.74661,-0.37236 c -2.87253,-1.44012 -5.76272,-4.12957 -8.67106,-8.07066 -1.96673,-2.18756 -3.51241,-5.30162 -4.75327,-9.31123 -0.42018,3.11486 -1.2828,6.07837 -2.71105,8.92791 l -0.22117,0.44483 c -0.84844,1.69136 -2.03095,3.5206 -3.55275,5.49325 -7.02634,6.67323 -14.66947,7.93798 -22.93578,3.79823 -2.05935,-1.03033 -4.08495,-2.56462 -6.08428,-4.60052 -5.43941,-6.9488 -6.5724,-13.58601 -3.40424,-19.9127 4.06394,-8.11302 11.83952,-11.36481 23.28405,-9.86969 -17.8977,-10.60212 -63.51194,17.01914 -41.25855,47.07892 l -57.95461,-21.33378 61.59995,-122.95366 z"
             id="use1569" />
          <path
             style="fill:#ffffff;stroke-width:1.04669988"
             inkscape:connector-curvature="0"
             d="m 499.46982,-861.94318 c -37.17738,0.0742 -32.05866,53.1011 -12.97303,61.05064 -8.05334,-8.2803 -10.06732,-16.39312 -6.05274,-24.40757 1.39409,-2.24552 2.63269,-3.92338 3.72342,-5.03588 7.15614,-5.07248 14.37023,-5.78911 21.64271,-2.14588 2.12845,1.06711 4.17479,2.56596 6.13411,4.49943 5.57149,6.76993 6.38601,14.09336 2.43571,21.97525 l -0.5464,1.09234 c -1.39179,2.78147 -3.1981,5.14751 -5.42007,7.10043 l 4.68496,-1.3802 c 7.66605,-1.13147 13.57458,-0.65527 17.72697,1.4209 1.93613,1.09496 3.72016,2.31774 5.34859,3.67276 6.37678,7.37798 7.79106,14.61066 4.23907,21.69901 -0.64926,1.29279 -1.89707,2.94455 -3.7476,4.95884 -7.25703,5.27298 -14.45247,6.12334 -21.58085,2.55226 l -0.74662,-0.37236 c -2.87253,-1.44012 -5.76272,-4.12957 -8.67106,-8.07065 -1.96673,-2.18758 -3.5124,-5.30163 -4.75327,-9.31123 -0.42019,3.11486 -1.2828,6.07836 -2.71106,8.92791 l -0.22116,0.44484 c -0.84841,1.69134 -2.03095,3.52057 -3.55275,5.49322 -7.02632,6.67324 -14.66945,7.93798 -22.93579,3.79825 -2.05934,-1.03034 -4.08493,-2.56463 -6.08427,-4.60053 -5.43942,-6.9488 -6.57239,-13.586 -3.40422,-19.9127 4.06393,-8.11302 11.8395,-11.36482 23.28403,-9.86969 -17.89768,-10.60211 -63.51195,17.01914 -41.25854,47.07892 l -57.9546,-21.33377 61.59995,-122.95366 z"
             id="use1571" />
          <path
             style="fill:#ffffff;stroke-width:1.04669988"
             inkscape:connector-curvature="0"
             d="m 558.78908,-980.36008 c -37.17741,0.0742 -35.93794,60.8597 -16.85231,68.80925 -8.05336,-8.28031 -10.06733,-16.39313 -6.05276,-24.40758 1.39408,-2.24551 2.6327,-3.92336 3.72341,-5.03589 7.15615,-5.07244 14.37024,-5.78909 21.64271,-2.14588 2.12845,1.06711 4.17481,2.56597 6.13414,4.49945 5.57148,6.76993 6.386,14.09336 2.43569,21.97523 l -0.54638,1.09234 c -1.3918,2.78147 -3.19813,5.14751 -5.42008,7.10044 l 4.68496,-1.38018 c 7.66607,-1.1315 13.57456,-0.65529 17.72698,1.42088 1.93611,1.09497 3.72014,2.31774 5.34858,3.67275 6.3768,7.37799 7.79104,14.61066 4.23907,21.69903 -0.64927,1.29278 -1.89708,2.94455 -3.74761,4.95883 -7.25703,5.27298 -14.45248,6.12335 -21.58085,2.55227 l -0.74661,-0.37238 c -2.87255,-1.44011 -5.76272,-4.12956 -8.67106,-8.07064 -1.96672,-2.18756 -3.51241,-5.30161 -4.75327,-9.31123 -0.42019,3.11485 -1.2828,6.07837 -2.71106,8.92791 l -0.22116,0.44483 c -0.84844,1.69135 -2.03097,3.52057 -3.55275,5.49323 -7.02634,6.67323 -14.66945,7.938 -22.93577,3.79825 -2.05936,-1.03034 -4.08494,-2.56462 -6.08431,-4.60053 -5.43941,-6.94881 -6.57238,-13.58599 -3.40422,-19.9127 4.06395,-8.11301 11.83953,-11.36481 23.28405,-9.86969 -17.89769,-10.60211 -63.51194,17.01914 -41.25855,47.07893 l -57.95461,-21.33377 61.59995,-122.95367 z"
             id="use1573"
             sodipodi:nodetypes="ccccccccccccccccccccccccccccc" />
        </g>
        <g
           id="use1577"
           transform="matrix(0.61599961,-1.2295367,1.3718654,0.68703632,-260.9923,210.65423)"
           style="stroke-width:0.7205826">
          <path
             id="path1619"
             d="m 135,130 c -12.1537,-21.6426 -44.9641,-3.17873 -43.9182,10.2638 2.76142,-7.1103 7.38044,-10.6524 13.8985,-10.6528 1.91392,0.1568 3.40814,0.38873 4.48663,0.69952 5.62816,2.68919 8.44311,6.68381 8.44238,11.9853 -7.6e-4,1.55184 -0.30897,3.18189 -0.9281,4.88811 -2.58753,5.22311 -7.08387,7.8358 -13.4948,7.83495 l -0.88813,5e-4 c -2.26165,10e-4 -4.38817,-0.36083 -6.38142,-1.08547 l 2.42286,2.32711 c 3.23184,4.13688 4.84612,7.71895 4.84831,10.7448 -0.0815,1.44789 -0.29562,2.84449 -0.64639,4.18901 -2.72065,5.8699 -6.9627,8.80558 -12.728,8.80517 -1.05195,-9.2e-4 -2.5322,-0.24582 -4.44441,-0.73611 -5.79139,-2.68943 -8.68721,-6.63415 -8.68646,-11.8306 l -0.001,-0.54379 c 0.001,-2.09434 0.80854,-4.5637 2.42397,-7.40905 0.78192,-1.78472 2.30333,-3.59456 4.50626,-5.48824 -2.16204,0.66452 -4.36974,1.02704 -6.68752,1.02667 l -0.36124,9.9e-4 c -1.37594,-6.2e-4 -2.95032,-0.15567 -4.72842,-0.46655 -6.62668,-2.1462 -9.93771,-6.23081 -9.93775,-12.2564 -6.5e-4,-1.50084 0.33735,-3.12913 1.01005,-4.88858 2.74683,-5.19837 6.6933,-7.79629 11.8384,-7.79718 6.59821,-4e-4 11.2443,3.58128 13.9987,10.6868 1.06556,-13.5247 -31.7459,-32.0414 -44.0442,-10.2979 l -5,-40 h 100 z"
             inkscape:connector-curvature="0"
             style="fill:#ffffff;stroke-width:0.7205826" />
          <path
             id="path1621"
             d="m 225,130 c -12.1537,-21.6426 -44.9641,-3.17873 -43.9182,10.2638 2.76142,-7.1103 7.38044,-10.6524 13.8985,-10.6528 1.91392,0.1568 3.40814,0.38873 4.48663,0.69952 5.62816,2.68919 8.44311,6.68381 8.44238,11.9853 -7.6e-4,1.55184 -0.30897,3.18189 -0.9281,4.88811 -2.58753,5.22311 -7.08387,7.8358 -13.4948,7.83495 l -0.88813,5e-4 c -2.26165,10e-4 -4.38817,-0.36083 -6.38142,-1.08547 l 2.42286,2.32711 c 3.23184,4.13688 4.84612,7.71895 4.84831,10.7448 -0.0815,1.44789 -0.29562,2.84449 -0.64639,4.18901 -2.72065,5.8699 -6.9627,8.80558 -12.728,8.80517 -1.05195,-9.2e-4 -2.5322,-0.24582 -4.44441,-0.73611 -5.79139,-2.68943 -8.68721,-6.63415 -8.68646,-11.8306 l -10e-4,-0.54379 c 10e-4,-2.09434 0.80854,-4.5637 2.42397,-7.40905 0.78192,-1.78472 2.30333,-3.59456 4.50626,-5.48824 -2.16204,0.66452 -4.36974,1.02704 -6.68752,1.02667 l -0.36124,9.9e-4 c -1.37594,-6.2e-4 -2.95032,-0.15567 -4.72842,-0.46655 -6.62668,-2.1462 -9.93771,-6.23081 -9.93775,-12.2564 -6.5e-4,-1.50084 0.33735,-3.12913 1.01005,-4.88858 2.74683,-5.19837 6.6933,-7.79629 11.8384,-7.79718 6.59821,-4e-4 11.2443,3.58128 13.9987,10.6868 1.06556,-13.5247 -31.7459,-32.0414 -44.0442,-10.2979 l -5,-40 h 100 z"
             inkscape:connector-curvature="0"
             style="fill:#ffffff;stroke-width:0.7205826" />
          <path
             id="path1623"
             d="m 315,130 c -12.1537,-21.6426 -44.9641,-3.17873 -43.9182,10.2638 2.76142,-7.1103 7.38044,-10.6524 13.8985,-10.6528 1.91392,0.1568 3.40814,0.38873 4.48663,0.69952 5.62816,2.68919 8.44311,6.68381 8.44238,11.9853 -7.6e-4,1.55184 -0.30897,3.18189 -0.9281,4.88811 -2.58753,5.22311 -7.08387,7.8358 -13.4948,7.83495 l -0.88813,5e-4 c -2.26165,10e-4 -4.38817,-0.36083 -6.38142,-1.08547 l 2.42286,2.32711 c 3.23184,4.13688 4.84612,7.71895 4.84831,10.7448 -0.0815,1.44789 -0.29562,2.84449 -0.64639,4.18901 -2.72065,5.8699 -6.9627,8.80558 -12.728,8.80517 -1.05195,-9.2e-4 -2.5322,-0.24582 -4.44441,-0.73611 -5.79139,-2.68943 -8.68721,-6.63415 -8.68646,-11.8306 l -0.001,-0.54379 c 0.001,-2.09434 0.80854,-4.5637 2.42397,-7.40905 0.78192,-1.78472 2.30333,-3.59456 4.50626,-5.48824 -2.16204,0.66452 -4.36974,1.02704 -6.68752,1.02667 l -0.36124,9.9e-4 c -1.37594,-6.2e-4 -2.95032,-0.15567 -4.72842,-0.46655 -6.62668,-2.1462 -9.93771,-6.23081 -9.93775,-12.2564 -6.5e-4,-1.50084 0.33735,-3.12913 1.01005,-4.88858 2.74683,-5.19837 6.6933,-7.79629 11.8384,-7.79718 6.59821,-4e-4 11.2443,3.58128 13.9987,10.6868 1.06556,-13.5247 -31.7459,-32.0414 -44.0442,-10.2979 l -5,-40 h 100 z"
             inkscape:connector-curvature="0"
             style="fill:#ffffff;stroke-width:0.7205826" />
          <path
             id="path1625"
             d="m 405,130 c -12.1537,-21.6426 -44.9641,-3.17873 -43.9182,10.2638 2.76142,-7.1103 7.38044,-10.6524 13.8985,-10.6528 1.91392,0.1568 3.40814,0.38873 4.48663,0.69952 5.62816,2.68919 8.44311,6.68381 8.44238,11.9853 -7.6e-4,1.55184 -0.30897,3.18189 -0.9281,4.88811 -2.58753,5.22311 -7.08387,7.8358 -13.4948,7.83495 l -0.88813,5e-4 c -2.26165,10e-4 -4.38817,-0.36083 -6.38142,-1.08547 l 2.42286,2.32711 c 3.23184,4.13688 4.84612,7.71895 4.84831,10.7448 -0.0815,1.44789 -0.29562,2.84449 -0.64639,4.18901 -2.72065,5.8699 -6.9627,8.80558 -12.728,8.80517 -1.05195,-9.2e-4 -2.5322,-0.24582 -4.44441,-0.73611 -5.79139,-2.68943 -8.68721,-6.63415 -8.68646,-11.8306 l -0.001,-0.54379 c 0.001,-2.09434 0.80854,-4.5637 2.42397,-7.40905 0.78192,-1.78472 2.30333,-3.59456 4.50626,-5.48824 -2.16204,0.66452 -4.36974,1.02704 -6.68752,1.02667 l -0.36124,9.9e-4 c -1.37594,-6.2e-4 -2.95032,-0.15567 -4.72842,-0.46655 -6.62668,-2.1462 -9.93771,-6.23081 -9.93775,-12.2564 -6.5e-4,-1.50084 0.33735,-3.12913 1.01005,-4.88858 2.74683,-5.19837 6.6933,-7.79629 11.8384,-7.79718 6.59821,-4e-4 11.2443,3.58128 13.9987,10.6868 1.06556,-13.5247 -31.7459,-32.0414 -44.0442,-10.2979 l -5,-40 h 100 z"
             inkscape:connector-curvature="0"
             style="fill:#ffffff;stroke-width:0.7205826" />
          <path
             id="path1627"
             d="m 495,130 c -12.1537,-21.6426 -44.9641,-3.17873 -43.9182,10.2638 2.76142,-7.1103 7.38044,-10.6524 13.8985,-10.6528 1.91392,0.1568 3.40814,0.38873 4.48663,0.69952 5.62816,2.68919 8.44311,6.68381 8.44238,11.9853 -7.6e-4,1.55184 -0.30897,3.18189 -0.9281,4.88811 -2.58753,5.22311 -7.08387,7.8358 -13.4948,7.83495 l -0.88813,5e-4 c -2.26165,10e-4 -4.38817,-0.36083 -6.38142,-1.08547 l 2.42286,2.32711 c 3.23184,4.13688 4.84612,7.71895 4.84831,10.7448 -0.0815,1.44789 -0.29562,2.84449 -0.64639,4.18901 -2.72065,5.8699 -6.9627,8.80558 -12.728,8.80517 -1.05195,-9.2e-4 -2.5322,-0.24582 -4.44441,-0.73611 -5.79139,-2.68943 -8.68721,-6.63415 -8.68646,-11.8306 l -0.001,-0.54379 c 0.001,-2.09434 0.80854,-4.5637 2.42397,-7.40905 0.78192,-1.78472 2.30333,-3.59456 4.50626,-5.48824 -2.16204,0.66452 -4.36974,1.02704 -6.68752,1.02667 l -0.36124,9.9e-4 c -1.37594,-6.2e-4 -2.95032,-0.15567 -4.72842,-0.46655 -6.62668,-2.1462 -9.93771,-6.23081 -9.93775,-12.2564 -6.5e-4,-1.50084 0.33735,-3.12913 1.01005,-4.88858 2.74683,-5.19837 6.6933,-7.79629 11.8384,-7.79718 6.59821,-4e-4 11.2443,3.58128 13.9987,10.6868 1.06556,-13.5247 -31.7459,-32.0414 -44.0442,-10.2979 l -5,-40 h 100 z"
             inkscape:connector-curvature="0"
             style="fill:#ffffff;stroke-width:0.7205826" />
          <path
             id="path1619-1"
             d="M 1032.1024,74.520579 50.518653,74.775584 50.499514,48.075205 1032.1644,47.820115 Z"
             inkscape:connector-curvature="0"
             style="fill:#ffffff;stroke-width:0.72058266"
             sodipodi:nodetypes="ccccc" />
        </g>
        <path
           style="fill:#ffd203;fill-opacity:1;stroke-width:1.04669988"
           inkscape:connector-curvature="0"
           d="m 300.21082,-136.05252 65.40692,56.653736 c -8.53644,-8.82644 -15.43606,-39.550846 -12.43862,-54.632576 -5.36205,6.51176 -12.22047,12.50572 -21.88299,4.92292 -6.41037,-8.58534 -1.988,-19.28308 11.75103,-18.42608 -7.84283,-4.07893 -4.4635,-33.66899 21.3968,-23.51299 -6.49615,-0.96548 -10.83079,0.71604 -13.06763,5.09701 -1.74156,3.41469 -1.07599,7.05226 1.99882,10.91321 1.12538,1.13671 2.26631,1.99904 3.42316,2.58616 4.64379,2.36122 8.91645,1.76304 12.81472,-1.79422 0.84075,-1.05781 1.49393,-2.04282 1.96082,-2.95557 l 0.12409,-0.24159 c 0.78551,-1.53695 1.25545,-3.14636 1.4084,-4.82435 l 0.0414,-0.0796 0.0891,0.0453 c 0.64844,2.22072 1.5261,3.94001 2.63827,5.158 1.64485,2.1872 3.27506,3.69203 4.88864,4.51255 l 0.41708,0.21351 c 4.00611,2.03677 8.02608,1.66028 12.06124,-1.13062 1.06494,-0.94872 1.64269,-1.80247 2.3131,-3.14089 0.67043,-1.33838 1.00822,-2.31233 1.13028,-3.73332 -0.18128,-4.90285 -2.28709,-8.34766 -6.31738,-10.33619 l -0.42077,-0.20614 c -1.62344,-0.80085 -3.80487,-1.20519 -6.54159,-1.21266 -1.64149,-0.16126 -3.54402,0.16545 -5.7109,0.97605 l -0.0897,-0.0443 0.039,-0.0806 c 1.25226,-1.12737 2.25935,-2.46774 3.0203,-4.01698 l 0.11921,-0.24408 c 0.45166,-0.9204 0.84912,-2.03347 1.19281,-3.34026 0.51447,-5.25213 -1.56513,-9.03204 -6.23714,-11.33698 -1.163,-0.57484 -2.53686,-0.97213 -4.1212,-1.19267 -4.9335,-0.1503 -8.24536,1.49506 -9.93717,4.93467 -2.16913,4.41489 -0.92001,8.89321 3.74345,13.51739 -23.62016,-14.62801 -1.9457,-35.05442 6.01766,-31.21613 -8.91401,-10.48947 -2.99466,-20.43745 7.72005,-20.44514 11.85928,3.19721 11.16595,12.27914 9.16194,20.47283 10.28367,-11.43222 39.02223,-24.30604 51.20325,-22.75548 l -84.54213,-18.45316 z"
           id="path1579" />
        <path
           style="fill:#ffd203;fill-opacity:1;stroke-width:1.04669988"
           inkscape:connector-curvature="0"
           d="m 411.07494,-357.37702 65.40693,56.65375 c -8.53644,-8.82645 -15.43606,-39.55084 -12.43862,-54.6326 -5.36206,6.51176 -12.22046,12.50575 -21.88298,4.92293 -6.41039,-8.58534 -1.98803,-19.28307 11.75102,-18.42609 -7.84281,-4.0789 -4.4635,-33.66896 21.39681,-23.51298 -6.49615,-0.96546 -10.8308,0.71604 -13.06764,5.097 -1.74156,3.41468 -1.07598,7.05224 1.99881,10.91323 1.12539,1.1367 2.26633,1.99903 3.42317,2.58616 4.64379,2.36122 8.91646,1.76305 12.8147,-1.79423 0.84077,-1.0578 1.49394,-2.04281 1.96084,-2.95556 l 0.12409,-0.2416 c 0.78551,-1.53694 1.25545,-3.14635 1.40841,-4.82434 l 0.0414,-0.0796 0.0891,0.0453 c 0.64844,2.22076 1.52613,3.94001 2.63828,5.15803 1.64487,2.18719 3.27504,3.69203 4.88864,4.51255 l 0.41706,0.21352 c 4.00614,2.03675 8.0261,1.66025 12.06125,-1.13064 1.06496,-0.94871 1.64268,-1.80248 2.31309,-3.14087 0.67044,-1.3384 1.00824,-2.31235 1.13031,-3.73334 -0.1813,-4.90284 -2.28711,-8.34768 -6.31739,-10.33619 l -0.42076,-0.20614 c -1.62345,-0.80085 -3.80489,-1.20519 -6.54162,-1.21268 -1.64148,-0.16127 -3.54402,0.16545 -5.71089,0.97607 l -0.0898,-0.0441 0.0389,-0.0807 c 1.25226,-1.12736 2.25937,-2.46773 3.0203,-4.01697 l 0.1192,-0.24408 c 0.45167,-0.92041 0.84913,-2.03348 1.19282,-3.34028 0.51449,-5.25211 -1.56515,-9.03201 -6.23713,-11.33696 -1.163,-0.57484 -2.53687,-0.97212 -4.12119,-1.19266 -4.93353,-0.15031 -8.24538,1.49505 -9.93721,4.93465 -2.1691,4.4149 -0.92,8.89321 3.74345,13.51739 -23.62012,-14.62801 -1.94569,-35.05442 6.01769,-31.21613 -8.91404,-10.48947 -2.99468,-20.43745 7.72005,-20.44515 11.85926,3.19722 11.16593,12.27917 9.16194,20.47284 10.28366,-11.4322 39.02221,-24.30604 51.20323,-22.75548 l -84.54204,-18.45314 z"
           id="use1581" />
        <path
           style="fill:#ffd203;fill-opacity:1;stroke-width:1.04669988"
           inkscape:connector-curvature="0"
           d="m 448.63682,-198.25731 65.40692,56.65375 c -8.53645,-8.82644 -15.43605,-39.55084 -12.4386,-54.63261 -5.36206,6.51177 -12.22046,12.50575 -21.88299,4.92294 -6.41038,-8.58534 -1.98803,-19.28308 11.75101,-18.42609 -7.84281,-4.0789 -4.46349,-33.66897 21.3968,-23.51299 -6.49615,-0.96546 -10.83078,0.71605 -13.06763,5.09702 -1.74157,3.41468 -1.07598,7.05224 1.99883,10.91319 1.12537,1.13673 2.26632,1.99904 3.42316,2.58618 4.64378,2.36123 8.91645,1.76303 12.8147,-1.79423 0.84079,-1.05782 1.49394,-2.04279 1.96084,-2.95557 l 0.12409,-0.24158 c 0.78549,-1.53694 1.25544,-3.14637 1.40841,-4.82435 l 0.0415,-0.0796 0.0891,0.0453 c 0.64844,2.22072 1.52612,3.94 2.63826,5.15799 1.64487,2.18721 3.27505,3.69203 4.88865,4.51256 l 0.41707,0.21354 c 4.00613,2.03672 8.02607,1.66024 12.06124,-1.13065 1.06495,-0.94872 1.64268,-1.80249 2.31309,-3.14089 0.67043,-1.3384 1.00825,-2.31234 1.13029,-3.73333 -0.18128,-4.90284 -2.2871,-8.34766 -6.31736,-10.33618 l -0.42077,-0.20614 c -1.62347,-0.80086 -3.80489,-1.20518 -6.54162,-1.21266 -1.64149,-0.16127 -3.54401,0.16545 -5.71089,0.97605 l -0.0897,-0.0442 0.0389,-0.0808 c 1.25227,-1.12734 2.25938,-2.46772 3.0203,-4.01695 l 0.11921,-0.2441 c 0.45165,-0.92039 0.84912,-2.03346 1.19281,-3.34026 0.51449,-5.25213 -1.56515,-9.03202 -6.23713,-11.33697 -1.163,-0.57485 -2.53688,-0.97213 -4.12118,-1.19267 -4.93353,-0.15029 -8.24539,1.49505 -9.93721,4.93466 -2.1691,4.41489 -0.92001,8.8932 3.74345,13.51738 -23.62012,-14.62801 -1.94569,-35.05441 6.01768,-31.21612 -8.91403,-10.48946 -2.99467,-20.43744 7.72005,-20.44513 11.85927,3.19721 11.16594,12.27915 9.16196,20.47281 10.28365,-11.43219 39.02219,-24.30602 51.20321,-22.75546 l -84.54204,-18.45315 z"
           id="use1583" />
      </g>
    </g>
  </g>
  <style
     id="style1764">
		tspan { white-space:pre }
		.shp0 { fill: #ffd700 } 
		.shp1 { fill: #c4001a } 
		.shp2 { fill: #ffffff } 
	</style>
  <g
     id="g1815"
     transform="translate(343.65192,623.82333)">
    <path
       d="M 331.34806,-174.45279 H 1006.3481 V 276.17667 H 331.34806 Z"
       class="shp0"
       id="Layer"
       inkscape:connector-curvature="0"
       style="fill:#ffd700;stroke-width:1" />
    <path
       d="m 331.34806,-86.830399 v -87.622391 h 131.25 l 543.75004,363.00707 v 87.62239 H 875.09809 Z"
       class="shp1"
       id="path1767"
       inkscape:connector-curvature="0"
       style="fill:#c4001a;stroke-width:1" />
    <g
       id="bird"
       transform="matrix(1.8750001,0,0,2.0862474,331.34805,-174.45279)"
       style="stroke-width:0.50561094">
      <path
         d="m 189.42,82.05 c 0.76,0.06 0.79,0.07 0.76,0.2 -0.04,0.15 -0.55,1.05 -0.84,1.47 -0.34,0.5 -0.88,1 -1.55,1.44 -0.96,0.62 -1.11,0.73 -1.17,0.84 -0.04,0.09 -0.03,0.12 0.05,0.18 0.17,0.14 1.45,0.39 2.54,0.48 1.37,0.13 2.54,-0.03 5.74,-0.75 1.05,-0.24 1.33,-0.29 1.36,-0.25 0.06,0.08 0,1.06 -0.08,1.47 -0.28,1.32 -1.12,2.4 -2.89,3.69 -0.29,0.21 -0.51,0.4 -0.49,0.42 0.05,0.04 2.71,0.57 3.41,0.68 0.91,0.13 1.45,0.16 3.03,0.16 1.48,0 2.28,-0.05 4.57,-0.26 0.2,-0.02 0.25,-0.02 0.25,0.03 0,0.08 -0.38,0.68 -0.83,1.32 -0.46,0.64 -1.34,1.54 -2,2.04 -1.42,1.06 -2.7,1.56 -5.01,1.95 -0.22,0.04 -0.4,0.09 -0.38,0.1 0.04,0.04 1.15,0.37 1.85,0.54 1.54,0.39 2.34,0.48 4.52,0.5 1.79,0.02 2.3,0 4.05,-0.16 0.52,-0.04 0.97,-0.07 0.98,-0.06 0.03,0.03 -0.3,0.45 -0.74,0.95 -1.07,1.2 -2.54,1.92 -4.83,2.39 -3.11,0.64 -8.13,0.9 -11.16,0.59 -1.01,-0.11 -1.77,-0.25 -2.85,-0.54 -0.33,-0.09 -0.62,-0.16 -0.64,-0.16 -0.11,0 0.56,0.75 0.93,1.05 0.32,0.26 2.04,1.52 2.12,1.55 0.04,0.01 0.04,0.03 0.02,0.06 -0.07,0.07 -0.55,0.12 -1.69,0.17 -2.27,0.1 -3.9,-0.16 -5.21,-0.81 -0.34,-0.17 -0.85,-0.5 -1.38,-0.9 -0.24,-0.17 -0.44,-0.32 -0.46,-0.32 -0.03,0 0.28,0.62 0.57,1.12 0.75,1.31 2.17,2.72 3.3,3.29 0.46,0.24 1.15,0.46 1.67,0.55 0.54,0.09 0.49,0.11 0.83,-0.35 0.36,-0.5 0.98,-1.15 1.32,-1.39 0.29,-0.21 0.69,-0.41 0.99,-0.49 0.3,-0.08 1.29,-0.07 1.78,0.01 0.76,0.13 1.62,0.48 2.08,0.86 0.29,0.23 0.52,0.53 0.74,0.93 l 0.17,0.31 -0.32,0.05 c -0.75,0.11 -1.1,0.47 -1.23,1.25 -0.07,0.4 0.12,1.13 0.35,1.38 0.12,0.14 0.39,0.26 0.93,0.45 0.62,0.21 0.73,0.27 0.75,0.45 0.01,0.12 -0.02,0.16 -0.26,0.39 -0.14,0.13 -0.44,0.37 -0.67,0.51 -0.39,0.26 -0.56,0.44 -0.62,0.66 -0.02,0.07 -0.01,0.1 0.05,0.13 0.09,0.05 0.08,0.05 2.45,0.24 1.61,0.13 2.04,0.15 3.16,0.15 1.46,0 1.83,-0.04 2.63,-0.24 0.99,-0.26 1.75,-0.56 2.45,-0.96 1.84,-1.08 3.04,-1.51 4.04,-1.43 1.82,0.15 3.9,1.65 4.34,3.14 0.04,0.12 0.08,0.37 0.09,0.56 0.03,0.35 -0.04,1.21 -0.1,1.27 -0.01,0.02 -0.1,-0.02 -0.19,-0.08 -1.44,-1 -2.16,-1.32 -3.17,-1.44 -0.82,-0.09 -1.14,0.01 -2.37,0.74 -1.37,0.82 -1.92,1.07 -2.87,1.31 -0.96,0.26 -2.15,0.43 -4,0.59 -0.56,0.05 -1.02,0.1 -1.03,0.11 -0.04,0.04 0.67,0.61 1.13,0.91 0.89,0.58 1.81,0.88 3.32,1.1 0.76,0.11 1.44,0.14 2.88,0.14 1.89,0 2.37,-0.04 4.09,-0.36 0.47,-0.09 0.85,-0.15 0.87,-0.15 0.03,0.05 -0.06,0.22 -0.37,0.69 -0.91,1.37 -1.55,1.98 -2.67,2.51 -1.29,0.62 -2.76,0.87 -5.47,0.94 -0.53,0.01 -1.01,0.03 -1.06,0.04 -0.09,0.02 -0.08,0.04 0.16,0.35 0.35,0.46 1.05,1.18 1.34,1.38 0.99,0.7 2.39,0.95 4.2,0.73 0.33,-0.03 0.63,-0.05 0.67,-0.04 0.11,0.04 0.04,0.61 -0.11,0.93 -0.24,0.5 -0.69,1 -1.12,1.24 l -0.21,0.12 0.3,0.35 c 0.34,0.39 0.65,0.97 0.86,1.56 0.13,0.39 0.21,0.94 0.21,1.59 v 0.37 l -0.46,0.09 c -0.65,0.12 -1.05,0.14 -1.51,0.08 -0.76,-0.09 -1.39,-0.36 -2.19,-0.92 -0.23,-0.16 -0.44,-0.29 -0.46,-0.28 -0.02,0.01 -0.14,0.15 -0.27,0.31 -0.43,0.56 -0.92,0.8 -1.69,0.84 l -0.45,0.02 -0.03,-0.44 c -0.01,-0.24 -0.06,-0.72 -0.1,-1.06 -0.19,-1.42 -0.37,-1.95 -0.93,-2.62 -0.25,-0.3 -1.45,-1.43 -1.52,-1.43 -0.03,0 -0.06,0.26 -0.1,0.72 -0.13,2.01 -0.31,3.06 -0.66,3.88 -0.43,1.02 -1.19,1.78 -2.18,2.2 -0.53,0.21 -1.97,0.58 -2.04,0.51 -0.02,-0.02 0.07,-0.2 0.2,-0.42 0.87,-1.55 1.13,-2.43 1.24,-4.2 0.07,-1.09 -0.05,-2.9 -0.27,-3.93 -0.19,-0.97 -0.52,-1.7 -0.97,-2.2 -0.22,-0.23 -0.26,-0.19 -0.26,0.29 0,0.38 -0.09,1.33 -0.16,1.63 -0.11,0.54 -0.57,1.26 -1.39,2.21 -0.9,1.05 -1.41,1.9 -1.58,2.68 -0.13,0.57 -0.02,1.47 0.26,2.12 0.26,0.63 0.75,1.3 1.09,1.52 l 0.1,0.06 -0.09,0.05 c -0.15,0.08 -0.49,0.13 -0.94,0.13 -0.38,0 -0.46,-0.02 -0.85,-0.15 -0.51,-0.18 -1.38,-0.6 -1.78,-0.85 -0.48,-0.31 -0.91,-0.67 -1.36,-1.12 -0.65,-0.66 -0.9,-1.03 -1.1,-1.63 -0.18,-0.53 -0.22,-0.92 -0.2,-1.81 0.02,-0.72 0.03,-0.8 0.13,-1.1 0.14,-0.41 0.25,-0.6 0.84,-1.48 0.95,-1.42 1.04,-1.71 1.08,-3.47 0.02,-1.17 -0.03,-2.11 -0.13,-2.66 -0.06,-0.33 -0.2,-0.62 -0.28,-0.62 -0.1,0 -0.36,0.27 -0.83,0.89 -0.5,0.65 -0.64,0.78 -0.76,0.7 -0.04,-0.02 -0.22,-0.28 -0.39,-0.56 -0.71,-1.19 -1.11,-1.56 -1.79,-1.69 -0.52,-0.09 -1.26,0.07 -1.92,0.42 -0.3,0.16 -1.15,0.75 -1.58,1.1 l -0.23,0.19 -0.25,-0.76 c -0.32,-1.01 -0.4,-1.32 -0.46,-1.85 -0.04,-0.38 -0.03,-0.51 0.02,-0.84 0.05,-0.23 0.12,-0.52 0.18,-0.67 0.14,-0.35 0.42,-0.78 0.63,-0.96 0.17,-0.14 0.69,-0.42 0.79,-0.42 0.02,0 0.09,-0.02 0.15,-0.04 0.1,-0.04 0.1,-0.05 0.06,-0.13 -0.09,-0.17 -0.33,-0.44 -0.48,-0.54 -0.08,-0.06 -0.62,-0.24 -1.34,-0.44 -2.7,-0.78 -4.6,-1.54 -6.8,-2.72 -2.52,-1.35 -4.3,-2.63 -5.23,-3.73 -0.77,-0.93 -1.15,-1.74 -1.6,-3.44 -0.05,-0.18 -0.1,-0.33 -0.12,-0.33 -0.02,0 -0.15,0.19 -0.28,0.43 -0.98,1.69 -2.31,2.7 -3.73,2.87 l -0.23,0.03 0.24,-0.63 c 0.58,-1.55 0.99,-2.99 1.11,-3.89 0.09,-0.66 0.06,-1.86 -0.06,-2.41 -0.12,-0.55 -0.76,-2.51 -0.94,-2.84 -0.03,-0.06 -0.07,-0.04 -0.38,0.14 -0.75,0.43 -1.42,0.62 -2.08,0.58 -0.21,-0.01 -0.44,-0.04 -0.51,-0.06 -0.11,-0.03 -0.12,-0.04 -0.12,-0.27 0.01,-0.13 0.03,-0.43 0.06,-0.66 0.07,-0.53 0.04,-1.06 -0.07,-1.31 -0.09,-0.2 -0.36,-0.45 -0.57,-0.54 -0.89,-0.38 -2.22,-0.3 -2.63,0.17 -0.12,0.13 -0.29,0.52 -0.29,0.66 0,0.1 -0.16,0.57 -0.31,0.9 -0.26,0.56 -0.7,0.85 -1.33,0.86 -0.75,0 -1.42,-0.33 -1.98,-0.98 -0.4,-0.47 -0.61,-0.84 -0.87,-1.54 -0.68,-1.8 -0.77,-2.84 -0.34,-3.88 0.31,-0.76 0.74,-1.31 1.37,-1.8 0.52,-0.41 0.84,-0.57 1.8,-0.93 0.49,-0.19 0.97,-0.39 1.06,-0.45 0.21,-0.14 0.38,-0.4 0.51,-0.81 0.1,-0.29 0.11,-0.39 0.11,-0.89 0,-0.48 -0.02,-0.61 -0.09,-0.83 -0.05,-0.15 -0.09,-0.3 -0.09,-0.36 0,-0.08 0.02,-0.09 0.09,-0.07 0.26,0.08 0.68,0.28 1.07,0.51 0.9,0.53 1.8,1.64 2.09,2.56 0.12,0.38 0.3,0.63 0.56,0.76 0.54,0.28 2.13,0.26 3.13,-0.03 0.69,-0.19 1.35,-0.56 2.01,-1.09 0.18,-0.15 0.33,-0.26 0.35,-0.26 0.05,0 0.14,0.4 0.21,0.88 0.06,0.41 0.02,0.69 -0.21,1.41 -0.19,0.61 -0.23,0.97 -0.1,1.11 0.27,0.29 2.29,1.22 3.56,1.63 0.85,0.27 1.85,0.49 2.75,0.61 0.24,0.03 0.46,0.08 0.48,0.1 0.06,0.06 -0.24,0.23 -1.14,0.68 -0.44,0.21 -0.87,0.42 -0.97,0.47 -0.27,0.13 -0.52,0.4 -0.55,0.58 -0.07,0.32 0.19,0.81 0.84,1.57 0.18,0.22 0.44,0.54 0.58,0.71 0.56,0.71 0.95,1.08 1.2,1.11 0.23,0.03 0.43,-0.04 0.86,-0.33 0.4,-0.27 1.71,-1.01 3.55,-2.04 l 1.2,-0.66 v -0.6 c 0,-0.73 -0.07,-1.1 -0.28,-1.55 -0.21,-0.42 -0.34,-0.57 -0.77,-0.86 -0.47,-0.32 -0.69,-0.39 -1.53,-0.53 -1.18,-0.2 -1.62,-0.34 -1.85,-0.62 -0.1,-0.12 -0.11,-0.15 -0.09,-0.38 0.04,-0.4 0.31,-0.93 0.69,-1.32 0.49,-0.51 0.49,-0.49 0.52,-1.83 0.01,-0.77 0.03,-1.17 0.07,-1.25 0.18,-0.43 0.6,-0.65 1.54,-0.81 0.34,-0.06 0.66,-0.06 2.77,-0.04 3.15,0.04 4.8,-0.02 6.01,-0.23 0.93,-0.15 1.19,-0.25 2.69,-1.04 0.61,-0.32 0.83,-0.38 1.5,-0.41 0.58,-0.02 1.19,-0.01 1.91,0.04 z m -34.5,7.12 c -0.01,-0.01 -0.13,0.06 -0.27,0.15 -0.33,0.22 -0.67,0.32 -1.25,0.38 -0.26,0.02 -0.68,0.06 -0.92,0.08 -0.44,0.04 -0.72,0.12 -0.83,0.25 -0.04,0.06 -0.05,0.25 -0.01,1.13 0.02,0.59 0.06,1.14 0.09,1.23 0.03,0.11 0.14,0.25 0.35,0.46 l 0.3,0.3 0.13,-0.14 c 0.07,-0.08 0.23,-0.26 0.35,-0.4 0.39,-0.45 0.75,-0.62 1.55,-0.75 0.28,-0.05 0.43,-0.09 0.42,-0.12 -0.01,-0.02 -0.05,-0.19 -0.09,-0.36 -0.1,-0.45 -0.07,-1.19 0.08,-1.76 0.06,-0.24 0.1,-0.43 0.1,-0.45 z"
         class="shp2"
         id="path1769"
         inkscape:connector-curvature="0"
         style="fill:#ffffff;fill-rule:evenodd;stroke-width:0.50561094" />
      <path
         d="m 153.75,91.56 c -0.1,0.35 -0.49,0.6 -0.85,0.54 -0.37,-0.06 -0.68,-0.45 -0.63,-0.8 0.03,-0.22 0.21,-0.47 0.43,-0.58 0.55,-0.29 1.21,0.25 1.05,0.84 z"
         class="shp2"
         id="path1771"
         inkscape:connector-curvature="0"
         style="fill:#ffffff;stroke-width:0.50561094" />
      <path
         d="m 165.14,104.16 c 0.05,0.03 0.2,0.26 0.34,0.51 1,1.8 1.88,2.77 3.47,3.84 0.59,0.4 1.46,0.89 2.21,1.25 1.08,0.52 1.55,0.68 2.65,0.91 1.29,0.27 2,0.62 2.63,1.3 1.04,1.12 1.47,2.43 1.48,4.52 0,1.47 -0.17,2.05 -0.81,2.71 -0.12,0.13 -0.24,0.23 -0.27,0.22 -0.06,-0.02 -0.09,-0.11 -0.53,-1.21 -0.34,-0.87 -0.91,-2.04 -1.29,-2.61 -0.51,-0.78 -1.02,-1.33 -1.62,-1.76 -0.27,-0.19 -1.48,-0.82 -1.52,-0.79 0,0.01 0.22,0.48 0.5,1.05 0.27,0.57 0.59,1.25 0.7,1.5 0.86,1.97 1.33,3.96 1.55,6.6 0.07,0.82 0.07,4.42 0,5.13 -0.29,2.99 -0.88,4.7 -2.17,6.29 -0.35,0.44 -1.08,1.26 -1.12,1.26 -0.04,0 -0.07,-0.22 -0.16,-1.38 -0.31,-4.13 -0.78,-7.02 -1.41,-8.71 -0.23,-0.61 -0.41,-1.04 -0.45,-1.04 -0.01,0 -0.06,0.12 -0.1,0.26 -0.03,0.14 -0.2,0.67 -0.37,1.18 -0.89,2.71 -2.05,4.93 -3.19,6.07 -0.46,0.46 -0.74,0.66 -1.21,0.85 -0.29,0.12 -1.01,0.29 -1.05,0.26 -0.01,-0.01 0.02,-0.28 0.06,-0.61 0.26,-1.93 0.49,-4.36 0.55,-5.74 0.08,-2.16 -0.34,-4.02 -1.29,-5.67 -0.44,-0.78 -1.43,-2.21 -1.55,-2.25 -0.03,0 -0.1,0.28 -0.19,0.75 -0.67,3.37 -1.19,4.86 -2.18,6.26 -0.33,0.47 -1.25,1.39 -1.7,1.71 -0.44,0.3 -1.1,0.64 -1.59,0.82 -0.4,0.14 -1.37,0.4 -1.39,0.38 -0.01,-0.01 0.12,-0.26 0.29,-0.56 0.99,-1.73 1.4,-3.12 1.61,-5.46 0.07,-0.76 0.07,-3.06 0,-3.65 -0.09,-0.76 -0.32,-2 -0.35,-1.9 -0.01,0.02 -0.05,0.4 -0.1,0.83 -0.11,0.99 -0.21,1.51 -0.41,2.12 -0.38,1.17 -0.98,2.07 -2.06,3.13 -0.91,0.88 -2.05,1.69 -2.96,2.11 -0.85,0.39 -1.97,0.65 -2.83,0.65 H 147 l 0.36,-1.08 c 0.46,-1.33 0.74,-2.05 1.26,-3.15 1.2,-2.52 1.38,-2.94 1.59,-3.78 0.24,-0.95 0.33,-1.96 0.29,-3.52 -0.01,-0.61 -0.05,-1.38 -0.07,-1.71 -0.07,-0.92 0.04,-1.64 0.37,-2.31 0.49,-0.99 1.55,-1.93 2.53,-2.26 0.85,-0.28 2.14,-0.41 2.69,-0.27 0.56,0.13 1.19,0.57 1.52,1.04 0.19,0.28 0.3,0.58 0.44,1.2 0.16,0.74 0.47,1.22 0.92,1.44 0.42,0.2 0.86,0.25 1.63,0.16 0.97,-0.11 1.56,-0.43 1.87,-1 0.18,-0.34 0.24,-0.61 0.33,-1.52 0.15,-1.5 0.33,-2.18 0.79,-3.11 0.31,-0.61 0.76,-1.18 1.05,-1.31 0.14,-0.07 0.44,-0.04 0.57,0.05 z"
         class="shp2"
         id="path1773"
         inkscape:connector-curvature="0"
         style="fill:#ffffff;stroke-width:0.50561094" />
    </g>
    <g
       id="g1782"
       transform="matrix(1.8750001,0,0,2.0862474,331.34805,-174.45279)"
       style="stroke-width:0.50561094">
      <path
         d="m 286.42,141.05 c 0.76,0.06 0.79,0.07 0.76,0.2 -0.04,0.15 -0.55,1.05 -0.84,1.47 -0.34,0.5 -0.88,1 -1.55,1.44 -0.96,0.62 -1.11,0.73 -1.17,0.84 -0.04,0.09 -0.03,0.12 0.05,0.18 0.17,0.14 1.45,0.39 2.54,0.48 1.37,0.13 2.54,-0.03 5.74,-0.75 1.05,-0.24 1.33,-0.29 1.36,-0.25 0.06,0.08 0,1.06 -0.08,1.47 -0.28,1.32 -1.12,2.4 -2.89,3.69 -0.29,0.21 -0.51,0.4 -0.49,0.42 0.05,0.04 2.71,0.57 3.41,0.68 0.91,0.13 1.45,0.16 3.03,0.16 1.48,0 2.28,-0.05 4.57,-0.26 0.2,-0.02 0.25,-0.02 0.25,0.03 0,0.08 -0.38,0.68 -0.83,1.32 -0.46,0.64 -1.34,1.54 -2,2.04 -1.42,1.06 -2.7,1.56 -5.01,1.95 -0.22,0.04 -0.4,0.09 -0.38,0.1 0.04,0.04 1.15,0.37 1.85,0.54 1.54,0.39 2.34,0.48 4.52,0.5 1.79,0.02 2.3,0 4.05,-0.16 0.52,-0.04 0.97,-0.07 0.98,-0.06 0.03,0.03 -0.3,0.45 -0.74,0.95 -1.07,1.2 -2.54,1.92 -4.83,2.39 -3.11,0.64 -8.13,0.9 -11.16,0.59 -1.01,-0.11 -1.77,-0.25 -2.85,-0.54 -0.33,-0.09 -0.62,-0.16 -0.64,-0.16 -0.11,0 0.56,0.75 0.93,1.05 0.32,0.26 2.04,1.52 2.12,1.55 0.04,0.01 0.04,0.03 0.02,0.06 -0.07,0.07 -0.55,0.12 -1.69,0.17 -2.27,0.1 -3.9,-0.16 -5.21,-0.81 -0.34,-0.17 -0.85,-0.5 -1.38,-0.9 -0.24,-0.17 -0.44,-0.32 -0.46,-0.32 -0.03,0 0.28,0.62 0.57,1.12 0.75,1.31 2.17,2.72 3.3,3.29 0.46,0.24 1.15,0.46 1.67,0.55 0.54,0.09 0.49,0.11 0.83,-0.35 0.36,-0.5 0.98,-1.15 1.32,-1.39 0.29,-0.21 0.69,-0.41 0.99,-0.49 0.3,-0.08 1.29,-0.07 1.78,0.01 0.76,0.13 1.62,0.48 2.08,0.86 0.29,0.23 0.52,0.53 0.74,0.93 l 0.17,0.31 -0.32,0.05 c -0.75,0.11 -1.1,0.47 -1.23,1.25 -0.07,0.4 0.12,1.13 0.35,1.38 0.12,0.14 0.39,0.26 0.93,0.45 0.62,0.21 0.73,0.27 0.75,0.45 0.01,0.12 -0.02,0.16 -0.26,0.39 -0.14,0.13 -0.44,0.37 -0.67,0.51 -0.39,0.26 -0.56,0.44 -0.62,0.66 -0.02,0.07 -0.01,0.1 0.05,0.13 0.09,0.05 0.08,0.05 2.45,0.24 1.61,0.13 2.04,0.15 3.16,0.15 1.46,0 1.83,-0.04 2.63,-0.24 0.99,-0.26 1.75,-0.56 2.45,-0.96 1.84,-1.08 3.04,-1.51 4.04,-1.43 1.82,0.15 3.9,1.65 4.34,3.14 0.04,0.12 0.08,0.37 0.09,0.56 0.03,0.35 -0.04,1.21 -0.1,1.27 -0.01,0.02 -0.1,-0.02 -0.19,-0.08 -1.44,-1 -2.16,-1.32 -3.17,-1.44 -0.82,-0.09 -1.14,0.01 -2.37,0.74 -1.37,0.82 -1.92,1.07 -2.87,1.31 -0.96,0.26 -2.15,0.43 -4,0.59 -0.56,0.05 -1.02,0.1 -1.03,0.11 -0.04,0.04 0.67,0.61 1.13,0.91 0.89,0.58 1.81,0.88 3.32,1.1 0.76,0.11 1.44,0.14 2.88,0.14 1.89,0 2.37,-0.04 4.09,-0.36 0.47,-0.09 0.85,-0.15 0.87,-0.15 0.03,0.05 -0.06,0.22 -0.37,0.69 -0.91,1.37 -1.55,1.98 -2.67,2.51 -1.29,0.62 -2.76,0.87 -5.47,0.94 -0.53,0.01 -1.01,0.03 -1.06,0.04 -0.09,0.02 -0.08,0.04 0.16,0.35 0.35,0.46 1.05,1.18 1.34,1.38 0.99,0.7 2.39,0.95 4.2,0.73 0.33,-0.03 0.63,-0.05 0.67,-0.04 0.11,0.04 0.04,0.61 -0.11,0.93 -0.24,0.5 -0.69,1 -1.12,1.24 l -0.21,0.12 0.3,0.35 c 0.34,0.39 0.65,0.97 0.86,1.56 0.13,0.39 0.21,0.94 0.21,1.59 v 0.37 l -0.46,0.09 c -0.65,0.12 -1.05,0.14 -1.51,0.08 -0.76,-0.09 -1.39,-0.36 -2.19,-0.92 -0.23,-0.16 -0.44,-0.29 -0.46,-0.28 -0.02,0.01 -0.14,0.15 -0.27,0.31 -0.43,0.56 -0.92,0.8 -1.69,0.84 l -0.45,0.02 -0.03,-0.44 c -0.01,-0.24 -0.06,-0.72 -0.1,-1.06 -0.19,-1.42 -0.37,-1.95 -0.93,-2.62 -0.25,-0.3 -1.45,-1.43 -1.52,-1.43 -0.03,0 -0.06,0.26 -0.1,0.72 -0.13,2.01 -0.31,3.06 -0.66,3.88 -0.43,1.02 -1.19,1.78 -2.18,2.2 -0.53,0.21 -1.97,0.58 -2.04,0.51 -0.02,-0.02 0.07,-0.2 0.2,-0.42 0.87,-1.55 1.13,-2.43 1.24,-4.2 0.07,-1.09 -0.05,-2.9 -0.27,-3.93 -0.19,-0.97 -0.52,-1.7 -0.97,-2.2 -0.22,-0.23 -0.26,-0.19 -0.26,0.29 0,0.38 -0.09,1.33 -0.16,1.63 -0.11,0.54 -0.57,1.26 -1.39,2.21 -0.9,1.05 -1.41,1.9 -1.58,2.68 -0.13,0.57 -0.02,1.47 0.26,2.12 0.26,0.63 0.75,1.3 1.09,1.52 l 0.1,0.06 -0.09,0.05 c -0.15,0.08 -0.49,0.13 -0.94,0.13 -0.38,0 -0.46,-0.02 -0.85,-0.15 -0.51,-0.18 -1.38,-0.6 -1.78,-0.85 -0.48,-0.31 -0.91,-0.67 -1.36,-1.12 -0.65,-0.66 -0.9,-1.03 -1.1,-1.63 -0.18,-0.53 -0.22,-0.92 -0.2,-1.81 0.02,-0.72 0.03,-0.8 0.13,-1.1 0.14,-0.41 0.25,-0.6 0.84,-1.48 0.95,-1.42 1.04,-1.71 1.08,-3.47 0.02,-1.17 -0.03,-2.11 -0.13,-2.66 -0.06,-0.33 -0.2,-0.62 -0.28,-0.62 -0.1,0 -0.36,0.27 -0.83,0.89 -0.5,0.65 -0.64,0.78 -0.76,0.7 -0.04,-0.02 -0.22,-0.28 -0.39,-0.56 -0.71,-1.19 -1.11,-1.56 -1.79,-1.69 -0.52,-0.09 -1.26,0.07 -1.92,0.42 -0.3,0.16 -1.15,0.75 -1.58,1.1 l -0.23,0.19 -0.25,-0.76 c -0.32,-1.01 -0.4,-1.32 -0.46,-1.85 -0.04,-0.38 -0.03,-0.51 0.02,-0.84 0.05,-0.23 0.12,-0.52 0.18,-0.67 0.14,-0.35 0.42,-0.78 0.63,-0.96 0.17,-0.14 0.69,-0.42 0.79,-0.42 0.02,0 0.09,-0.02 0.15,-0.04 0.1,-0.04 0.1,-0.05 0.06,-0.13 -0.09,-0.17 -0.33,-0.44 -0.48,-0.54 -0.08,-0.06 -0.62,-0.24 -1.34,-0.44 -2.7,-0.78 -4.6,-1.54 -6.8,-2.72 -2.52,-1.35 -4.3,-2.63 -5.23,-3.73 -0.77,-0.93 -1.15,-1.74 -1.6,-3.44 -0.05,-0.18 -0.1,-0.33 -0.12,-0.33 -0.02,0 -0.15,0.19 -0.28,0.43 -0.98,1.69 -2.31,2.7 -3.73,2.87 l -0.23,0.03 0.24,-0.63 c 0.58,-1.55 0.99,-2.99 1.11,-3.89 0.09,-0.66 0.06,-1.86 -0.06,-2.41 -0.12,-0.55 -0.76,-2.51 -0.94,-2.84 -0.03,-0.06 -0.07,-0.04 -0.38,0.14 -0.75,0.43 -1.42,0.62 -2.08,0.58 -0.21,-0.01 -0.44,-0.04 -0.51,-0.06 -0.11,-0.03 -0.12,-0.04 -0.12,-0.27 0.01,-0.13 0.03,-0.43 0.06,-0.66 0.07,-0.53 0.04,-1.06 -0.07,-1.31 -0.09,-0.2 -0.36,-0.45 -0.57,-0.54 -0.89,-0.38 -2.22,-0.3 -2.63,0.17 -0.12,0.13 -0.29,0.52 -0.29,0.66 0,0.1 -0.16,0.57 -0.31,0.9 -0.26,0.56 -0.7,0.85 -1.33,0.86 -0.75,0 -1.42,-0.33 -1.98,-0.98 -0.4,-0.47 -0.61,-0.84 -0.87,-1.54 -0.68,-1.8 -0.77,-2.84 -0.34,-3.88 0.31,-0.76 0.74,-1.31 1.37,-1.8 0.52,-0.41 0.84,-0.57 1.8,-0.93 0.49,-0.19 0.97,-0.39 1.06,-0.45 0.21,-0.14 0.38,-0.4 0.51,-0.81 0.1,-0.29 0.11,-0.39 0.11,-0.89 0,-0.48 -0.02,-0.61 -0.09,-0.83 -0.05,-0.15 -0.09,-0.3 -0.09,-0.36 0,-0.08 0.02,-0.09 0.09,-0.07 0.26,0.08 0.68,0.28 1.07,0.51 0.9,0.53 1.8,1.64 2.09,2.56 0.12,0.38 0.3,0.63 0.56,0.76 0.54,0.28 2.13,0.26 3.13,-0.03 0.69,-0.19 1.35,-0.56 2.01,-1.09 0.18,-0.15 0.33,-0.26 0.35,-0.26 0.05,0 0.14,0.4 0.21,0.88 0.06,0.41 0.02,0.69 -0.21,1.41 -0.19,0.61 -0.23,0.97 -0.1,1.11 0.27,0.29 2.29,1.22 3.56,1.63 0.85,0.27 1.85,0.49 2.75,0.61 0.24,0.03 0.46,0.08 0.48,0.1 0.06,0.06 -0.24,0.23 -1.14,0.68 -0.44,0.21 -0.87,0.42 -0.97,0.47 -0.27,0.13 -0.52,0.4 -0.55,0.58 -0.07,0.32 0.19,0.81 0.84,1.57 0.18,0.22 0.44,0.54 0.58,0.71 0.56,0.71 0.95,1.08 1.2,1.11 0.23,0.03 0.43,-0.04 0.86,-0.33 0.4,-0.27 1.71,-1.01 3.55,-2.04 l 1.2,-0.66 v -0.6 c 0,-0.73 -0.07,-1.1 -0.28,-1.55 -0.21,-0.42 -0.34,-0.57 -0.77,-0.86 -0.47,-0.32 -0.69,-0.39 -1.53,-0.53 -1.18,-0.2 -1.62,-0.34 -1.85,-0.62 -0.1,-0.12 -0.11,-0.15 -0.09,-0.38 0.04,-0.4 0.31,-0.93 0.69,-1.32 0.49,-0.51 0.49,-0.49 0.52,-1.83 0.01,-0.77 0.03,-1.17 0.07,-1.25 0.18,-0.43 0.6,-0.65 1.54,-0.81 0.34,-0.06 0.66,-0.06 2.77,-0.04 3.15,0.04 4.8,-0.02 6.01,-0.23 0.93,-0.15 1.19,-0.25 2.69,-1.04 0.61,-0.32 0.83,-0.38 1.5,-0.41 0.58,-0.02 1.19,-0.01 1.91,0.04 z m -34.5,7.12 c -0.01,-0.01 -0.13,0.06 -0.27,0.15 -0.33,0.22 -0.67,0.32 -1.25,0.38 -0.26,0.02 -0.68,0.06 -0.92,0.08 -0.44,0.04 -0.72,0.12 -0.83,0.25 -0.04,0.06 -0.05,0.25 -0.01,1.13 0.02,0.59 0.06,1.14 0.09,1.23 0.03,0.11 0.14,0.25 0.35,0.46 l 0.3,0.3 0.13,-0.14 c 0.07,-0.08 0.23,-0.26 0.35,-0.4 0.39,-0.45 0.75,-0.62 1.55,-0.75 0.28,-0.05 0.43,-0.09 0.42,-0.12 -0.01,-0.02 -0.05,-0.19 -0.09,-0.36 -0.1,-0.45 -0.07,-1.19 0.08,-1.76 0.06,-0.24 0.1,-0.43 0.1,-0.45 z"
         class="shp2"
         id="path1776"
         inkscape:connector-curvature="0"
         style="fill:#ffffff;fill-rule:evenodd;stroke-width:0.50561094" />
      <path
         d="m 250.75,150.56 c -0.1,0.35 -0.49,0.6 -0.85,0.54 -0.37,-0.06 -0.68,-0.45 -0.63,-0.8 0.03,-0.22 0.21,-0.47 0.43,-0.58 0.55,-0.29 1.21,0.25 1.05,0.84 z"
         class="shp2"
         id="path1778"
         inkscape:connector-curvature="0"
         style="fill:#ffffff;stroke-width:0.50561094" />
      <path
         d="m 262.14,163.16 c 0.05,0.03 0.2,0.26 0.34,0.51 1,1.8 1.88,2.77 3.47,3.84 0.59,0.4 1.46,0.89 2.21,1.25 1.08,0.52 1.55,0.68 2.65,0.91 1.29,0.27 2,0.62 2.63,1.3 1.04,1.12 1.47,2.43 1.48,4.52 0,1.47 -0.17,2.05 -0.81,2.71 -0.12,0.13 -0.24,0.23 -0.27,0.22 -0.06,-0.02 -0.09,-0.11 -0.53,-1.21 -0.34,-0.87 -0.91,-2.04 -1.29,-2.61 -0.51,-0.78 -1.02,-1.33 -1.62,-1.76 -0.27,-0.19 -1.48,-0.82 -1.52,-0.79 0,0.01 0.22,0.48 0.5,1.05 0.27,0.57 0.59,1.25 0.7,1.5 0.86,1.97 1.33,3.96 1.55,6.6 0.07,0.82 0.07,4.42 0,5.13 -0.29,2.99 -0.88,4.7 -2.17,6.29 -0.35,0.44 -1.08,1.26 -1.12,1.26 -0.04,0 -0.07,-0.22 -0.16,-1.38 -0.31,-4.13 -0.78,-7.02 -1.41,-8.71 -0.23,-0.61 -0.41,-1.04 -0.45,-1.04 -0.01,0 -0.06,0.12 -0.1,0.26 -0.03,0.14 -0.2,0.67 -0.37,1.18 -0.89,2.71 -2.05,4.93 -3.19,6.07 -0.46,0.46 -0.74,0.66 -1.21,0.85 -0.29,0.12 -1.01,0.29 -1.05,0.26 -0.01,-0.01 0.02,-0.28 0.06,-0.61 0.26,-1.93 0.49,-4.36 0.55,-5.74 0.08,-2.16 -0.34,-4.02 -1.29,-5.67 -0.44,-0.78 -1.43,-2.21 -1.55,-2.25 -0.03,0 -0.1,0.28 -0.19,0.75 -0.67,3.37 -1.19,4.86 -2.18,6.26 -0.33,0.47 -1.25,1.39 -1.7,1.71 -0.44,0.3 -1.1,0.64 -1.59,0.82 -0.4,0.14 -1.37,0.4 -1.39,0.38 -0.01,-0.01 0.12,-0.26 0.29,-0.56 0.99,-1.73 1.4,-3.12 1.61,-5.46 0.07,-0.76 0.07,-3.06 0,-3.65 -0.09,-0.76 -0.32,-2 -0.35,-1.9 -0.01,0.02 -0.05,0.4 -0.1,0.83 -0.11,0.99 -0.21,1.51 -0.41,2.12 -0.38,1.17 -0.98,2.07 -2.06,3.13 -0.91,0.88 -2.05,1.69 -2.96,2.11 -0.85,0.39 -1.97,0.65 -2.83,0.65 H 244 l 0.36,-1.08 c 0.46,-1.33 0.74,-2.05 1.26,-3.15 1.2,-2.52 1.38,-2.94 1.59,-3.78 0.24,-0.95 0.33,-1.96 0.29,-3.52 -0.01,-0.61 -0.05,-1.38 -0.07,-1.71 -0.07,-0.92 0.04,-1.64 0.37,-2.31 0.49,-0.99 1.55,-1.93 2.53,-2.26 0.85,-0.28 2.14,-0.41 2.69,-0.27 0.56,0.13 1.19,0.57 1.52,1.04 0.19,0.28 0.3,0.58 0.44,1.2 0.16,0.74 0.47,1.22 0.92,1.44 0.42,0.2 0.86,0.25 1.63,0.16 0.97,-0.11 1.56,-0.43 1.87,-1 0.18,-0.34 0.24,-0.61 0.33,-1.52 0.15,-1.5 0.33,-2.18 0.79,-3.11 0.31,-0.61 0.76,-1.18 1.05,-1.31 0.14,-0.07 0.44,-0.04 0.57,0.05 z"
         class="shp2"
         id="path1780"
         inkscape:connector-curvature="0"
         style="fill:#ffffff;stroke-width:0.50561094" />
    </g>
    <g
       id="g1790"
       transform="matrix(1.8750001,0,0,2.0862474,331.34805,-174.45279)"
       style="stroke-width:0.50561094">
      <path
         d="m 92.42,24.05 c 0.76,0.06 0.79,0.07 0.76,0.2 -0.04,0.15 -0.55,1.05 -0.84,1.47 -0.34,0.5 -0.88,1 -1.55,1.44 -0.96,0.62 -1.11,0.73 -1.17,0.84 -0.04,0.09 -0.03,0.12 0.05,0.18 0.17,0.14 1.45,0.39 2.54,0.48 1.37,0.13 2.54,-0.03 5.74,-0.75 1.05,-0.24 1.33,-0.29 1.36,-0.25 0.06,0.08 0,1.06 -0.08,1.47 -0.28,1.32 -1.12,2.4 -2.89,3.69 -0.29,0.21 -0.51,0.4 -0.49,0.42 0.05,0.04 2.71,0.57 3.41,0.68 0.91,0.13 1.45,0.16 3.03,0.16 1.48,0 2.28,-0.05 4.57,-0.26 0.2,-0.02 0.25,-0.02 0.25,0.03 0,0.08 -0.38,0.68 -0.83,1.32 -0.46,0.64 -1.34,1.54 -2,2.04 -1.42,1.06 -2.7,1.56 -5.01,1.95 -0.22,0.04 -0.4,0.09 -0.38,0.1 0.04,0.04 1.15,0.37 1.85,0.54 1.54,0.39 2.34,0.48 4.52,0.5 1.79,0.02 2.3,0 4.05,-0.16 0.52,-0.04 0.97,-0.07 0.98,-0.06 0.03,0.03 -0.3,0.45 -0.74,0.95 -1.07,1.2 -2.54,1.92 -4.83,2.39 -3.11,0.64 -8.13,0.9 -11.16,0.59 -1.01,-0.11 -1.77,-0.25 -2.85,-0.54 -0.33,-0.09 -0.62,-0.16 -0.64,-0.16 -0.11,0 0.56,0.75 0.93,1.05 0.32,0.26 2.04,1.52 2.12,1.55 0.04,0.01 0.04,0.03 0.02,0.06 -0.07,0.07 -0.55,0.12 -1.69,0.17 -2.27,0.1 -3.9,-0.16 -5.21,-0.81 -0.34,-0.17 -0.85,-0.5 -1.38,-0.9 -0.24,-0.17 -0.44,-0.32 -0.46,-0.32 -0.03,0 0.28,0.62 0.57,1.12 0.75,1.31 2.17,2.72 3.3,3.29 0.46,0.24 1.15,0.46 1.67,0.55 0.54,0.09 0.49,0.11 0.83,-0.35 0.36,-0.5 0.98,-1.15 1.32,-1.39 0.29,-0.21 0.69,-0.41 0.99,-0.49 0.3,-0.08 1.29,-0.07 1.78,0.01 0.76,0.13 1.62,0.48 2.08,0.86 0.29,0.23 0.52,0.53 0.74,0.93 l 0.17,0.31 -0.32,0.05 c -0.75,0.11 -1.1,0.47 -1.23,1.25 -0.07,0.4 0.12,1.13 0.35,1.38 0.12,0.14 0.39,0.26 0.93,0.45 0.62,0.21 0.73,0.27 0.75,0.45 0.01,0.12 -0.02,0.16 -0.26,0.39 -0.14,0.13 -0.44,0.37 -0.67,0.51 -0.39,0.26 -0.56,0.44 -0.62,0.66 -0.02,0.07 -0.01,0.1 0.05,0.13 0.09,0.05 0.08,0.05 2.45,0.24 1.61,0.13 2.04,0.15 3.16,0.15 1.46,0 1.83,-0.04 2.63,-0.24 0.99,-0.26 1.75,-0.56 2.45,-0.96 1.84,-1.08 3.04,-1.51 4.04,-1.43 1.82,0.15 3.9,1.65 4.34,3.14 0.04,0.12 0.08,0.37 0.09,0.56 0.03,0.35 -0.04,1.21 -0.1,1.27 -0.01,0.02 -0.1,-0.02 -0.19,-0.08 -1.44,-1 -2.16,-1.32 -3.17,-1.44 -0.82,-0.09 -1.14,0.01 -2.37,0.74 -1.37,0.82 -1.92,1.07 -2.87,1.31 -0.96,0.26 -2.15,0.43 -4,0.59 -0.56,0.05 -1.02,0.1 -1.03,0.11 -0.04,0.04 0.67,0.61 1.13,0.91 0.89,0.58 1.81,0.88 3.32,1.1 0.76,0.11 1.44,0.14 2.88,0.14 1.89,0 2.37,-0.04 4.09,-0.36 0.47,-0.09 0.85,-0.15 0.87,-0.15 0.03,0.05 -0.06,0.22 -0.37,0.69 -0.91,1.37 -1.55,1.98 -2.67,2.51 -1.29,0.62 -2.76,0.87 -5.47,0.94 -0.53,0.01 -1.01,0.03 -1.06,0.04 -0.09,0.02 -0.08,0.04 0.16,0.35 0.35,0.46 1.05,1.18 1.34,1.38 0.99,0.7 2.39,0.95 4.2,0.73 0.33,-0.03 0.63,-0.05 0.67,-0.04 0.11,0.04 0.04,0.61 -0.11,0.93 -0.24,0.5 -0.69,1 -1.12,1.24 l -0.21,0.12 0.3,0.35 c 0.34,0.39 0.65,0.97 0.86,1.56 0.13,0.39 0.21,0.94 0.21,1.59 v 0.37 l -0.46,0.09 c -0.65,0.12 -1.05,0.14 -1.51,0.08 -0.76,-0.09 -1.39,-0.36 -2.19,-0.92 -0.23,-0.16 -0.44,-0.29 -0.46,-0.28 -0.02,0.01 -0.14,0.15 -0.27,0.31 -0.43,0.56 -0.92,0.8 -1.69,0.84 l -0.45,0.02 -0.03,-0.44 c -0.01,-0.24 -0.06,-0.72 -0.1,-1.06 -0.19,-1.42 -0.37,-1.95 -0.93,-2.62 -0.25,-0.3 -1.45,-1.43 -1.52,-1.43 -0.03,0 -0.06,0.26 -0.1,0.72 -0.13,2.01 -0.31,3.06 -0.66,3.88 -0.43,1.02 -1.19,1.78 -2.18,2.2 -0.53,0.21 -1.97,0.58 -2.04,0.51 -0.02,-0.02 0.07,-0.2 0.2,-0.42 0.87,-1.55 1.13,-2.43 1.24,-4.2 0.07,-1.09 -0.05,-2.9 -0.27,-3.93 -0.19,-0.97 -0.52,-1.7 -0.97,-2.2 -0.22,-0.23 -0.26,-0.19 -0.26,0.29 0,0.38 -0.09,1.33 -0.16,1.63 -0.11,0.54 -0.57,1.26 -1.39,2.21 -0.9,1.05 -1.41,1.9 -1.58,2.68 -0.13,0.57 -0.02,1.47 0.26,2.12 0.26,0.63 0.75,1.3 1.09,1.52 l 0.1,0.06 -0.09,0.05 c -0.15,0.08 -0.49,0.13 -0.94,0.13 -0.38,0 -0.46,-0.02 -0.85,-0.15 -0.51,-0.18 -1.38,-0.6 -1.78,-0.85 -0.48,-0.31 -0.91,-0.67 -1.36,-1.12 -0.65,-0.66 -0.9,-1.03 -1.1,-1.63 -0.18,-0.53 -0.22,-0.92 -0.2,-1.81 0.02,-0.72 0.03,-0.8 0.13,-1.1 0.14,-0.41 0.25,-0.6 0.84,-1.48 0.95,-1.42 1.04,-1.71 1.08,-3.47 0.02,-1.17 -0.03,-2.11 -0.13,-2.66 -0.06,-0.33 -0.2,-0.62 -0.28,-0.62 -0.1,0 -0.36,0.27 -0.83,0.89 -0.5,0.65 -0.64,0.78 -0.76,0.7 C 88.64,61.1 88.46,60.84 88.29,60.56 87.58,59.37 87.18,59 86.5,58.87 c -0.52,-0.09 -1.26,0.07 -1.92,0.42 -0.3,0.16 -1.15,0.75 -1.58,1.1 l -0.23,0.19 -0.25,-0.76 c -0.32,-1.01 -0.4,-1.32 -0.46,-1.85 -0.04,-0.38 -0.03,-0.51 0.02,-0.84 0.05,-0.23 0.12,-0.52 0.18,-0.67 0.14,-0.35 0.42,-0.78 0.63,-0.96 0.17,-0.14 0.69,-0.42 0.79,-0.42 0.02,0 0.09,-0.02 0.15,-0.04 0.1,-0.04 0.1,-0.05 0.06,-0.13 -0.09,-0.17 -0.33,-0.44 -0.48,-0.54 -0.08,-0.06 -0.62,-0.24 -1.34,-0.44 -2.7,-0.78 -4.6,-1.54 -6.8,-2.72 -2.52,-1.35 -4.3,-2.63 -5.23,-3.73 -0.77,-0.93 -1.15,-1.74 -1.6,-3.44 -0.05,-0.18 -0.1,-0.33 -0.12,-0.33 -0.02,0 -0.15,0.19 -0.28,0.43 -0.98,1.69 -2.31,2.7 -3.73,2.87 l -0.23,0.03 0.24,-0.63 c 0.58,-1.55 0.99,-2.99 1.11,-3.89 0.09,-0.66 0.06,-1.86 -0.06,-2.41 -0.12,-0.55 -0.76,-2.51 -0.94,-2.84 -0.03,-0.06 -0.07,-0.04 -0.38,0.14 -0.75,0.43 -1.42,0.62 -2.08,0.58 -0.21,-0.01 -0.44,-0.04 -0.51,-0.06 -0.11,-0.03 -0.12,-0.04 -0.12,-0.27 0.01,-0.13 0.03,-0.43 0.06,-0.66 0.07,-0.53 0.04,-1.06 -0.07,-1.31 -0.09,-0.2 -0.36,-0.45 -0.57,-0.54 -0.89,-0.38 -2.22,-0.3 -2.63,0.17 -0.12,0.13 -0.29,0.52 -0.29,0.66 0,0.1 -0.16,0.57 -0.31,0.9 -0.26,0.56 -0.7,0.85 -1.33,0.86 -0.75,0 -1.42,-0.33 -1.98,-0.98 -0.4,-0.47 -0.61,-0.84 -0.87,-1.54 -0.68,-1.8 -0.77,-2.84 -0.34,-3.88 0.31,-0.76 0.74,-1.31 1.37,-1.8 0.52,-0.41 0.84,-0.57 1.8,-0.93 0.49,-0.19 0.97,-0.39 1.06,-0.45 0.21,-0.14 0.38,-0.4 0.51,-0.81 0.1,-0.29 0.11,-0.39 0.11,-0.89 0,-0.48 -0.02,-0.61 -0.09,-0.83 -0.05,-0.15 -0.09,-0.3 -0.09,-0.36 0,-0.08 0.02,-0.09 0.09,-0.07 0.26,0.08 0.68,0.28 1.07,0.51 0.9,0.53 1.8,1.64 2.09,2.56 0.12,0.38 0.3,0.63 0.56,0.76 0.54,0.28 2.13,0.26 3.13,-0.03 0.69,-0.19 1.35,-0.56 2.01,-1.09 0.18,-0.15 0.33,-0.26 0.35,-0.26 0.05,0 0.14,0.4 0.21,0.88 0.06,0.41 0.02,0.69 -0.21,1.41 -0.19,0.61 -0.23,0.97 -0.1,1.11 0.27,0.29 2.29,1.22 3.56,1.63 0.85,0.27 1.85,0.49 2.75,0.61 0.24,0.03 0.46,0.08 0.48,0.1 0.06,0.06 -0.24,0.23 -1.14,0.68 -0.44,0.21 -0.87,0.42 -0.97,0.47 -0.27,0.13 -0.52,0.4 -0.55,0.58 -0.07,0.32 0.19,0.81 0.84,1.57 0.18,0.22 0.44,0.54 0.58,0.71 0.56,0.71 0.95,1.08 1.2,1.11 0.23,0.03 0.43,-0.04 0.86,-0.33 0.4,-0.27 1.71,-1.01 3.55,-2.04 l 1.2,-0.66 v -0.6 c 0,-0.73 -0.07,-1.1 -0.28,-1.55 -0.21,-0.42 -0.34,-0.57 -0.77,-0.86 -0.47,-0.32 -0.69,-0.39 -1.53,-0.53 -1.18,-0.2 -1.62,-0.34 -1.85,-0.62 -0.1,-0.12 -0.11,-0.15 -0.09,-0.38 0.04,-0.4 0.31,-0.93 0.69,-1.32 0.49,-0.51 0.49,-0.49 0.52,-1.83 0.01,-0.77 0.03,-1.17 0.07,-1.25 0.18,-0.43 0.6,-0.65 1.54,-0.81 0.34,-0.06 0.66,-0.06 2.77,-0.04 3.15,0.04 4.8,-0.02 6.01,-0.23 0.93,-0.15 1.19,-0.25 2.69,-1.04 0.61,-0.32 0.83,-0.38 1.5,-0.41 0.58,-0.02 1.19,-0.01 1.91,0.04 z m -34.5,7.12 c -0.01,-0.01 -0.13,0.06 -0.27,0.15 -0.33,0.22 -0.67,0.32 -1.25,0.38 -0.26,0.02 -0.68,0.06 -0.92,0.08 -0.44,0.04 -0.72,0.12 -0.83,0.25 -0.04,0.06 -0.05,0.25 -0.01,1.13 0.02,0.59 0.06,1.14 0.09,1.23 0.03,0.11 0.14,0.25 0.35,0.46 l 0.3,0.3 0.13,-0.14 c 0.07,-0.08 0.23,-0.26 0.35,-0.4 0.39,-0.45 0.75,-0.62 1.55,-0.75 0.28,-0.05 0.43,-0.09 0.42,-0.12 -0.01,-0.02 -0.05,-0.19 -0.09,-0.36 -0.1,-0.45 -0.07,-1.19 0.08,-1.76 0.06,-0.24 0.1,-0.43 0.1,-0.45 z"
         class="shp2"
         id="path1784"
         inkscape:connector-curvature="0"
         style="fill:#ffffff;fill-rule:evenodd;stroke-width:0.50561094" />
      <path
         d="m 56.75,33.56 c -0.1,0.35 -0.49,0.6 -0.85,0.54 -0.37,-0.06 -0.68,-0.45 -0.63,-0.8 0.03,-0.22 0.21,-0.47 0.43,-0.58 0.55,-0.29 1.21,0.25 1.05,0.84 z"
         class="shp2"
         id="path1786"
         inkscape:connector-curvature="0"
         style="fill:#ffffff;stroke-width:0.50561094" />
      <path
         d="m 68.14,46.16 c 0.05,0.03 0.2,0.26 0.34,0.51 1,1.8 1.88,2.77 3.47,3.84 0.59,0.4 1.46,0.89 2.21,1.25 1.08,0.52 1.55,0.68 2.65,0.91 1.29,0.27 2,0.62 2.63,1.3 1.04,1.12 1.47,2.43 1.48,4.52 0,1.47 -0.17,2.05 -0.81,2.71 -0.12,0.13 -0.24,0.23 -0.27,0.22 C 79.78,61.4 79.75,61.31 79.31,60.21 78.97,59.34 78.4,58.17 78.02,57.6 77.51,56.82 77,56.27 76.4,55.84 c -0.27,-0.19 -1.48,-0.82 -1.52,-0.79 0,0.01 0.22,0.48 0.5,1.05 0.27,0.57 0.59,1.25 0.7,1.5 0.86,1.97 1.33,3.96 1.55,6.6 0.07,0.82 0.07,4.42 0,5.13 -0.29,2.99 -0.88,4.7 -2.17,6.29 -0.35,0.44 -1.08,1.26 -1.12,1.26 -0.04,0 -0.07,-0.22 -0.16,-1.38 -0.31,-4.13 -0.78,-7.02 -1.41,-8.71 -0.23,-0.61 -0.41,-1.04 -0.45,-1.04 -0.01,0 -0.06,0.12 -0.1,0.26 -0.03,0.14 -0.2,0.67 -0.37,1.18 -0.89,2.71 -2.05,4.93 -3.19,6.07 -0.46,0.46 -0.74,0.66 -1.21,0.85 -0.29,0.12 -1.01,0.29 -1.05,0.26 -0.01,-0.01 0.02,-0.28 0.06,-0.61 0.26,-1.93 0.49,-4.36 0.55,-5.74 0.08,-2.16 -0.34,-4.02 -1.29,-5.67 -0.44,-0.78 -1.43,-2.21 -1.55,-2.25 -0.03,0 -0.1,0.28 -0.19,0.75 -0.67,3.37 -1.19,4.86 -2.18,6.26 -0.33,0.47 -1.25,1.39 -1.7,1.71 -0.44,0.3 -1.1,0.64 -1.59,0.82 -0.4,0.14 -1.37,0.4 -1.39,0.38 -0.01,-0.01 0.12,-0.26 0.29,-0.56 0.99,-1.73 1.4,-3.12 1.61,-5.46 0.07,-0.76 0.07,-3.06 0,-3.65 -0.09,-0.76 -0.32,-2 -0.35,-1.9 -0.01,0.02 -0.05,0.4 -0.1,0.83 -0.11,0.99 -0.21,1.51 -0.41,2.12 -0.38,1.17 -0.98,2.07 -2.06,3.13 -0.91,0.88 -2.05,1.69 -2.96,2.11 -0.85,0.39 -1.97,0.65 -2.83,0.65 H 50 l 0.36,-1.08 c 0.46,-1.33 0.74,-2.05 1.26,-3.15 1.2,-2.52 1.38,-2.94 1.59,-3.78 0.24,-0.95 0.33,-1.96 0.29,-3.52 -0.01,-0.61 -0.05,-1.38 -0.07,-1.71 -0.07,-0.92 0.04,-1.64 0.37,-2.31 0.49,-0.99 1.55,-1.93 2.53,-2.26 0.85,-0.28 2.14,-0.41 2.69,-0.27 0.56,0.13 1.19,0.57 1.52,1.04 0.19,0.28 0.3,0.58 0.44,1.2 0.16,0.74 0.47,1.22 0.92,1.44 0.42,0.2 0.86,0.25 1.63,0.16 0.97,-0.11 1.56,-0.43 1.87,-1 0.18,-0.34 0.24,-0.61 0.33,-1.52 0.15,-1.5 0.33,-2.18 0.79,-3.11 0.31,-0.61 0.76,-1.18 1.05,-1.31 0.14,-0.07 0.44,-0.04 0.57,0.05 z"
         class="shp2"
         id="path1788"
         inkscape:connector-curvature="0"
         style="fill:#ffffff;stroke-width:0.50561094" />
    </g>
  </g>
</svg>
