<?xml version="1.0" encoding="UTF-8" standalone="no"?>
<svg
   xmlns:dc="http://purl.org/dc/elements/1.1/"
   xmlns:cc="http://creativecommons.org/ns#"
   xmlns:rdf="http://www.w3.org/1999/02/22-rdf-syntax-ns#"
   xmlns:svg="http://www.w3.org/2000/svg"
   xmlns="http://www.w3.org/2000/svg"
   xml:space="preserve"
   enable-background="new 0 0 921.291 760.615"
   viewBox="0 0 899.99998 600.00001"
   height="600"
   width="900"
   y="0px"
   x="0px"
   id="Syria"
   version="1.1"><metadata
   id="metadata2445"><rdf:RDF><cc:Work
       rdf:about=""><dc:format>image/svg+xml</dc:format><dc:type
         rdf:resource="http://purl.org/dc/dcmitype/StillImage" /><dc:title></dc:title></cc:Work></rdf:RDF></metadata><defs
   id="defs2443" />

































































<rect
   id="rect3403-9-2-4"
   height="600"
   width="900"
   style="fill:#cf142b;stroke-width:0.61728442"
   x="0"
   y="0" /><rect
   id="rect3405-7-0-6"
   height="360.33221"
   width="360.33218"
   style="fill:#ffffff;stroke-width:0.68634754"
   x="-36.258129"
   y="-36.258129" /><path
   style="fill:#006338;stroke-width:0.26393911"
   id="path3777-8"
   d="m 191.48987,285.22809 c 0,0 -4.89457,-7.55218 -7.56815,-12.91355 -6.97333,-13.53794 -8.24963,-37.52797 -10.03729,-62.03412 0,0 10.77383,15.997 18.24322,21.49642 2.29259,1.68802 8.34124,3.32348 8.34124,3.32348 l 13.19259,10.80979 c 0,0 22.92865,16.15311 25.86643,12.40762 2.54469,-3.24506 -16.14075,-17.45599 -22.79211,-26.0679 -6.6516,-8.61192 -18.11605,-23.52487 -16.26691,-25.28976 0,0 8.88592,11.48591 15.53407,14.26582 1.40791,0.58908 4.58865,-0.20321 5.76149,0.84402 7.78543,6.94976 17.36469,12.01226 26.59926,16.87866 12.45038,6.56149 38.89211,12.43901 38.97902,7.84085 0.0395,-2.04807 -16.95383,-11.26082 -33.39729,-26.15497 -17.62074,-15.96169 -33.93729,-39.75012 -36.58174,-43.27128 -2.57679,-3.43173 20.38569,16.58686 31.00001,15.30594 0.98593,-0.11852 0.83506,-2.95403 1.78198,-2.62773 7.55062,2.60186 15.47482,5.3284 21.67605,6.75053 16.87581,3.87099 16.94643,0.39378 16.80346,-2.18613 -0.1358,-2.45516 -50.11507,-16.1076 -83.15681,-58.24701 -1.26889,-1.6182 12.77754,10.31248 19.95285,8.1052 1.03753,-0.31926 0.8721,-2.45754 1.94148,-2.31946 6.35482,0.81889 26.65803,8.67855 26.50544,2.60106 -0.0889,-3.49057 -17.08099,-8.98058 -32.05803,-20.50024 -12.85655,-9.88811 -22.61013,-19.7723 -28.15828,-25.654503 -1.41235,-1.497434 9.63728,7.689443 14.53284,5.942573 0.73284,-0.26118 0.14321,-1.60879 0.90716,-1.50523 4.2684,0.57493 18.80667,9.44492 20.25186,4.01689 0.31802,-1.19543 -13.21902,-9.267666 -24.8447,-19.253827 -11.62568,-9.98616 -21.4726,-21.296395 -21.4726,-21.296395 3.11087,2.044126 7.05605,4.861685 9.61334,4.495388 0.37728,-0.238519 1.14543,-0.483976 0.70321,-1.888052 1.63333,0.334939 11.73803,6.027316 12.52766,2.355534 0.40987,-1.116964 -15.58569,-10.314831 -24.48223,-18.132911 -9.46494,-8.31776 -19.06322,-18.49138 -19.06322,-18.49138 0,0 -9.59852,10.17362 -19.06346,18.49138 -8.89654,7.81808 -24.8921,17.015947 -24.48223,18.132911 0.78963,3.671782 10.89433,-2.020595 12.52741,-2.355534 -0.44197,1.404076 0.32618,1.649582 0.70346,1.888052 2.55728,0.366297 6.50247,-2.451262 9.61334,-4.495388 0,0 -9.84692,11.310235 -21.4726,21.296395 -11.62568,9.986161 -25.162723,18.058397 -24.844703,19.253827 1.44519,5.42803 15.983463,-3.44196 20.251863,-4.01689 0.7642,-0.10346 0.17531,1.24405 0.90716,1.50523 4.89555,1.74687 15.94519,-7.440007 14.53284,-5.942573 -5.54815,5.882203 -15.30173,15.766393 -28.15828,25.654503 -14.977293,11.51966 -31.970383,17.00967 -32.058033,20.50024 -0.15309,6.07749 20.15062,-1.78217 26.50544,-2.60106 1.06938,-0.13803 0.90395,2.0002 1.94148,2.31946 7.175313,2.20728 21.221733,-9.7234 19.952853,-8.1052 -33.041743,42.13941 -83.021013,55.79185 -83.157063,58.24701 -0.14321,2.57991 -0.0716,6.05712 16.80371,2.18613 6.20123,-1.42213 14.12543,-4.14867 21.67605,-6.75053 0.94691,-0.3263 0.79605,2.50929 1.78198,2.62773 10.61432,1.28092 33.576793,-18.73767 31.000003,-15.30594 -2.64444,3.52116 -18.960993,27.30959 -36.581733,43.27128 -16.44322,14.89415 -33.43582,24.1069 -33.3973,26.15497 0.0864,4.59816 26.52865,-1.27936 38.97903,-7.84085 9.23457,-4.8664 18.81383,-9.9289 26.599263,-16.87866 1.17284,-1.04718 4.35358,-0.25494 5.76148,-0.84402 6.64815,-2.77991 15.53408,-14.26582 15.53408,-14.26582 1.84914,1.76489 -9.61531,16.67784 -16.26692,25.28976 -6.65135,8.61191 -25.336793,22.82284 -22.792103,26.0679 2.93778,3.74549 25.866433,-12.40762 25.866433,-12.40762 l 13.19259,-10.80979 c 0,0 6.0484,-1.63546 8.34124,-3.32348 7.46938,-5.49942 18.24321,-21.49642 18.24321,-21.49642 -1.78765,24.50615 -3.06395,48.49618 -10.03728,62.03412 -2.67358,5.36137 -7.56865,12.91355 -7.56865,12.91355 19.44346,0 38.88693,0 58.33014,0 z" /></svg>