<svg width="100%" height="100%" viewBox="0 0 360 240" xmlns="http://www.w3.org/2000/svg">
    <!-- Orig viewbox: 0 0 250 240 -->
    <path d="m0 0h360v240h-360z" fill="#e61e26" />
    <g transform="translate(55, -20)" fill="#fff" stroke="#000">
        <g fill-rule="evenodd">
            <path
                d="m188.25 182c-2.05.05-20.16.5-23.89 1.41-2.65.65-7.46-.5-9.09-1a1.57 1.57 0 0 0 -2 1 1.55 1.55 0 0 0 1 2 32.49 32.49 0 0 0 8.12 1.33 10.88 10.88 0 0 0 2.67-.29c2.87-.7 17.73-1.18 23.21-1.31a1.57 1.57 0 0 0 1.54-1.6 1.58 1.58 0 0 0 -1.62-1.53"
                fill="#211c1c" />
            <path
                d="m185.44 130.17-58.19 2.57m9.76-.87 8.1-17.13m0 17.21 13.58-16.82m0 16.22 9.4-13.42m1.5 12.94 5.3-9.48m-5.3 9.48 6.49 8.6m-17.39-8.12 8.52 13.71m-22.1-13.06 6.18 10.89m-14.28-11 4 12.4m-69.59-11.55h51.1m-11.36 0-6.16-16.28m-4.46 16.28-3.54-16.49m-6.62 16.49-8.19-10.45m8.19 10.45-8.19 11.74m18.36-11.74-9 13.62m19.67-13.62-7 11.74m35.34-28.43 1.06.25"
                fill="#ec1d27" />
            <path
                d="m176.35 137.22-3.71-4.92 9.3-.41a54.4 54.4 0 0 1 -5.59 5.33zm-14.91-4.42 7.38-.33 5.05 6.69a50.94 50.94 0 0 1 -6.09 3.84zm-32.61-5.25v-1.64a52.51 52.51 0 0 1 13.29-8.54l-6.35 13.43-6.94.31zm-4-3.9a4.28 4.28 0 0 0 -1.39.26c-1.23-1.48-6.33-6.84-16.57-8.71-5.17-8.16-6.89-15.59-5.08-22.06a21.19 21.19 0 0 1 7.61-10.86 34.34 34.34 0 0 0 1.13 13.35 1.29 1.29 0 0 0 .08.28 27.05 27.05 0 0 0 4.37 8.55c6.22 8.13 15.76 11.32 20.86 12.5a59.7 59.7 0 0 0 -9.57 7 4 4 0 0 0 -1.44-.28zm-6.82 22.74a19.29 19.29 0 0 0 2.87-2.48v4.49a19.72 19.72 0 0 0 -2.87-2zm-44-12.09h13.33l-5.59 8a28 28 0 0 1 -7.68-8zm7.79-9.84 5.26 6.72h-12.34a50.08 50.08 0 0 1 7.14-6.72zm39.07 3.09v3.63h-8.67l-4.82-12.7c8.22 1.79 12.39 6 13.49 7.28zm-17.09-9.65 5 13.28h-6.98l-2.9-13.5h.66a38.46 38.46 0 0 1 4.28.24zm-8.12.09 2.84 13.19h-7.37l-6.69-8.55a30.12 30.12 0 0 1 11.28-4.63zm-6.86 28.01-.43-.2a29.87 29.87 0 0 1 -3.94-1.8l6.75-9.68h6.41l-7.43 11.2a.41.41 0 0 0 0 .08l-1.33.4zm6-1.71 6.61-10h7l-5.13 8.71a39.64 39.64 0 0 0 -8.52 1.33zm20 .53a28.41 28.41 0 0 0 -7.85-1.77l5.18-8.74h8.86v4.25a15 15 0 0 1 -6.18 6.25zm-27.3-41.73c0-5.56 2.73-9.9 8.13-12.91a26.4 26.4 0 0 1 4.9-2.09 22.11 22.11 0 0 0 -1.68 4.18c-1.9 6.77-.5 14.3 4.13 22.41-1.08-.08-2.19-.14-3.36-.14a27.37 27.37 0 0 0 -7.62 1.08 19.88 19.88 0 0 1 -4.58-12.54zm12.3-28.39c2.58-3.12 6-4.68 9.09-4.15a6.47 6.47 0 0 1 3.75 2 7.48 7.48 0 0 1 1 1.43 13.84 13.84 0 0 0 -1.81 1.27 6.32 6.32 0 0 0 -1.7 2.75 26.49 26.49 0 0 0 -7.13 6.21 32.32 32.32 0 0 0 -7.08 2.32 17.36 17.36 0 0 1 3.83-11.84zm29.46-8.7a16.61 16.61 0 0 1 13.29 6.2 34.63 34.63 0 0 0 -7 .58h-.11-.16s-.06 0-.09.05a1.24 1.24 0 0 0 -.27.17.53.53 0 0 0 -.1.06 29.7 29.7 0 0 1 -2.56 2.16c-1.33-3.34-3.79-5.24-7-5.24a9.93 9.93 0 0 0 -8.26 3.96 12 12 0 0 0 -1.22-2.33c1.4-1.75 5.43-5.66 13.45-5.66zm29.1 22a9.4 9.4 0 0 1 -2.36 5.84c-1.78-10.71-9.15-15.2-10.7-16a6.67 6.67 0 0 0 -1.3-1.97 5.8 5.8 0 0 0 -.56-.55c3.44.17 7.42 1 10.32 3.42a11.79 11.79 0 0 1 4.6 9.26zm4.79 15.93a10.82 10.82 0 0 1 -5.89 9.39 52.54 52.54 0 0 0 -5.36-.54c2.44-2.74 4.49-7.12 4.49-14.09 0-.28 0-.54 0-.81a15.67 15.67 0 0 0 2.61-2.75 12.21 12.21 0 0 1 4.16 8.76zm12.29 19.75a46.4 46.4 0 0 1 6.49 5.12l-9.59.43zm-6.82-3.73c1.48.66 2.86 1.36 4.13 2.08l-4.12 7.36-6.83.3zm-9.3-3.06a47.71 47.71 0 0 1 6.31 1.84l-7.8 11.14-9.31.41zm-35-15.86a18.92 18.92 0 0 0 8.21-1.87c7.9-3.79 12.72-12.3 13.26-17.16 2.83 2.28 7.39 7.38 7.39 16.69 0 6.75-2.14 11.64-6.2 14.13a19.49 19.49 0 0 0 -2.35.46.53.53 0 0 0 -.12 0 27.19 27.19 0 0 0 -4.05 1.37l-.57-.13a.27.27 0 0 0 -.09 0 .32.32 0 0 0 -.09 0c-.15 0-14.38-1.73-22.18-11.94a24 24 0 0 1 -2.32-3.68 22.05 22.05 0 0 0 9.13 2.11zm-11.89-15.25c2.45 2 6.35 4.59 10.46 4.74a9.5 9.5 0 0 0 7-2.71c5.38-5.07 7-9.49 7.41-11.84a7.76 7.76 0 0 1 4.34 2 4.33 4.33 0 0 1 1 3.5c-.3 3.49-4.41 11.44-11.52 14.84-5.47 2.62-11.42 2-17.68-1.92a30.18 30.18 0 0 1 -1.07-8.62zm6.73-9.4a6.9 6.9 0 0 1 6.08-3.21c2.46 0 3.68 1.91 4.3 3.86a10.25 10.25 0 0 1 -6.11 1.32 8.57 8.57 0 0 1 -4.27-2zm-5.23 1.29a8.6 8.6 0 0 1 1.25-.87 12.38 12.38 0 0 0 7.76 4.63 10.64 10.64 0 0 0 1.59.12 15.48 15.48 0 0 0 8.59-3 24.5 24.5 0 0 1 -5.39 7 6.32 6.32 0 0 1 -4.73 1.84c-4.4-.15-8.88-4.19-10.32-5.6.1-.8.2-1.61.34-2.43a3.74 3.74 0 0 1 .89-1.69zm25.41 53 6.87-14.54a14.66 14.66 0 0 1 2.92-.32 48.38 48.38 0 0 1 6.63.46l-11.45 14.18-5 .22zm47.59 0a1.71 1.71 0 0 0 .09-.55s0 0 0-.08a1.5 1.5 0 0 0 -.12-.45.91.91 0 0 0 -.09-.17c0-.06-.06-.13-.1-.18a48.27 48.27 0 0 0 -25.17-15.1 13.75 13.75 0 0 0 4.8-10.23c0-6-3.85-10-5.73-11.54a12.1 12.1 0 0 0 .94-4.29 14.87 14.87 0 0 0 -5.69-11.69 18.66 18.66 0 0 0 -9.29-3.89s0-.07 0-.11a19.61 19.61 0 0 0 -17.25-9.54c-8.81 0-13.61 4.15-15.63 6.49a9.64 9.64 0 0 0 -4.26-1.86c-4.26-.72-8.78 1.25-12.09 5.26a20.48 20.48 0 0 0 -4.41 15.45c-4.45 2.81-8.6 7.43-8.6 14.91a22.66 22.66 0 0 0 4.61 13.64c-11.1 4.53-18.37 14.58-18.76 15.12-.05.08-.08.16-.12.24v.07a1.62 1.62 0 0 0 -.11.53s0 0 0 .06 0 0 0 .06a1.55 1.55 0 0 0 .1.52 29.82 29.82 0 0 0 14.18 14 78.05 78.05 0 0 1 -22.44 3.36 1.57 1.57 0 1 0 0 3.13c11.91 0 20.29-2.54 27.68-4.78 5.37-1.62 10-3 14.82-3 10 0 15 5 15.08 5.12l3.33 3.27a1.57 1.57 0 0 0 1.12.46 1.58 1.58 0 0 0 1.12-.46 1.53 1.53 0 0 0 0-2.2l-.76-.75v-23.95a.78.78 0 0 1 1.56 0v22.78a1.59 1.59 0 0 0 3.17 0v-6.41a20.25 20.25 0 0 0 4.28 3.41 1.61 1.61 0 0 0 2.18-.53 1.55 1.55 0 0 0 -.53-2.15 15.2 15.2 0 0 1 -5.93-6.1v-4.31l7.18-.32 3.46 10.83a1.61 1.61 0 0 0 2 1 1.56 1.56 0 0 0 1-2l-3.2-10 4.92-.22 5.7 10a1.59 1.59 0 0 0 1.39.8 1.57 1.57 0 0 0 1.38-2.32l-4.93-8.68 10.08-.45 7.1 11.43-1.21.53a1.54 1.54 0 0 0 -.85 2 1.58 1.58 0 0 0 1.46 1 1.66 1.66 0 0 0 .61-.12c1-.43 2-.89 3-1.37h.08a55 55 0 0 0 18.67-15.29 1.42 1.42 0 0 0 .12-.25.8.8 0 0 0 .08-.16zm-99.42 60.44c-9.32-11.82-25.43-8.79-26.11-8.66a1.56 1.56 0 0 0 -1.24 1.84 1.58 1.58 0 0 0 1.84 1.22c.15 0 14.86-2.79 23 7.51a20.18 20.18 0 0 0 2.38 2.53 1.63 1.63 0 0 0 1.07.41 1.59 1.59 0 0 0 1.17-.52 1.54 1.54 0 0 0 -.1-2.2 16.68 16.68 0 0 1 -2-2.13m67.15-9.52-.43-.42-20.79-20.47a1.6 1.6 0 0 0 -2.24 0 1.55 1.55 0 0 0 0 2.21l20.79 20.47.46.44c1.63 1.57 6 5.74 6 8.88a2.63 2.63 0 0 1 -.85 2 4 4 0 0 1 -2.78 1.23c-2.19 0-4.24-1.87-4.68-2.29-.92-.94-1.84-1.75-2.56-2.37-.31-.28-.57-.5-.73-.66l-6.86-6.76-2.24 2.21 6.85 6.75c.19.19.5.46.87.79 1.48 1.28 4.94 4.29 5 6.57a2 2 0 0 1 -.68 1.51 3 3 0 0 1 -2.28 1c-1.63-.08-3.28-1.63-3.78-2.22a16.73 16.73 0 0 0 -1.53-1.74l-8.24-8.13-2.24 2.21 8.24 8.13a8.29 8.29 0 0 1 2.42 3.58 2.8 2.8 0 0 1 -1 2.86c-1.56 1.54-3.89.43-4.68 0a9.13 9.13 0 0 0 -1.39-1.8c-1.92-1.88-6.83-7.33-6.88-7.39a1.6 1.6 0 0 0 -2.23-.13 1.55 1.55 0 0 0 -.14 2.21c.21.22 5 5.57 7 7.52a5.26 5.26 0 0 1 1.52 2.77 2.86 2.86 0 0 1 -.89 2.64 1.62 1.62 0 0 1 -1.15.44c-1.06 0-3.57-.75-8.37-5.64a1.6 1.6 0 0 0 -2.24 0 1.55 1.55 0 0 0 0 2.21c4.34 4.41 7.82 6.56 10.63 6.59a4.71 4.71 0 0 0 3.37-1.36 6 6 0 0 0 1.85-4.3 7.43 7.43 0 0 0 1.64.19 5.8 5.8 0 0 0 4.19-1.69 6.15 6.15 0 0 0 2-4.13 6.56 6.56 0 0 0 1.73.35h.29a6.21 6.21 0 0 0 4.4-1.93 5.09 5.09 0 0 0 1.6-3.82 5.9 5.9 0 0 0 -.17-1.17 7.6 7.6 0 0 0 1.28.14h.1a6.94 6.94 0 0 0 5-2.15 5.68 5.68 0 0 0 1.78-4.21c0-4.44-4.86-9.1-6.93-11.1"
                fill="#fff" />
            <path
                d="m122.52 205.74c-1.72 4.21-7.27 9.58-9.91 9.58a.75.75 0 0 1 -.62-.24c-1.21-1.37.82-5.16 4.93-9.21 1.84-1.81 3.66-2.9 4.86-2.9a1.42 1.42 0 0 1 1 .41c.23.22.24 1.05-.29 2.36zm-20 4.95c-2-1.95 1.66-7.29 6.15-11.72.67-.66 1.56-1.54 2.53-2.38l.13-.1s0 0 0 0c1.59-1.36 3.37-2.59 4.73-2.59a1.61 1.61 0 0 1 1.21.52 2.61 2.61 0 0 1 .86 2c0 3.06-4.31 7.25-6.15 9l-.44.43c-.23.22-.47.47-.73.73-1.76 1.78-4.71 4.76-6.86 4.76a2 2 0 0 1 -1.44-.65zm-7.29-6c-1.84-1.82 1.61-6.85 5.85-11s6.84-5.38 8.43-3.93c.6.55 1.83 1.68-.51 4.59-.87.77-1.73 1.58-2.58 2.41a38.55 38.55 0 0 0 -5.86 7.19c-1.32 1.1-3.61 2.47-5.33.78zm-5.81-6.47c-.81-.79.1-2.62.71-3.63a27.53 27.53 0 0 1 4-4.88l.41-.4c1.34-1.33 3.58-3.55 4.93-3.55a.9.9 0 0 1 .65.29 1.26 1.26 0 0 1 .41 1c0 1.92-2.34 5.12-4.69 7.44l-.57.57c-1.23 1.24-3.52 3.56-5 3.55a1.12 1.12 0 0 1 -.85-.39zm32.37 1.59a5.52 5.52 0 0 0 -1.45.21 8.78 8.78 0 0 0 1-3.68 5.74 5.74 0 0 0 -1.78-4.19 4.84 4.84 0 0 0 -3.46-1.44 6.63 6.63 0 0 0 -2.53.55 5.35 5.35 0 0 0 -1.88-3.83c-2.53-2.31-5.45-1.55-8 0 0-.13 0-.27 0-.4a4.38 4.38 0 0 0 -1.4-3.22 4.05 4.05 0 0 0 -2.84-1.15c-2.67 0-5.17 2.47-7.18 4.46l-.39.4a29.72 29.72 0 0 0 -4.5 5.49c-2.4 4-1.45 6.24-.23 7.44a4.33 4.33 0 0 0 3.09 1.3 5.29 5.29 0 0 0 1.57-.28 5.16 5.16 0 0 0 1.19 5.46 5.64 5.64 0 0 0 4.08 1.71 6.55 6.55 0 0 0 1.78-.26 5.22 5.22 0 0 0 5.12 6.08 8.42 8.42 0 0 0 4.63-1.72 4.77 4.77 0 0 0 1 4.38 3.87 3.87 0 0 0 3 1.32c4.65 0 11-7 12.85-11.54 1.3-3.19.47-4.91-.46-5.78a4.57 4.57 0 0 0 -3.21-1.27zm-9-30c0-6.81 10.86-14.58 16.08-18.31 1.13-.81 2-1.44 2.62-1.93 3.58-2.92 11.11-4.67 20.15-4.67 7 0 12.73 3.17 16.33 5.83 4.52 3.33 18.79 3.39 20.36 3.39a1.56 1.56 0 1 0 0-3.12h-.15c-5.69 0-15.57-.75-18.31-2.77-4-3-10.39-6.45-18.23-6.45-9.9 0-18 2-22.17 5.38-.52.43-1.42 1.07-2.47 1.81-6.06 4.34-17.32 12.39-17.38 20.76-.08.89-.59 8.52 2.91 12.3a6.64 6.64 0 0 0 5.06 2.16 5.72 5.72 0 0 0 4.29-1.66c2.28-2.36 2.08-6.54 1.91-9.91a16 16 0 0 1 0-3.49c1.84-2.34 5.84-5.8 8.56-5.8a1.56 1.56 0 1 0 0-3.12c-4.54 0-9.53 5.06-11.07 7-.9 1.13-.81 3-.68 5.56s.31 6.21-1 7.6a2.52 2.52 0 0 1 -2 .68 3.45 3.45 0 0 1 -2.72-1.14c-2.24-2.41-2.27-8-2.09-10 0 0 0-.09 0-.14"
                fill="#211c1c" />
        </g>
    </g>
</svg>